<svg width="116" height="125" viewBox="0 0 116 125" fill="none" xmlns="http://www.w3.org/2000/svg">
<path fill-rule="evenodd" clip-rule="evenodd" d="M30.5183 66.7033L23.3312 62.2836C25.2436 64.2188 27.6682 65.6699 30.5183 66.7033ZM40.8786 80.6455C38.4986 78.6131 36.023 76.6967 34.0536 74.3775C35.3035 77.283 37.9941 79.06 40.8786 80.6455ZM48.9372 67.4572C50.451 66.5919 49.8822 66.0509 49.4049 65.5285C47.7923 63.7611 44.8618 64.0789 42.054 64.4055C40.0077 64.6433 37.8267 65.1064 35.7582 66.2913C34.9694 66.7429 34.4271 67.247 35.3847 67.6005C37.9998 68.5652 40.8349 69.15 44.194 68.8055C45.7943 68.6413 47.4145 68.2302 48.9372 67.4572ZM35.838 73.3494C36.6753 75.0639 38.2715 76.2463 39.787 77.4722C46.336 82.7687 55.0828 85.345 65.0074 86.5149C71.6373 87.2962 78.524 87.4875 85.52 87.463C86.1582 87.4613 86.8126 87.437 87.2736 87.7258C87.7911 88.0505 87.9278 88.4134 86.8696 88.736C86.6091 88.816 86.2706 88.7279 86.3072 89.0969C86.4327 90.3699 85.1818 90.735 84.0844 91.1364C82.0251 91.8903 80.0677 91.9119 78.1207 92.0892C72.6657 92.5865 67.2552 92.9095 62.0914 92.621C57.2977 92.3528 52.8563 91.4633 48.4941 90.4561C45.7173 89.8149 42.918 89.1257 40.9491 87.6122C39.6412 86.6068 37.8164 86.2431 36.518 85.2751C34.029 83.4193 31.5847 81.5406 29.8661 79.0864C28.452 77.0663 27.9098 74.6949 28.4086 71.9285C28.5734 71.0164 28.2758 70.4228 27.5354 70.0266C25.5406 68.958 23.6069 67.8176 21.7178 66.6583C18.6436 64.7729 16.1423 62.3603 13.811 59.8453C10.0927 55.8341 7.07422 51.4056 5.74769 45.997C4.96803 42.8181 4.48267 39.5654 6.3619 35.7399C6.8566 34.7327 7.51579 33.8151 8.73042 33.1399C9.25367 32.8486 9.70887 32.7296 10.1232 32.9424C10.6124 33.1945 10.2087 33.4773 9.92867 33.8885C8.00737 36.7085 8.83743 38.9316 9.36755 41.195C10.8281 47.4326 14.6436 52.2601 19.0773 56.7097C22.4703 60.1146 26.3757 63.0768 30.8852 65.5097C31.2433 65.703 31.4692 66.1259 32.169 65.3826C34.6069 62.7929 37.7012 61.1753 41.0461 60.1728C46.2092 58.6251 50.9172 58.2652 54.2287 60.7203C56.0083 62.0394 55.8397 63.71 54.2052 66.047C50.0421 72.0011 43.0652 74.1387 37.6432 73.2844C37.158 73.2073 36.6729 73.1306 36.1887 73.054C36.0713 73.1525 35.9548 73.2512 35.838 73.3494Z" fill="white"/>
<path fill-rule="evenodd" clip-rule="evenodd" d="M104.353 80.9507C106.522 82.4445 109.004 83.5765 111.947 84.1769C109.416 83.1015 106.884 82.0265 104.353 80.9507ZM93.9253 92.7401C97.2158 90.8846 100.654 89.4415 104.059 87.9047C104.568 87.675 105.225 87.5988 105.408 86.9505C105.584 86.3279 104.999 86.2684 104.587 86.1565C102.347 85.5441 100.699 84.3237 98.8247 83.3264C97.6402 82.6968 96.2132 82.3015 95.0349 81.6149C93.2214 80.5572 91.2552 79.6462 89.3053 78.7261C88.3174 78.2597 87.8181 77.3287 86.4056 77.2459C85.0202 77.1643 84.901 76.2692 86.087 74.4817C86.6919 73.5693 87.7235 72.7382 88.943 72.9782C89.9458 73.1758 90.9185 73.4504 91.7811 73.8293C97.4891 76.3378 103.155 78.8939 108.856 81.409C110.136 81.9736 111.497 82.4494 112.834 82.9498C115.264 83.8595 115.313 84.8166 113.231 87.2759C111.614 89.185 109.637 90.4159 107.185 91.1975C102.464 92.7027 97.7505 94.3107 93.1388 96.4785C92.2148 96.913 91.3234 97.4394 90.4069 97.9002C89.346 98.4343 88.8967 98.2652 89.1556 97.3246C89.728 95.24 90.1133 94.8674 93.9253 92.7401Z" fill="white"/>
</svg>
