<svg width="32" height="32" viewBox="0 0 32 32" fill="none" xmlns="http://www.w3.org/2000/svg">
<path d="M0 11.5779C0 9.35766 1.79986 7.5578 4.0201 7.5578H27.9799C30.2001 7.5578 32 9.35766 32 11.5779V27.9799C32 30.2001 30.2001 32 27.9799 32H4.0201C1.79986 32 0 30.2001 0 27.9799V11.5779Z" fill="#165FCD"/>
<path d="M1.6084 27.1642C1.6084 25.8387 2.68291 24.7642 4.0084 24.7642H24.4222C24.5961 24.7642 24.7694 24.7453 24.9392 24.7078L28.4864 23.9254C29.4833 23.7055 30.2319 22.8791 30.3526 21.8654L30.5531 20.1813C30.5531 20.1813 30.5531 22.9744 30.5531 24.7642C30.5531 25.8089 30.5531 27.132 30.5531 28.2328C30.5531 29.4258 29.5861 30.3923 28.3931 30.3923H4.0084C2.68292 30.3923 1.6084 29.3178 1.6084 27.9923V27.1642Z" fill="white"/>
<path d="M0 4.0201C0 1.79986 1.79986 0 4.0201 0H27.9799C30.2001 0 32 1.79986 32 4.0201V20.7437C32 22.964 30.2001 24.7638 27.9799 24.7638H4.0201C1.79986 24.7638 0 22.964 0 20.7437V4.0201Z" fill="#227AFF"/>
<path d="M0 4.0201C0 1.79986 1.79986 0 4.0201 0H4.34171V31.6784C4.34171 31.856 4.19772 32 4.0201 32C1.79986 32 0 30.2001 0 27.9799V4.0201Z" fill="#165FCD"/>
<path d="M1.6084 27.1639C1.6084 25.8384 2.68291 24.7639 4.0084 24.7639H22.9953C23.8834 24.7639 24.6034 25.4839 24.6034 26.372V27.8996V29.1056C24.6034 29.8161 24.0274 30.3921 23.3169 30.3921H4.0084C2.68291 30.3921 1.6084 29.3175 1.6084 27.9921V27.1639Z" fill="white"/>
<path opacity="0.2" d="M3.5376 27.6579C3.5376 27.3027 3.82558 27.0147 4.18081 27.0147H27.6582C28.0134 27.0147 28.3014 27.3027 28.3014 27.6579C28.3014 28.0132 28.0134 28.3011 27.6582 28.3011H4.18081C3.82558 28.3011 3.5376 28.0132 3.5376 27.6579Z" fill="#227AFF"/>
<path d="M16.9998 14.5023C16.8948 14.4759 16.7956 14.4305 16.7073 14.3683C16.6352 14.31 16.5809 14.2328 16.5504 14.1456C16.5123 14.0191 16.4938 13.8256 16.4938 13.5651V9.8269C16.2099 10.1856 15.9362 10.552 15.6729 10.9258C15.4479 11.2429 15.2191 11.5573 14.9865 11.869C14.8896 11.996 14.822 12.083 14.7844 12.1311C14.7463 12.1798 14.6553 12.2462 14.5088 12.3322C14.366 12.4166 14.2028 12.4609 14.0365 12.4603C13.8677 12.4603 13.7141 12.4214 13.5757 12.343C13.4368 12.2652 13.3377 12.1889 13.2772 12.1144L13.1873 11.9922C13.0375 11.8057 12.7412 11.4101 12.2994 10.8031C12.0629 10.4751 11.8229 10.1497 11.5793 9.8269V13.5873C11.5793 13.7586 11.5739 13.8867 11.5624 13.9726C11.5515 14.058 11.5156 14.1526 11.4556 14.2569C11.3429 14.458 11.0504 14.558 10.5786 14.558C10.1211 14.558 9.83619 14.458 9.72344 14.2569C9.66908 14.1683 9.63297 14.0698 9.61722 13.9672C9.60373 13.8336 9.59809 13.6993 9.60033 13.5651V7.37189C9.60033 7.20054 9.60578 7.0719 9.61722 6.9865C9.62811 6.9011 9.66352 6.80218 9.72398 6.69084C9.83619 6.49733 10.1287 6.40112 10.601 6.40112C10.8031 6.40112 10.9779 6.42491 11.1239 6.47301C11.2699 6.52166 11.3658 6.57193 11.4104 6.62382L11.478 6.69084L14.0311 10.0161C15.3057 8.34265 16.1566 7.23784 16.5836 6.70165C16.7111 6.50166 17.0129 6.40112 17.489 6.40112C17.9651 6.40112 18.2554 6.50112 18.3605 6.70165C18.4204 6.81354 18.4558 6.91407 18.4673 7.00326C18.4782 7.09244 18.4842 7.22324 18.4842 7.39351V13.5878C18.4842 14.1013 18.3415 14.4023 18.0566 14.4921C17.9149 14.5364 17.7341 14.5586 17.5173 14.5586C17.2994 14.5586 17.1273 14.5402 16.9998 14.5029V14.5023ZM21.5972 18.2724C21.2813 18.187 21.0264 18.0811 20.8319 17.9541C20.4343 17.7162 20.157 17.4854 19.9996 17.2622L19.8983 17.1395C19.7038 16.9017 19.6063 16.6876 19.6063 16.4979C19.6063 16.3087 19.767 16.0574 20.0895 15.745C20.2774 15.5666 20.4762 15.4769 20.6859 15.4769C20.8956 15.4769 21.1882 15.6628 21.5629 16.0352C21.6675 16.1617 21.8173 16.2823 22.0129 16.3974C22.2073 16.5131 22.3876 16.5703 22.5521 16.5703C23.2494 16.5703 23.598 16.2882 23.598 15.7228C23.598 15.5515 23.5027 15.4088 23.3115 15.2926C23.1203 15.1774 22.8822 15.0937 22.5974 15.0418C22.2837 14.9823 21.9754 14.8983 21.6751 14.7904C21.3571 14.6803 21.0488 14.5442 20.7535 14.3834C20.468 14.2272 20.2305 13.9802 20.0388 13.6413C19.8482 13.3029 19.7523 12.8954 19.7523 12.4197C19.7523 11.7646 19.9974 11.1939 20.4887 10.7063C20.9801 10.2199 21.649 9.97554 22.496 9.97554C22.946 9.97554 23.3567 10.0339 23.7271 10.1485C24.0986 10.2642 24.3557 10.3809 24.4979 10.5004L24.779 10.7123C25.0116 10.9279 25.1276 11.1101 25.1276 11.2587C25.1276 11.4079 25.0377 11.6122 24.8574 11.8727C24.6025 12.2452 24.3405 12.4306 24.0708 12.4306C23.9129 12.4306 23.7184 12.3565 23.4858 12.2079C23.4401 12.1735 23.3967 12.1362 23.3561 12.096C23.293 12.0365 23.2347 11.9879 23.1824 11.9511C23.0244 11.8538 22.8245 11.8057 22.5805 11.8057C22.337 11.8057 22.1343 11.8636 21.9731 11.9787C21.8124 12.0944 21.7318 12.2543 21.7318 12.4587C21.7318 12.6635 21.8271 12.8289 22.0183 12.9554C22.209 13.0819 22.4476 13.1673 22.7319 13.2121C23.0173 13.2565 23.3284 13.3256 23.6655 13.4181C24.0033 13.5116 24.3138 13.6245 24.5992 13.7586C24.8841 13.8926 25.1221 14.1251 25.3128 14.4559C25.5045 14.7872 25.5999 15.1942 25.5999 15.6774C25.5999 16.1617 25.5023 16.5876 25.3079 16.9557C25.1129 17.3238 24.8574 17.6087 24.5431 17.8097C23.9357 18.2038 23.287 18.4011 22.5974 18.4011C22.2595 18.4029 21.9229 18.3596 21.5967 18.2724H21.5972Z" fill="white"/>
</svg>
