<!-- Generated by IcoMoon.io -->
<svg version="1.1" xmlns="http://www.w3.org/2000/svg" width="32" height="32" viewBox="0 0 32 32">
<path fill="#4d5e6f" d="M18.6 24.8h-5.3c-4.5 0-6.8 0-8.5-1.2-0.6-0.5-1.2-1-1.7-1.7-1.2-1.7-1.2-4-1.2-8.5s0-6.8 1.2-8.5c0.5-0.6 1-1.2 1.7-1.7 1.7-1.2 4-1.2 8.5-1.2 0.4 0 0.8 0.3 0.8 0.8s-0.3 0.8-0.8 0.8c-4.2 0-6.3 0-7.6 0.9-0.6 0.2-1 0.7-1.3 1.2-1 1.3-1 3.4-1 7.6s0 6.3 0.9 7.7c0.4 0.5 0.8 0.9 1.3 1.3 1.3 0.9 3.5 0.9 7.6 0.9h5.3c4.2 0 6.3 0 7.6-0.9 0.3-0.2 0.8-0.2 1 0.2 0.2 0.3 0.2 0.8-0.2 1-1.5 1.3-3.8 1.3-8.3 1.3z"></path>
<path fill="#4d5e6f" d="M15.2 24h1.5v5.3h-1.5v-5.3z"></path>
<path fill="#4d5e6f" d="M21.3 30.1h-10.6c-0.4 0-0.8-0.3-0.8-0.8s0.3-0.8 0.8-0.8h10.7c0.4 0 0.8 0.3 0.8 0.8s-0.5 0.8-0.9 0.8z"></path>
<path fill="#4d5e6f" d="M24 19.4h-1.3c-2.6 0-4.1 0-5.1-1s-1-2.5-1-5.1v-5.3c0-2.6 0-4.1 1-5.1s2.5-1 5.1-1h1.3c2.6 0 4.1 0 5.1 1s1 2.4 1 5.1v5.3c0 2.6 0 4.1-1 5.1s-2.5 1-5.1 1zM22.7 3.4c-2.5 0-3.5 0-4 0.6-0.5 0.5-0.6 1.6-0.6 4v5.3c0 2.5 0 3.5 0.6 4s1.6 0.6 4 0.6h1.3c2.5 0 3.5 0 4-0.6 0.5-0.5 0.6-1.6 0.6-4v-5.3c0-2.5 0-3.5-0.6-4-0.5-0.5-1.6-0.6-4-0.6h-1.3z"></path>
<path fill="#4d5e6f" d="M23.3 16.3c-0.6 0-1-0.4-1-1s0.4-1 1-1v0c0.6 0 1 0.4 1 1s-0.4 1-1 1z"></path>
</svg>
