<!-- Generated by IcoMoon.io -->
<svg version="1.1" xmlns="http://www.w3.org/2000/svg" width="32" height="32" viewBox="0 0 32 32">
<path d="M29.6 8c-0.442 0-0.8 0.358-0.8 0.8v6.4c0 0.442-0.358 0.8-0.8 0.8h-24.469l6.634-6.634c0.312-0.312 0.312-0.819 0-1.131s-0.819-0.312-1.131 0l-8 8c-0.312 0.312-0.312 0.819 0 1.131l8 8c0.157 0.157 0.362 0.234 0.566 0.234s0.41-0.078 0.566-0.234c0.312-0.312 0.312-0.819 0-1.131l-6.634-6.634h24.469c1.323 0 2.4-1.077 2.4-2.4v-6.4c0-0.442-0.358-0.8-0.8-0.8z"></path>
</svg>
