<!-- Generated by IcoMoon.io -->
<svg version="1.1" xmlns="http://www.w3.org/2000/svg" width="34" height="32" viewBox="0 0 34 32">
<path d="M6.222 14.667c-0.736 0-1.333 0.597-1.333 1.333v0c0 0.736 0.597 1.333 1.333 1.333v0h21.333c0.736 0 1.333-0.597 1.333-1.333v0c0-0.736-0.597-1.333-1.333-1.333v0z"></path>
<path d="M12.097 8.26c0 0-1.7 1.249-3.417 2.74-0.859 0.745-1.724 1.549-2.417 2.333s-1.375 1.384-1.375 2.667c0 1.282 0.682 1.882 1.375 2.667s1.558 1.588 2.417 2.333c1.717 1.491 3.417 2.74 3.417 2.74 0.218 0.163 0.494 0.26 0.792 0.26 0.438 0 0.827-0.212 1.070-0.538l0.003-0.004c0.163-0.218 0.26-0.494 0.26-0.792 0-0.438-0.212-0.827-0.538-1.070l-0.004-0.003c0 0-1.634-1.204-3.25-2.608-0.808-0.702-1.61-1.456-2.167-2.087s-0.708-1.303-0.708-0.899c0 0.404 0.151-0.269 0.708-0.899s1.359-1.385 2.167-2.087c1.616-1.403 3.25-2.608 3.25-2.608 0.33-0.246 0.542-0.635 0.542-1.073 0-0.298-0.098-0.573-0.263-0.795l0.003 0.004c-0.246-0.33-0.635-0.542-1.073-0.542-0.298 0-0.573 0.098-0.795 0.263l0.004-0.003z"></path>
</svg>
