<!-- Generated by IcoMoon.io -->
<svg version="1.1" xmlns="http://www.w3.org/2000/svg" width="32" height="32" viewBox="0 0 32 32">
<path d="M29.333 13.35h-26.667c-0.707 0-1.386 0.281-1.886 0.781s-0.781 1.178-0.781 1.886c0 0.707 0.281 1.386 0.781 1.886s1.178 0.781 1.886 0.781h26.667c0.707 0 1.386-0.281 1.886-0.781s0.781-1.178 0.781-1.886c0-0.707-0.281-1.386-0.781-1.886s-1.178-0.781-1.886-0.781z"></path>
<path d="M16 0.016c-0.527 0-1.043 0.157-1.481 0.45s-0.78 0.709-0.982 1.197c-0.202 0.487-0.255 1.023-0.152 1.541s0.357 0.992 0.73 1.365l11.448 11.448-11.448 11.448c-0.486 0.503-0.755 1.177-0.748 1.876s0.287 1.368 0.781 1.862c0.494 0.494 1.163 0.775 1.862 0.781s1.373-0.263 1.876-0.748l13.333-13.333c0.5-0.5 0.781-1.178 0.781-1.885s-0.281-1.385-0.781-1.885l-13.333-13.333c-0.247-0.248-0.541-0.445-0.865-0.579s-0.67-0.203-1.021-0.202z"></path>
</svg>
