<!-- Generated by IcoMoon.io -->
<svg version="1.1" xmlns="http://www.w3.org/2000/svg" width="43" height="32" viewBox="0 0 43 32">
<path fill="#fff" d="M3.049 12.317h29.237l-7.012-6.982c-0.574-0.574-0.897-1.353-0.897-2.165s0.323-1.591 0.897-2.165c0.574-0.574 1.353-0.897 2.165-0.897s1.59 0.323 2.165 0.897l12.195 12.195c0.277 0.29 0.495 0.632 0.64 1.006 0.305 0.742 0.305 1.575 0 2.317-0.145 0.374-0.363 0.716-0.64 1.006l-12.195 12.195c-0.283 0.286-0.621 0.513-0.992 0.667s-0.77 0.235-1.173 0.235-0.801-0.080-1.172-0.235c-0.372-0.155-0.709-0.382-0.992-0.667-0.286-0.283-0.513-0.621-0.667-0.992s-0.234-0.77-0.234-1.172c0-0.403 0.080-0.801 0.234-1.173s0.382-0.709 0.667-0.992l7.012-6.982h-29.237c-0.809 0-1.584-0.321-2.156-0.893s-0.893-1.347-0.893-2.156c0-0.809 0.321-1.584 0.893-2.156s1.347-0.893 2.156-0.893z"></path>
</svg>
