<!-- Generated by IcoMoon.io -->
<svg version="1.1" xmlns="http://www.w3.org/2000/svg" width="43" height="32" viewBox="0 0 43 32">
<path fill="#4d5e6f" d="M23.205 28.464c0.027-0.032 0.037-0.075 0.064-0.107l18.617-20.569c1.040-1.157 1.040-3.034 0-4.192-0.011-0.011-0.021-0.016-0.032-0.021-0.231-0.28-0.521-0.507-0.849-0.663s-0.686-0.24-1.049-0.243h-37.24c-0.37 0.006-0.734 0.093-1.067 0.255s-0.626 0.395-0.858 0.683l-0.011-0.011c-0.503 0.582-0.78 1.326-0.78 2.096s0.277 1.514 0.78 2.096l18.66 20.676c0.232 0.272 0.521 0.491 0.846 0.641s0.679 0.228 1.037 0.228c0.358 0 0.712-0.078 1.037-0.228s0.614-0.369 0.846-0.641z"></path>
</svg>
