<!-- Generated by IcoMoon.io -->
<svg version="1.1" xmlns="http://www.w3.org/2000/svg" width="32" height="32" viewBox="0 0 32 32">
<path d="M18.651 29.333v-26.667c0-0.707-0.281-1.386-0.781-1.886s-1.178-0.781-1.886-0.781c-0.707 0-1.386 0.281-1.886 0.781s-0.781 1.178-0.781 1.886v26.667c0 0.707 0.281 1.386 0.781 1.886s1.178 0.781 1.886 0.781c0.707 0 1.386-0.281 1.886-0.781s0.781-1.178 0.781-1.886z"></path>
<path d="M31.984 16c0-0.527-0.157-1.043-0.45-1.481s-0.709-0.78-1.197-0.982c-0.487-0.202-1.023-0.255-1.541-0.152s-0.992 0.357-1.365 0.73l-11.448 11.448-11.448-11.448c-0.503-0.486-1.177-0.755-1.876-0.748s-1.368 0.287-1.862 0.781c-0.494 0.494-0.775 1.163-0.781 1.862s0.263 1.373 0.748 1.876l13.333 13.333c0.5 0.5 1.178 0.781 1.885 0.781s1.385-0.281 1.885-0.781l13.333-13.333c0.248-0.247 0.445-0.541 0.579-0.865s0.203-0.67 0.202-1.021z"></path>
</svg>
