<!-- Generated by IcoMoon.io -->
<svg version="1.1" xmlns="http://www.w3.org/2000/svg" width="32" height="32" viewBox="0 0 32 32">
<path fill="#4d5e6f" d="M20.7 30.1c0 0-0.1 0 0 0-0.3 0-0.5-0.2-0.7-0.4-1.1-2.1-2-2.3-2-2.3-0.4 0-0.7-0.3-0.7-0.7s0.4-0.7 0.8-0.7c0.3 0 1.5 0.1 2.7 2 1.4-2 4.6-6.2 7.7-7.3 0.4-0.1 0.8 0.1 1 0.5s-0.1 0.8-0.5 1c-3.5 1.2-7.6 7.6-7.6 7.7-0.2 0.1-0.5 0.2-0.7 0.2z"></path>
<path fill="#4d5e6f" d="M14.7 22.1h-5.4c-0.4 0-0.8-0.3-0.8-0.8s0.3-0.8 0.8-0.8h5.3c0.4 0 0.8 0.3 0.8 0.8s-0.3 0.8-0.7 0.8zM20 15.4h-10.7c-0.4 0-0.8-0.3-0.8-0.8s0.3-0.8 0.8-0.8h10.7c0.4 0 0.8 0.3 0.8 0.8s-0.4 0.8-0.8 0.8z"></path>
<path fill="#4d5e6f" d="M14.7 30.1h-3.3c-4 0-6 0-7.4-1.4s-1.4-3.4-1.4-7.4v-8.7c0-4 0-6 1.4-7.4 1-1 2.5-1.2 4.6-1.3 0.4 0 0.8 0.3 0.8 0.7s-0.3 0.8-0.7 0.8c-2.1 0.1-3 0.3-3.7 0.9-1 1-1 2.7-1 6.3v8.7c0 3.6 0 5.4 1 6.3s2.7 1 6.3 1h3.3c0.4 0 0.8 0.3 0.8 0.8s-0.3 0.7-0.7 0.7zM26 18.8c-0.4 0-0.8-0.3-0.8-0.8v-5.3c0-3.6 0-5.4-1-6.3-0.6-0.6-1.6-0.9-3.7-0.9-0.4 0-0.7-0.4-0.7-0.8s0.3-0.7 0.8-0.7c0 0 0 0 0 0 2.2 0.1 3.6 0.3 4.7 1.4 1.4 1.4 1.4 3.4 1.4 7.4v5.2c0 0.4-0.3 0.8-0.7 0.8z"></path>
<path fill="#4d5e6f" d="M18.3 8.1h-7.3c-1.7 0-3.1-1.4-3.1-3.1s1.4-3.1 3.1-3.1h7.3c1.7 0 3.1 1.4 3.1 3.1s-1.4 3.1-3.1 3.1zM11 3.4c-0.9 0-1.6 0.7-1.6 1.6s0.7 1.6 1.6 1.6h7.3c0.9 0 1.6-0.7 1.6-1.6s-0.7-1.6-1.6-1.6h-7.3z"></path>
</svg>
