<!-- Generated by IcoMoon.io -->
<svg version="1.1" xmlns="http://www.w3.org/2000/svg" width="34" height="32" viewBox="0 0 34 32">
<path fill="#ff3945" d="M29.409 16.218c0.333-0.333 0.786-0.521 1.257-0.521s0.924 0.187 1.257 0.521 0.521 0.786 0.521 1.257v9.902c-0.005 1.224-0.493 2.397-1.359 3.263s-2.039 1.354-3.263 1.359h-22.756c-1.224-0.005-2.397-0.493-3.263-1.359s-1.354-2.039-1.359-3.263v-22.756c0.005-1.224 0.493-2.397 1.359-3.263s2.039-1.354 3.263-1.359h17.013c0.472 0 0.924 0.187 1.257 0.521s0.521 0.786 0.521 1.257c0 0.471-0.187 0.924-0.521 1.257s-0.786 0.521-1.257 0.521h-17.013c-0.283 0-0.554 0.112-0.754 0.312s-0.312 0.471-0.312 0.754v22.756c0 0.283 0.112 0.554 0.312 0.754s0.471 0.312 0.754 0.312h22.756c0.283 0 0.554-0.112 0.754-0.312s0.312-0.471 0.312-0.754v-9.902c0-0.471 0.187-0.924 0.521-1.257zM12.953 13.766c0.449-0.007 0.883 0.156 1.217 0.456l2.684 2.809 10.756-11.129c0.163-0.168 0.358-0.302 0.574-0.395s0.447-0.142 0.681-0.146 0.467 0.040 0.685 0.126c0.218 0.087 0.417 0.215 0.585 0.379s0.302 0.358 0.395 0.574c0.093 0.215 0.142 0.447 0.145 0.681s-0.040 0.467-0.126 0.685-0.215 0.416-0.379 0.585l-12.053 12.444c-0.167 0.17-0.366 0.305-0.586 0.397s-0.456 0.138-0.694 0.137c-0.239-0.001-0.476-0.050-0.696-0.145s-0.418-0.233-0.584-0.406l-3.947-4.142c-0.286-0.346-0.43-0.787-0.404-1.235s0.221-0.869 0.545-1.18c0.324-0.31 0.753-0.487 1.202-0.494z"></path>
</svg>
