<!-- Generated by IcoMoon.io -->
<svg version="1.1" xmlns="http://www.w3.org/2000/svg" width="26" height="32" viewBox="0 0 26 32">
<path d="M13.114 0.062c-5.105 0-9.257 4.154-9.257 9.258 0 2.38 0.91 4.546 2.39 6.187 0.033 0.045 0.066 0.087 0.11 0.121 1.691 1.811 4.090 2.95 6.757 2.95s5.066-1.14 6.757-2.95c0.042-0.035 0.079-0.076 0.11-0.121 1.481-1.642 2.391-3.807 2.391-6.187 0-5.104-4.153-9.258-9.258-9.258zM7.487 14.975c0.919-2.289 3.132-3.803 5.627-3.803s4.708 1.514 5.627 3.803c-0.739 0.738-1.617 1.324-2.582 1.723s-2 0.604-3.045 0.604c-2.11 0.001-4.134-0.836-5.627-2.327zM10.547 7.331c0.001-0.681 0.271-1.333 0.752-1.815s1.134-0.752 1.814-0.753c1.415 0 2.567 1.152 2.567 2.567s-1.151 2.567-2.567 2.567c-0.681-0.001-1.333-0.271-1.814-0.752s-0.752-1.134-0.752-1.814v0.001zM19.648 13.89c-0.859-1.679-2.332-2.961-4.113-3.58 0.444-0.359 0.801-0.813 1.047-1.329s0.373-1.079 0.373-1.65c0-2.119-1.723-3.842-3.842-3.842s-3.842 1.723-3.842 3.842c0 1.201 0.555 2.274 1.42 2.979-1.781 0.619-3.255 1.902-4.113 3.58-0.942-1.338-1.448-2.934-1.447-4.57 0-4.402 3.58-7.982 7.982-7.982s7.983 3.581 7.983 7.982c0.001 1.637-0.505 3.233-1.447 4.571l-0.001-0.001zM23.474 19.745h-20.72c-1.494 0-2.709 1.215-2.709 2.709s1.216 2.71 2.709 2.71h20.72c1.494 0 2.71-1.215 2.71-2.71s-1.216-2.709-2.71-2.709zM23.474 23.889h-20.72c-0.791 0-1.434-0.644-1.434-1.434s0.644-1.434 1.434-1.434h20.72c0.791 0 1.434 0.644 1.434 1.434s-0.644 1.434-1.434 1.434zM23.474 26.519h-20.72c-1.494 0-2.709 1.215-2.709 2.71s1.216 2.709 2.709 2.709h20.72c1.494 0 2.71-1.215 2.71-2.709s-1.216-2.71-2.71-2.71zM23.474 30.663h-20.72c-0.791 0-1.434-0.644-1.434-1.434s0.644-1.434 1.434-1.434h20.72c0.791 0 1.434 0.644 1.434 1.434s-0.644 1.434-1.434 1.434z"></path>
</svg>
