<!-- Generated by IcoMoon.io -->
<svg version="1.1" xmlns="http://www.w3.org/2000/svg" width="26" height="32" viewBox="0 0 26 32">
<path d="M10.533 17.049c0.18-0.105 0.321-0.248 0.423-0.428 0.105-0.183 0.157-0.392 0.157-0.624s-0.052-0.439-0.157-0.619c-0.101-0.183-0.242-0.326-0.423-0.428-0.177-0.101-0.377-0.152-0.6-0.152s-0.425 0.051-0.605 0.152c-0.177 0.101-0.318 0.244-0.423 0.428-0.101 0.18-0.152 0.387-0.152 0.619s0.051 0.441 0.152 0.624c0.105 0.18 0.248 0.323 0.428 0.428 0.18 0.101 0.38 0.152 0.6 0.152s0.419-0.051 0.6-0.152z"></path>
<path d="M16.936 17.024c0.177-0.095 0.313-0.231 0.408-0.408s0.142-0.384 0.142-0.619-0.047-0.441-0.142-0.614c-0.095-0.177-0.231-0.313-0.408-0.408s-0.384-0.142-0.619-0.142h-0.452v2.334h0.452c0.236 0 0.442-0.048 0.619-0.142z"></path>
<path d="M23.52 26.56h-20.8c-1.5 0-2.72 1.22-2.72 2.72s1.221 2.72 2.72 2.72h20.8c1.5 0 2.72-1.22 2.72-2.72s-1.221-2.72-2.72-2.72zM23.52 30.72h-20.8c-0.794 0-1.44-0.646-1.44-1.44s0.646-1.44 1.44-1.44h20.8c0.794 0 1.44 0.646 1.44 1.44s-0.646 1.44-1.44 1.44z"></path>
<path d="M2.72 25.2h20.8c1.5 0 2.72-1.22 2.72-2.72s-1.221-2.72-2.72-2.72h-3.549c0.613-1.116 0.963-2.397 0.963-3.76 0-0.508-0.049-1.003-0.141-1.484 1.020-1.489 1.621-3.285 1.621-5.223-0.001-5.123-4.169-9.293-9.294-9.293s-9.293 4.17-9.293 9.293c0 1.938 0.601 3.734 1.621 5.222-0.093 0.481-0.141 0.976-0.141 1.484 0 1.363 0.35 2.644 0.963 3.76h-3.55c-1.5 0-2.72 1.22-2.72 2.72s1.221 2.72 2.72 2.72zM8.941 17.644c-0.295-0.167-0.528-0.395-0.698-0.683-0.167-0.288-0.251-0.609-0.251-0.963s0.084-0.675 0.251-0.963c0.17-0.288 0.403-0.515 0.698-0.678 0.298-0.164 0.629-0.246 0.993-0.246s0.693 0.082 0.988 0.246c0.298 0.164 0.531 0.39 0.698 0.678 0.17 0.288 0.256 0.61 0.256 0.963s-0.085 0.675-0.256 0.963c-0.167 0.288-0.4 0.516-0.698 0.683-0.295 0.164-0.624 0.246-0.988 0.246s-0.695-0.082-0.993-0.246zM10.543 7.297c0.001-0.683 0.272-1.338 0.755-1.822s1.138-0.755 1.822-0.756c1.421 0 2.577 1.156 2.577 2.577 0 0.443-0.113 0.86-0.311 1.225-0.717-0.217-1.478-0.334-2.266-0.334s-1.549 0.117-2.266 0.334c-0.202-0.373-0.311-0.792-0.311-1.224zM12.414 14.169h0.762v2.998h1.548v0.663h-2.31v-3.662zM15.102 14.169h1.194c0.39 0 0.732 0.079 1.027 0.236 0.295 0.154 0.523 0.37 0.683 0.649 0.161 0.275 0.241 0.59 0.241 0.944s-0.080 0.67-0.241 0.949c-0.161 0.275-0.39 0.491-0.688 0.649-0.295 0.157-0.636 0.236-1.022 0.236h-1.194v-3.662zM5.107 9.293c0-4.419 3.593-8.013 8.013-8.013s8.013 3.595 8.013 8.013c0 1.25-0.294 2.475-0.85 3.582-0.738-1.689-2.055-3.067-3.702-3.882 0.007-0.014 0.015-0.027 0.021-0.040 0.247-0.518 0.375-1.083 0.375-1.657 0-2.127-1.73-3.857-3.857-3.857s-3.857 1.73-3.857 3.857c0 0.609 0.142 1.185 0.395 1.698-1.646 0.814-2.963 2.192-3.701 3.881-0.557-1.106-0.851-2.332-0.85-3.582zM2.72 21.040h4.43c1.433 1.696 3.576 2.773 5.97 2.773s4.536-1.077 5.97-2.773h4.43c0.794 0 1.44 0.646 1.44 1.44s-0.646 1.44-1.44 1.44h-20.8c-0.794 0-1.44-0.646-1.44-1.44s0.646-1.44 1.44-1.44z"></path>
</svg>
