<!-- Generated by IcoMoon.io -->
<svg version="1.1" xmlns="http://www.w3.org/2000/svg" width="32" height="32" viewBox="0 0 32 32">
<path d="M16.667 25.333v2.667c0 0.177 0.070 0.346 0.195 0.471s0.295 0.195 0.471 0.195h6.667c0.177 0 0.346-0.070 0.471-0.195s0.195-0.295 0.195-0.471v-2.667c0-0.177-0.070-0.346-0.195-0.471s-0.295-0.195-0.471-0.195h-6.667c-0.177 0-0.346 0.070-0.471 0.195s-0.195 0.295-0.195 0.471zM18 26h5.333v1.333h-5.333v-1.333zM28 0.667h-24c-0.884 0.001-1.731 0.353-2.356 0.977s-0.976 1.472-0.977 2.356v24c0 1.837 1.496 3.333 3.333 3.333h24c1.837 0 3.333-1.496 3.333-3.333v-24c0-1.837-1.496-3.333-3.333-3.333zM30 28c0 1.103-0.897 2-2 2h-24c-1.103 0-2-0.897-2-2v-20.667h28v20.667zM30 6h-28v-2c0-1.103 0.897-2 2-2h24c1.103 0 2 0.897 2 2v2zM9.333 3.333c-0.177 0-0.346 0.070-0.471 0.195s-0.195 0.295-0.195 0.471 0.070 0.346 0.195 0.471c0.125 0.125 0.295 0.195 0.471 0.195s0.346-0.070 0.471-0.195c0.125-0.125 0.195-0.295 0.195-0.471s-0.070-0.346-0.195-0.471c-0.125-0.125-0.295-0.195-0.471-0.195zM6.667 3.333c-0.177 0-0.346 0.070-0.471 0.195s-0.195 0.295-0.195 0.471c0 0.177 0.070 0.346 0.195 0.471s0.295 0.195 0.471 0.195c0.177 0 0.346-0.070 0.471-0.195s0.195-0.295 0.195-0.471-0.070-0.346-0.195-0.471c-0.125-0.125-0.295-0.195-0.471-0.195zM8 28.667h6.667c0.177 0 0.346-0.070 0.471-0.195s0.195-0.295 0.195-0.471v-2.667c0-0.177-0.070-0.346-0.195-0.471s-0.295-0.195-0.471-0.195h-6.667c-0.177 0-0.346 0.070-0.471 0.195s-0.195 0.295-0.195 0.471v2.667c0 0.177 0.070 0.346 0.195 0.471s0.295 0.195 0.471 0.195zM8.667 26h5.333v1.333h-5.333v-1.333zM4 3.333c-0.177 0-0.346 0.070-0.471 0.195s-0.195 0.295-0.195 0.471c0 0.177 0.070 0.346 0.195 0.471s0.295 0.195 0.471 0.195c0.177 0 0.346-0.070 0.471-0.195s0.195-0.295 0.195-0.471c0-0.177-0.070-0.346-0.195-0.471s-0.295-0.195-0.471-0.195zM10.819 21.189c0.016 0.016 0.035 0.027 0.051 0.041 0.319 0.312 0.663 0.597 1.033 0.848 0.043 0.029 0.089 0.052 0.133 0.081 0.355 0.229 0.727 0.432 1.12 0.599 0.047 0.020 0.095 0.033 0.141 0.052 0.399 0.159 0.812 0.288 1.241 0.376 0.027 0.005 0.053 0.007 0.079 0.012 0.448 0.085 0.909 0.135 1.383 0.135s0.935-0.049 1.383-0.135c0.027-0.005 0.053-0.007 0.079-0.012 0.429-0.087 0.843-0.217 1.241-0.376 0.047-0.019 0.095-0.032 0.141-0.052 0.39-0.166 0.765-0.367 1.12-0.599 0.044-0.028 0.091-0.052 0.133-0.081 0.371-0.251 0.715-0.536 1.033-0.848 0.016-0.016 0.035-0.027 0.051-0.041l0.005-0.011c0.681-0.68 1.221-1.487 1.589-2.375s0.558-1.841 0.557-2.803c0-4.044-3.289-7.333-7.333-7.333s-7.333 3.289-7.333 7.333c0 2.020 0.821 3.851 2.147 5.179l0.005 0.011zM19.603 20.767c-0.14 0.105-0.279 0.212-0.427 0.303-0.12 0.075-0.248 0.136-0.373 0.203-0.869 0.439-1.829 0.667-2.803 0.667s-1.934-0.229-2.803-0.667c-0.125-0.067-0.253-0.128-0.373-0.203-0.148-0.091-0.287-0.197-0.427-0.303-0.104-0.081-0.206-0.165-0.305-0.252 0.705-1.52 2.221-2.515 3.908-2.515s3.203 0.995 3.909 2.515c-0.099 0.087-0.202 0.171-0.307 0.252zM14 14.667c0-1.103 0.897-2 2-2s2 0.897 2 2c0 1.103-0.897 2-2 2s-2-0.897-2-2zM16 10c3.308 0 6 2.692 6 6 0 1.303-0.428 2.5-1.136 3.485-0.613-1.043-1.541-1.864-2.652-2.344 0.351-0.31 0.633-0.691 0.826-1.117s0.294-0.889 0.296-1.357c0-1.837-1.496-3.333-3.333-3.333s-3.333 1.496-3.333 3.333c0 0.985 0.439 1.863 1.121 2.473-1.111 0.48-2.039 1.301-2.652 2.344-0.736-1.013-1.134-2.232-1.136-3.484 0-3.308 2.692-6 6-6z"></path>
</svg>
