<!-- Generated by IcoMoon.io -->
<svg version="1.1" xmlns="http://www.w3.org/2000/svg" width="32" height="32" viewBox="0 0 32 32">
<path fill="#808c98" d="M3.692 18.447h24.615c0.653 0 1.279-0.259 1.741-0.721s0.721-1.088 0.721-1.741c0-0.653-0.259-1.279-0.721-1.741s-1.088-0.721-1.741-0.721h-24.615c-0.653 0-1.279 0.259-1.741 0.721s-0.721 1.088-0.721 1.741c0 0.653 0.259 1.279 0.721 1.741s1.088 0.721 1.741 0.721z"></path>
<path fill="#808c98" d="M16 30.754c0.487 0 0.963-0.145 1.367-0.415s0.72-0.655 0.906-1.105c0.186-0.45 0.235-0.945 0.14-1.422s-0.329-0.916-0.673-1.26l-10.567-10.567 10.567-10.567c0.448-0.464 0.697-1.086 0.691-1.731s-0.264-1.263-0.721-1.719c-0.456-0.456-1.074-0.715-1.719-0.721s-1.267 0.242-1.731 0.691l-12.308 12.308c-0.461 0.462-0.721 1.088-0.721 1.74s0.259 1.279 0.721 1.74l12.308 12.308c0.228 0.229 0.5 0.411 0.798 0.534s0.619 0.187 0.942 0.187z"></path>
</svg>
