<!-- Generated by IcoMoon.io -->
<svg version="1.1" xmlns="http://www.w3.org/2000/svg" width="43" height="32" viewBox="0 0 43 32">
<path fill="#808c98" d="M39.618 12.949h-29.237l7.012-6.982c0.574-0.574 0.897-1.353 0.897-2.165s-0.323-1.591-0.897-2.165c-0.574-0.574-1.353-0.897-2.165-0.897s-1.591 0.323-2.165 0.897l-12.195 12.195c-0.278 0.29-0.495 0.632-0.64 1.006-0.305 0.742-0.305 1.575 0 2.317 0.145 0.374 0.363 0.716 0.64 1.006l12.195 12.195c0.283 0.286 0.621 0.513 0.992 0.667s0.77 0.234 1.172 0.234 0.801-0.080 1.172-0.234c0.372-0.155 0.709-0.382 0.992-0.667 0.286-0.283 0.513-0.621 0.667-0.992s0.234-0.77 0.234-1.173-0.080-0.801-0.234-1.173c-0.155-0.371-0.382-0.709-0.667-0.992l-7.012-6.982h29.237c0.809 0 1.584-0.321 2.156-0.893s0.893-1.347 0.893-2.156-0.321-1.584-0.893-2.156c-0.572-0.572-1.347-0.893-2.156-0.893z"></path>
</svg>
