<!-- Generated by IcoMoon.io -->
<svg version="1.1" xmlns="http://www.w3.org/2000/svg" width="31" height="32" viewBox="0 0 31 32">
<path d="M23.040 3.238h-12.8c-2.816 0-5.12 2.304-5.12 5.12v15.36c0 2.816 2.304 5.12 5.12 5.12h12.8c1.408 0 2.56-1.152 2.56-2.56v-20.48c0-1.408-1.152-2.56-2.56-2.56zM12.8 8.358h5.12c0.768 0 1.28 0.512 1.28 1.28s-0.512 1.28-1.28 1.28h-5.12c-0.768 0-1.28-0.512-1.28-1.28s0.512-1.28 1.28-1.28zM23.040 26.278h-12.8c-1.408 0-2.56-1.152-2.56-2.56s1.152-2.56 2.56-2.56h12.8v5.12z"></path>
</svg>
