<!-- Generated by IcoMoon.io -->
<svg version="1.1" xmlns="http://www.w3.org/2000/svg" width="32" height="32" viewBox="0 0 32 32">
<path d="M0 26.024c0.009 2.003 1.635 3.623 3.639 3.623 0.002 0 0.003 0 0.005 0h26.342v-1.612h-1.687v-4.025h1.687v-0.706h2.024v-1.611h-1.214v-4.030h1.214v-1.612h-1.318v-1.378l-1.999-3.727h2.1v-2.165l-5.28-6.427h-18.642l-4.807 7.541c-0.832 0.666-1.36 1.682-1.36 2.821 0 1.991 1.614 3.606 3.606 3.606 0.001 0 0.001 0 0.002 0h-0c0.085 0.479 0.133 1.032 0.133 1.595 0 3.392-1.755 6.374-4.407 8.087l-0.038 0.023zM2.328 12.692c0.003-0.748 0.416-1.399 1.025-1.742l0.010-0.005h24.128v3.765h-23.14c-0 0-0.001 0-0.001 0-1.115 0-2.020-0.903-2.023-2.018v-0zM5.667 17.662h23.51v4.030h-23.51c-1.113 0-2.015-0.902-2.015-2.015s0.902-2.015 2.015-2.015v0zM3.643 24.009h23.037v4.029h-23.037c-0.013 0-0.028 0-0.044 0-1.113 0-2.015-0.902-2.015-2.015s0.902-2.015 2.015-2.015c0.015 0 0.031 0 0.046 0l-0.002-0z"></path>
</svg>
