<!-- Generated by IcoMoon.io -->
<svg version="1.1" xmlns="http://www.w3.org/2000/svg" width="32" height="32" viewBox="0 0 32 32">
<path d="M16 32c8.837 0 16-7.163 16-16s-7.163-16-16-16c-8.837 0-16 7.163-16 16s7.163 16 16 16zM17.667 14.333h3.333c0.442 0 0.866 0.176 1.179 0.488s0.488 0.736 0.488 1.179-0.176 0.866-0.488 1.179c-0.313 0.313-0.737 0.488-1.179 0.488h-3.333v3.333c0 0.442-0.176 0.866-0.488 1.179s-0.736 0.488-1.179 0.488-0.866-0.176-1.179-0.488c-0.313-0.313-0.488-0.737-0.488-1.179v-3.333h-3.333c-0.442 0-0.866-0.176-1.179-0.488s-0.488-0.736-0.488-1.179c0-0.442 0.176-0.866 0.488-1.179s0.736-0.488 1.179-0.488h3.333v-3.333c0-0.442 0.176-0.866 0.488-1.179s0.736-0.488 1.179-0.488c0.442 0 0.866 0.176 1.179 0.488s0.488 0.736 0.488 1.179v3.333z"></path>
</svg>
