<svg width="24" height="24" fill="none" xmlns="http://www.w3.org/2000/svg"><path d="M11.191 1.359c-.684.144-1.146.332-3.562 1.444-2.028.934-3.551 1.69-4.029 2-.526.341-.949.778-1.142 1.178-.131.272-.152.359-.168.675-.022.421.06.729.287 1.079.502.777 1.159 1.163 5.01 2.94 2.565 1.184 3.103 1.394 3.85 1.507.479.072.647.072 1.126 0 .746-.113 1.264-.315 3.837-1.502 3.857-1.778 4.521-2.167 5.023-2.945.227-.35.309-.658.287-1.079-.016-.316-.037-.403-.168-.675-.193-.4-.616-.837-1.142-1.178-.481-.312-2.012-1.072-4.04-2.004-2.483-1.142-2.933-1.322-3.637-1.456a4.504 4.504 0 0 0-1.532.016m1.082 1.402c.61.079 1.019.241 3.532 1.402 2.945 1.36 3.723 1.76 4.139 2.131.125.111.252.262.283.335.049.118.047.151-.011.274-.196.414-1.056.889-4.396 2.429-2.839 1.309-3.104 1.406-3.82 1.406-.713 0-.974-.095-3.777-1.386C4.805 7.779 3.921 7.284 3.756 6.85c-.055-.145.044-.328.3-.556.417-.371 1.232-.791 4.161-2.142 2.459-1.134 2.916-1.317 3.477-1.39.135-.017.255-.034.266-.036.011-.002.152.014.313.035M2.992 10.4c-.182.054-.326.182-.459.406-.197.331-.267.628-.243 1.038.026.465.207.845.587 1.233.582.595 1.278.97 4.65 2.506 3.025 1.378 3.511 1.546 4.473 1.546.963 0 1.445-.167 4.48-1.549 3.301-1.504 4.058-1.91 4.623-2.481.685-.692.811-1.593.33-2.348-.266-.418-.754-.507-1.115-.203-.275.231-.331.604-.144.956.093.175.102.221.065.32-.168.444-.955.87-4.979 2.696-2.297 1.042-2.778 1.202-3.438 1.147-.594-.051-1.084-.238-3.502-1.338-3.642-1.656-4.394-2.07-4.559-2.505-.037-.099-.028-.145.063-.32.234-.446.086-.899-.353-1.082a.665.665 0 0 0-.479-.022m.4 5.176c-.284.102-.741.564-.934.944a1.85 1.85 0 0 0-.095 1.329c.162.482.579.959 1.197 1.371.458.305 1.884 1.004 4.073 1.997 2.05.93 2.749 1.22 3.314 1.372.35.095.465.106 1.053.106.588 0 .703-.011 1.053-.106.565-.152 1.264-.442 3.314-1.372 2.189-.993 3.615-1.692 4.073-1.997.392-.261.785-.631.979-.922a1.8 1.8 0 0 0 .018-1.957c-.145-.227-.544-.632-.707-.715a.727.727 0 0 0-1.015.352c-.148.326-.075.591.246.898.129.123.254.276.278.339.135.36-.489.808-2.339 1.678a201.4 201.4 0 0 1-4.068 1.85c-1.588.682-2.074.682-3.668-.001A163.237 163.237 0 0 1 5.54 18.62c-1.142-.561-1.624-.878-1.755-1.155-.09-.19-.039-.31.254-.592.322-.31.394-.569.246-.895a.779.779 0 0 0-.476-.416c-.188-.052-.235-.051-.417.014" fill-rule="evenodd" fill="#000"/></svg>