<!-- Generated by IcoMoon.io -->
<svg version="1.1" xmlns="http://www.w3.org/2000/svg" width="1024" height="1024" viewBox="0 0 1024 1024">
<g id="icomoon-ignore">
</g>
<path fill="#195ec8" d="M53.848 361.598l430.082 184.321c3.822 1.638 7.942 2.486 12.104 2.486s8.278-0.848 12.104-2.486l430.080-184.321c5.521-2.37 10.228-6.307 13.537-11.325 3.305-5.018 5.071-10.897 5.071-16.907s-1.765-11.888-5.071-16.906c-3.31-5.018-8.016-8.956-13.537-11.325l-430.080-184.32c-3.826-1.639-7.942-2.485-12.104-2.485s-8.282 0.845-12.104 2.485l-430.082 184.32c-5.523 2.37-10.23 6.307-13.538 11.325s-5.071 10.896-5.071 16.906c0 6.010 1.763 11.888 5.071 16.907s8.014 8.955 13.538 11.325z"></path>
<path fill="#195ec8" d="M938.217 489.456l-71.18-30.507-334.848 143.434c-11.473 4.919-23.826 7.455-36.311 7.455s-24.838-2.535-36.311-7.455l-334.54-143.434-71.178 30.507c-5.523 2.367-10.23 6.308-13.538 11.325s-5.071 10.895-5.071 16.904c0 6.013 1.763 11.891 5.071 16.908s8.014 8.954 13.538 11.325l430.082 184.32c3.822 1.638 7.942 2.486 12.104 2.486s8.278-0.848 12.104-2.486l430.080-184.32c5.521-2.372 10.228-6.308 13.537-11.325 3.305-5.018 5.071-10.895 5.071-16.908 0-6.009-1.765-11.887-5.071-16.904-3.31-5.018-8.016-8.958-13.537-11.325z"></path>
<path fill="#195ec8" d="M938.217 673.776l-71.18-30.507-334.848 143.434c-11.473 4.919-23.826 7.455-36.311 7.455s-24.838-2.535-36.311-7.455l-334.54-143.434-71.178 30.507c-5.523 2.367-10.23 6.308-13.538 11.325s-5.071 10.895-5.071 16.904c0 6.013 1.763 11.891 5.071 16.908s8.014 8.954 13.538 11.325l430.082 184.32c3.822 1.638 7.942 2.486 12.104 2.486s8.278-0.848 12.104-2.486l430.080-184.32c5.521-2.372 10.228-6.308 13.537-11.325 3.305-5.018 5.071-10.895 5.071-16.908 0-6.009-1.765-11.887-5.071-16.904-3.31-5.018-8.016-8.958-13.537-11.325z"></path>
</svg>
