<svg width="8" height="8" fill="none" xmlns="http://www.w3.org/2000/svg"><path d="M1.887.013a.756.756 0 0 0-.614.58.698.698 0 0 0 0 .315.77.77 0 0 0 .472.544l.088.035 1.807.003 1.806.004L2.811 4.13C.851 6.091.162 6.789.121 6.852a.669.669 0 0 0-.111.388c-.002.34.2.619.523.722.064.02.123.027.22.027.162 0 .269-.03.395-.11.063-.041.761-.73 2.722-2.69l2.636-2.635.004 1.806.003 1.807.035.088a.85.85 0 0 0 .229.32.75.75 0 0 0 .81.09.808.808 0 0 0 .389-.492c.025-.104.024-3.927 0-4.22C7.92 1.282 7.765.875 7.445.555 7.13.24 6.73.086 6.073.025 5.88.007 2.008-.004 1.887.013" fill-rule="evenodd" fill="#000"/></svg>