<svg width="14" height="14" fill="none" xmlns="http://www.w3.org/2000/svg"><path d="M2.575 1.27c-.44.1-.839.365-1.068.711-.322.484-.409.916-.272 1.356.026.083.334.808.685 1.61l.639 1.458 2.751.012 2.752.011.097.052c.189.102.288.279.288.52s-.099.418-.288.52l-.097.052-2.752.011-2.751.012-.626 1.431a62.823 62.823 0 0 0-.675 1.575c-.077.226-.088.648-.024.902.161.639.615 1.125 1.179 1.264.308.075.751.076.99.001.201-.063 8.363-4.136 8.59-4.287.186-.123.429-.371.555-.566a1.97 1.97 0 0 0 .264-.75c.078-.605-.196-1.189-.73-1.558-.228-.158-8.453-4.266-8.64-4.315-.193-.051-.682-.064-.867-.022" fill="#fff" fill-rule="evenodd"/></svg>