<!-- Generated by IcoMoon.io -->
<svg version="1.1" xmlns="http://www.w3.org/2000/svg" width="30" height="32" viewBox="0 0 30 32">
<path d="M16.071 24.083c-0-1.425 0.422-2.818 1.213-4.002s1.915-2.108 3.232-2.654c1.316-0.546 2.764-0.689 4.162-0.411s2.68 0.964 3.688 1.971c1.007 1.007 1.694 2.291 1.971 3.688s0.136 2.846-0.409 4.162c-0.545 1.316-1.469 2.441-2.654 3.232s-2.577 1.214-4.002 1.213c-1.909-0.002-3.739-0.761-5.089-2.111s-2.109-3.18-2.112-5.088v0zM18.45 24.083c0 0.954 0.283 1.887 0.813 2.68s1.283 1.412 2.165 1.778c0.882 0.365 1.852 0.461 2.788 0.275s1.795-0.646 2.47-1.321c0.675-0.675 1.134-1.535 1.321-2.471s0.091-1.906-0.274-2.788c-0.365-0.882-0.983-1.636-1.777-2.166s-1.727-0.813-2.681-0.813c-1.28 0-2.508 0.509-3.412 1.414s-1.412 2.132-1.412 3.412zM4.762 31.283c-1.262-0.002-2.473-0.504-3.365-1.396s-1.395-2.103-1.396-3.365v-18.568c0.001-1.263 0.504-2.473 1.396-3.366s2.103-1.395 3.365-1.397h1.488v-1.191c0-0.316 0.125-0.618 0.348-0.841s0.526-0.348 0.842-0.348c0.316 0 0.618 0.125 0.841 0.348s0.348 0.526 0.348 0.841v1.191h5.358v-1.191c0-0.316 0.125-0.618 0.348-0.841s0.526-0.348 0.842-0.348c0.316 0 0.618 0.125 0.841 0.348s0.348 0.526 0.348 0.841v1.191h5.418v-1.191c0-0.316 0.125-0.619 0.349-0.843s0.527-0.349 0.843-0.349 0.619 0.126 0.842 0.349c0.223 0.224 0.35 0.527 0.35 0.843v1.191h1.546c1.263 0.002 2.473 0.504 3.366 1.397s1.395 2.103 1.396 3.366v6.783c0 0.316-0.125 0.619-0.349 0.843s-0.526 0.348-0.842 0.348-0.62-0.125-0.843-0.348c-0.223-0.223-0.349-0.527-0.349-0.843v-6.783c0-0.631-0.251-1.237-0.697-1.684s-1.051-0.698-1.683-0.699h-1.546v1.191c0 0.316-0.126 0.619-0.35 0.843s-0.526 0.349-0.842 0.349-0.62-0.126-0.843-0.349c-0.224-0.223-0.349-0.527-0.349-0.843v-1.191h-5.418v1.191c0 0.316-0.125 0.618-0.348 0.841s-0.525 0.348-0.841 0.348-0.619-0.125-0.842-0.348c-0.223-0.223-0.348-0.526-0.348-0.841v-1.191h-5.358v1.191c0 0.316-0.125 0.618-0.348 0.841s-0.525 0.348-0.841 0.348c-0.316 0-0.619-0.125-0.842-0.348s-0.348-0.526-0.348-0.841v-1.191h-1.488c-0.631 0.001-1.237 0.253-1.683 0.699s-0.697 1.053-0.697 1.684v18.568c0 0.631 0.251 1.237 0.697 1.684s1.051 0.698 1.683 0.699h9.106c0.156 0 0.311 0.031 0.455 0.090s0.276 0.148 0.387 0.258 0.198 0.242 0.258 0.386c0.060 0.144 0.091 0.299 0.091 0.455s-0.031 0.311-0.091 0.455c-0.060 0.144-0.147 0.276-0.258 0.386s-0.243 0.198-0.387 0.258c-0.144 0.060-0.299 0.090-0.455 0.090l-9.106-0.001zM23.272 25.27c-0.156 0-0.311-0.031-0.455-0.090s-0.275-0.147-0.386-0.257c-0.11-0.11-0.198-0.241-0.258-0.386s-0.091-0.299-0.090-0.455v-2.442c0-0.315 0.125-0.618 0.349-0.841s0.526-0.349 0.842-0.349 0.618 0.126 0.841 0.349c0.223 0.223 0.348 0.525 0.348 0.841v1.25h0.538c0.316 0 0.618 0.125 0.841 0.349s0.349 0.526 0.349 0.841c0 0.316-0.125 0.618-0.349 0.841s-0.525 0.348-0.841 0.348l-1.729 0.001zM11.428 23.665c-0-0.235 0.069-0.466 0.2-0.662s0.317-0.349 0.534-0.439c0.217-0.090 0.456-0.113 0.687-0.067s0.444 0.159 0.61 0.326c0.166 0.166 0.28 0.378 0.326 0.61s0.022 0.47-0.068 0.688-0.243 0.403-0.439 0.534c-0.196 0.131-0.427 0.201-0.662 0.2-0.315-0.001-0.617-0.126-0.839-0.349s-0.348-0.524-0.348-0.84v0zM6.248 23.665c-0-0.235 0.069-0.465 0.2-0.661s0.316-0.349 0.533-0.439c0.217-0.090 0.457-0.114 0.688-0.069s0.442 0.159 0.609 0.326 0.28 0.378 0.326 0.609c0.046 0.231 0.023 0.47-0.067 0.687s-0.241 0.404-0.437 0.534-0.426 0.201-0.661 0.201c-0.315-0-0.618-0.126-0.841-0.348s-0.349-0.525-0.35-0.84h-0.001zM11.428 18.485c0-0.235 0.070-0.465 0.201-0.661s0.317-0.347 0.534-0.437c0.217-0.090 0.457-0.113 0.688-0.067s0.443 0.16 0.609 0.326c0.166 0.167 0.279 0.379 0.325 0.61s0.022 0.47-0.068 0.688c-0.090 0.217-0.243 0.403-0.439 0.533s-0.427 0.2-0.662 0.2c-0.315-0.001-0.617-0.126-0.839-0.349s-0.348-0.526-0.348-0.841v-0.001zM6.248 18.485c0-0.235 0.070-0.465 0.201-0.66s0.317-0.348 0.534-0.438c0.217-0.090 0.456-0.114 0.687-0.067s0.443 0.159 0.609 0.326 0.28 0.378 0.326 0.609c0.046 0.231 0.022 0.47-0.068 0.688s-0.242 0.403-0.438 0.534c-0.195 0.131-0.425 0.201-0.66 0.201-0.315-0-0.619-0.125-0.842-0.349s-0.348-0.526-0.348-0.841l-0.001-0.001zM21.782 13.306c0-0.236 0.070-0.466 0.201-0.662s0.317-0.348 0.534-0.438c0.218-0.090 0.457-0.114 0.688-0.068s0.442 0.16 0.609 0.326 0.28 0.379 0.326 0.61c0.046 0.231 0.023 0.471-0.067 0.688s-0.243 0.404-0.439 0.534c-0.196 0.131-0.427 0.2-0.662 0.2-0.315-0.001-0.618-0.126-0.841-0.349s-0.348-0.525-0.348-0.841l-0.001-0.001zM16.606 13.306c0-0.235 0.070-0.465 0.201-0.66s0.317-0.348 0.535-0.438c0.217-0.090 0.457-0.113 0.688-0.067s0.443 0.16 0.609 0.326c0.166 0.167 0.279 0.379 0.325 0.609s0.021 0.47-0.070 0.688c-0.090 0.217-0.242 0.403-0.438 0.533s-0.427 0.2-0.662 0.2c-0.315-0.001-0.617-0.126-0.839-0.349s-0.347-0.526-0.347-0.841l-0.001-0.001zM11.428 13.306c0-0.235 0.070-0.465 0.201-0.66s0.317-0.348 0.534-0.438c0.217-0.090 0.457-0.113 0.688-0.067s0.443 0.16 0.609 0.326c0.166 0.167 0.279 0.379 0.325 0.609s0.022 0.47-0.068 0.688c-0.090 0.217-0.243 0.403-0.439 0.533s-0.427 0.2-0.662 0.2c-0.315-0.001-0.617-0.126-0.839-0.349s-0.348-0.525-0.348-0.841v-0.001zM6.248 13.306c0-0.235 0.070-0.465 0.201-0.66s0.317-0.348 0.534-0.438c0.217-0.090 0.456-0.114 0.687-0.068s0.443 0.16 0.609 0.326c0.166 0.166 0.28 0.378 0.326 0.609s0.022 0.47-0.068 0.687c-0.090 0.217-0.242 0.403-0.438 0.534s-0.425 0.201-0.66 0.201c-0.315-0-0.619-0.125-0.842-0.348s-0.348-0.526-0.348-0.841l-0.001-0.001z"></path>
</svg>
