<!-- Generated by IcoMoon.io -->
<svg version="1.1" xmlns="http://www.w3.org/2000/svg" width="32" height="32" viewBox="0 0 32 32">
<path d="M29.182 18.251v-12.607c-0.003-1.559-1.266-2.821-2.824-2.825h-4.24v-2.118c0-0.389-0.315-0.705-0.705-0.705s-0.705 0.315-0.705 0.705v2.118h-11.452v-2.118c0-0.391-0.317-0.708-0.708-0.708s-0.708 0.317-0.708 0.708v0 2.118h-5.022c-1.558 0.003-2.821 1.266-2.825 2.824v20.711c0.003 1.559 1.266 2.822 2.824 2.825h15.434c1.434 1.73 3.584 2.824 5.989 2.824 4.288 0 7.764-3.476 7.764-7.764 0-2.405-1.094-4.555-2.811-5.979l-0.013-0.010zM1.409 5.644c0 0 0 0 0 0 0-0.78 0.63-1.412 1.409-1.415h5.022v1.415c-0.782 0-1.415 0.634-1.415 1.415s0.634 1.415 1.415 1.415c0.782 0 1.415-0.634 1.415-1.415 0-0.001 0-0.003 0-0.004v0-2.824h11.452v1.415c-0.002 0-0.004 0-0.006 0-0.782 0-1.415 0.634-1.415 1.415s0.634 1.415 1.415 1.415c0.782 0 1.415-0.634 1.415-1.415 0-0.001 0-0.003 0-0.004v0-2.824h4.24c0.779 0.003 1.409 0.636 1.409 1.415 0 0 0 0 0 0v0 4.236h-26.357v-4.236zM2.818 27.768c-0.779-0.003-1.409-0.636-1.409-1.415 0 0 0 0 0 0v0-15.060h26.357v6.036c-1.028-0.538-2.246-0.854-3.538-0.854-4.282 0-7.754 3.471-7.754 7.754 0 1.293 0.316 2.511 0.876 3.583l-0.020-0.043h-14.511zM24.24 30.592c-0.001 0-0.002 0-0.004 0-3.509 0-6.354-2.845-6.354-6.354s2.845-6.354 6.354-6.354c3.509 0 6.354 2.845 6.354 6.354v0c-0.004 3.507-2.844 6.348-6.35 6.354h-0.001zM27.815 21.412l-4.535 4.532-1.649-1.651c-0.129-0.124-0.305-0.2-0.499-0.2-0.398 0-0.721 0.323-0.721 0.721 0 0.193 0.076 0.368 0.199 0.497l-0-0 2.166 2.161c0.127 0.13 0.304 0.211 0.5 0.211 0.002 0 0.003 0 0.005-0h-0c0 0 0.001 0 0.001 0 0.199 0 0.379-0.081 0.51-0.211l5.040-5.041c0.145-0.132 0.235-0.321 0.235-0.531 0-0.397-0.322-0.719-0.719-0.719-0.21 0-0.399 0.090-0.531 0.234l-0 0.001z"></path>
</svg>
