<!-- Generated by IcoMoon.io -->
<svg version="1.1" xmlns="http://www.w3.org/2000/svg" width="44" height="32" viewBox="0 0 44 32">
<path fill="#227aff" d="M5.818 0.484c-3.213 0-5.818 2.605-5.818 5.818v19.394c0 3.213 2.605 5.818 5.818 5.818h17.455c3.213 0 5.818-2.605 5.818-5.818v-19.394c0-3.213-2.605-5.818-5.818-5.818h-17.455zM42.667 9.28v13.439c0 1.644-1.333 2.977-2.977 2.977-0.588 0-1.162-0.174-1.651-0.5l-4.205-2.803c-0.54-0.36-0.864-0.965-0.864-1.614v-9.56c0-0.648 0.324-1.254 0.864-1.614l4.205-2.803c0.489-0.326 1.064-0.5 1.651-0.5 1.645 0 2.977 1.333 2.977 2.977z"></path>
</svg>
