<!-- Generated by IcoMoon.io -->
<svg version="1.1" xmlns="http://www.w3.org/2000/svg" width="49" height="32" viewBox="0 0 49 32">
<path d="M46.37 31.75c-0.318-0.001-0.62-0.066-0.895-0.182l0.015 0.006c-0.329-0.14-0.612-0.318-0.862-0.532l0.004 0.004-8.262-6.595c-0.707-0.584-1.271-1.313-1.651-2.145l-0.015-0.037c-0.398-0.779-0.639-1.698-0.657-2.67l-0-0.006v-7.211c0.020-0.97 0.261-1.88 0.673-2.687l-0.016 0.035c0.395-0.869 0.96-1.599 1.656-2.174l8.272-6.628c0.244-0.21 0.528-0.384 0.837-0.509l0.020-0.007c0.26-0.101 0.561-0.16 0.875-0.16 0.002 0 0.003 0 0.005 0h-0c0.561 0.010 1.066 0.241 1.432 0.61l0 0c0.409 0.441 0.66 1.033 0.66 1.684 0 0.076-0.003 0.151-0.010 0.226l0.001-0.010v26.454c0 0.009 0 0.019 0 0.029 0 0.315-0.043 0.62-0.123 0.91l0.006-0.024c-0.078 0.285-0.19 0.535-0.335 0.762l0.007-0.011c-0.196 0.261-0.438 0.476-0.716 0.635l-0.011 0.006c-0.257 0.143-0.564 0.228-0.89 0.228-0.007 0-0.014-0-0.021-0h0.001zM46.066 2.878l-8.198 6.555c-0.421 0.362-0.759 0.808-0.989 1.314l-0.010 0.024c-0.254 0.469-0.412 1.024-0.434 1.613l-0 0.007v7.211c0.023 0.6 0.181 1.158 0.444 1.652l-0.010-0.021c0.237 0.534 0.575 0.985 0.993 1.345l0.005 0.004 8.191 6.549zM28.039 31.609h-24.036c-0.019 0-0.042 0.001-0.064 0.001-0.98 0-1.866-0.405-2.499-1.056l-0.001-0.001c-0.653-0.63-1.058-1.512-1.058-2.489 0-0.015 0-0.030 0-0.045l-0 0.002v-24.036c-0-0.019-0.001-0.042-0.001-0.064 0-0.98 0.405-1.866 1.056-2.499l0.001-0.001c0.634-0.652 1.52-1.057 2.5-1.057 0.023 0 0.045 0 0.068 0.001l-0.003-0h24.036c0.014-0 0.031-0 0.047-0 0.976 0 1.858 0.405 2.487 1.055l0.001 0.001c0.652 0.634 1.057 1.52 1.057 2.5 0 0.023-0 0.045-0.001 0.068l0-0.003v24.036c0 0.014 0 0.031 0 0.047 0 0.976-0.405 1.858-1.055 2.487l-0.001 0.001c-0.629 0.65-1.51 1.053-2.485 1.053-0.019 0-0.039-0-0.058-0l0.003 0zM4.003 2.766c-0.008-0-0.018-0-0.027-0-0.329 0-0.627 0.135-0.841 0.353l-0 0c-0.218 0.214-0.353 0.512-0.353 0.841 0 0.010 0 0.019 0 0.029l-0-0.001v24.036c-0 0.004-0 0.010-0 0.015 0 0.326 0.135 0.62 0.352 0.829l0 0c0.214 0.218 0.512 0.353 0.841 0.353 0.010 0 0.019-0 0.029-0l-0.001 0h24.036c0.004 0 0.010 0 0.015 0 0.326 0 0.62-0.135 0.829-0.352l0-0c0.211-0.209 0.342-0.499 0.342-0.819 0-0.010-0-0.019-0-0.029l0 0.001v-24.036c0-0.008 0-0.018 0-0.027 0-0.329-0.135-0.627-0.353-0.841l-0-0c-0.21-0.218-0.504-0.353-0.83-0.353-0.005 0-0.010 0-0.016 0h0.001z"></path>
</svg>
