<!-- Generated by IcoMoon.io -->
<svg version="1.1" xmlns="http://www.w3.org/2000/svg" width="31" height="32" viewBox="0 0 31 32">
<path d="M24.723 6.675c-5.172-5.172-13.555-5.172-18.727 0s-5.172 13.555 0 18.727c5.172 5.171 13.555 5.171 18.727 0s5.17-13.555 0-18.727zM20.977 20.158c0.199 0.199 0.31 0.468 0.31 0.749s-0.112 0.55-0.31 0.749-0.468 0.31-0.749 0.31c-0.281 0-0.55-0.112-0.749-0.31l-4.12-4.12-4.12 4.12c-0.098 0.099-0.215 0.177-0.343 0.231s-0.266 0.081-0.406 0.081c-0.139 0-0.277-0.028-0.406-0.081s-0.245-0.132-0.343-0.231c-0.098-0.098-0.177-0.215-0.23-0.344s-0.081-0.266-0.081-0.405c0-0.139 0.027-0.277 0.081-0.405s0.131-0.245 0.23-0.344l4.12-4.12-4.12-4.12c-0.199-0.199-0.31-0.468-0.31-0.749s0.112-0.55 0.31-0.749c0.199-0.199 0.468-0.31 0.749-0.31s0.55 0.112 0.749 0.31l4.12 4.12 4.12-4.12c0.098-0.098 0.215-0.176 0.344-0.23s0.266-0.081 0.405-0.081c0.139 0 0.277 0.027 0.405 0.081s0.245 0.131 0.344 0.23c0.098 0.098 0.176 0.215 0.23 0.344s0.081 0.266 0.081 0.405c0 0.139-0.027 0.277-0.081 0.405s-0.131 0.245-0.23 0.344l-4.12 4.12 4.12 4.12z"></path>
</svg>
