<!-- Generated by IcoMoon.io -->
<svg version="1.1" xmlns="http://www.w3.org/2000/svg" width="31" height="32" viewBox="0 0 31 32">
<path d="M8.96 23.718c-1.414 0-2.547 1.146-2.547 2.56s1.133 2.56 2.547 2.56c1.414 0 2.56-1.146 2.56-2.56s-1.146-2.56-2.56-2.56zM1.28 3.238v2.56h2.56l4.602 9.709-1.728 3.136c-0.198 0.371-0.314 0.787-0.314 1.235 0 1.414 1.146 2.56 2.56 2.56h15.36v-2.56h-14.816c-0.179 0-0.32-0.141-0.32-0.32 0-0.058 0.013-0.109 0.038-0.154l1.146-2.086h9.536c0.96 0 1.798-0.531 2.24-1.318l4.576-8.307c0.102-0.179 0.16-0.39 0.16-0.614 0-0.339-0.135-0.665-0.375-0.905s-0.566-0.375-0.905-0.375h-18.925l-1.216-2.56h-4.179zM21.76 23.718c-1.414 0-2.547 1.146-2.547 2.56s1.133 2.56 2.547 2.56c1.414 0 2.56-1.146 2.56-2.56s-1.146-2.56-2.56-2.56z"></path>
</svg>
