<!-- Generated by IcoMoon.io -->
<svg version="1.1" xmlns="http://www.w3.org/2000/svg" width="32" height="32" viewBox="0 0 32 32">
<path d="M30.4 4.8h-9.6v-3.2c0-0.884-0.716-1.6-1.6-1.6v0h-6.4c-0.884 0-1.6 0.716-1.6 1.6v0 3.2h-9.6c-0.884 0-1.6 0.716-1.6 1.6v0 24c0 0.884 0.716 1.6 1.6 1.6v0h28.8c0.884 0 1.6-0.716 1.6-1.6v0-24c0-0.884-0.716-1.6-1.6-1.6v0zM12.8 1.6h6.4v3.2h-6.4v-3.2zM30.4 30.4h-28.8v-16h11.2v1.6c0 0.884 0.716 1.6 1.6 1.6v0h3.2c0.884 0 1.6-0.716 1.6-1.6v0-1.6h11.2v16zM14.4 16v-1.6h3.2v1.6h-3.2zM30.4 12.8h-28.8v-6.4h28.8v6.4z"></path>
</svg>
