<!-- Generated by IcoMoon.io -->
<svg version="1.1" xmlns="http://www.w3.org/2000/svg" width="31" height="32" viewBox="0 0 31 32">
<path fill="#4d5e6f" d="M6.982 29.673c-0.388 0-0.776-0.097-1.164-0.291-1.358-0.776-1.358-2.424-1.358-5.624v-10.667c0-4.945 0-7.37 1.745-9.018s4.267-1.649 9.309-1.649 7.564 0 9.309 1.649 1.745 4.17 1.745 9.018v10.667c0 3.297 0 4.945-1.358 5.624-1.842 0.97-4.461-0.873-6.594-2.424-0.582-0.388-1.067-0.776-1.455-0.97-0.97-0.582-1.358-0.776-1.649-0.776s-0.776 0.194-1.649 0.776c-0.388 0.194-0.873 0.582-1.455 0.97-1.745 1.164-3.685 2.715-5.43 2.715zM15.515 3.782c-4.655 0-6.982 0-8.339 1.261-1.261 1.261-1.261 3.491-1.261 7.952v10.667c0 2.521 0 4.073 0.582 4.364 1.067 0.582 3.588-1.261 5.042-2.327 0.582-0.485 1.164-0.873 1.552-1.067 1.067-0.679 1.649-0.97 2.424-0.97s1.358 0.388 2.424 0.97c0.485 0.291 0.97 0.679 1.552 1.067 1.455 1.067 3.976 2.909 5.042 2.327 0.582-0.291 0.582-1.842 0.582-4.364v-10.667c0-4.461 0-6.691-1.261-7.952-1.358-1.261-3.685-1.261-8.339-1.261z"></path>
<path fill="#4d5e6f" d="M22.497 10.279h-13.964c-0.388 0-0.776-0.388-0.776-0.776v0c0-0.388 0.291-0.679 0.679-0.679h14.061c0.388 0 0.679 0.291 0.679 0.679v0c0.097 0.388-0.291 0.776-0.679 0.776z"></path>
</svg>
