<!-- Generated by IcoMoon.io -->
<svg version="1.1" xmlns="http://www.w3.org/2000/svg" width="32" height="32" viewBox="0 0 32 32">
<path d="M11.595 5.161c0.207-0 0.406 0.082 0.553 0.229l11.245 11.245c0 0 0 0 0 0 0.51 0.51 0.797 1.202 0.797 1.924s-0.287 1.414-0.797 1.924l-5.456 5.456c-0.51 0.51-1.203 0.797-1.924 0.797s-1.414-0.287-1.924-0.797l-11.253-11.253c-0.144-0.144-0.224-0.336-0.225-0.545l-0.047-8.193c-0.002-0.433 0.348-0.786 0.781-0.786l8.25-0.003zM13.164 4.373c-0.416-0.416-0.981-0.65-1.57-0.65l-8.25 0.003c-1.23 0-2.225 1.001-2.218 2.231l0.047 8.193c0.003 0.582 0.232 1.138 0.646 1.553l11.253 11.253c0.78 0.78 1.838 1.218 2.941 1.218s2.16-0.438 2.94-1.218l0-0 5.456-5.456c0.78-0.78 1.218-1.838 1.218-2.94s-0.438-2.161-1.218-2.941l-0-0-11.245-11.245z"></path>
<path d="M14.525 7.029c-0.193 0.347-0.068 0.785 0.279 0.977l12.891 7.163c0.57 0.317 1.007 0.828 1.232 1.439s0.223 1.284-0.006 1.894zM28.921 18.503l-2.778 7.407c-0.134 0.357-0.342 0.682-0.609 0.953s-0.589 0.484-0.944 0.623c-0.355 0.139-0.735 0.203-1.116 0.185s-0.754-0.114-1.095-0.285l-3.463-1.731c-0.355-0.177-0.787-0.033-0.964 0.322s-0.033 0.787 0.322 0.964l3.463 1.73c0.521 0.261 1.091 0.409 1.674 0.435s1.163-0.070 1.706-0.283c0.543-0.213 1.034-0.538 1.443-0.953s0.726-0.912 0.931-1.457l0-0 2.778-7.407c0.35-0.933 0.353-1.96 0.009-2.895s-1.012-1.716-1.883-2.2l-0-0-12.891-7.163c-0.347-0.193-0.785-0.068-0.977 0.279z"></path>
<path d="M4.222 8.488c0-0.95 0.77-1.72 1.72-1.72s1.72 0.77 1.72 1.72c0 0.95-0.77 1.72-1.72 1.72s-1.72-0.77-1.72-1.72z"></path>
</svg>
