<!-- Generated by IcoMoon.io -->
<svg version="1.1" xmlns="http://www.w3.org/2000/svg" width="32" height="32" viewBox="0 0 32 32">
<path d="M2.286 1.563c-0.358 0-0.723 0.365-0.723 0.723v11.124c0 0.83 0.302 1.577 0.809 2 0.036 0.030 0.071 0.062 0.105 0.095l14.324 14.324c0.192 0.198 0.424 0.355 0.679 0.46s0.53 0.156 0.806 0.149c0.475 0 1.155-0.279 1.486-0.609l10.057-10.057c0.198-0.192 0.355-0.424 0.46-0.679s0.156-0.53 0.149-0.806c0-0.475-0.279-1.155-0.609-1.486l-14.324-14.324c-0.623-0.623-1.289-0.914-2.095-0.914h-11.124zM2.286 0h11.124c1.219 0 2.286 0.457 3.2 1.371l14.324 14.324c0.61 0.61 1.067 1.676 1.067 2.59 0.006 0.481-0.085 0.959-0.268 1.404s-0.455 0.849-0.798 1.186l-10.057 10.057c-0.61 0.61-1.676 1.067-2.59 1.067-0.481 0.006-0.959-0.085-1.404-0.268s-0.849-0.455-1.186-0.798l-14.324-14.324c-0.914-0.762-1.371-1.981-1.371-3.2v-11.124c0-1.219 1.067-2.286 2.286-2.286z"></path>
<path d="M5.343 4.61c-0.145 0-0.287 0.043-0.407 0.124s-0.214 0.195-0.27 0.329c-0.055 0.134-0.070 0.281-0.042 0.423s0.098 0.273 0.201 0.375c0.103 0.103 0.233 0.172 0.375 0.201s0.29 0.014 0.423-0.042c0.134-0.055 0.248-0.149 0.329-0.27s0.123-0.262 0.123-0.407c-0-0.194-0.078-0.381-0.215-0.518s-0.324-0.215-0.518-0.215zM5.343 3.047c0.454 0 0.898 0.135 1.275 0.387s0.672 0.611 0.845 1.030c0.174 0.419 0.219 0.881 0.131 1.326s-0.307 0.854-0.628 1.175c-0.321 0.321-0.73 0.54-1.175 0.628s-0.907 0.043-1.326-0.131c-0.419-0.174-0.778-0.468-1.030-0.845s-0.387-0.821-0.387-1.275c0-0.609 0.242-1.193 0.672-1.623s1.014-0.672 1.623-0.672v0z"></path>
<path d="M16 8.247c4.282 0 7.753 3.471 7.753 7.753s-3.471 7.753-7.753 7.753c-4.282 0-7.753-3.471-7.753-7.753s3.471-7.753 7.753-7.753zM12.838 14.125c-0.361 0-0.689 0.081-0.985 0.244-0.293 0.163-0.523 0.387-0.692 0.673-0.166 0.286-0.249 0.605-0.249 0.956s0.083 0.67 0.249 0.956c0.169 0.286 0.4 0.512 0.692 0.678 0.296 0.163 0.624 0.244 0.985 0.244s0.688-0.081 0.98-0.244c0.296-0.166 0.527-0.392 0.693-0.678 0.169-0.286 0.254-0.605 0.254-0.956s-0.085-0.67-0.254-0.956c-0.166-0.286-0.397-0.51-0.693-0.673-0.293-0.162-0.619-0.244-0.98-0.244zM15.3 14.184v3.633h2.292v-0.658h-1.536v-2.975h-0.756zM17.967 14.184v3.633h1.185c0.384 0 0.722-0.078 1.014-0.234 0.296-0.156 0.523-0.371 0.683-0.644 0.159-0.276 0.239-0.59 0.239-0.941s-0.080-0.663-0.239-0.936c-0.159-0.276-0.385-0.491-0.678-0.644-0.293-0.156-0.632-0.234-1.019-0.234h-1.185zM12.838 14.808c0.221 0 0.419 0.050 0.595 0.151 0.179 0.101 0.319 0.242 0.419 0.424 0.104 0.179 0.156 0.384 0.156 0.614s-0.052 0.437-0.156 0.619c-0.101 0.179-0.241 0.32-0.419 0.424-0.179 0.101-0.377 0.151-0.595 0.151s-0.416-0.050-0.595-0.151c-0.179-0.104-0.32-0.245-0.424-0.424-0.101-0.182-0.151-0.389-0.151-0.619s0.050-0.436 0.151-0.614c0.104-0.182 0.244-0.323 0.419-0.424 0.179-0.101 0.379-0.151 0.6-0.151zM19.172 14.842c0.234 0 0.439 0.047 0.614 0.141s0.31 0.229 0.405 0.405c0.094 0.172 0.141 0.376 0.141 0.61s-0.047 0.439-0.141 0.614c-0.094 0.176-0.229 0.31-0.405 0.405s-0.38 0.141-0.614 0.141h-0.449v-2.316h0.449z"></path>
</svg>
