<!-- Generated by IcoMoon.io -->
<svg version="1.1" xmlns="http://www.w3.org/2000/svg" width="32" height="32" viewBox="0 0 32 32">
<path d="M10.667 24.533h19.2c1.178 0 2.133 0.955 2.133 2.133s-0.955 2.133-2.133 2.133v0h-19.2c-1.178 0-2.133-0.955-2.133-2.133s0.955-2.133 2.133-2.133v0zM10.667 13.867h19.2c1.178 0 2.133 0.955 2.133 2.133s-0.955 2.133-2.133 2.133v0h-19.2c-1.178 0-2.133-0.955-2.133-2.133s0.955-2.133 2.133-2.133v0zM10.667 3.2h19.2c1.178 0 2.133 0.955 2.133 2.133s-0.955 2.133-2.133 2.133v0h-19.2c-1.178 0-2.133-0.955-2.133-2.133s0.955-2.133 2.133-2.133v0zM0 24.533h4.267v4.267h-4.267v-4.267zM0 13.867h4.267v4.267h-4.267v-4.267zM0 3.2h4.267v4.267h-4.267v-4.267z"></path>
</svg>
