<!-- Generated by IcoMoon.io -->
<svg version="1.1" xmlns="http://www.w3.org/2000/svg" width="29" height="32" viewBox="0 0 29 32">
<path d="M28.171 0h-27.518c-0.384 0-0.653 0.269-0.653 0.653v30.694c0 0.384 0.269 0.653 0.653 0.653h27.519c0.384 0 0.653-0.269 0.652-0.654v-30.693c0-0.384-0.269-0.653-0.653-0.653zM1.307 30.693v-29.386h26.212v29.386h-26.212z"></path>
<path d="M23.906 27.274h-19.096c-0.365 0-0.611 0.246-0.611 0.611s0.246 0.611 0.611 0.611h19.153c0.321 0 0.553-0.257 0.553-0.611s-0.246-0.611-0.611-0.611z"></path>
<path d="M23.906 23.524h-7.644c3.376-0.838 5.878-3.889 5.878-7.524 0-1.739-0.573-3.344-1.539-4.637 0.123-0.492 0.189-1.006 0.189-1.536 0-3.519-2.828-6.346-6.346-6.346s-6.346 2.827-6.346 6.346c0 0.491 0.056 0.967 0.16 1.426-1.018 1.312-1.624 2.959-1.624 4.747 0 3.636 2.503 6.686 5.878 7.524h-7.702c-0.365 0-0.611 0.246-0.611 0.611s0.246 0.611 0.611 0.611h19.153c0.321 0 0.553-0.257 0.553-0.611s-0.246-0.611-0.611-0.611zM14.387 8.248c-0.018 0-0.036 0-0.055 0.001l0.057-0.133 0.072 0.133c-0.025 0-0.049-0.001-0.074-0.001zM13.688 14.184h0.756v2.975h1.536v0.658h-2.292v-3.633zM19.237 16.939c-0.159 0.273-0.387 0.488-0.683 0.644-0.293 0.156-0.631 0.234-1.014 0.234h-1.185v-3.633h1.185c0.387 0 0.726 0.078 1.019 0.234 0.293 0.153 0.519 0.367 0.678 0.644 0.159 0.273 0.239 0.585 0.239 0.936s-0.079 0.665-0.239 0.941zM14.444 4.634c2.828 0 5.192 2.308 5.192 5.193 0 0.152-0.007 0.302-0.019 0.451-0.536-0.49-1.141-0.906-1.799-1.231 0.040-0.123 0.041-0.244 0.008-0.38-0.055-0.221-0.214-0.361-0.489-0.429l-1.656-0.229-0.8-1.599c-0.121-0.242-0.306-0.365-0.549-0.365s-0.428 0.123-0.55 0.366l-0.742 1.599-1.658 0.286c-0.272 0.068-0.431 0.208-0.486 0.426-0.036 0.109-0.029 0.232 0.014 0.349-0.596 0.3-1.148 0.674-1.644 1.111-0.008-0.117-0.012-0.236-0.012-0.355 0-2.885 2.308-5.192 5.192-5.192zM11.226 17.875c-0.361 0-0.689-0.081-0.985-0.244-0.293-0.166-0.524-0.392-0.693-0.678-0.166-0.286-0.249-0.604-0.249-0.956s0.083-0.67 0.249-0.956c0.169-0.286 0.4-0.511 0.693-0.673 0.296-0.162 0.624-0.244 0.985-0.244s0.688 0.081 0.98 0.244c0.296 0.162 0.527 0.387 0.693 0.673 0.169 0.286 0.254 0.605 0.254 0.956s-0.084 0.669-0.254 0.956c-0.166 0.286-0.397 0.512-0.693 0.678-0.293 0.163-0.619 0.244-0.98 0.244z"></path>
<path d="M18.174 14.983c-0.176-0.094-0.381-0.141-0.614-0.141h-0.449v2.316h0.449c0.234 0 0.439-0.047 0.614-0.141s0.311-0.229 0.405-0.405 0.141-0.381 0.141-0.614-0.047-0.438-0.141-0.609c-0.094-0.176-0.229-0.311-0.405-0.405z"></path>
<path d="M11.821 14.959c-0.176-0.101-0.374-0.151-0.595-0.151s-0.421 0.051-0.6 0.151c-0.176 0.101-0.316 0.242-0.419 0.424-0.101 0.179-0.151 0.384-0.151 0.614s0.051 0.438 0.151 0.619c0.104 0.179 0.246 0.32 0.424 0.424 0.179 0.101 0.377 0.151 0.595 0.151s0.416-0.051 0.595-0.151c0.179-0.104 0.319-0.246 0.419-0.424 0.104-0.182 0.156-0.389 0.156-0.619s-0.052-0.436-0.156-0.614c-0.101-0.182-0.241-0.324-0.419-0.424z"></path>
</svg>
