<!-- Generated by IcoMoon.io -->
<svg version="1.1" xmlns="http://www.w3.org/2000/svg" width="32" height="32" viewBox="0 0 32 32">
<path d="M29.784 31.876h-27.519c-0.318 0-0.529-0.212-0.529-0.529v-30.694c0-0.318 0.211-0.529 0.529-0.529h27.518c0.317 0 0.529 0.211 0.529 0.529v30.693c0.001 0.318-0.211 0.53-0.528 0.53zM2.795 30.817h26.46v-29.635h-26.46v29.635z"></path>
<path d="M29.784 32h-27.519c-0.385 0-0.653-0.268-0.653-0.653v-30.694c0-0.385 0.269-0.653 0.653-0.653h27.518c0.384 0 0.653 0.269 0.653 0.653v30.693c0.001 0.385-0.268 0.654-0.652 0.654zM2.265 0.248c-0.25 0-0.405 0.155-0.405 0.405v30.693c0 0.25 0.155 0.405 0.405 0.405h27.518c0.25 0 0.405-0.155 0.405-0.405v-30.693c0-0.25-0.155-0.405-0.405-0.405h-27.518zM29.379 30.941h-26.708v-29.883h26.708v29.883h-0.001zM2.919 30.693h26.212v-29.387h-26.212v29.387z"></path>
<path d="M19.923 19.808c-0.23 0-0.404-0.116-0.519-0.289l-2.192-3.865c-0.173-0.289-0.058-0.635 0.23-0.808s0.635-0.057 0.808 0.23l1.442 2.596 0.23-0.923c0.058-0.173 0.116-0.289 0.289-0.346s0.289-0.116 0.462-0.057l0.923 0.289-1.673-2.712c-0.173-0.289-0.057-0.635 0.173-0.808 0.289-0.173 0.635-0.057 0.808 0.173l2.48 4.038c0.116 0.23 0.116 0.462-0.057 0.635s-0.404 0.289-0.635 0.173l-1.846-0.577-0.404 1.788c-0.058 0.231-0.231 0.404-0.462 0.462h-0.057zM12.076 19.808h-0.057c-0.23-0.057-0.404-0.23-0.462-0.462l-0.404-1.788-1.846 0.577c-0.231 0.058-0.462 0-0.635-0.173s-0.173-0.462-0.057-0.635l2.539-4.096c0.173-0.289 0.519-0.346 0.808-0.173s0.346 0.519 0.173 0.808l-1.673 2.769 0.923-0.289c0.173-0.058 0.346-0.058 0.462 0.057 0.116 0.058 0.231 0.231 0.289 0.346l0.231 0.923 1.442-2.596c0.173-0.289 0.519-0.404 0.808-0.23s0.404 0.519 0.231 0.808l-2.193 3.923c-0.172 0.116-0.345 0.231-0.577 0.231z"></path>
<path d="M19.984 19.841h-0.062c-0.226 0-0.415-0.105-0.548-0.304l-2.194-3.867c-0.178-0.296-0.074-0.663 0.243-0.853 0.297-0.178 0.664-0.074 0.854 0.242l1.401 2.522 0.21-0.84c0.055-0.165 0.116-0.305 0.31-0.37 0.022-0.007 0.044-0.015 0.064-0.022 0.143-0.050 0.257-0.089 0.419-0.036l0.836 0.261-1.625-2.635c-0.186-0.31-0.053-0.676 0.182-0.853 0.312-0.187 0.679-0.055 0.855 0.18l2.483 4.041c0.133 0.265 0.11 0.504-0.063 0.676-0.222 0.222-0.461 0.286-0.673 0.179l-1.806-0.564-0.395 1.752c-0.061 0.244-0.243 0.426-0.486 0.487l-0.005 0.002zM17.731 14.799c-0.092 0-0.185 0.025-0.272 0.076-0.283 0.17-0.377 0.498-0.219 0.761l2.192 3.866c0.082 0.123 0.235 0.271 0.49 0.271h0.053c0.217-0.056 0.379-0.218 0.433-0.436l0.412-1.823 1.881 0.587c0.253 0.126 0.485-0.049 0.6-0.165 0.193-0.193 0.134-0.43 0.051-0.596l-2.479-4.035c-0.156-0.208-0.485-0.327-0.761-0.162-0.208 0.156-0.327 0.485-0.162 0.761l1.721 2.788-1.009-0.316c-0.14-0.047-0.239-0.012-0.376 0.035-0.021 0.007-0.043 0.015-0.065 0.022-0.152 0.051-0.207 0.145-0.267 0.325l-0.251 1.003-1.484-2.671c-0.114-0.188-0.3-0.293-0.489-0.293zM12.076 19.841l-0.066-0.001c-0.243-0.061-0.425-0.243-0.486-0.486l-0.396-1.754-1.811 0.566c-0.248 0.062-0.492-0.004-0.669-0.181-0.19-0.191-0.181-0.5-0.062-0.677l2.538-4.095c0.178-0.297 0.537-0.374 0.854-0.185 0.145 0.087 0.243 0.223 0.275 0.383 0.031 0.155-0.001 0.322-0.091 0.471l-1.627 2.693 0.838-0.262c0.208-0.070 0.378-0.048 0.492 0.062 0.12 0.063 0.235 0.232 0.299 0.359l0.003 0.007 0.21 0.84 1.401-2.521c0.090-0.15 0.225-0.258 0.381-0.304 0.16-0.048 0.329-0.026 0.474 0.061 0.316 0.19 0.421 0.557 0.243 0.854l-2.196 3.929-0.007 0.005c-0.174 0.116-0.354 0.237-0.596 0.237zM12.023 19.774h0.053c0.218 0 0.38-0.107 0.552-0.22l2.188-3.916c0.159-0.265 0.065-0.592-0.218-0.762-0.129-0.078-0.278-0.097-0.42-0.054-0.139 0.042-0.26 0.139-0.341 0.273l-1.483 2.67-0.251-1.003c-0.065-0.128-0.173-0.279-0.272-0.328l-0.009-0.006c-0.119-0.119-0.297-0.093-0.427-0.049l-1.009 0.315 1.719-2.846c0.080-0.135 0.11-0.285 0.082-0.423-0.028-0.141-0.115-0.261-0.244-0.338-0.283-0.17-0.603-0.102-0.761 0.162l-2.539 4.096c-0.104 0.156-0.113 0.427 0.053 0.593 0.16 0.16 0.38 0.22 0.602 0.164l1.88-0.587 0.412 1.824c0.053 0.217 0.215 0.379 0.432 0.435z"></path>
<path d="M16.057 16.173c-3.519 0-6.346-2.827-6.346-6.346s2.827-6.346 6.346-6.346c3.519 0 6.346 2.827 6.346 6.346s-2.885 6.346-6.346 6.346zM16.057 4.635c-2.885 0-5.192 2.307-5.192 5.192s2.307 5.192 5.192 5.192c2.885 0 5.192-2.307 5.192-5.192s-2.365-5.192-5.192-5.192z"></path>
<path d="M16.057 16.207c-1.711 0-3.315-0.662-4.517-1.863s-1.863-2.806-1.863-4.517c0-1.711 0.662-3.315 1.863-4.517s2.806-1.863 4.517-1.863 3.315 0.662 4.517 1.863c1.201 1.201 1.863 2.806 1.863 4.517 0 3.518-2.862 6.38-6.38 6.38zM16.057 3.514c-3.48 0-6.313 2.831-6.313 6.312s2.831 6.313 6.313 6.313c3.48 0 6.312-2.831 6.312-6.313s-2.831-6.312-6.312-6.312zM16.057 15.053c-1.404 0-2.719-0.542-3.701-1.525s-1.525-2.297-1.525-3.701c0-1.404 0.542-2.718 1.525-3.701s2.297-1.525 3.701-1.525c2.881 0 5.226 2.345 5.226 5.226 0 1.404-0.541 2.719-1.525 3.701s-2.297 1.525-3.701 1.525zM16.057 4.668c-2.844 0-5.158 2.314-5.158 5.158s2.314 5.158 5.158 5.158c2.844 0 5.158-2.314 5.158-5.158s-2.314-5.158-5.158-5.158z"></path>
<path d="M14.269 13c-0.116 0-0.231-0.057-0.346-0.116-0.173-0.116-0.289-0.346-0.23-0.577l0.289-1.788-1.269-1.212c-0.173-0.173-0.231-0.404-0.173-0.577 0.057-0.231 0.23-0.346 0.462-0.404l1.673-0.289 0.75-1.615c0.116-0.231 0.289-0.346 0.519-0.346s0.404 0.116 0.519 0.346l0.808 1.615 1.673 0.231c0.231 0.057 0.404 0.173 0.462 0.404s0 0.404-0.116 0.577l-1.212 1.269 0.346 1.788c0.057 0.231-0.058 0.462-0.231 0.577s-0.404 0.173-0.635 0.057l-1.5-0.808-1.5 0.865h-0.289v0.001zM14.326 9.308l0.635 0.635c0.116 0.116 0.173 0.289 0.173 0.519l-0.116 0.923 0.75-0.404c0.173-0.116 0.404-0.116 0.577 0l0.75 0.404-0.173-0.923c-0.057-0.173 0-0.346 0.173-0.519l0.635-0.692-0.865-0.116c-0.173 0-0.346-0.173-0.462-0.346l-0.404-0.75-0.346 0.808c-0.057 0.173-0.23 0.289-0.404 0.346l-0.923 0.115zM25.576 24.711h-19.153c-0.346 0-0.577-0.231-0.577-0.577s0.231-0.577 0.577-0.577h19.096c0.346 0 0.577 0.231 0.577 0.577s-0.231 0.577-0.519 0.577zM25.576 28.461h-19.153c-0.346 0-0.577-0.231-0.577-0.577s0.231-0.577 0.577-0.577h19.096c0.346 0 0.577 0.23 0.577 0.577s-0.231 0.577-0.519 0.577z"></path>
<path d="M25.576 28.495h-19.153c-0.365 0-0.611-0.245-0.611-0.61s0.245-0.61 0.611-0.61h19.096c0.365 0 0.61 0.245 0.61 0.611 0 0.354-0.233 0.61-0.553 0.61zM6.423 27.341c-0.33 0-0.543 0.213-0.543 0.543s0.213 0.543 0.543 0.543h19.154c0.281 0 0.485-0.229 0.485-0.543 0-0.33-0.213-0.543-0.543-0.543h-19.096zM25.576 24.745h-19.153c-0.365 0-0.611-0.245-0.611-0.61s0.245-0.611 0.611-0.611h19.096c0.365 0 0.61 0.245 0.61 0.611 0 0.354-0.233 0.611-0.553 0.611zM6.423 23.591c-0.33 0-0.543 0.213-0.543 0.543s0.213 0.543 0.543 0.543h19.154c0.281 0 0.485-0.229 0.485-0.543 0-0.33-0.213-0.543-0.543-0.543h-19.096zM17.819 13.040c-0.086 0-0.179-0.018-0.276-0.067l-1.484-0.799-1.491 0.861h-0.297c-0.124 0-0.244-0.060-0.361-0.119-0.204-0.136-0.305-0.388-0.248-0.615l0.285-1.768-1.256-1.199c-0.176-0.176-0.247-0.416-0.182-0.612 0.054-0.218 0.214-0.358 0.485-0.426l1.658-0.286 0.742-1.6c0.122-0.243 0.306-0.366 0.55-0.366s0.429 0.123 0.55 0.365l0.8 1.6 1.656 0.229c0.276 0.069 0.435 0.209 0.489 0.429 0.054 0.216 0.018 0.397-0.12 0.604l-1.203 1.261 0.343 1.771c0.056 0.225-0.044 0.477-0.245 0.612-0.084 0.055-0.224 0.126-0.393 0.126zM16.057 12.096l0.017 0.009 1.5 0.808c0.256 0.128 0.486 0.020 0.6-0.056 0.145-0.097 0.275-0.308 0.217-0.541l-0.35-1.807 1.224-1.282c0.123-0.185 0.156-0.35 0.107-0.546s-0.188-0.317-0.437-0.379l-1.687-0.233-0.816-1.631c-0.11-0.22-0.27-0.327-0.489-0.327s-0.379 0.107-0.489 0.327l-0.757 1.631-1.691 0.291c-0.247 0.062-0.385 0.183-0.435 0.379-0.057 0.172 0.009 0.39 0.164 0.545l1.282 1.223-0.291 1.806c-0.059 0.236 0.071 0.447 0.216 0.544 0.106 0.053 0.22 0.11 0.327 0.11h0.279l1.508-0.869zM17.142 11.448l-0.813-0.437c-0.164-0.11-0.381-0.11-0.542-0.001l-0.811 0.437 0.124-0.988c0-0.216-0.055-0.383-0.164-0.491l-0.684-0.684 0.992-0.124c0.086-0.030 0.309-0.123 0.376-0.323l0.374-0.875 0.437 0.811c0.137 0.205 0.298 0.329 0.431 0.329l0.934 0.124-0.679 0.74c-0.166 0.166-0.22 0.325-0.166 0.485l0.188 0.997zM14.399 9.333l0.585 0.586c0.122 0.121 0.183 0.304 0.183 0.543l-0.107 0.862 0.692-0.373c0.181-0.121 0.428-0.121 0.612 0.001l0.685 0.368-0.16-0.854c-0.061-0.181 0-0.367 0.183-0.55l0.59-0.644-0.801-0.107c0 0 0 0-0.001 0-0.22 0-0.412-0.252-0.485-0.361l-0.372-0.691-0.318 0.743c-0.053 0.159-0.208 0.293-0.424 0.365l-0.861 0.11z"></path>
</svg>
