<svg width="24" height="24" fill="none" xmlns="http://www.w3.org/2000/svg"><path d="M6.54 1.323c-.592.039-1.146.104-1.54.182-1.911.377-3.025 1.444-3.458 3.312-.088.379-.176 1.099-.221 1.802-.053.83-.053 5.932 0 6.762.091 1.423.259 2.219.625 2.959.559 1.13 1.567 1.852 2.986 2.138.523.106 1.422.201 1.903.202.443 0 .609-.071.778-.332a.718.718 0 0 0-.103-.897c-.166-.173-.267-.199-.97-.25-1.525-.112-2.282-.351-2.834-.897-.545-.539-.789-1.307-.912-2.864-.067-.848-.067-6.032 0-6.88.122-1.549.367-2.321.906-2.86.538-.539 1.301-.78 2.86-.908.881-.071 9.999-.071 10.88 0 1.559.128 2.322.369 2.86.908.539.539.784 1.313.906 2.86.066.85.066 6.035 0 6.88-.195 2.482-.761 3.266-2.623 3.638-.464.093-.64.206-.758.491a.718.718 0 0 0 .666.99c.251.001.879-.137 1.307-.287 1.68-.589 2.536-1.792 2.798-3.932.098-.793.123-1.68.123-4.34 0-3.265-.039-4.07-.242-5.071-.392-1.928-1.537-3.049-3.497-3.425-.468-.09-.88-.137-1.599-.183-.747-.048-10.105-.046-10.841.002m.16 5.014A.725.725 0 0 0 6.28 7c0 .292.169.554.429.665.191.082 10.391.082 10.582 0A.719.719 0 0 0 17.72 7a.719.719 0 0 0-.429-.665c-.188-.081-10.41-.079-10.591.002m4.595 5.003c-.6.13-1.063.392-1.558.88-.761.751-1.014 1.474-.962 2.757.094 2.339.669 4.313 1.805 6.203.105.176.49.757.855 1.292l.663.972.851-1.702c.468-.936.86-1.702.872-1.702.019 0 2.39 1.347 2.681 1.523l.122.074.435-.583c.302-.404.424-.597.398-.631-.385-.507-.737-1.227-1.233-2.532-.068-.178-.155-.327-.226-.387-.359-.302-.922-.207-1.126.19-.127.247-.113.465.059.923.082.218.143.402.135.41-.008.008-.424-.22-.925-.506-.5-.287-.921-.521-.936-.521-.014 0-.305.559-.646 1.243-.34.684-.631 1.251-.646 1.261-.037.023-.476-.782-.718-1.319-.196-.434-.521-1.349-.576-1.621-.025-.122-.02-.133.047-.105.412.172.699.232 1.194.25.74.026 1.225-.09 1.81-.435.327-.192.925-.797 1.122-1.134a3.27 3.27 0 0 0 0-3.28c-.197-.337-.795-.942-1.122-1.134a3.386 3.386 0 0 0-.983-.388c-.331-.07-1.065-.069-1.392.002m1.185 1.468c.389.095.888.495 1.076.865.338.663.238 1.466-.249 1.997a1.681 1.681 0 0 1-1.307.576c-.526 0-.951-.187-1.307-.576a1.744 1.744 0 0 1 .017-2.357c.463-.495 1.082-.672 1.77-.505" fill-rule="evenodd" fill="#000"/></svg>