<!-- Generated by IcoMoon.io -->
<svg version="1.1" xmlns="http://www.w3.org/2000/svg" width="32" height="32" viewBox="0 0 32 32">
<path fill="#4d5e6f" d="M15.3 30.1c-5.6 0-8.4 0-10.2-2.2-1.9-2.2-1.9-5.4-1.9-11.9s0-9.7 1.8-11.9c2-2.2 4.8-2.2 10.3-2.2s8.4 0 10.2 2.2c1.5 1.7 1.8 4.2 1.8 8.5 0 0.4-0.3 0.8-0.7 0.8-0.5 0-0.8-0.3-0.8-0.7 0-3.9-0.3-6.2-1.5-7.6-1.4-1.7-4-1.7-9.1-1.7s-7.7 0-9.1 1.7c-1.3 1.7-1.3 4.8-1.3 10.9s0 9.2 1.5 10.9c1.4 1.7 4 1.7 9.1 1.7 0.4 0 0.8 0.3 0.8 0.8s-0.5 0.7-0.9 0.7z"></path>
<path fill="#4d5e6f" d="M14.7 18.1h-4c-0.4 0-0.8-0.3-0.8-0.8s0.3-0.8 0.8-0.8h4c0.4 0 0.8 0.3 0.8 0.8s-0.4 0.8-0.8 0.8zM20 11.4h-9.3c-0.4 0-0.8-0.3-0.8-0.8s0.3-0.8 0.8-0.8h9.3c0.4 0 0.8 0.3 0.8 0.8s-0.4 0.8-0.8 0.8z"></path>
<path fill="#4d5e6f" d="M20.5 30.1c0 0 0 0 0 0-1 0-1.8-0.7-1.9-1.7-0.1-0.5 0.1-1 0.4-2l0.6-2c-1.1-1-1.7-2.4-1.7-3.9 0-2.9 2.4-5.2 5.2-5.2h0.3c2.9 0 5.2 2.4 5.2 5.2 0 1.5-0.6 2.9-1.7 3.9l0.6 2c0.3 1.1 0.5 1.6 0.4 2-0.1 1-1 1.7-1.9 1.7 0 0 0 0 0 0-0.5 0-0.9-0.2-1.9-0.7-0.3-0.2-0.5-0.2-0.6-0.3-0.2-0.1-0.5-0.1-0.7 0-0.1 0-0.3 0.1-0.6 0.3-0.8 0.4-1.2 0.7-1.7 0.7zM23.3 27.5c0.3 0 0.5 0 0.8 0.1s0.5 0.2 0.9 0.4c0.5 0.3 1.1 0.6 1.2 0.6 0.2 0 0.4-0.2 0.4-0.4 0-0.1-0.2-0.7-0.4-1.3l-0.5-1.6c-0.7 0.3-1.4 0.5-2.2 0.5h-0.3c-0.8 0-1.5-0.2-2.2-0.5l-0.5 1.6c-0.2 0.6-0.4 1.2-0.4 1.4s0.2 0.4 0.4 0.4c0.1 0 0.6-0.3 1.2-0.6 0.4-0.2 0.6-0.3 0.9-0.4 0.2-0.2 0.5-0.2 0.7-0.2zM21 23.5c0.6 0.5 1.4 0.7 2.2 0.7h0.3c0.8 0 1.6-0.2 2.2-0.7 1-0.7 1.5-1.8 1.5-3 0-2.1-1.7-3.8-3.8-3.8h-0.3c-2.1 0-3.8 1.7-3.8 3.8 0.1 1.2 0.7 2.3 1.7 3v0zM26.1 24.1v0 0z"></path>
</svg>
