<!-- Generated by IcoMoon.io -->
<svg version="1.1" xmlns="http://www.w3.org/2000/svg" width="31" height="32" viewBox="0 0 31 32">
<path fill="#227aff" d="M5.854 2.341c-2.145 0-3.902 1.757-3.902 3.902v19.512c0 2.145 1.757 3.902 3.902 3.902h9.756c0.259 0 0.507-0.103 0.69-0.286s0.286-0.431 0.286-0.69c0-0.259-0.103-0.507-0.286-0.69s-0.431-0.286-0.69-0.286h-9.756c-1.098 0-1.951-0.853-1.951-1.951v-19.512c0-1.098 0.853-1.951 1.951-1.951h13.659c1.098 0 1.951 0.853 1.951 1.951v1.951c0 0.259 0.103 0.507 0.286 0.69s0.431 0.286 0.69 0.286c0.259 0 0.507-0.103 0.69-0.286s0.286-0.431 0.286-0.69v-1.951c0-2.145-1.757-3.902-3.902-3.902h-13.659z"></path>
<path fill="#227aff" d="M22.439 10.146c-3.76 0-6.829 3.069-6.829 6.829 0 2.315 1.167 4.364 2.938 5.6v6.107c0 0.177 0.048 0.35 0.139 0.502s0.221 0.275 0.377 0.359c0.156 0.083 0.331 0.122 0.508 0.114s0.347-0.065 0.494-0.164l2.372-1.587 2.372 1.587c0.147 0.098 0.318 0.155 0.494 0.164s0.352-0.030 0.508-0.114c0.156-0.083 0.286-0.207 0.377-0.359s0.139-0.325 0.139-0.502v-6.107c1.772-1.236 2.938-3.285 2.938-5.6 0-3.76-3.069-6.829-6.829-6.829zM22.439 12.098c2.706 0 4.878 2.172 4.878 4.878s-2.172 4.878-4.878 4.878c-2.706 0-4.878-2.172-4.878-4.878s2.172-4.878 4.878-4.878zM20.499 23.519c0.616 0.183 1.266 0.286 1.94 0.286s1.324-0.103 1.94-0.286v3.338l-1.397-0.936c-0.161-0.108-0.35-0.165-0.543-0.165s-0.382 0.057-0.543 0.165l-1.397 0.936v-3.338z"></path>
<path fill="#227aff" d="M7.805 7.22c-0.259 0-0.507 0.103-0.69 0.286s-0.286 0.431-0.286 0.69c0 0.259 0.103 0.507 0.286 0.69s0.431 0.286 0.69 0.286h2.927c0.259 0 0.507-0.103 0.69-0.286s0.286-0.431 0.286-0.69c0-0.259-0.103-0.507-0.286-0.69s-0.431-0.286-0.69-0.286h-2.927zM7.805 11.122c-0.259 0-0.507 0.103-0.69 0.286s-0.286 0.431-0.286 0.69c0 0.259 0.103 0.507 0.286 0.69s0.431 0.286 0.69 0.286h5.854c0.259 0 0.507-0.103 0.69-0.286s0.286-0.431 0.286-0.69c0-0.259-0.103-0.507-0.286-0.69s-0.431-0.286-0.69-0.286h-5.854zM7.805 15.024c-0.259 0-0.507 0.103-0.69 0.286s-0.286 0.431-0.286 0.69c0 0.259 0.103 0.507 0.286 0.69s0.431 0.286 0.69 0.286h2.927c0.259 0 0.507-0.103 0.69-0.286s0.286-0.431 0.286-0.69c0-0.259-0.103-0.507-0.286-0.69s-0.431-0.286-0.69-0.286h-2.927z"></path>
</svg>
