<!-- Generated by IcoMoon.io -->
<svg version="1.1" xmlns="http://www.w3.org/2000/svg" width="34" height="32" viewBox="0 0 34 32">
<path fill="#4d5e6f" d="M10.948 6.495c0-1.312 1.064-2.376 2.376-2.376s2.376 1.064 2.376 2.376v19.010c0 1.312-1.064 2.376-2.376 2.376s-2.376-1.064-2.376-2.376v-19.010z"></path>
<path fill="#4d5e6f" d="M3.819 23.129c0-1.312 1.064-2.376 2.376-2.376s2.376 1.064 2.376 2.376v2.376c0 1.312-1.064 2.376-2.376 2.376s-2.376-1.064-2.376-2.376v-2.376z"></path>
<path fill="#4d5e6f" d="M18.076 18.376c0-1.312 1.064-2.376 2.376-2.376s2.376 1.064 2.376 2.376v7.129c0 1.312-1.064 2.376-2.376 2.376s-2.376-1.064-2.376-2.376v-7.129z"></path>
<path fill="#4d5e6f" d="M25.207 13.624c0-1.312 1.064-2.376 2.376-2.376s2.376 1.064 2.376 2.376v11.881c0 1.313-1.064 2.376-2.376 2.376s-2.376-1.064-2.376-2.376v-11.881z"></path>
</svg>
