<!-- Generated by IcoMoon.io -->
<svg version="1.1" xmlns="http://www.w3.org/2000/svg" width="32" height="32" viewBox="0 0 32 32">
<path d="M5.6 32h-4.8c-0.442 0-0.8-0.358-0.8-0.8v-11.2c0-0.442 0.358-0.8 0.8-0.8h4.8c0.442 0 0.8 0.358 0.8 0.8v11.2c0 0.442-0.358 0.8-0.8 0.8zM1.6 30.4h3.2v-9.6h-3.2v9.6z"></path>
<path d="M13.6 32h-4.8c-0.442 0-0.8-0.358-0.8-0.8v-16c0-0.442 0.358-0.8 0.8-0.8h4.8c0.442 0 0.8 0.358 0.8 0.8v16c0 0.442-0.358 0.8-0.8 0.8zM9.6 30.4h3.2v-14.4h-3.2v14.4z"></path>
<path d="M21.6 32h-4.8c-0.442 0-0.8-0.358-0.8-0.8v-14.4c0-0.442 0.358-0.8 0.8-0.8h4.8c0.442 0 0.8 0.358 0.8 0.8v14.4c0 0.442-0.358 0.8-0.8 0.8zM17.6 30.4h3.2v-12.8h-3.2v12.8z"></path>
<path d="M29.6 32h-4.8c-0.442 0-0.8-0.358-0.8-0.8v-20.8c0-0.442 0.358-0.8 0.8-0.8h4.8c0.442 0 0.8 0.358 0.8 0.8v20.8c0 0.442-0.358 0.8-0.8 0.8zM25.6 30.4h3.2v-19.2h-3.2v19.2z"></path>
<path d="M28.566 1.834c-0.214-0.214-0.531-0.29-0.819-0.194l-4.8 1.6c-0.419 0.139-0.646 0.592-0.506 1.011s0.594 0.646 1.011 0.506l1.586-0.528-6.872 6.872c-0.341 0.341-0.979 0.387-1.366 0.098l-3.84-2.88c-0.998-0.749-2.539-0.717-3.506 0.074l-7.562 6.187c-0.342 0.28-0.392 0.784-0.112 1.126 0.158 0.194 0.387 0.293 0.619 0.293 0.178 0 0.357-0.059 0.506-0.181l7.562-6.187c0.394-0.323 1.125-0.338 1.531-0.032l3.84 2.88c1.029 0.771 2.547 0.664 3.458-0.246l6.872-6.872-0.528 1.586c-0.139 0.419 0.086 0.872 0.506 1.011 0.083 0.029 0.17 0.042 0.253 0.042 0.334 0 0.646-0.213 0.758-0.547l1.6-4.8c0.096-0.288 0.021-0.605-0.194-0.819z"></path>
</svg>
