<!-- Generated by IcoMoon.io -->
<svg version="1.1" xmlns="http://www.w3.org/2000/svg" width="34" height="32" viewBox="0 0 34 32">
<path fill="#4d5e6f" d="M26.133 10.667h-1.333v-4c0-1.061-0.421-2.078-1.172-2.828s-1.768-1.172-2.828-1.172h-13.333c-1.061 0-2.078 0.421-2.828 1.172s-1.172 1.768-1.172 2.828v16c0.001 0.263 0.080 0.52 0.228 0.738s0.356 0.388 0.599 0.488c0.158 0.075 0.332 0.111 0.507 0.107 0.175 0.001 0.349-0.033 0.512-0.099s0.31-0.164 0.435-0.288l3.747-3.76h1.973v1.92c0 1.061 0.421 2.078 1.172 2.828s1.768 1.172 2.828 1.172h9.227l3.16 3.173c0.125 0.124 0.272 0.221 0.435 0.288s0.336 0.1 0.512 0.099c0.175 0.004 0.348-0.032 0.507-0.107 0.244-0.1 0.452-0.27 0.599-0.488s0.226-0.475 0.228-0.738v-13.333c0-1.061-0.421-2.078-1.172-2.828s-1.768-1.172-2.828-1.172zM11.467 14.667v2.52h-2.52c-0.175-0.001-0.349 0.032-0.512 0.099s-0.31 0.164-0.435 0.288l-1.867 1.88v-12.787c0-0.354 0.14-0.693 0.391-0.943s0.589-0.391 0.943-0.391h13.333c0.354 0 0.693 0.14 0.943 0.391s0.39 0.589 0.39 0.943v4h-6.667c-1.061 0-2.078 0.421-2.828 1.172s-1.172 1.768-1.172 2.828zM27.467 24.787l-1.333-1.333c-0.123-0.126-0.271-0.226-0.433-0.295s-0.337-0.104-0.513-0.105h-9.72c-0.354 0-0.693-0.14-0.943-0.391s-0.391-0.589-0.391-0.943v-7.053c0-0.354 0.14-0.693 0.391-0.943s0.589-0.391 0.943-0.391h10.667c0.354 0 0.693 0.14 0.943 0.391s0.391 0.589 0.391 0.943v10.12z"></path>
</svg>
