<!-- Generated by IcoMoon.io -->
<svg version="1.1" xmlns="http://www.w3.org/2000/svg" width="30" height="32" viewBox="0 0 30 32">
<path fill="#227aff" d="M21.792 11.328c0.119 0.118 0.213 0.258 0.278 0.413s0.098 0.321 0.098 0.488c0 0.168-0.033 0.334-0.098 0.488s-0.159 0.295-0.278 0.413l-7.543 7.543c-0.236 0.235-0.556 0.367-0.889 0.368-0.167 0.001-0.333-0.031-0.488-0.094s-0.295-0.156-0.414-0.274l-3.81-3.81c-0.119-0.118-0.213-0.258-0.278-0.413s-0.098-0.321-0.098-0.488c0-0.168 0.033-0.334 0.098-0.488s0.159-0.295 0.278-0.413c0.238-0.236 0.56-0.369 0.895-0.369s0.657 0.133 0.895 0.369l2.883 2.883 6.641-6.654c0.121-0.12 0.265-0.215 0.423-0.279s0.328-0.094 0.499-0.091c0.171 0.004 0.339 0.041 0.495 0.112s0.296 0.171 0.412 0.296zM29.207 16.001c0 2.762-0.819 5.463-2.354 7.76s-3.716 4.087-6.269 5.145-5.361 1.334-8.070 0.795c-2.71-0.539-5.199-1.869-7.152-3.823s-3.284-4.442-3.823-7.152c-0.539-2.71-0.262-5.518 0.795-8.071s2.848-4.734 5.145-6.269c2.297-1.535 4.998-2.354 7.76-2.354 3.705 0 7.257 1.472 9.877 4.091s4.091 6.172 4.091 9.877zM26.668 16.001c0-2.26-0.67-4.47-1.926-6.349s-3.041-3.344-5.129-4.209c-2.088-0.865-4.386-1.091-6.603-0.65s-4.253 1.529-5.852 3.128c-1.598 1.598-2.687 3.635-3.128 5.852s-0.215 4.515 0.65 6.603c0.865 2.088 2.33 3.873 4.209 5.129s4.089 1.926 6.349 1.926c3.031 0 5.938-1.204 8.081-3.347s3.347-5.050 3.347-8.081z"></path>
</svg>
