<!-- Generated by IcoMoon.io -->
<svg version="1.1" xmlns="http://www.w3.org/2000/svg" width="31" height="32" viewBox="0 0 31 32">
<path d="M15.36 28.838c7.069 0 12.8-5.731 12.8-12.8s-5.731-12.8-12.8-12.8-12.8 5.731-12.8 12.8c0 7.069 5.731 12.8 12.8 12.8zM19.886 11.512c0.24-0.24 0.566-0.375 0.906-0.374s0.665 0.135 0.905 0.376c0.24 0.24 0.375 0.566 0.375 0.906s-0.135 0.665-0.376 0.905l-7.241 7.241c-0.119 0.119-0.26 0.214-0.415 0.279s-0.322 0.098-0.49 0.098-0.335-0.033-0.49-0.098c-0.155-0.064-0.296-0.159-0.415-0.279l-3.621-3.621c-0.122-0.118-0.22-0.259-0.287-0.416s-0.102-0.324-0.104-0.494c-0.001-0.17 0.031-0.338 0.095-0.496s0.159-0.3 0.28-0.42c0.12-0.12 0.263-0.215 0.42-0.28s0.326-0.097 0.496-0.095c0.17 0.001 0.338 0.037 0.494 0.104s0.297 0.165 0.415 0.287l2.716 2.715 6.336-6.337z"></path>
</svg>
