<!-- Generated by IcoMoon.io -->
<svg version="1.1" xmlns="http://www.w3.org/2000/svg" width="32" height="32" viewBox="0 0 32 32">
<path d="M25.949 27.549c2.87-2.87 4.451-6.688 4.451-10.749s-1.581-7.877-4.451-10.747-6.688-4.451-10.749-4.451-7.877 1.581-10.749 4.451-4.451 6.688-4.451 10.747 1.581 7.877 4.451 10.749 6.688 4.451 10.749 4.451 7.877-1.581 10.749-4.451zM1.6 16.8c0-7.499 6.101-13.6 13.6-13.6s13.6 6.101 13.6 13.6c0 7.499-6.101 13.6-13.6 13.6s-13.6-6.101-13.6-13.6z"></path>
<path d="M6.4 14.4c0-0.205 0.078-0.41 0.234-0.566 0.312-0.312 0.819-0.312 1.131 0l7.434 7.434 7.434-7.434c0.312-0.312 0.819-0.312 1.131 0s0.312 0.819 0 1.131l-8 8c-0.312 0.312-0.819 0.312-1.131 0l-8-8c-0.157-0.157-0.234-0.362-0.234-0.566z"></path>
</svg>
