<!-- Generated by IcoMoon.io -->
<svg version="1.1" xmlns="http://www.w3.org/2000/svg" width="32" height="32" viewBox="0 0 32 32">
<path d="M28 1.6h-25.6c-1.323 0-2.4 1.077-2.4 2.4v25.6c0 1.323 1.077 2.4 2.4 2.4h25.6c1.323 0 2.4-1.077 2.4-2.4v-25.6c0-1.323-1.077-2.4-2.4-2.4zM2.4 30.4c-0.442 0-0.8-0.358-0.8-0.8v-25.6c0-0.442 0.358-0.8 0.8-0.8h25.6c0.442 0 0.8 0.358 0.8 0.8v25.6c0 0.442-0.358 0.8-0.8 0.8h-25.6z"></path>
<path d="M23.2 12c-0.205 0-0.41 0.078-0.566 0.234l-7.434 7.434-7.434-7.434c-0.312-0.312-0.819-0.312-1.131 0s-0.312 0.819 0 1.131l8 8c0.312 0.312 0.819 0.312 1.131 0l8-8c0.312-0.312 0.312-0.819 0-1.131-0.157-0.157-0.362-0.234-0.566-0.234z"></path>
</svg>
