<!-- Generated by IcoMoon.io -->
<svg version="1.1" xmlns="http://www.w3.org/2000/svg" width="32" height="32" viewBox="0 0 32 32">
<path d="M25.949 6.051c-2.87-2.87-6.688-4.451-10.749-4.451s-7.877 1.581-10.749 4.451c-2.87 2.87-4.451 6.688-4.451 10.747s1.581 7.877 4.451 10.749 6.688 4.451 10.749 4.451 7.877-1.581 10.749-4.451 4.451-6.688 4.451-10.749-1.581-7.877-4.451-10.747zM15.2 30.4c-7.499 0-13.6-6.101-13.6-13.6s6.101-13.6 13.6-13.6 13.6 6.101 13.6 13.6-6.101 13.6-13.6 13.6z"></path>
<path d="M24.206 11.6c-0.221-0.382-0.71-0.514-1.093-0.293l-7.872 4.546-6.136-4.296c-0.362-0.253-0.861-0.165-1.114 0.197s-0.165 0.861 0.197 1.114l6.554 4.589c0.002 0.002 0.003 0.002 0.005 0.003 0.013 0.010 0.027 0.018 0.042 0.026 0.003 0.002 0.008 0.005 0.011 0.006 0.014 0.008 0.029 0.016 0.043 0.022 0.003 0.002 0.006 0.003 0.010 0.005 0.016 0.008 0.032 0.014 0.050 0.022 0.010 0.003 0.019 0.008 0.030 0.011 0.008 0.003 0.014 0.005 0.022 0.008 0.011 0.003 0.021 0.006 0.032 0.010 0.006 0.002 0.014 0.003 0.021 0.005 0.011 0.003 0.022 0.005 0.032 0.008 0.008 0.002 0.014 0.003 0.022 0.005 0.010 0.002 0.021 0.003 0.030 0.005s0.019 0.002 0.029 0.003c0.008 0.002 0.018 0.002 0.026 0.003 0.019 0.002 0.037 0.002 0.056 0.002 0.030 0 0.061-0.002 0.091-0.005 0 0 0.002 0 0.002 0 0.029-0.003 0.059-0.010 0.088-0.016 0.002 0 0.005-0.002 0.006-0.002 0.027-0.006 0.054-0.014 0.082-0.026 0.005-0.002 0.008-0.003 0.011-0.005 0.026-0.010 0.051-0.021 0.075-0.034 0.005-0.003 0.010-0.005 0.014-0.008 0.010-0.005 0.018-0.010 0.027-0.014l8.314-4.8c0.382-0.221 0.514-0.71 0.293-1.093z"></path>
</svg>
