<svg width="16" height="16" fill="none" xmlns="http://www.w3.org/2000/svg"><path d="M7.467.017C5.118.192 3.01 1.335 1.605 3.196.795 4.269.295 5.479.073 6.906c-.082.523-.082 1.665 0 2.188.342 2.195 1.402 3.994 3.122 5.299 1.062.806 2.286 1.312 3.711 1.534.523.082 1.665.082 2.188 0 1.944-.303 3.596-1.179 4.836-2.565 1.1-1.229 1.735-2.587 1.997-4.268.082-.523.082-1.665 0-2.188-.222-1.425-.728-2.649-1.534-3.711A7.994 7.994 0 0 0 9 .066 12.585 12.585 0 0 0 7.467.017m.891 3.274a.792.792 0 0 1 .373.388c.055.119.056.153.063 2.054l.007 1.934L9.93 8.8c.74.743 1.145 1.17 1.178 1.24a.957.957 0 0 1 .061.327c.009.197.002.237-.06.365a.782.782 0 0 1-.722.451c-.34-.002-.321.013-1.622-1.284C7.589 8.725 7.44 8.556 7.312 8.252c-.104-.251-.112-.41-.112-2.414 0-2.118-.002-2.09.157-2.31a.8.8 0 0 1 1.001-.237" fill="#4D5E6F" fill-rule="evenodd"/></svg>