<!-- Generated by IcoMoon.io -->
<svg version="1.1" xmlns="http://www.w3.org/2000/svg" width="32" height="32" viewBox="0 0 32 32">
<path d="M24.524 29.569l-0.873-1.506c-0.1-0.169-0.282-0.281-0.489-0.282h-0c-0 0-0.001 0-0.001 0-0.104 0-0.201 0.029-0.284 0.079l0.002-0.001c-0.17 0.1-0.283 0.282-0.283 0.49 0 0.104 0.028 0.202 0.078 0.286l-0.001-0.003 0.875 1.508c-1.875 1.031-4.084 1.702-6.434 1.862l-0.049 0.003v-2.127c0-0.589-0.478-1.067-1.067-1.067s-1.067 0.478-1.067 1.067v2.123c-2.366-0.159-4.546-0.813-6.484-1.859l0.084 0.041 0.866-1.512c0.047-0.081 0.075-0.178 0.075-0.282 0-0.053-0.007-0.104-0.021-0.153l0.001 0.004c-0.069-0.24-0.286-0.412-0.544-0.413h-0c-0.209 0.001-0.392 0.114-0.49 0.282l-0.001 0.003-0.864 1.511c-1.948-1.23-3.566-2.798-4.815-4.638l-0.036-0.056 1.834-1.061c0.322-0.188 0.535-0.532 0.535-0.926 0-0.59-0.478-1.069-1.069-1.069-0.196 0-0.381 0.053-0.539 0.146l0.005-0.003-1.836 1.062c-0.948-1.883-1.54-4.092-1.629-6.43l-0.001-0.029h1.742c0 0 0 0 0 0 0.156 0 0.297-0.064 0.398-0.167l0-0c0.101-0.102 0.164-0.243 0.164-0.398 0-0.312-0.252-0.565-0.564-0.567h-1.745c0.076-2.401 0.671-4.645 1.676-6.649l-0.042 0.092 1.836 1.062c0.153 0.090 0.337 0.143 0.534 0.143 0.59 0 1.069-0.478 1.069-1.069 0-0.394-0.213-0.738-0.53-0.923l-0.005-0.003-1.834-1.061c1.267-1.871 2.856-3.421 4.703-4.606l0.064-0.039 0.873 1.507c0.050 0.086 0.12 0.156 0.204 0.205l0.003 0.001c0.081 0.047 0.178 0.075 0.281 0.075 0.312 0 0.566-0.253 0.566-0.566 0-0.105-0.028-0.203-0.078-0.287l0.001 0.003-0.875-1.508c1.876-1.030 4.085-1.701 6.434-1.861l0.049-0.003v2.126c-0 0.010-0.001 0.022-0.001 0.033 0 0.589 0.478 1.067 1.067 1.067s1.067-0.478 1.067-1.067c0-0.012-0-0.023-0.001-0.035l0 0.002v-2.125c2.366 0.158 4.546 0.813 6.484 1.859l-0.084-0.041-0.865 1.513c-0.047 0.081-0.075 0.178-0.075 0.282 0 0.208 0.112 0.39 0.279 0.488l0.003 0.001c0.080 0.047 0.177 0.075 0.28 0.075v0c0.209-0 0.391-0.114 0.489-0.282l0.001-0.003 0.865-1.511c1.948 1.23 3.567 2.799 4.815 4.639l0.036 0.057-1.833 1.061c-0.322 0.188-0.534 0.532-0.534 0.926 0 0.591 0.479 1.069 1.069 1.069h0c0.196-0 0.379-0.053 0.537-0.146l-0.005 0.003 1.836-1.062c0.949 1.883 1.541 4.092 1.63 6.43l0.001 0.029h-1.742c-0.001 0-0.001 0-0.002 0-0.155 0-0.296 0.064-0.397 0.166l-0 0c-0.102 0.102-0.165 0.244-0.165 0.399 0 0.312 0.253 0.566 0.566 0.566 0 0 0 0 0 0v0l1.754-0.004c-0.076 2.401-0.671 4.646-1.676 6.65l0.042-0.092-1.837-1.062c-0.153-0.090-0.337-0.143-0.533-0.143-0.59 0-1.068 0.478-1.068 1.068 0 0.394 0.213 0.738 0.53 0.923l0.005 0.003 1.834 1.061c-1.268 1.871-2.859 3.421-4.708 4.605l-0.065 0.039zM23.885 10.202l-6.844 3.805c-0.302-0.162-0.661-0.257-1.042-0.257s-0.74 0.095-1.054 0.263l0.012-0.006-6.844-3.805c-0.187-0.106-0.412-0.168-0.65-0.168-0.741 0-1.342 0.601-1.342 1.342 0 0.503 0.276 0.941 0.685 1.171l0.007 0.003 6.982 3.883c0.207 1.043 1.115 1.818 2.203 1.818s1.996-0.775 2.201-1.804l0.002-0.014 6.982-3.883c0.416-0.233 0.692-0.672 0.692-1.174 0-0.741-0.601-1.342-1.342-1.342-0.238 0-0.462 0.062-0.657 0.171l0.007-0.003z"></path>
</svg>
