<!-- Generated by IcoMoon.io -->
<svg version="1.1" xmlns="http://www.w3.org/2000/svg" width="41" height="32" viewBox="0 0 41 32">
<path fill="#808c98" d="M32.792 6.203l3.208-3.208-2.424-2.424-3.839 3.839c-2.819-1.364-5.915-2.124-9.165-2.124-8.796 0-16.457 5.524-20.571 13.714 2.023 4.025 4.902 7.4 8.35 9.797l-3.208 3.208 2.424 2.424 3.839-3.839c2.819 1.366 5.915 2.124 9.166 2.124 8.796 0 16.457-5.522 20.571-13.714-2.023-4.025-4.903-7.4-8.35-9.797zM3.906 16c3.795-6.386 10.046-10.286 16.665-10.286 2.25 0 4.45 0.482 6.532 1.329l-2.439 2.441c-1.189-0.749-2.585-1.198-4.093-1.198-4.262 0-7.714 3.452-7.714 7.714 0 1.509 0.448 2.905 1.199 4.093l-3.209 3.207c-2.724-1.762-5.12-4.235-6.941-7.3zM24.857 16c0 2.368-1.918 4.286-4.285 4.286-0.552 0-1.075-0.115-1.558-0.303l5.541-5.541c0.189 0.484 0.303 1.006 0.303 1.559zM16.286 16c0-2.367 1.918-4.286 4.286-4.286 0.552 0 1.075 0.114 1.558 0.303l-5.541 5.541c-0.189-0.484-0.303-1.006-0.303-1.559zM20.571 26.286c-2.25 0-4.45-0.484-6.532-1.329l2.441-2.44c1.187 0.747 2.583 1.197 4.092 1.197 4.26 0 7.714-3.453 7.714-7.714 0-1.508-0.451-2.905-1.197-4.092l3.207-3.209c2.722 1.763 5.12 4.236 6.941 7.301-3.795 6.386-10.046 10.286-16.665 10.286z"></path>
</svg>
