<!-- Generated by IcoMoon.io -->
<svg version="1.1" xmlns="http://www.w3.org/2000/svg" width="32" height="32" viewBox="0 0 32 32">
<path d="M6 5.333c-0.736 0-1.333 0.597-1.333 1.333s0.597 1.333 1.333 1.333c0.736 0 1.333-0.597 1.333-1.333s-0.597-1.333-1.333-1.333zM2 6.667c0-2.209 1.791-4 4-4s4 1.791 4 4c0 2.209-1.791 4-4 4s-4-1.791-4-4zM12 4c0 0.736 0.597 1.333 1.333 1.333h10.667c0.736 0 1.333-0.597 1.333-1.333s-0.597-1.333-1.333-1.333h-10.667c-0.736 0-1.333 0.597-1.333 1.333zM12 8c0 0.736 0.597 1.333 1.333 1.333h6.667c0.736 0 1.333-0.597 1.333-1.333s-0.597-1.333-1.333-1.333h-6.667c-0.736 0-1.333 0.597-1.333 1.333zM4.038 14.038l0.010-0.001c0.254-0.034 0.619-0.037 1.285-0.037h2.667v4.667c0 0.666-0.003 1.032-0.037 1.285l-0.001 0.010-0.010 0.001c-0.254 0.034-0.619 0.037-1.285 0.037h-1.333c-0.666 0-1.032-0.003-1.285-0.037l-0.010-0.001-0.001-0.010c-0.034-0.253-0.037-0.619-0.037-1.285v-3.333c0-0.666 0.003-1.032 0.037-1.285l0.001-0.010zM10.667 14h5.333c0.736 0 1.333-0.597 1.333-1.333s-0.597-1.333-1.333-1.333h-10.667c-0.024 0-0.048 0-0.073-0-0.565-0-1.115-0-1.568 0.061-0.511 0.069-1.094 0.236-1.578 0.72s-0.652 1.067-0.72 1.578c-0.061 0.453-0.061 1.003-0.061 1.568 0 0.024 0 0.048 0 0.073v3.333c0 0.024 0 0.048 0 0.073-0 0.566-0 1.115 0.061 1.568 0.069 0.511 0.236 1.094 0.72 1.578s1.067 0.652 1.578 0.721c0.453 0.061 1.003 0.061 1.568 0.061 0.024 0 0.048 0 0.073 0h1.333c0.024 0 0.048 0 0.073 0 0.565 0 1.115 0 1.568-0.061 0.511-0.069 1.094-0.236 1.578-0.72s0.652-1.067 0.72-1.578c0.061-0.453 0.061-1.003 0.061-1.568-0-0.024-0-0.048-0-0.073v-4.667zM24 15.333c-0.736 0-1.333 0.597-1.333 1.333s0.597 1.333 1.333 1.333c0.736 0 1.333-0.597 1.333-1.333s-0.597-1.333-1.333-1.333zM20 16.667c0-2.209 1.791-4 4-4s4 1.791 4 4c0 2.209-1.791 4-4 4s-4-1.791-4-4zM19.859 22.665c0.078-0.049 0.141-0.089 0.185-0.119 2.415-1.618 5.496-1.618 7.911 0 0.045 0.030 0.108 0.070 0.186 0.119 0.404 0.255 1.194 0.753 1.725 1.337 0.337 0.371 0.72 0.927 0.79 1.649 0.076 0.783-0.238 1.486-0.77 2.056-0.755 0.809-1.813 1.626-3.273 1.626h-5.226c-1.46 0-2.518-0.817-3.273-1.626-0.532-0.57-0.846-1.273-0.77-2.056 0.070-0.722 0.453-1.278 0.79-1.649 0.53-0.584 1.321-1.082 1.725-1.337zM20.064 25.888c0.553 0.593 0.952 0.779 1.323 0.779h5.226c0.371 0 0.77-0.185 1.323-0.779 0.006-0.007 0.012-0.013 0.018-0.020-0.016-0.021-0.037-0.045-0.062-0.074-0.142-0.156-0.355-0.329-0.628-0.516-0.131-0.090-0.265-0.177-0.399-0.263-0.024-0.015-0.049-0.031-0.075-0.047-0.107-0.068-0.221-0.141-0.319-0.206-1.517-1.016-3.426-1.016-4.943 0-0.098 0.065-0.212 0.138-0.319 0.206-0.025 0.016-0.050 0.032-0.075 0.047-0.135 0.086-0.268 0.172-0.399 0.263-0.272 0.188-0.486 0.361-0.628 0.516-0.026 0.028-0.046 0.053-0.062 0.074 0.006 0.006 0.011 0.013 0.018 0.020z"></path>
</svg>
