<!-- Generated by IcoMoon.io -->
<svg version="1.1" xmlns="http://www.w3.org/2000/svg" width="32" height="32" viewBox="0 0 32 32">
<path d="M22.406 32.001c-0.002 0-0.003 0-0.005 0-0.839 0-1.527-0.646-1.595-1.467l-0-0.006-0.697-8.764-0.385-3.758-2.25 1.046c-0.277-0.079-0.594-0.125-0.923-0.125-0.488 0-0.953 0.101-1.374 0.283l0.022-0.009c-0.184-0-0.361-0.031-0.525-0.089l0.011 0.003-3.987-1.351-0.405 3.962-0.7 8.8c-0.068 0.827-0.756 1.473-1.595 1.473h-3.2c-0.839-0-1.527-0.646-1.594-1.467l-0-0.006-0.584-7.327h-1.022c-0 0-0 0-0 0-0.884 0-1.6-0.716-1.6-1.6 0-0.101 0.009-0.2 0.027-0.296l-0.002 0.010 1.6-8.8c0.14-0.752 0.792-1.314 1.574-1.314 0 0 0 0 0 0h6.401c0.292 0.001 0.566 0.080 0.801 0.217l-0.008-0.004 5.59 3.194 3.818-3.054c0.271-0.218 0.619-0.35 0.999-0.35 0 0 0.001 0 0.001 0h6.401c0 0 0 0 0 0 0.783 0 1.434 0.562 1.573 1.304l0.002 0.010 1.42 7.806h0.206c0.884 0 1.6 0.716 1.6 1.6v0 3.679c0 0.884-0.716 1.6-1.6 1.6v0h-2.94l-0.265 3.326c-0.068 0.827-0.756 1.473-1.595 1.473-0.002 0-0.004 0-0.005 0h0zM21.706 21.601l0.7 8.8h3.2l0.255-3.2h-0.575c-0.884 0-1.6-0.716-1.6-1.6v0-3.679c0-0.884 0.716-1.6 1.6-1.6v0h3.288l-1.368-7.521h-2.4v4.868c0 0.442-0.358 0.8-0.8 0.8s-0.8-0.358-0.8-0.8v0-4.868h-2.4l-4 3.2v1.6l4.287-1.995zM1.604 21.601h2.501l0.7 8.8h3.2l0.7-8.8 0.613-5.994 5.888 1.995v-1.6l-5.601-3.2h-2.4v4.868c0 0.442-0.358 0.8-0.8 0.8s-0.8-0.358-0.8-0.8v0-4.868h-2.4zM25.286 25.6h5.12v-3.679h-5.12zM19.206 4.798c0-2.651 2.149-4.8 4.8-4.8s4.8 2.149 4.8 4.8c0 2.651-2.149 4.8-4.8 4.8v0c-2.65 0-4.799-2.147-4.8-4.797v-0zM20.806 4.798c0 1.768 1.433 3.2 3.2 3.2s3.2-1.433 3.2-3.2c0-1.768-1.433-3.2-3.2-3.2v0c-1.768 0-3.2 1.433-3.2 3.2 0 0.001 0 0.002 0 0.003v-0zM1.604 4.798c0-2.651 2.149-4.8 4.8-4.8s4.8 2.149 4.8 4.8c0 2.651-2.149 4.8-4.8 4.8v0c-2.65 0-4.799-2.147-4.8-4.797v-0zM3.204 4.798c0 1.768 1.433 3.2 3.2 3.2s3.2-1.433 3.2-3.2c0-1.768-1.433-3.2-3.2-3.2v0c-1.768 0-3.2 1.433-3.2 3.2 0 0.001 0 0.002 0 0.003v-0z"></path>
</svg>
