<!-- Generated by IcoMoon.io -->
<svg version="1.1" xmlns="http://www.w3.org/2000/svg" width="32" height="32" viewBox="0 0 32 32">
<path d="M28 20c0-1.923-0.004-3.232-0.135-4.212-0.111-0.824-0.295-1.26-0.538-1.556l-0.108-0.118c-0.297-0.297-0.732-0.519-1.674-0.646-0.98-0.132-2.288-0.135-4.212-0.135h-1.333c-1.923 0-3.232 0.004-4.212 0.135-0.824 0.111-1.26 0.295-1.556 0.538l-0.118 0.108c-0.297 0.297-0.519 0.733-0.646 1.674-0.132 0.98-0.135 2.289-0.135 4.212v1.333c0 1.923 0.004 3.232 0.135 4.212 0.127 0.941 0.349 1.377 0.646 1.674l0.118 0.108c0.295 0.243 0.732 0.427 1.556 0.538 0.98 0.132 2.288 0.135 4.212 0.135h1.333c1.923 0 3.232-0.004 4.212-0.135 0.941-0.127 1.377-0.349 1.674-0.646s0.519-0.732 0.646-1.674c0.132-0.98 0.135-2.288 0.135-4.212v-1.333zM30.667 21.333c0 1.847 0.003 3.367-0.158 4.566-0.166 1.237-0.53 2.33-1.404 3.205s-1.968 1.238-3.205 1.404c-1.199 0.161-2.719 0.158-4.566 0.158h-1.333c-1.847 0-3.367 0.003-4.566-0.158-1.082-0.145-2.054-0.442-2.866-1.099l-0.339-0.306c-0.875-0.875-1.238-1.968-1.405-3.205-0.161-1.199-0.158-2.719-0.158-4.566v-1.333c0-1.847-0.003-3.367 0.158-4.566 0.166-1.237 0.53-2.33 1.405-3.205l0.339-0.306c0.812-0.657 1.784-0.953 2.866-1.099 1.199-0.161 2.718-0.158 4.566-0.158h1.333c1.847 0 3.367-0.003 4.566 0.158 1.237 0.166 2.33 0.53 3.205 1.405l0.306 0.339c0.657 0.812 0.953 1.784 1.099 2.866 0.161 1.199 0.158 2.718 0.158 4.566v1.333z"></path>
<path d="M1.333 12.667c0-2.159-0.003-3.896 0.16-5.273 0.166-1.406 0.522-2.609 1.354-3.623l0.214-0.248c0.22-0.242 0.457-0.468 0.71-0.675l0.389-0.292c0.929-0.628 2.004-0.917 3.234-1.063 1.377-0.163 3.114-0.16 5.273-0.16s3.896-0.003 5.273 0.16c1.406 0.166 2.609 0.522 3.623 1.354l0.248 0.214c0.242 0.22 0.468 0.457 0.675 0.71l0.276 0.368c0.6 0.878 0.895 1.888 1.050 3.036 0.13 0.963 0.17 2.099 0.182 3.429l0.005 1.394-0.007 0.137c-0.068 0.672-0.635 1.197-1.325 1.198s-1.259-0.524-1.328-1.196l-0.007-0.135-0.007-1.389c-0.012-1.286-0.050-2.275-0.158-3.080-0.123-0.913-0.325-1.479-0.615-1.899l-0.128-0.172c-0.083-0.101-0.172-0.197-0.264-0.29l-0.29-0.264c-0.461-0.378-1.092-0.629-2.246-0.766-1.184-0.14-2.734-0.142-4.958-0.142s-3.775 0.003-4.958 0.142c-1.010 0.119-1.619 0.327-2.064 0.63l-0.182 0.135c-0.101 0.083-0.198 0.171-0.29 0.264l-0.264 0.29c-0.378 0.461-0.629 1.092-0.766 2.247-0.14 1.184-0.142 2.734-0.142 4.958s0.003 3.775 0.142 4.958c0.136 1.154 0.388 1.786 0.766 2.246l0.264 0.29c0.092 0.092 0.189 0.181 0.29 0.264l0.172 0.128c0.42 0.289 0.986 0.492 1.899 0.615 0.805 0.108 1.794 0.146 3.080 0.158l1.389 0.007 0.135 0.007c0.672 0.069 1.197 0.638 1.196 1.328s-0.526 1.257-1.198 1.325l-0.137 0.007-1.394-0.005c-1.33-0.013-2.466-0.053-3.429-0.182-1.149-0.155-2.158-0.45-3.036-1.050l-0.368-0.276c-0.253-0.207-0.49-0.433-0.71-0.675l-0.214-0.248c-0.832-1.014-1.188-2.217-1.354-3.623-0.163-1.377-0.16-3.114-0.16-5.273z"></path>
</svg>
