<!-- Generated by IcoMoon.io -->
<svg version="1.1" xmlns="http://www.w3.org/2000/svg" width="32" height="32" viewBox="0 0 32 32">
<path fill="#fff" d="M15.269 26.108l1.941-1.926c0.286-0.286 0.673-0.446 1.077-0.446s0.791 0.16 1.077 0.446c0.285 0.285 0.446 0.673 0.446 1.077s-0.16 0.791-0.446 1.076l-2.153 2.153c-0.925 0.919-2.035 1.63-3.256 2.087s-2.525 0.648-3.826 0.562c-1.301-0.086-2.568-0.448-3.718-1.061s-2.157-1.465-2.952-2.497c-1.341-1.817-1.977-4.059-1.79-6.309s1.184-4.356 2.806-5.927l1.926-1.941c0.141-0.142 0.309-0.255 0.493-0.332s0.383-0.117 0.583-0.117c0.2 0 0.398 0.040 0.583 0.117s0.352 0.19 0.493 0.332c0.142 0.141 0.255 0.309 0.332 0.493s0.117 0.383 0.117 0.583c0 0.2-0.040 0.398-0.117 0.583s-0.19 0.352-0.332 0.493l-2.153 2.168c-0.603 0.597-1.074 1.313-1.383 2.103s-0.448 1.636-0.41 2.483c0.039 0.847 0.254 1.677 0.634 2.436s0.913 1.429 1.568 1.969c1.239 0.956 2.786 1.422 4.346 1.31s3.025-0.794 4.115-1.917zM22.042 0.875c2.268-0.19 4.528 0.453 6.358 1.808 1.030 0.796 1.879 1.801 2.491 2.95s0.973 2.415 1.059 3.713c0.086 1.299-0.105 2.601-0.56 3.821s-1.164 2.328-2.080 3.253l-2.153 2.153c-0.141 0.142-0.309 0.255-0.493 0.332s-0.383 0.117-0.583 0.117c-0.2 0-0.398-0.040-0.583-0.117s-0.352-0.19-0.493-0.332c-0.142-0.141-0.255-0.309-0.332-0.493s-0.117-0.383-0.117-0.583c0-0.2 0.040-0.398 0.117-0.583s0.19-0.353 0.332-0.494l2.153-2.168c0.608-0.597 1.083-1.315 1.395-2.108s0.453-1.643 0.414-2.494c-0.039-0.851-0.256-1.685-0.638-2.446s-0.921-1.434-1.58-1.973c-1.234-0.961-2.779-1.431-4.339-1.319s-3.023 0.798-4.106 1.926l-1.971 1.986c-0.141 0.142-0.309 0.255-0.493 0.332s-0.383 0.117-0.583 0.117c-0.2 0-0.398-0.040-0.583-0.117s-0.352-0.19-0.493-0.332c-0.155-0.172-0.271-0.375-0.343-0.595s-0.096-0.453-0.071-0.683c0.024-0.23 0.097-0.453 0.212-0.653s0.272-0.374 0.459-0.51l1.638-1.668c1.579-1.64 3.701-2.649 5.969-2.839zM12.678 17.951l6.065-6.065c0.285-0.286 0.673-0.446 1.077-0.446s0.791 0.16 1.077 0.446c0.285 0.286 0.446 0.673 0.446 1.077s-0.16 0.791-0.446 1.077l-6.065 6.065c-0.141 0.142-0.309 0.255-0.493 0.332s-0.383 0.117-0.583 0.117c-0.2 0-0.398-0.040-0.583-0.117s-0.352-0.19-0.493-0.332c-0.142-0.141-0.255-0.309-0.332-0.493s-0.117-0.383-0.117-0.583c0-0.2 0.040-0.398 0.117-0.583s0.19-0.352 0.332-0.493z"></path>
</svg>
