<!-- Generated by IcoMoon.io -->
<svg version="1.1" xmlns="http://www.w3.org/2000/svg" width="32" height="32" viewBox="0 0 32 32">
<path d="M24.68 8.652c-2.125-2.125-5.008-3.319-8.013-3.319-0.177 0-0.346 0.070-0.471 0.195s-0.195 0.295-0.195 0.471c0 0.177 0.070 0.346 0.195 0.471s0.295 0.195 0.471 0.195c2.287-0.004 4.506 0.776 6.288 2.21s3.019 3.434 3.505 5.668c0.486 2.235 0.193 4.568-0.832 6.613s-2.719 3.676-4.8 4.623c-2.081 0.947-4.425 1.153-6.639 0.583s-4.167-1.881-5.533-3.716c-1.365-1.834-2.062-4.081-1.972-6.366s0.959-4.471 2.463-6.193l5.727 5.733c-0.128 0.265-0.196 0.556-0.197 0.851 0 0.396 0.117 0.782 0.337 1.111s0.532 0.585 0.898 0.737 0.768 0.191 1.156 0.114c0.388-0.077 0.744-0.268 1.024-0.547s0.47-0.636 0.547-1.024c0.077-0.388 0.038-0.79-0.114-1.156s-0.408-0.678-0.737-0.898-0.716-0.337-1.111-0.337c-0.299 0.002-0.594 0.071-0.863 0.204l-8.008-8.009c-0.125-0.125-0.295-0.196-0.472-0.196s-0.347 0.070-0.472 0.196-0.196 0.295-0.196 0.472c0 0.177 0.070 0.347 0.196 0.472l1.343 1.335c-1.47 1.655-2.424 3.704-2.743 5.894s0.010 4.427 0.947 6.432c0.937 2.006 2.441 3.693 4.326 4.853s4.069 1.744 6.282 1.677c2.213-0.066 4.357-0.779 6.17-2.051s3.212-3.046 4.027-5.104c0.815-2.058 1.010-4.31 0.56-6.477s-1.525-4.156-3.092-5.719zM17.347 16.667c0 0.132-0.039 0.261-0.112 0.37s-0.177 0.195-0.299 0.245c-0.122 0.050-0.256 0.064-0.385 0.038s-0.248-0.089-0.341-0.182c-0.093-0.093-0.157-0.212-0.182-0.341s-0.012-0.263 0.038-0.385 0.136-0.226 0.246-0.299c0.11-0.073 0.238-0.112 0.37-0.112 0.176 0.001 0.345 0.072 0.469 0.197s0.194 0.294 0.194 0.47h0.004z"></path>
</svg>
