<!-- Generated by IcoMoon.io -->
<svg version="1.1" xmlns="http://www.w3.org/2000/svg" width="32" height="32" viewBox="0 0 32 32">
<path d="M26.31 30.34c0.164 0 0.327-0.032 0.479-0.095s0.29-0.155 0.405-0.271 0.208-0.254 0.271-0.405c0.063-0.152 0.095-0.314 0.095-0.479v-26.18c0-0.164-0.032-0.327-0.095-0.478s-0.155-0.289-0.271-0.406-0.254-0.208-0.405-0.271c-0.152-0.063-0.314-0.095-0.479-0.095h-20.62c-0.164 0-0.327 0.032-0.478 0.095s-0.289 0.155-0.406 0.271c-0.116 0.116-0.208 0.254-0.271 0.406s-0.095 0.314-0.095 0.478v26.18c-0 0.164 0.032 0.327 0.095 0.479s0.155 0.29 0.271 0.405 0.254 0.208 0.406 0.271c0.152 0.063 0.314 0.095 0.478 0.095h20.62zM11.935 4.16h8.13v2.815h-8.13v-2.815zM6.94 4.16h2.495v4.065c0 0.164 0.032 0.327 0.095 0.478s0.155 0.289 0.271 0.406c0.116 0.116 0.254 0.208 0.406 0.271s0.314 0.095 0.478 0.095h10.63c0.164 0 0.327-0.032 0.478-0.095s0.289-0.155 0.406-0.271c0.116-0.116 0.208-0.254 0.271-0.406s0.095-0.314 0.095-0.478v-4.065h2.495v23.68h-18.12v-23.68z"></path>
<path d="M20.345 11.443l-6.464 6.463-2.225-2.225c-0.234-0.234-0.552-0.366-0.884-0.366s-0.649 0.132-0.884 0.366c-0.234 0.234-0.366 0.552-0.366 0.884s0.132 0.649 0.366 0.884l3.109 3.109c0.116 0.116 0.254 0.208 0.405 0.271s0.314 0.095 0.478 0.095c0.164 0 0.327-0.032 0.478-0.095s0.289-0.155 0.405-0.271l7.347-7.347c0.117-0.116 0.21-0.254 0.273-0.406s0.096-0.315 0.097-0.479c0-0.165-0.032-0.328-0.095-0.48s-0.155-0.29-0.271-0.407c-0.116-0.116-0.255-0.209-0.407-0.271s-0.315-0.095-0.48-0.095c-0.165 0-0.327 0.033-0.479 0.097s-0.29 0.156-0.406 0.273z"></path>
</svg>
