<svg width="16" height="16" fill="none" xmlns="http://www.w3.org/2000/svg"><path d="M5.267.614c-.829.031-1.308.09-1.822.228-1.221.329-1.976 1.201-2.202 2.545-.127.757-.149 1.447-.149 4.613 0 2.56.02 3.57.08 4.12.139 1.252.5 2.002 1.228 2.546.476.355 1.153.58 1.998.666.431.043 1.847.088 2.427.076.46-.009.533-.016.64-.066a.743.743 0 0 0 0-1.351c-.115-.054-.175-.057-1.334-.074-1.701-.026-2.204-.089-2.675-.337-.546-.287-.762-.799-.844-2.007-.035-.51-.035-6.636 0-7.146.082-1.204.3-1.723.841-2.006.349-.182.779-.266 1.621-.316.661-.039 4.956-.018 5.324.026.775.092 1.152.223 1.442.5.468.446.584 1.166.585 3.624 0 .952.007 1.172.04 1.286a.717.717 0 0 0 .703.522c.384-.004.659-.243.725-.631.024-.144.028-.512.014-1.472-.022-1.61-.057-2.132-.178-2.729-.203-.999-.722-1.729-1.516-2.135-.618-.315-1.242-.432-2.577-.482-.777-.03-3.557-.029-4.371 0m-.595 3.334c-.567.113-.762.869-.327 1.261.229.206-.023.191 3.148.191h2.84l.137-.062c.573-.259.576-1.083.004-1.341l-.141-.064-2.773-.004c-1.525-.002-2.825.007-2.888.019m0 3.334c-.567.112-.762.868-.327 1.261.229.206-.023.19 3.148.19h2.84l.137-.061c.573-.26.576-1.083.004-1.342l-.141-.063-2.773-.004c-1.525-.003-2.825.006-2.888.019m8.208 1.332c-.175.03-.328.088-.499.19-.279.164-3.948 3.847-4.092 4.106-.159.287-.165.322-.176 1.147-.01.739-.009.768.048.899a.9.9 0 0 0 .394.399c.149.068 1.462.066 1.709-.002.351-.097.371-.116 2.445-2.19 1.659-1.66 1.961-1.974 2.032-2.112a1.419 1.419 0 0 0-.065-1.424 4.206 4.206 0 0 0-.408-.457c-.266-.264-.346-.326-.537-.419-.299-.147-.557-.188-.851-.137m-1.24 3.546-1.76 1.76h-.307v-.28l1.767-1.766 1.766-1.767.147.147.147.146-1.76 1.76" fill-rule="evenodd" fill="#000"/></svg>