<!-- Generated by IcoMoon.io -->
<svg version="1.1" xmlns="http://www.w3.org/2000/svg" width="32" height="32" viewBox="0 0 32 32">
<path d="M26.667 17.333h-7c-0.618 0.003-1.209 0.25-1.646 0.687s-0.684 1.028-0.687 1.646v7c0.003 0.618 0.25 1.209 0.687 1.646s1.028 0.684 1.646 0.687h7c0.618-0.003 1.209-0.25 1.646-0.687s0.684-1.028 0.687-1.646v-7c-0.003-0.618-0.25-1.209-0.687-1.646s-1.028-0.684-1.646-0.687zM27 26.667c0 0.088-0.035 0.173-0.098 0.235s-0.147 0.098-0.235 0.098h-7c-0.088 0-0.173-0.035-0.236-0.098s-0.098-0.147-0.098-0.235v-7c0-0.088 0.035-0.173 0.098-0.236s0.147-0.098 0.236-0.098h7c0.088 0 0.173 0.035 0.235 0.098s0.098 0.147 0.098 0.236v7zM12.333 17.333h-7c-0.618 0.003-1.209 0.25-1.646 0.687s-0.684 1.028-0.687 1.646v7c0.003 0.618 0.25 1.209 0.687 1.646s1.028 0.684 1.646 0.687h7c0.618-0.003 1.209-0.25 1.646-0.687s0.684-1.028 0.687-1.646v-7c-0.004-0.618-0.25-1.209-0.687-1.646s-1.028-0.684-1.646-0.687zM12.667 26.667c0 0.088-0.035 0.173-0.098 0.235s-0.147 0.098-0.236 0.098h-7c-0.088 0-0.173-0.035-0.236-0.098s-0.098-0.147-0.098-0.235v-7c0-0.088 0.035-0.173 0.098-0.236s0.147-0.098 0.236-0.098h7c0.088 0 0.173 0.035 0.236 0.098s0.098 0.147 0.098 0.236v7zM26.667 3h-7c-0.618 0.003-1.209 0.25-1.646 0.687s-0.684 1.028-0.687 1.646v7c0.003 0.618 0.25 1.209 0.687 1.646s1.028 0.684 1.646 0.687h7c0.618-0.004 1.209-0.25 1.646-0.687s0.684-1.028 0.687-1.646v-7c-0.003-0.618-0.25-1.209-0.687-1.646s-1.028-0.684-1.646-0.687zM27 12.333c0 0.088-0.035 0.173-0.098 0.236s-0.147 0.098-0.235 0.098h-7c-0.088 0-0.173-0.035-0.236-0.098s-0.098-0.147-0.098-0.236v-7c0-0.088 0.035-0.173 0.098-0.236s0.147-0.098 0.236-0.098h7c0.088 0 0.173 0.035 0.235 0.098s0.098 0.147 0.098 0.236v7zM12.333 3h-7c-0.618 0.003-1.209 0.25-1.646 0.687s-0.684 1.028-0.687 1.646v7c0.003 0.618 0.25 1.209 0.687 1.646s1.028 0.684 1.646 0.687h7c0.618-0.004 1.209-0.25 1.646-0.687s0.684-1.028 0.687-1.646v-7c-0.004-0.618-0.25-1.209-0.687-1.646s-1.028-0.684-1.646-0.687zM12.667 12.333c0 0.088-0.035 0.173-0.098 0.236s-0.147 0.098-0.236 0.098h-7c-0.088 0-0.173-0.035-0.236-0.098s-0.098-0.147-0.098-0.236v-7c0-0.088 0.035-0.173 0.098-0.236s0.147-0.098 0.236-0.098h7c0.088 0 0.173 0.035 0.236 0.098s0.098 0.147 0.098 0.236v7z"></path>
</svg>
