<!-- Generated by IcoMoon.io -->
<svg version="1.1" xmlns="http://www.w3.org/2000/svg" width="32" height="32" viewBox="0 0 32 32">
<path d="M15.509 8.696c0.365-0.441 0.906-0.696 1.479-0.696 0.516 0 1 0.204 1.357 0.519 0.36 0.317 0.655 0.806 0.655 1.402v2.079h1.637c0.612 0 1.287 0.168 1.779 0.638 0.547 0.524 0.705 1.266 0.493 2.010l-1.132 3.966c-0 0-0 0-0 0.001-0.234 0.82-0.984 1.385-1.835 1.385h-6.942c-0.552 0-1-0.448-1-1v-6c0-0.246 0.091-0.483 0.255-0.667l3.254-3.637zM17 10.029l-3 3.353v4.618h5.872l1.113-3.899c0-0 0-0 0-0 0.004-0.015 0.007-0.028 0.010-0.039-0.013-0.006-0.029-0.013-0.050-0.019-0.069-0.023-0.172-0.042-0.308-0.042h-2.637c-0.552 0-1-0.448-1-1v-2.971zM19.853 18.067c0-0 0-0 0-0.001l-0 0.001zM17.028 10.024c0 0-0-0-0-0l0 0z"></path>
<path d="M9 13c0-0.552 0.448-1 1-1h3c0.552 0 1 0.448 1 1v6c0 0.552-0.448 1-1 1h-3c-0.552 0-1-0.448-1-1v-6zM11 14v4h1v-4h-1z"></path>
<path d="M5 5c-0.553 0-1 0.447-1 1v16c0 0.553 0.447 1 1 1h2c0.552 0 1 0.448 1 1v2.586l3.293-3.293c0.188-0.188 0.442-0.293 0.707-0.293h15c0.553 0 1-0.447 1-1v-16c0-0.553-0.447-1-1-1h-22zM2 6c0-1.657 1.343-3 3-3h22c1.657 0 3 1.343 3 3v16c0 1.657-1.343 3-3 3h-14.586l-4.707 4.707c-0.286 0.286-0.716 0.372-1.090 0.217s-0.617-0.52-0.617-0.924v-4h-1c-1.657 0-3-1.343-3-3v-16z"></path>
</svg>
