<!-- Generated by IcoMoon.io -->
<svg version="1.1" xmlns="http://www.w3.org/2000/svg" width="32" height="32" viewBox="0 0 32 32">
<path d="M29.037 32h-26.074c-0.786-0.001-1.539-0.313-2.094-0.869s-0.868-1.309-0.869-2.094v-26.074c0.001-0.786 0.313-1.539 0.869-2.094s1.309-0.868 2.094-0.869h26.074c0.785 0.001 1.539 0.313 2.094 0.869s0.868 1.309 0.869 2.094v26.074c-0.001 0.785-0.313 1.539-0.869 2.094s-1.309 0.868-2.094 0.869v0zM2.963 1.185c-0.471 0-0.924 0.187-1.257 0.521s-0.521 0.786-0.521 1.257v26.074c0 0.471 0.187 0.924 0.521 1.257s0.786 0.521 1.257 0.521h26.074c0.471 0 0.924-0.187 1.257-0.521s0.521-0.786 0.521-1.257v-26.074c0-0.471-0.187-0.924-0.521-1.257s-0.786-0.521-1.257-0.521h-26.074z"></path>
<path d="M31.407 7.111h-30.815c-0.157 0-0.308-0.062-0.419-0.174s-0.174-0.262-0.174-0.419v-3.556c0.001-0.786 0.313-1.539 0.869-2.094s1.309-0.868 2.094-0.869h26.074c0.785 0.001 1.539 0.313 2.094 0.869s0.868 1.309 0.869 2.094v3.556c0 0.157-0.062 0.308-0.174 0.419s-0.262 0.174-0.419 0.174zM1.185 5.926h29.63v-2.963c0-0.471-0.187-0.924-0.521-1.257s-0.786-0.521-1.257-0.521h-26.074c-0.471 0-0.924 0.187-1.257 0.521s-0.521 0.786-0.521 1.257v2.963z"></path>
<path d="M4.148 4.444c0.491 0 0.889-0.398 0.889-0.889s-0.398-0.889-0.889-0.889c-0.491 0-0.889 0.398-0.889 0.889s0.398 0.889 0.889 0.889z"></path>
<path d="M7.111 4.444c0.491 0 0.889-0.398 0.889-0.889s-0.398-0.889-0.889-0.889c-0.491 0-0.889 0.398-0.889 0.889s0.398 0.889 0.889 0.889z"></path>
<path d="M10.074 4.444c0.491 0 0.889-0.398 0.889-0.889s-0.398-0.889-0.889-0.889c-0.491 0-0.889 0.398-0.889 0.889s0.398 0.889 0.889 0.889z"></path>
<path d="M0 10.625c0-0.345 0.28-0.625 0.625-0.625h3.859c0.345 0 0.625 0.28 0.625 0.625v14.821c0 0.345-0.28 0.625-0.625 0.625h-3.859c-0.345 0-0.625-0.28-0.625-0.625v-14.821zM1.125 11.125v13.821h2.859v-13.821h-2.859zM6.972 10.625c0-0.345 0.28-0.625 0.625-0.625h16.806c0.345 0 0.625 0.28 0.625 0.625v14.821c0 0.345-0.28 0.625-0.625 0.625h-16.806c-0.345 0-0.625-0.28-0.625-0.625v-14.821zM8.097 11.125v13.821h15.806v-13.821h-15.806zM28.016 11.125v13.821h2.859v-13.821h-2.859zM26.891 10.625c0-0.345 0.28-0.625 0.625-0.625h3.859c0.345 0 0.625 0.28 0.625 0.625v14.821c0 0.345-0.28 0.625-0.625 0.625h-3.859c-0.345 0-0.625-0.28-0.625-0.625v-14.821zM11.454 28c0-0.311 0.252-0.563 0.563-0.563h0.498c0.311 0 0.563 0.252 0.563 0.563s-0.252 0.563-0.563 0.563h-0.498c-0.311 0-0.563-0.252-0.563-0.563zM14.94 28c0-0.311 0.252-0.563 0.563-0.563h0.498c0.311 0 0.563 0.252 0.563 0.563s-0.252 0.563-0.563 0.563h-0.498c-0.311 0-0.563-0.252-0.563-0.563zM18.425 28c0-0.311 0.252-0.563 0.563-0.563h0.498c0.311 0 0.563 0.252 0.563 0.563s-0.252 0.563-0.563 0.563h-0.498c-0.311 0-0.563-0.252-0.563-0.563z"></path>
<path d="M10.582 14.726c0-0.587 0.476-1.063 1.063-1.063h8.587c0.587 0 1.063 0.476 1.063 1.063v6.548c0 0.587-0.476 1.063-1.063 1.063h-8.587c-0.587 0-1.063-0.476-1.063-1.063v-6.548zM11.707 14.789v6.423h8.462v-6.423h-8.462z"></path>
<path d="M15.020 16.953v2.012l1.531-1.006-1.531-1.006zM14.083 16.316c0-0.472 0.525-0.756 0.92-0.496l2.501 1.643c0.357 0.235 0.357 0.758 0 0.992l-2.501 1.643c-0.395 0.259-0.92-0.024-0.92-0.496v-3.287z"></path>
</svg>
