<!-- Generated by IcoMoon.io -->
<svg version="1.1" xmlns="http://www.w3.org/2000/svg" width="32" height="32" viewBox="0 0 32 32">
<path d="M29.486 0h-26.972c-1.384 0.001-2.513 1.129-2.514 2.514v26.972c0.001 1.384 1.129 2.512 2.514 2.514h26.973c1.384-0.001 2.512-1.129 2.513-2.514v-26.972c-0.001-1.384-1.129-2.513-2.514-2.514zM1.351 6.254h29.298v23.231c-0.001 0.641-0.523 1.163-1.164 1.164h-26.971c-0.641-0.001-1.163-0.523-1.164-1.164v-23.231zM2.514 1.351h26.972c0.641 0.001 1.163 0.522 1.164 1.164v2.39h-29.299v-2.391c0.001-0.641 0.522-1.163 1.164-1.164z"></path>
<path d="M8.728 3.135c0 0.374-0.303 0.677-0.677 0.677s-0.677-0.303-0.677-0.677c0-0.374 0.303-0.677 0.677-0.677s0.677 0.303 0.677 0.677z"></path>
<path d="M6.261 3.026c0.060 0.369-0.191 0.717-0.56 0.777s-0.717-0.191-0.777-0.56c-0.060-0.369 0.191-0.717 0.56-0.777s0.717 0.191 0.777 0.56z"></path>
<path d="M3.811 3.135c0 0.374-0.303 0.677-0.677 0.677s-0.677-0.303-0.677-0.677c0-0.374 0.303-0.677 0.677-0.677s0.677 0.303 0.677 0.677z"></path>
<path d="M5 21.063h3.5c0.494 0 0.908-0.338 1.027-0.795 0.567 0.858 1.299 1.596 2.151 2.17h-0.179c-0.587 0-1.063 0.476-1.063 1.063v3c0 0.587 0.476 1.063 1.063 1.063h3c0.587 0 1.063-0.476 1.063-1.063v-2.76c0.145 0.008 0.291 0.012 0.438 0.012s0.293-0.004 0.438-0.012v2.76c0 0.587 0.476 1.063 1.063 1.063h3c0.587 0 1.063-0.476 1.063-1.063v-3c0-0.587-0.476-1.063-1.063-1.063h-0.179c0.852-0.574 1.585-1.312 2.151-2.17 0.119 0.457 0.533 0.795 1.027 0.795h3.5c0.587 0 1.063-0.476 1.063-1.063v-3c0-0.587-0.476-1.063-1.063-1.063h-3.248c-0.004-0.469-0.049-0.929-0.133-1.375h3.381c0.587 0 1.063-0.476 1.063-1.063v-3c0-0.587-0.476-1.063-1.063-1.063h-3.5c-0.587 0-1.063 0.476-1.063 1.063v1.179c-0.259-0.386-0.552-0.746-0.875-1.078v-0.101c0-0.587-0.476-1.063-1.063-1.063h-0.371c-1.196-0.754-2.611-1.19-4.129-1.19s-2.933 0.436-4.129 1.19h-0.371c-0.587 0-1.063 0.476-1.063 1.063v0.101c-0.322 0.332-0.616 0.693-0.875 1.078v-1.179c0-0.587-0.476-1.063-1.063-1.063h-3.5c-0.587 0-1.063 0.476-1.063 1.063v3c0 0.587 0.476 1.063 1.063 1.063h3.381c-0.084 0.446-0.129 0.906-0.133 1.375h-3.248c-0.587 0-1.063 0.476-1.063 1.063v3c0 0.587 0.476 1.063 1.063 1.063zM23.563 10.563h3.375v2.875h-3.375v-2.875zM5.063 10.563h3.375v2.875h-3.375v-2.875zM12.838 17.875c-0.361 0-0.689-0.081-0.985-0.244-0.293-0.166-0.524-0.392-0.693-0.678-0.166-0.286-0.249-0.604-0.249-0.956s0.083-0.67 0.249-0.956c0.169-0.286 0.4-0.511 0.693-0.673 0.296-0.162 0.624-0.244 0.985-0.244s0.688 0.081 0.98 0.244c0.296 0.162 0.527 0.387 0.693 0.673 0.169 0.286 0.254 0.605 0.254 0.956s-0.084 0.669-0.254 0.956c-0.166 0.286-0.397 0.512-0.693 0.678-0.293 0.163-0.619 0.244-0.98 0.244zM14.438 26.438h-2.875v-2.875h2.724c0.050 0.011 0.1 0.023 0.151 0.032v2.843zM20.438 23.563v2.875h-2.875v-2.843c0.051-0.010 0.101-0.021 0.151-0.032h2.724zM20.166 17.582c-0.293 0.156-0.631 0.234-1.014 0.234h-1.185v-3.633h1.185c0.387 0 0.726 0.078 1.019 0.234 0.293 0.153 0.519 0.367 0.678 0.644 0.159 0.273 0.239 0.585 0.239 0.936s-0.080 0.665-0.239 0.941c-0.159 0.273-0.387 0.488-0.683 0.644zM26.938 19.938h-3.375v-2.224c0.048-0.214 0.087-0.431 0.117-0.651h3.258v2.875zM16.056 14.184v2.975h1.536v0.658h-2.292v-3.633h0.756zM5.063 17.063h3.258c0.030 0.22 0.069 0.437 0.117 0.651v2.224h-3.375v-2.875z"></path>
<path d="M5 27.563h3.5c0.587 0 1.063-0.476 1.063-1.063v-3c0-0.587-0.476-1.063-1.063-1.063h-3.5c-0.587 0-1.063 0.476-1.063 1.063v3c0 0.587 0.476 1.063 1.063 1.063zM5.063 23.563h3.375v2.875h-3.375v-2.875z"></path>
<path d="M27 22.438h-3.5c-0.587 0-1.063 0.476-1.063 1.063v3c0 0.587 0.476 1.063 1.063 1.063h3.5c0.587 0 1.063-0.476 1.063-1.063v-3c0-0.587-0.476-1.063-1.063-1.063zM26.938 26.438h-3.375v-2.875h3.375v2.875z"></path>
<path d="M14.009 15.998c0-0.231-0.052-0.436-0.156-0.614-0.101-0.182-0.241-0.324-0.419-0.424-0.176-0.101-0.374-0.151-0.595-0.151s-0.421 0.051-0.6 0.151c-0.176 0.101-0.316 0.242-0.419 0.424-0.101 0.179-0.151 0.384-0.151 0.614s0.051 0.438 0.151 0.619c0.104 0.179 0.246 0.32 0.424 0.424 0.179 0.101 0.377 0.151 0.595 0.151s0.416-0.051 0.595-0.151c0.179-0.104 0.319-0.246 0.419-0.424 0.104-0.182 0.156-0.389 0.156-0.619z"></path>
<path d="M19.786 14.983c-0.176-0.094-0.381-0.141-0.614-0.141h-0.449v2.316h0.449c0.234 0 0.439-0.047 0.614-0.141s0.311-0.229 0.405-0.405 0.141-0.381 0.141-0.614-0.047-0.438-0.141-0.609c-0.094-0.176-0.229-0.311-0.405-0.405z"></path>
</svg>
