<!-- Generated by IcoMoon.io -->
<svg version="1.1" xmlns="http://www.w3.org/2000/svg" width="34" height="32" viewBox="0 0 34 32">
<path d="M21.543 3.619c-2.672-1.189-5.658-1.484-8.511-0.84s-5.422 2.192-7.323 4.412c-1.9 2.22-3.031 4.995-3.223 7.909s0.564 5.813 2.156 8.263c1.592 2.45 3.935 4.322 6.679 5.334s5.743 1.112 8.548 0.284c2.805-0.829 5.267-2.54 7.019-4.88s2.698-5.181 2.7-8.102v-1.352c0-0.552 0.448-1 1-1s1 0.448 1 1v1.353c-0.002 3.353-1.089 6.615-3.099 9.299s-4.835 4.649-8.053 5.599-6.658 0.836-9.807-0.325c-3.148-1.162-5.837-3.308-7.664-6.121s-2.695-6.139-2.474-9.485 1.519-6.53 3.7-9.078c2.181-2.548 5.128-4.324 8.402-5.063s6.699-0.401 9.765 0.963c0.505 0.225 0.732 0.816 0.507 1.32s-0.816 0.732-1.32 0.507z"></path>
<path d="M32.751 2.203c0.39 0.391 0.39 1.024-0.001 1.414l-16.022 16c-0.39 0.39-1.023 0.39-1.413 0l-4.37-4.364c-0.391-0.39-0.391-1.023-0.001-1.414s1.023-0.391 1.414-0.001l3.663 3.658 15.315-15.294c0.391-0.39 1.024-0.39 1.414 0.001z"></path>
</svg>
