<!-- Generated by IcoMoon.io -->
<svg version="1.1" xmlns="http://www.w3.org/2000/svg" width="32" height="32" viewBox="0 0 32 32">
<path d="M12.463 14.069h-8.247c-0.919 0-1.669-0.747-1.669-1.669v-8.247c0-0.919 0.747-1.669 1.669-1.669h8.247c0.919 0 1.669 0.747 1.669 1.669v8.247c0 0.919-0.75 1.669-1.669 1.669zM4.422 12.194h7.834v-7.834h-7.834v7.834zM12.463 29.515h-8.247c-0.919 0-1.669-0.747-1.669-1.669v-8.247c0-0.919 0.747-1.669 1.669-1.669h8.247c0.919 0 1.669 0.747 1.669 1.669v8.247c0 0.922-0.75 1.669-1.669 1.669zM4.422 27.64h7.834v-7.834h-7.834v7.834zM16.044 4.553h13.409v1.875h-13.409v-1.875zM16.044 10.125h8.666v1.875h-8.666v-1.875zM16.044 20h13.409v1.875h-13.409v-1.875zM16.044 25.572h8.666v1.875h-8.666v-1.875z"></path>
</svg>
