<!-- Generated by IcoMoon.io -->
<svg version="1.1" xmlns="http://www.w3.org/2000/svg" width="32" height="32" viewBox="0 0 32 32">
<path d="M29.486 0h-26.972c-1.384 0.001-2.513 1.129-2.514 2.514v26.972c0.001 1.384 1.129 2.512 2.514 2.514h26.973c1.384-0.001 2.512-1.129 2.513-2.514v-26.972c-0.001-1.384-1.129-2.513-2.514-2.514zM1.351 6.254h29.298v23.231c-0.001 0.641-0.523 1.163-1.164 1.164h-26.971c-0.641-0.001-1.163-0.523-1.164-1.164v-23.231zM2.514 1.351h26.972c0.641 0.001 1.163 0.522 1.164 1.164v2.39h-29.299v-2.391c0.001-0.641 0.522-1.163 1.164-1.164z"></path>
<path d="M8.051 3.812c0.373 0 0.677-0.304 0.677-0.677s-0.304-0.677-0.677-0.677-0.677 0.304-0.677 0.677 0.304 0.677 0.677 0.677z"></path>
<path d="M5.593 3.812c0.373 0 0.677-0.304 0.677-0.677s-0.304-0.677-0.677-0.677-0.677 0.304-0.677 0.677 0.304 0.677 0.677 0.677z"></path>
<path d="M3.811 3.135c0 0.374-0.303 0.677-0.677 0.677s-0.677-0.303-0.677-0.677c0-0.374 0.303-0.677 0.677-0.677s0.677 0.303 0.677 0.677z"></path>
<path d="M19.786 17.017c0.176-0.094 0.311-0.229 0.405-0.405s0.141-0.381 0.141-0.614-0.047-0.438-0.141-0.609c-0.094-0.176-0.229-0.311-0.405-0.405s-0.381-0.141-0.614-0.141h-0.449v2.316h0.449c0.234 0 0.439-0.047 0.614-0.141z"></path>
<path d="M12.243 17.041c0.179 0.101 0.377 0.151 0.595 0.151s0.416-0.051 0.595-0.151c0.179-0.104 0.319-0.246 0.419-0.424 0.104-0.182 0.156-0.389 0.156-0.619s-0.052-0.436-0.156-0.614c-0.101-0.182-0.241-0.324-0.419-0.424-0.176-0.101-0.374-0.151-0.595-0.151s-0.421 0.051-0.6 0.151c-0.176 0.101-0.316 0.242-0.419 0.424-0.101 0.179-0.151 0.384-0.151 0.614s0.051 0.438 0.151 0.619c0.104 0.179 0.246 0.32 0.424 0.424z"></path>
<path d="M16 23.753c1.333 0 2.588-0.337 3.684-0.929l2.050 2.051c0.238 0.246 0.63 0.252 0.876 0.014s0.252-0.63 0.014-0.876l-1.879-1.879c1.831-1.418 3.010-3.637 3.010-6.133 0-4.282-3.471-7.753-7.753-7.753s-7.753 3.471-7.753 7.753 3.471 7.753 7.753 7.753zM17.968 14.183h1.185c0.387 0 0.726 0.078 1.019 0.234 0.293 0.153 0.519 0.367 0.678 0.644 0.159 0.273 0.239 0.585 0.239 0.936s-0.079 0.665-0.239 0.941c-0.159 0.273-0.387 0.488-0.683 0.644-0.293 0.156-0.631 0.234-1.014 0.234h-1.185v-3.633zM15.301 14.183h0.756v2.975h1.536v0.658h-2.292v-3.633zM11.161 15.041c0.169-0.286 0.4-0.511 0.693-0.673 0.296-0.162 0.624-0.244 0.985-0.244s0.688 0.081 0.98 0.244c0.296 0.162 0.527 0.387 0.693 0.673 0.169 0.286 0.254 0.605 0.254 0.956s-0.084 0.669-0.254 0.956c-0.166 0.286-0.397 0.512-0.693 0.678-0.293 0.163-0.619 0.244-0.98 0.244s-0.689-0.081-0.985-0.244c-0.293-0.166-0.524-0.392-0.693-0.678-0.166-0.286-0.249-0.604-0.249-0.956s0.083-0.67 0.249-0.956z"></path>
</svg>
