<!-- Generated by IcoMoon.io -->
<svg version="1.1" xmlns="http://www.w3.org/2000/svg" width="32" height="32" viewBox="0 0 32 32">
<path d="M12 19.667h-2.667c-1.68 0-3.291-0.667-4.478-1.855s-1.855-2.799-1.855-4.478c0-1.68 0.667-3.291 1.855-4.478s2.799-1.855 4.478-1.855h2.667c0.265 0 0.52 0.105 0.707 0.293s0.293 0.442 0.293 0.707v10.667c-0 0.265-0.105 0.52-0.293 0.707s-0.442 0.293-0.707 0.293zM9.333 9c-1.149 0-2.251 0.457-3.064 1.269s-1.269 1.915-1.269 3.064c0 1.149 0.457 2.251 1.269 3.064s1.915 1.269 3.064 1.269h1.667v-8.667h-1.667z"></path>
<path d="M26.671 23.662c-0.457 0-0.904-0.136-1.283-0.392-3.923-2.638-8.608-3.905-13.325-3.605-0.136 0.009-0.273-0.010-0.402-0.056s-0.246-0.119-0.345-0.213c-0.1-0.093-0.179-0.206-0.233-0.332s-0.082-0.26-0.082-0.397v-10.667c-0-0.137 0.028-0.272 0.082-0.397s0.133-0.238 0.233-0.332c0.1-0.093 0.218-0.164 0.346-0.21s0.264-0.066 0.401-0.059c2.977 0.188 5.96-0.246 8.76-1.274 1.61-0.592 3.142-1.375 4.566-2.332 0.347-0.233 0.751-0.368 1.169-0.389s0.833 0.072 1.202 0.27c0.375 0.199 0.689 0.497 0.908 0.861s0.334 0.781 0.334 1.206v15.979c0 0.425-0.115 0.842-0.334 1.206s-0.533 0.662-0.908 0.861c-0.334 0.179-0.708 0.272-1.087 0.272zM13.428 17.622c4.658 0 9.21 1.389 13.075 3.988 0.046 0.032 0.1 0.051 0.155 0.053s0.111-0.011 0.16-0.039c0.055-0.029 0.102-0.072 0.134-0.125s0.049-0.115 0.048-0.177v-15.979c0.001-0.062-0.016-0.123-0.048-0.177s-0.078-0.097-0.134-0.125c-0.048-0.028-0.104-0.042-0.16-0.039s-0.11 0.021-0.155 0.053c-1.556 1.046-3.232 1.903-4.992 2.55-2.722 1.009-5.61 1.496-8.512 1.435v8.586c0.143-0.003 0.286-0.004 0.428-0.004z"></path>
<path d="M11.676 30.333h-0.012c-0.887-0.001-1.743-0.326-2.408-0.913s-1.093-1.396-1.204-2.276l-1.044-8.354c-0.018-0.141-0.005-0.284 0.036-0.419s0.112-0.261 0.206-0.367c0.094-0.106 0.209-0.192 0.339-0.25s0.27-0.088 0.411-0.088h5.333c0.244 0 0.479 0.089 0.662 0.25s0.3 0.384 0.33 0.626l0.962 7.699c0.064 0.512 0.018 1.032-0.134 1.525s-0.408 0.948-0.749 1.335-0.761 0.697-1.232 0.909c-0.47 0.212-0.981 0.322-1.497 0.322zM9.133 19.667l0.904 7.23c0.050 0.396 0.243 0.761 0.543 1.026s0.685 0.41 1.085 0.411h0.012c0.232 0 0.462-0.049 0.674-0.145s0.401-0.235 0.555-0.41c0.154-0.174 0.269-0.38 0.337-0.602s0.089-0.456 0.060-0.687l-0.853-6.824h-3.318z"></path>
</svg>
