<svg width="16" height="16" fill="none" xmlns="http://www.w3.org/2000/svg"><path d="M7.747 1.272c-.932.128-2.569.737-4.282 1.593-.895.448-1.456.78-1.988 1.178-1.184.885-1.17 1.722.043 2.616.405.298 1.174.763 1.608.971.078.038.131.082.138.116.006.03.036.678.067 1.441.079 1.926.094 2.152.162 2.374.203.668.754 1.123 1.758 1.453 1.805.593 4.546.492 6.032-.223.501-.241.831-.512 1.034-.849.098-.163.098-.164-.066.245-.29.723-.4 1.242-.336 1.586.091.484.505.874 1.006.946.24.035 1.228.035 1.45 0a1.216 1.216 0 0 0 1.019-1.011c.069-.464-.171-1.239-.729-2.354l-.263-.527v-4.12l.087-.06a3.67 3.67 0 0 0 .598-.554c.071-.088.165-.238.209-.333.07-.154.079-.202.079-.427 0-.225-.009-.272-.079-.426-.15-.325-.435-.621-.947-.986-1.054-.75-3.207-1.785-4.835-2.325-.838-.278-1.377-.377-1.765-.324m.623 1.529c1.319.316 4.051 1.565 5.143 2.351.121.087.22.169.22.181 0 .031-.301.247-.64.458-1.031.643-2.752 1.438-4.056 1.874-.542.18-.844.255-1.037.255-.736.001-3.718-1.244-5.133-2.143-.256-.162-.626-.425-.626-.444 0-.021.387-.293.677-.475 1.178-.738 3.394-1.714 4.615-2.032.35-.092.538-.097.837-.025m4.536 6.419-.001 1.593-.254.494c-.14.271-.246.469-.236.44.083-.242.115-.371.13-.52.018-.19.148-3.123.148-3.353 0-.131.007-.145.087-.194a.458.458 0 0 1 .107-.053c.011 0 .019.717.019 1.593m-6.85-.292c1.218.447 1.861.55 2.531.407.531-.114 1.502-.443 2.281-.773.168-.071.31-.122.315-.113.005.01-.017.615-.049 1.345-.066 1.507-.045 1.4-.307 1.559-.342.206-.92.38-1.634.492-.332.051-.484.059-1.206.059s-.875-.008-1.207-.059c-.714-.112-1.292-.286-1.633-.492-.262-.159-.241-.052-.308-1.559a41.179 41.179 0 0 1-.048-1.345c.005-.009.192.058.416.15.224.091.606.24.849.329m7.701 4.047c.046.125.083.239.083.253 0 .014-.084.025-.187.025-.102 0-.186-.009-.186-.02 0-.06.168-.511.186-.5.012.008.059.116.104.242" fill-rule="evenodd" fill="#000"/></svg>