<svg width="16" height="16" fill="none" xmlns="http://www.w3.org/2000/svg"><path d="M11.08.616c-.663.089-1.184.372-1.75.949-.348.354-6.993 7.559-7.375 7.995-.815.932-1.068 1.489-1.207 2.653a27.654 27.654 0 0 0-.142 1.867c-.004.485.079.713.353.969.145.137.332.232.548.281.217.049 2.086.093 2.543.06 1.232-.09 1.798-.366 2.95-1.435.578-.536 6.966-6.688 7.387-7.113.205-.208.437-.47.514-.583a2.963 2.963 0 0 0 .254-2.832c-.194-.436-.406-.695-1.305-1.601a10.916 10.916 0 0 0-.717-.673 2.812 2.812 0 0 0-1.106-.499 3.777 3.777 0 0 0-.947-.038m.688 1.504c.299.078.406.155.949.69.619.611.972 1 1.057 1.165.143.28.186.687.105.997-.066.255-.183.436-.492.761l-.29.307-1.522-1.52c-.837-.836-1.522-1.53-1.522-1.543 0-.013.147-.171.327-.35.339-.339.479-.434.747-.506.185-.05.453-.05.641-.001M12 7.068c0 .017-5.84 5.641-6.2 5.97-.324.296-.652.541-.879.654-.396.198-.739.238-1.912.223-.506-.006-.885-.022-.898-.036-.027-.031.081-1.346.144-1.746.094-.605.263-.951.731-1.493.121-.139 1.529-1.673 3.129-3.408l2.91-3.154 1.487 1.488A105.58 105.58 0 0 1 12 7.068m-2.667 7.599v.746h5.334V13.92H9.333v.747" fill-rule="evenodd" fill="#000"/></svg>