<svg width="16" height="16" fill="none" xmlns="http://www.w3.org/2000/svg"><path d="M7.613 2.82a1.313 1.313 0 0 0-.741.666c-.082.173-.085.194-.085.515 0 .333 0 .336.099.535.186.377.556.645.945.686.435.045.763-.063 1.048-.344.606-.595.436-1.616-.332-1.997-.176-.088-.205-.094-.494-.101-.241-.006-.335.002-.44.04m-.04 4.007a1.247 1.247 0 0 0-.452 2.054c.276.276.611.385 1.047.341.387-.038.76-.309.946-.686.099-.199.099-.202.099-.535 0-.321-.003-.341-.085-.515a1.313 1.313 0 0 0-.592-.6c-.191-.095-.213-.1-.508-.106-.255-.006-.333.002-.455.047m0 4a1.247 1.247 0 0 0-.452 2.054c.276.276.611.385 1.047.341.387-.038.76-.309.946-.686.099-.199.099-.202.099-.535 0-.321-.003-.341-.085-.515a1.313 1.313 0 0 0-.592-.6c-.191-.095-.213-.1-.508-.106-.255-.006-.333.002-.455.047" fill-rule="evenodd" fill="#000"/></svg>