<!-- Generated by IcoMoon.io -->
<svg version="1.1" xmlns="http://www.w3.org/2000/svg" width="32" height="32" viewBox="0 0 32 32">
<path d="M3.59 26.859c0.001 1.037 0.413 2.030 1.146 2.764s1.726 1.145 2.763 1.147h17.002c1.037-0.001 2.030-0.414 2.763-1.147s1.145-1.727 1.146-2.764v-21.719c-0.001-1.036-0.413-2.030-1.146-2.763s-1.726-1.145-2.763-1.146h-12.252c-0.514-0.001-1.022 0.099-1.497 0.296s-0.905 0.485-1.268 0.849l-4.751 4.751c-0.363 0.362-0.652 0.793-0.848 1.267s-0.297 0.983-0.296 1.496v16.97zM6.052 9.889c0-0.382 0.155-0.754 0.423-1.024l4.748-4.748c0.273-0.271 0.641-0.423 1.025-0.425h12.252c0.799 0 1.447 0.649 1.447 1.447v21.719c0 0.799-0.648 1.449-1.447 1.449h-17.002c-0.384-0.001-0.752-0.154-1.023-0.425s-0.424-0.64-0.424-1.023v-16.97z"></path>
<path d="M9.417 23.186c0.156 0.043 0.319 0.055 0.479 0.035s0.315-0.071 0.456-0.151c0.141-0.080 0.264-0.186 0.363-0.314s0.173-0.273 0.216-0.429l0.23-0.839h4.185l0.23 0.839c0.087 0.315 0.295 0.582 0.579 0.743s0.62 0.203 0.935 0.116c0.315-0.087 0.582-0.295 0.743-0.579s0.203-0.62 0.116-0.935l-1.511-5.493c-0.193-0.697-0.609-1.311-1.184-1.749s-1.278-0.676-2-0.678c-0.723 0.001-1.425 0.239-2 0.678s-0.991 1.053-1.184 1.749l-1.511 5.493c-0.043 0.156-0.055 0.319-0.035 0.479s0.071 0.315 0.151 0.456c0.080 0.141 0.186 0.264 0.314 0.363s0.273 0.173 0.429 0.216zM13.253 16.214c0.377 0 0.711 0.255 0.812 0.619l0.603 2.193h-2.831l0.603-2.193c0.049-0.178 0.155-0.334 0.302-0.446s0.326-0.173 0.51-0.173zM17.585 13.564h1.104v1.106c0 0.326 0.13 0.639 0.36 0.87s0.544 0.361 0.87 0.361c0.326 0 0.639-0.13 0.87-0.361s0.36-0.544 0.36-0.87v-1.106h1.105c0.326 0 0.639-0.13 0.87-0.361s0.36-0.544 0.36-0.87c0-0.326-0.13-0.639-0.36-0.87s-0.544-0.36-0.87-0.36h-1.105v-1.104c0-0.326-0.13-0.639-0.36-0.87s-0.544-0.361-0.87-0.361c-0.326 0-0.639 0.13-0.87 0.361s-0.36 0.544-0.36 0.87v1.104h-1.105c-0.326 0-0.639 0.13-0.87 0.36s-0.36 0.544-0.36 0.87c0 0.326 0.13 0.639 0.36 0.87s0.544 0.361 0.87 0.361h0.001z"></path>
</svg>
