<!-- Generated by IcoMoon.io -->
<svg version="1.1" xmlns="http://www.w3.org/2000/svg" width="32" height="32" viewBox="0 0 32 32">
<path d="M23.333 2.333h-14.667c-0.442 0-0.866 0.176-1.179 0.488s-0.488 0.736-0.488 1.179v24.667c0 0.346 0.18 0.666 0.473 0.853 0.293 0.18 0.66 0.2 0.973 0.047l2.22-1.113 2.22 1.113c0.28 0.14 0.613 0.14 0.893 0l2.22-1.113 2.22 1.113c0.28 0.14 0.613 0.14 0.893 0l2.22-1.113 2.22 1.113c0.007 0.006 0.020 0.006 0.027 0.006 0.047 0.020 0.1 0.040 0.153 0.053 0.020 0.006 0.033 0.013 0.053 0.020 0.067 0.013 0.14 0.026 0.207 0.026h0.007c0.087 0 0.167-0.013 0.247-0.033l0.060-0.020c0.060-0.020 0.12-0.047 0.18-0.080 0.013-0.007 0.033-0.013 0.047-0.027 0.067-0.047 0.133-0.093 0.187-0.153 0.013-0.013 0.020-0.027 0.033-0.040 0.047-0.053 0.087-0.113 0.12-0.173 0.007-0.014 0.013-0.020 0.020-0.034 0.007-0.006 0.007-0.020 0.013-0.026l0.040-0.1c0.013-0.027 0.020-0.060 0.027-0.087 0.007-0.033 0.013-0.060 0.013-0.093 0.007-0.034 0.007-0.073 0.013-0.107v-24.7c0-0.219-0.043-0.436-0.127-0.638s-0.207-0.386-0.361-0.541c-0.155-0.155-0.338-0.278-0.541-0.361s-0.419-0.127-0.638-0.127zM23 6v21.047l-1.22-0.607c-0.28-0.14-0.613-0.14-0.893 0l-2.22 1.107-2.22-1.113c-0.28-0.14-0.613-0.14-0.893 0l-2.22 1.113-2.22-1.113c-0.28-0.14-0.613-0.14-0.893 0l-1.22 0.613v-22.713h14v1.667z"></path>
<path d="M17.333 18.333h-4c-0.553 0-1 0.447-1 1s0.447 1 1 1h4c1.287 0 2.333-1.047 2.333-2.333v-1.333c0-1.287-1.047-2.333-2.333-2.333h-2.667c-0.187 0-0.333-0.147-0.333-0.333v-1.333c0-0.187 0.147-0.333 0.333-0.333h4c0.553 0 1-0.447 1-1s-0.447-1-1-1h-4c-1.287 0-2.333 1.047-2.333 2.333v1.333c0 1.287 1.047 2.333 2.333 2.333h2.667c0.187 0 0.333 0.147 0.333 0.333v1.333c0 0.187-0.147 0.333-0.333 0.333z"></path>
</svg>
