<!-- Generated by IcoMoon.io -->
<svg version="1.1" xmlns="http://www.w3.org/2000/svg" width="37" height="32" viewBox="0 0 37 32">
<path d="M22.193 1.236c1.137-0.472 2.355-0.715 3.585-0.715s2.449 0.243 3.585 0.715 2.169 1.163 3.039 2.035c0.87 0.871 1.559 1.905 2.030 3.044s0.713 2.358 0.713 3.59-0.242 2.452-0.713 3.59c-0.471 1.138-1.161 2.172-2.030 3.044 0 0 0-0 0 0l-13.444 13.47c-0.188 0.188-0.442 0.294-0.708 0.294s-0.52-0.106-0.708-0.294l-13.444-13.47c-1.756-1.76-2.743-4.146-2.743-6.634s0.986-4.874 2.743-6.634c1.756-1.76 4.139-2.749 6.624-2.749s4.867 0.989 6.624 2.749l0.904 0.906 0.904-0.906c0.869-0.872 1.902-1.563 3.039-2.035zM25.778 2.521c-0.967 0-1.925 0.191-2.819 0.562s-1.706 0.915-2.39 1.6l-1.612 1.615c-0.188 0.188-0.442 0.294-0.708 0.294s-0.52-0.106-0.708-0.294l-1.612-1.615c-1.382-1.384-3.255-2.162-5.208-2.162s-3.827 0.777-5.208 2.162c-1.382 1.384-2.158 3.263-2.158 5.221s0.777 3.837 2.158 5.221l12.736 12.761 12.736-12.761c0.684-0.685 1.227-1.499 1.598-2.395s0.561-1.856 0.561-2.826c0-0.97-0.191-1.93-0.561-2.826s-0.913-1.71-1.598-2.395l-0-0c-0.684-0.686-1.496-1.229-2.39-1.6s-1.851-0.562-2.818-0.562z"></path>
</svg>
