<!-- Generated by IcoMoon.io -->
<svg version="1.1" xmlns="http://www.w3.org/2000/svg" width="32" height="32" viewBox="0 0 32 32">
<path d="M26.941 31.77h-21.885c-1.28-0.002-2.507-0.512-3.412-1.417s-1.414-2.133-1.415-3.413v-21.883c0.001-1.28 0.511-2.507 1.416-3.412s2.132-1.414 3.412-1.416h21.885c1.28 0.001 2.507 0.511 3.412 1.416s1.414 2.132 1.416 3.412v21.883c-0.002 1.28-0.511 2.507-1.416 3.413s-2.132 1.415-3.412 1.417zM5.056 2.516c-0.674 0.001-1.32 0.269-1.796 0.745s-0.745 1.123-0.745 1.796v21.883c0.001 0.674 0.268 1.32 0.745 1.797s1.123 0.745 1.797 0.746h21.885c0.674-0.001 1.32-0.269 1.797-0.746s0.744-1.123 0.745-1.797v-21.883c-0.001-0.674-0.269-1.32-0.745-1.796s-1.123-0.745-1.796-0.745h-21.885z"></path>
<path d="M10.843 15.749c-0.808 0-1.598-0.24-2.27-0.688s-1.195-1.087-1.505-1.833c-0.309-0.746-0.39-1.568-0.232-2.36s0.547-1.52 1.118-2.092c0.571-0.571 1.299-0.96 2.092-1.118s1.614-0.077 2.36 0.232c0.746 0.309 1.384 0.833 1.833 1.505s0.688 1.462 0.688 2.27c-0.001 1.083-0.432 2.121-1.198 2.887s-1.804 1.197-2.887 1.198zM10.843 9.866c-0.356 0-0.704 0.106-1 0.303s-0.527 0.479-0.663 0.808c-0.136 0.329-0.172 0.691-0.102 1.040s0.241 0.67 0.493 0.921c0.252 0.252 0.572 0.423 0.921 0.492s0.711 0.034 1.040-0.103c0.329-0.136 0.61-0.367 0.807-0.663s0.303-0.644 0.303-1c-0.001-0.477-0.191-0.934-0.528-1.271s-0.795-0.527-1.271-0.527zM2.436 29.184c-0.221-0-0.437-0.064-0.622-0.184s-0.331-0.292-0.421-0.493c-0.090-0.201-0.119-0.425-0.085-0.643s0.131-0.421 0.278-0.585l5.372-5.986c0.518-0.581 1.242-0.938 2.018-0.996s1.545 0.187 2.144 0.684l2.309 1.905c0.075 0.064 0.162 0.112 0.257 0.14s0.194 0.036 0.292 0.023c0.097-0.010 0.191-0.040 0.276-0.087s0.16-0.111 0.22-0.188l6.074-7.848c0.28-0.364 0.64-0.659 1.052-0.862s0.865-0.308 1.325-0.308h0.011c0.455-0.001 0.904 0.102 1.314 0.301s0.768 0.488 1.050 0.846l5.826 7.412c0.187 0.238 0.272 0.541 0.236 0.842s-0.19 0.575-0.428 0.763c-0.238 0.187-0.541 0.272-0.843 0.236s-0.575-0.19-0.762-0.429l-5.826-7.412c-0.068-0.087-0.155-0.156-0.255-0.204s-0.208-0.072-0.319-0.070c-0.111 0.004-0.219 0.031-0.318 0.080s-0.187 0.118-0.258 0.203l-6.079 7.845c-0.247 0.319-0.556 0.585-0.908 0.783s-0.74 0.323-1.142 0.367c-0.401 0.045-0.808 0.009-1.195-0.107s-0.747-0.307-1.059-0.564l-2.309-1.905c-0.145-0.12-0.331-0.179-0.518-0.165s-0.362 0.101-0.488 0.241l-5.365 5.981c-0.107 0.121-0.239 0.218-0.386 0.284s-0.308 0.1-0.469 0.1z"></path>
</svg>
