<!-- Generated by IcoMoon.io -->
<svg version="1.1" xmlns="http://www.w3.org/2000/svg" width="32" height="32" viewBox="0 0 32 32">
<path d="M2.489 8.383c0-3.707 3.055-6.695 6.741-6.695h13.515c3.695 0 6.704 2.996 6.704 6.695v11.088c0 3.702-3.013 6.681-6.704 6.681h-3.144l-2.816 3.723c-0.185 0.245-0.473 0.391-0.779 0.396s-0.599-0.13-0.793-0.368l-3.058-3.751h-2.925c-3.683 0-6.741-2.971-6.741-6.681v-11.088zM9.23 3.688c-2.603 0-4.741 2.113-4.741 4.695v11.088c0 2.579 2.135 4.681 4.741 4.681h3.4c0.301 0 0.585 0.135 0.775 0.368l2.553 3.132 2.348-3.104c0.189-0.25 0.484-0.397 0.798-0.397h3.642c2.597 0 4.704-2.094 4.704-4.681v-11.088c0-2.59-2.11-4.695-4.704-4.695h-13.515z"></path>
<path d="M11.261 11.070c0-0.599 0.192-1.205 0.577-1.82s0.945-1.123 1.683-1.527c0.737-0.403 1.598-0.605 2.581-0.605 0.914 0 1.721 0.169 2.42 0.506s1.24 0.796 1.621 1.375c0.381 0.58 0.572 1.21 0.572 1.891 0 0.536-0.109 1.005-0.326 1.409s-0.476 0.752-0.775 1.045c-0.299 0.293-0.837 0.786-1.612 1.479-0.214 0.195-0.386 0.367-0.515 0.515s-0.225 0.284-0.288 0.406c-0.063 0.123-0.112 0.246-0.146 0.369s-0.087 0.339-0.156 0.648c-0.12 0.656-0.495 0.983-1.125 0.983-0.328 0-0.604-0.107-0.827-0.321s-0.336-0.532-0.336-0.955c0-0.529 0.082-0.988 0.246-1.375s0.381-0.728 0.652-1.021c0.271-0.293 0.636-0.641 1.097-1.045 0.403-0.353 0.695-0.619 0.874-0.799s0.331-0.38 0.454-0.6c0.123-0.221 0.184-0.46 0.184-0.718 0-0.504-0.188-0.93-0.563-1.276s-0.859-0.52-1.451-0.52c-0.693 0-1.204 0.175-1.531 0.525s-0.605 0.865-0.832 1.546c-0.214 0.712-0.621 1.068-1.219 1.068-0.353 0-0.651-0.124-0.893-0.373s-0.364-0.518-0.364-0.808zM15.874 21.431c-0.384 0-0.72-0.125-1.007-0.373s-0.43-0.597-0.43-1.045c0-0.397 0.139-0.731 0.416-1.002s0.618-0.406 1.021-0.406c0.397 0 0.731 0.136 1.002 0.406s0.406 0.605 0.406 1.002c0 0.441-0.142 0.788-0.425 1.040s-0.611 0.378-0.983 0.378z"></path>
</svg>
