<!-- Generated by IcoMoon.io -->
<svg version="1.1" xmlns="http://www.w3.org/2000/svg" width="38" height="32" viewBox="0 0 38 32">
<path d="M2.617 21.83c1.421-1.425 3.348-2.226 5.359-2.226h12.76c2.011 0 3.938 0.801 5.359 2.226s2.218 3.357 2.218 5.37v3.2c0 0.661-0.536 1.196-1.196 1.196s-1.196-0.536-1.196-1.196v-3.2c0-1.381-0.547-2.705-1.52-3.681s-2.291-1.523-3.664-1.523h-12.76c-1.374 0-2.692 0.547-3.664 1.523s-1.52 2.3-1.52 3.681v3.2c0 0.661-0.536 1.196-1.196 1.196s-1.196-0.536-1.196-1.196v-3.2c0-2.013 0.797-3.945 2.218-5.37z"></path>
<path d="M14.355 2.796c-2.859 0-5.184 2.326-5.184 5.204s2.324 5.204 5.184 5.204c2.859 0 5.184-2.326 5.184-5.204s-2.324-5.204-5.184-5.204zM6.779 8c0-4.192 3.389-7.596 7.576-7.596s7.576 3.404 7.576 7.596c0 4.192-3.389 7.596-7.576 7.596s-7.576-3.404-7.576-7.596z"></path>
<path d="M24.362 1.51c0.164-0.64 0.816-1.025 1.456-0.861 1.63 0.419 3.075 1.37 4.106 2.702s1.59 2.971 1.59 4.656-0.559 3.324-1.59 4.656c-1.031 1.332-2.476 2.283-4.106 2.702-0.64 0.164-1.292-0.221-1.456-0.861s0.221-1.292 0.861-1.456c1.114-0.286 2.103-0.936 2.809-1.849s1.090-2.036 1.090-3.192-0.384-2.279-1.090-3.192c-0.706-0.913-1.695-1.563-2.809-1.849-0.64-0.164-1.025-0.816-0.861-1.456zM30.742 20.708c0.165-0.64 0.818-1.024 1.458-0.858 1.626 0.421 3.066 1.372 4.094 2.702s1.586 2.965 1.587 4.647v3.201c0 0.661-0.536 1.196-1.196 1.196s-1.196-0.536-1.196-1.196v-3.199c-0.001-1.154-0.384-2.274-1.088-3.186s-1.689-1.561-2.801-1.849c-0.64-0.166-1.024-0.818-0.858-1.458z"></path>
</svg>
