<svg width="16" height="16" fill="none" xmlns="http://www.w3.org/2000/svg"><path d="M11.013 1.997v.746l.087.009.086.008-.228.194c-.781.664-1.891 1.427-2.985 2.051-1.407.803-2.942 1.493-4.653 2.093-.293.103-.536.19-.54.193-.006.006.448 1.382.462 1.398.042.05 2.219-.791 3.198-1.235 2.137-.97 4.29-2.304 5.603-3.472.104-.093.197-.169.207-.169.009 0 .017.042.017.094V4h1.466V2.913c0-1.082 0-1.087-.062-1.22a.931.931 0 0 0-.176-.236c-.216-.194-.184-.189-1.395-.198l-1.087-.008v.746m1.133 3.281c-.51.081-.865.334-1.07.764a1.53 1.53 0 0 0-.116.346c-.035.214-.035 7.01 0 7.224.059.362.314.73.636.92.289.17.442.199 1.057.2.584.001.715-.019.988-.151.319-.154.561-.433.683-.787l.063-.181V6.387l-.062-.179a1.362 1.362 0 0 0-.952-.894c-.154-.044-1.017-.069-1.227-.036M12.92 10v3.24l-.26.008-.26.007v-6.51l.26.007.26.008V10M7.387 7.627a1.368 1.368 0 0 0-1.096 1.12c-.013.08-.024 1.178-.024 2.44.001 1.889.007 2.325.039 2.474.106.501.509.908 1.027 1.036.099.024.317.036.667.036.35 0 .568-.012.667-.036a1.41 1.41 0 0 0 1.006-.934c.044-.139.047-.325.047-2.603V8.707l-.074-.2a1.355 1.355 0 0 0-1.059-.882c-.175-.029-1.03-.027-1.2.002m.866 3.533v2.08h-.506l-.007-2.053a86.094 86.094 0 0 1 .006-2.088c.01-.025.078-.032.26-.027l.247.008v2.08M2.88 9.269c-.65.111-1.018.398-1.205.939l-.062.179v3.226l.062.179c.125.36.361.633.684.789.273.132.404.152.988.151.615-.001.768-.03 1.057-.2.322-.19.577-.558.636-.92.034-.208.034-3.016 0-3.224a1.428 1.428 0 0 0-.625-.919c-.257-.154-.444-.193-.988-.203a6.804 6.804 0 0 0-.547.003m.72 2.732v1.254l-.26-.007-.26-.008-.007-1.213a31.088 31.088 0 0 1 .006-1.247c.009-.023.088-.033.267-.033H3.6v1.254" fill-rule="evenodd" fill="#000"/></svg>