<!-- Generated by IcoMoon.io -->
<svg version="1.1" xmlns="http://www.w3.org/2000/svg" width="32" height="32" viewBox="0 0 32 32">
<path d="M29.485 0.062h-26.971c-1.353 0.001-2.45 1.098-2.452 2.452v26.971c0.001 1.354 1.098 2.45 2.452 2.452h26.971c1.354-0.001 2.45-1.098 2.452-2.452v-26.971c-0.001-1.353-1.098-2.45-2.452-2.452zM2.514 1.288h26.971c0.677 0.001 1.225 0.549 1.226 1.226v2.452h-29.423v-2.452c0.001-0.677 0.549-1.225 1.226-1.226zM29.485 30.712h-26.971c-0.677-0.001-1.225-0.549-1.226-1.226v-23.294h29.424v23.293c-0.001 0.677-0.549 1.226-1.227 1.227z"></path>
<path d="M29.486 32h-26.972c-1.385-0.001-2.513-1.129-2.514-2.514v-26.972c0.001-1.385 1.129-2.513 2.514-2.514h26.971c1.385 0.001 2.513 1.129 2.514 2.514v26.971c-0.001 1.385-1.129 2.513-2.513 2.515zM2.514 0.124c-1.316 0.001-2.388 1.073-2.389 2.39v26.971c0.001 1.316 1.073 2.388 2.39 2.389h26.971c1.316-0.001 2.388-1.073 2.389-2.39v-26.971c-0.001-1.316-1.073-2.388-2.39-2.389h-26.971zM29.486 30.774h-26.972c-0.71-0.001-1.287-0.578-1.288-1.288v-23.356h29.548v23.356c0 0.71-0.578 1.288-1.288 1.289zM1.35 6.254v23.231c0.001 0.641 0.523 1.163 1.164 1.164h26.971c0.641-0.001 1.163-0.522 1.164-1.164v-23.231h-29.299zM30.774 5.028h-29.548v-2.515c0.001-0.71 0.578-1.287 1.288-1.288h26.971c0.71 0.001 1.288 0.578 1.288 1.288v2.515h0.001zM1.35 4.904h29.299v-2.39c-0.001-0.641-0.523-1.163-1.164-1.164h-26.971c-0.641 0.001-1.163 0.523-1.164 1.164v2.39z"></path>
<path d="M8.051 3.749c0.339 0 0.614-0.275 0.614-0.614s-0.275-0.614-0.614-0.614c-0.339 0-0.614 0.275-0.614 0.614s0.275 0.614 0.614 0.614z"></path>
<path d="M8.051 3.812c-0.373 0-0.677-0.304-0.677-0.677s0.304-0.677 0.677-0.677c0.373 0 0.677 0.304 0.677 0.677s-0.304 0.677-0.677 0.677zM8.051 2.582c-0.304 0-0.552 0.248-0.552 0.552s0.248 0.552 0.552 0.552c0.304 0 0.552-0.248 0.552-0.552s-0.248-0.552-0.552-0.552z"></path>
<path d="M5.593 3.749c0.339 0 0.614-0.275 0.614-0.614s-0.275-0.614-0.614-0.614c-0.339 0-0.614 0.275-0.614 0.614s0.275 0.614 0.614 0.614z"></path>
<path d="M5.593 3.812c-0.373 0-0.677-0.304-0.677-0.677s0.304-0.677 0.677-0.677c0.373 0 0.677 0.304 0.677 0.677s-0.304 0.677-0.677 0.677zM5.593 2.582c-0.304 0-0.552 0.248-0.552 0.552s0.248 0.552 0.552 0.552c0.304 0 0.552-0.248 0.552-0.552s-0.248-0.552-0.552-0.552z"></path>
<path d="M3.135 3.749c0.339 0 0.614-0.275 0.614-0.614s-0.275-0.614-0.614-0.614c-0.339 0-0.614 0.275-0.614 0.614s0.275 0.614 0.614 0.614z"></path>
<path d="M3.135 3.812c-0.373 0-0.677-0.304-0.677-0.677s0.304-0.677 0.677-0.677c0.373 0 0.677 0.304 0.677 0.677s-0.303 0.677-0.677 0.677zM3.135 2.582c-0.304 0-0.552 0.248-0.552 0.552s0.248 0.552 0.552 0.552c0.304 0 0.552-0.248 0.552-0.552s-0.247-0.552-0.552-0.552z"></path>
<path d="M19.081 20.471c0.794-0.976 1.231-2.195 1.236-3.454 0-3.073-2.491-5.565-5.565-5.565s-5.565 2.491-5.565 5.565c0 3.074 2.491 5.564 5.564 5.564 1.258-0.006 2.477-0.442 3.454-1.236l3.528 3.529c0.238 0.246 0.63 0.252 0.875 0.014s0.252-0.63 0.014-0.875c-0.004-0.004-0.009-0.009-0.014-0.014l-3.528-3.528zM14.753 21.345c-2.391 0-4.328-1.938-4.328-4.328s1.938-4.328 4.328-4.328 4.328 1.938 4.328 4.328c-0.003 2.389-1.938 4.325-4.328 4.328z"></path>
<path d="M22.179 25.125c-0.004 0-0.008 0-0.011 0-0.182-0.003-0.352-0.077-0.479-0.207l-3.488-3.488c-0.976 0.779-2.199 1.209-3.449 1.215-3.103 0-5.628-2.524-5.628-5.628s2.524-5.628 5.627-5.628 5.627 2.524 5.627 5.628c-0.006 1.25-0.436 2.472-1.215 3.449l3.489 3.488c0.004 0.004 0.009 0.009 0.014 0.015 0.261 0.27 0.254 0.703-0.016 0.964-0.127 0.124-0.294 0.192-0.473 0.192zM18.211 21.261l3.568 3.569c0.104 0.107 0.243 0.168 0.391 0.17 0.148 0 0.289-0.053 0.396-0.157 0.22-0.213 0.226-0.566 0.013-0.787l-3.582-3.581 0.036-0.044c0.783-0.962 1.217-2.175 1.223-3.414 0-3.034-2.468-5.501-5.501-5.501s-5.501 2.468-5.501 5.502c0 3.034 2.468 5.502 5.501 5.502 1.24-0.006 2.452-0.44 3.414-1.223l0.044-0.036zM14.753 21.408c-2.421 0-4.39-1.97-4.39-4.39s1.97-4.391 4.39-4.391c2.421 0 4.39 1.97 4.39 4.391-0.003 2.418-1.972 4.388-4.39 4.39zM14.753 12.752c-2.352 0-4.265 1.913-4.265 4.265s1.913 4.265 4.265 4.265c2.349-0.003 4.262-1.916 4.265-4.265 0.001-2.352-1.913-4.265-4.265-4.265z"></path>
</svg>
