<!-- Generated by IcoMoon.io -->
<svg version="1.1" xmlns="http://www.w3.org/2000/svg" width="32" height="32" viewBox="0 0 32 32">
<path d="M29 29h-2.167c-1.063-0.026-1.586-2.128 0-2.167h1.083c0-1.034 0.188-2.165-0.169-3.009-0.538-1.272-2.44-1.728-3.492-0.726-0.211 0.204-0.38 0.448-0.495 0.718s-0.176 0.56-0.177 0.854v3.247c-0.026 1.074-2.128 1.586-2.167 0v-1.806l-6.283-8.378c-0.288-0.407-0.23-0.541-0.213-0.742 0.046-0.534 0.439-0.957 1.051-0.991h0.061c0.328 0.019 0.628 0.173 0.834 0.433l4.92 6.559c0.276-0.613 0.683-1.157 1.192-1.595-1.102-0.975-1.766-2.475-1.494-3.996 0.351-1.961 2.213-3.529 4.21-3.567h0.112c2.448 0.046 4.585 2.441 4.235 4.937-0.144 1.031-0.707 1.971-1.496 2.65 0.92 0.8 1.53 1.966 1.538 3.242v3.254c0.004 0.121-0.016 0.241-0.059 0.354-0.148 0.426-0.498 0.716-1.024 0.729zM5.169 20.333c-1.45 0.023-3.144 0.248-3.249-0.992-0.049-0.579 0.431-1.148 1.049-1.174 0.371-0.005 0.743-0.008 1.114-0.008v-12.992h-1.083c-0.97-0.045-1.041-0.575-1.079-0.984-0.055-0.595 0.462-1.154 1.079-1.183l23.933 0.005c0.849 0.118 1.285 1.282 0.63 1.879-0.189 0.172-0.319 0.264-0.73 0.283h-1.083v5.416c-0.012 0.292-0.053 0.372-0.131 0.516-0.309 0.571-1.184 0.744-1.686 0.281-0.217-0.209-0.343-0.496-0.35-0.797v-5.416h-17.333v13h5.416c0.009 0.001 0.751 0.097 0.993 0.648 0.263 0.601-0.162 1.395-0.814 1.504-0.079 0.013-0.099 0.011-0.179 0.014h-6.497zM25.722 16c-1.436 0.028-2.59 1.726-1.926 3.105 0.585 1.213 2.434 1.596 3.448 0.63 0.676-0.645 0.862-1.746 0.424-2.577-0.184-0.355-0.464-0.652-0.808-0.856s-0.738-0.309-1.138-0.302z"></path>
<path d="M14.916 12.75c0.598 0 1.083-0.485 1.083-1.083s-0.485-1.083-1.083-1.083c-0.598 0-1.083 0.485-1.083 1.083s0.485 1.083 1.083 1.083z"></path>
<path d="M19.25 12.75c0.598 0 1.083-0.485 1.083-1.083s-0.485-1.083-1.083-1.083c-0.598 0-1.083 0.485-1.083 1.083s0.485 1.083 1.083 1.083z"></path>
<path d="M10.583 12.75c0.598 0 1.083-0.485 1.083-1.083s-0.485-1.083-1.083-1.083c-0.598 0-1.083 0.485-1.083 1.083s0.485 1.083 1.083 1.083z"></path>
</svg>
