<!-- Generated by IcoMoon.io -->
<svg version="1.1" xmlns="http://www.w3.org/2000/svg" width="37" height="32" viewBox="0 0 37 32">
<path d="M23.163 17.287c0.206-0.11 0.364-0.269 0.474-0.474s0.165-0.446 0.165-0.719-0.055-0.512-0.165-0.713c-0.11-0.206-0.269-0.364-0.474-0.474s-0.446-0.165-0.719-0.165h-0.525v2.712h0.525c0.274 0 0.514-0.056 0.719-0.165z"></path>
<path d="M15.726 14.878c-0.206-0.118-0.438-0.177-0.697-0.177s-0.493 0.059-0.702 0.177c-0.206 0.118-0.37 0.284-0.491 0.497-0.118 0.209-0.177 0.449-0.177 0.719s0.059 0.512 0.177 0.725c0.121 0.209 0.288 0.375 0.497 0.497 0.209 0.118 0.441 0.177 0.697 0.177s0.487-0.059 0.697-0.177c0.209-0.121 0.373-0.288 0.491-0.497 0.121-0.213 0.183-0.455 0.183-0.725s-0.061-0.51-0.183-0.719c-0.118-0.213-0.282-0.379-0.491-0.497z"></path>
<path d="M37.444 19.44c-0.010-0.582-0.241-1.14-0.648-1.557s-0.958-0.663-1.54-0.686c-0.018-0.001-0.035-0.001-0.053-0.001h-7.463c0.043-0.36 0.067-0.726 0.067-1.098 0-0.438-0.031-0.869-0.092-1.291h7.199c0.315 0 0.626 0 0.932-0.091 0.464-0.146 0.869-0.435 1.157-0.828s0.443-0.866 0.442-1.351v-8.626c0-0.185 0.001-0.37 0.002-0.555 0.001-0.37 0.004-0.74-0.002-1.11-0.010-0.582-0.241-1.14-0.648-1.557s-0.958-0.662-1.54-0.686c-0.018-0.001-0.035-0.001-0.053-0.001h-13.197c-0.849 0.004-1.69 0.456-2.055 1.247-0.265 0.571-0.252 1.219-0.241 1.847 0.002 0.129 0.005 0.256 0.005 0.382v3.599c-0.323-0.035-0.653-0.053-0.986-0.053s-0.676 0.019-1.007 0.056v-2.923c0-0.21 0-0.419 0.001-0.629 0.001-0.42 0.001-0.841-0.001-1.264-0.008-1.007-0.679-1.947-1.678-2.191-0.28-0.070-0.555-0.070-0.833-0.070-0.015 0-0.029 0-0.045 0h-12.829c-0.724 0-1.408 0.278-1.859 0.862-0.352 0.455-0.481 0.981-0.481 1.545v9.927c0 0.451 0.058 0.882 0.269 1.297 0.389 0.754 1.205 1.168 2.030 1.172h7.448c-0.061 0.423-0.092 0.855-0.092 1.295 0 0.372 0.023 0.738 0.067 1.098h-7.382c-0.725 0-1.408 0.277-1.86 0.862-0.352 0.456-0.481 0.982-0.481 1.545v9.926c0 0.451 0.058 0.882 0.269 1.297 0.389 0.754 1.205 1.168 2.030 1.172h13.175s0.015 0 0.015 0h0.004c0.018 0 0.034 0 0.052-0.001 0.581-0.023 1.131-0.268 1.537-0.685s0.636-0.973 0.644-1.554c0.003-0.11 0.002-0.223 0.001-0.335 0-0.056-0.001-0.111-0.001-0.166v-4.137c0.331 0.037 0.667 0.056 1.007 0.056s0.661-0.018 0.986-0.053v4.495c0 0.617 0.174 1.18 0.579 1.653 0.287 0.322 0.666 0.549 1.085 0.649v0c0.225 0.057 0.456 0.085 0.688 0.084h12.845c0.315 0 0.626 0 0.932-0.091 0.464-0.146 0.869-0.435 1.157-0.828s0.443-0.866 0.442-1.351v-8.626c0-0.185 0.001-0.37 0.001-0.555 0.002-0.37 0.004-0.74-0.001-1.11zM35.763 19.249s-0.012-0.023-0.021-0.049l-0.002-0.007c0.017 0.029 0.029 0.052 0.023 0.056zM35.626 19.017c0.008 0.009 0.015 0.019 0.021 0.029v0c-0.015-0.015-0.026-0.029-0.021-0.029zM35.618 19.009v0c0 0.007-0.015-0.007-0.032-0.024 0.012 0.007 0.023 0.015 0.033 0.024zM35.387 18.872s0.001 0 0.001 0c0.019 0.006 0.037 0.015 0.054 0.026-0.027-0.009-0.057-0.020-0.056-0.025 0 0 0 0 0 0zM21.034 18.225v-4.253h1.387c0.453 0 0.85 0.091 1.193 0.274 0.342 0.179 0.607 0.43 0.794 0.754 0.187 0.32 0.279 0.685 0.279 1.096s-0.094 0.779-0.279 1.102c-0.187 0.32-0.453 0.571-0.799 0.754-0.342 0.183-0.738 0.274-1.188 0.274h-1.387zM35.539 13.055s0 0 0 0v0s0 0 0 0c-0.002-0.001 0.012-0.012 0.029-0.023-0.015 0.014-0.026 0.024-0.029 0.023zM35.763 2.056s-0.012-0.023-0.021-0.049l-0.002-0.007c0.017 0.029 0.029 0.052 0.023 0.056zM35.626 1.824c0.008 0.009 0.015 0.019 0.021 0.029-0.015-0.015-0.026-0.029-0.021-0.029zM35.618 1.816v0c0 0.006-0.015-0.008-0.032-0.024 0.012 0.007 0.023 0.015 0.032 0.024zM35.388 1.678c0.019 0.006 0.037 0.015 0.054 0.026-0.028-0.010-0.059-0.021-0.056-0.025 0 0 0.001 0 0.001 0zM21.87 1.678c-0.009 0.003-0.019 0.004-0.029 0.004v0s0.012-0.004 0.029-0.004zM21.726 1.724s0.002-0.002 0.004-0.003c0.012-0.008 0.026-0.015 0.040-0.021-0.009 0.008-0.019 0.015-0.030 0.019-0.007 0.004-0.013 0.007-0.020 0.010 0.002-0.001 0.004-0.003 0.006-0.004zM21.489 1.905c-0.009 0.012-0.015 0.021-0.016 0.019 0.004-0.007 0.010-0.014 0.016-0.019zM21.381 2.183s0-0.006 0-0.009c0.005-0.022 0.011-0.043 0.017-0.065 0.007-0.027 0.015-0.055 0.021-0.082l0.002-0.008c0.011-0.018 0.022-0.035 0.033-0.052 0.016-0.026 0.033-0.051 0.048-0.076 0.012-0.012 0.023-0.023 0.025-0.026 0.012-0.009 0.022-0.019 0.032-0.029-0.007 0.001-0.005-0.010 0.024-0.029 0 0.001-0.001 0.003-0.001 0.004l0.006-0.007h0.001c0.012-0.007 0.024-0.014 0.036-0.021s0.023-0.015 0.034-0.020c0.018-0.009 0.035-0.018 0.051-0.028 0.024-0.006 0.053-0.018 0.079-0.029 0.018-0.007 0.035-0.015 0.048-0.018s0.025-0.007 0.037-0.009c0.029-0.001 0.069 0 0.082 0 0.003 0 0.004 0 0.005 0h13.247c0.031 0 0.063-0.002 0.094-0.006 0.006 0.001 0.012 0.002 0.017 0.003 0.021 0.004 0.042 0.007 0.059 0.011 0.025 0.010 0.050 0.018 0.077 0.025 0.020 0.012 0.040 0.024 0.058 0.035 0.019 0.012 0.034 0.021 0.039 0.023 0.001 0 0.004 0.002 0.007 0.004 0.032 0.039 0.068 0.075 0.107 0.107 0.002 0.003 0.004 0.007 0.007 0.009 0.002 0.004 0.010 0.017 0.020 0.033 0.011 0.018 0.024 0.039 0.037 0.059v0.003c0.004 0.012 0.009 0.026 0.012 0.039s0.009 0.028 0.012 0.040c0.004 0.018 0.007 0.037 0.010 0.058 0.004 0.029 0.009 0.060 0.018 0.086 0 0.010 0.001 0.020 0.001 0.030v10.359c0 0.005-0.001 0.015-0.003 0.026-0.002 0.015-0.005 0.034-0.004 0.048-0.008 0.032-0.016 0.064-0.026 0.097-0.003 0.011-0.007 0.022-0.012 0.032-0.015 0.023-0.028 0.049-0.042 0.074-0.010 0.020-0.021 0.040-0.032 0.059l-0.009 0.008c-0.005 0.003-0.023 0.021-0.042 0.042-0.012 0.013-0.026 0.027-0.038 0.040-0.014 0.009-0.027 0.020-0.040 0.030-0.010 0.007-0.040 0.024-0.069 0.040l-0.003 0.001c-0.010 0.004-0.025 0.009-0.039 0.015-0.026 0.009-0.054 0.020-0.067 0.023-0.007 0.002-0.020 0.005-0.036 0.009-0.005-0.001-0.027 0.001-0.051 0.004s-0.049 0.004-0.061 0.004c-0.102 0.003-0.206 0.002-0.31 0.001-0.051 0-0.103-0.001-0.154-0.001h-7.427c-0.94-2.739-3.154-4.886-5.935-5.734v-5.223s0-0.007 0-0.010zM15.972 1.899s-0.012-0.011-0.023-0.029c0.015 0.015 0.024 0.026 0.023 0.029zM2.052 1.673s0.001 0 0.002 0c0.001 0.004-0.025 0.013-0.051 0.022 0.015-0.010 0.031-0.018 0.049-0.023zM1.855 1.786c-0.018 0.018-0.036 0.034-0.036 0.028 0-0.004 0.017-0.016 0.036-0.028zM1.81 1.823c0.006 0-0.008 0.015-0.024 0.032 0.007-0.012 0.015-0.023 0.024-0.032zM1.673 12.743v0c0.010 0.015 0.017 0.031 0.020 0.048v0.003c-0.014-0.026-0.024-0.048-0.021-0.051zM1.815 12.979c-0.004 0-0.016-0.017-0.028-0.037 0.018 0.019 0.034 0.037 0.028 0.037zM1.823 12.987s0-0.001 0-0.001c0 0 0 0 0.001 0 0.012 0.007 0.023 0.015 0.031 0.026-0.012-0.007-0.023-0.015-0.033-0.024zM2.237 13.145c-0.012 0-0.023 0-0.036-0.002-0.024-0.007-0.052-0.012-0.079-0.016-0.021-0.004-0.042-0.007-0.059-0.011-0.007-0.002-0.014-0.005-0.021-0.007-0.012-0.004-0.024-0.009-0.036-0.012-0.024-0.015-0.050-0.028-0.076-0.042-0.014-0.007-0.028-0.015-0.041-0.022 0 0-0.002-0.001-0.004-0.002s-0.002-0.001-0.004-0.002c-0.033-0.040-0.069-0.077-0.11-0.11-0.003-0.004-0.005-0.009-0.007-0.012-0.005-0.009-0.010-0.015-0.012-0.019-0.004-0.007-0.026-0.040-0.045-0.074v0c-0.004-0.014-0.009-0.027-0.012-0.041s-0.008-0.026-0.012-0.039c-0.004-0.018-0.007-0.037-0.010-0.059-0.004-0.029-0.009-0.060-0.018-0.086 0-0.009-0.001-0.020-0.001-0.029v-10.323c0-0.012 0-0.023 0.001-0.035 0.007-0.025 0.012-0.053 0.016-0.080 0.004-0.021 0.007-0.042 0.011-0.059 0.002-0.007 0.005-0.015 0.008-0.023 0.004-0.012 0.009-0.023 0.012-0.034 0.015-0.024 0.028-0.050 0.042-0.075 0.007-0.014 0.015-0.028 0.022-0.042 0 0 0 0 0-0.001s0.002-0.004 0.004-0.006c0.040-0.033 0.077-0.070 0.11-0.11 0.005-0.003 0.010-0.006 0.014-0.008 0.008-0.005 0.015-0.009 0.018-0.011 0.007-0.004 0.040-0.026 0.074-0.045h0.001c0.012-0.004 0.026-0.008 0.039-0.012s0.027-0.008 0.039-0.012c0.018-0.004 0.037-0.007 0.058-0.010 0.029-0.004 0.058-0.008 0.083-0.017 0.036-0.001 0.069-0.002 0.033-0.002h11.685c0.174 0 0.348-0.001 0.522-0.002 0.348-0.002 0.697-0.004 1.049 0.002h0.029c0.005 0 0.015 0.001 0.026 0.003 0.015 0.002 0.034 0.005 0.048 0.004 0.032 0.008 0.064 0.016 0.097 0.026 0.009 0.002 0.018 0.006 0.026 0.010-0.002-0.001-0.004-0.002-0.007-0.004-0.031-0.017-0.050-0.034 0.009 0.002l0.015 0.009c0.018 0.011 0.037 0.022 0.056 0.032 0.021 0.012 0.042 0.023 0.062 0.036 0.002 0.003 0.005 0.006 0.009 0.010 0.003 0.005 0.021 0.022 0.042 0.042 0.013 0.012 0.027 0.026 0.039 0.037 0.007 0.010 0.013 0.020 0.021 0.030 0.008 0.012 0.017 0.024 0.023 0.036 0.006 0.009 0.020 0.035 0.033 0.060l0.002 0.004c0.003 0.007 0.006 0.015 0.008 0.023 0.009 0.026 0.020 0.054 0.023 0.066 0.002 0.007 0.005 0.020 0.009 0.037 0 0.005 0.001 0.028 0.004 0.052 0.002 0.023 0.004 0.046 0.004 0.057v5.195c-2.774 0.85-4.981 2.993-5.921 5.726h-7.909zM16.987 17.213c-0.194 0.335-0.465 0.599-0.811 0.794-0.342 0.19-0.725 0.285-1.147 0.285s-0.807-0.095-1.153-0.285c-0.342-0.194-0.613-0.459-0.811-0.794-0.194-0.335-0.291-0.708-0.291-1.119s0.097-0.784 0.291-1.119c0.198-0.335 0.468-0.598 0.811-0.788 0.346-0.19 0.731-0.285 1.153-0.285s0.805 0.095 1.147 0.285c0.346 0.19 0.617 0.453 0.811 0.788 0.198 0.335 0.297 0.708 0.297 1.119s-0.099 0.784-0.297 1.119zM2.052 18.867s0.001 0 0.002 0c0.002 0.004-0.025 0.013-0.050 0.022 0.015-0.009 0.031-0.018 0.048-0.022zM1.818 19.008c0-0.004 0.017-0.016 0.036-0.028-0.018 0.018-0.034 0.033-0.036 0.028 0 0 0 0 0 0v0s0 0 0 0zM1.809 19.016c0.006 0-0.007 0.015-0.023 0.031 0.007-0.012 0.015-0.022 0.023-0.031zM1.673 29.937v0c0.010 0.015 0.017 0.031 0.020 0.048v0.003c-0.014-0.026-0.024-0.048-0.021-0.051zM1.815 30.173c-0.004 0-0.016-0.017-0.028-0.037 0.018 0.019 0.034 0.037 0.028 0.037zM1.823 30.181s0-0.001 0.001-0.001c0.012 0.007 0.023 0.015 0.031 0.026-0.012-0.007-0.023-0.015-0.032-0.024zM15.877 30.185c0.008-0.009 0.018-0.017 0.028-0.023 0.001 0 0.001 0 0.001 0.001-0.009 0.008-0.018 0.015-0.029 0.021zM15.914 30.156c-0.006 0 0.008-0.015 0.024-0.033-0.007 0.012-0.015 0.023-0.024 0.033zM16.068 29.252v0.52c0 0.005-0.001 0.015-0.003 0.026-0.002 0.015-0.005 0.034-0.004 0.047-0.008 0.032-0.016 0.064-0.026 0.097-0.004 0.013-0.009 0.026-0.015 0.039-0.013 0.022-0.026 0.046-0.037 0.070-0.007 0.014-0.015 0.028-0.022 0.042-0.001 0.001-0.002 0.004-0.004 0.007-0.039 0.032-0.075 0.067-0.107 0.106-0.003 0.002-0.007 0.004-0.009 0.007-0.021 0.013-0.043 0.025-0.066 0.036-0.018 0.009-0.035 0.018-0.051 0.027-0.010 0.004-0.021 0.009-0.033 0.012-0.027 0.008-0.053 0.015-0.081 0.020s-0.054 0.012-0.081 0.020c-0.053 0.014-0.022 0.007 0.015 0l0.008-0.001c0.018-0.004 0.037-0.008 0.055-0.010-0.004 0.024-0.121 0.025-0.121 0.025h-13.248c-0.012 0-0.023 0-0.037-0.003-0.024-0.007-0.052-0.012-0.079-0.016-0.021-0.004-0.042-0.007-0.059-0.011-0.007-0.002-0.014-0.005-0.021-0.007-0.012-0.004-0.024-0.009-0.036-0.012-0.024-0.015-0.050-0.029-0.076-0.042-0.014-0.007-0.028-0.015-0.041-0.021 0 0-0.002-0.001-0.004-0.002s-0.002-0.001-0.004-0.002c-0.033-0.040-0.069-0.077-0.11-0.11-0.003-0.005-0.007-0.010-0.009-0.015-0.004-0.007-0.008-0.013-0.010-0.016-0.004-0.006-0.026-0.040-0.045-0.074v0c-0.004-0.014-0.009-0.028-0.013-0.042s-0.008-0.026-0.012-0.038c-0.004-0.018-0.007-0.037-0.010-0.059-0.004-0.029-0.009-0.060-0.018-0.086 0-0.009-0.001-0.020-0.001-0.029v-10.324c0-0.012 0-0.023 0.001-0.035 0.007-0.025 0.012-0.053 0.016-0.080 0.004-0.021 0.007-0.042 0.011-0.059 0.002-0.007 0.005-0.015 0.008-0.022 0.004-0.012 0.009-0.023 0.012-0.035 0.015-0.024 0.028-0.050 0.042-0.075 0.007-0.014 0.015-0.028 0.022-0.042 0 0 0.001-0.001 0.002-0.003 0-0.001 0.001-0.003 0.002-0.004 0.040-0.033 0.077-0.070 0.11-0.11 0.004-0.003 0.009-0.005 0.012-0.007 0.009-0.005 0.015-0.009 0.019-0.012 0.007-0.004 0.040-0.026 0.074-0.045h0.001c0.012-0.004 0.026-0.008 0.039-0.012s0.027-0.008 0.039-0.012c0.018-0.004 0.037-0.007 0.059-0.010 0.028-0.004 0.057-0.008 0.083-0.017 0.036-0.001 0.069-0.002 0.033-0.002h7.843c0.899 2.829 3.146 5.058 5.988 5.929v4.477zM17.912 18.223v-4.253h0.885v3.483h1.798v0.77h-2.683zM21.424 29.994v0c-0.009-0.012-0.016-0.026-0.021-0.041 0.012 0.015 0.021 0.032 0.029 0.050-0.002-0.004-0.005-0.007-0.007-0.009zM21.626 30.252c-0.007-0.005-0.014-0.011-0.020-0.017 0.012 0.009 0.022 0.015 0.020 0.016v0zM35.54 30.248s0 0 0 0v0s0-0.001 0 0c0-0.002 0.012-0.012 0.028-0.023-0.015 0.014-0.026 0.023-0.028 0.023zM35.785 29.372v0.42c0 0.005-0.001 0.015-0.003 0.026-0.002 0.016-0.005 0.034-0.004 0.048-0.008 0.032-0.016 0.064-0.026 0.097-0.002 0.007-0.004 0.014-0.007 0.020-0.001 0.004-0.004 0.008-0.005 0.012-0.015 0.023-0.029 0.049-0.042 0.074-0.010 0.020-0.021 0.040-0.032 0.059l-0.009 0.008c-0.005 0.003-0.023 0.021-0.042 0.042-0.012 0.013-0.026 0.027-0.038 0.040-0.014 0.009-0.027 0.020-0.040 0.030-0.010 0.007-0.039 0.023-0.067 0.039l-0.004 0.003c-0.011 0.004-0.026 0.009-0.041 0.015-0.026 0.009-0.053 0.020-0.065 0.023-0.007 0.001-0.020 0.005-0.036 0.009-0.005-0.001-0.028 0.001-0.052 0.004s-0.048 0.004-0.061 0.004c-0.102 0.003-0.206 0.001-0.31 0.001-0.051 0-0.103-0.001-0.154-0.001h-12.849s-0.007 0.001-0.009 0.001c-0.003 0-0.006 0-0.009 0-0.022-0.005-0.044-0.011-0.066-0.017-0.027-0.007-0.054-0.015-0.081-0.021l-0.008-0.002c-0.018-0.011-0.034-0.022-0.052-0.033-0.026-0.016-0.051-0.033-0.077-0.048-0.012-0.012-0.023-0.023-0.025-0.025-0.009-0.012-0.019-0.022-0.029-0.033 0.001 0.007-0.010 0.005-0.029-0.024l0.004 0.002-0.007-0.006c-0.006-0.013-0.014-0.025-0.021-0.037s-0.015-0.022-0.020-0.034c-0.009-0.018-0.018-0.035-0.028-0.051-0.006-0.024-0.018-0.053-0.029-0.079-0.007-0.018-0.015-0.035-0.018-0.048 0-0.002-0.001-0.004-0.001-0.006v-0.003c0.001-0.039 0-0.078-0.007-0.116v-4.984c2.84-0.866 5.087-3.085 5.993-5.908h7.835c0.031 0 0.063-0.002 0.094-0.006 0.006 0.001 0.012 0.002 0.017 0.003 0.021 0.004 0.042 0.007 0.059 0.011 0.025 0.010 0.050 0.018 0.077 0.025 0.020 0.012 0.040 0.025 0.058 0.035 0.019 0.012 0.034 0.021 0.039 0.023h0.001s0.004 0.003 0.007 0.004c0.032 0.039 0.067 0.075 0.106 0.107 0.002 0.003 0.004 0.007 0.007 0.009 0.002 0.004 0.010 0.017 0.020 0.034s0.025 0.039 0.037 0.059v0.003c0.004 0.012 0.009 0.026 0.012 0.039s0.008 0.028 0.012 0.040c0.004 0.018 0.007 0.037 0.010 0.058 0.004 0.029 0.009 0.061 0.018 0.086 0 0.010 0.001 0.020 0.001 0.030v9.941z"></path>
<path d="M15.734 1.703c-0.004-0.001-0.008-0.003-0.012-0.005 0.001 0 0.002 0.001 0.003 0.001 0.003 0.001 0.006 0.003 0.009 0.004z"></path>
<path d="M21.582 1.81v0c-0.007 0.008-0.015 0.017-0.023 0.025 0.005 0 0.015-0.008 0.023-0.025z"></path>
<path d="M21.514 30.144c0.008 0.007 0.017 0.015 0.025 0.023-0.001-0.005-0.008-0.015-0.025-0.023z"></path>
</svg>
