<svg width="16" height="16" fill="none" xmlns="http://www.w3.org/2000/svg"><path d="M7.68.626c-.453.091-.88.399-1.239.894-.071.098-.417.758-.792 1.511-.564 1.134-.683 1.354-.777 1.441a.844.844 0 0 1-.192.135c-.044.018-.584.116-1.2.218-1.445.241-1.587.278-2.027.533-.233.135-.567.482-.671.698a1.805 1.805 0 0 0 .022 1.605c.187.373.324.533 1.305 1.527 1.053 1.067 1.064 1.081 1.064 1.362 0 .063-.106.58-.237 1.149-.313 1.367-.333 1.491-.316 1.978.016.448.079.693.253.986.193.327.581.611.954.699.244.058.687.04.986-.04.379-.102.72-.277 1.84-.95a38.228 38.228 0 0 1 1.094-.641.703.703 0 0 1 .476-.014c.049.02.537.305 1.086.633s1.124.659 1.279.736c.644.321 1.22.398 1.727.231.4-.132.682-.38.874-.77.166-.336.208-.576.191-1.107-.014-.449-.01-.426-.379-2.025-.096-.417-.174-.808-.174-.868 0-.269.013-.285 1.062-1.352 1.16-1.178 1.3-1.364 1.461-1.928.056-.198.063-.636.013-.84-.13-.532-.529-.964-1.141-1.235-.257-.114-.502-.167-1.702-.366-.616-.103-1.162-.205-1.214-.228-.225-.098-.267-.166-.935-1.517-.348-.705-.696-1.377-.772-1.494-.346-.528-.804-.868-1.301-.963a1.416 1.416 0 0 0-.618.002m.538 1.612c.142.147.206.263.855 1.564.694 1.394.702 1.408.899 1.618.182.194.45.401.656.507.196.101.47.162 1.534.34 1.428.239 1.513.26 1.685.421.092.087.093.168.002.353-.056.114-.251.327-.888.972-1.214 1.23-1.229 1.246-1.372 1.537-.18.366-.236.605-.237 1.01-.002.329.002.349.255 1.44.141.609.271 1.19.289 1.291.03.177.021.485-.017.582-.036.093-.33.037-.652-.126a47.331 47.331 0 0 1-1.249-.729c-.782-.466-1.131-.66-1.28-.709a2.389 2.389 0 0 0-.938-.094c-.425.044-.595.119-1.519.673-1.317.789-1.5.892-1.715.964-.354.119-.406.096-.436-.191-.023-.217.01-.395.303-1.654l.259-1.114-.003-.346c-.002-.292-.013-.384-.073-.582a2.54 2.54 0 0 0-.318-.685c-.045-.066-.521-.564-1.058-1.107-.772-.779-.992-1.017-1.049-1.132-.091-.185-.09-.266.002-.353.172-.16.249-.18 1.687-.421.623-.105 1.205-.215 1.293-.245.277-.093.568-.283.831-.543l.243-.241.703-1.412c.66-1.326.713-1.422.864-1.579.207-.214.243-.215.444-.009" fill-rule="evenodd" fill="#000"/></svg>