<!-- Generated by IcoMoon.io -->
<svg version="1.1" xmlns="http://www.w3.org/2000/svg" width="26" height="32" viewBox="0 0 26 32">
<path d="M12.419 0.747c0.39-0.389 1.022-0.389 1.412 0l5.833 5.818c0.391 0.39 0.392 1.023 0.002 1.414s-1.023 0.392-1.414 0.002l-4.127-4.116v16.499c0 0.552-0.448 1-1 1s-1-0.448-1-1v-16.499l-4.127 4.116c-0.391 0.39-1.024 0.389-1.414-0.002s-0.389-1.024 0.002-1.414l5.833-5.818zM1.458 15c0.552 0 1 0.448 1 1v11.636c0 0.506 0.201 0.991 0.56 1.349s0.847 0.56 1.356 0.56h17.5c0.509 0 0.997-0.202 1.356-0.56s0.56-0.843 0.56-1.349v-11.636c0-0.552 0.448-1 1-1s1 0.448 1 1v11.636c0 1.038-0.413 2.032-1.148 2.765s-1.731 1.144-2.769 1.144h-17.5c-1.038 0-2.034-0.411-2.769-1.144s-1.148-1.727-1.148-2.765v-11.636c0-0.552 0.448-1 1-1z"></path>
</svg>
