<!-- Generated by IcoMoon.io -->
<svg version="1.1" xmlns="http://www.w3.org/2000/svg" width="32" height="32" viewBox="0 0 32 32">
<path d="M5.5 20.212c0.432 0.006 0.811 0.289 0.94 0.702l0.695 2.224h2.465c0.435 0 0.82 0.281 0.952 0.695s-0.017 0.866-0.371 1.119l-1.959 1.399 0.772 2.317c0.137 0.411-0.006 0.863-0.355 1.12s-0.823 0.261-1.175 0.009l-1.979-1.413-1.979 1.413c-0.352 0.252-0.827 0.248-1.175-0.009s-0.492-0.71-0.355-1.12l0.772-2.317-1.959-1.399c-0.354-0.253-0.504-0.705-0.371-1.119s0.518-0.695 0.952-0.695h2.395l0.774-2.251c0.141-0.409 0.528-0.681 0.96-0.675zM5.44 24.419l-0.015 0.043c-0.138 0.4-0.512 0.67-0.934 0.675l0.021 0.015c0.357 0.255 0.506 0.713 0.367 1.13l-0.033 0.1 0.058-0.041c0.348-0.248 0.815-0.248 1.162 0l0.058 0.041-0.033-0.1c-0.139-0.416 0.010-0.875 0.367-1.13l0.021-0.015h-0.080c-0.437 0-0.824-0.284-0.954-0.702l-0.005-0.016z"></path>
<path d="M16 20.211c0.427 0 0.807 0.271 0.946 0.675l0.774 2.251h2.395c0.435 0 0.82 0.281 0.952 0.695s-0.017 0.866-0.371 1.119l-1.959 1.399 0.772 2.317c0.137 0.411-0.006 0.863-0.355 1.12s-0.823 0.261-1.175 0.009l-1.979-1.413-1.979 1.413c-0.352 0.252-0.827 0.248-1.175-0.009s-0.492-0.71-0.355-1.12l0.772-2.317-1.959-1.399c-0.354-0.253-0.504-0.705-0.371-1.119s0.518-0.695 0.952-0.695h2.395l0.774-2.251c0.139-0.404 0.519-0.675 0.946-0.675zM16 24.288l-0.060 0.175c-0.138 0.4-0.512 0.67-0.934 0.675l0.021 0.015c0.357 0.255 0.506 0.713 0.367 1.13l-0.033 0.1 0.058-0.041c0.348-0.248 0.815-0.248 1.162 0l0.058 0.041-0.033-0.1c-0.139-0.416 0.010-0.875 0.367-1.13l0.021-0.015c-0.422-0.005-0.796-0.275-0.934-0.675l-0.060-0.175z"></path>
<path d="M26.5 20.212c0.432-0.006 0.819 0.266 0.96 0.675l0.774 2.251h2.395c0.435 0 0.82 0.281 0.952 0.695s-0.017 0.866-0.371 1.119l-1.959 1.399 0.772 2.317c0.137 0.411-0.006 0.863-0.355 1.12s-0.823 0.261-1.175 0.009l-1.979-1.413-1.979 1.413c-0.352 0.252-0.827 0.248-1.175-0.009s-0.492-0.71-0.355-1.12l0.772-2.317-1.959-1.399c-0.354-0.253-0.504-0.705-0.371-1.119s0.518-0.695 0.952-0.695h2.465l0.695-2.224c0.129-0.413 0.508-0.696 0.941-0.702zM26.559 24.419l-0.005 0.016c-0.131 0.417-0.517 0.702-0.954 0.702h-0.079l0.021 0.015c0.357 0.255 0.506 0.713 0.367 1.13l-0.033 0.1 0.058-0.041c0.348-0.248 0.815-0.248 1.163 0l0.058 0.041-0.033-0.1c-0.139-0.416 0.010-0.875 0.367-1.13l0.021-0.015c-0.422-0.005-0.796-0.275-0.934-0.675l-0.015-0.043z"></path>
<path d="M16 2.017c0.434 0 0.818 0.28 0.952 0.693l1.696 5.25h5.489c0.433 0 0.817 0.279 0.951 0.691s-0.013 0.863-0.363 1.118l-4.439 3.229 1.693 5.159c0.135 0.412-0.011 0.865-0.361 1.12s-0.826 0.256-1.177 0l-4.44-3.229-4.44 3.229c-0.351 0.255-0.826 0.255-1.177-0s-0.497-0.708-0.361-1.12l1.693-5.159-4.439-3.229c-0.35-0.255-0.497-0.706-0.363-1.118s0.518-0.691 0.951-0.691h5.489l1.696-5.25c0.133-0.413 0.518-0.693 0.952-0.693zM16 6.27l-0.968 2.998c-0.133 0.413-0.518 0.693-0.952 0.693h-3.142l2.542 1.848c0.351 0.255 0.497 0.708 0.362 1.12l-0.955 2.91 2.525-1.837c0.351-0.255 0.826-0.255 1.176 0l2.525 1.837-0.955-2.91c-0.135-0.412 0.011-0.865 0.362-1.12l2.542-1.848h-3.142c-0.434 0-0.818-0.28-0.952-0.693l-0.968-2.998z"></path>
</svg>
