<!-- Generated by IcoMoon.io -->
<svg version="1.1" xmlns="http://www.w3.org/2000/svg" width="32" height="32" viewBox="0 0 32 32">
<path d="M18.353 27.294c-0.584 0-1.129-0.358-1.336-0.941l-3.144-8.941h-8l-3.144 8.941c-0.264 0.734-1.073 1.129-1.807 0.866s-1.129-1.073-0.866-1.807l4.085-11.652c2.202-6.212 3.2-9.054 5.741-9.054s3.539 2.842 5.722 9.054l4.085 11.652c0.264 0.734-0.132 1.544-0.866 1.807-0.151 0.056-0.32 0.075-0.471 0.075zM6.871 14.588h6.024c-1.167-3.332-2.372-6.739-3.068-7.078-0.584 0.339-1.788 3.746-2.955 7.078z"></path>
<path d="M25.017 27.162c-0.395 0-0.809-0.038-1.224-0.113-2.296-0.395-3.915-2.221-4.028-4.537-0.113-2.334 1.336-4.311 3.614-4.951 0.791-0.226 1.562-0.245 2.202-0.245h2.654c0-0.452-0.038-0.809-0.094-1.092-0.188-0.998-1.468-1.656-2.616-1.807s-1.958 0.075-2.974 1.562c-0.433 0.64-1.318 0.809-1.958 0.358-0.64-0.433-0.809-1.318-0.358-1.958 1.525-2.202 3.256-3.068 5.647-2.786 2.165 0.264 4.574 1.619 5.045 4.066 0.151 0.772 0.169 1.656 0.094 3.068v6.306c0 0.772-0.64 1.412-1.412 1.412-0.452 0-0.866-0.226-1.129-0.546-1.054 0.753-2.108 1.167-3.162 1.205-0.094 0-0.207 0-0.301 0v0.056zM25.581 20.141c-0.489 0-0.998 0-1.449 0.151-1.205 0.339-1.6 1.299-1.562 2.089 0.038 0.772 0.508 1.675 1.694 1.882 0.32 0.056 0.621 0.075 0.922 0.056 0.546-0.019 1.148-0.301 1.788-0.791 0.847-0.64 1.205-1.242 1.205-1.976v-1.412h-2.598z"></path>
</svg>
