<!-- Generated by IcoMoon.io -->
<svg version="1.1" xmlns="http://www.w3.org/2000/svg" width="32" height="32" viewBox="0 0 32 32">
<path d="M14.667 6.667c0-0.374 0.133-0.686 0.398-0.936 0.265-0.265 0.577-0.398 0.936-0.398 0.374 0 0.686 0.133 0.936 0.398 0.265 0.25 0.398 0.561 0.398 0.936v18.667c0 0.359-0.133 0.671-0.398 0.936-0.25 0.265-0.561 0.398-0.936 0.398-0.359 0-0.671-0.133-0.936-0.398s-0.398-0.577-0.398-0.936v-18.667zM8 8c-0.359 0-0.671-0.133-0.936-0.398s-0.398-0.577-0.398-0.936c0-0.374 0.133-0.686 0.398-0.936 0.265-0.265 0.577-0.398 0.936-0.398h16c0.374 0 0.686 0.133 0.936 0.398 0.265 0.25 0.398 0.561 0.398 0.936 0 0.359-0.133 0.671-0.398 0.936-0.25 0.265-0.561 0.398-0.936 0.398h-16z"></path>
</svg>
