<!-- Generated by IcoMoon.io -->
<svg version="1.1" xmlns="http://www.w3.org/2000/svg" width="32" height="32" viewBox="0 0 32 32">
<path d="M20.292 9.43l0 0.002 0.001 0.003 2.384 7.399 3.933-0.008v-9.935h-24.516v17.139h11.514l0.255-0.781-6.292-4.562c-0.462-0.335-0.565-0.982-0.23-1.444 0.218-0.301 0.567-0.45 0.912-0.425l7.692 0.015 2.385-7.404c0.174-0.543 0.754-0.842 1.296-0.668 0.329 0.106 0.568 0.361 0.666 0.668zM28.677 16.823l1.768-0.003c0.569 0 1.029 0.462 1.029 1.032 0 0.344-0.168 0.648-0.425 0.835l0.002 0.002-6.292 4.562 2.414 7.396c0.176 0.543-0.12 1.126-0.662 1.302-0.353 0.115-0.724 0.029-0.988-0.196l-6.213-4.541-6.276 4.587c-0.459 0.335-1.103 0.234-1.437-0.227-0.202-0.277-0.245-0.622-0.147-0.925l-0.003-0.001 1.483-4.544h-12.906v-26.102h28.651v16.823zM26.61 4.821v-2.75h-24.516v2.75h24.516zM20.946 18.183l-1.635-5.076-1.635 5.076-0.001-0c-0.133 0.416-0.522 0.716-0.98 0.716l-5.326-0.010 4.314 3.128c0.353 0.256 0.518 0.72 0.376 1.157l-1.656 5.074 4.286-3.133c0.352-0.268 0.852-0.287 1.228-0.012l4.303 3.145-1.644-5.036c-0.156-0.424-0.020-0.917 0.363-1.195l4.314-3.128-5.277 0.010c-0.454 0.022-0.884-0.262-1.029-0.716z"></path>
</svg>
