<!-- Generated by IcoMoon.io -->
<svg version="1.1" xmlns="http://www.w3.org/2000/svg" width="32" height="32" viewBox="0 0 32 32">
<path d="M31.131 0.869c-0.556-0.556-1.309-0.868-2.094-0.869h-26.074c-0.786 0.001-1.539 0.313-2.094 0.869s-0.868 1.309-0.869 2.094v26.074c0.001 0.786 0.313 1.539 0.869 2.094s1.309 0.868 2.094 0.869h26.074c0.786-0.001 1.539-0.314 2.094-0.869s0.868-1.309 0.869-2.094v-26.074c-0.001-0.786-0.314-1.539-0.869-2.094zM30.815 24.946h-2.799v-13.821h2.799v13.821zM1.185 2.963c0-0.471 0.188-0.924 0.521-1.257s0.786-0.521 1.257-0.521h26.074c0.471 0 0.924 0.188 1.257 0.521s0.521 0.786 0.521 1.257v2.963h-29.629v-2.963zM1.185 11.125h2.799v13.821h-2.799v-13.821zM30.294 30.294c-0.333 0.333-0.786 0.521-1.257 0.521h-26.074c-0.471 0-0.924-0.188-1.257-0.521s-0.521-0.786-0.521-1.257v-2.966h3.299c0.345 0 0.625-0.28 0.625-0.625v-14.822c0-0.345-0.28-0.625-0.625-0.625h-3.299v-2.889h29.63v2.889h-3.299c-0.345 0-0.625 0.28-0.625 0.625v14.821c0 0.345 0.28 0.625 0.625 0.625h3.299v2.966c0 0.471-0.188 0.924-0.521 1.257z"></path>
<path d="M4.29 2.679c0.484 0.079 0.814 0.535 0.735 1.020s-0.535 0.814-1.020 0.735c-0.485-0.079-0.813-0.535-0.735-1.020s0.535-0.813 1.020-0.735z"></path>
<path d="M7.111 2.667c-0.491 0-0.889 0.398-0.889 0.889s0.398 0.889 0.889 0.889 0.889-0.398 0.889-0.889-0.398-0.889-0.889-0.889z"></path>
<path d="M10.963 3.556c0 0.491-0.398 0.889-0.889 0.889s-0.889-0.398-0.889-0.889c0-0.491 0.398-0.889 0.889-0.889s0.889 0.398 0.889 0.889z"></path>
<path d="M12.514 27.438h-0.498c-0.311 0-0.563 0.252-0.563 0.563s0.252 0.563 0.563 0.563h0.498c0.311 0 0.563-0.252 0.563-0.563s-0.252-0.563-0.563-0.563z"></path>
<path d="M19.486 27.438h-0.498c-0.311 0-0.563 0.252-0.563 0.563s0.252 0.563 0.563 0.563h0.498c0.311 0 0.563-0.252 0.563-0.563s-0.252-0.563-0.563-0.563z"></path>
<path d="M16 27.438h-0.498c-0.311 0-0.563 0.252-0.563 0.563s0.252 0.563 0.563 0.563h0.498c0.311 0 0.563-0.252 0.563-0.563s-0.252-0.563-0.563-0.563z"></path>
<path d="M24.403 10h-3.494c-1.337-1.095-3.046-1.752-4.909-1.752s-3.572 0.658-4.909 1.752h-3.494c-0.345 0-0.625 0.28-0.625 0.625v14.821c0 0.345 0.28 0.625 0.625 0.625h16.806c0.345 0 0.625-0.28 0.625-0.625v-14.821c0-0.345-0.28-0.625-0.625-0.625zM21.088 15.998c0 0.351-0.080 0.665-0.239 0.941-0.159 0.273-0.387 0.488-0.683 0.644-0.293 0.156-0.631 0.234-1.014 0.234h-1.185v-3.633h1.185c0.387 0 0.726 0.078 1.019 0.234 0.293 0.153 0.519 0.367 0.678 0.644 0.159 0.273 0.239 0.585 0.239 0.936zM17.593 17.158v0.658h-2.292v-3.633h0.756v2.975h1.536zM14.764 15.998c0 0.351-0.084 0.669-0.254 0.956-0.166 0.286-0.397 0.512-0.693 0.678-0.293 0.163-0.619 0.244-0.98 0.244s-0.689-0.081-0.985-0.244c-0.293-0.166-0.524-0.392-0.693-0.678-0.166-0.286-0.249-0.604-0.249-0.956s0.083-0.67 0.249-0.956c0.169-0.286 0.4-0.511 0.693-0.673 0.296-0.162 0.624-0.244 0.985-0.244s0.688 0.081 0.98 0.244c0.296 0.162 0.527 0.387 0.693 0.673 0.169 0.286 0.254 0.605 0.254 0.956zM23.903 24.946h-15.806v-13.821h1.876c-1.078 1.332-1.725 3.027-1.725 4.875 0 4.282 3.471 7.753 7.753 7.753s7.753-3.471 7.753-7.753c0-1.848-0.646-3.543-1.725-4.875h1.876v13.821z"></path>
<path d="M19.786 14.983c-0.176-0.094-0.381-0.141-0.614-0.141h-0.449v2.316h0.449c0.234 0 0.439-0.047 0.614-0.141s0.311-0.229 0.405-0.405 0.141-0.381 0.141-0.614-0.047-0.438-0.141-0.609c-0.094-0.176-0.229-0.311-0.405-0.405z"></path>
<path d="M13.433 14.959c-0.176-0.101-0.374-0.151-0.595-0.151s-0.421 0.051-0.6 0.151c-0.176 0.101-0.316 0.242-0.419 0.424-0.101 0.179-0.151 0.384-0.151 0.614s0.051 0.438 0.151 0.619c0.104 0.179 0.246 0.32 0.424 0.424 0.179 0.101 0.377 0.151 0.595 0.151s0.416-0.051 0.595-0.151c0.179-0.104 0.319-0.246 0.419-0.424 0.104-0.182 0.156-0.389 0.156-0.619s-0.052-0.436-0.156-0.614c-0.101-0.182-0.241-0.324-0.419-0.424z"></path>
</svg>
