<!-- Generated by IcoMoon.io -->
<svg version="1.1" xmlns="http://www.w3.org/2000/svg" width="32" height="32" viewBox="0 0 32 32">
<path d="M29.485 0.062h-26.971c-1.353 0.001-2.45 1.098-2.452 2.452v26.971c0.001 1.354 1.098 2.45 2.452 2.452h26.971c1.354-0.001 2.45-1.098 2.452-2.452v-26.971c-0.001-1.353-1.098-2.45-2.452-2.452zM2.514 1.288h26.971c0.677 0.001 1.225 0.549 1.226 1.226v2.452h-29.423v-2.452c0.001-0.677 0.549-1.225 1.226-1.226zM29.485 30.712h-26.971c-0.677-0.001-1.225-0.549-1.226-1.226v-23.294h29.424v23.293c-0.001 0.677-0.549 1.226-1.227 1.227z"></path>
<path d="M29.486 32h-26.972c-1.385-0.001-2.513-1.129-2.514-2.514v-26.972c0.001-1.385 1.129-2.513 2.514-2.514h26.971c1.385 0.001 2.513 1.129 2.514 2.514v26.971c-0.001 1.385-1.129 2.513-2.513 2.515zM2.514 0.124c-1.316 0.001-2.388 1.073-2.389 2.39v26.971c0.001 1.316 1.073 2.388 2.39 2.389h26.971c1.316-0.001 2.388-1.073 2.389-2.39v-26.971c-0.001-1.316-1.073-2.388-2.39-2.389h-26.971zM29.486 30.774h-26.972c-0.71-0.001-1.287-0.578-1.288-1.288v-23.356h29.548v23.356c0 0.71-0.578 1.288-1.288 1.289zM1.35 6.254v23.231c0.001 0.641 0.523 1.163 1.164 1.164h26.971c0.641-0.001 1.163-0.522 1.164-1.164v-23.231h-29.299zM30.774 5.028h-29.548v-2.515c0.001-0.71 0.578-1.287 1.288-1.288h26.971c0.71 0.001 1.288 0.578 1.288 1.288v2.515h0.001zM1.35 4.904h29.299v-2.39c-0.001-0.641-0.523-1.163-1.164-1.164h-26.971c-0.641 0.001-1.163 0.523-1.164 1.164v2.39z"></path>
<path d="M8.051 3.749c0.339 0 0.614-0.275 0.614-0.614s-0.275-0.614-0.614-0.614c-0.339 0-0.614 0.275-0.614 0.614s0.275 0.614 0.614 0.614z"></path>
<path d="M8.051 3.812c-0.373 0-0.677-0.304-0.677-0.677s0.304-0.677 0.677-0.677c0.373 0 0.677 0.304 0.677 0.677s-0.304 0.677-0.677 0.677zM8.051 2.582c-0.304 0-0.552 0.248-0.552 0.552s0.248 0.552 0.552 0.552c0.304 0 0.552-0.248 0.552-0.552s-0.248-0.552-0.552-0.552z"></path>
<path d="M5.593 3.749c0.339 0 0.614-0.275 0.614-0.614s-0.275-0.614-0.614-0.614c-0.339 0-0.614 0.275-0.614 0.614s0.275 0.614 0.614 0.614z"></path>
<path d="M5.593 3.812c-0.373 0-0.677-0.304-0.677-0.677s0.304-0.677 0.677-0.677c0.373 0 0.677 0.304 0.677 0.677s-0.304 0.677-0.677 0.677zM5.593 2.582c-0.304 0-0.552 0.248-0.552 0.552s0.248 0.552 0.552 0.552c0.304 0 0.552-0.248 0.552-0.552s-0.248-0.552-0.552-0.552z"></path>
<path d="M3.135 3.749c0.339 0 0.614-0.275 0.614-0.614s-0.275-0.614-0.614-0.614c-0.339 0-0.614 0.275-0.614 0.614s0.275 0.614 0.614 0.614z"></path>
<path d="M3.135 3.812c-0.373 0-0.677-0.304-0.677-0.677s0.304-0.677 0.677-0.677c0.373 0 0.677 0.304 0.677 0.677s-0.303 0.677-0.677 0.677zM3.135 2.582c-0.304 0-0.552 0.248-0.552 0.552s0.248 0.552 0.552 0.552c0.304 0 0.552-0.248 0.552-0.552s-0.247-0.552-0.552-0.552z"></path>
<path d="M3.938 10.5c0-0.587 0.476-1.063 1.063-1.063h3.5c0.587 0 1.063 0.476 1.063 1.063v3c0 0.587-0.476 1.063-1.063 1.063h-3.5c-0.587 0-1.063-0.476-1.063-1.063v-3zM5.063 10.563v2.875h3.375v-2.875h-3.375zM10.438 10.5c0-0.587 0.476-1.063 1.063-1.063h3c0.587 0 1.063 0.476 1.063 1.063v3c0 0.587-0.476 1.063-1.063 1.063h-3c-0.587 0-1.063-0.476-1.063-1.063v-3zM11.563 10.563v2.875h2.875v-2.875h-2.875zM16.438 10.5c0-0.587 0.476-1.063 1.063-1.063h3c0.587 0 1.063 0.476 1.063 1.063v3c0 0.587-0.476 1.063-1.063 1.063h-3c-0.587 0-1.063-0.476-1.063-1.063v-3zM17.563 10.563v2.875h2.875v-2.875h-2.875zM3.938 17c0-0.587 0.476-1.063 1.063-1.063h3.5c0.587 0 1.063 0.476 1.063 1.063v3c0 0.587-0.476 1.063-1.063 1.063h-3.5c-0.587 0-1.063-0.476-1.063-1.063v-3zM5.063 17.063v2.875h3.375v-2.875h-3.375zM10.438 17c0-0.587 0.476-1.063 1.063-1.063h3c0.587 0 1.063 0.476 1.063 1.063v3c0 0.587-0.476 1.063-1.063 1.063h-3c-0.587 0-1.063-0.476-1.063-1.063v-3zM11.563 17.063v2.875h2.875v-2.875h-2.875zM16.438 17c0-0.587 0.476-1.063 1.063-1.063h3c0.587 0 1.063 0.476 1.063 1.063v3c0 0.587-0.476 1.063-1.063 1.063h-3c-0.587 0-1.063-0.476-1.063-1.063v-3zM17.563 17.063v2.875h2.875v-2.875h-2.875zM3.938 23.5c0-0.587 0.476-1.063 1.063-1.063h3.5c0.587 0 1.063 0.476 1.063 1.063v3c0 0.587-0.476 1.063-1.063 1.063h-3.5c-0.587 0-1.063-0.476-1.063-1.063v-3zM5.063 23.563v2.875h3.375v-2.875h-3.375zM10.438 23.5c0-0.587 0.476-1.063 1.063-1.063h3c0.587 0 1.063 0.476 1.063 1.063v3c0 0.587-0.476 1.063-1.063 1.063h-3c-0.587 0-1.063-0.476-1.063-1.063v-3zM11.563 23.563v2.875h2.875v-2.875h-2.875zM16.438 23.5c0-0.587 0.476-1.063 1.063-1.063h3c0.587 0 1.063 0.476 1.063 1.063v3c0 0.587-0.476 1.063-1.063 1.063h-3c-0.587 0-1.063-0.476-1.063-1.063v-3zM17.563 23.563v2.875h2.875v-2.875h-2.875z"></path>
<path d="M22.438 10.5c0-0.587 0.476-1.063 1.063-1.063h3.5c0.587 0 1.063 0.476 1.063 1.063v3c0 0.587-0.476 1.063-1.063 1.063h-3.5c-0.587 0-1.063-0.476-1.063-1.063v-3zM23.563 10.563v2.875h3.375v-2.875h-3.375zM22.438 17c0-0.587 0.476-1.063 1.063-1.063h3.5c0.587 0 1.063 0.476 1.063 1.063v3c0 0.587-0.476 1.063-1.063 1.063h-3.5c-0.587 0-1.063-0.476-1.063-1.063v-3zM23.563 17.063v2.875h3.375v-2.875h-3.375zM22.438 23.5c0-0.587 0.476-1.063 1.063-1.063h3.5c0.587 0 1.063 0.476 1.063 1.063v3c0 0.587-0.476 1.063-1.063 1.063h-3.5c-0.587 0-1.063-0.476-1.063-1.063v-3zM23.563 23.563v2.875h3.375v-2.875h-3.375z"></path>
</svg>
