<!-- Generated by IcoMoon.io -->
<svg version="1.1" xmlns="http://www.w3.org/2000/svg" width="32" height="32" viewBox="0 0 32 32">
<path d="M16 1.333c-2.901 0-5.736 0.86-8.148 2.472s-4.292 3.902-5.402 6.582c-1.11 2.68-1.401 5.629-0.835 8.474s1.963 5.458 4.014 7.51c2.051 2.051 4.665 3.448 7.51 4.014s5.794 0.276 8.474-0.834c2.68-1.11 4.971-2.99 6.582-5.402s2.472-5.248 2.472-8.148c0-3.89-1.545-7.62-4.296-10.371s-6.481-4.296-10.371-4.296zM16 28c-2.373 0-4.693-0.704-6.667-2.023s-3.511-3.193-4.42-5.385-1.146-4.605-0.683-6.933c0.463-2.328 1.606-4.466 3.284-6.144s3.816-2.821 6.144-3.284c2.328-0.463 4.741-0.225 6.933 0.683s4.067 2.446 5.386 4.42c1.319 1.973 2.022 4.293 2.022 6.667 0 3.183-1.264 6.235-3.515 8.485s-5.303 3.515-8.485 3.515zM17.333 14.667v9.333c0 0.354-0.14 0.693-0.391 0.943s-0.589 0.39-0.943 0.39-0.693-0.14-0.943-0.39c-0.25-0.25-0.391-0.589-0.391-0.943v-9.333c0-0.354 0.14-0.693 0.391-0.943s0.589-0.391 0.943-0.391c0.354 0 0.693 0.14 0.943 0.391s0.391 0.589 0.391 0.943zM17.333 8v1.333c0 0.354-0.14 0.693-0.391 0.943s-0.589 0.391-0.943 0.391c-0.354 0-0.693-0.14-0.943-0.391s-0.391-0.589-0.391-0.943v-1.333c0-0.354 0.14-0.693 0.391-0.943s0.589-0.391 0.943-0.391c0.354 0 0.693 0.14 0.943 0.391s0.391 0.589 0.391 0.943z"></path>
</svg>
