<!-- Generated by IcoMoon.io -->
<svg version="1.1" xmlns="http://www.w3.org/2000/svg" width="32" height="32" viewBox="0 0 32 32">
<path d="M1 10c0-4.971 4.029-9 9-9h12c4.971 0 9 4.029 9 9v12c0 4.971-4.029 9-9 9h-12c-4.971 0-9-4.029-9-9v-12zM10 3c-3.866 0-7 3.134-7 7v12c0 3.866 3.134 7 7 7h12c3.866 0 7-3.134 7-7v-12c0-3.866-3.134-7-7-7h-12z"></path>
<path d="M7.5 10c0-0.552 0.448-1 1-1h15c0.552 0 1 0.448 1 1s-0.448 1-1 1h-15c-0.552 0-1-0.448-1-1zM7.5 16c0-0.552 0.448-1 1-1h8c0.552 0 1 0.448 1 1s-0.448 1-1 1h-8c-0.552 0-1-0.448-1-1zM7.5 22c0-0.552 0.448-1 1-1h14.5c0.552 0 1 0.448 1 1s-0.448 1-1 1h-14.5c-0.552 0-1-0.448-1-1z"></path>
</svg>
