<svg width="24" height="24" fill="none" xmlns="http://www.w3.org/2000/svg"><path d="M16.974 1.379c-1.879.435-3.347 1.457-4.467 3.109a10.64 10.64 0 0 0-.818 1.545c-.062.152-.101.203-.138.18l-.351-.23c-.643-.423-1.707-.924-2.54-1.197a13.687 13.687 0 0 0-1.74-.408c-.889-.137-2.785-.115-3.534.042-.875.183-1.615.825-1.896 1.641-.197.575-.19.343-.19 6.539 0 5.523.004 5.833.073 6.08.116.41.291.698.597.981.507.47.812.531 2.87.579 1.64.037 1.976.073 2.86.3 1.239.318 2.563.979 3.472 1.734.539.447.561.459.828.459.267 0 .289-.012.828-.459.846-.703 2.085-1.341 3.246-1.674.939-.27 1.695-.36 3.004-.36 1.503 0 2.245-.093 2.65-.331.41-.242.752-.709.899-1.229.069-.247.073-.557.073-6.08 0-5.528-.004-5.836-.074-6.14-.296-1.274-1.161-1.971-2.636-2.122l-.27-.027v-.627c0-.7-.047-.956-.242-1.321a2.068 2.068 0 0 0-1.186-1.003c-.35-.108-.797-.101-1.318.019M18 2.837a.79.79 0 0 1 .18.207c.079.134.08.219.092 6.256.008 4.225-.001 6.165-.03 6.266-.051.176-.194.253-.542.292a9.182 9.182 0 0 0-1.555.369c-1.176.408-2.283 1.155-3.065 2.067l-.3.349-.01-5.605-.01-5.605.148-.447c.177-.536.59-1.361.91-1.82.296-.424.874-1.031 1.262-1.324.675-.51 1.216-.764 2.14-1.003.463-.12.613-.12.78-.002M5.957 5.761a8.888 8.888 0 0 1 3.503.937 8.551 8.551 0 0 1 1.51.914l.27.204v6.332c0 3.483-.009 6.332-.019 6.332-.011 0-.137-.072-.282-.16a11.325 11.325 0 0 0-2.785-1.178c-1.109-.29-1.917-.381-3.39-.383a21.187 21.187 0 0 1-1.3-.037c-.363-.033-.406-.046-.515-.154a.697.697 0 0 1-.159-.293c-.057-.248-.089-9.879-.035-10.795.047-.79.074-.916.256-1.184.245-.36.561-.469 1.546-.532.726-.047.765-.047 1.4-.003m14.463.147c.454.145.688.428.787.952.042.223.053 1.363.053 5.64 0 2.948-.015 5.484-.034 5.635-.027.226-.055.298-.16.412-.12.131-.144.139-.506.174-.209.02-.803.037-1.32.038-1.42.002-2.217.088-3.26.349-.631.158-1.484.463-1.954.699-.173.087-.324.148-.336.137-.042-.043.449-.651.828-1.026.874-.865 1.9-1.361 3.282-1.585.495-.08.677-.128.903-.238.373-.181.661-.47.85-.853l.147-.298.011-5.077.01-5.077.25.027a2.6 2.6 0 0 1 .449.091" fill-rule="evenodd" fill="#000"/></svg>