<!-- Generated by IcoMoon.io -->
<svg version="1.1" xmlns="http://www.w3.org/2000/svg" width="32" height="32" viewBox="0 0 32 32">
<path d="M27.333 32c-2.573 0-4.667-2.093-4.667-4.667v-7c0-1.653 1.347-3 3-3s3 1.347 3 3v6.667c0 0.265-0.105 0.52-0.293 0.707s-0.442 0.293-0.707 0.293c-0.265 0-0.52-0.105-0.707-0.293s-0.293-0.442-0.293-0.707v-6.667c0-0.551-0.45-1-1-1s-1 0.449-1 1v7c0 1.471 1.196 2.667 2.667 2.667s2.667-1.196 2.667-2.667v-9c0-0.265 0.105-0.52 0.293-0.707s0.442-0.293 0.707-0.293 0.52 0.105 0.707 0.293c0.188 0.188 0.293 0.442 0.293 0.707v9c0 2.573-2.093 4.667-4.667 4.667z"></path>
<path d="M19.747 29.333h-16.080c-0.972-0-1.904-0.387-2.592-1.075s-1.074-1.62-1.075-2.592v-19.333c0.001-0.972 0.387-1.904 1.075-2.592s1.62-1.074 2.592-1.075h18c0.972 0.001 1.904 0.387 2.592 1.075s1.074 1.62 1.075 2.592v8.147c0 0.265-0.105 0.52-0.293 0.707s-0.442 0.293-0.707 0.293-0.52-0.105-0.707-0.293c-0.188-0.188-0.293-0.442-0.293-0.707v-8.147c0-0.919-0.748-1.667-1.667-1.667h-18c-0.919 0-1.667 0.748-1.667 1.667v19.333c0 0.919 0.748 1.666 1.667 1.666h16.080c0.265 0 0.52 0.105 0.707 0.293s0.293 0.442 0.293 0.707c0 0.265-0.105 0.52-0.293 0.707s-0.442 0.293-0.707 0.293z"></path>
<path d="M19.667 22.667h-13.667c-0.265 0-0.52-0.105-0.707-0.293s-0.293-0.442-0.293-0.707c0-0.265 0.105-0.52 0.293-0.707s0.442-0.293 0.707-0.293h13.667c0.265 0 0.52 0.105 0.707 0.293s0.293 0.442 0.293 0.707c0 0.265-0.105 0.52-0.293 0.707s-0.442 0.293-0.707 0.293zM20.667 17.333h-14.667c-0.265 0-0.52-0.105-0.707-0.293s-0.293-0.442-0.293-0.707c0-0.265 0.105-0.52 0.293-0.707s0.442-0.293 0.707-0.293h14.667c0.265 0 0.52 0.105 0.707 0.293s0.293 0.442 0.293 0.707c0 0.265-0.105 0.52-0.293 0.707s-0.442 0.293-0.707 0.293zM14 12h-8c-0.265 0-0.52-0.105-0.707-0.293s-0.293-0.442-0.293-0.707c0-0.265 0.105-0.52 0.293-0.707s0.442-0.293 0.707-0.293h8c0.265 0 0.52 0.105 0.707 0.293s0.293 0.442 0.293 0.707c0 0.265-0.105 0.52-0.293 0.707s-0.442 0.293-0.707 0.293zM19 6.667c-0.265 0-0.52-0.105-0.707-0.293s-0.293-0.442-0.293-0.707v-4.667c0-0.265 0.105-0.52 0.293-0.707s0.442-0.293 0.707-0.293c0.265 0 0.52 0.105 0.707 0.293s0.293 0.442 0.293 0.707v4.667c0 0.265-0.105 0.52-0.293 0.707s-0.442 0.293-0.707 0.293zM6.333 6.667c-0.265 0-0.52-0.105-0.707-0.293s-0.293-0.442-0.293-0.707v-4.667c0-0.265 0.105-0.52 0.293-0.707s0.442-0.293 0.707-0.293c0.265 0 0.52 0.105 0.707 0.293s0.293 0.442 0.293 0.707v4.667c0 0.265-0.105 0.52-0.293 0.707s-0.442 0.293-0.707 0.293zM13 6.667c-0.265 0-0.52-0.105-0.707-0.293s-0.293-0.442-0.293-0.707v-4.667c0-0.265 0.105-0.52 0.293-0.707s0.442-0.293 0.707-0.293c0.265 0 0.52 0.105 0.707 0.293s0.293 0.442 0.293 0.707v4.667c0 0.265-0.105 0.52-0.293 0.707s-0.442 0.293-0.707 0.293z"></path>
</svg>
