<!-- Generated by IcoMoon.io -->
<svg version="1.1" xmlns="http://www.w3.org/2000/svg" width="32" height="32" viewBox="0 0 32 32">
<path d="M10 9c-0.265 0-0.52-0.105-0.707-0.293s-0.293-0.442-0.293-0.707v-4c0-0.265 0.105-0.52 0.293-0.707s0.442-0.293 0.707-0.293c0.265 0 0.52 0.105 0.707 0.293s0.293 0.442 0.293 0.707v4c0 0.265-0.105 0.52-0.293 0.707s-0.442 0.293-0.707 0.293zM22 9c-0.265 0-0.52-0.105-0.707-0.293s-0.293-0.442-0.293-0.707v-4c0-0.265 0.105-0.52 0.293-0.707s0.442-0.293 0.707-0.293c0.265 0 0.52 0.105 0.707 0.293s0.293 0.442 0.293 0.707v4c0 0.265-0.105 0.52-0.293 0.707s-0.442 0.293-0.707 0.293z"></path>
<path d="M26 29h-20c-1.654 0-3-1.346-3-3v-18c0-1.654 1.346-3 3-3h20c1.654 0 3 1.346 3 3v18c0 1.654-1.346 3-3 3zM6 7c-0.265 0-0.52 0.105-0.707 0.293s-0.293 0.442-0.293 0.707v18c0 0.265 0.105 0.52 0.293 0.707s0.442 0.293 0.707 0.293h20c0.265 0 0.52-0.105 0.707-0.293s0.293-0.442 0.293-0.707v-18c0-0.265-0.105-0.52-0.293-0.707s-0.442-0.293-0.707-0.293h-20z"></path>
<path d="M28 13h-24c-0.265 0-0.52-0.105-0.707-0.293s-0.293-0.442-0.293-0.707c0-0.265 0.105-0.52 0.293-0.707s0.442-0.293 0.707-0.293h24c0.265 0 0.52 0.105 0.707 0.293s0.293 0.442 0.293 0.707-0.105 0.52-0.293 0.707c-0.188 0.188-0.442 0.293-0.707 0.293zM11 15h2v2h-2v-2zM15 15h2v2h-2v-2zM19 15h2v2h-2v-2zM23 15h2v2h-2v-2zM7 19h2v2h-2v-2zM11 19h2v2h-2v-2zM15 19h2v2h-2v-2zM19 19h2v2h-2v-2zM23 19h2v2h-2v-2zM7 23h2v2h-2v-2zM11 23h2v2h-2v-2zM15 23h2v2h-2v-2z"></path>
</svg>
