<!-- Generated by IcoMoon.io -->
<svg version="1.1" xmlns="http://www.w3.org/2000/svg" width="32" height="32" viewBox="0 0 32 32">
<path d="M28 17c1.654 0 3-1.346 3-3v-10c0-1.654-1.346-3-3-3h-24c-1.654 0-3 1.346-3 3v10c0 1.654 1.346 3 3 3h13v5.465l-1.546-1.547c-0.469-0.468-1.105-0.731-1.768-0.731s-1.299 0.263-1.768 0.731l-1.060 1.061c-0.18 0.18-0.285 0.421-0.293 0.675s0.080 0.502 0.248 0.693l6.436 7.314c0.178 0.189 0.423 0.302 0.682 0.314s0.514-0.077 0.709-0.248c0.195-0.172 0.316-0.413 0.336-0.671s-0.060-0.516-0.225-0.716l-5.816-6.609 0.398-0.397c0.094-0.093 0.221-0.146 0.354-0.146s0.259 0.052 0.354 0.146l3.253 3.253c0.14 0.14 0.318 0.235 0.512 0.273s0.395 0.019 0.578-0.057c0.183-0.076 0.339-0.204 0.449-0.368s0.169-0.358 0.169-0.555v-9.379c0-0.133 0.053-0.26 0.146-0.354s0.221-0.146 0.354-0.146c0.133 0 0.26 0.053 0.354 0.146s0.146 0.221 0.146 0.354v7c0 0.265 0.105 0.52 0.293 0.707s0.442 0.293 0.707 0.293c0.265 0 0.52-0.105 0.707-0.293s0.293-0.442 0.293-0.707c0-0.133 0.053-0.26 0.146-0.354s0.221-0.146 0.354-0.146c0.133 0 0.26 0.053 0.354 0.146s0.146 0.221 0.146 0.354v0.5c0 0.265 0.105 0.52 0.293 0.707s0.442 0.293 0.707 0.293c0.265 0 0.52-0.105 0.707-0.293s0.293-0.442 0.293-0.707c0-0.133 0.053-0.26 0.146-0.354s0.221-0.146 0.354-0.146c0.133 0 0.26 0.053 0.354 0.146s0.146 0.221 0.146 0.354v0.5c0 0.265 0.105 0.52 0.293 0.707s0.442 0.293 0.707 0.293 0.52-0.105 0.707-0.293c0.188-0.188 0.293-0.442 0.293-0.707-0.002-0.133 0.049-0.26 0.142-0.355s0.219-0.149 0.352-0.151 0.261 0.049 0.355 0.142c0.095 0.093 0.149 0.219 0.151 0.352-0.006 0.508-0.035 1.927-0.092 2.39-0.097 0.786-0.665 3.061-0.876 3.871-0.033 0.127-0.041 0.259-0.023 0.39s0.061 0.256 0.128 0.369 0.155 0.212 0.259 0.292c0.105 0.079 0.224 0.137 0.351 0.17 0.257 0.067 0.529 0.029 0.758-0.105 0.113-0.067 0.212-0.155 0.292-0.259s0.137-0.224 0.17-0.351c0.080-0.312 0.795-3.072 0.925-4.13 0.080-0.656 0.105-2.412 0.107-2.622-0.001-0.431-0.113-0.855-0.326-1.23s-0.519-0.689-0.889-0.911c-0.37-0.222-0.791-0.345-1.222-0.356s-0.858 0.088-1.239 0.29c-0.375-0.402-0.872-0.67-1.415-0.76s-1.1 0.001-1.585 0.26c-0.565-0.604-1.486-0.916-2.325-0.743v-3.050h6zM19.5 13c-1.207 0-2.217 0.86-2.45 2h-13.050c-0.551 0-1-0.449-1-1v-10c0-0.551 0.449-1 1-1h24c0.551 0 1 0.449 1 1v10c0 0.551-0.449 1-1 1h-6.050c-0.116-0.564-0.423-1.071-0.869-1.436s-1.005-0.564-1.581-0.564zM19 6v4c0 1.654-1.346 3-3 3s-3-1.346-3-3v-4c0-0.265 0.105-0.52 0.293-0.707s0.442-0.293 0.707-0.293c0.265 0 0.52 0.105 0.707 0.293s0.293 0.442 0.293 0.707v4c0 0.551 0.449 1 1 1s1-0.449 1-1v-4c0-0.265 0.105-0.52 0.293-0.707s0.442-0.293 0.707-0.293c0.265 0 0.52 0.105 0.707 0.293s0.293 0.442 0.293 0.707zM22 9.815c-0.583-0.205-1.088-0.586-1.447-1.090s-0.551-1.106-0.553-1.725v-1c0-0.265 0.105-0.52 0.293-0.707s0.442-0.293 0.707-0.293c0.265 0 0.52 0.105 0.707 0.293s0.293 0.442 0.293 0.707v1c0 0.551 0.449 1 1 1s1-0.449 1-1v-1c0-0.265 0.105-0.52 0.293-0.707s0.442-0.293 0.707-0.293c0.265 0 0.52 0.105 0.707 0.293s0.293 0.442 0.293 0.707v1c-0.002 0.618-0.195 1.221-0.553 1.725s-0.864 0.885-1.447 1.091v2.184c0 0.265-0.105 0.52-0.293 0.707s-0.442 0.293-0.707 0.293c-0.265 0-0.52-0.105-0.707-0.293s-0.293-0.442-0.293-0.707v-2.185zM9.5 5h-2.5c-0.265 0-0.52 0.105-0.707 0.293s-0.293 0.442-0.293 0.707v6c0 0.265 0.105 0.52 0.293 0.707s0.442 0.293 0.707 0.293h2.5c1.378 0 2.5-1.122 2.5-2.5 0-0.563-0.187-1.082-0.501-1.5 0.314-0.418 0.501-0.938 0.501-1.5 0-1.378-1.122-2.5-2.5-2.5zM9.5 7c0.133 0 0.26 0.053 0.354 0.146s0.146 0.221 0.146 0.354c0 0.133-0.053 0.26-0.146 0.354s-0.221 0.146-0.354 0.146h-1.5v-1h1.5zM9.5 11h-1.5v-1h1.5c0.133 0 0.26 0.053 0.354 0.146s0.146 0.221 0.146 0.354c0 0.133-0.053 0.26-0.146 0.354s-0.221 0.146-0.354 0.146z"></path>
</svg>
