<!-- Generated by IcoMoon.io -->
<svg version="1.1" xmlns="http://www.w3.org/2000/svg" width="32" height="32" viewBox="0 0 32 32">
<path d="M14.666 2.667c-0.354 0-0.693 0.14-0.943 0.391s-0.391 0.589-0.391 0.943v4h-4c-0.354 0-0.693 0.14-0.943 0.39s-0.391 0.589-0.391 0.943v3.995h-4.005c-0.175 0.001-0.348 0.036-0.51 0.104s-0.308 0.166-0.431 0.291c-0.123 0.124-0.221 0.272-0.287 0.434s-0.1 0.336-0.099 0.511v13.339c0.001 0.352 0.142 0.689 0.391 0.938s0.586 0.389 0.937 0.39h13.339c0.175 0.001 0.349-0.033 0.511-0.099s0.309-0.164 0.434-0.287c0.124-0.123 0.223-0.27 0.291-0.431s0.103-0.335 0.104-0.51v-4.005h3.995c0.354 0 0.693-0.14 0.943-0.391s0.391-0.589 0.391-0.943v-4h4c0.354 0 0.693-0.14 0.943-0.391s0.39-0.589 0.39-0.943v-13.333c0-0.354-0.14-0.693-0.39-0.943s-0.589-0.391-0.943-0.391h-13.333zM16 5.333h10.666v10.667h-2.667v-6.667c0-0.354-0.14-0.693-0.391-0.943s-0.589-0.391-0.943-0.391h-6.667v-2.667zM10.667 10.667h3.776c0.144 0.024 0.291 0.024 0.435 0h6.456v6.461c-0.022 0.139-0.022 0.28 0 0.419v3.787h-2.661v-6.667c0.001-0.176-0.033-0.35-0.1-0.513s-0.166-0.311-0.29-0.435c-0.124-0.124-0.272-0.223-0.435-0.29s-0.337-0.101-0.513-0.1h-6.667v-2.661zM5.336 15.997h3.752c0.159 0.029 0.321 0.029 0.48 0h6.437v6.424c-0.030 0.16-0.030 0.325 0 0.485v3.76h-10.669v-10.669z"></path>
</svg>
