<!-- Generated by IcoMoon.io -->
<svg version="1.1" xmlns="http://www.w3.org/2000/svg" width="32" height="32" viewBox="0 0 32 32">
<path d="M15.562 3c0 0.552 0.448 1 1 1 6.351 0 11.5 5.148 11.5 11.5s-5.148 11.5-11.5 11.5c-5.585 0-10.241-3.982-11.282-9.262l0.7 0.554c0.433 0.343 1.062 0.269 1.405-0.164s0.269-1.062-0.164-1.405l-2.538-2.008c-0.208-0.165-0.474-0.24-0.738-0.209s-0.504 0.166-0.669 0.375l-1.98 2.517c-0.341 0.434-0.266 1.063 0.168 1.404s1.063 0.266 1.404-0.168l0.439-0.559c1.203 6.224 6.68 10.923 13.255 10.923 7.456 0 13.5-6.044 13.5-13.5s-6.045-13.5-13.5-13.5c-0.552 0-1 0.448-1 1zM13.005 2.21c-0.534 0.141-0.852 0.688-0.711 1.222l0.135 0.511c0.141 0.534 0.688 0.852 1.222 0.711s0.852-0.688 0.711-1.222l-0.135-0.511c-0.141-0.534-0.688-0.852-1.222-0.711zM9.681 3.579c-0.48 0.273-0.647 0.884-0.374 1.364l0.261 0.458c0.273 0.48 0.884 0.647 1.364 0.374s0.647-0.884 0.374-1.364l-0.261-0.458c-0.273-0.48-0.884-0.647-1.364-0.374zM6.844 5.783c-0.391 0.391-0.391 1.024 0 1.414l0.354 0.354c0.391 0.391 1.024 0.391 1.414 0s0.391-1.024 0-1.414l-0.354-0.354c-0.391-0.391-1.024-0.391-1.414 0zM12 10c-0.552-0-1-0.448-1-1s0.448-1 1-1h1.009c0.004-0 0.007-0 0.011 0h6.96c0.004-0 0.007-0 0.011 0h1.009c0.552 0 1 0.448 1 1s-0.448 1-1 1c-0 0.116-0.002 0.238-0.004 0.363-0.007 0.373-0.025 0.786-0.063 1.164-0.035 0.347-0.097 0.773-0.237 1.108l-0 0c-0.307 0.737-0.904 1.396-1.515 1.961-0.328 0.304-0.689 0.607-1.060 0.905 0.37 0.297 0.73 0.6 1.058 0.903 0.61 0.566 1.208 1.225 1.515 1.961l0 0c0.14 0.335 0.202 0.761 0.237 1.108 0.038 0.378 0.056 0.791 0.063 1.164 0.002 0.125 0.004 0.246 0.004 0.363h0.001c0.552 0 1 0.448 1 1s-0.448 1-1 1h-1.010c-0.004 0-0.007 0-0.011 0h-6.959c-0.004 0-0.008 0-0.011 0h-1.009c-0.552 0-1-0.448-1-1s0.448-1 1-1h0c0.001-0.116 0.002-0.238 0.004-0.363 0.007-0.373 0.025-0.786 0.063-1.164 0.035-0.347 0.098-0.773 0.237-1.108l0-0c0.307-0.736 0.905-1.396 1.515-1.961 0.328-0.304 0.688-0.606 1.058-0.903-0.37-0.297-0.731-0.6-1.060-0.905-0.61-0.566-1.208-1.225-1.515-1.961l-0-0c-0.14-0.335-0.202-0.761-0.237-1.108-0.038-0.378-0.056-0.791-0.063-1.164-0.002-0.125-0.004-0.246-0.004-0.363zM16.5 14.234c0.484-0.38 0.934-0.745 1.322-1.105 0.562-0.521 0.893-0.939 1.028-1.264-0 0.001 0.005-0.011 0.013-0.042s0.017-0.069 0.027-0.119c0.020-0.102 0.038-0.229 0.053-0.38 0.031-0.302 0.047-0.655 0.053-1 0.002-0.111 0.003-0.22 0.004-0.324h-5.001c0 0.104 0.002 0.213 0.004 0.324 0.007 0.346 0.023 0.698 0.053 1 0.015 0.151 0.033 0.278 0.053 0.38 0.010 0.050 0.019 0.090 0.027 0.119 0.008 0.028 0.013 0.040 0.013 0.042 0 0 0 0 0 0 0.135 0.325 0.467 0.744 1.028 1.264 0.388 0.36 0.837 0.725 1.322 1.105zM14.15 11.865l-0-0c0 0 0 0 0 0zM16.5 16.767c-0.484 0.379-0.933 0.744-1.32 1.104-0.561 0.52-0.893 0.939-1.029 1.264 0-0 0-0-0 0-0 0.001-0.005 0.014-0.013 0.042-0.008 0.029-0.017 0.069-0.027 0.119-0.020 0.102-0.038 0.229-0.053 0.38-0.031 0.302-0.047 0.655-0.054 1-0.002 0.111-0.003 0.219-0.004 0.324h4.999c-0-0.104-0.002-0.213-0.004-0.324-0.007-0.346-0.023-0.698-0.053-1-0.015-0.151-0.033-0.278-0.053-0.38-0.010-0.050-0.019-0.090-0.027-0.119-0.008-0.028-0.013-0.041-0.013-0.042-0-0-0-0-0-0-0.136-0.325-0.467-0.744-1.029-1.264-0.388-0.359-0.837-0.724-1.32-1.104zM18.849 19.135l0.922-0.384-0.922 0.385c-0-0-0-0-0-0zM14.151 19.135c-0 0-0 0-0 0l-0.922-0.385 0.922 0.384zM4.647 8.638c-0.269 0.482-0.096 1.091 0.386 1.361l0.448 0.25c0.482 0.269 1.091 0.096 1.361-0.386s0.096-1.091-0.386-1.361l-0.448-0.25c-0.482-0.269-1.091-0.096-1.361 0.386zM3.274 11.937c0.144-0.533 0.693-0.849 1.226-0.705l0.5 0.135c0.533 0.144 0.849 0.693 0.705 1.226s-0.693 0.849-1.226 0.705l-0.5-0.135c-0.533-0.144-0.849-0.693-0.705-1.226z"></path>
</svg>
