<!-- Generated by IcoMoon.io -->
<svg version="1.1" xmlns="http://www.w3.org/2000/svg" width="32" height="32" viewBox="0 0 32 32">
<path d="M18.264 29.512c-0.358-0.086-0.682-0.279-0.927-0.554-0.347-0.403-0.495-0.884-0.495-1.412v-7.64c0-0.633-0.071-1.316 0.202-1.904 0.311-0.676 1.030-1.061 1.755-1.065h11.25c0.008 0 0.015 0 0.023 0 0.015 0 0.030 0 0.045 0.001 0.497 0.020 0.968 0.23 1.316 0.586s0.546 0.832 0.553 1.33c0.007 0.474 0 0.948 0 1.422v7.368c0 0.415-0.132 0.82-0.378 1.154s-0.592 0.582-0.988 0.707c-0.262 0.078-0.527 0.078-0.796 0.078h-10.972c-0.198 0.001-0.395-0.023-0.587-0.072l0-0zM18.837 28.169h10.841c0.131 0 0.265 0.004 0.396 0 0.021 0 0.088-0.008 0.096-0.007 0.014-0.003 0.025-0.006 0.031-0.007 0.016-0.004 0.066-0.024 0.091-0.032 0.025-0.014 0.052-0.029 0.061-0.035 0.011-0.009 0.022-0.018 0.034-0.026 0.027-0.027 0.062-0.065 0.069-0.070l0.008-0.007c0.022-0.037 0.040-0.078 0.063-0.114 0.004-0.009 0.008-0.018 0.011-0.028 0.008-0.027 0.016-0.055 0.022-0.083-0.001-0.019 0.006-0.051 0.006-0.063v-0.046c0-0.007 0-0.014 0-0.021 0-0.067 0-0.162 0-0.292v-8.491c0-0.008-0-0.017-0.001-0.025-0.013-0.038-0.015-0.087-0.024-0.123-0.007-0.021-0.014-0.046-0.021-0.067l-0-0.002c-0.021-0.034-0.045-0.072-0.049-0.079-0.002-0.003-0.004-0.005-0.006-0.008-0.033-0.027-0.063-0.058-0.091-0.091-0.003-0.002-0.005-0.003-0.006-0.004-0.008-0.004-0.047-0.029-0.083-0.050-0.022-0.006-0.044-0.013-0.066-0.021-0.019-0.005-0.042-0.008-0.065-0.012-0.027 0.003-0.053 0.005-0.080 0.005h-11.316c-0.002 0-0.045-0.002-0.075-0.001-0.010 0.002-0.021 0.005-0.032 0.008-0.028 0.008-0.073 0.032-0.108 0.040-0.014 0.009-0.029 0.016-0.044 0.024-0.021 0.011-0.039 0.025-0.060 0.035l-0.001 0-0.003 0.003-0.003 0.003c0.001-0.001 0.001-0.003 0.002-0.004-0.025 0.016-0.027 0.026-0.021 0.025-0.009 0.009-0.018 0.017-0.028 0.025-0.002 0.002-0.011 0.011-0.021 0.022-0.021 0.037-0.046 0.073-0.069 0.11l-0.002 0.007c-0.010 0.042-0.022 0.084-0.032 0.126 0 0.005 0 0.010 0.001 0.016v8.865c0.005 0.033 0.007 0.066 0.005 0.099 0.001 0.002 0.001 0.005 0.002 0.007 0.008 0.028 0.032 0.073 0.040 0.109 0.009 0.014 0.016 0.029 0.024 0.044 0.011 0.021 0.025 0.039 0.035 0.060l0 0.001 0.003 0.003 0.003 0.003-0.004-0.002c0.016 0.025 0.026 0.027 0.025 0.021 0.009 0.009 0.017 0.018 0.025 0.028 0.002 0.002 0.011 0.011 0.022 0.021 0.037 0.021 0.073 0.046 0.11 0.069l0.007 0.002c0.042 0.010 0.084 0.022 0.126 0.032 0.005 0 0.010-0 0.016-0.001l0.135-0.001zM18.473 28.091c0.002-0.001-0.006-0.007-0.017-0.014 0.005 0.006 0.011 0.010 0.017 0.015v-0.001zM30.358 28.087c0.002 0.001 0.012-0.007 0.024-0.019-0.015 0.010-0.027 0.019-0.024 0.020v-0.001zM18.299 27.872c0.002 0.003 0.004 0.006 0.006 0.008-0.006-0.016-0.014-0.030-0.024-0.043 0.004 0.013 0.011 0.025 0.018 0.036v-0.001zM30.531 18.65c0.007 0.022 0.015 0.043 0.018 0.042 0.004-0.003-0.006-0.023-0.020-0.047l0.002 0.006zM18.342 18.579c0.001 0.002 0.007-0.006 0.014-0.017-0.005 0.005-0.010 0.011-0.014 0.017l0-0.001zM30.45 18.519c-0.005-0.009-0.011-0.017-0.018-0.025-0.005 0.001 0.005 0.012 0.018 0.026l0-0.001zM30.425 18.487c-0.008-0.008-0.018-0.015-0.028-0.021 0.014 0.015 0.028 0.026 0.028 0.022l0-0.001zM18.562 18.405c-0.003 0.002-0.005 0.004-0.008 0.006 0.006-0.003 0.012-0.005 0.017-0.008 0.009-0.004 0.018-0.009 0.026-0.016-0.012 0.005-0.024 0.012-0.035 0.019l0-0.001zM30.227 18.37c-0.003 0.003 0.024 0.013 0.047 0.022-0.014-0.009-0.030-0.017-0.046-0.022-0 0-0.001 0-0.001 0s-0.001 0-0.001 0.001l0-0.001zM18.657 18.374c0.008-0 0.016-0.002 0.024-0.004-0.015 0.001-0.025 0.002-0.025 0.005l0-0zM13.205 29.581h-11.241c-0.704-0.004-1.401-0.358-1.734-1.002-0.18-0.354-0.23-0.722-0.23-1.107v-8.479c0-0.481 0.11-0.931 0.41-1.32 0.386-0.499 0.97-0.736 1.589-0.736h10.958c0.251 0 0.499-0.004 0.75 0.060 0.853 0.209 1.426 1.012 1.433 1.872 0.004 0.541 0 1.079 0 1.617v6.753c0 0.142 0.004 0.287 0 0.428-0.007 0.497-0.204 0.972-0.55 1.328s-0.816 0.565-1.313 0.585c-0.015 0.001-0.029 0.002-0.044 0.002h-0.016l-0.012 0zM1.911 28.166h11.318c0 0 0.1-0.001 0.103-0.021-0.016 0.002-0.031 0.005-0.047 0.009-0.035 0.007-0.069 0.015-0.020 0.002 0.046-0.014 0.092-0.021 0.138-0.035 0.009-0.003 0.019-0.006 0.028-0.010 0.031-0.018 0.068-0.034 0.1-0.054 0.002-0.002 0.005-0.004 0.008-0.005 0.027-0.033 0.058-0.063 0.091-0.091 0.002-0.003 0.003-0.005 0.004-0.006 0.016-0.030 0.033-0.064 0.051-0.095 0.005-0.011 0.010-0.021 0.013-0.033 0.008-0.027 0.016-0.055 0.022-0.083-0.001-0.019 0.006-0.051 0.006-0.063v-0.053c0-0.013 0-0.025 0-0.035 0-0.069 0-0.182 0-0.355v-8.4c0-0.019-0.008-0.084-0.007-0.093-0.003-0.014-0.006-0.026-0.007-0.031-0.003-0.013-0.017-0.050-0.027-0.076-0.012-0.022-0.025-0.047-0.030-0.055-0.010-0.018-0.025-0.037-0.037-0.056-0.027-0.027-0.065-0.061-0.069-0.068-0.003-0.003-0.005-0.006-0.007-0.008-0.033-0.020-0.068-0.038-0.101-0.059l-0.012-0.008c-0.051-0.031-0.036-0.016-0.008-0.002 0.003 0.002 0.007 0.003 0.010 0.005-0.009-0.004-0.018-0.008-0.027-0.010-0.028-0.008-0.055-0.016-0.083-0.022-0.019 0.001-0.051-0.006-0.063-0.006h-0.025c-0.449-0.007-0.895 0-1.341 0h-9.981c0.031 0 0.002 0.001-0.028 0.002-0.038 0.012-0.085 0.014-0.12 0.023-0.021 0.007-0.046 0.014-0.067 0.021h-0.001c-0.029 0.017-0.058 0.035-0.063 0.039-0.004 0.003-0.014 0.009-0.026 0.016-0.028 0.034-0.059 0.066-0.094 0.094-0.002 0.003-0.003 0.005-0.004 0.006-0.017 0.032-0.035 0.068-0.054 0.1-0.005 0.016-0.012 0.033-0.017 0.049-0.009 0.035-0.012 0.081-0.024 0.119-0.001 0.010-0.001 0.020-0.001 0.030v8.819c0 0.008 0 0.017 0.001 0.025 0.013 0.038 0.015 0.087 0.024 0.123 0.007 0.021 0.014 0.046 0.021 0.067v0.001c0.017 0.029 0.035 0.058 0.039 0.063 0.002 0.004 0.009 0.014 0.016 0.026 0.034 0.028 0.066 0.059 0.094 0.094 0.003 0.002 0.005 0.003 0.006 0.004 0.032 0.017 0.068 0.035 0.1 0.054 0.016 0.005 0.033 0.012 0.049 0.017 0.035 0.009 0.081 0.012 0.118 0.023 0.011 0.002 0.021 0.002 0.031 0.002zM1.557 28.031c0.008 0.008 0.018 0.015 0.028 0.021-0.008-0.009-0.017-0.016-0.027-0.022-0.001 0-0.001 0-0.001 0.001zM13.561 28.035c0.009-0.005 0.017-0.011 0.025-0.018 0-0.001-0-0.001-0.001-0.001-0.009 0.005-0.017 0.012-0.024 0.020l-0-0zM1.55 28.024c0.005 0-0.008-0.015-0.024-0.031 0.010 0.017 0.020 0.031 0.024 0.031zM13.594 28.010c0.008-0.008 0.015-0.018 0.021-0.028-0.014 0.015-0.026 0.028-0.021 0.028zM1.429 27.823c-0.003 0.003 0.006 0.022 0.019 0.044l-0.001-0.002c-0.004-0.015-0.010-0.029-0.018-0.042l-0 0zM13.643 18.558c0.001-0.002-0.007-0.012-0.020-0.024 0.010 0.015 0.019 0.027 0.020 0.024h-0zM1.525 18.522c0.014-0.015 0.026-0.028 0.021-0.028-0.008 0.008-0.015 0.018-0.021 0.028l-0-0zM1.553 18.487c0 0.005 0.015-0.008 0.031-0.024-0.016 0.011-0.031 0.021-0.031 0.024l-0-0zM1.711 18.386c0.022-0.008 0.045-0.016 0.044-0.019-0-0-0.001-0.001-0.002-0-0.015 0.004-0.029 0.011-0.042 0.019l-0-0zM18.377 27.999c0.014 0.006 0.020 0.015 0.021 0.019-0.007-0.007-0.014-0.013-0.021-0.019zM18.435 18.483c-0.006 0.014-0.015 0.020-0.019 0.021 0.007-0.007 0.013-0.014 0.019-0.021h-0zM13.429 18.388c0.003 0.002 0.007 0.003 0.010 0.004-0.003-0.001-0.007-0.003-0.010-0.004h-0zM18.264 14.825c-0.358-0.086-0.682-0.279-0.927-0.554-0.347-0.403-0.495-0.885-0.495-1.412v-7.641c0-0.633-0.071-1.316 0.202-1.904 0.311-0.676 1.030-1.061 1.755-1.065h11.25c0.008 0 0.015 0 0.023 0 0.015 0 0.030 0 0.045 0.001 0.497 0.020 0.968 0.23 1.316 0.586s0.546 0.832 0.554 1.33c0.007 0.474 0 0.948 0 1.422v7.368c0 0.415-0.132 0.82-0.378 1.154s-0.592 0.582-0.988 0.707c-0.262 0.078-0.527 0.078-0.796 0.078h-10.972c-0.198 0.001-0.395-0.024-0.587-0.072l0 0zM18.837 13.482h10.841c0.131 0 0.265 0.004 0.396 0 0.021 0 0.088-0.008 0.096-0.007 0.014-0.003 0.026-0.006 0.031-0.007 0.016-0.004 0.066-0.024 0.091-0.032 0.025-0.014 0.052-0.029 0.061-0.035 0.011-0.009 0.022-0.018 0.034-0.026 0.027-0.027 0.062-0.065 0.069-0.070l0.008-0.007c0.022-0.037 0.040-0.078 0.063-0.114 0.004-0.009 0.008-0.018 0.011-0.028 0.008-0.027 0.016-0.055 0.022-0.083-0.001-0.019 0.006-0.051 0.006-0.063v-0.046c0-0.007 0-0.014 0-0.021 0-0.067 0-0.162 0-0.292v-8.491c0-0.008-0-0.017-0.001-0.025-0.013-0.038-0.015-0.087-0.024-0.123-0.007-0.021-0.014-0.046-0.021-0.067l-0-0.002c-0.021-0.034-0.045-0.072-0.049-0.079-0.002-0.002-0.004-0.005-0.006-0.008-0.033-0.027-0.064-0.058-0.091-0.091-0.003-0.002-0.005-0.003-0.006-0.004-0.008-0.004-0.047-0.029-0.083-0.050-0.022-0.006-0.044-0.013-0.066-0.021-0.019-0.005-0.042-0.008-0.065-0.012-0.027 0.003-0.053 0.005-0.080 0.005h-11.316c-0.002 0-0.045-0.002-0.074-0.001-0.010 0.002-0.021 0.005-0.032 0.008-0.028 0.008-0.073 0.032-0.108 0.040-0.014 0.009-0.029 0.016-0.044 0.024-0.021 0.011-0.039 0.025-0.060 0.035l-0.001 0.001-0.003 0.003-0.003 0.003c0.001-0.001 0.001-0.002 0.002-0.004-0.025 0.016-0.027 0.026-0.021 0.025-0.009 0.009-0.018 0.017-0.028 0.025-0.002 0.002-0.011 0.011-0.021 0.022-0.021 0.037-0.046 0.073-0.069 0.11l-0.002 0.007c-0.010 0.042-0.022 0.084-0.032 0.126 0 0.005 0 0.010 0.001 0.016v8.865c0.005 0.033 0.007 0.066 0.005 0.099 0.001 0.002 0.001 0.005 0.002 0.007 0.008 0.028 0.032 0.073 0.040 0.109 0.009 0.014 0.017 0.029 0.024 0.044 0.011 0.021 0.025 0.039 0.035 0.060l0 0.001 0.003 0.003 0.003 0.003-0.004-0.002c0.016 0.025 0.026 0.027 0.025 0.021 0.009 0.009 0.017 0.018 0.025 0.028 0.002 0.002 0.011 0.011 0.021 0.021 0.037 0.021 0.073 0.046 0.11 0.069l0.007 0.002c0.042 0.010 0.084 0.022 0.126 0.033 0.005 0 0.010-0.001 0.016-0.001l0.135-0zM18.473 13.404c0.002-0.001-0.006-0.007-0.017-0.014 0.005 0.005 0.011 0.010 0.017 0.014v-0zM30.358 13.4c0.002 0.001 0.012-0.007 0.024-0.019-0.015 0.010-0.027 0.018-0.024 0.020v-0zM18.299 13.184c0.002 0.003 0.004 0.005 0.006 0.008-0.006-0.015-0.014-0.030-0.024-0.043 0.004 0.012 0.011 0.024 0.018 0.035v-0zM30.531 3.963c0.007 0.022 0.015 0.043 0.018 0.042 0.004-0.003-0.006-0.023-0.020-0.047l0.002 0.006zM18.342 3.892c0.001 0.002 0.007-0.006 0.014-0.017-0.005 0.005-0.010 0.010-0.014 0.017v0zM30.45 3.832c-0.005-0.009-0.011-0.017-0.018-0.025-0.005 0 0.005 0.012 0.018 0.025zM30.425 3.8c-0.008-0.008-0.018-0.015-0.028-0.021 0.015 0.014 0.028 0.026 0.028 0.021v-0zM18.561 3.719c-0.003 0.002-0.005 0.004-0.008 0.006 0.006-0.002 0.012-0.005 0.017-0.008 0.009-0.004 0.018-0.009 0.026-0.016-0.012 0.005-0.024 0.011-0.035 0.018v0zM30.227 3.683c-0.003 0.003 0.024 0.013 0.047 0.022-0.014-0.009-0.030-0.017-0.046-0.022-0.001-0-0.001 0-0.002 0.001v0zM18.657 3.687c0.008-0 0.016-0.002 0.024-0.004-0.014 0.001-0.024 0.002-0.024 0.004l0 0zM13.205 14.894h-11.241c-0.704-0.004-1.401-0.358-1.734-1.002-0.18-0.354-0.23-0.722-0.23-1.107v-8.479c0-0.481 0.11-0.931 0.41-1.32 0.386-0.499 0.97-0.736 1.589-0.736h10.958c0.251 0 0.499-0.004 0.75 0.060 0.853 0.209 1.426 1.012 1.433 1.872 0.004 0.541 0 1.079 0 1.617v6.752c0 0.142 0.004 0.287 0 0.428-0.007 0.497-0.204 0.972-0.55 1.328s-0.816 0.565-1.313 0.585c-0.015 0.001-0.029 0.002-0.044 0.002h-0.016l-0.012 0zM1.911 13.478h11.318c0 0 0.1-0.001 0.103-0.021-0.016 0.002-0.031 0.005-0.047 0.009-0.035 0.007-0.069 0.015-0.020 0.002 0.046-0.014 0.092-0.021 0.138-0.035 0.009-0.002 0.019-0.006 0.028-0.010 0.031-0.019 0.068-0.034 0.1-0.054 0.003-0.002 0.005-0.004 0.008-0.005 0.027-0.033 0.058-0.063 0.091-0.091 0.002-0.003 0.003-0.005 0.004-0.006 0.016-0.030 0.033-0.064 0.051-0.095 0.005-0.011 0.010-0.021 0.013-0.033 0.008-0.027 0.016-0.055 0.022-0.083-0.001-0.019 0.006-0.051 0.006-0.063v-0.053c0-0.013 0-0.025 0-0.036 0-0.069 0-0.182 0-0.355v-8.4c0-0.019-0.008-0.084-0.007-0.093-0.003-0.014-0.006-0.026-0.007-0.031-0.003-0.013-0.017-0.050-0.027-0.076-0.012-0.022-0.025-0.047-0.030-0.055-0.010-0.018-0.025-0.037-0.037-0.056-0.027-0.026-0.065-0.061-0.069-0.068-0.003-0.003-0.005-0.006-0.007-0.008-0.033-0.020-0.068-0.038-0.101-0.058l-0.012-0.008c-0.051-0.031-0.036-0.016-0.008-0.002 0.003 0.002 0.007 0.003 0.010 0.005-0.009-0.004-0.018-0.008-0.027-0.010-0.028-0.008-0.055-0.016-0.083-0.022-0.019 0.001-0.051-0.006-0.063-0.006h-0.025c-0.449-0.007-0.895 0-1.341 0h-9.981c0.031 0 0.002 0.001-0.028 0.002-0.038 0.013-0.085 0.014-0.12 0.023-0.021 0.007-0.046 0.014-0.067 0.021h-0.001c-0.029 0.017-0.058 0.035-0.063 0.039-0.004 0.002-0.014 0.009-0.026 0.016-0.028 0.034-0.059 0.066-0.094 0.094-0.002 0.003-0.003 0.005-0.004 0.006-0.017 0.032-0.035 0.068-0.054 0.1-0.005 0.016-0.012 0.033-0.017 0.049-0.009 0.035-0.012 0.081-0.024 0.119-0.001 0.010-0.001 0.020-0.001 0.030v8.819c0 0.008 0 0.017 0.001 0.025 0.013 0.038 0.015 0.087 0.024 0.123 0.007 0.021 0.014 0.046 0.021 0.067v0.001c0.017 0.029 0.035 0.058 0.039 0.063 0.002 0.004 0.009 0.014 0.016 0.027 0.034 0.028 0.066 0.059 0.094 0.094 0.003 0.002 0.005 0.003 0.006 0.004 0.032 0.017 0.068 0.035 0.1 0.054 0.016 0.005 0.034 0.012 0.049 0.017 0.035 0.009 0.081 0.012 0.118 0.024 0.011 0.001 0.021 0.002 0.031 0.002zM1.557 13.344c0.008 0.008 0.018 0.015 0.028 0.021-0.008-0.009-0.017-0.016-0.027-0.022-0.001 0-0.001 0-0.001 0.001zM13.562 13.348c0.009-0.005 0.017-0.011 0.025-0.018 0-0.001-0-0.001-0.001-0.001-0.009 0.005-0.017 0.012-0.024 0.020l-0-0zM1.55 13.337c0.005 0-0.008-0.015-0.024-0.031 0.010 0.017 0.020 0.031 0.024 0.031zM13.594 13.323c0.008-0.008 0.015-0.018 0.021-0.028-0.014 0.015-0.026 0.028-0.021 0.028zM1.429 13.135c-0.003 0.003 0.006 0.022 0.019 0.044l-0.001-0.002c-0.004-0.015-0.010-0.029-0.018-0.042l-0 0zM13.643 3.871c0.001-0.002-0.007-0.012-0.020-0.024 0.010 0.015 0.018 0.027 0.020 0.024zM1.525 3.835c0.014-0.015 0.026-0.028 0.021-0.028-0.008 0.008-0.015 0.018-0.021 0.028zM1.553 3.8c0 0.005 0.015-0.008 0.031-0.024-0.016 0.011-0.031 0.021-0.031 0.024v-0zM1.711 3.698c0.022-0.007 0.045-0.016 0.044-0.019-0-0-0.001-0.001-0.002-0.001-0.015 0.004-0.029 0.011-0.042 0.019v0zM18.377 13.311c0.014 0.006 0.020 0.015 0.021 0.019-0.007-0.007-0.014-0.013-0.021-0.019zM18.435 3.796c-0.006 0.014-0.015 0.021-0.019 0.021 0.007-0.007 0.013-0.014 0.019-0.021v0zM13.429 3.7c0.003 0.002 0.007 0.003 0.010 0.004-0.003-0.001-0.007-0.003-0.010-0.004z"></path>
</svg>
