<!-- Generated by IcoMoon.io -->
<svg version="1.1" xmlns="http://www.w3.org/2000/svg" width="32" height="32" viewBox="0 0 32 32">
<path d="M17.131 16.8l13.834-13.834c0.312-0.312 0.312-0.819 0-1.131s-0.819-0.312-1.131 0l-13.834 13.834-13.834-13.834c-0.312-0.312-0.819-0.312-1.131 0s-0.312 0.819 0 1.131l13.834 13.834-13.834 13.834c-0.312 0.312-0.312 0.819 0 1.131 0.157 0.157 0.362 0.234 0.566 0.234s0.41-0.078 0.566-0.234l13.834-13.834 13.834 13.834c0.157 0.157 0.362 0.234 0.566 0.234s0.41-0.078 0.566-0.234c0.312-0.312 0.312-0.819 0-1.131l-13.834-13.834z"></path>
</svg>
