<svg width="18" height="18" fill="none" xmlns="http://www.w3.org/2000/svg"><path d="M6.93.78c-.47.013-.997.039-1.17.058-.933.104-1.592.344-2.134.777-.668.535-1.061 1.243-1.226 2.212-.103.603-.128 1.31-.132 3.763l-.003 2.355.064.12c.148.275.373.414.671.414.298 0 .523-.139.671-.414.064-.119.064-.133.082-2.73.018-2.754.029-2.984.164-3.518.104-.413.226-.636.495-.905s.492-.391.905-.495c.463-.117.812-.141 2.281-.158L9 2.242l.001.192c.002.539.062 2.083.089 2.306.112.902.457 1.617.986 2.04.39.311 1.022.548 1.684.63.216.027 1.77.087 2.316.089l.17.001.01 1.223c.009 1.184.011 1.226.073 1.342.148.275.373.414.671.414.298 0 .523-.139.671-.414.063-.118.064-.144.063-1.515 0-1.217-.007-1.428-.054-1.65a2.24 2.24 0 0 0-.396-.87c-.208-.28-4.603-4.669-4.847-4.84a2.285 2.285 0 0 0-.795-.367C9.38.766 8.133.746 6.93.78m6.083 5.215a9.54 9.54 0 0 1-1.338-.099c-.368-.077-.545-.161-.727-.344-.184-.183-.267-.359-.345-.733-.047-.223-.102-.905-.103-1.279v-.225l1.335 1.335 1.336 1.335-.158.01m-9.369 5.287c-.577.044-.964.196-1.259.493-.201.202-.316.414-.413.759-.064.223-.066.282-.066 1.716s.002 1.493.066 1.716c.097.345.212.557.413.759.195.196.448.337.752.418.459.121 1.609.122 2.068.001.588-.155 1-.589 1.111-1.171.1-.523.025-.788-.284-.999-.453-.309-1.061-.026-1.137.529a.739.739 0 0 1-.048.21c-.039.039-1.099.046-1.269.008-.146-.033-.157-.042-.18-.145-.03-.145-.03-2.507 0-2.652.023-.103.034-.112.18-.145.17-.038 1.23-.031 1.269.008a.739.739 0 0 1 .048.21c.066.478.493.752.965.621.16-.045.424-.307.467-.463.045-.164.041-.356-.011-.628-.111-.582-.524-1.017-1.111-1.171-.349-.092-.96-.121-1.561-.074m4.591-.003c-.629.072-1.071.427-1.254 1.006-.059.189-.066.274-.066.84 0 .526.009.66.055.81a1.42 1.42 0 0 0 1.014.992c.09.025.38.052.661.063l.499.019.018.089c.023.116.023.439 0 .556l-.019.092-.754.01c-.833.011-.895.023-1.095.213-.148.141-.213.301-.213.531 0 .24.066.396.23.544.203.182.258.191 1.194.19.7-.001.872-.01 1.032-.053.54-.146.897-.505 1.045-1.049.04-.145.051-.315.051-.757s-.011-.612-.051-.757c-.147-.544-.512-.91-1.041-1.045a4.539 4.539 0 0 0-.671-.068l-.485-.02v-.72l.72-.015c.652-.014.733-.021.855-.079a.719.719 0 0 0 .426-.671.739.739 0 0 0-.411-.67c-.112-.059-.167-.064-.825-.069-.388-.003-.799.005-.915.018m3.191-.009a.93.93 0 0 0-.237.109.681.681 0 0 0-.34.619c.001.184.048.322.708 2.057 1.01 2.654 1.008 2.651 1.253 2.896a.921.921 0 0 0 1.372-.044c.231-.262.214-.222 1.211-2.858.802-2.121.79-2.074.634-2.381-.261-.516-1.014-.54-1.287-.042a53.57 53.57 0 0 0-.657 1.688c-.326.863-.603 1.558-.616 1.545a55.886 55.886 0 0 1-.614-1.584 76.675 76.675 0 0 0-.629-1.635.842.842 0 0 0-.344-.311 1.045 1.045 0 0 0-.454-.059" fill-rule="evenodd" fill="#000"/></svg>