<!-- Generated by IcoMoon.io -->
<svg version="1.1" xmlns="http://www.w3.org/2000/svg" width="32" height="32" viewBox="0 0 32 32">
<path d="M30.902 1.098c-0.703-0.703-1.657-1.098-2.652-1.098h-24.5c-0.994 0-1.948 0.395-2.652 1.098s-1.098 1.658-1.098 2.652v24.5c0 0.994 0.395 1.948 1.098 2.652s1.657 1.098 2.652 1.098h24.5c0.994 0 1.948-0.395 2.652-1.098s1.098-1.657 1.098-2.652v-24.5c0-0.994-0.395-1.948-1.098-2.652zM30.688 28.25c-0.001 0.646-0.258 1.266-0.715 1.723s-1.076 0.714-1.723 0.715h-24.5c-0.646-0.001-1.266-0.258-1.723-0.715s-0.714-1.076-0.715-1.723v-24.5c0.001-0.646 0.258-1.266 0.715-1.723s1.076-0.714 1.723-0.715h24.5c0.646 0.001 1.266 0.258 1.723 0.715s0.714 1.076 0.715 1.723v24.5z"></path>
<path d="M19.786 14.983c-0.176-0.094-0.381-0.141-0.614-0.141h-0.449v2.316h0.449c0.234 0 0.439-0.047 0.614-0.141s0.311-0.229 0.405-0.405 0.141-0.381 0.141-0.614-0.047-0.438-0.141-0.609c-0.094-0.176-0.229-0.311-0.405-0.405z"></path>
<path d="M19.466 9.064c-0.063-0.071-0.128-0.142-0.196-0.209-0.647-0.647-1.471-1.088-2.368-1.266s-1.827-0.087-2.672 0.263c-0.653 0.271-1.232 0.686-1.696 1.212-2.541 1.272-4.287 3.9-4.287 6.936 0 1.236 0.289 2.403 0.804 3.44-0.073 0.121-0.114 0.26-0.114 0.404 0 0.207 0.082 0.406 0.229 0.552s0.345 0.229 0.553 0.229h0.059c0.723 0.971 1.668 1.766 2.759 2.313h-0.381c-0.207 0-0.406 0.082-0.553 0.229s-0.229 0.345-0.229 0.552 0.082 0.406 0.229 0.552 0.345 0.229 0.553 0.229h7.75c0.207 0 0.406-0.082 0.552-0.229s0.229-0.345 0.229-0.552-0.082-0.406-0.229-0.552c-0.146-0.146-0.345-0.229-0.552-0.229h-0.443c1.091-0.546 2.036-1.342 2.759-2.313h0.121c0.207 0 0.406-0.082 0.552-0.229s0.229-0.345 0.229-0.552c0-0.166-0.053-0.325-0.149-0.457 0.497-1.023 0.777-2.172 0.777-3.386 0-3.036-1.745-5.664-4.287-6.936zM21.088 15.998c0 0.351-0.079 0.665-0.239 0.941-0.159 0.273-0.387 0.488-0.683 0.644-0.293 0.156-0.631 0.234-1.014 0.234h-1.185v-3.633h1.185c0.387 0 0.726 0.078 1.019 0.234 0.293 0.153 0.519 0.367 0.678 0.644 0.159 0.273 0.239 0.585 0.239 0.936zM15.301 14.183h0.756v2.975h1.536v0.658h-2.292v-3.633zM11.161 15.041c0.169-0.286 0.4-0.511 0.693-0.673 0.296-0.162 0.624-0.244 0.985-0.244s0.688 0.081 0.98 0.244c0.296 0.162 0.527 0.387 0.693 0.673 0.169 0.286 0.254 0.605 0.254 0.956s-0.084 0.669-0.254 0.956c-0.166 0.286-0.397 0.512-0.693 0.678-0.293 0.163-0.619 0.244-0.98 0.244s-0.689-0.081-0.985-0.244c-0.293-0.166-0.524-0.392-0.693-0.678-0.166-0.286-0.249-0.604-0.249-0.956s0.083-0.67 0.249-0.956z"></path>
<path d="M12.243 17.041c0.179 0.101 0.377 0.151 0.595 0.151s0.416-0.051 0.595-0.151c0.179-0.104 0.319-0.246 0.419-0.424 0.104-0.182 0.156-0.389 0.156-0.619s-0.052-0.436-0.156-0.614c-0.101-0.182-0.241-0.324-0.419-0.424-0.176-0.101-0.374-0.151-0.595-0.151s-0.421 0.051-0.6 0.151c-0.176 0.101-0.316 0.242-0.419 0.424-0.101 0.179-0.151 0.384-0.151 0.614s0.051 0.438 0.151 0.619c0.104 0.179 0.246 0.32 0.424 0.424z"></path>
</svg>
