<!-- Generated by IcoMoon.io -->
<svg version="1.1" xmlns="http://www.w3.org/2000/svg" width="32" height="32" viewBox="0 0 32 32">
<path d="M3.75 32c-0.995 0-1.948-0.395-2.652-1.098s-1.098-1.657-1.098-2.652v-24.5c0-0.995 0.395-1.948 1.098-2.652s1.657-1.098 2.652-1.098h24.5c0.995 0 1.948 0.395 2.652 1.098s1.098 1.657 1.098 2.652v24.5c0 0.995-0.395 1.948-1.098 2.652s-1.657 1.098-2.652 1.098h-24.5zM1.313 3.75v24.5c0.001 0.646 0.258 1.266 0.715 1.723s1.076 0.714 1.723 0.715h24.5c0.646-0.001 1.266-0.258 1.723-0.715s0.714-1.076 0.715-1.723v-24.5c-0.001-0.646-0.258-1.266-0.715-1.723s-1.076-0.714-1.723-0.715h-24.5c-0.646 0.001-1.266 0.258-1.723 0.715s-0.714 1.076-0.715 1.723zM12.156 24.5c-0.207 0-0.406-0.082-0.552-0.229s-0.229-0.345-0.229-0.552c0-0.207 0.082-0.406 0.229-0.552s0.345-0.229 0.552-0.229h7.75c0.207 0 0.406 0.082 0.552 0.229s0.229 0.345 0.229 0.552c0 0.207-0.082 0.406-0.229 0.552s-0.345 0.229-0.552 0.229h-7.75zM9.719 20.625c-0.207 0-0.406-0.082-0.552-0.229s-0.229-0.345-0.229-0.552c0-0.207 0.082-0.406 0.229-0.552s0.345-0.229 0.552-0.229h12.625c0.207 0 0.406 0.082 0.552 0.229s0.229 0.345 0.229 0.552c0 0.207-0.082 0.406-0.229 0.552s-0.345 0.229-0.552 0.229h-12.625zM11.375 12.125c0-0.915 0.271-1.809 0.779-2.569s1.231-1.353 2.076-1.703c0.845-0.35 1.775-0.442 2.672-0.263s1.721 0.619 2.368 1.266 1.087 1.471 1.266 2.368c0.178 0.897 0.087 1.827-0.263 2.672s-0.943 1.567-1.703 2.076-1.655 0.779-2.57 0.779c-1.227 0-2.403-0.487-3.27-1.355s-1.355-2.044-1.355-3.27zM12.688 12.125c0 0.655 0.194 1.296 0.558 1.84s0.881 0.969 1.487 1.22c0.605 0.251 1.271 0.316 1.914 0.188s1.233-0.443 1.696-0.907c0.463-0.463 0.779-1.053 0.907-1.696s0.062-1.309-0.189-1.914c-0.251-0.605-0.675-1.123-1.22-1.487s-1.185-0.558-1.84-0.558c-0.878 0.001-1.72 0.35-2.341 0.971s-0.97 1.463-0.971 2.341z"></path>
</svg>
