<!-- Generated by IcoMoon.io -->
<svg version="1.1" xmlns="http://www.w3.org/2000/svg" width="32" height="32" viewBox="0 0 32 32">
<path fill="#195ec8" d="M31.424 5.066c-0.003-0.193-0.007-0.36-0.007-0.501h-5.511c0.106-2.36 0.035-4.364 0.035-4.364h-9.721c-0.023 0-0.046 0.001-0.068 0.004-0.023-0.002-0.045-0.004-0.068-0.004h-9.745c0 0-0.071 2.003 0.035 4.364h-5.486v2.182h0.011c0.055 1.779 0.34 4.159 1.523 6.595 1.003 2.066 2.449 3.795 4.295 5.139 1.529 1.112 3.276 1.913 5.196 2.392 1.109 1.184 2.203 1.836 3.157 2.098v2.429c-0.136 0.722-0.964 3.165-6.734 3.165h-0.902v2.182h17.455v-2.182h-0.899c-6.769 0-6.738-3.364-6.738-3.364v-2.23c0.954-0.262 2.027-0.912 3.13-2.089 1.934-0.478 3.687-1.282 5.225-2.401 1.846-1.343 3.29-3.072 4.294-5.139 1.615-3.325 1.555-6.546 1.523-8.276zM4.383 12.389c-0.986-2.030-1.244-4.074-1.301-5.642h3.442c0.059 0.608 0.134 1.207 0.229 1.771 0.58 3.457 1.378 6.511 2.888 9.205-2.307-1.169-4.119-2.989-5.258-5.335zM27.938 12.389c-1.146 2.36-2.973 4.188-5.3 5.356 1.515-2.7 2.306-5.76 2.888-9.226 0.095-0.565 0.17-1.164 0.229-1.771h3.484c-0.057 1.568-0.314 3.611-1.3 5.642z"></path>
</svg>
