<!-- Generated by IcoMoon.io -->
<svg version="1.1" xmlns="http://www.w3.org/2000/svg" width="32" height="32" viewBox="0 0 32 32">
<path d="M8 1.333c0.736 0 1.333 0.597 1.333 1.333v0.122c1.463-0.122 3.218-0.122 5.295-0.122h2.743c2.077-0 3.832-0 5.295 0.122v-0.122c0-0.736 0.597-1.333 1.333-1.333s1.333 0.597 1.333 1.333v0.598c1.015 0.322 1.897 0.828 2.643 1.634 1.105 1.194 1.58 2.691 1.805 4.499 0.219 1.76 0.219 4.007 0.219 6.834v0.87c0 2.826 0 5.073-0.219 6.834-0.225 1.808-0.7 3.305-1.805 4.499-1.118 1.209-2.543 1.743-4.263 1.993-1.648 0.239-3.743 0.239-6.341 0.239h-2.743c-2.598 0-4.693 0-6.341-0.239-1.72-0.25-3.145-0.784-4.263-1.993-1.105-1.194-1.58-2.691-1.805-4.499-0.219-1.76-0.219-4.007-0.219-6.834v-0.87c-0-2.826-0-5.073 0.219-6.834 0.225-1.808 0.7-3.304 1.805-4.499 0.746-0.806 1.628-1.312 2.643-1.634v-0.598c0-0.736 0.597-1.333 1.333-1.333zM6.873 6.046c-0.362 0.18-0.647 0.4-0.891 0.664-0.515 0.557-0.859 1.319-1.062 2.623h22.16c-0.203-1.304-0.547-2.066-1.062-2.623-0.245-0.265-0.529-0.484-0.891-0.664-0.236 0.373-0.653 0.621-1.127 0.621-0.691 0-1.26-0.526-1.327-1.2-1.348-0.131-3.075-0.133-5.407-0.133h-2.533c-2.331 0-4.058 0.002-5.407 0.133-0.067 0.674-0.635 1.2-1.327 1.2-0.474 0-0.891-0.248-1.127-0.621zM27.293 12h-22.587c-0.039 1.198-0.040 2.616-0.040 4.324v0.685c0 2.94 0.002 5.020 0.199 6.597 0.193 1.548 0.552 2.406 1.116 3.017 0.551 0.596 1.305 0.964 2.689 1.165 1.434 0.208 3.335 0.212 6.063 0.212h2.533c2.728 0 4.629-0.003 6.063-0.212 1.384-0.201 2.138-0.569 2.689-1.165 0.565-0.611 0.924-1.469 1.116-3.017 0.196-1.577 0.199-3.657 0.199-6.597v-0.685c0-1.708-0.001-3.127-0.040-4.324zM9.333 17.333c0-0.736 0.597-1.333 1.333-1.333h0.012c0.736 0 1.333 0.597 1.333 1.333s-0.597 1.333-1.333 1.333h-0.012c-0.736 0-1.333-0.597-1.333-1.333zM14.661 17.333c0-0.736 0.597-1.333 1.333-1.333h0.012c0.736 0 1.333 0.597 1.333 1.333s-0.597 1.333-1.333 1.333h-0.012c-0.736 0-1.333-0.597-1.333-1.333zM19.988 17.333c0-0.736 0.597-1.333 1.333-1.333h0.012c0.736 0 1.333 0.597 1.333 1.333s-0.597 1.333-1.333 1.333h-0.012c-0.737 0-1.333-0.597-1.333-1.333zM9.333 22.667c0-0.736 0.597-1.333 1.333-1.333h0.012c0.736 0 1.333 0.597 1.333 1.333s-0.597 1.333-1.333 1.333h-0.012c-0.736 0-1.333-0.597-1.333-1.333zM14.661 22.667c0-0.736 0.597-1.333 1.333-1.333h0.012c0.736 0 1.333 0.597 1.333 1.333s-0.597 1.333-1.333 1.333h-0.012c-0.736 0-1.333-0.597-1.333-1.333z"></path>
</svg>
