<!-- Generated by IcoMoon.io -->
<svg version="1.1" xmlns="http://www.w3.org/2000/svg" width="28" height="32" viewBox="0 0 28 32">
<path fill="#fff" d="M24.093 5.17c0.758 0.047 1.35 0.649 1.404 1.386l0.001 0.204-0.939 15.098-0.078 0.97-0.088 0.845c-0.205 1.706-0.515 2.644-1.161 3.569-0.542 0.778-1.241 1.434-2.050 1.927-0.117 0.071-0.232 0.138-0.346 0.199l-0.345 0.171c-0.521 0.237-1.076 0.386-1.846 0.479l-0.547 0.054-0.623 0.040-0.71 0.027-1.255 0.022-2.586 0.003-1.389-0.017-0.781-0.024-0.681-0.037c-0.318-0.022-0.603-0.049-0.863-0.084l-0.49-0.079c-0.307-0.059-0.58-0.133-0.835-0.223l-0.372-0.149-0.36-0.177c-0.12-0.064-0.239-0.133-0.362-0.208-0.81-0.494-1.509-1.152-2.051-1.931l-0.22-0.334c-0.034-0.055-0.067-0.111-0.099-0.166l-0.179-0.338c-0.166-0.345-0.297-0.716-0.404-1.166l-0.1-0.479c-0.015-0.085-0.030-0.172-0.045-0.263l-0.082-0.58c-0.013-0.103-0.025-0.21-0.037-0.32l-0.070-0.708-0.098-1.253-0.097-1.518-0.806-13.354c-0.050-0.827 0.58-1.538 1.407-1.588 0.758-0.046 1.418 0.48 1.562 1.205l0.026 0.202 0.866 14.312 0.086 1.206 0.058 0.666 0.060 0.569 0.064 0.483 0.070 0.408 0.078 0.344 0.087 0.291c0.031 0.089 0.064 0.172 0.099 0.249l0.112 0.219 0.127 0.2c0.304 0.437 0.696 0.806 1.15 1.083l0.207 0.115 0.225 0.098c0.119 0.045 0.249 0.085 0.397 0.12l0.32 0.063c0.116 0.019 0.241 0.036 0.378 0.051l0.447 0.040 0.527 0.030 0.966 0.029 1.673 0.015 2.345-0.010 1.073-0.026 0.582-0.028c0.089-0.006 0.174-0.011 0.256-0.018l0.449-0.044 0.377-0.057c0.058-0.011 0.113-0.022 0.166-0.033l0.293-0.078 0.253-0.093c0.119-0.051 0.227-0.108 0.333-0.172 0.454-0.276 0.845-0.644 1.15-1.081 0.245-0.352 0.413-0.788 0.543-1.533l0.082-0.544 0.074-0.65 0.068-0.77 0.14-2.088 0.826-13.367c0.051-0.827 0.763-1.456 1.59-1.405z"></path>
<path fill="#fff" d="M2 8.167c-0.828 0-1.5-0.672-1.5-1.5 0-0.759 0.564-1.387 1.296-1.486l0.204-0.014 5.772-0.001 0.795-1.733 0.267-0.539 0.154-0.278c0.026-0.044 0.052-0.089 0.080-0.134 0.283-0.464 0.589-0.825 0.976-1.121 0.183-0.14 0.377-0.265 0.58-0.373l0.319-0.156 0.313-0.119c0.266-0.085 0.553-0.137 0.929-0.168l0.499-0.028 0.612-0.013 1.529 0 0.626 0.015c0.933 0.038 1.361 0.148 1.942 0.449 0.2 0.104 0.392 0.224 0.573 0.359 0.512 0.382 0.796 0.712 1.219 1.491l0.307 0.592 0.855 1.756 5.654 0.001c0.828 0 1.5 0.672 1.5 1.5 0 0.759-0.564 1.387-1.296 1.486l-0.204 0.014h-24zM14.92 3.506l-1.504-0.003-0.495 0.009-0.493 0.028c-0.041 0.004-0.078 0.009-0.112 0.014l-0.168 0.036c-0.046 0.014-0.083 0.029-0.117 0.047-0.057 0.030-0.111 0.065-0.162 0.104s-0.103 0.095-0.169 0.192l-0.129 0.209-0.198 0.379-0.302 0.643 5.941 0.003-0.352-0.703-0.167-0.308-0.128-0.208-0.103-0.133c-0.032-0.035-0.061-0.061-0.091-0.083-0.050-0.037-0.104-0.071-0.16-0.1l-0.115-0.045-0.164-0.034c-0.033-0.005-0.069-0.009-0.11-0.013l-0.292-0.020-0.412-0.012z"></path>
<path fill="#fff" d="M10.666 11.833c0.759 0 1.387 0.564 1.486 1.296l0.014 0.204v8c0 0.828-0.672 1.5-1.5 1.5-0.759 0-1.387-0.564-1.486-1.296l-0.014-0.204v-8c0-0.828 0.672-1.5 1.5-1.5z"></path>
<path fill="#fff" d="M17.334 11.833c0.759 0 1.387 0.564 1.486 1.296l0.014 0.204v8c0 0.828-0.672 1.5-1.5 1.5-0.759 0-1.387-0.564-1.486-1.296l-0.014-0.204v-8c0-0.828 0.672-1.5 1.5-1.5z"></path>
</svg>
