<!-- Generated by IcoMoon.io -->
<svg version="1.1" xmlns="http://www.w3.org/2000/svg" width="32" height="32" viewBox="0 0 32 32">
<path d="M5.918 6.003c0.689-0.041 1.288 0.449 1.396 1.116l0.016 0.135 0.806 13.352 0.148 2.239c0.050 0.635 0.104 1.17 0.177 1.636 0.143 0.909 0.338 1.421 0.604 1.804l0.255 0.328c0.271 0.314 0.589 0.585 0.944 0.802l0.156 0.087c0.379 0.195 0.88 0.329 1.682 0.406 0.938 0.090 2.147 0.092 3.885 0.092 1.736 0 2.945-0.002 3.882-0.092 0.915-0.088 1.438-0.249 1.835-0.491l0.344-0.234c0.33-0.251 0.62-0.553 0.858-0.894l0.095-0.149c0.218-0.366 0.383-0.858 0.509-1.653 0.147-0.929 0.224-2.135 0.332-3.868l0.825-13.366 0.016-0.137c0.11-0.666 0.709-1.155 1.398-1.113s1.223 0.602 1.25 1.278v0.135l-0.826 13.368c-0.104 1.681-0.187 3.037-0.359 4.121-0.154 0.968-0.391 1.822-0.844 2.587l-0.207 0.321c-0.529 0.758-1.212 1.397-2.002 1.878l0.002 0.002c-0.881 0.537-1.854 0.763-2.969 0.87-1.093 0.105-2.452 0.104-4.137 0.104-1.687 0-3.046 0.001-4.141-0.104-0.977-0.094-1.845-0.279-2.637-0.684l-0.333-0.188c-0.692-0.422-1.3-0.966-1.795-1.604l-0.207-0.279c-0.589-0.847-0.874-1.804-1.049-2.911-0.085-0.543-0.149-1.155-0.203-1.84l-0.149-2.288-0.807-13.354v-0.135c0.027-0.676 0.562-1.234 1.252-1.276z"></path>
<path d="M16.045 1.333c0.67 0 1.26-0.001 1.752 0.043 0.516 0.046 1.021 0.148 1.519 0.406l0.283 0.161c0.091 0.057 0.181 0.118 0.267 0.182l0.313 0.266c0.29 0.278 0.517 0.592 0.717 0.925 0.254 0.423 0.51 0.953 0.802 1.556l0.545 1.127h5.757c0.736 0 1.333 0.597 1.333 1.333s-0.597 1.333-1.333 1.333h-24c-0.736 0-1.333-0.597-1.333-1.333s0.597-1.333 1.333-1.333h5.88l0.451-0.991 0.405-0.877c0.129-0.27 0.255-0.517 0.38-0.736 0.263-0.46 0.573-0.887 1.028-1.236l0.271-0.191c0.093-0.060 0.189-0.115 0.286-0.167l0.382-0.174c0.384-0.146 0.774-0.214 1.17-0.25 0.503-0.046 1.106-0.045 1.792-0.045zM16.045 4c-0.734 0-1.196 0.001-1.55 0.033-0.165 0.015-0.28 0.036-0.365 0.057l-0.177 0.066-0.186 0.12c-0.072 0.056-0.172 0.155-0.335 0.441-0.166 0.291-0.347 0.681-0.622 1.283h6.469c-0.302-0.623-0.495-1.019-0.67-1.311-0.166-0.276-0.265-0.372-0.337-0.425h-0.002l-0.182-0.115c-0.079-0.041-0.209-0.088-0.529-0.116-0.346-0.031-0.797-0.033-1.514-0.033z"></path>
<path d="M11.333 22v-8c0-0.736 0.597-1.333 1.333-1.333s1.333 0.597 1.333 1.333v8c0 0.736-0.597 1.333-1.333 1.333s-1.333-0.597-1.333-1.333z"></path>
<path d="M18 22v-8c0-0.736 0.597-1.333 1.333-1.333s1.333 0.597 1.333 1.333v8c0 0.736-0.597 1.333-1.333 1.333s-1.333-0.597-1.333-1.333z"></path>
</svg>
