<svg width="512" height="512" viewBox="0 0 512 512" fill="none" xmlns="http://www.w3.org/2000/svg">
<path d="M25.9503 413.683C12.8273 413.683 2.15234 424.358 2.15234 437.481V486.05C2.15234 499.173 12.8273 509.848 25.9503 509.848H74.5193C87.6423 509.848 98.3173 499.173 98.3173 486.05V469.7H413.683V486.05C413.683 499.173 424.358 509.848 437.481 509.848H486.05C499.173 509.848 509.848 499.173 509.848 486.05V437.481C509.848 424.358 499.173 413.683 486.05 413.683H469.7V98.317H486.05C499.173 98.317 509.848 87.642 509.848 74.519V25.95C509.848 12.827 499.173 2.15198 486.05 2.15198H437.481C424.358 2.15198 413.683 12.827 413.683 25.95V42.3H98.3173V25.95C98.3173 12.827 87.6423 2.15198 74.5193 2.15198H25.9503C12.8273 2.15198 2.15234 12.827 2.15234 25.95V74.519C2.15234 87.642 12.8273 98.317 25.9503 98.317H42.3003V413.683H25.9503ZM82.4513 486.05C82.4513 490.423 78.8913 493.983 74.5183 493.983H25.9503C21.5773 493.983 18.0173 490.423 18.0173 486.05V437.481C18.0173 433.108 21.5773 429.548 25.9503 429.548H74.5193C78.8923 429.548 82.4523 433.108 82.4523 437.481V486.05H82.4513ZM493.983 437.481V486.05C493.983 490.423 490.423 493.983 486.05 493.983H437.481C433.108 493.983 429.548 490.423 429.548 486.05V437.481C429.548 433.108 433.108 429.548 437.481 429.548H486.05C490.423 429.549 493.983 433.108 493.983 437.481ZM429.549 25.95C429.549 21.577 433.109 18.017 437.482 18.017H486.051C490.424 18.017 493.984 21.577 493.984 25.95V74.519C493.984 78.892 490.424 82.452 486.051 82.452H437.482C433.109 82.452 429.549 78.892 429.549 74.519V25.95ZM18.0173 74.519V25.95C18.0173 21.577 21.5773 18.017 25.9503 18.017H74.5193C78.8923 18.017 82.4523 21.577 82.4523 25.95V74.519C82.4523 78.892 78.8923 82.452 74.5193 82.452H25.9503C21.5773 82.451 18.0173 78.892 18.0173 74.519ZM58.1653 98.317H74.5193C87.6423 98.317 98.3173 87.642 98.3173 74.519V58.165H413.683V74.519C413.683 87.642 424.358 98.317 437.481 98.317H453.835V413.683H437.481C424.358 413.683 413.683 424.358 413.683 437.481V453.835H98.3173V437.481C98.3173 424.358 87.6423 413.683 74.5193 413.683H58.1653V98.317Z" fill="black"/>
<path d="M118.529 136.555C118.533 136.555 118.537 136.555 118.537 136.555L144.179 136.524V196.365C144.179 200.746 147.731 204.298 152.112 204.298C156.493 204.298 160.045 200.746 160.045 196.365V136.505L185.54 136.474C189.925 136.47 193.469 132.914 193.465 128.533C193.461 124.152 189.909 120.608 185.532 120.608C185.528 120.608 185.524 120.608 185.524 120.608L118.522 120.689C114.137 120.693 110.593 124.249 110.597 128.63C110.6 133.011 114.152 136.555 118.529 136.555ZM203.113 194.959H393.472C397.853 194.959 401.405 191.407 401.405 187.026C401.405 182.645 397.853 179.093 393.472 179.093H203.113C198.732 179.093 195.18 182.645 195.18 187.026C195.181 191.407 198.732 194.959 203.113 194.959ZM118.529 251.069H393.472C397.853 251.069 401.405 247.517 401.405 243.136C401.405 238.755 397.853 235.203 393.472 235.203H118.529C114.148 235.203 110.596 238.755 110.596 243.136C110.596 247.517 114.149 251.069 118.529 251.069ZM118.529 297.845H393.472C397.853 297.845 401.405 294.293 401.405 289.912C401.405 285.531 397.853 281.979 393.472 281.979H118.529C114.148 281.979 110.596 285.531 110.596 289.912C110.597 294.293 114.149 297.845 118.529 297.845ZM118.529 344.62H393.472C397.853 344.62 401.405 341.068 401.405 336.687C401.405 332.306 397.853 328.754 393.472 328.754H118.529C114.148 328.754 110.596 332.306 110.596 336.687C110.597 341.068 114.149 344.62 118.529 344.62ZM118.529 391.392H270.406C274.787 391.392 278.339 387.84 278.339 383.459C278.339 379.078 274.787 375.526 270.406 375.526H118.529C114.148 375.526 110.596 379.078 110.596 383.459C110.597 387.84 114.149 391.392 118.529 391.392Z" fill="black"/>
</svg>
