<!-- Generated by IcoMoon.io -->
<svg version="1.1" xmlns="http://www.w3.org/2000/svg" width="32" height="32" viewBox="0 0 32 32">
<path d="M10.667 6.667c0-0.736 0.597-1.333 1.333-1.333h16c0.736 0 1.333 0.597 1.333 1.333s-0.597 1.333-1.333 1.333h-16c-0.736 0-1.333-0.597-1.333-1.333z"></path>
<path d="M2.667 6.667c0-0.736 0.597-1.333 1.333-1.333h2.667c0.736 0 1.333 0.597 1.333 1.333s-0.597 1.333-1.333 1.333h-2.667c-0.736 0-1.333-0.597-1.333-1.333z"></path>
<path d="M10.667 16c0-0.736 0.597-1.333 1.333-1.333h16c0.736 0 1.333 0.597 1.333 1.333s-0.597 1.333-1.333 1.333h-16c-0.736 0-1.333-0.597-1.333-1.333z"></path>
<path d="M2.667 16c0-0.736 0.597-1.333 1.333-1.333h2.667c0.736 0 1.333 0.597 1.333 1.333s-0.597 1.333-1.333 1.333h-2.667c-0.736 0-1.333-0.597-1.333-1.333z"></path>
<path d="M10.667 25.333c0-0.736 0.597-1.333 1.333-1.333h16c0.736 0 1.333 0.597 1.333 1.333s-0.597 1.333-1.333 1.333h-16c-0.736 0-1.333-0.597-1.333-1.333z"></path>
<path d="M2.667 25.333c0-0.736 0.597-1.333 1.333-1.333h2.667c0.736 0 1.333 0.597 1.333 1.333s-0.597 1.333-1.333 1.333h-2.667c-0.736 0-1.333-0.597-1.333-1.333z"></path>
</svg>
