<!-- Generated by IcoMoon.io -->
<svg version="1.1" xmlns="http://www.w3.org/2000/svg" width="32" height="32" viewBox="0 0 32 32">
<path d="M14.321 31.999c-0.005 0-0.011 0-0.016 0-0.989 0-1.956-0.099-2.89-0.287l0.093 0.016c-1.015-0.201-1.909-0.479-2.759-0.84l0.091 0.034c-0.942-0.396-1.749-0.837-2.505-1.348l0.050 0.032c-0.819-0.553-1.534-1.146-2.187-1.801l-0-0c-0.658-0.648-1.25-1.36-1.765-2.128l-0.031-0.049c-0.477-0.705-0.917-1.511-1.28-2.36l-0.036-0.095c-0.327-0.759-0.605-1.653-0.791-2.579l-0.015-0.089c-0.173-0.842-0.272-1.811-0.272-2.802 0-0.006 0-0.012 0-0.018v0.001c0-0.005 0-0.011 0-0.016 0-0.989 0.099-1.956 0.287-2.89l-0.016 0.093c0.201-1.015 0.479-1.909 0.84-2.759l-0.034 0.091c0.398-0.943 0.839-1.75 1.349-2.506l-0.033 0.052c0.548-0.818 1.141-1.531 1.799-2.178l0.002-0.002c0.653-0.655 1.369-1.248 2.137-1.769l0.051-0.032c0.705-0.479 1.512-0.92 2.361-1.281l0.093-0.035c0.759-0.327 1.653-0.605 2.579-0.791l0.089-0.015c0.841-0.172 1.807-0.271 2.797-0.271 0.006 0 0.012 0 0.017 0h-0.001c0.006-0 0.012-0 0.019-0 0.231 0 0.439 0.094 0.589 0.247l0 0c0.152 0.147 0.247 0.353 0.247 0.581 0 0.004-0 0.008-0 0.012v-0.001c0 0.003 0 0.007 0 0.011 0 0.228-0.094 0.434-0.246 0.581l-0 0c-0.15 0.152-0.359 0.247-0.589 0.247-0.007 0-0.013-0-0.020-0l0.001 0c-0.021-0-0.045-0-0.070-0-1.747 0-3.408 0.366-4.912 1.027l0.078-0.031c-1.561 0.676-2.895 1.588-4.023 2.707l0.001-0.001c-1.125 1.123-2.040 2.455-2.683 3.933l-0.032 0.082c-0.629 1.427-0.996 3.092-0.996 4.842 0 0.027 0 0.054 0 0.081l-0-0.004c-0 0.023-0 0.050-0 0.077 0 1.75 0.366 3.414 1.027 4.92l-0.031-0.079c0.675 1.56 1.59 2.892 2.715 4.015l0 0c1.126 1.117 2.459 2.028 3.935 2.671l0.083 0.032c1.425 0.629 3.086 0.996 4.833 0.996 0.024 0 0.049-0 0.073-0l-0.004 0c0.023 0 0.050 0 0.077 0 1.75 0 3.414-0.366 4.92-1.027l-0.079 0.031c1.561-0.676 2.895-1.588 4.023-2.707l-0.001 0.001c1.124-1.122 2.037-2.454 2.675-3.933l0.031-0.082c0.624-1.428 0.987-3.091 0.987-4.84 0-0.028-0-0.055-0-0.083l0 0.004c-0-0.003-0-0.007-0-0.011 0-0.228 0.094-0.434 0.246-0.581l0-0c0.15-0.152 0.359-0.247 0.589-0.247 0.007 0 0.013 0 0.020 0l-0.001-0c0.003-0 0.007-0 0.011-0 0.228 0 0.434 0.094 0.581 0.246l0 0c0.152 0.147 0.247 0.353 0.247 0.581 0 0.004-0 0.008-0 0.012v-0.001c0 0.004 0 0.009 0 0.014 0 0.991-0.102 1.957-0.296 2.89l0.016-0.092c-0.207 1.020-0.485 1.913-0.842 2.765l0.036-0.097c-0.39 0.945-0.827 1.754-1.335 2.512l0.032-0.051c-0.548 0.818-1.141 1.531-1.799 2.178l-0.002 0.002c-0.653 0.655-1.369 1.248-2.137 1.769l-0.051 0.032c-0.705 0.48-1.512 0.921-2.362 1.281l-0.093 0.035c-0.758 0.325-1.651 0.603-2.578 0.79l-0.090 0.015c-0.835 0.17-1.794 0.268-2.777 0.268-0.018 0-0.036-0-0.054-0h0.003zM31.17 15.153h-13.477c-0.003 0-0.007 0-0.011 0-0.228 0-0.434-0.094-0.581-0.246l-0-0c-0.152-0.147-0.247-0.353-0.247-0.581 0-0.004 0-0.008 0-0.012v0.001-13.474c-0-0.003-0-0.007-0-0.011 0-0.228 0.094-0.434 0.246-0.581l0-0c0.147-0.152 0.353-0.247 0.581-0.247 0.004 0 0.008 0 0.012 0h-0.001c0.005 0 0.011 0 0.016 0 0.989 0 1.956 0.099 2.89 0.287l-0.093-0.016c1.018 0.202 1.913 0.48 2.766 0.84l-0.092-0.035c0.942 0.395 1.749 0.836 2.504 1.348l-0.050-0.032c0.819 0.553 1.534 1.146 2.187 1.801l0 0c0.651 0.65 1.239 1.363 1.753 2.13l0.032 0.051c0.477 0.705 0.918 1.511 1.28 2.36l0.036 0.095c0.326 0.757 0.607 1.65 0.798 2.576l0.016 0.092c0.181 0.847 0.285 1.82 0.286 2.818v0.001c0 0.003 0 0.007 0 0.011 0 0.228-0.094 0.434-0.246 0.581l-0 0c-0.15 0.151-0.358 0.245-0.587 0.245-0.007 0-0.014-0-0.021-0l0.001 0zM18.534 13.475h11.782c-0.108-1.632-0.516-3.144-1.168-4.517l0.032 0.075c-0.663-1.41-1.518-2.615-2.55-3.644l-0-0c-1.034-1.027-2.241-1.882-3.573-2.517l-0.079-0.034c-1.298-0.625-2.811-1.031-4.409-1.125l-0.033-0.002z"></path>
</svg>
