<!-- Generated by IcoMoon.io -->
<svg version="1.1" xmlns="http://www.w3.org/2000/svg" width="30" height="32" viewBox="0 0 30 32">
<path fill="#227aff" d="M15 31c8.285 0 15-6.715 15-15s-6.715-15-15-15c-8.284 0-15 6.715-15 15s6.715 15 15 15zM20.304 10.696c0.282-0.281 0.664-0.439 1.062-0.439s0.78 0.159 1.061 0.44c0.281 0.282 0.439 0.664 0.439 1.062s-0.159 0.78-0.44 1.061l-8.486 8.486c-0.139 0.14-0.304 0.251-0.486 0.326s-0.377 0.115-0.574 0.115-0.392-0.039-0.574-0.115c-0.182-0.076-0.347-0.187-0.486-0.326l-0.006-0.006-4.237-4.237c-0.143-0.138-0.258-0.304-0.336-0.487s-0.12-0.38-0.122-0.579c-0.002-0.199 0.036-0.397 0.112-0.581s0.187-0.352 0.328-0.493c0.141-0.141 0.308-0.252 0.493-0.328s0.382-0.113 0.581-0.112c0.199 0.002 0.396 0.043 0.579 0.122s0.349 0.193 0.487 0.336l3.183 3.182 7.425-7.427z"></path>
</svg>
