<!-- Generated by IcoMoon.io -->
<svg version="1.1" xmlns="http://www.w3.org/2000/svg" width="32" height="32" viewBox="0 0 32 32">
<path d="M23.765 15.435c-0.312-0.312-0.819-0.312-1.131 0l-6.634 6.634v-18.069c0-0.442-0.358-0.8-0.8-0.8s-0.8 0.358-0.8 0.8v18.069l-6.634-6.634c-0.312-0.312-0.819-0.312-1.131 0s-0.312 0.819 0 1.131l8 8c0.157 0.157 0.362 0.234 0.566 0.234s0.41-0.078 0.566-0.235l8-8c0.312-0.312 0.312-0.819 0-1.131z"></path>
<path d="M28 30.4h-25.6c-1.323 0-2.4-1.077-2.4-2.4v-3.2c0-0.442 0.358-0.8 0.8-0.8s0.8 0.358 0.8 0.8v3.2c0 0.442 0.358 0.8 0.8 0.8h25.6c0.442 0 0.8-0.358 0.8-0.8v-3.2c0-0.442 0.358-0.8 0.8-0.8s0.8 0.358 0.8 0.8v3.2c0 1.323-1.077 2.4-2.4 2.4z"></path>
</svg>
