<!-- Generated by IcoMoon.io -->
<svg version="1.1" xmlns="http://www.w3.org/2000/svg" width="32" height="32" viewBox="0 0 32 32">
<path d="M3.556 17.41c-0.522 0.189-0.889 0.68-0.889 1.257 0 0.159 0.028 0.312 0.079 0.454l-0.003-0.009 0.313 0.882c0.607 1.719 1.063 3.034 1.594 4.128s1.18 2.004 2.097 2.653c0.918 0.649 1.989 0.957 3.198 1.094s2.604 0.132 4.427 0.132h3.257c1.823 0 3.218 0.004 4.427-0.132s2.28-0.445 3.198-1.094c0.917-0.649 1.566-1.558 2.097-2.653s0.987-2.409 1.594-4.128l0.313-0.882c0.048-0.132 0.076-0.285 0.076-0.444 0-0.577-0.367-1.068-0.879-1.254l-0.009-0.003c-0.132-0.048-0.285-0.076-0.444-0.076-0.577 0-1.068 0.367-1.254 0.879l-0.003 0.009-0.313 0.885c-0.607 1.719-1.057 2.981-1.479 3.851s-0.769 1.308-1.236 1.639c-0.467 0.33-0.998 0.513-1.958 0.622s-2.305 0.115-4.128 0.115h-3.257c-1.823 0-3.165-0.006-4.125-0.115s-1.491-0.291-1.958-0.622c-0.467-0.33-0.818-0.769-1.24-1.639s-0.872-2.131-1.479-3.851l-0.313-0.885c-0.189-0.522-0.68-0.889-1.257-0.889-0.159 0-0.312 0.028-0.454 0.079l0.009-0.003z"></path>
<path d="M16 4c-0.736 0-1.333 0.597-1.333 1.333v0 10.351c-0.35-0.451-0.706-0.933-1.045-1.281-0.242-0.249-0.581-0.403-0.955-0.403-0.362 0-0.691 0.144-0.931 0.379l0-0c-0.249 0.242-0.403 0.581-0.403 0.955 0 0.362 0.144 0.691 0.379 0.931l-0-0c0.129 0.133 0.818 1.046 1.5 1.851 0.341 0.402 0.698 0.8 1.101 1.142s0.821 0.743 1.688 0.743c0.866 0 1.285-0.4 1.688-0.743s0.76-0.74 1.101-1.142c0.682-0.805 1.371-1.718 1.5-1.851 0.234-0.24 0.378-0.568 0.378-0.931 0-0.374-0.154-0.712-0.402-0.955l-0-0c-0.24-0.234-0.568-0.378-0.931-0.378-0.374 0-0.712 0.154-0.955 0.402l-0 0c-0.339 0.348-0.695 0.83-1.045 1.281v-10.351c0-0.736-0.597-1.333-1.333-1.333v0z"></path>
</svg>
