<!-- Generated by IcoMoon.io -->
<svg version="1.1" xmlns="http://www.w3.org/2000/svg" width="32" height="32" viewBox="0 0 32 32">
<path fill="#227aff" d="M29.5 19.572c-0.9 0-1.5 0.6-1.5 1.5v6c0 0.9-0.6 1.5-1.5 1.5h-21c-0.9 0-1.5-0.6-1.5-1.5v-6c0-0.9-0.6-1.5-1.5-1.5s-1.5 0.6-1.5 1.5v6c0 2.55 1.95 4.5 4.5 4.5h21c2.55 0 4.5-1.95 4.5-4.5v-6c0-0.9-0.6-1.5-1.5-1.5zM14.95 22.122c0.6 0.6 1.5 0.6 2.1 0l6-6c0.6-0.6 0.6-1.5 0-2.1s-1.5-0.6-2.1 0l-3.45 3.45v-14.4c0-0.9-0.6-1.5-1.5-1.5s-1.5 0.6-1.5 1.5v14.4l-3.45-3.45c-0.6-0.6-1.5-0.6-2.1 0s-0.6 1.5 0 2.1l6 6z"></path>
</svg>
