<!-- Generated by IcoMoon.io -->
<svg version="1.1" xmlns="http://www.w3.org/2000/svg" width="32" height="32" viewBox="0 0 32 32">
<path d="M16 5.333c0.736 0 1.333 0.597 1.333 1.333v10.345c0.076-0.097 0.152-0.193 0.227-0.288 0.020-0.025 0.039-0.050 0.059-0.075l0.003-0.004c0.251-0.319 0.532-0.677 0.755-0.907 0.513-0.528 1.357-0.54 1.885-0.027s0.54 1.357 0.027 1.885c-0.103 0.106-0.285 0.332-0.573 0.7-0.021 0.026-0.042 0.053-0.063 0.080-0.253 0.322-0.554 0.706-0.865 1.072-0.332 0.392-0.713 0.81-1.101 1.141-0.195 0.166-0.422 0.337-0.674 0.471-0.241 0.129-0.593 0.273-1.014 0.273s-0.773-0.144-1.014-0.273c-0.251-0.135-0.479-0.305-0.674-0.471-0.388-0.331-0.769-0.749-1.101-1.141-0.311-0.367-0.612-0.75-0.864-1.072-0.021-0.027-0.042-0.054-0.063-0.080-0.289-0.368-0.47-0.594-0.574-0.7-0.513-0.528-0.501-1.372 0.027-1.885s1.372-0.501 1.885 0.027c0.224 0.23 0.504 0.587 0.755 0.907l0.003 0.004c0.020 0.025 0.039 0.050 0.059 0.075 0.074 0.095 0.15 0.191 0.226 0.288v-10.345c0-0.736 0.597-1.333 1.333-1.333z"></path>
<path d="M5.333 25.333c0-0.736 0.597-1.333 1.333-1.333h18.667c0.736 0 1.333 0.597 1.333 1.333s-0.597 1.333-1.333 1.333h-18.667c-0.736 0-1.333-0.597-1.333-1.333z"></path>
</svg>
