<!-- Generated by IcoMoon.io -->
<svg version="1.1" xmlns="http://www.w3.org/2000/svg" width="32" height="32" viewBox="0 0 32 32">
<path fill="#b3bac2" d="M14.666 23.999c0 1.467-1.2 2.667-2.667 2.667s-2.667-1.2-2.667-2.667c0-1.467 1.2-2.667 2.667-2.667s2.667 1.2 2.667 2.667zM11.999 13.332c-1.467 0-2.667 1.2-2.667 2.667s1.2 2.667 2.667 2.667 2.667-1.2 2.667-2.667c0-1.467-1.2-2.667-2.667-2.667zM11.999 5.332c-1.467 0-2.667 1.2-2.667 2.667s1.2 2.667 2.667 2.667c1.467 0 2.667-1.2 2.667-2.667s-1.2-2.667-2.667-2.667zM19.999 10.666c1.467 0 2.667-1.2 2.667-2.667s-1.2-2.667-2.667-2.667c-1.467 0-2.667 1.2-2.667 2.667s1.2 2.667 2.667 2.667zM19.999 13.332c-1.467 0-2.667 1.2-2.667 2.667s1.2 2.667 2.667 2.667c1.467 0 2.667-1.2 2.667-2.667s-1.2-2.667-2.667-2.667zM19.999 21.332c-1.467 0-2.667 1.2-2.667 2.667s1.2 2.667 2.667 2.667c1.467 0 2.667-1.2 2.667-2.667s-1.2-2.667-2.667-2.667z"></path>
</svg>
