<!-- Generated by IcoMoon.io -->
<svg version="1.1" xmlns="http://www.w3.org/2000/svg" width="32" height="32" viewBox="0 0 32 32">
<path fill="#4d5e6f" d="M16 30.1c-7.8 0-14.1-6.3-14.1-14.1s6.3-14.1 14.1-14.1c7.8 0 14.1 6.3 14.1 14.1s-6.3 14.1-14.1 14.1zM16 3.4c-6.9 0-12.6 5.7-12.6 12.6s5.7 12.6 12.6 12.6c6.9 0 12.6-5.6 12.6-12.6s-5.7-12.6-12.6-12.6z"></path>
<path fill="#4d5e6f" d="M18.7 19.4c-0.2 0-0.4-0.1-0.5-0.2l-2.7-2.7c-0.1-0.1-0.2-0.3-0.2-0.5v-5.3c0-0.4 0.3-0.8 0.8-0.8s0.8 0.3 0.8 0.8v5l2.4 2.4c0.3 0.3 0.3 0.8 0 1.1-0.2 0.1-0.4 0.2-0.6 0.2z"></path>
</svg>
