<!-- Generated by IcoMoon.io -->
<svg version="1.1" xmlns="http://www.w3.org/2000/svg" width="32" height="32" viewBox="0 0 32 32">
<path d="M18.834 1.547c0.027 0.005 0.053 0.011 0.079 0.016 6.706 1.355 11.753 7.29 11.753 14.406 0 8.114-6.564 14.697-14.667 14.697s-14.667-6.583-14.667-14.697c0-4.11 1.685-7.828 4.399-10.494 0.525-0.516 1.369-0.509 1.886 0.017s0.509 1.369-0.017 1.886c-2.223 2.185-3.601 5.226-3.601 8.592 0 6.647 5.375 12.030 12 12.030s12-5.383 12-12.030c0-5.826-4.132-10.685-9.615-11.793-0.285-0.058-0.504-0.102-0.693-0.133-0.142-0.024-0.244-0.036-0.318-0.041-0.037 0.242-0.041 0.599-0.041 1.276v1.336c0 0.736-0.597 1.333-1.333 1.333s-1.333-0.597-1.333-1.333v-1.336c0-0.027 0-0.055-0-0.082-0-0.576-0-1.158 0.079-1.641 0.094-0.575 0.323-1.181 0.898-1.653 0.542-0.444 1.134-0.579 1.716-0.569 0.464 0.008 0.989 0.115 1.476 0.213zM9.825 8.299c0.484-0.394 1.178-0.4 1.668-0.012l7.226 5.706c1.7 1.343 1.709 3.908 0.018 5.262-1.68 1.345-4.188 0.808-5.155-1.122l-4.108-8.203c-0.28-0.559-0.134-1.237 0.35-1.631zM14.541 14.091l1.426 2.848c0.201 0.402 0.739 0.526 1.103 0.235 0.352-0.282 0.351-0.808-0.004-1.088l-2.526-1.995z"></path>
</svg>
