<!-- Generated by IcoMoon.io -->
<svg version="1.1" xmlns="http://www.w3.org/2000/svg" width="32" height="32" viewBox="0 0 32 32">
<path fill="#4d5e6f" d="M14.788 5.645c-1.63 1.63-3.175 2.335-5.169 2.53l-1.435 0.149-0.755 0.094-0.621 0.099c-1.030 0.191-1.504 0.446-2.080 0.973-0.655 0.6-0.992 1.299-1.267 2.415l-0.193 0.89-2.38 12.807-0.155 0.892c-0.381 2.329-0.252 3.037 0.741 4.031 0.935 0.935 1.617 1.104 3.636 0.803l0.823-0.134 0.967-0.175 12.305-2.29 0.764-0.161c1.377-0.313 1.899-0.598 2.54-1.297 0.576-0.628 0.826-1.136 1.024-2.375l0.096-0.685 0.144-1.308c0.017-0.166 0.034-0.341 0.052-0.523 0.195-1.994 0.9-3.538 2.531-5.168 0.669-0.669 0.669-1.755 0-2.424l-9.143-9.144c-0.669-0.67-1.755-0.67-2.424-0zM15.929 9.211l6.857 6.857-0.042 0.055c-1.404 1.802-2.116 3.708-2.332 5.923l-0.153 1.448-0.092 0.707-0.053 0.322-0.048 0.222-0.044 0.138c-0.007 0.017-0.014 0.031-0.021 0.043l-0.049 0.054-0.094 0.054-0.16 0.060-0.245 0.070-0.569 0.13-0.871 0.173-12.751 2.362-1.126 0.188-0.199 0.042 0.064-0.313 0.28-1.646 2.403-12.908 0.084-0.381 0.099-0.384c0.015-0.051 0.029-0.097 0.043-0.137l0.074-0.184c0.022-0.044 0.042-0.071 0.060-0.088l0.029-0.020 0.103-0.042 0.178-0.046 0.444-0.077 0.707-0.092 1.025-0.111c0.134-0.014 0.274-0.028 0.422-0.042 2.215-0.217 4.122-0.928 5.925-2.332l0.052-0.044z"></path>
<path fill="#4d5e6f" d="M12.747 17.022l0.053 0.227c0.068 0.421 0.222 0.789 0.454 1.093l0.189 0.216c0.271 0.271 0.608 0.465 1.002 0.576l0.306 0.067c0.935 0.152 1.569 1.032 1.417 1.967s-1.033 1.569-1.967 1.417c-0.631-0.102-1.23-0.297-1.78-0.58l-7.399 7.399c-0.669 0.669-1.755 0.669-2.424 0-0.609-0.609-0.664-1.561-0.166-2.232l0.166-0.192 7.399-7.4c-0.283-0.55-0.478-1.149-0.58-1.78-0.152-0.935 0.483-1.815 1.417-1.967 0.857-0.139 1.668 0.383 1.914 1.19z"></path>
<path fill="#4d5e6f" d="M20.531 0.6c1.424-0.17 2.317 0.1 3.861 1.408l0.574 0.506 0.64 0.598 1.108 1.083 1.092 1.092 0.777 0.791 0.668 0.701c1.948 2.091 2.348 3.030 2.15 4.691-0.213 1.791-1.29 3.127-3.138 4.492l-0.586 0.416-1.572 1.042-1.924-2.838 1.678-1.115c1.374-0.959 2.057-1.736 2.136-2.402 0.014-0.121-0.002-0.25-0.071-0.413l-0.109-0.212-0.167-0.253-0.234-0.303-0.308-0.362-0.391-0.43-0.758-0.794-1.946-1.952-0.595-0.58-0.508-0.481-0.619-0.554-0.331-0.27-0.276-0.199c-0.042-0.028-0.082-0.053-0.121-0.076l-0.212-0.109c-0.162-0.069-0.292-0.086-0.413-0.071-0.605 0.072-1.302 0.643-2.145 1.779l-0.399 0.566-0.973 1.47-2.838-1.924 1.143-1.718c1.478-2.116 2.878-3.348 4.807-3.578z"></path>
</svg>
