<svg width="16" height="16" fill="none" xmlns="http://www.w3.org/2000/svg"><path d="M11.61 1.281a2.04 2.04 0 0 0-1.023.446c-.32.26-8.801 8.766-8.94 8.966a1.88 1.88 0 0 0-.32.687c-.056.224-.059.285-.059 1.513l-.001 1.28.074.152c.084.17.187.269.366.353.116.054.156.055 1.4.054 1.228 0 1.289-.003 1.513-.059a1.88 1.88 0 0 0 .687-.32c.199-.139 8.707-8.621 8.963-8.936.262-.324.399-.644.45-1.056A2.141 2.141 0 0 0 14.415 3c-.135-.207-1.207-1.279-1.414-1.413a2.107 2.107 0 0 0-.801-.297 1.63 1.63 0 0 0-.59-.009m.508 1.518c.147.071 1.039.969 1.094 1.101a.607.607 0 0 1 0 .432c-.024.057-.213.273-.458.524l-.418.427-.809-.808-.81-.808.427-.42c.235-.23.466-.436.515-.458a.617.617 0 0 1 .459.01M7.874 9.737C6 11.609 4.425 13.163 4.373 13.19c-.083.045-.174.051-.862.059l-.768.008.008-.768c.008-.688.014-.779.059-.862.027-.052 1.581-1.627 3.453-3.5L9.666 4.72l.807.807.808.806-3.407 3.404m-.066 3.553a.735.735 0 0 0-.422.301.739.739 0 0 0 .465 1.129c.094.019.814.026 2.23.021 2.059-.008 2.094-.009 2.212-.063a.714.714 0 0 0 .438-.678.714.714 0 0 0-.438-.678c-.118-.055-.15-.055-2.24-.061-1.652-.004-2.147.003-2.245.029" fill-rule="evenodd" fill="#000"/></svg>