<!-- Generated by IcoMoon.io -->
<svg version="1.1" xmlns="http://www.w3.org/2000/svg" width="34" height="32" viewBox="0 0 34 32">
<path fill="#4d5e6f" d="M27.983 14.656c0 1.329 0 2.658 0 3.987 0 1.63 0 3.259 0 4.889 0 0.27-0.009 0.538-0.044 0.806 0.018-0.136 0.036-0.271 0.055-0.407-0.058 0.417-0.169 0.823-0.331 1.212 0.051-0.122 0.103-0.244 0.154-0.366-0.162 0.378-0.369 0.733-0.619 1.060 0.080-0.103 0.16-0.207 0.239-0.31-0.251 0.323-0.54 0.611-0.862 0.863 0.103-0.080 0.207-0.16 0.31-0.239-0.327 0.25-0.681 0.458-1.059 0.62 0.122-0.051 0.244-0.103 0.366-0.154-0.388 0.163-0.794 0.274-1.211 0.332 0.136-0.018 0.271-0.036 0.407-0.055-0.404 0.053-0.81 0.044-1.216 0.044-0.619 0-1.238 0-1.857 0-1.927 0-3.855 0-5.782 0-1.816 0-3.632 0-5.448 0-0.425 0-0.85 0-1.275 0-0.337 0-0.671 0-1.007-0.044 0.136 0.018 0.271 0.036 0.407 0.055-0.417-0.059-0.823-0.17-1.212-0.332 0.122 0.051 0.244 0.103 0.366 0.154-0.379-0.162-0.733-0.37-1.060-0.62 0.103 0.080 0.207 0.16 0.31 0.239-0.323-0.252-0.612-0.54-0.863-0.863 0.080 0.103 0.16 0.207 0.239 0.31-0.251-0.327-0.458-0.682-0.621-1.060 0.051 0.122 0.103 0.244 0.154 0.366-0.163-0.389-0.274-0.794-0.332-1.212 0.018 0.136 0.036 0.271 0.055 0.407-0.053-0.404-0.044-0.81-0.044-1.216 0-0.619 0-1.238 0-1.857 0-1.927 0-3.855 0-5.782 0-1.816 0-3.632 0-5.448 0-0.425 0-0.85 0-1.275 0-0.337-0-0.671 0.044-1.007-0.018 0.136-0.036 0.271-0.055 0.407 0.059-0.417 0.17-0.823 0.332-1.211-0.051 0.122-0.103 0.244-0.154 0.366 0.162-0.378 0.37-0.733 0.621-1.059-0.080 0.103-0.16 0.207-0.239 0.31 0.252-0.322 0.541-0.611 0.863-0.862-0.103 0.080-0.207 0.16-0.31 0.239 0.327-0.25 0.682-0.458 1.060-0.62-0.122 0.051-0.244 0.103-0.366 0.154 0.389-0.162 0.794-0.273 1.212-0.332-0.136 0.018-0.271 0.036-0.407 0.055 0.512-0.067 1.037-0.044 1.552-0.044 0.874 0 1.747 0 2.621 0 1.729 0 3.459 0 5.188 0 0.106 0 0.213 0 0.319 0 0.835 0 1.531-0.697 1.531-1.531s-0.697-1.531-1.531-1.531c-1.329 0-2.658 0-3.986 0-1.629 0-3.259 0-4.888 0-1.226 0-2.436 0.291-3.483 0.946-1.453 0.91-2.561 2.437-2.862 4.137-0.103 0.583-0.124 1.145-0.124 1.729 0 0.601 0 1.201 0 1.802 0 1.914 0 3.829 0 5.743 0 1.834 0 3.668 0 5.502 0 1.341-0.098 2.739 0.431 4.004 0.18 0.431 0.365 0.843 0.63 1.228 0.258 0.375 0.547 0.737 0.876 1.052 0.677 0.649 1.464 1.102 2.339 1.424 0.742 0.273 1.54 0.34 2.325 0.34 1.369 0 2.737 0 4.106 0 2.031 0 4.061 0 6.092 0 1.455 0 2.911 0 4.366 0 0.643 0 1.274-0.033 1.908-0.174 1.676-0.375 3.17-1.538 4.013-3.023 0.581-1.023 0.82-2.162 0.82-3.33 0-0.666 0-1.332 0-1.997 0-1.911 0-3.821 0-5.732 0-0.363 0-0.725 0-1.088 0-0.835-0.697-1.531-1.531-1.531s-1.531 0.697-1.531 1.531z"></path>
<path fill="#4d5e6f" d="M29.216 7.353l-11.134 11.135-3.589 0.219 0.16-3.648 11.135-11.134c0.394-0.394 1.025-0.403 1.409-0.018l2.037 2.037c0.384 0.384 0.376 1.015-0.018 1.41z"></path>
</svg>
