<!-- Generated by IcoMoon.io -->
<svg version="1.1" xmlns="http://www.w3.org/2000/svg" width="32" height="32" viewBox="0 0 32 32">
<path d="M30.689 31.18c-0.001-0.163 0.047-0.322 0.137-0.458s0.218-0.242 0.368-0.304c0.15-0.063 0.316-0.080 0.475-0.048s0.306 0.11 0.422 0.224 0.194 0.261 0.226 0.421c0.032 0.16 0.016 0.325-0.046 0.476s-0.168 0.279-0.303 0.37c-0.135 0.090-0.294 0.139-0.457 0.139-0.218 0-0.426-0.086-0.581-0.239s-0.241-0.362-0.242-0.58zM25.591 31.18c-0.001-0.163 0.047-0.322 0.137-0.458s0.218-0.242 0.368-0.304c0.15-0.063 0.316-0.080 0.475-0.048s0.307 0.109 0.422 0.224 0.194 0.262 0.226 0.421c0.032 0.16 0.016 0.325-0.046 0.475s-0.168 0.279-0.303 0.37c-0.135 0.090-0.294 0.139-0.457 0.139-0.217 0-0.426-0.086-0.58-0.239s-0.241-0.362-0.242-0.579l-0.001-0zM10.305 31.18c0-0.162 0.048-0.32 0.138-0.454s0.218-0.239 0.367-0.301c0.15-0.062 0.314-0.078 0.473-0.046s0.305 0.11 0.419 0.224 0.192 0.26 0.224 0.419c0.032 0.159 0.015 0.323-0.047 0.473s-0.167 0.277-0.301 0.367c-0.135 0.090-0.293 0.138-0.455 0.138-0.217-0-0.425-0.087-0.578-0.24s-0.239-0.362-0.239-0.579h-0.001zM20.502 31.18c0-0.162 0.048-0.32 0.138-0.454s0.218-0.24 0.367-0.301 0.314-0.078 0.473-0.046c0.159 0.032 0.304 0.109 0.419 0.224s0.192 0.26 0.224 0.419c0.032 0.159 0.015 0.323-0.047 0.473s-0.167 0.277-0.301 0.367c-0.135 0.090-0.293 0.138-0.455 0.138-0.107-0-0.214-0.022-0.313-0.063s-0.189-0.102-0.265-0.178-0.136-0.166-0.177-0.266c-0.041-0.099-0.062-0.206-0.062-0.313h-0.001zM16.222 31.999c-0.162 0-0.32-0.048-0.455-0.138s-0.24-0.218-0.302-0.367c-0.062-0.15-0.078-0.314-0.047-0.473s0.109-0.305 0.224-0.419 0.26-0.193 0.419-0.224c0.159-0.032 0.323-0.015 0.473 0.046s0.277 0.167 0.367 0.302c0.090 0.134 0.138 0.293 0.138 0.454 0 0.108-0.021 0.214-0.062 0.313s-0.101 0.19-0.177 0.266c-0.076 0.076-0.166 0.136-0.265 0.178s-0.206 0.062-0.313 0.062zM5.207 31.18c-0.001-0.163 0.047-0.322 0.137-0.458s0.218-0.242 0.368-0.305c0.15-0.063 0.316-0.080 0.475-0.048s0.307 0.109 0.422 0.224 0.194 0.261 0.226 0.421c0.032 0.16 0.016 0.325-0.046 0.476s-0.168 0.279-0.303 0.37c-0.135 0.090-0.294 0.139-0.457 0.139-0.217 0-0.426-0.086-0.58-0.239s-0.241-0.362-0.241-0.579h-0.001zM0.109 31.18c-0.001-0.163 0.047-0.322 0.137-0.458s0.218-0.242 0.368-0.304c0.15-0.063 0.316-0.080 0.475-0.048s0.307 0.109 0.422 0.224c0.115 0.115 0.194 0.262 0.226 0.421s0.016 0.325-0.046 0.475c-0.062 0.15-0.167 0.279-0.303 0.37s-0.294 0.139-0.457 0.139c-0.217 0-0.426-0.086-0.58-0.24s-0.24-0.362-0.241-0.579l-0.002 0zM30.689 26.108c-0.001-0.163 0.047-0.322 0.137-0.458s0.218-0.242 0.368-0.304c0.15-0.063 0.316-0.080 0.475-0.048s0.307 0.109 0.422 0.224c0.115 0.115 0.194 0.261 0.226 0.421s0.016 0.325-0.046 0.476c-0.062 0.15-0.168 0.279-0.303 0.37s-0.294 0.139-0.457 0.139c-0.217 0-0.426-0.086-0.58-0.24s-0.241-0.362-0.241-0.58l-0.001 0zM25.591 26.108c-0.001-0.163 0.047-0.322 0.137-0.458s0.218-0.242 0.368-0.304c0.15-0.063 0.316-0.080 0.475-0.048s0.307 0.109 0.422 0.224c0.115 0.115 0.194 0.261 0.226 0.421s0.016 0.325-0.046 0.476c-0.062 0.15-0.168 0.279-0.303 0.37s-0.294 0.139-0.457 0.139c-0.218 0-0.426-0.086-0.58-0.239s-0.241-0.362-0.241-0.58l-0.001 0zM20.502 26.108c0-0.162 0.048-0.32 0.138-0.454s0.218-0.239 0.367-0.301c0.15-0.062 0.314-0.078 0.473-0.046s0.304 0.11 0.419 0.224 0.192 0.26 0.224 0.419c0.032 0.159 0.015 0.323-0.047 0.473s-0.167 0.277-0.301 0.367c-0.135 0.090-0.293 0.138-0.455 0.138-0.107 0-0.214-0.021-0.313-0.062s-0.189-0.102-0.265-0.178c-0.076-0.076-0.136-0.166-0.177-0.266s-0.062-0.206-0.062-0.313l-0.001 0zM15.404 26.108c0-0.162 0.048-0.32 0.138-0.454s0.218-0.239 0.367-0.301c0.15-0.062 0.314-0.078 0.473-0.046s0.304 0.11 0.419 0.224 0.192 0.26 0.224 0.419c0.032 0.159 0.015 0.323-0.047 0.473s-0.167 0.277-0.301 0.367c-0.135 0.090-0.293 0.138-0.455 0.138-0.217-0-0.425-0.087-0.578-0.24s-0.239-0.362-0.239-0.579l-0.001 0zM10.306 26.108c0-0.162 0.048-0.32 0.138-0.454s0.218-0.239 0.367-0.301c0.149-0.062 0.314-0.078 0.473-0.046s0.304 0.11 0.419 0.224 0.192 0.26 0.224 0.419c0.032 0.159 0.015 0.323-0.047 0.473s-0.167 0.277-0.301 0.367c-0.135 0.090-0.293 0.138-0.455 0.138-0.107 0-0.214-0.021-0.313-0.062s-0.189-0.102-0.265-0.178c-0.076-0.076-0.136-0.166-0.177-0.266s-0.062-0.206-0.062-0.313l-0.001 0zM5.207 26.108c-0.001-0.163 0.047-0.322 0.137-0.458s0.218-0.242 0.368-0.304c0.15-0.063 0.316-0.080 0.475-0.048s0.307 0.109 0.422 0.224c0.115 0.115 0.194 0.261 0.226 0.421s0.016 0.325-0.046 0.476-0.168 0.279-0.303 0.37c-0.135 0.090-0.294 0.139-0.457 0.139-0.218 0-0.426-0.086-0.58-0.239s-0.241-0.362-0.241-0.58l-0.001 0zM0.109 26.108c-0.001-0.163 0.047-0.322 0.137-0.458s0.218-0.242 0.368-0.304c0.15-0.063 0.316-0.080 0.475-0.048s0.307 0.109 0.422 0.224c0.115 0.115 0.194 0.261 0.226 0.421s0.016 0.325-0.046 0.476-0.167 0.279-0.303 0.37c-0.135 0.090-0.294 0.139-0.457 0.139-0.217 0-0.426-0.086-0.58-0.24s-0.24-0.362-0.241-0.579l-0.002 0zM30.689 21.201c0-0.004 0-0.009 0-0.013 0-0.009 0-0.018 0-0.027 0-0.218 0.087-0.427 0.241-0.581s0.363-0.241 0.581-0.241c0.218 0 0.427 0.087 0.582 0.241s0.241 0.363 0.241 0.581c0 0.007 0 0.013 0 0.020s0 0.014 0 0.020c0 0.218-0.086 0.427-0.241 0.581s-0.363 0.241-0.582 0.241c-0.218 0-0.427-0.087-0.581-0.241s-0.241-0.363-0.241-0.581zM25.591 21.201c0-0.007 0-0.013 0-0.020s0-0.013 0-0.020c0-0.218 0.087-0.427 0.241-0.581s0.363-0.241 0.581-0.241c0.218 0 0.427 0.087 0.582 0.241s0.241 0.363 0.241 0.581c0 0.009 0 0.018 0 0.027 0 0.004 0 0.009 0 0.013 0 0.218-0.086 0.427-0.241 0.581s-0.363 0.241-0.582 0.241c-0.218 0-0.427-0.087-0.581-0.241s-0.241-0.363-0.241-0.581zM20.502 21.201c0-0.007 0-0.013 0-0.020s0-0.013 0-0.020c0-0.217 0.086-0.425 0.24-0.579s0.362-0.24 0.579-0.24c0.217 0 0.425 0.086 0.579 0.24s0.24 0.362 0.24 0.579c0 0.007 0 0.013 0 0.020s0 0.013 0 0.020c0 0.217-0.086 0.425-0.24 0.579s-0.362 0.24-0.579 0.24c-0.217 0-0.425-0.086-0.579-0.24s-0.24-0.362-0.24-0.579zM15.404 21.201c0-0.007 0-0.013 0-0.020s0-0.014 0-0.020c0-0.217 0.086-0.425 0.24-0.579s0.362-0.24 0.579-0.24c0.217 0 0.425 0.086 0.579 0.24s0.24 0.362 0.24 0.579c0 0.007 0 0.013 0 0.020s0 0.014 0 0.020c0 0.217-0.086 0.425-0.24 0.579s-0.362 0.24-0.579 0.24c-0.217 0-0.425-0.086-0.579-0.24s-0.24-0.362-0.24-0.579zM10.306 21.201c0-0.009 0-0.018 0-0.026 0-0.005 0-0.009 0-0.014 0-0.217 0.086-0.425 0.24-0.579s0.362-0.24 0.579-0.24c0.217 0 0.425 0.086 0.579 0.24s0.24 0.362 0.24 0.579c0 0.007 0 0.013 0 0.020s0 0.013 0 0.020c-0.004 0.215-0.091 0.419-0.244 0.57s-0.359 0.235-0.574 0.235c-0.215 0-0.421-0.084-0.574-0.235s-0.241-0.355-0.244-0.57zM5.208 21.201c0-0.007 0-0.013 0-0.020s0-0.013 0-0.020c0-0.218 0.087-0.427 0.241-0.581s0.363-0.241 0.581-0.241c0.218 0 0.427 0.087 0.581 0.241s0.241 0.363 0.241 0.581c0 0.007 0 0.013 0 0.020s0 0.013 0 0.020c0 0.218-0.087 0.427-0.241 0.581s-0.363 0.241-0.581 0.241c-0.218 0-0.427-0.087-0.581-0.241s-0.241-0.363-0.241-0.581zM0.109 21.201c0-0.007 0-0.013 0-0.020s0-0.013 0-0.020c0-0.218 0.087-0.427 0.241-0.581s0.363-0.241 0.581-0.241c0.218 0 0.427 0.087 0.581 0.241s0.241 0.363 0.241 0.581c0 0.007 0 0.014 0 0.020s0 0.014 0 0.020c0 0.218-0.087 0.427-0.241 0.581s-0.363 0.241-0.581 0.241c-0.218 0-0.427-0.087-0.581-0.241s-0.241-0.363-0.241-0.581v-0.001zM30.689 16.135c0-0.008 0-0.015 0-0.022s0-0.015 0-0.022c0-0.218 0.087-0.427 0.241-0.581s0.363-0.241 0.581-0.241c0.218 0 0.427 0.087 0.582 0.241s0.241 0.363 0.241 0.581c0 0.008 0 0.015 0 0.022s0 0.015 0 0.022c0 0.218-0.086 0.427-0.241 0.581s-0.363 0.241-0.582 0.241c-0.218 0-0.427-0.087-0.581-0.241s-0.241-0.363-0.241-0.581zM25.591 16.135c0-0.005 0-0.011 0-0.016 0-0.009 0-0.019 0-0.028 0-0.218 0.087-0.428 0.241-0.582s0.364-0.241 0.582-0.241 0.428 0.087 0.582 0.241c0.154 0.154 0.241 0.364 0.241 0.582 0 0.007 0 0.015 0 0.022s0 0.015 0 0.022c0 0.218-0.087 0.427-0.241 0.581s-0.363 0.241-0.582 0.241c-0.218 0-0.427-0.087-0.581-0.241s-0.241-0.363-0.241-0.581l-0.001 0zM20.502 16.135c0-0.008 0-0.015 0-0.022s0-0.015 0-0.022c0-0.217 0.086-0.425 0.24-0.579s0.362-0.24 0.579-0.24c0.217 0 0.425 0.086 0.579 0.24s0.24 0.362 0.24 0.579c0 0.008 0 0.015 0 0.022s0 0.015 0 0.022c0 0.217-0.086 0.425-0.24 0.579s-0.362 0.24-0.579 0.24c-0.217 0-0.425-0.086-0.579-0.24s-0.24-0.362-0.24-0.579zM15.404 16.135c0-0.008 0-0.015 0-0.022s0-0.015 0-0.022c0-0.217 0.086-0.425 0.24-0.579s0.362-0.24 0.579-0.24c0.217 0 0.425 0.086 0.579 0.24s0.24 0.362 0.24 0.579c0 0.008 0 0.015 0 0.022s0 0.015 0 0.022c0 0.217-0.086 0.425-0.24 0.579s-0.362 0.24-0.579 0.24c-0.217 0-0.425-0.086-0.579-0.24s-0.24-0.362-0.24-0.579zM10.306 16.135c0-0.008 0-0.015 0-0.022s0-0.015 0-0.022c0-0.217 0.086-0.425 0.24-0.578s0.361-0.24 0.578-0.24c0.217 0 0.425 0.086 0.578 0.24s0.24 0.361 0.24 0.578c0 0.006 0 0.011 0 0.017 0 0.009 0 0.019 0 0.028 0 0.217-0.086 0.425-0.24 0.579s-0.362 0.24-0.579 0.24c-0.217 0-0.425-0.086-0.579-0.24s-0.24-0.362-0.24-0.579l0-0zM5.208 16.135c0-0.008 0-0.015 0-0.022s0-0.015 0-0.022c0-0.218 0.087-0.427 0.241-0.581s0.363-0.241 0.581-0.241c0.218 0 0.427 0.087 0.581 0.241s0.241 0.363 0.241 0.581c0 0.008 0 0.015 0 0.022s0 0.015 0 0.022c0 0.218-0.087 0.427-0.241 0.581s-0.363 0.241-0.581 0.241c-0.218 0-0.427-0.087-0.581-0.241s-0.241-0.363-0.241-0.581zM0.11 16.135c0-0.008 0-0.015 0-0.022s0-0.015 0-0.022c0-0.218 0.087-0.427 0.241-0.581s0.363-0.241 0.581-0.241c0.218 0 0.427 0.087 0.581 0.241s0.241 0.363 0.241 0.581c0 0.008 0 0.015 0 0.022s0 0.015 0 0.022c0 0.218-0.087 0.427-0.241 0.581s-0.363 0.241-0.581 0.241c-0.218 0-0.427-0.087-0.581-0.241s-0.241-0.363-0.241-0.581zM30.689 11.183c0-0.021 0-0.042 0.002-0.063s-0.002-0.039-0.002-0.058c0-0.218 0.087-0.427 0.241-0.581s0.363-0.241 0.581-0.241c0.218 0 0.427 0.087 0.582 0.241s0.241 0.363 0.241 0.581c0 0.020-0.001 0.041-0.002 0.061 0.002 0.020 0.002 0.040 0.002 0.060 0 0.218-0.087 0.427-0.241 0.581s-0.363 0.241-0.582 0.241c-0.218 0-0.427-0.087-0.581-0.241s-0.241-0.363-0.241-0.581l-0 0zM25.591 11.183c0-0.020 0-0.040 0.002-0.060s-0.002-0.040-0.002-0.061c0-0.218 0.087-0.427 0.241-0.581s0.363-0.241 0.581-0.241c0.218 0 0.427 0.087 0.582 0.241s0.241 0.363 0.241 0.581c0 0.020 0 0.041-0.002 0.061s0.002 0.040 0.002 0.060c0 0.218-0.087 0.427-0.241 0.581s-0.363 0.241-0.582 0.241c-0.218 0-0.427-0.087-0.581-0.241s-0.241-0.363-0.241-0.581zM20.503 11.183c0-0.020 0-0.040 0.002-0.060s-0.002-0.040-0.002-0.061c0-0.217 0.086-0.425 0.24-0.579s0.362-0.24 0.579-0.24c0.217 0 0.425 0.086 0.579 0.24s0.24 0.362 0.24 0.579c0 0.020 0 0.041-0.002 0.061s0.002 0.040 0.002 0.060c0 0.217-0.086 0.425-0.24 0.579s-0.362 0.24-0.579 0.24c-0.217 0-0.425-0.086-0.579-0.24s-0.24-0.362-0.24-0.579zM15.404 11.183c0-0.020 0-0.040 0.002-0.060s-0.002-0.040-0.002-0.061c0-0.217 0.086-0.425 0.24-0.579s0.362-0.24 0.579-0.24c0.217 0 0.425 0.086 0.579 0.24s0.24 0.362 0.24 0.579c0 0.020-0.001 0.041-0.002 0.061 0.002 0.020 0.002 0.040 0.002 0.060 0 0.217-0.086 0.425-0.24 0.579s-0.362 0.24-0.579 0.24c-0.217 0-0.425-0.086-0.579-0.24s-0.24-0.361-0.24-0.578zM10.306 11.183c0-0.020 0.001-0.039 0.002-0.058-0.002-0.021-0.002-0.042-0.002-0.063-0.002-0.109 0.018-0.216 0.058-0.317s0.1-0.193 0.176-0.27c0.076-0.077 0.167-0.139 0.267-0.181s0.208-0.064 0.316-0.064c0.109 0 0.216 0.022 0.316 0.064s0.191 0.103 0.267 0.181c0.076 0.077 0.136 0.169 0.176 0.27s0.060 0.209 0.058 0.317c0 0.020 0 0.041-0.002 0.061s0.002 0.040 0.002 0.060c0 0.217-0.086 0.425-0.24 0.579s-0.362 0.24-0.579 0.24c-0.217 0-0.425-0.086-0.579-0.24s-0.239-0.362-0.239-0.579zM5.208 11.183c0-0.020 0-0.040 0.002-0.060s-0.002-0.040-0.002-0.061c0-0.218 0.087-0.427 0.241-0.581s0.363-0.241 0.581-0.241c0.218 0 0.427 0.087 0.581 0.241s0.241 0.363 0.241 0.581c0 0.021 0 0.042-0.002 0.063s0.002 0.039 0.002 0.058c0 0.218-0.087 0.427-0.241 0.581s-0.363 0.241-0.581 0.241c-0.218 0-0.427-0.087-0.581-0.241s-0.241-0.363-0.241-0.581l0 0zM0.11 11.183c0-0.020 0-0.040 0.002-0.060s-0.002-0.040-0.002-0.060c0-0.218 0.087-0.427 0.241-0.582s0.363-0.241 0.581-0.241c0.218 0 0.427 0.087 0.581 0.241s0.241 0.363 0.241 0.582c0 0.020-0.001 0.040-0.002 0.060 0.002 0.020 0.002 0.040 0.002 0.060 0 0.218-0.087 0.427-0.241 0.581s-0.363 0.241-0.581 0.241c-0.218 0-0.427-0.087-0.581-0.241s-0.241-0.363-0.241-0.581zM30.69 6.117c-0.001-0.163 0.047-0.322 0.137-0.458s0.218-0.242 0.368-0.304c0.15-0.063 0.316-0.080 0.475-0.048s0.307 0.109 0.422 0.224 0.194 0.261 0.226 0.421c0.032 0.16 0.016 0.325-0.046 0.476s-0.168 0.279-0.303 0.37c-0.135 0.090-0.294 0.139-0.457 0.139-0.108 0-0.215-0.021-0.315-0.062s-0.191-0.102-0.267-0.178-0.137-0.167-0.178-0.267c-0.041-0.1-0.063-0.207-0.063-0.315l0.001 0.003zM25.592 6.117c-0.001-0.163 0.047-0.322 0.137-0.458s0.218-0.242 0.368-0.304c0.15-0.063 0.316-0.080 0.475-0.048s0.307 0.109 0.422 0.224c0.115 0.115 0.194 0.261 0.226 0.421s0.016 0.325-0.046 0.476c-0.062 0.15-0.168 0.279-0.303 0.37s-0.294 0.139-0.457 0.139c-0.108 0-0.215-0.021-0.315-0.062s-0.19-0.102-0.267-0.178c-0.076-0.076-0.137-0.167-0.178-0.267s-0.062-0.207-0.062-0.315v0.003zM20.503 6.117c0-0.162 0.048-0.32 0.138-0.454s0.218-0.239 0.367-0.301c0.149-0.062 0.314-0.078 0.473-0.046s0.304 0.11 0.419 0.224c0.114 0.114 0.192 0.26 0.224 0.419s0.015 0.323-0.047 0.473c-0.062 0.149-0.167 0.277-0.301 0.367s-0.293 0.138-0.455 0.138c-0.108 0-0.214-0.021-0.314-0.063s-0.19-0.102-0.266-0.178c-0.076-0.076-0.136-0.167-0.177-0.266s-0.062-0.206-0.061-0.314l0 0.003zM15.405 6.117c0-0.162 0.048-0.32 0.138-0.454s0.218-0.239 0.367-0.301c0.15-0.062 0.314-0.078 0.473-0.046s0.304 0.11 0.419 0.224c0.114 0.114 0.192 0.26 0.224 0.419s0.015 0.323-0.047 0.473c-0.062 0.149-0.167 0.277-0.301 0.367s-0.293 0.138-0.455 0.138c-0.108-0-0.214-0.021-0.314-0.063s-0.19-0.102-0.266-0.178c-0.076-0.076-0.136-0.167-0.177-0.266s-0.062-0.206-0.062-0.314l0 0.003zM10.306 6.117c0-0.162 0.048-0.32 0.138-0.455s0.218-0.239 0.367-0.301c0.15-0.062 0.314-0.078 0.473-0.046s0.304 0.11 0.419 0.224c0.114 0.114 0.192 0.26 0.224 0.419s0.015 0.323-0.047 0.473c-0.062 0.149-0.167 0.277-0.302 0.367s-0.293 0.138-0.455 0.138c-0.108-0-0.214-0.021-0.314-0.063s-0.19-0.102-0.266-0.178c-0.076-0.076-0.136-0.167-0.177-0.266s-0.062-0.206-0.061-0.314l0 0.003zM5.208 6.117c-0.001-0.163 0.047-0.322 0.137-0.458s0.218-0.242 0.368-0.304c0.15-0.063 0.316-0.080 0.475-0.048s0.307 0.109 0.422 0.224c0.115 0.115 0.194 0.261 0.226 0.421s0.016 0.325-0.046 0.476c-0.062 0.15-0.168 0.279-0.303 0.37s-0.294 0.139-0.457 0.139c-0.108 0-0.215-0.021-0.315-0.062s-0.191-0.102-0.267-0.178c-0.076-0.076-0.137-0.167-0.178-0.267s-0.063-0.207-0.062-0.315l0 0.003zM0.11 6.117c-0.001-0.163 0.047-0.322 0.137-0.458s0.218-0.242 0.368-0.304c0.15-0.063 0.316-0.080 0.475-0.048s0.307 0.109 0.422 0.224c0.115 0.115 0.194 0.261 0.226 0.421s0.016 0.325-0.046 0.476c-0.062 0.15-0.167 0.279-0.303 0.37s-0.294 0.139-0.457 0.139c-0.108 0-0.215-0.021-0.314-0.062s-0.19-0.102-0.267-0.178c-0.076-0.076-0.137-0.167-0.178-0.266s-0.062-0.206-0.062-0.314l-0.001 0.003zM25.592 1.045c-0.001-0.163 0.047-0.322 0.137-0.458s0.218-0.242 0.368-0.304c0.15-0.063 0.316-0.080 0.475-0.048s0.307 0.109 0.422 0.224c0.115 0.115 0.194 0.261 0.226 0.421s0.016 0.325-0.046 0.476c-0.062 0.15-0.168 0.279-0.303 0.37s-0.294 0.139-0.457 0.139c-0.108 0-0.215-0.021-0.315-0.062s-0.19-0.102-0.267-0.178c-0.076-0.076-0.137-0.167-0.178-0.267s-0.062-0.207-0.062-0.315l0 0.003zM31.513 1.863c-0.162-0.001-0.32-0.049-0.454-0.14s-0.238-0.218-0.3-0.368c-0.061-0.15-0.077-0.314-0.045-0.473s0.11-0.304 0.225-0.418c0.115-0.114 0.26-0.192 0.419-0.223s0.323-0.015 0.472 0.047c0.149 0.062 0.277 0.167 0.367 0.302s0.138 0.293 0.138 0.455c-0 0.218-0.087 0.426-0.242 0.58s-0.363 0.239-0.581 0.239zM20.503 1.044c0-0.162 0.048-0.32 0.138-0.455s0.218-0.239 0.367-0.301c0.149-0.062 0.314-0.078 0.473-0.046s0.304 0.11 0.419 0.224c0.114 0.114 0.192 0.26 0.224 0.419s0.015 0.323-0.047 0.473c-0.062 0.149-0.167 0.277-0.301 0.367s-0.293 0.138-0.455 0.138c-0.108 0-0.214-0.021-0.314-0.063s-0.19-0.102-0.266-0.178c-0.076-0.076-0.136-0.167-0.177-0.266s-0.062-0.206-0.062-0.314l0 0.002zM16.223 1.863c-0.162 0-0.32-0.048-0.455-0.138s-0.24-0.218-0.302-0.367c-0.062-0.15-0.078-0.314-0.047-0.473s0.109-0.305 0.224-0.419c0.114-0.115 0.26-0.193 0.419-0.224s0.323-0.015 0.473 0.047c0.15 0.062 0.277 0.167 0.367 0.301s0.138 0.293 0.138 0.455c0 0.107-0.021 0.214-0.062 0.313s-0.101 0.19-0.177 0.266c-0.076 0.076-0.166 0.136-0.265 0.178s-0.206 0.062-0.313 0.062zM10.306 1.044c0-0.162 0.048-0.32 0.138-0.455s0.218-0.24 0.367-0.301c0.15-0.062 0.314-0.078 0.473-0.046s0.305 0.11 0.419 0.224c0.114 0.114 0.192 0.26 0.224 0.419s0.015 0.323-0.047 0.473c-0.062 0.15-0.167 0.277-0.301 0.367s-0.293 0.138-0.455 0.138c-0.108-0-0.214-0.021-0.314-0.063s-0.19-0.102-0.266-0.178c-0.076-0.076-0.136-0.167-0.177-0.266s-0.062-0.206-0.062-0.314l0 0.002zM5.208 1.044c-0.001-0.163 0.047-0.322 0.137-0.458s0.218-0.242 0.368-0.304c0.15-0.063 0.316-0.080 0.475-0.048s0.307 0.109 0.422 0.224c0.115 0.115 0.194 0.261 0.226 0.421s0.016 0.325-0.046 0.476c-0.062 0.15-0.168 0.279-0.303 0.37s-0.294 0.139-0.457 0.139c-0.108 0-0.215-0.021-0.315-0.062s-0.191-0.102-0.267-0.178c-0.076-0.076-0.137-0.167-0.178-0.267s-0.063-0.207-0.063-0.315l0 0.002zM0.11 1.044c-0.001-0.163 0.047-0.322 0.137-0.458s0.218-0.242 0.368-0.304c0.15-0.063 0.316-0.080 0.475-0.048s0.307 0.109 0.422 0.224c0.115 0.115 0.194 0.261 0.226 0.421s0.016 0.325-0.046 0.476c-0.062 0.15-0.167 0.279-0.303 0.37s-0.294 0.139-0.457 0.139c-0.108 0-0.215-0.021-0.314-0.062s-0.19-0.102-0.267-0.178c-0.076-0.076-0.137-0.167-0.178-0.266s-0.062-0.206-0.062-0.314l-0.001 0.002z"></path>
</svg>
