<svg width="30" height="30" fill="none" xmlns="http://www.w3.org/2000/svg"><path d="M16.725 1.801c-4.412.312-8.217 3.363-9.497 7.614a10.852 10.852 0 0 0 0 6.17c1.157 3.843 4.41 6.756 8.337 7.466 5.38.972 10.634-2.241 12.207-7.466.722-2.396.569-5.03-.426-7.335a10.743 10.743 0 0 0-10.621-6.449m2.632 1.616a8.96 8.96 0 0 1 2.128.731c1.018.49 1.702.972 2.508 1.766a9.154 9.154 0 0 1 2.681 5.293c.095.664.095 1.922 0 2.586-.38 2.68-1.912 5.048-4.224 6.533-.895.575-2.082 1.05-3.2 1.28-.514.106-.702.119-1.775.117-1.044-.002-1.268-.017-1.725-.114-1.66-.351-3.259-1.151-4.436-2.219-1.49-1.352-2.495-3.119-2.924-5.14-.098-.461-.111-.673-.111-1.75s.013-1.289.111-1.75c.353-1.663 1.152-3.26 2.22-4.436 1.296-1.428 3.043-2.453 4.879-2.862.767-.171 1.088-.196 2.211-.178.918.015 1.16.036 1.657.143M3.519 12.869a1.006 1.006 0 0 0-.263.186c-.136.146-.597 1.042-.803 1.563-.772 1.942-.884 4.28-.305 6.343a10.007 10.007 0 0 0 6.891 6.891c2.063.579 4.401.467 6.343-.305.567-.225 1.437-.679 1.585-.828a.71.71 0 0 0-.169-1.145c-.275-.142-.486-.096-1.201.264-1.235.621-2.167.853-3.597.896-1.304.039-2.23-.119-3.415-.583-2.081-.813-3.923-2.655-4.737-4.736-.463-1.185-.621-2.111-.582-3.415.043-1.43.275-2.362.896-3.597.383-.761.42-.967.224-1.258-.19-.282-.578-.406-.867-.276" fill-rule="evenodd" fill="#000"/></svg>