<svg width="30" height="30" fill="none" xmlns="http://www.w3.org/2000/svg"><path d="M21.625 1.828c-2.816.554-4.992 2.187-6.37 4.78-.207.39-.493 1.035-.621 1.404-.026.075-.115.033-.595-.282a13.474 13.474 0 0 0-5.714-2.107c-.787-.101-2.394-.114-3.246-.026-1.18.122-1.718.341-2.334.951a2.917 2.917 0 0 0-.819 1.453c-.154.634-.184 2.204-.162 8.566.024 6.744.017 6.58.301 7.2.163.355.572.786.92.969.539.284.845.322 2.94.367 1.877.04 2.365.08 3.275.271.917.191 2.233.67 3.05 1.109.765.411 1.915 1.208 2.147 1.488.108.13.429.279.603.279s.495-.149.603-.279c.202-.243 1.155-.923 1.873-1.336.831-.478 2.064-.956 3.102-1.203 1.009-.24 1.487-.285 3.497-.329 2.095-.045 2.402-.083 2.94-.367.348-.183.757-.614.92-.969.284-.62.277-.454.301-7.217.027-7.901.006-8.371-.419-9.236-.464-.945-1.365-1.516-2.629-1.667a16.383 16.383 0 0 1-.569-.076c-.101-.019-.106-.053-.132-.908-.021-.708-.047-.954-.13-1.213-.272-.854-1.019-1.517-1.857-1.648-.394-.062-.433-.061-.875.026m.865 1.492a.97.97 0 0 1 .433.492c.068.164.077 1.056.077 7.963 0 7.141-.007 7.789-.082 7.904-.124.189-.309.262-.877.346a9.816 9.816 0 0 0-2.887.898 8.89 8.89 0 0 0-3.014 2.512l-.365.479-.013-7.316-.012-7.315.205-.604c.83-2.445 2.522-4.286 4.645-5.053.912-.33 1.622-.445 1.89-.306M8.7 7.149c1.91.339 3.915 1.224 5.266 2.325l.284.231v8.123c0 4.467-.01 8.122-.022 8.122-.012 0-.22-.125-.462-.277a13.58 13.58 0 0 0-4.637-1.796c-.936-.172-1.645-.227-2.954-.228-.632 0-1.419-.023-1.748-.05-.686-.057-.892-.151-1.057-.482-.092-.186-.095-.423-.11-7.142-.011-5.006.001-7.062.042-7.35.07-.494.238-.859.506-1.101.345-.312.531-.37 1.592-.493.096-.012.738-.015 1.425-.007 1.026.011 1.362.034 1.875.125m16.869.053c.575.177.883.49 1.065 1.08.086.277.091.682.091 7.468 0 6.957-.003 7.181-.095 7.367a.972.972 0 0 1-.281.315c-.241.159-.892.216-2.499.217-1.333.001-2.039.055-2.978.228-1.252.23-2.438.633-3.617 1.229-.371.188-.681.334-.69.325-.009-.008.165-.289.387-.624.724-1.095 1.673-1.967 2.751-2.528.835-.435 1.535-.642 2.972-.878.94-.154 1.646-.856 1.778-1.764.025-.172.045-3.071.046-6.456l.001-6.145.377.034c.208.019.519.078.692.132" fill-rule="evenodd" fill="#000"/></svg>