<!-- Generated by IcoMoon.io -->
<svg version="1.1" xmlns="http://www.w3.org/2000/svg" width="32" height="32" viewBox="0 0 32 32">
<path d="M8 1.333c0.736 0 1.333 0.597 1.333 1.333v0.122c1.463-0.122 3.218-0.122 5.295-0.122h2.743c2.077-0 3.832-0 5.295 0.122v-0.122c0-0.736 0.597-1.333 1.333-1.333s1.333 0.597 1.333 1.333v0.598c1.015 0.322 1.897 0.828 2.643 1.634 1.105 1.194 1.58 2.691 1.805 4.499 0.219 1.76 0.219 4.007 0.219 6.834v0.87c0 2.826 0 5.073-0.219 6.834-0.225 1.808-0.7 3.305-1.805 4.499-1.118 1.209-2.543 1.743-4.263 1.993-1.648 0.239-3.743 0.239-6.341 0.239h-2.743c-2.598 0-4.693 0-6.341-0.239-1.72-0.25-3.145-0.784-4.263-1.993-1.105-1.194-1.58-2.691-1.805-4.499-0.219-1.76-0.219-4.007-0.219-6.834v-0.87c-0-2.826-0-5.073 0.219-6.834 0.225-1.808 0.7-3.304 1.805-4.499 0.746-0.806 1.628-1.312 2.643-1.634v-0.598c0-0.736 0.597-1.333 1.333-1.333zM6.873 6.046c-0.362 0.18-0.647 0.4-0.891 0.664-0.515 0.557-0.859 1.319-1.062 2.623h22.16c-0.203-1.304-0.547-2.066-1.062-2.623-0.245-0.265-0.529-0.484-0.891-0.664-0.236 0.373-0.653 0.621-1.127 0.621-0.691 0-1.26-0.526-1.327-1.2-1.348-0.131-3.075-0.133-5.407-0.133h-2.533c-2.331 0-4.058 0.002-5.407 0.133-0.067 0.674-0.635 1.2-1.327 1.2-0.474 0-0.891-0.248-1.127-0.621zM27.293 12h-22.587c-0.039 1.198-0.040 2.616-0.040 4.324v0.685c0 2.94 0.002 5.020 0.199 6.597 0.193 1.548 0.552 2.406 1.116 3.017 0.551 0.596 1.305 0.964 2.689 1.165 1.434 0.208 3.335 0.212 6.063 0.212h2.533c2.728 0 4.629-0.003 6.063-0.212 1.384-0.201 2.138-0.569 2.689-1.165 0.565-0.611 0.924-1.469 1.116-3.017 0.196-1.577 0.199-3.657 0.199-6.597v-0.685c0-1.708-0.001-3.127-0.040-4.324z"></path>
<path d="M21.93 16.241c0.235 0.698-0.14 1.454-0.837 1.69-0.6 0.202-1.302 0.642-2.055 1.27-0.74 0.618-1.462 1.362-2.104 2.095-0.639 0.73-1.182 1.429-1.566 1.947-0.191 0.258-0.342 0.47-0.443 0.615-0.051 0.073-0.089 0.129-0.114 0.166l-0.028 0.041-0.006 0.009-0.001 0.002c-0.261 0.391-0.709 0.616-1.179 0.591s-0.892-0.295-1.111-0.712c-0.498-0.948-0.935-1.31-1.138-1.439-0.072-0.046-0.123-0.068-0.147-0.077-0.674-0.067-1.2-0.635-1.2-1.327 0-0.736 0.597-1.333 1.333-1.333l0.021 0.127-0.018-0.127h0.008l0.011 0 0.023 0.001c0.016 0 0.033 0.001 0.052 0.002 0.037 0.002 0.079 0.006 0.125 0.012 0.093 0.012 0.204 0.032 0.33 0.067 0.254 0.069 0.559 0.192 0.893 0.404 0.298 0.189 0.606 0.441 0.916 0.774 0.35-0.45 0.768-0.966 1.235-1.5 0.697-0.795 1.519-1.648 2.4-2.384 0.869-0.725 1.865-1.397 2.912-1.75 0.698-0.235 1.454 0.139 1.69 0.837z"></path>
</svg>
