<!-- Generated by IcoMoon.io -->
<svg version="1.1" xmlns="http://www.w3.org/2000/svg" width="32" height="32" viewBox="0 0 32 32">
<path fill="#4d5e6f" d="M21.2 20.8h-15.7c-0.4 0-0.7-0.3-0.8-0.7l-0.1-8c0-4 0-6 1.5-7.4 1.4-1.4 3.5-1.4 7.7-1.4h7.5c3.2 0 4.8 0 5.7 1 0.2 0.3 0.4 0.6 0.5 1 0.4 1.3-0.6 2.5-2.5 5-0.6 0.8-1 1.2-1 1.6 0 0.1 0 0.2 0 0.3 0 0.3 0.4 0.8 1 1.6 1.9 2.5 2.9 3.7 2.5 5-0.1 0.4-0.3 0.7-0.5 1-1 1-2.6 1-5.8 1zM6.2 19.3h15c2.5 0 4.1 0 4.5-0.5 0.1-0.1 0.2-0.3 0.2-0.4 0.2-0.6-0.8-1.8-2.3-3.7-0.8-1-1.2-1.6-1.3-2.3 0-0.2 0-0.4 0-0.6 0.1-0.7 0.5-1.3 1.3-2.3 1.5-1.9 2.4-3.1 2.3-3.7 0-0.2-0.1-0.3-0.2-0.4-0.4-0.5-2-0.5-4.5-0.5h-7.5c-3.7 0-5.6 0-6.6 1-1 0.9-1 2.7-1 6.3l0.1 7.1z"></path>
<path fill="#4d5e6f" d="M5.3 28.8c-0.4 0-0.8-0.3-0.8-0.8v-17.3c0-0.4 0.3-0.8 0.8-0.8s0.8 0.3 0.8 0.8v17.3c0 0.4-0.4 0.8-0.8 0.8z"></path>
</svg>
