<!-- Generated by IcoMoon.io -->
<svg version="1.1" xmlns="http://www.w3.org/2000/svg" width="32" height="32" viewBox="0 0 32 32">
<path fill="#227aff" d="M3.714 8.327c0.5-0.5 1.178-0.781 1.886-0.781h20.8c0.707 0 1.386 0.281 1.886 0.781s0.781 1.178 0.781 1.886v13.067c0 0.525-0.103 1.045-0.304 1.531s-0.496 0.926-0.867 1.298c-0.371 0.371-0.812 0.666-1.298 0.867s-1.005 0.305-1.531 0.305h-18.133c-0.525 0-1.045-0.103-1.531-0.305s-0.926-0.496-1.298-0.867c-0.371-0.371-0.666-0.812-0.867-1.298s-0.304-1.005-0.304-1.531v-13.067c0-0.707 0.281-1.386 0.781-1.886zM26.4 10.213h-20.8v13.067c0 0.175 0.035 0.348 0.101 0.51s0.165 0.309 0.289 0.433c0.124 0.124 0.271 0.222 0.433 0.289s0.335 0.102 0.51 0.102h18.133c0.175 0 0.348-0.035 0.51-0.102s0.309-0.165 0.433-0.289c0.124-0.124 0.222-0.271 0.289-0.433s0.102-0.335 0.102-0.51v-13.067z"></path>
<path fill="#227aff" d="M14.037 19.206l-10.667-9.685 1.793-1.974 10.661 9.681c0.049 0.043 0.111 0.066 0.176 0.066s0.127-0.023 0.176-0.066l10.661-9.681 1.793 1.974-10.674 9.692c-0.538 0.481-1.234 0.747-1.956 0.747s-1.418-0.266-1.956-0.747l-0.007-0.007z"></path>
</svg>
