<!-- Generated by IcoMoon.io -->
<svg version="1.1" xmlns="http://www.w3.org/2000/svg" width="32" height="32" viewBox="0 0 32 32">
<path fill="#4d5e6f" d="M16.001 1.333c-2.901 0-5.736 0.86-8.148 2.472s-4.292 3.902-5.402 6.582c-1.11 2.68-1.401 5.629-0.835 8.474s1.963 5.458 4.014 7.51c2.051 2.051 4.665 3.448 7.51 4.014s5.794 0.276 8.474-0.835c2.68-1.11 4.971-2.99 6.582-5.402s2.472-5.248 2.472-8.148c-0.004-3.889-1.551-7.617-4.3-10.366s-6.478-4.296-10.366-4.301zM16.001 27.733c-2.321 0-4.589-0.688-6.519-1.977s-3.433-3.122-4.322-5.266c-0.888-2.144-1.12-4.503-0.668-6.779s1.57-4.367 3.211-6.008c1.641-1.641 3.732-2.758 6.008-3.211s4.635-0.22 6.779 0.668c2.144 0.888 3.976 2.392 5.266 4.322s1.977 4.198 1.977 6.519c-0.004 3.111-1.241 6.093-3.441 8.293s-5.182 3.437-8.293 3.44zM16.001 15.266c-0.389 0-0.762 0.155-1.037 0.43s-0.43 0.648-0.43 1.037v4.4c0 0.389 0.155 0.762 0.43 1.037s0.648 0.43 1.037 0.43c0.389 0 0.762-0.155 1.037-0.43s0.43-0.648 0.43-1.037v-4.4c0-0.389-0.155-0.762-0.43-1.037s-0.648-0.43-1.037-0.43zM16.001 9.399c-0.363 0-0.717 0.108-1.019 0.309s-0.536 0.488-0.675 0.823c-0.139 0.335-0.175 0.704-0.104 1.059s0.245 0.682 0.502 0.939c0.256 0.256 0.583 0.431 0.939 0.502s0.724 0.034 1.059-0.104c0.335-0.139 0.621-0.374 0.823-0.675s0.309-0.656 0.309-1.019c0-0.486-0.193-0.953-0.537-1.296s-0.81-0.537-1.296-0.537z"></path>
</svg>
