<!-- Generated by IcoMoon.io -->
<svg version="1.1" xmlns="http://www.w3.org/2000/svg" width="31" height="32" viewBox="0 0 31 32">
<path d="M15.36 6.438c-6.4 0-11.866 3.981-14.080 9.6 2.214 5.619 7.68 9.6 14.080 9.6 6.406 0 11.866-3.981 14.080-9.6-2.214-5.619-7.674-9.6-14.080-9.6zM15.36 22.438c-3.533 0-6.4-2.867-6.4-6.4s2.867-6.4 6.4-6.4 6.4 2.867 6.4 6.4c0 3.533-2.867 6.4-6.4 6.4zM15.36 12.198c-2.118 0-3.84 1.722-3.84 3.84s1.722 3.84 3.84 3.84c2.118 0 3.84-1.722 3.84-3.84s-1.722-3.84-3.84-3.84z"></path>
</svg>
