<!-- Generated by IcoMoon.io -->
<svg version="1.1" xmlns="http://www.w3.org/2000/svg" width="32" height="32" viewBox="0 0 32 32">
<path d="M30.39 0h-22.392c-0.885 0-1.599 0.715-1.599 1.599v4.298c-2.426 0.272-4.26 2.324-4.265 4.766v1.599c0 0.688 0.442 1.301 1.093 1.52 0.128 1.050 0.704 1.999 1.573 2.607v0.784l-1.765 0.395c-1.776 0.39-3.045 1.962-3.034 3.781v7.448c0 0.384 0.203 0.73 0.533 0.922v0.683c0 0.885 0.715 1.599 1.599 1.599h0.533c0.186 0 0.373-0.053 0.533-0.149 0.16 0.096 0.346 0.149 0.533 0.149h6.398c0.587 0 1.067-0.48 1.067-1.067v-6.409l0.538 1.008c0.235 0.555 0.72 0.96 1.306 1.088 0.57 0.133 1.168-0.011 1.61-0.395l3.503-2.602c0.064-0.056 0.119-0.122 0.166-0.193 1.737-0.543 3.211-1.68 4.188-3.171h7.883c0.885 0 1.599-0.715 1.599-1.599v-17.061c0-0.885-0.715-1.599-1.599-1.599zM3.193 10.668c0.005-2.058 1.674-3.727 3.737-3.727 1.947 0 3.55 1.499 3.717 3.404-0.048 0.046-0.096 0.092-0.144 0.139-0.338-0.704-1.144-1.085-1.926-0.866-0.154 0.043-0.309 0.112-0.442 0.203-0.363 0.224-0.779 0.336-1.205 0.325-0.427 0.011-0.843-0.101-1.205-0.325-0.762-0.501-1.781-0.282-2.271 0.48-0.090 0.139-0.154 0.288-0.203 0.442-0.011 0.002-0.020 0.007-0.030 0.011s-0.019 0.008-0.030 0.011v-0.096zM17.59 17.165v0.661h-2.301v-3.647h0.759v2.986h1.542zM20.859 16.945c-0.16 0.274-0.388 0.489-0.685 0.646-0.294 0.157-0.633 0.235-1.018 0.235h-1.19v-3.647h1.19c0.388 0 0.729 0.078 1.023 0.235 0.294 0.154 0.521 0.369 0.681 0.646 0.16 0.274 0.24 0.587 0.24 0.94s-0.080 0.668-0.24 0.945zM14.496 16.959c-0.166 0.287-0.398 0.514-0.695 0.681-0.294 0.163-0.622 0.245-0.984 0.245s-0.692-0.082-0.989-0.245c-0.294-0.166-0.526-0.393-0.695-0.681-0.166-0.287-0.25-0.607-0.25-0.959s0.083-0.673 0.25-0.959c0.169-0.287 0.402-0.513 0.695-0.676 0.297-0.163 0.627-0.245 0.989-0.245s0.69 0.082 0.984 0.245c0.297 0.163 0.529 0.388 0.695 0.676 0.169 0.287 0.255 0.607 0.255 0.959s-0.085 0.672-0.255 0.959zM6.931 18.132c-0.432-0.064-0.816-0.304-1.067-0.661v-0.555c0.341 0.101 0.704 0.149 1.067 0.154 0.363 0 0.72-0.053 1.066-0.154v0.555c-0.245 0.357-0.634 0.597-1.066 0.661zM7.677 20.617l-0.064 0.186h-1.365l-0.064-0.186c0.149-0.149 0.261-0.331 0.32-0.538 0.075-0.288 0.218-0.549 0.427-0.762 0.203 0.213 0.346 0.469 0.421 0.757 0.058 0.208 0.171 0.395 0.325 0.544zM6.328 21.865h1.216l0.442 3.012-1.056 0.704-1.056-0.704 0.453-3.012zM7.949 18.895c0.238-0.125 0.454-0.286 0.642-0.48 0.129 0.395 0.288 0.777 0.475 1.141-0.114 0.118-0.236 0.229-0.366 0.331-0.058 0.043-0.128 0.048-0.198 0.026-0.064-0.021-0.117-0.075-0.133-0.139-0.091-0.314-0.235-0.613-0.421-0.88zM4.259 13.34c0.006-0.299-0.235-0.533-0.528-0.533s-0.533-0.24-0.533-0.533 0.24-0.533 0.533-0.533c0.299-0.021 0.533-0.272 0.533-0.576 0.005-0.203 0.117-0.389 0.299-0.48 0.085-0.043 0.176-0.069 0.272-0.069 0.107 0 0.213 0.032 0.299 0.091 0.533 0.341 1.157 0.512 1.791 0.501 0.634 0.016 1.259-0.16 1.791-0.501 0.171-0.112 0.395-0.122 0.576-0.021 0.192 0.102 0.309 0.304 0.299 0.523 0 0.097 0.026 0.188 0.072 0.266-0.855 1.192-1.381 2.636-1.446 4.199-0.383 0.213-0.823 0.334-1.291 0.334-1.471 0-2.666-1.195-2.666-2.666zM5.086 18.202c0.224 0.288 0.506 0.523 0.826 0.688-0.192 0.272-0.336 0.57-0.427 0.89-0.021 0.064-0.069 0.112-0.133 0.133s-0.139 0.011-0.197-0.026c-0.485-0.384-0.869-0.88-1.114-1.45l1.045-0.235zM2.665 30.933h-0.533c-0.293 0-0.533-0.24-0.533-0.533v-0.533h1.067v1.066zM6.397 30.933h-2.665v-1.066h2.666v1.066zM10.129 30.933h-2.666v-1.066h2.666v1.066zM13.978 25.394c-0.192 0.171-0.453 0.24-0.704 0.181-0.267-0.064-0.48-0.25-0.581-0.506l-1.562-2.927c-0.139-0.261-0.464-0.357-0.72-0.219-0.176 0.091-0.282 0.272-0.282 0.469v6.398h-6.397v-6.398c0-0.293-0.24-0.533-0.533-0.533s-0.533 0.24-0.533 0.533v6.398h-1.599v-7.443c-0.005-1.21 0.779-2.282 1.925-2.655 0.32 0.811 0.848 1.514 1.53 2.053 0.192 0.139 0.421 0.224 0.661 0.235l0.133 0.4-0.512 3.407c-0.053 0.368 0.112 0.736 0.421 0.944l1.163 0.773c0.325 0.218 0.752 0.218 1.077 0l1.163-0.773c0.309-0.208 0.474-0.576 0.421-0.949l-0.512-3.402 0.133-0.395c0.24-0.016 0.469-0.096 0.661-0.24 0.104-0.082 0.204-0.169 0.301-0.258 1.409 1.995 3.733 3.298 6.361 3.298 0.053 0 0.105-0.001 0.157-0.002l-2.169 1.611zM30.922 18.671c0 0.293-0.24 0.533-0.533 0.533h-7.302c0.441-0.976 0.687-2.060 0.687-3.202 0-4.298-3.485-7.782-7.782-7.782-1.629 0-3.141 0.501-4.39 1.356-0.455-1.938-2.084-3.444-4.138-3.674v-4.293c0-0.299 0.235-0.533 0.533-0.533h22.393c0.293 0 0.533 0.24 0.533 0.533v17.061z"></path>
<path d="M13.415 14.958c-0.176-0.101-0.375-0.152-0.597-0.152s-0.423 0.051-0.602 0.152c-0.176 0.101-0.317 0.243-0.421 0.426-0.101 0.179-0.152 0.385-0.152 0.617s0.051 0.439 0.152 0.622c0.104 0.179 0.247 0.321 0.426 0.426 0.179 0.101 0.378 0.152 0.597 0.152s0.418-0.051 0.597-0.152c0.179-0.104 0.32-0.247 0.421-0.426 0.104-0.183 0.157-0.39 0.157-0.622s-0.052-0.437-0.157-0.617c-0.101-0.183-0.242-0.325-0.421-0.426z"></path>
<path d="M19.792 14.982c-0.176-0.095-0.382-0.142-0.617-0.142h-0.45v2.325h0.45c0.235 0 0.44-0.048 0.617-0.142s0.312-0.23 0.407-0.407 0.142-0.382 0.142-0.617-0.047-0.439-0.142-0.612c-0.095-0.176-0.23-0.312-0.407-0.407z"></path>
</svg>
