<!-- Generated by IcoMoon.io -->
<svg version="1.1" xmlns="http://www.w3.org/2000/svg" width="32" height="32" viewBox="0 0 32 32">
<path d="M0.6 29.663v0.68c0 0.882 0.712 1.593 1.593 1.593h0.531c0.186 0 0.372-0.053 0.531-0.149 0.159 0.096 0.345 0.149 0.531 0.149h6.373c0.584 0 1.062-0.478 1.062-1.062v-6.384l0.536 1.004c0.234 0.552 0.717 0.956 1.301 1.084 0.568 0.133 1.163-0.011 1.604-0.393l3.489-2.592c0.186-0.165 0.303-0.398 0.319-0.653 0.414-0.345 0.887-0.605 1.397-0.775 0.149-0.042 0.287-0.111 0.414-0.197 0.42-0.266 0.717-0.69 0.813-1.179 0.032-0.181 0.032-0.366 0.005-0.547h9.242c0.882 0 1.593-0.712 1.593-1.593v-16.996c0-0.882-0.712-1.593-1.593-1.593h-22.307c-0.882 0-1.593 0.712-1.593 1.593v4.281c-2.417 0.271-4.244 2.316-4.249 4.748v1.593c0 0.685 0.441 1.296 1.089 1.514 0.127 1.046 0.701 1.992 1.567 2.597v0.781l-1.758 0.393c-1.769 0.388-3.033 1.955-3.022 3.766v7.42c0 0.382 0.202 0.728 0.531 0.919zM2.194 30.874c-0.292 0-0.531-0.239-0.531-0.531v-0.531h1.062v1.062h-0.531zM3.787 29.812h2.656v1.062h-2.656v-1.062zM7.505 30.874v-1.062h2.656v1.062h-2.656zM16.592 20.831c-0.25-0.027-0.499 0.042-0.696 0.202l-1.238 1.030-0.68-1.811h3.203c-0.186 0.202-0.382 0.398-0.59 0.579zM19.699 21.080c-0.043 0.026-0.085 0.048-0.133 0.064-0.574 0.181-1.11 0.457-1.588 0.823l-0.483-0.515c0.467-0.425 0.85-0.924 1.142-1.482 0.032-0.053 0.080-0.090 0.133-0.122 0.382-0.239 0.887-0.149 1.163 0.207 0.112 0.154 0.154 0.345 0.117 0.536-0.043 0.202-0.17 0.382-0.351 0.489zM8.036 1.131h22.307c0.292 0 0.531 0.239 0.531 0.531v16.996c0 0.292-0.239 0.531-0.531 0.531h-9.773c-0.239-0.223-0.531-0.382-0.85-0.462v-3.787c0-0.292-0.239-0.531-0.531-0.531s-0.531 0.239-0.531 0.531v3.813c-0.159 0.048-0.313 0.117-0.451 0.202-0.106 0.064-0.202 0.143-0.292 0.234h-4.509c-0.542-0.728-1.328-1.238-2.215-1.434l-2.093-0.568v-0.797c0.866-0.605 1.439-1.546 1.567-2.597 0.648-0.218 1.089-0.823 1.089-1.514v-1.593c-0.005-2.432-1.832-4.477-4.249-4.748v-4.276c0-0.297 0.234-0.531 0.531-0.531zM8.025 24.84l-1.052 0.701-1.052-0.701 0.451-3.001h1.211l0.441 3.001zM5.136 18.191c0.223 0.287 0.505 0.52 0.823 0.685-0.191 0.271-0.335 0.568-0.425 0.887-0.021 0.064-0.069 0.111-0.133 0.133s-0.138 0.011-0.197-0.027c-0.483-0.382-0.866-0.876-1.11-1.445l1.041-0.234zM6.294 20.783l-0.064-0.186c0.149-0.149 0.26-0.329 0.319-0.536 0.074-0.287 0.218-0.547 0.425-0.759 0.202 0.212 0.345 0.467 0.42 0.754 0.058 0.207 0.17 0.393 0.324 0.542l-0.064 0.186h-1.36zM8.737 19.869c-0.058 0.043-0.127 0.048-0.197 0.027-0.064-0.021-0.117-0.074-0.133-0.138-0.090-0.313-0.234-0.611-0.42-0.876 0.313-0.165 0.589-0.393 0.813-0.674l1.020 0.276c-0.244 0.542-0.616 1.020-1.083 1.386zM6.974 6.974c2.050 0 3.718 1.668 3.718 3.718v0.096c-0.021-0.005-0.037-0.016-0.058-0.021-0.244-0.866-1.147-1.37-2.018-1.126-0.154 0.043-0.308 0.112-0.441 0.202-0.361 0.223-0.775 0.335-1.2 0.324-0.425 0.011-0.839-0.101-1.2-0.324-0.76-0.499-1.774-0.281-2.263 0.478-0.090 0.138-0.154 0.287-0.202 0.441-0.021 0.005-0.037 0.016-0.058 0.021v-0.096c0.005-2.050 1.668-3.713 3.723-3.713zM3.787 12.816c-0.292 0-0.531-0.239-0.531-0.531s0.239-0.531 0.531-0.531c0.297-0.021 0.531-0.271 0.531-0.574 0.005-0.202 0.117-0.388 0.297-0.478 0.085-0.043 0.175-0.069 0.271-0.069 0.106 0 0.212 0.032 0.297 0.090 0.531 0.34 1.153 0.51 1.785 0.499 0.632 0.016 1.253-0.159 1.785-0.499 0.17-0.111 0.393-0.122 0.574-0.021 0.191 0.101 0.308 0.303 0.297 0.521 0 0.292 0.239 0.531 0.531 0.531s0.531 0.239 0.531 0.531c0 0.292-0.239 0.531-0.531 0.531s-0.531 0.239-0.531 0.531c0 1.466-1.19 2.656-2.656 2.656s-2.656-1.19-2.656-2.656c0.005-0.297-0.234-0.531-0.526-0.531zM6.974 17.065c0.361 0 0.717-0.053 1.062-0.154v0.552c-0.244 0.356-0.632 0.595-1.062 0.659-0.43-0.064-0.813-0.303-1.062-0.659v-0.552c0.34 0.101 0.701 0.149 1.062 0.154zM1.131 21.325c-0.005-1.206 0.775-2.273 1.917-2.645 0.319 0.807 0.844 1.508 1.524 2.045 0.191 0.138 0.42 0.223 0.659 0.234l0.133 0.398-0.51 3.394c-0.053 0.366 0.112 0.733 0.42 0.94l1.158 0.77c0.324 0.218 0.749 0.218 1.073 0l1.158-0.77c0.308-0.207 0.473-0.574 0.42-0.945l-0.51-3.389 0.133-0.393c0.239-0.016 0.467-0.096 0.659-0.239 0.659-0.515 1.174-1.19 1.492-1.965l0.080 0.021c0.924 0.202 1.684 0.86 2.013 1.747l0.712 1.901c0.202 0.536 0.802 0.807 1.338 0.611 0.101-0.037 0.197-0.096 0.287-0.159l1.195-0.956 0.876 0.935-3.362 2.496c-0.191 0.17-0.451 0.239-0.701 0.181-0.266-0.064-0.478-0.25-0.579-0.505l-1.556-2.916c-0.138-0.26-0.462-0.356-0.717-0.218-0.175 0.090-0.281 0.271-0.281 0.467v6.373h-6.373v-6.373c0-0.292-0.239-0.531-0.531-0.531s-0.531 0.239-0.531 0.531v6.373h-1.593v-7.414z"></path>
<path d="M10.16 32h-6.373c-0.186 0-0.366-0.048-0.531-0.138-0.165 0.090-0.345 0.138-0.531 0.138h-0.531c-0.919 0-1.662-0.744-1.662-1.657v-0.643c-0.329-0.202-0.531-0.563-0.531-0.951v-7.42c-0.005-1.832 1.285-3.442 3.075-3.835l1.705-0.382v-0.69c-0.855-0.605-1.418-1.546-1.562-2.581-0.653-0.234-1.094-0.855-1.094-1.556v-1.593c0.005-2.448 1.827-4.504 4.249-4.807v-4.222c0-0.919 0.744-1.662 1.662-1.662h22.307c0.913 0 1.662 0.744 1.662 1.662v16.996c0 0.914-0.744 1.662-1.662 1.662h-9.167c0.016 0.165 0.011 0.329-0.016 0.489-0.101 0.505-0.404 0.951-0.839 1.222-0.133 0.085-0.276 0.154-0.43 0.202-0.494 0.165-0.951 0.414-1.354 0.744-0.021 0.255-0.143 0.499-0.34 0.669l-3.495 2.597c-0.451 0.393-1.073 0.542-1.657 0.409-0.605-0.133-1.105-0.552-1.349-1.121l-0.409-0.765v6.113c0 0.616-0.505 1.121-1.126 1.121zM3.256 31.708l0.032 0.021c0.149 0.090 0.324 0.138 0.499 0.138h6.373c0.547 0 0.998-0.446 0.998-0.999v-6.639l0.664 1.238c0.228 0.536 0.696 0.924 1.259 1.046 0.547 0.128 1.126-0.016 1.546-0.382l3.489-2.597c0.17-0.149 0.276-0.372 0.292-0.6v-0.026l0.021-0.016c0.42-0.351 0.898-0.616 1.418-0.786 0.143-0.043 0.276-0.106 0.398-0.186 0.404-0.255 0.69-0.664 0.781-1.131 0.032-0.17 0.032-0.351 0.005-0.526l-0.011-0.080h9.316c0.839 0 1.53-0.685 1.53-1.53v-16.996c0-0.844-0.685-1.53-1.53-1.53h-22.307c-0.845 0-1.53 0.685-1.53 1.53v4.339l-0.058 0.005c-2.385 0.271-4.185 2.284-4.191 4.684v1.593c0 0.659 0.42 1.243 1.046 1.45l0.037 0.011 0.005 0.043c0.127 1.030 0.69 1.96 1.54 2.549l0.027 0.021v0.866l-1.811 0.404c-1.731 0.377-2.98 1.933-2.969 3.702v7.42c0 0.351 0.191 0.68 0.499 0.855l0.032 0.021v0.717c0 0.839 0.685 1.53 1.53 1.53h0.531c0.175 0 0.345-0.048 0.499-0.138l0.037-0.021zM10.224 30.938h-2.788v-1.195h2.788v1.195zM7.569 30.805h2.523v-0.93h-2.523v0.93zM6.506 30.938h-2.788v-1.195h2.788v1.195zM3.851 30.805h2.523v-0.93h-2.523v0.93zM2.788 30.938h-0.595c-0.335 0-0.6-0.266-0.6-0.595v-0.6h1.195v1.195zM1.726 29.875v0.467c0 0.255 0.207 0.467 0.467 0.467h0.462v-0.93h-0.929v-0.005zM10.224 28.813h-6.506v-6.437c0-0.255-0.207-0.467-0.467-0.467s-0.467 0.207-0.467 0.467v6.442h-1.721v-7.489c-0.005-1.238 0.786-2.326 1.965-2.709l0.058-0.021 0.021 0.058c0.313 0.797 0.834 1.492 1.503 2.013 0.181 0.133 0.398 0.207 0.621 0.223l0.043 0.005 0.154 0.457-0.51 3.41c-0.048 0.34 0.106 0.685 0.393 0.876l1.158 0.77c0.303 0.202 0.696 0.202 0.998 0l1.158-0.77c0.287-0.191 0.441-0.536 0.393-0.882l-0.51-3.404 0.154-0.451 0.043-0.005c0.223-0.016 0.441-0.090 0.621-0.223 0.648-0.505 1.158-1.174 1.466-1.939l0.021-0.053 0.138 0.037c0.945 0.207 1.716 0.876 2.055 1.79l0.712 1.901c0.090 0.244 0.271 0.436 0.51 0.542 0.234 0.106 0.499 0.117 0.744 0.027 0.096-0.037 0.186-0.085 0.266-0.149l1.243-0.993 0.967 1.036-0.058 0.043-3.362 2.496c-0.202 0.181-0.489 0.255-0.754 0.191-0.287-0.069-0.521-0.271-0.627-0.547l-1.551-2.905c-0.058-0.111-0.154-0.191-0.276-0.223-0.117-0.037-0.244-0.021-0.356 0.037-0.154 0.080-0.244 0.239-0.244 0.409v6.437h0.005zM3.851 28.68h6.241v-6.304c0-0.223 0.122-0.425 0.313-0.526 0.138-0.074 0.303-0.090 0.457-0.048 0.154 0.048 0.276 0.149 0.356 0.292l1.556 2.916c0.090 0.239 0.292 0.414 0.531 0.473 0.228 0.053 0.467-0.011 0.643-0.165l3.304-2.454-0.781-0.834-1.147 0.919c-0.090 0.074-0.191 0.133-0.303 0.17-0.276 0.106-0.574 0.096-0.845-0.027s-0.473-0.34-0.579-0.616l-0.712-1.901c-0.324-0.871-1.057-1.508-1.965-1.705l-0.027-0.005c-0.319 0.759-0.834 1.429-1.487 1.939-0.191 0.138-0.414 0.223-0.648 0.25l-0.112 0.34 0.505 3.373c0.058 0.393-0.122 0.791-0.451 1.009l-1.158 0.77c-0.351 0.234-0.797 0.234-1.147 0l-1.158-0.77c-0.329-0.223-0.505-0.616-0.451-1.009l0.505-3.378-0.117-0.34c-0.234-0.021-0.457-0.106-0.648-0.244-0.675-0.526-1.2-1.222-1.524-2.013-1.094 0.382-1.816 1.402-1.816 2.565v7.324h1.471v-6.304c0-0.335 0.266-0.6 0.6-0.6s0.6 0.266 0.6 0.6v6.304h-0.005zM6.974 25.621l-1.131-0.749 0.467-3.096h1.322l0.011 0.058 0.457 3.043-1.126 0.744zM5.991 24.809l0.983 0.653 0.983-0.653-0.436-2.9h-1.094l-0.436 2.9zM14.627 22.174l-0.744-1.992h3.447l-0.096 0.112c-0.186 0.207-0.388 0.409-0.595 0.59l-0.021 0.021-0.032-0.005c-0.234-0.027-0.462 0.037-0.648 0.186l-1.312 1.089zM14.075 20.315l0.616 1.636 1.163-0.967c0.202-0.159 0.462-0.239 0.717-0.218 0.159-0.143 0.313-0.292 0.462-0.446h-2.958v-0.005zM17.968 22.057l-0.568-0.611 0.048-0.048c0.462-0.42 0.839-0.913 1.126-1.466 0.043-0.064 0.096-0.117 0.159-0.149 0.409-0.255 0.945-0.159 1.243 0.223 0.122 0.17 0.17 0.382 0.133 0.59-0.048 0.223-0.186 0.42-0.377 0.536l-0.101 0.058c-0.016 0.005-0.032 0.011-0.048 0.016-0.568 0.181-1.099 0.451-1.567 0.818l-0.048 0.032zM17.585 21.457l0.398 0.425c0.473-0.356 0.998-0.621 1.561-0.802 0.043-0.011 0.080-0.032 0.117-0.058l0.074-0.048c0.128-0.101 0.212-0.244 0.244-0.398 0.032-0.165-0.005-0.345-0.106-0.483-0.255-0.329-0.717-0.409-1.073-0.186-0.048 0.027-0.085 0.058-0.112 0.101-0.282 0.542-0.653 1.030-1.105 1.45zM7.696 20.846h-1.455l-0.090-0.271 0.032-0.027c0.143-0.138 0.244-0.313 0.303-0.505 0.074-0.292 0.228-0.568 0.436-0.786l0.048-0.048 0.048 0.048c0.207 0.218 0.361 0.489 0.436 0.781 0.053 0.191 0.159 0.366 0.303 0.51l0.032 0.027-0.090 0.271zM6.342 20.714h1.264l0.032-0.101c-0.143-0.154-0.255-0.34-0.308-0.542-0.064-0.25-0.186-0.478-0.356-0.675-0.17 0.197-0.292 0.43-0.356 0.68-0.058 0.202-0.165 0.382-0.308 0.536l0.032 0.101zM8.615 19.975c-0.032 0-0.064-0.005-0.096-0.016-0.085-0.027-0.149-0.096-0.175-0.181-0.090-0.308-0.228-0.595-0.409-0.86l-0.043-0.064 0.064-0.037c0.308-0.165 0.574-0.382 0.791-0.653l0.027-0.032 0.043 0.011 1.094 0.297-0.032 0.069c-0.244 0.552-0.621 1.041-1.099 1.413l-0.021 0.016c-0.048 0.021-0.096 0.037-0.143 0.037zM8.084 18.903c0.17 0.26 0.303 0.536 0.388 0.834 0.011 0.043 0.048 0.080 0.090 0.096 0.048 0.016 0.096 0.011 0.133-0.016l0.016-0.011c0.43-0.34 0.775-0.781 1.009-1.28l-0.903-0.244c-0.202 0.255-0.451 0.462-0.733 0.621zM5.327 19.975c-0.058 0-0.117-0.016-0.165-0.053-0.494-0.388-0.887-0.898-1.131-1.471l-0.027-0.074 1.158-0.255 0.027 0.032c0.218 0.282 0.489 0.505 0.802 0.669l0.069 0.037-0.043 0.064c-0.186 0.266-0.324 0.558-0.414 0.866-0.027 0.085-0.090 0.149-0.175 0.175-0.037 0.005-0.069 0.011-0.101 0.011zM4.185 18.472c0.239 0.526 0.6 0.988 1.057 1.344 0.037 0.027 0.090 0.032 0.133 0.016s0.080-0.048 0.090-0.090c0.090-0.297 0.218-0.584 0.393-0.845-0.287-0.165-0.542-0.377-0.749-0.637l-0.924 0.212zM30.343 19.253h-9.805l-0.021-0.016c-0.228-0.218-0.515-0.372-0.818-0.446l-0.048-0.016v-3.84c0-0.255-0.207-0.467-0.467-0.467s-0.467 0.207-0.467 0.467v3.861l-0.048 0.016c-0.154 0.042-0.303 0.111-0.436 0.197-0.101 0.064-0.197 0.138-0.276 0.223l-0.021 0.021h-4.568l-0.021-0.027c-0.531-0.712-1.307-1.216-2.172-1.407l-2.146-0.579v-0.882l0.027-0.021c0.85-0.589 1.413-1.519 1.54-2.549l0.005-0.043 0.037-0.011c0.627-0.207 1.046-0.791 1.046-1.45v-1.593c-0.005-2.401-1.806-4.414-4.191-4.684l-0.058-0.005v-4.339c0-0.335 0.266-0.6 0.6-0.6h22.307c0.329 0 0.6 0.266 0.6 0.6v16.996c-0.005 0.329-0.271 0.595-0.6 0.595zM20.592 19.12h9.746c0.255 0 0.467-0.207 0.467-0.467v-16.996c0-0.255-0.207-0.467-0.467-0.467h-22.307c-0.255 0-0.467 0.207-0.467 0.467v4.222c2.422 0.303 4.244 2.358 4.249 4.807v1.593c0 0.701-0.441 1.322-1.094 1.562-0.138 1.036-0.706 1.976-1.562 2.581v0.712l2.045 0.552c0.887 0.202 1.678 0.706 2.231 1.434h4.445c0.085-0.085 0.181-0.159 0.282-0.223 0.133-0.080 0.276-0.149 0.42-0.197v-3.76c0.011-0.335 0.276-0.6 0.611-0.6s0.6 0.266 0.6 0.6v3.734c0.297 0.080 0.574 0.234 0.802 0.446zM6.974 18.186h-0.011c-0.446-0.064-0.85-0.313-1.105-0.685l-0.016-0.021v-0.664l0.085 0.027c0.68 0.202 1.407 0.202 2.087 0l0.085-0.027v0.659l-0.011 0.016c-0.255 0.372-0.659 0.621-1.105 0.69l-0.011 0.005zM5.975 17.437c0.234 0.329 0.595 0.552 0.998 0.611 0.398-0.064 0.76-0.287 0.998-0.616v-0.436c-0.653 0.181-1.338 0.181-1.992 0v0.441h-0.005zM6.974 16.066c-1.503 0-2.725-1.222-2.725-2.725 0-0.255-0.207-0.467-0.467-0.467-0.329 0.005-0.595-0.26-0.595-0.59s0.266-0.6 0.6-0.6c0.255-0.021 0.462-0.239 0.462-0.505 0.005-0.228 0.133-0.435 0.335-0.536 0.090-0.048 0.197-0.074 0.303-0.074 0.117 0 0.234 0.037 0.335 0.101 0.521 0.335 1.131 0.499 1.747 0.489 0.627 0.016 1.227-0.154 1.753-0.489 0.191-0.127 0.435-0.133 0.637-0.021 0.212 0.112 0.345 0.34 0.335 0.579 0 0.255 0.207 0.462 0.467 0.462 0.329 0 0.6 0.266 0.6 0.6s-0.266 0.6-0.6 0.6c-0.255 0-0.467 0.207-0.467 0.467 0 1.487-1.222 2.709-2.719 2.709zM4.886 10.702c-0.090-0.005-0.17 0.021-0.244 0.058-0.159 0.080-0.26 0.244-0.266 0.42 0 0.329-0.26 0.611-0.595 0.637-0.26 0-0.467 0.207-0.467 0.467s0.212 0.462 0.473 0.462c0.329 0 0.6 0.266 0.6 0.6 0 1.429 1.163 2.592 2.592 2.592s2.581-1.168 2.581-2.592c0-0.335 0.266-0.6 0.6-0.6 0.255 0 0.467-0.207 0.467-0.467s-0.207-0.467-0.467-0.467c-0.329 0-0.6-0.266-0.6-0.6 0.005-0.191-0.096-0.372-0.266-0.462-0.159-0.090-0.351-0.080-0.505 0.016-0.526 0.335-1.126 0.51-1.747 0.51-0.053 0-0.101 0-0.154 0-0.616 0-1.216-0.175-1.742-0.51-0.074-0.037-0.165-0.064-0.26-0.064zM3.187 10.883v-0.191c0-2.087 1.7-3.787 3.787-3.787 2.082 0 3.782 1.7 3.787 3.787v0.191l-0.090-0.032c-0.011-0.005-0.021-0.011-0.032-0.011-0.011-0.005-0.016-0.005-0.027-0.011l-0.032-0.011-0.011-0.032c-0.234-0.829-1.105-1.312-1.933-1.078-0.149 0.043-0.292 0.106-0.425 0.191-0.372 0.234-0.797 0.351-1.237 0.335-0.43 0.016-0.86-0.101-1.237-0.335-0.351-0.228-0.77-0.303-1.179-0.218-0.409 0.090-0.76 0.329-0.988 0.68-0.085 0.133-0.149 0.271-0.191 0.425l-0.011 0.032-0.032 0.011c-0.011 0.005-0.021 0.005-0.027 0.011l-0.122 0.042zM9.061 9.507c0.287 0 0.568 0.074 0.823 0.218 0.329 0.186 0.584 0.467 0.733 0.807-0.085-1.939-1.689-3.489-3.649-3.495-1.96 0-3.564 1.556-3.649 3.495 0.037-0.085 0.080-0.17 0.133-0.244 0.244-0.382 0.627-0.643 1.073-0.738s0.898-0.011 1.28 0.234c0.351 0.218 0.754 0.329 1.163 0.313 0.414 0.011 0.818-0.096 1.168-0.313 0.143-0.090 0.297-0.159 0.457-0.207s0.313-0.069 0.467-0.069z"></path>
</svg>
