<!-- Generated by IcoMoon.io -->
<svg version="1.1" xmlns="http://www.w3.org/2000/svg" width="32" height="32" viewBox="0 0 32 32">
<path d="M0.2 1.13c0.291-0.689 0.918-1.13 1.609-1.13h28.381c0.691 0 1.318 0.441 1.609 1.13s0.191 1.501-0.255 2.081l-10.933 14.221v12.616c0 0.676-0.318 1.304-0.841 1.66s-1.176 0.388-1.726 0.085l-5.676-3.122c-0.601-0.331-0.981-1.006-0.981-1.745v-9.494l-10.933-14.221c-0.446-0.58-0.545-1.392-0.255-2.081zM5.632 3.902l8.884 11.556c0.271 0.352 0.419 0.799 0.419 1.26v9.003l2.129 1.171v-10.174c0-0.461 0.149-0.908 0.419-1.26l8.884-11.556h-20.735z"></path>
</svg>
