<!-- Generated by IcoMoon.io -->
<svg version="1.1" xmlns="http://www.w3.org/2000/svg" width="32" height="32" viewBox="0 0 32 32">
<path d="M29.6 32c-2.632 0-4.010-0.661-5.014-1.144-0.55-0.264-0.947-0.456-1.386-0.456-0.558 0-1.021 0.309-1.557 0.666-0.658 0.438-1.402 0.934-2.443 0.934s-1.787-0.496-2.443-0.934c-0.536-0.357-0.998-0.666-1.557-0.666s-1.021 0.309-1.557 0.666c-0.658 0.438-1.402 0.934-2.443 0.934-1.059 0-1.853-0.51-2.552-0.962-0.531-0.342-0.99-0.638-1.448-0.638-0.352 0-0.728 0.179-1.246 0.426-1.042 0.496-2.467 1.174-5.154 1.174-0.442 0-0.8-0.358-0.8-0.8v-14.4c0-4.061 1.581-7.877 4.453-10.747s6.688-4.453 10.747-4.453c4.061 0 7.877 1.581 10.749 4.453s4.451 6.688 4.451 10.747v14.4c0 0.442-0.358 0.8-0.8 0.8zM15.2 28.8c1.042 0 1.787 0.496 2.443 0.934 0.536 0.357 0.998 0.666 1.557 0.666s1.021-0.309 1.557-0.666c0.658-0.438 1.402-0.934 2.443-0.934 0.802 0 1.422 0.298 2.078 0.613 0.8 0.384 1.773 0.851 3.522 0.962v-13.576c0-7.499-6.101-13.6-13.6-13.6s-13.6 6.101-13.6 13.6v13.576c1.81-0.112 2.827-0.597 3.666-0.995 0.629-0.299 1.221-0.581 1.934-0.581 0.926 0 1.664 0.474 2.314 0.893 0.589 0.379 1.099 0.707 1.686 0.707 0.558 0 1.021-0.309 1.557-0.666 0.658-0.438 1.402-0.934 2.443-0.934z"></path>
<path d="M10.4 16c-1.323 0-2.4-1.077-2.4-2.4s1.077-2.4 2.4-2.4 2.4 1.077 2.4 2.4-1.077 2.4-2.4 2.4zM10.4 12.8c-0.442 0-0.8 0.358-0.8 0.8s0.358 0.8 0.8 0.8 0.8-0.358 0.8-0.8-0.358-0.8-0.8-0.8z"></path>
<path d="M20 16c-1.323 0-2.4-1.077-2.4-2.4s1.077-2.4 2.4-2.4 2.4 1.077 2.4 2.4-1.077 2.4-2.4 2.4zM20 12.8c-0.442 0-0.8 0.358-0.8 0.8s0.358 0.8 0.8 0.8 0.8-0.358 0.8-0.8-0.358-0.8-0.8-0.8z"></path>
</svg>
