<!-- Generated by IcoMoon.io -->
<svg version="1.1" xmlns="http://www.w3.org/2000/svg" width="32" height="32" viewBox="0 0 32 32">
<path d="M3.59 26.859c0.002 2.158 1.751 3.907 3.909 3.91h17.002c2.158-0.003 3.907-1.752 3.909-3.91v-21.72c-0.003-2.158-1.751-3.906-3.909-3.909h-12.253c-0.003 0-0.006 0-0.009 0-1.077 0-2.051 0.438-2.755 1.145l-4.751 4.751c-0.706 0.704-1.143 1.678-1.143 2.754 0 0.003 0 0.006 0 0.009v-0 16.97zM6.052 9.889c0-0.382 0.155-0.754 0.423-1.024l4.748-4.748c0.263-0.261 0.625-0.423 1.025-0.425h12.253c0.799 0 1.447 0.649 1.447 1.447v21.719c0 0.799-0.649 1.449-1.447 1.449h-17.002c-0.799-0.001-1.447-0.649-1.447-1.449v-16.97z"></path>
<path d="M9.417 23.186c0.098 0.028 0.211 0.044 0.327 0.044 0.563 0 1.038-0.378 1.184-0.895l0.002-0.009 0.23-0.839h4.185l0.23 0.839c0.148 0.525 0.623 0.903 1.186 0.903 0.68 0 1.231-0.551 1.231-1.231 0-0.116-0.016-0.229-0.046-0.336l0.002 0.009-1.511-5.493c-0.399-1.409-1.673-2.424-3.184-2.427h-0c-1.511 0.003-2.785 1.018-3.178 2.404l-0.006 0.023-1.511 5.493c-0.028 0.098-0.044 0.211-0.044 0.327 0 0.563 0.378 1.038 0.895 1.184l0.009 0.002zM13.253 16.214c0.377 0 0.711 0.255 0.812 0.619l0.603 2.193h-2.831l0.603-2.193c0.102-0.359 0.427-0.618 0.812-0.619h0zM17.585 13.564h1.104v1.106c0 0.68 0.551 1.231 1.231 1.231s1.231-0.551 1.231-1.231v0-1.106h1.105c0.68 0 1.231-0.551 1.231-1.231s-0.551-1.231-1.231-1.231v0h-1.105v-1.104c0-0.68-0.551-1.231-1.231-1.231s-1.231 0.551-1.231 1.231v0 1.104h-1.105c-0.68 0-1.231 0.551-1.231 1.231s0.551 1.231 1.231 1.231v0z"></path>
</svg>
