<!-- Generated by IcoMoon.io -->
<svg version="1.1" xmlns="http://www.w3.org/2000/svg" width="32" height="32" viewBox="0 0 32 32">
<path d="M13 18.17l-1 1.83h2.11zM13 18.17l-1 1.83h2.11zM23 2h-14c-2.761 0-5 2.239-5 5v0 18c0 2.761 2.239 5 5 5v0h14c2.761 0 5-2.239 5-5v0-18c0-2.761-2.239-5-5-5v0zM13 6h6c0.552 0 1 0.448 1 1s-0.448 1-1 1v0h-6c-0.552 0-1-0.448-1-1s0.448-1 1-1v0zM17.87 23.43c-0.091 0.151-0.216 0.273-0.365 0.357l-0.005 0.003c-0.143 0.086-0.315 0.138-0.499 0.14h-0.001c-0.012 0-0.025 0.001-0.039 0.001-0.208 0-0.402-0.060-0.566-0.163l0.004 0.003c-0.114-0.068-0.206-0.163-0.268-0.276l-0.002-0.004-0.9-1.49h-4.42l-0.94 1.57c-0.044 0.079-0.101 0.145-0.169 0.199l-0.001 0.001c-0.172 0.144-0.396 0.232-0.64 0.232-0.021 0-0.042-0.001-0.063-0.002l0.003 0c-0.185-0.002-0.357-0.054-0.505-0.143l0.005 0.003c-0.241-0.127-0.421-0.343-0.498-0.603l-0.002-0.007c-0.021-0.076-0.032-0.163-0.032-0.253 0-0.183 0.049-0.355 0.135-0.502l-0.003 0.005 3.9-6.75c0.072-0.257 0.237-0.468 0.455-0.597l0.005-0.003c0.144-0.085 0.317-0.135 0.501-0.135 0.37 0 0.693 0.201 0.866 0.5l0.003 0.005 4 6.93c0.094 0.149 0.149 0.331 0.149 0.526 0 0.166-0.040 0.322-0.112 0.46l0.003-0.006zM23 20h-1v1.13c0 0.552-0.448 1-1 1s-1-0.448-1-1v0-1.13h-1c-0.552 0-1-0.448-1-1s0.448-1 1-1v0h1v-0.87c0-0.552 0.448-1 1-1s1 0.448 1 1v0 0.87h1c0.552 0 1 0.448 1 1s-0.448 1-1 1v0zM12 20h2.11l-1.11-1.83z"></path>
</svg>
