<!-- Generated by IcoMoon.io -->
<svg version="1.1" xmlns="http://www.w3.org/2000/svg" width="32" height="32" viewBox="0 0 32 32">
<path d="M26.4 3.2h-20.8c-1.323 0-2.4 1.077-2.4 2.4v20.8c0 1.323 1.077 2.4 2.4 2.4h20.8c1.323 0 2.4-1.077 2.4-2.4v-20.8c0-1.323-1.077-2.4-2.4-2.4zM27.2 5.6v5.6h-6.4v-6.4h5.6c0.442 0 0.8 0.358 0.8 0.8zM12.8 19.2v-6.4h6.4v6.4h-6.4zM19.2 20.8v6.4h-6.4v-6.4h6.4zM11.2 19.2h-6.4v-6.4h6.4v6.4zM12.8 11.2v-6.4h6.4v6.4h-6.4zM20.8 12.8h6.4v6.4h-6.4v-6.4zM5.6 4.8h5.6v6.4h-6.4v-5.6c0-0.442 0.358-0.8 0.8-0.8zM4.8 26.4v-5.6h6.4v6.4h-5.6c-0.442 0-0.8-0.358-0.8-0.8zM26.4 27.2h-5.6v-6.4h6.4v5.6c0 0.442-0.358 0.8-0.8 0.8z"></path>
</svg>
