<svg width="24" height="24" fill="none" xmlns="http://www.w3.org/2000/svg"><path d="M7.1 3.787c-1.078.131-1.92.541-2.653 1.292-.494.504-.862 1.176-1.074 1.961-.101.371-.101 1.549 0 1.92.224.827.597 1.486 1.151 2.036l.319.317-.302.145c-.803.387-1.807 1.239-2.286 1.942-.635.931-1.006 2.089-.969 3.026.013.324.026.376.129.512a.725.725 0 0 0 .855.24c.314-.131.432-.337.47-.82.089-1.14.442-1.909 1.241-2.706.92-.916 2.086-1.384 3.536-1.418l.417-.009.113.277c.251.621.49.99.946 1.466l.334.347-.293.148c-1.954.978-3.212 2.858-3.246 4.85-.008.416-.004.438.102.577.19.249.338.33.61.33.269 0 .42-.081.605-.322.091-.12.108-.193.138-.588.045-.594.154-.996.416-1.53.612-1.251 1.801-2.126 3.321-2.444.504-.106 1.536-.106 2.04 0 1.52.318 2.709 1.193 3.321 2.444.258.527.367.926.415 1.531.031.393.049.469.14.587.184.241.335.322.604.322.272 0 .42-.081.61-.33.106-.139.11-.161.102-.577-.034-1.991-1.293-3.872-3.246-4.85l-.293-.148.334-.347c.456-.476.695-.845.946-1.466l.113-.277.417.009c1.45.034 2.616.502 3.536 1.418.751.749 1.132 1.541 1.222 2.543.049.54.063.596.187.759a.724.724 0 0 0 .842.224c.335-.14.45-.356.45-.846 0-.941-.364-2.034-.975-2.932-.478-.702-1.482-1.555-2.286-1.942l-.302-.145.322-.322a4.21 4.21 0 0 0 .819-4.84A4.238 4.238 0 0 0 17.867 4a4.216 4.216 0 0 0-4.684 1.368c-.273.342-.564.862-.678 1.212l-.065.2h-.877l-.085-.24c-.351-.982-1.134-1.852-2.102-2.337-.669-.334-1.581-.501-2.276-.416m1 1.513c.813.17 1.615.832 1.936 1.599l.117.278-.266.158a4.202 4.202 0 0 0-1.695 1.832 4.278 4.278 0 0 0-.371 1.213c-.046.398-.029.38-.354.379-.983-.002-1.951-.592-2.423-1.478-.395-.741-.396-1.82-.001-2.561.368-.691 1.105-1.258 1.84-1.418.34-.074.87-.075 1.217-.002m9 0c.946.198 1.803 1.011 2.062 1.956a3.146 3.146 0 0 1 0 1.488c-.321 1.172-1.491 2.055-2.657 2.008l-.285-.012-.03-.28c-.135-1.256-.92-2.438-2.077-3.125l-.267-.159.094-.231c.322-.794 1.114-1.463 1.943-1.643.34-.074.87-.075 1.217-.002m-4.28 3.06c.452.141.766.338 1.141.716.271.273.376.415.508.684.224.457.31.894.276 1.399-.052.776-.261 1.238-.804 1.783-.294.295-.424.392-.701.528a3.361 3.361 0 0 1-.648.228 2.842 2.842 0 0 1-1.832-.228c-.277-.136-.407-.233-.701-.528-.543-.545-.752-1.007-.804-1.783-.092-1.356.813-2.555 2.16-2.862.352-.08 1.045-.049 1.405.063" fill-rule="evenodd" fill="#000"/></svg>