<svg width="30" height="30" fill="none" xmlns="http://www.w3.org/2000/svg"><path d="M9.543 4.304a4.428 4.428 0 0 0-3.59 2.554 4.45 4.45 0 0 0 .954 5.12c.544.518 1.237.922 1.579.922.55-.001.904-.652.6-1.105-.062-.094-.238-.237-.391-.32-.855-.461-1.398-1.132-1.619-1.998-.099-.387-.097-1.106.003-1.495.197-.764.804-1.531 1.496-1.89.444-.231.638-.285 1.225-.344.496-.05.628-.108.815-.358.067-.089.097-.211.097-.39 0-.277-.087-.444-.315-.605-.163-.115-.395-.14-.854-.091m10.263-.001c-.357.079-.592.489-.504.88.081.362.416.563.941.566.611.003 1.358.351 1.883.875.595.596.872 1.269.873 2.128.002 1.173-.592 2.128-1.694 2.723-.153.083-.329.226-.391.32-.304.453.05 1.104.6 1.105.342 0 1.035-.404 1.579-.922a4.425 4.425 0 0 0 1.353-3.645 4.101 4.101 0 0 0-.399-1.475c-.7-1.499-2.096-2.445-3.797-2.572a1.913 1.913 0 0 0-.444.017m-5.263 1.252a4.69 4.69 0 0 0-2.077.75c-1.778 1.213-2.433 3.625-1.516 5.581.262.56.563.974 1.016 1.394.839.779 1.865 1.178 3.034 1.178 1.25 0 2.262-.42 3.15-1.308.888-.888 1.308-1.9 1.308-3.15 0-.86-.21-1.612-.666-2.391-.215-.366-1.035-1.186-1.401-1.401-.897-.525-1.886-.752-2.848-.653m1.225 1.524c1.022.264 1.917 1.168 2.155 2.176.042.176.076.511.076.745 0 .234-.034.569-.076.745-.239 1.015-1.163 1.939-2.178 2.178-.41.097-1.08.097-1.49 0-1.008-.238-1.912-1.133-2.176-2.155-.102-.396-.102-1.14 0-1.536.256-.992 1.099-1.851 2.096-2.139.393-.113 1.182-.12 1.593-.014M7.3 15.555a6.19 6.19 0 0 0-2.791.977C3.95 16.9 3.15 17.7 2.782 18.259c-.884 1.34-1.247 3.245-.831 4.357.397 1.061 1.45 1.823 2.552 1.847.321.007.401-.009.538-.106a.705.705 0 0 0 .309-.607c0-.437-.243-.666-.784-.741-.435-.06-.656-.161-.91-.415-.338-.338-.382-.48-.376-1.219.005-.561.025-.708.142-1.075.611-1.901 2.137-3.125 4.109-3.296.628-.055.735-.097.941-.373.141-.189.141-.573 0-.762-.243-.325-.436-.377-1.172-.314m14.658-.002c-.498.108-.709.751-.376 1.147.189.224.263.249.881.303 2.363.206 4.162 2.028 4.273 4.328.025.516.019.575-.096.825-.23.504-.608.77-1.209.853-.538.075-.781.305-.781.741 0 .258.103.46.309.606.135.096.218.113.527.108.718-.014 1.341-.29 1.889-.839.609-.608.839-1.187.832-2.095-.011-1.568-.596-2.996-1.695-4.137a6.075 6.075 0 0 0-2.466-1.56c-.615-.211-1.719-.359-2.088-.28M12.3 16.804a6.199 6.199 0 0 0-2.791.978c-.559.368-1.359 1.168-1.727 1.727-.884 1.34-1.247 3.245-.831 4.357.305.816 1.008 1.471 1.874 1.747l.35.112H15c5.513 0 5.841-.005 6.125-.092.49-.15.877-.385 1.25-.758.61-.609.844-1.199.835-2.1a5.946 5.946 0 0 0-1.853-4.287c-1.04-1.001-2.301-1.568-3.757-1.689-.682-.056-4.62-.052-5.3.005m6.15 1.615c1.576.529 2.624 1.573 3.111 3.1.111.349.152.592.174 1.036.027.544.021.597-.095.85a1.414 1.414 0 0 1-.721.729l-.256.117-5.719-.013c-6.43-.015-5.874.02-6.288-.394-.338-.338-.382-.48-.376-1.219.005-.561.025-.708.142-1.075.339-1.054 1-1.958 1.836-2.511.534-.353 1.236-.644 1.78-.739.13-.022 1.531-.037 3.112-.032l2.875.009.425.142" fill-rule="evenodd" fill="#000"/></svg>