<!-- Generated by IcoMoon.io -->
<svg version="1.1" xmlns="http://www.w3.org/2000/svg" width="34" height="32" viewBox="0 0 34 32">
<path d="M32.953 24.518c0.006 0 0.012 0 0.019 0 0.258 0 0.491-0.106 0.658-0.276l0-0c0.17-0.165 0.276-0.395 0.276-0.65 0-0.004-0-0.009-0-0.013v0.001-6.635q0-1.067-0.082-2.087c-0.061-0.753-0.152-1.427-0.277-2.088l0.019 0.121q-0.175-0.947-0.423-1.838t-0.565-1.718q-0.331-0.791-0.716-1.525c-0.287-0.545-0.567-1.002-0.873-1.439l0.028 0.043c-0.333-0.476-0.659-0.89-1.006-1.284l0.013 0.015c-0.358-0.407-0.724-0.779-1.109-1.13l-0.011-0.010c-0.711-0.629-1.502-1.2-2.346-1.69l-0.070-0.038c-0.804-0.468-1.737-0.894-2.714-1.226l-0.11-0.033c-0.901-0.312-1.976-0.578-3.083-0.749l-0.107-0.014c-1.038-0.164-2.234-0.258-3.453-0.258-0.024 0-0.048 0-0.071 0h0.004c-0.020-0-0.044-0-0.068-0-1.218 0-2.415 0.094-3.583 0.274l0.13-0.017c-1.213 0.184-2.289 0.45-3.324 0.802l0.134-0.040c-1.087 0.365-2.021 0.79-2.9 1.299l0.075-0.040c-0.915 0.527-1.706 1.098-2.432 1.741l0.016-0.014c-0.397 0.361-0.763 0.733-1.107 1.124l-0.013 0.016c-0.334 0.379-0.66 0.792-0.963 1.224l-0.030 0.045c-0.278 0.395-0.558 0.851-0.81 1.325l-0.035 0.071q-0.386 0.736-0.716 1.525-0.313 0.827-0.565 1.718t-0.423 1.838c-0.106 0.54-0.197 1.213-0.253 1.897l-0.005 0.070q-0.082 1.017-0.082 2.087v6.635c-0 0.004-0 0.008-0 0.012 0 0.255 0.106 0.485 0.276 0.65l0 0c0.168 0.17 0.401 0.276 0.659 0.276 0.007 0 0.013-0 0.020-0l-0.001 0c0.004 0 0.008 0 0.012 0 0.255 0 0.485-0.106 0.65-0.276l0-0c0.17-0.165 0.276-0.395 0.276-0.65 0-0.004-0-0.009-0-0.013v0.001-6.635c-0.002-0.091-0.002-0.198-0.002-0.305 0-2.177 0.368-4.268 1.045-6.215l-0.040 0.133c0.647-1.85 1.649-3.431 2.933-4.734l-0.001 0.001c1.301-1.283 2.883-2.285 4.645-2.905l0.088-0.027c1.814-0.637 3.905-1.005 6.082-1.005 0.107 0 0.214 0.001 0.321 0.003l-0.016-0c0.091-0.002 0.198-0.002 0.305-0.002 2.177 0 4.268 0.368 6.215 1.045l-0.133-0.040c1.85 0.647 3.431 1.649 4.734 2.933l-0.001-0.001c1.283 1.301 2.285 2.883 2.905 4.645l0.027 0.088c0.637 1.814 1.005 3.905 1.005 6.082 0 0.107-0.001 0.214-0.003 0.321l0-0.016v6.635c-0 0.004-0 0.008-0 0.012 0 0.255 0.106 0.485 0.276 0.65l0 0c0.165 0.17 0.395 0.276 0.65 0.276 0.010 0 0.021-0 0.031-0.001l-0.002 0zM10.386 15.053c-0.011-0-0.023-0-0.036-0-0.614 0-1.18 0.204-1.634 0.547l0.007-0.005c-0.463 0.341-0.815 0.808-1.010 1.349l-0.006 0.020c-0.974 0.040-1.887 0.253-2.725 0.608l0.051-0.019c-0.743 0.318-1.366 0.794-1.848 1.388l-0.007 0.009c-0.437 0.54-0.77 1.183-0.957 1.885l-0.008 0.036c-0.191 0.738-0.301 1.586-0.301 2.459 0 0.069 0.001 0.138 0.002 0.207l-0-0.010c-0.001 0.054-0.002 0.117-0.002 0.18 0 0.882 0.111 1.739 0.32 2.556l-0.015-0.071c0.192 0.742 0.524 1.389 0.969 1.942l-0.008-0.010c0.486 0.6 1.106 1.072 1.817 1.374l0.031 0.012c0.788 0.33 1.701 0.539 2.658 0.578l0.016 0c0.196 0.567 0.55 1.037 1.009 1.373l0.008 0.006c0.448 0.333 1.013 0.534 1.624 0.534 0.014 0 0.028-0 0.041-0l-0.002 0c0.012 0 0.027 0 0.042 0 0.764 0 1.454-0.316 1.947-0.824l0.001-0.001c0.511-0.496 0.827-1.19 0.827-1.957 0-0.016-0-0.032-0-0.048l0 0.002v-11.285c0-0.014 0-0.030 0-0.046 0-0.767-0.317-1.461-0.827-1.957l-0.001-0.001c-0.494-0.512-1.186-0.829-1.952-0.829-0.010 0-0.021 0-0.031 0h0.002zM3.787 23.527c-0.004-0.082-0.006-0.179-0.006-0.276 0-1.075 0.267-2.088 0.739-2.975l-0.017 0.034c0.679-0.887 1.738-1.454 2.93-1.454 0.043 0 0.085 0.001 0.127 0.002l-0.006-0v9.338c-0.046 0.002-0.099 0.003-0.153 0.003-1.178 0-2.226-0.56-2.891-1.428l-0.006-0.009c-0.457-0.858-0.726-1.877-0.726-2.958 0-0.098 0.002-0.195 0.007-0.291l-0.001 0.014zM11.322 29.17c0 0.006 0 0.012 0 0.019 0 0.258-0.106 0.491-0.276 0.659l-0 0c-0.165 0.17-0.395 0.276-0.65 0.276-0.004 0-0.008-0-0.013-0h0.001c-0.006 0-0.012 0-0.019 0-0.258 0-0.491-0.106-0.659-0.276l-0-0c-0.17-0.168-0.276-0.401-0.276-0.659 0-0.007 0-0.014 0-0.020l-0 0.001v-11.285c-0-0.004-0-0.008-0-0.012 0-0.255 0.106-0.485 0.275-0.65l0-0c0.168-0.17 0.401-0.276 0.659-0.276 0.007 0 0.014 0 0.020 0l-0.001-0c0.004-0 0.008-0 0.012-0 0.255 0 0.485 0.106 0.65 0.276l0 0c0.17 0.165 0.276 0.395 0.276 0.65 0 0.004-0 0.009-0 0.013v-0.001zM30.755 18.95c-0.487-0.602-1.107-1.077-1.816-1.385l-0.031-0.012c-0.787-0.336-1.701-0.549-2.659-0.588l-0.015-0c-0.202-0.562-0.554-1.028-1.009-1.364l-0.008-0.006c-0.448-0.339-1.014-0.543-1.627-0.543-0.013 0-0.025 0-0.038 0l0.002-0c-0.010-0-0.023-0-0.035-0-0.765 0-1.456 0.317-1.949 0.826l-0.001 0.001c-0.511 0.496-0.827 1.19-0.827 1.957 0 0.016 0 0.032 0 0.048l-0-0.002v11.285c-0 0.018-0.001 0.038-0.001 0.059 0 0.762 0.312 1.451 0.816 1.946l0 0c0.494 0.51 1.185 0.827 1.95 0.827 0.012 0 0.025-0 0.037-0l-0.002 0c0.012 0 0.026 0 0.039 0 0.611 0 1.175-0.2 1.631-0.539l-0.007 0.005c0.467-0.341 0.82-0.811 1.011-1.358l0.006-0.020c0.973-0.040 1.886-0.249 2.727-0.598l-0.053 0.019c0.743-0.313 1.365-0.786 1.845-1.379l0.007-0.009c0.438-0.542 0.771-1.188 0.957-1.894l0.008-0.036c0.193-0.746 0.304-1.602 0.304-2.485 0-0.063-0.001-0.127-0.002-0.19l0 0.009c0.001-0.055 0.002-0.119 0.002-0.184 0-0.878-0.111-1.73-0.32-2.543l0.015 0.071c-0.195-0.739-0.528-1.383-0.972-1.933l0.008 0.010zM23.542 30.124c-0.004 0-0.008 0-0.012 0-0.255 0-0.485-0.106-0.65-0.276l-0-0c-0.17-0.168-0.276-0.401-0.276-0.659 0-0.007 0-0.014 0-0.020l-0 0.001v-11.285c-0-0.004-0-0.008-0-0.012 0-0.255 0.106-0.485 0.276-0.65l0-0c0.165-0.17 0.395-0.276 0.65-0.276 0.004 0 0.009 0 0.013 0h-0.001c0.006-0 0.012-0 0.019-0 0.258 0 0.491 0.106 0.659 0.276l0 0c0.17 0.165 0.276 0.395 0.276 0.65 0 0.004-0 0.009-0 0.013v-0.001 11.285c0 0.006 0 0.012 0 0.019 0 0.258-0.106 0.491-0.276 0.659l-0 0c-0.168 0.17-0.401 0.276-0.659 0.276-0.007 0-0.014-0-0.020-0l0.001 0zM26.372 28.195v-9.335c0.036-0.001 0.078-0.002 0.121-0.002 1.192 0 2.251 0.567 2.923 1.445l0.006 0.009c0.455 0.853 0.722 1.866 0.722 2.941 0 0.097-0.002 0.193-0.006 0.289l0-0.014c0.004 0.084 0.006 0.183 0.006 0.283 0 1.079-0.267 2.095-0.739 2.987l0.017-0.035c-0.672 0.876-1.719 1.436-2.896 1.436-0.054 0-0.107-0.001-0.161-0.003l0.008 0z"></path>
</svg>
