<!-- Generated by IcoMoon.io -->
<svg version="1.1" xmlns="http://www.w3.org/2000/svg" width="36" height="32" viewBox="0 0 36 32">
<path d="M17.891 32.001c-0.002 0-0.005 0-0.008 0-0.082 0-0.161-0.010-0.238-0.029l0.007 0.001c-0.084-0.021-0.158-0.050-0.227-0.085l0.006 0.003q-0.074-0.037-0.827-0.488t-1.958-1.259-2.729-1.967-3.125-2.592q-0.954-0.864-1.801-1.728t-1.599-1.728q-0.753-0.864-1.406-1.737t-1.185-1.737c-0.4-0.615-0.808-1.339-1.17-2.089l-0.053-0.121c-0.293-0.596-0.589-1.326-0.836-2.078l-0.036-0.128c-0.204-0.608-0.386-1.345-0.512-2.101l-0.012-0.087c-0.11-0.65-0.174-1.399-0.175-2.163v-0.001c-0-0.017-0-0.038-0-0.059 0-1.367 0.287-2.668 0.805-3.844l-0.024 0.061c0.53-1.22 1.246-2.263 2.124-3.143l-0 0c0.878-0.876 1.917-1.592 3.069-2.098l0.065-0.025c1.114-0.494 2.413-0.781 3.779-0.781 0.025 0 0.051 0 0.076 0l-0.004-0c0.491 0.001 0.971 0.048 1.436 0.136l-0.048-0.008c0.542 0.1 1.014 0.231 1.468 0.397l-0.063-0.020c0.549 0.197 1.007 0.402 1.447 0.636l-0.059-0.029c0.511 0.268 0.947 0.545 1.359 0.853l-0.026-0.018c0.511 0.375 0.961 0.77 1.375 1.201l0.003 0.003c0.392 0.407 0.754 0.849 1.080 1.318l0.023 0.035c0.338-0.506 0.698-0.947 1.095-1.352l-0.002 0.002c0.421-0.432 0.874-0.827 1.358-1.183l0.030-0.021c0.383-0.288 0.816-0.565 1.269-0.808l0.054-0.027c0.38-0.207 0.835-0.412 1.305-0.584l0.073-0.023c0.392-0.146 0.864-0.277 1.35-0.368l0.056-0.009c0.422-0.081 0.908-0.128 1.405-0.129h0.001c0.017-0 0.038-0 0.059-0 1.367 0 2.668 0.287 3.844 0.805l-0.061-0.024c1.22 0.53 2.263 1.246 3.143 2.124l-0-0c0.878 0.88 1.593 1.922 2.098 3.078l0.025 0.065c0.494 1.116 0.782 2.417 0.782 3.785 0 0.019-0 0.038-0 0.057v-0.003c-0.001 0.764-0.068 1.511-0.195 2.237l0.011-0.078c-0.145 0.849-0.33 1.585-0.565 2.299l0.032-0.112c-0.286 0.885-0.579 1.615-0.914 2.321l0.049-0.116c-0.407 0.87-0.811 1.596-1.258 2.291l0.046-0.076q-0.551 0.864-1.192 1.737t-1.397 1.737q-0.753 0.864-1.608 1.728t-1.788 1.728q-1.599 1.431-3.125 2.592t-2.729 1.967q-1.204 0.808-1.967 1.259t-0.818 0.488c-0.066 0.034-0.143 0.062-0.223 0.081l-0.007 0.001c-0.071 0.017-0.152 0.027-0.235 0.027v0zM9.895 1.894c-0.014-0-0.031-0-0.048-0-1.108 0-2.162 0.23-3.118 0.644l0.051-0.020c-0.989 0.423-1.834 1-2.546 1.71l0-0c-0.712 0.713-1.293 1.557-1.704 2.493l-0.020 0.052c-0.398 0.902-0.63 1.953-0.63 3.058 0 0.020 0 0.039 0 0.059l-0-0.003c-0 0.008-0 0.017-0 0.027 0 1.489 0.275 2.914 0.776 4.227l-0.027-0.081c0.556 1.476 1.206 2.745 1.977 3.928l-0.047-0.077c0.829 1.28 1.692 2.394 2.64 3.429l-0.017-0.019c0.908 1 1.835 1.923 2.804 2.8l0.034 0.031q1.232 1.14 2.454 2.086t2.265 1.682q1.048 0.736 1.866 1.259t1.284 0.799q0.441-0.275 1.259-0.8t1.874-1.259q1.056-0.736 2.265-1.682t2.463-2.086q1.378-1.249 2.83-2.83c0.933-1.016 1.797-2.13 2.564-3.312l0.059-0.098c0.724-1.106 1.371-2.376 1.876-3.716l0.045-0.135c0.471-1.235 0.744-2.664 0.744-4.157 0-0.006 0-0.011 0-0.017v0.001c0-0.014 0-0.031 0-0.048 0-1.108-0.23-2.162-0.644-3.118l0.020 0.051c-0.424-0.99-1.004-1.835-1.718-2.545l-0-0c-0.713-0.707-1.558-1.283-2.493-1.689l-0.053-0.020c-0.901-0.395-1.95-0.625-3.054-0.625-0.018 0-0.037 0-0.055 0h0.003c-0.844 0.001-1.649 0.163-2.388 0.457l0.044-0.015c-0.807 0.312-1.505 0.702-2.137 1.174l0.023-0.017c-0.635 0.469-1.184 1.002-1.655 1.6l-0.014 0.018c-0.412 0.51-0.748 1.103-0.979 1.746l-0.013 0.042c-0.065 0.189-0.183 0.346-0.337 0.457l-0.003 0.002c-0.148 0.115-0.337 0.184-0.542 0.184-0 0-0 0-0 0h0c-0.003 0-0.006 0-0.009 0-0.208 0-0.399-0.069-0.553-0.185l0.002 0.002c-0.156-0.113-0.275-0.27-0.338-0.452l-0.002-0.007c-0.244-0.685-0.58-1.278-1.001-1.8l0.009 0.012c-0.482-0.614-1.026-1.147-1.631-1.602l-0.022-0.016c-0.606-0.458-1.301-0.848-2.045-1.137l-0.059-0.020c-0.691-0.276-1.491-0.437-2.329-0.439h-0.001z"></path>
</svg>
