<!-- Generated by IcoMoon.io -->
<svg version="1.1" xmlns="http://www.w3.org/2000/svg" width="36" height="32" viewBox="0 0 36 32">
<path fill="#4d5e6f" d="M25.578 0c-3.033 0-5.893 1.395-7.8 3.662-1.907-2.267-4.767-3.662-7.8-3.662-5.373 0-9.533 4.185-9.533 9.591 0 6.626 5.893 11.946 14.82 20.141l2.514 2.268 2.514-2.268c8.926-8.196 14.82-13.515 14.82-20.141 0-5.406-4.16-9.591-9.533-9.591zM18.847 27.438l-0.352 0.323-0.718 0.648-0.718-0.648-0.351-0.322c-4.201-3.857-7.83-7.188-10.229-10.166-2.33-2.893-3.369-5.262-3.369-7.681 0-1.905 0.702-3.661 1.976-4.943 1.27-1.278 3.007-1.982 4.89-1.982 2.178 0 4.331 1.014 5.759 2.712l2.041 2.426 2.041-2.426c1.428-1.698 3.581-2.712 5.759-2.712 1.884 0 3.62 0.704 4.89 1.982 1.274 1.282 1.976 3.038 1.976 4.943 0 2.419-1.039 4.788-3.369 7.681-2.399 2.978-6.027 6.309-10.228 10.166z"></path>
</svg>
