<!-- Generated by IcoMoon.io -->
<svg version="1.1" xmlns="http://www.w3.org/2000/svg" width="32" height="32" viewBox="0 0 32 32">
<path d="M27.436 6.373l-0.893 1.4c2.317 1.301 3.856 3.742 3.856 6.542s-1.54 5.242-3.819 6.523l-0.038 0.019 0.893 1.4c2.749-1.623 4.564-4.571 4.564-7.942s-1.815-6.319-4.521-7.919l-0.043-0.023zM25.6 3.368c0-0.004 0-0.009 0-0.014 0-0.649-0.365-1.213-0.9-1.497l-0.009-0.004c-0.201-0.106-0.438-0.168-0.69-0.168h-0c-0.381 0-0.728 0.14-0.996 0.371l-7.56 6.366h-9.853c-3.122 0.172-5.588 2.745-5.588 5.895s2.466 5.723 5.573 5.894l0.015 0.001h0.926l3.688 9.085c0.17 0.424 0.501 0.753 0.915 0.916l0.011 0.004c0.16 0.064 0.345 0.101 0.538 0.101 0.006 0 0.012-0 0.018-0h-0.001c0.259-0 0.503-0.067 0.715-0.182l-0.008 0.004 3.2-1.684c0.535-0.299 0.89-0.862 0.89-1.507 0-0.239-0.049-0.466-0.137-0.673l0.004 0.011-2.476-6.073h1.566l7.562 6.368c0.266 0.228 0.613 0.367 0.993 0.369h0c0.252-0.001 0.49-0.063 0.699-0.172l-0.008 0.004c0.545-0.29 0.91-0.853 0.91-1.503 0-0.005-0-0.009-0-0.014v0.001-21.895zM6.4 18.526h-0.808c-2.325 0-4.211-1.885-4.211-4.211s1.885-4.211 4.211-4.211v0h0.808v8.421zM14.872 26.947l-3.183 1.684-3.436-8.421h3.891zM24 25.263l-8-6.737h-8v-8.421h8l8-6.737v21.895z"></path>
</svg>
