<!-- Generated by IcoMoon.io -->
<svg version="1.1" xmlns="http://www.w3.org/2000/svg" width="34" height="32" viewBox="0 0 34 32">
<path d="M19.154 1.181l0.302 0.002 1.145 0.016 1.047 0.028 0.956 0.042 0.872 0.058c3.049 0.243 4.528 0.843 5.911 2.226l0.163 0.167c1.168 1.222 1.73 2.449 1.994 4.957l0.065 0.717 0.051 0.786 0.039 0.861 0.040 1.445 0.015 1.074 0.011 2.439-0.011 2.439-0.015 1.074-0.040 1.445-0.039 0.861-0.051 0.786c-0.010 0.125-0.020 0.247-0.031 0.367l-0.072 0.684c-0.291 2.395-0.895 3.566-2.119 4.79l-0.167 0.163c-1.222 1.168-2.449 1.73-4.957 1.994l-0.717 0.065-0.786 0.051-0.861 0.039-1.445 0.040-1.646 0.020-1.867 0.006-1.867-0.006-1.646-0.020-1.445-0.040-0.861-0.039-0.786-0.051c-0.125-0.010-0.247-0.020-0.367-0.030l-0.684-0.072c-1.85-0.225-2.97-0.637-3.948-1.377l-0.34-0.275c-0.168-0.145-0.334-0.3-0.501-0.467l-0.184-0.189c-1.253-1.331-1.81-2.811-2.042-5.722l-0.058-0.872c-0.008-0.152-0.016-0.308-0.023-0.467l-0.035-1.001-0.022-1.096-0.011-1.197-0.002-3.168 0.006-1.249 0.016-1.145 0.028-1.047 0.042-0.956 0.058-0.872c0.243-3.049 0.843-4.528 2.226-5.911l0.189-0.184c1.331-1.253 2.811-1.81 5.722-2.042l0.872-0.058c0.152-0.008 0.308-0.016 0.467-0.023l1.001-0.035 1.096-0.022 1.197-0.011 4.115 0.002zM5.666 20.239l-0.669 0.010-0.013-0.002 0.020 0.644 0.042 0.819 0.054 0.734 0.069 0.655c0.013 0.103 0.026 0.203 0.040 0.3l0.092 0.551c0.201 1.037 0.505 1.704 0.955 2.241l0.237 0.259c0.076 0.076 0.152 0.148 0.231 0.216l0.245 0.196c0.38 0.279 0.825 0.491 1.427 0.653l0.425 0.1c0.15 0.031 0.309 0.060 0.478 0.086l0.536 0.073c0.095 0.011 0.192 0.022 0.292 0.032l0.635 0.055 0.708 0.044 0.787 0.034 1.343 0.036 1.555 0.019 1.788 0.006 1.788-0.006 1.478-0.018c-0.979-1.807-2.426-3.419-4.252-4.703-2.883-2.029-6.522-3.108-10.289-3.034zM25.951 23.059c-1.613-0.006-3.227 0.415-4.798 1.257 0.87 1.092 1.584 2.277 2.125 3.53l0.17-0.011 0.6-0.061 0.536-0.073c0.169-0.026 0.328-0.055 0.478-0.086l0.425-0.1c0.602-0.162 1.047-0.375 1.427-0.653l0.245-0.196c0.079-0.069 0.156-0.141 0.232-0.216l0.111-0.114c0.036-0.039 0.071-0.078 0.105-0.117l0.196-0.245c0.279-0.38 0.491-0.825 0.653-1.427l0.101-0.425c0.031-0.15 0.060-0.309 0.086-0.478l0.024-0.179c-0.899-0.271-1.805-0.406-2.715-0.405zM18.803 4.003h-3.721c-0.195 0.001-0.385 0.002-0.57 0.004l-1.060 0.015-1.402 0.041-0.819 0.042-0.734 0.054-0.655 0.069c-0.103 0.013-0.203 0.026-0.3 0.040l-0.55 0.092c-1.037 0.201-1.704 0.505-2.241 0.955l-0.259 0.237-0.237 0.259c-0.45 0.537-0.754 1.204-0.955 2.24l-0.092 0.55c-0.014 0.097-0.027 0.197-0.040 0.3l-0.069 0.655-0.054 0.733-0.042 0.818c-0.006 0.144-0.011 0.291-0.016 0.443l-0.033 1.475-0.010 1.113-0.002 3.123 0.002 0.164c0.070-0.002 0.139-0.004 0.208-0.005l0.489-0.004c4.328-0.085 8.556 1.169 11.938 3.548 0.554 0.39 1.080 0.806 1.575 1.246 2.168-1.31 4.47-1.984 6.801-1.974 0.982-0.001 1.961 0.12 2.928 0.361l0.033-1.253 0.019-1.555 0.005-1.788-0.005-1.788-0.019-1.555-0.022-0.918-0.030-0.829-0.039-0.747-0.050-0.671-0.061-0.6-0.073-0.536c-0.027-0.169-0.055-0.327-0.086-0.478l-0.101-0.425c-0.162-0.602-0.375-1.047-0.653-1.427l-0.196-0.245c-0.069-0.079-0.141-0.156-0.216-0.231l-0.259-0.237c-0.537-0.45-1.204-0.754-2.24-0.955l-0.55-0.092c-0.097-0.014-0.197-0.027-0.3-0.040l-0.655-0.069-0.734-0.054-0.818-0.042c-0.144-0.006-0.291-0.011-0.443-0.016l-1.475-0.033-1.113-0.010zM23.294 6.118c1.949 0 3.529 1.58 3.529 3.529s-1.58 3.529-3.529 3.529c-1.949 0-3.529-1.58-3.529-3.529s1.58-3.529 3.529-3.529zM23.294 8.941c-0.39 0-0.706 0.316-0.706 0.706s0.316 0.706 0.706 0.706c0.39 0 0.706-0.316 0.706-0.706s-0.316-0.706-0.706-0.706z"></path>
</svg>
