<svg width="18" height="18" fill="none" xmlns="http://www.w3.org/2000/svg"><path d="M8.85 1.528a.766.766 0 0 0-.521.407l-.064.12-.015 4.264-.015 4.264-.335-.364a25.39 25.39 0 0 1-1.353-1.614c-.513-.669-.552-.699-.925-.7-.229 0-.253.006-.395.103-.259.177-.366.417-.329.742.017.154.125.324.562.885 1.272 1.634 2.324 2.676 3.009 2.979.612.27 1.191.076 2.031-.683.621-.56 1.9-2.046 2.449-2.846.272-.394.202-.819-.176-1.077-.142-.097-.166-.103-.395-.103-.374.001-.416.034-.964.748a23.828 23.828 0 0 1-1.379 1.633l-.27.28-.015-4.255-.015-4.256-.064-.12c-.167-.311-.495-.474-.821-.407m-6.75 10.5a.766.766 0 0 0-.521.407c-.06.113-.064.157-.059.752.006.683.03.887.151 1.258.144.447.379.828.718 1.166a2.949 2.949 0 0 0 1.64.835c.36.057 9.582.057 9.942 0a2.949 2.949 0 0 0 1.64-.835 2.924 2.924 0 0 0 .83-1.623c.019-.128.037-.503.04-.833.004-.561 0-.608-.06-.72-.148-.275-.373-.414-.671-.414a.713.713 0 0 0-.668.414c-.055.106-.065.196-.083.765-.022.69-.041.785-.218 1.087-.184.315-.612.613-.978.682-.222.043-9.384.043-9.606 0-.366-.069-.794-.367-.978-.682-.177-.302-.196-.397-.218-1.087-.018-.569-.028-.659-.083-.765a.754.754 0 0 0-.818-.407" fill-rule="evenodd" fill="#000"/></svg>