<!-- Generated by IcoMoon.io -->
<svg version="1.1" xmlns="http://www.w3.org/2000/svg" width="31" height="32" viewBox="0 0 31 32">
<path d="M7.68 17.318c2.121 0 3.84-1.719 3.84-3.84s-1.719-3.84-3.84-3.84-3.84 1.719-3.84 3.84c0 2.121 1.719 3.84 3.84 3.84z"></path>
<path d="M10.24 3.238h17.92v2.56h-17.92v-2.56zM15.36 8.358h12.8v2.56h-12.8v-2.56zM20.48 13.478h7.68v2.56h-7.68v-2.56zM12.8 24.179l6.106-7.322-1.971-1.638-4.89 5.862c-0.581-0.948-1.456-1.681-2.49-2.088s-2.174-0.466-3.246-0.168c-1.072 0.298-2.017 0.937-2.693 1.82s-1.047 1.962-1.055 3.074v5.12h10.24v-4.659z"></path>
</svg>
