<!-- Generated by IcoMoon.io -->
<svg version="1.1" xmlns="http://www.w3.org/2000/svg" width="32" height="32" viewBox="0 0 32 32">
<path d="M29.485 0.062h-26.971c-1.353 0.001-2.45 1.098-2.452 2.452v26.971c0.001 1.354 1.098 2.45 2.452 2.452h26.971c1.354-0.001 2.45-1.098 2.452-2.452v-26.971c-0.001-1.353-1.098-2.45-2.452-2.452zM2.514 1.288h26.971c0.677 0.001 1.225 0.549 1.226 1.226v2.452h-29.423v-2.452c0.001-0.677 0.549-1.225 1.226-1.226zM29.485 30.712h-26.971c-0.677-0.001-1.225-0.549-1.226-1.226v-23.294h29.424v23.293c-0.001 0.677-0.549 1.226-1.227 1.227z"></path>
<path d="M29.486 32h-26.972c-1.385-0.001-2.513-1.129-2.514-2.514v-26.972c0.001-1.385 1.129-2.513 2.514-2.514h26.971c1.385 0.001 2.513 1.129 2.514 2.514v26.971c-0.001 1.385-1.129 2.513-2.513 2.515zM2.514 0.124c-1.316 0.001-2.388 1.073-2.389 2.39v26.971c0.001 1.316 1.073 2.388 2.39 2.389h26.971c1.316-0.001 2.388-1.073 2.389-2.39v-26.971c-0.001-1.316-1.073-2.388-2.39-2.389h-26.971zM29.486 30.774h-26.972c-0.71-0.001-1.287-0.578-1.288-1.288v-23.356h29.548v23.356c0 0.71-0.578 1.288-1.288 1.289zM1.35 6.254v23.231c0.001 0.641 0.523 1.163 1.164 1.164h26.971c0.641-0.001 1.163-0.522 1.164-1.164v-23.231h-29.299zM30.774 5.028h-29.548v-2.515c0.001-0.71 0.578-1.287 1.288-1.288h26.971c0.71 0.001 1.288 0.578 1.288 1.288v2.515h0.001zM1.35 4.904h29.299v-2.39c-0.001-0.641-0.523-1.163-1.164-1.164h-26.971c-0.641 0.001-1.163 0.523-1.164 1.164v2.39z"></path>
<path d="M8.051 3.749c0.339 0 0.614-0.275 0.614-0.614s-0.275-0.614-0.614-0.614c-0.339 0-0.614 0.275-0.614 0.614s0.275 0.614 0.614 0.614z"></path>
<path d="M8.051 3.812c-0.373 0-0.677-0.304-0.677-0.677s0.304-0.677 0.677-0.677c0.373 0 0.677 0.304 0.677 0.677s-0.304 0.677-0.677 0.677zM8.051 2.582c-0.304 0-0.552 0.248-0.552 0.552s0.248 0.552 0.552 0.552c0.304 0 0.552-0.248 0.552-0.552s-0.248-0.552-0.552-0.552z"></path>
<path d="M5.593 3.749c0.339 0 0.614-0.275 0.614-0.614s-0.275-0.614-0.614-0.614c-0.339 0-0.614 0.275-0.614 0.614s0.275 0.614 0.614 0.614z"></path>
<path d="M5.593 3.812c-0.373 0-0.677-0.304-0.677-0.677s0.304-0.677 0.677-0.677c0.373 0 0.677 0.304 0.677 0.677s-0.304 0.677-0.677 0.677zM5.593 2.582c-0.304 0-0.552 0.248-0.552 0.552s0.248 0.552 0.552 0.552c0.304 0 0.552-0.248 0.552-0.552s-0.248-0.552-0.552-0.552z"></path>
<path d="M3.135 3.749c0.339 0 0.614-0.275 0.614-0.614s-0.275-0.614-0.614-0.614c-0.339 0-0.614 0.275-0.614 0.614s0.275 0.614 0.614 0.614z"></path>
<path d="M3.135 3.812c-0.373 0-0.677-0.304-0.677-0.677s0.304-0.677 0.677-0.677c0.373 0 0.677 0.304 0.677 0.677s-0.303 0.677-0.677 0.677zM3.135 2.582c-0.304 0-0.552 0.248-0.552 0.552s0.248 0.552 0.552 0.552c0.304 0 0.552-0.248 0.552-0.552s-0.247-0.552-0.552-0.552z"></path>
<path d="M12.505 23.497h6.997c0.332 0 0.594-0.305 0.594-0.637v-2.564c0.002-1.259-1.017-2.282-2.277-2.284-0.001 0-0.002 0-0.002 0-0.191-0.001-0.371 0.089-0.485 0.243-0.541 0.733-1.574 0.89-2.308 0.349-0.133-0.098-0.25-0.216-0.349-0.349-0.113-0.154-0.293-0.244-0.485-0.243-1.261 0-2.285 1.023-2.286 2.284v2.564c0.001 0.331 0.269 0.636 0.6 0.636zM13.107 20.296c0.001-0.501 0.343-0.937 0.829-1.055 1.073 1.14 2.866 1.195 4.006 0.122 0.042-0.040 0.083-0.080 0.122-0.122 0.486 0.119 0.828 0.555 0.827 1.055v1.999h-5.785v-1.999z"></path>
<path d="M22.875 11.851c0-0.332-0.269-0.601-0.601-0.601h-12.548c-0.332 0-0.601 0.269-0.601 0.601v12.924c0 0.332 0.269 0.601 0.601 0.601h12.548c0.332 0 0.601-0.269 0.601-0.601v-12.924zM21.673 24.174h-11.346v-11.721h11.346v11.721z"></path>
<path d="M16 13.579c-1.2 0-2.177 1.011-2.177 2.253s0.976 2.253 2.177 2.253c1.2 0 2.177-1.011 2.177-2.253s-0.977-2.253-2.177-2.253zM16 17.072c-0.684 0-1.238-0.555-1.238-1.238s0.555-1.238 1.238-1.238c0.684 0 1.238 0.555 1.238 1.238s-0.555 1.238-1.238 1.238z"></path>
<path d="M27.506 18.722l-1.831-2.046c-0.133-0.148-0.12-0.377 0.028-0.51s0.377-0.12 0.51 0.028l2.046 2.287c0.123 0.137 0.123 0.345 0 0.482l-2.047 2.287c-0.133 0.148-0.361 0.161-0.51 0.028s-0.161-0.361-0.028-0.51l1.831-2.046z"></path>
<path d="M26.213 21.25l2.046-2.287c0.123-0.137 0.123-0.345 0-0.482l-2.047-2.287c-0.133-0.148-0.361-0.161-0.51-0.028s-0.161 0.361-0.028 0.51l1.831 2.046-1.831 2.046c-0.133 0.148-0.12 0.377 0.028 0.51s0.377 0.12 0.51-0.028zM25.578 16.026c0.226-0.202 0.573-0.183 0.775 0.043l2.046 2.287c0.186 0.208 0.186 0.523 0 0.732l-2.046 2.287c-0.202 0.226-0.549 0.245-0.775 0.043s-0.245-0.549-0.043-0.775l1.719-1.921-1.719-1.921c-0.202-0.226-0.183-0.573 0.043-0.775z"></path>
<path d="M4.507 18.723l1.831 2.046c0.133 0.149 0.12 0.377-0.028 0.51s-0.377 0.12-0.51-0.028l-2.046-2.287c-0.123-0.137-0.123-0.345 0-0.482l2.046-2.287c0.133-0.149 0.361-0.161 0.51-0.028s0.161 0.361 0.028 0.51l-1.831 2.046z"></path>
<path d="M5.799 16.194l-2.046 2.287c-0.123 0.137-0.123 0.345 0 0.482l2.046 2.287c0.133 0.149 0.361 0.161 0.51 0.028s0.161-0.361 0.028-0.51l-1.831-2.046 1.831-2.046c0.133-0.149 0.12-0.377-0.028-0.51s-0.377-0.12-0.51 0.028zM6.434 21.419c-0.226 0.202-0.573 0.183-0.775-0.043l-2.046-2.287c-0.186-0.208-0.186-0.523 0-0.732l2.046-2.287c0.202-0.226 0.549-0.245 0.775-0.043s0.245 0.549 0.043 0.775l-1.719 1.921 1.719 1.921c0.202 0.226 0.183 0.573-0.043 0.775z"></path>
</svg>
