<!-- Generated by IcoMoon.io -->
<svg version="1.1" xmlns="http://www.w3.org/2000/svg" width="32" height="32" viewBox="0 0 32 32">
<path d="M29.486 0h-26.972c-1.384 0.001-2.513 1.129-2.514 2.514v26.972c0.001 1.384 1.129 2.512 2.514 2.514h26.973c1.384-0.001 2.512-1.129 2.513-2.514v-26.972c-0.001-1.384-1.129-2.513-2.514-2.514zM1.351 6.254h29.298v23.231c-0.001 0.641-0.523 1.163-1.164 1.164h-26.971c-0.641-0.001-1.163-0.523-1.164-1.164v-23.231zM2.514 1.351h26.972c0.641 0.001 1.163 0.522 1.164 1.164v2.39h-29.299v-2.391c0.001-0.641 0.522-1.163 1.164-1.164z"></path>
<path d="M8.728 3.135c0 0.374-0.303 0.677-0.677 0.677s-0.677-0.303-0.677-0.677c0-0.374 0.303-0.677 0.677-0.677s0.677 0.303 0.677 0.677z"></path>
<path d="M6.27 3.135c0 0.374-0.303 0.677-0.677 0.677s-0.677-0.303-0.677-0.677c0-0.374 0.303-0.677 0.677-0.677s0.677 0.303 0.677 0.677z"></path>
<path d="M3.394 2.51c0.345 0.143 0.509 0.539 0.366 0.884s-0.539 0.509-0.884 0.366c-0.345-0.143-0.509-0.539-0.366-0.884s0.539-0.509 0.884-0.366z"></path>
<path d="M25.578 21.419c0.226 0.202 0.573 0.183 0.775-0.043l2.046-2.288c0.186-0.208 0.186-0.523 0-0.732l-2.046-2.288c-0.202-0.226-0.549-0.245-0.775-0.043s-0.245 0.549-0.043 0.774l1.719 1.921-1.719 1.921c-0.202 0.226-0.183 0.573 0.043 0.775z"></path>
<path d="M5.66 21.376c0.202 0.226 0.549 0.245 0.774 0.043s0.245-0.549 0.043-0.774l-1.719-1.921 1.719-1.921c0.202-0.226 0.183-0.573-0.043-0.774s-0.572-0.182-0.774 0.043l-2.046 2.288c-0.186 0.208-0.186 0.523 0 0.732l2.046 2.288zM5.8 21.251l-2.046-2.288c-0.031-0.034-0.054-0.073-0.069-0.114 0.016 0.041 0.038 0.079 0.069 0.114l2.046 2.288c0.066 0.074 0.157 0.114 0.249 0.12-0.093-0.005-0.183-0.046-0.249-0.12zM6.049 16.075c-0.093 0.005-0.183 0.046-0.249 0.12 0.066-0.074 0.157-0.114 0.249-0.12zM3.754 18.482c-0.031 0.034-0.054 0.073-0.069 0.114 0.016-0.041 0.038-0.079 0.069-0.114zM3.667 18.658c-0.007 0.043-0.007 0.086 0 0.129-0.007-0.043-0.007-0.086 0-0.129z"></path>
<path d="M13.433 14.959c-0.176-0.101-0.374-0.151-0.595-0.151s-0.421 0.051-0.6 0.151c-0.176 0.101-0.316 0.242-0.419 0.424-0.101 0.179-0.151 0.384-0.151 0.614s0.051 0.438 0.151 0.619c0.104 0.179 0.246 0.32 0.424 0.424 0.179 0.101 0.377 0.151 0.595 0.151s0.416-0.051 0.595-0.151c0.179-0.104 0.319-0.246 0.419-0.424 0.104-0.182 0.156-0.389 0.156-0.619s-0.052-0.436-0.156-0.614c-0.101-0.182-0.241-0.324-0.419-0.424z"></path>
<path d="M20.332 15.998c0-0.234-0.047-0.438-0.141-0.609-0.094-0.176-0.229-0.311-0.405-0.405s-0.381-0.141-0.614-0.141h-0.449v2.316h0.449c0.234 0 0.439-0.047 0.614-0.141s0.311-0.229 0.405-0.405 0.141-0.381 0.141-0.614z"></path>
<path d="M9.125 19.586v5.189c0 0.332 0.269 0.601 0.601 0.601h12.548c0.332 0 0.601-0.269 0.601-0.601v-5.189c0.561-1.073 0.878-2.292 0.878-3.586s-0.317-2.513-0.878-3.586v-0.563c0-0.332-0.269-0.601-0.601-0.601h-0.147c-1.418-1.827-3.635-3.002-6.127-3.002s-4.709 1.176-6.127 3.002h-0.147c-0.332 0-0.601 0.269-0.601 0.601v0.563c-0.561 1.072-0.877 2.292-0.877 3.586s0.318 2.513 0.877 3.586zM21.673 24.174h-11.346v-2.89c0.465 0.499 0.995 0.937 1.577 1.299v0.277c0.001 0.331 0.269 0.636 0.601 0.636h1.516c0.632 0.166 1.296 0.256 1.98 0.256s1.348-0.089 1.98-0.256h1.522c0.332 0 0.594-0.305 0.594-0.637v-0.276c0.582-0.363 1.113-0.801 1.578-1.3v2.89zM17.593 17.159v0.658h-2.292v-3.633h0.756v2.975h1.536zM14.511 16.954c-0.166 0.286-0.397 0.512-0.693 0.678-0.293 0.163-0.619 0.244-0.98 0.244s-0.689-0.081-0.985-0.244c-0.293-0.166-0.524-0.392-0.693-0.678-0.166-0.286-0.249-0.604-0.249-0.956s0.083-0.67 0.249-0.956c0.169-0.286 0.4-0.511 0.693-0.673 0.296-0.162 0.624-0.244 0.985-0.244s0.688 0.081 0.98 0.244c0.296 0.162 0.527 0.387 0.693 0.673 0.169 0.286 0.254 0.605 0.254 0.956s-0.084 0.669-0.254 0.956zM19.152 17.817h-1.185v-3.633h1.185c0.387 0 0.726 0.078 1.019 0.234 0.293 0.153 0.519 0.367 0.678 0.644 0.159 0.273 0.239 0.585 0.239 0.936s-0.079 0.665-0.239 0.941c-0.159 0.273-0.387 0.488-0.683 0.644-0.293 0.156-0.631 0.234-1.014 0.234z"></path>
</svg>
