<!-- Generated by IcoMoon.io -->
<svg version="1.1" xmlns="http://www.w3.org/2000/svg" width="32" height="32" viewBox="0 0 32 32">
<path d="M15.623 20.202c0.278-0.728 1.094-1.093 1.823-0.815s1.093 1.094 0.815 1.823c-1.564 4.094-3.801 5.081-8.596 5.141l-1.322 0.011c-0.132 0.003-0.261 0.007-0.386 0.011l-0.716 0.039c-2.602 0.194-3.623 0.946-4.51 3.269-0.278 0.728-1.094 1.093-1.823 0.815s-1.093-1.094-0.815-1.823c1.564-4.094 3.801-5.081 8.595-5.14l1.322-0.011c0.132-0.003 0.261-0.007 0.386-0.011l0.716-0.039c2.602-0.194 3.623-0.946 4.51-3.269z"></path>
<path d="M16.943 2.353h5.647l1.838 0.013 0.767 0.020 0.678 0.032c0.106 0.006 0.209 0.014 0.308 0.021l0.561 0.055 0.495 0.073c0.93 0.167 1.516 0.458 2.090 0.962l0.287 0.27c0.674 0.674 1.038 1.292 1.233 2.377l0.073 0.495 0.055 0.561 0.039 0.637 0.026 0.721 0.015 0.815 0.007 1.418-0.003 3.814-0.011 0.895-0.022 0.79-0.035 0.694c-0.128 1.95-0.475 2.751-1.377 3.653-0.674 0.674-1.292 1.038-2.377 1.233l-0.495 0.073-0.561 0.055-0.637 0.039-0.721 0.026-0.815 0.015-1.418 0.007h-2.12c-0.78 0-1.412-0.632-1.412-1.412 0-0.715 0.531-1.305 1.22-1.399l0.191-0.013 2.983-0.003 0.753-0.008 0.943-0.025 0.744-0.043c0.073-0.006 0.142-0.012 0.209-0.019l0.366-0.046c0.056-0.009 0.109-0.018 0.159-0.027l0.277-0.063 0.228-0.075c0.035-0.014 0.067-0.028 0.099-0.043l0.172-0.096 0.145-0.111 0.127-0.127 0.111-0.145 0.096-0.172 0.082-0.207 0.069-0.252c0.011-0.046 0.020-0.094 0.030-0.145l0.051-0.334c0.008-0.061 0.015-0.125 0.022-0.192l0.036-0.437 0.027-0.517 0.025-0.943 0.011-1.617-0.002-3.706-0.016-1.132-0.020-0.621-0.048-0.757-0.045-0.402c-0.017-0.122-0.036-0.232-0.057-0.332l-0.070-0.272c-0.038-0.123-0.082-0.227-0.132-0.318l-0.107-0.167c-0.019-0.025-0.039-0.050-0.060-0.073l-0.13-0.13-0.145-0.111-0.172-0.096-0.207-0.082c-0.114-0.038-0.245-0.070-0.397-0.099l-0.334-0.051c-0.061-0.008-0.125-0.015-0.191-0.022l-0.437-0.036-0.517-0.027-0.943-0.025-1.617-0.011-6.529 0.003-1.132 0.016-0.621 0.020-0.757 0.048-0.402 0.045c-0.122 0.017-0.232 0.036-0.332 0.057l-0.273 0.070c-0.123 0.038-0.227 0.082-0.318 0.131l-0.167 0.107c-0.051 0.038-0.098 0.080-0.142 0.124-0.257 0.257-0.418 0.645-0.511 1.404l-0.048 0.502c-0.007 0.092-0.013 0.188-0.018 0.288l-0.026 0.658-0.013 0.776c-0.007 0.78-0.644 1.406-1.424 1.4s-1.406-0.644-1.4-1.424l0.018-0.975c0.077-2.434 0.396-3.596 1.425-4.625l0.287-0.27c0.573-0.505 1.16-0.796 2.090-0.962l0.495-0.073 0.561-0.055 0.637-0.039 0.721-0.026 0.815-0.015 1.418-0.007z"></path>
<path d="M9.177 12.235c-2.729 0-4.941 2.212-4.941 4.941s2.212 4.941 4.941 4.941 4.941-2.212 4.941-4.941c0-2.729-2.212-4.941-4.941-4.941zM9.177 15.059c1.17 0 2.118 0.948 2.118 2.118s-0.948 2.118-2.118 2.118-2.118-0.948-2.118-2.118c0-1.17 0.948-2.118 2.118-2.118z"></path>
<path d="M24 8c0.78 0 1.412 0.632 1.412 1.412 0 0.715-0.531 1.305-1.22 1.399l-0.192 0.013h-8.47c-0.78 0-1.412-0.632-1.412-1.412 0-0.715 0.531-1.305 1.22-1.399l0.192-0.013h8.47zM24 13.647c0.78 0 1.412 0.632 1.412 1.412 0 0.715-0.531 1.305-1.22 1.399l-0.192 0.013h-4.235c-0.78 0-1.412-0.632-1.412-1.412 0-0.715 0.531-1.305 1.22-1.399l0.191-0.013h4.235z"></path>
</svg>
