<!-- Generated by IcoMoon.io -->
<svg version="1.1" xmlns="http://www.w3.org/2000/svg" width="32" height="32" viewBox="0 0 32 32">
<path d="M31.071 2.065h-11.32c-0.003-0-0.006-0-0.009-0-0.513 0-0.929 0.416-0.929 0.929 0 0 0 0 0 0v0 1.858c0 0 0 0 0 0 0 0.513 0.416 0.929 0.929 0.929 0.003 0 0.007-0 0.010-0h12.248v-2.787c0 0 0-0 0-0 0-0.513-0.416-0.929-0.929-0.929-0.003 0-0.007 0-0.010 0h0zM0.939 20.645h8.502v-3.716h-8.502c-0.003-0-0.006-0-0.009-0-0.513 0-0.929 0.416-0.929 0.929 0 0 0 0 0 0v0 1.858c0 0 0 0 0 0 0 0.513 0.416 0.929 0.929 0.929 0.003 0 0.007-0 0.010-0h-0zM10.378 13.213h8.44v-3.716h-8.44c-0.002-0-0.005-0-0.008-0-0.513 0-0.929 0.416-0.929 0.929 0 0 0 0 0 0v0 1.858c0 0 0 0 0 0 0 0.513 0.416 0.929 0.929 0.929 0.003 0 0.006 0 0.009-0h-0zM20.694 15.071h-9.377v7.432h-9.44v6.503c0 0 0 0 0 0 0 0.513 0.416 0.929 0.929 0.929 0.003 0 0.006 0 0.009-0h9.442c0.222-0.001 0.426-0.078 0.586-0.208l-0.002 0.001 18.817-14.865c0.214-0.171 0.35-0.43 0.352-0.722v-6.504h-11.321v7.432z"></path>
</svg>
