<!-- Generated by IcoMoon.io -->
<svg version="1.1" xmlns="http://www.w3.org/2000/svg" width="32" height="32" viewBox="0 0 32 32">
<path fill="#195ec8" d="M1.683 11.3l13.44 5.76c0.119 0.051 0.248 0.078 0.378 0.078s0.259-0.026 0.378-0.078l13.44-5.76c0.173-0.074 0.32-0.197 0.423-0.354s0.158-0.341 0.158-0.528-0.055-0.371-0.158-0.528c-0.103-0.157-0.25-0.28-0.423-0.354l-13.44-5.76c-0.12-0.051-0.248-0.078-0.378-0.078s-0.259 0.026-0.378 0.078l-13.44 5.76c-0.173 0.074-0.32 0.197-0.423 0.354s-0.158 0.341-0.158 0.528c0 0.188 0.055 0.371 0.158 0.528s0.25 0.28 0.423 0.354z"></path>
<path fill="#195ec8" d="M29.319 15.296l-2.224-0.953-10.464 4.482c-0.359 0.154-0.745 0.233-1.135 0.233s-0.776-0.079-1.135-0.233l-10.454-4.482-2.224 0.953c-0.173 0.074-0.32 0.197-0.423 0.354s-0.158 0.34-0.158 0.528c0 0.188 0.055 0.372 0.158 0.528s0.25 0.28 0.423 0.354l13.44 5.76c0.119 0.051 0.248 0.078 0.378 0.078s0.259-0.026 0.378-0.078l13.44-5.76c0.173-0.074 0.32-0.197 0.423-0.354s0.158-0.34 0.158-0.528c0-0.188-0.055-0.371-0.158-0.528s-0.25-0.28-0.423-0.354z"></path>
<path fill="#195ec8" d="M29.319 21.055l-2.224-0.953-10.464 4.482c-0.359 0.154-0.745 0.233-1.135 0.233s-0.776-0.079-1.135-0.233l-10.454-4.482-2.224 0.953c-0.173 0.074-0.32 0.197-0.423 0.354s-0.158 0.34-0.158 0.528c0 0.188 0.055 0.372 0.158 0.528s0.25 0.28 0.423 0.354l13.44 5.76c0.119 0.051 0.248 0.078 0.378 0.078s0.259-0.026 0.378-0.078l13.44-5.76c0.173-0.074 0.32-0.197 0.423-0.354s0.158-0.34 0.158-0.528c0-0.188-0.055-0.371-0.158-0.528s-0.25-0.28-0.423-0.354z"></path>
</svg>
