<!-- Generated by IcoMoon.io -->
<svg version="1.1" xmlns="http://www.w3.org/2000/svg" width="32" height="32" viewBox="0 0 32 32">
<path fill="#4d5e6f" d="M16 29.4c-0.1 0-0.1 0-0.2 0-0.3-0.1-0.6-0.4-0.6-0.7v-18c0-0.1 0-0.3 0.1-0.4 0.5-1 2.2-4 5.1-6 1.2-0.9 2.1-1.5 3.2-0.9s1.1 1.7 1.1 3.5v11.8c0 1 0 1.5-0.3 2s-0.8 0.8-1.9 1.4c-3 1.7-4.9 5.1-5.7 6.6l-0.1 0.3c-0.2 0.3-0.4 0.4-0.7 0.4zM16.8 10.9v15c1.1-1.7 2.8-3.8 5-5.1v0c0.7-0.4 1.3-0.7 1.4-0.9 0.1-0.1 0.1-0.6 0.1-1.3v-11.7c0-1.5 0-2-0.3-2.2-0.3-0.1-0.5 0-1.7 0.8-2.4 1.7-4 4.3-4.5 5.4z"></path>
<path fill="#4d5e6f" d="M16 29.4c-0.5 0-1.1-0.3-2.7-1.1-1.1-0.6-2.9-1.3-5.5-1.8-2.8-0.5-4.3-0.7-5.1-1.7-0.8-0.9-0.8-2.2-0.8-4.7v-9.1c0-2.7 0-4.1 1.2-5.1s2.5-0.8 5-0.3c4.9 0.9 7.7 3.5 8.4 4.3 0.3 0.3 0.3 0.8 0 1.1s-0.8 0.3-1.1 0c-0.7-0.7-3.2-3-7.6-3.8-2.3-0.4-3.1-0.5-3.7 0-0.7 0.5-0.7 1.5-0.7 4v9.1c0 2.1 0 3.2 0.4 3.7s1.9 0.8 4.3 1.2c2.2 0.4 4.2 1 5.9 1.9 1 0.5 1.8 0.9 2 0.9s1-0.5 2-0.9c1.7-0.9 3.7-1.5 5.9-1.9 2.4-0.4 3.8-0.7 4.3-1.2 0.4-0.5 0.4-1.6 0.4-3.7v-9.1c0-2.4 0-3.5-0.7-4-0.6-0.5-2.2-0.1-3.5 0.8-0.3 0.2-0.8 0.2-1-0.2-0.2-0.3-0.2-0.8 0.2-1 1.6-1.2 4-1.8 5.3-0.8 1.2 1 1.2 2.5 1.2 5.1v9.1c0 2.5 0 3.7-0.8 4.7-0.8 0.9-2.2 1.2-5.1 1.7-2.6 0.5-4.4 1.2-5.5 1.8-1.6 0.7-2.2 1-2.7 1z"></path>
</svg>
