<!-- Generated by IcoMoon.io -->
<svg version="1.1" xmlns="http://www.w3.org/2000/svg" width="32" height="32" viewBox="0 0 32 32">
<path d="M10.413 2.667h11.175c4.119 0 6.412 2.373 6.412 6.44v13.773c0 4.133-2.293 6.453-6.412 6.453h-11.175c-4.053 0-6.413-2.32-6.413-6.453v-13.773c0-4.067 2.36-6.44 6.413-6.44zM10.773 8.88v-0.013h3.985c0.575 0 1.041 0.467 1.041 1.039 0 0.588-0.467 1.055-1.041 1.055h-3.985c-0.276 0-0.54-0.11-0.735-0.305s-0.305-0.46-0.305-0.735c0-0.276 0.11-0.54 0.305-0.735s0.46-0.305 0.735-0.305zM10.773 16.987h10.453c0.27-0.010 0.525-0.123 0.712-0.318s0.292-0.453 0.292-0.723c0-0.27-0.105-0.529-0.292-0.723s-0.443-0.308-0.712-0.318h-10.453c-0.27 0.010-0.525 0.123-0.712 0.318s-0.292 0.453-0.292 0.723c0 0.27 0.105 0.529 0.292 0.723s0.443 0.308 0.712 0.318zM10.773 23.080h10.453c0.532-0.053 0.933-0.508 0.933-1.040 0-0.547-0.401-1-0.933-1.053h-10.453c-0.196-0.018-0.394 0.018-0.571 0.106s-0.325 0.223-0.429 0.391-0.159 0.361-0.159 0.558c-0 0.197 0.055 0.391 0.159 0.558 0.213 0.333 0.6 0.533 1 0.48z"></path>
</svg>
