<!-- Generated by IcoMoon.io -->
<svg version="1.1" xmlns="http://www.w3.org/2000/svg" width="32" height="32" viewBox="0 0 32 32">
<path d="M29.714 2.286c1.262 0 2.286 1.023 2.286 2.286v0 22.857c0 1.262-1.023 2.286-2.286 2.286s-2.286-1.023-2.286-2.286v0-22.857c0-1.262 1.023-2.286 2.286-2.286v0zM16 11.429c1.262 0 2.286 1.023 2.286 2.286v0 13.714c0 1.262-1.023 2.286-2.286 2.286s-2.286-1.023-2.286-2.286v0-13.714c0-1.262 1.023-2.286 2.286-2.286v0zM2.286 18.286c1.262 0 2.286 1.023 2.286 2.286v0 6.857c0 1.262-1.023 2.286-2.286 2.286s-2.286-1.023-2.286-2.286v0-6.857c0-1.262 1.023-2.286 2.286-2.286v0z"></path>
</svg>
