<!-- Generated by IcoMoon.io -->
<svg version="1.1" xmlns="http://www.w3.org/2000/svg" width="27" height="32" viewBox="0 0 27 32">
<path fill="#4d5e6f" d="M20.74 3.431v25.138c0 1.077 0.873 1.95 1.95 1.95h0.249c1.077 0 1.95-0.873 1.95-1.95v-25.138c0-1.077-0.873-1.95-1.95-1.95h-0.249c-1.077 0-1.95 0.873-1.95 1.95zM10.37 14.098v14.471c0 1.077 0.873 1.95 1.95 1.95h0.249c1.077 0 1.95-0.873 1.95-1.95v-14.471c0-1.077-0.873-1.95-1.95-1.95h-0.249c-1.077 0-1.95 0.873-1.95 1.95zM0 28.569v-6.471c0-1.077 0.873-1.95 1.95-1.95h0.249c1.077 0 1.95 0.873 1.95 1.95v6.471c0 1.077-0.873 1.95-1.95 1.95h-0.249c-1.077 0-1.95-0.873-1.95-1.95z"></path>
</svg>
