<!-- Generated by IcoMoon.io -->
<svg version="1.1" xmlns="http://www.w3.org/2000/svg" width="32" height="32" viewBox="0 0 32 32">
<path fill="#4d5e6f" d="M23.3 11.3c-0.4 0-0.8-0.3-0.8-0.8v-2c0-0.7-0.6-1.2-1.2-1.2h-11.3c-0.4 0-0.7-0.3-0.7-0.7s0.3-0.8 0.7-0.8h11.3c1.5 0 2.8 1.2 2.8 2.8v2c0 0.4-0.3 0.7-0.8 0.7z"></path>
<path fill="#4d5e6f" d="M12 24.7c-0.1 0-0.2 0-0.3-0.1-0.4-0.2-0.6-0.6-0.4-1l1.1-2.7c0 0 0 0 0 0l2.1-4.8c0.3-0.6 0.8-1 1.5-1s1.2 0.4 1.5 1l2.1 4.8c0 0 0 0 0 0l1.1 2.7c0.2 0.4 0 0.8-0.4 1s-0.8 0-1-0.4l-0.9-2.2h-4.7l-0.9 2.2c-0.2 0.3-0.5 0.5-0.8 0.5zM14.3 20.5h3.4l-1.6-3.8c0-0.1-0.2-0.1-0.2 0l-1.6 3.8z"></path>
<path fill="#4d5e6f" d="M22 30.1h-12c-3.3 0-5.8-2.4-6-5.9v-17.2c0 0 0 0 0 0 0-0.2 0-0.4 0-0.5 0-1.6 0.8-3 2.1-3.9 0.8-0.6 1.7-0.7 2.3-0.7h16.3c0.4 0 0.8 0.3 0.8 0.8s-0.3 0.8-0.8 0.8h-16.3c-0.6-0.1-1.1 0-1.4 0.3-0.7 0.5-1.5 1.4-1.6 2.6-0.1 1 0.4 1.9 1.3 2.7 0.6 0.7 1.6 0.8 2.3 0.8h15.4c2.5 0 3.7 1.4 3.7 4.1v10c0 3.3-2.7 6.1-6.1 6.1zM5.4 10v14.1c0.1 2.7 1.9 4.5 4.5 4.5h12c2.5 0 4.6-2.1 4.6-4.6v-10c0-2.6-1.3-2.6-2.2-2.6h-15.3c-1.4 0-2.5-0.4-3.3-1.2-0.1 0-0.2-0.1-0.3-0.2z"></path>
</svg>
