<!-- Generated by IcoMoon.io -->
<svg version="1.1" xmlns="http://www.w3.org/2000/svg" width="30" height="32" viewBox="0 0 30 32">
<path fill="#fff" opacity="0.7" d="M22.588 28.989h-17.569c-2.761 0-5.020-2.259-5.020-5.020v-12.549c0-2.761 2.259-5.020 5.020-5.020h13.804c0.753 0 1.255 0.502 1.255 1.255s-0.502 1.255-1.255 1.255h-13.804c-1.38 0-2.51 1.129-2.51 2.51v12.549c0 1.38 1.129 2.51 2.51 2.51h17.569c1.38 0 2.51-1.129 2.51-2.51v-8.784c0-0.753 0.502-1.255 1.255-1.255s1.255 0.502 1.255 1.255v8.784c0 2.761-2.259 5.020-5.020 5.020z"></path>
<path fill="#fff" opacity="0.7" d="M18.823 16.44c-0.376 0-0.627-0.125-0.878-0.376-0.502-0.502-0.502-1.255 0-1.757l10.039-10.039c0.502-0.502 1.255-0.502 1.757 0s0.502 1.255 0 1.757l-10.039 10.039c-0.251 0.251-0.502 0.376-0.878 0.376z"></path>
<path fill="#fff" opacity="0.7" d="M28.863 6.401h-5.019c-0.753 0-1.255-0.502-1.255-1.255s0.502-1.255 1.255-1.255h5.019c0.753 0 1.255 0.502 1.255 1.255s-0.502 1.255-1.255 1.255z"></path>
<path fill="#fff" opacity="0.7" d="M28.863 11.42c-0.753 0-1.255-0.502-1.255-1.255v-5.020c0-0.753 0.502-1.255 1.255-1.255s1.255 0.502 1.255 1.255v5.020c0 0.753-0.502 1.255-1.255 1.255z"></path>
</svg>
