<!-- Generated by IcoMoon.io -->
<svg version="1.1" xmlns="http://www.w3.org/2000/svg" width="32" height="32" viewBox="0 0 32 32">
<path fill="#fff" d="M0.099 4.364c0-1.021 0.357-1.863 1.072-2.526s1.643-0.995 2.787-0.995c1.123 0 2.031 0.327 2.725 0.98 0.715 0.674 1.072 1.552 1.072 2.633 0 0.98-0.347 1.796-1.041 2.45-0.715 0.674-1.654 1.011-2.817 1.011h-0.031c-1.123 0-2.031-0.337-2.725-1.011s-1.041-1.521-1.041-2.542zM0.497 31.158v-20.456h6.798v20.456h-6.798zM11.061 31.158h6.798v-11.422c0-0.715 0.082-1.266 0.245-1.654 0.286-0.694 0.72-1.281 1.302-1.761s1.311-0.72 2.189-0.72c2.286 0 3.43 1.541 3.43 4.624v10.932h6.798v-11.728c0-3.021-0.715-5.313-2.144-6.875s-3.317-2.343-5.665-2.343c-2.633 0-4.685 1.133-6.155 3.399v0.061h-0.031l0.031-0.061v-2.909h-6.798c0.041 0.653 0.061 2.684 0.061 6.094s-0.020 8.197-0.061 14.362z"></path>
</svg>
