<!-- Generated by IcoMoon.io -->
<svg version="1.1" xmlns="http://www.w3.org/2000/svg" width="41" height="32" viewBox="0 0 41 32">
<path fill="#4d5e6f" d="M4.525 4.687c0 1.25-1.013 2.263-2.263 2.263s-2.263-1.013-2.263-2.263c0-1.25 1.013-2.263 2.263-2.263s2.263 1.013 2.263 2.263zM4.525 16c0 1.25-1.013 2.263-2.263 2.263s-2.263-1.013-2.263-2.263c0-1.25 1.013-2.263 2.263-2.263s2.263 1.013 2.263 2.263zM2.263 29.576c1.25 0 2.263-1.013 2.263-2.263s-1.013-2.263-2.263-2.263c-1.25 0-2.263 1.013-2.263 2.263s1.013 2.263 2.263 2.263zM11.177 13.737h27.423c1.175 0 2.127 0.952 2.127 2.127v0.272c0 1.175-0.952 2.127-2.127 2.127h-27.423c-1.175 0-2.127-0.952-2.127-2.127v-0.272c0-1.175 0.952-2.127 2.127-2.127zM38.6 25.050h-27.423c-1.175 0-2.127 0.952-2.127 2.127v0.271c0 1.175 0.952 2.127 2.127 2.127h27.423c1.175 0 2.127-0.952 2.127-2.127v-0.271c0-1.175-0.952-2.127-2.127-2.127zM11.177 2.424h27.423c1.175 0 2.127 0.952 2.127 2.127v0.272c0 1.175-0.952 2.127-2.127 2.127h-27.423c-1.175 0-2.127-0.952-2.127-2.127v-0.272c0-1.175 0.952-2.127 2.127-2.127z"></path>
</svg>
