<!-- Generated by IcoMoon.io -->
<svg version="1.1" xmlns="http://www.w3.org/2000/svg" width="32" height="32" viewBox="0 0 32 32">
<path d="M3.2 9.6c-0.205 0-0.41-0.078-0.566-0.234l-2.4-2.4c-0.312-0.312-0.312-0.819 0-1.131s0.819-0.312 1.131 0l1.834 1.834 6.634-6.634c0.312-0.312 0.819-0.312 1.131 0s0.312 0.819 0 1.131l-7.2 7.2c-0.157 0.157-0.362 0.234-0.566 0.234z"></path>
<path d="M31.2 8h-19.2c-0.442 0-0.8-0.358-0.8-0.8s0.358-0.8 0.8-0.8h19.2c0.442 0 0.8 0.358 0.8 0.8s-0.358 0.8-0.8 0.8z"></path>
<path d="M3.2 20.8c-0.205 0-0.41-0.078-0.566-0.234l-2.4-2.4c-0.312-0.312-0.312-0.819 0-1.131s0.819-0.312 1.131 0l1.834 1.834 6.634-6.634c0.312-0.312 0.819-0.312 1.131 0s0.312 0.819 0 1.131l-7.2 7.2c-0.157 0.157-0.362 0.234-0.566 0.234z"></path>
<path d="M31.2 19.2h-19.2c-0.442 0-0.8-0.358-0.8-0.8s0.358-0.8 0.8-0.8h19.2c0.442 0 0.8 0.358 0.8 0.8s-0.358 0.8-0.8 0.8z"></path>
<path d="M3.2 32c-0.205 0-0.41-0.078-0.566-0.234l-2.4-2.4c-0.312-0.312-0.312-0.819 0-1.131s0.819-0.312 1.131 0l1.834 1.834 6.634-6.634c0.312-0.312 0.819-0.312 1.131 0s0.312 0.819 0 1.131l-7.2 7.2c-0.157 0.157-0.362 0.234-0.566 0.234z"></path>
<path d="M31.2 30.4h-19.2c-0.442 0-0.8-0.358-0.8-0.8s0.358-0.8 0.8-0.8h19.2c0.442 0 0.8 0.358 0.8 0.8s-0.358 0.8-0.8 0.8z"></path>
</svg>
