<!-- Generated by IcoMoon.io -->
<svg version="1.1" xmlns="http://www.w3.org/2000/svg" width="32" height="32" viewBox="0 0 32 32">
<path d="M31.2 6.4h-22.4c-0.442 0-0.8-0.358-0.8-0.8s0.358-0.8 0.8-0.8h22.4c0.442 0 0.8 0.358 0.8 0.8s-0.358 0.8-0.8 0.8z"></path>
<path d="M31.2 17.6h-22.4c-0.442 0-0.8-0.358-0.8-0.8s0.358-0.8 0.8-0.8h22.4c0.442 0 0.8 0.358 0.8 0.8s-0.358 0.8-0.8 0.8z"></path>
<path d="M31.2 28.8h-22.4c-0.442 0-0.8-0.358-0.8-0.8s0.358-0.8 0.8-0.8h22.4c0.442 0 0.8 0.358 0.8 0.8s-0.358 0.8-0.8 0.8z"></path>
<path d="M2.4 9.6c-0.442 0-0.8-0.358-0.8-0.8v-5.6h-0.8c-0.442 0-0.8-0.358-0.8-0.8s0.358-0.8 0.8-0.8h1.6c0.442 0 0.8 0.358 0.8 0.8v6.4c0 0.442-0.358 0.8-0.8 0.8z"></path>
<path d="M4 20.8h-3.2c-0.442 0-0.8-0.358-0.8-0.8v-3.2c0-0.442 0.358-0.8 0.8-0.8h2.4v-1.6h-2.4c-0.442 0-0.8-0.358-0.8-0.8s0.358-0.8 0.8-0.8h3.2c0.442 0 0.8 0.358 0.8 0.8v3.2c0 0.442-0.358 0.8-0.8 0.8h-2.4v1.6h2.4c0.442 0 0.8 0.358 0.8 0.8s-0.358 0.8-0.8 0.8z"></path>
<path d="M4 24h-3.2c-0.442 0-0.8 0.358-0.8 0.8s0.358 0.8 0.8 0.8h2.4v1.6h-2.4c-0.442 0-0.8 0.358-0.8 0.8s0.358 0.8 0.8 0.8h2.4v1.6h-2.4c-0.442 0-0.8 0.358-0.8 0.8s0.358 0.8 0.8 0.8h3.2c0.442 0 0.8-0.358 0.8-0.8v-6.4c0-0.442-0.358-0.8-0.8-0.8z"></path>
</svg>
