<!-- Generated by IcoMoon.io -->
<svg version="1.1" xmlns="http://www.w3.org/2000/svg" width="32" height="32" viewBox="0 0 32 32">
<path fill="#195ec8" d="M22.664 8.415h4.061c-0.020-1.159-0.432-2.278-1.17-3.173s-1.757-1.513-2.892-1.753v4.925z"></path>
<path fill="#195ec8" d="M13.969 22.711c0-0.047 0.006-0.093 0.008-0.141h-2.488c-0.339 0-0.665-0.135-0.905-0.375s-0.375-0.566-0.375-0.905c0-0.339 0.135-0.665 0.375-0.905s0.566-0.375 0.905-0.375h2.936c0.264-0.772 0.639-1.501 1.115-2.164h-4.051c-0.339 0-0.665-0.135-0.905-0.375s-0.375-0.566-0.375-0.905c0-0.339 0.135-0.665 0.375-0.905s0.566-0.375 0.905-0.375h6.985c1.281-0.675 2.716-1.004 4.164-0.954s2.857 0.476 4.089 1.237l0.006-4.595h-5.347c-0.34 0-0.665-0.135-0.905-0.375s-0.375-0.566-0.375-0.905v-6.314h-10.054c-2.824 0-5.12 2.296-5.12 5.119l-0.022 15.359c0 2.824 2.296 5.121 5.12 5.121h6.774c-0.89-0.784-1.603-1.748-2.092-2.828s-0.742-2.253-0.742-3.438zM11.488 10.561h4.241c0.339 0 0.665 0.135 0.905 0.375s0.375 0.566 0.375 0.905-0.135 0.665-0.375 0.905c-0.24 0.24-0.566 0.375-0.905 0.375h-4.241c-0.339 0-0.665-0.135-0.905-0.375s-0.375-0.566-0.375-0.905 0.135-0.665 0.375-0.905c0.24-0.24 0.566-0.375 0.905-0.375z"></path>
<path fill="#195ec8" d="M22.354 28.535c3.212 0 5.825-2.614 5.825-5.825s-2.614-5.824-5.825-5.824c-3.212 0-5.824 2.612-5.824 5.824s2.611 5.825 5.824 5.825zM18.921 21.94c0.119-0.119 0.259-0.214 0.415-0.278s0.322-0.098 0.49-0.098c0.168-0 0.335 0.033 0.49 0.097s0.297 0.158 0.416 0.277l0.97 0.968 2.272-2.275c0.242-0.228 0.564-0.354 0.898-0.349s0.651 0.14 0.887 0.375c0.236 0.236 0.37 0.554 0.375 0.887s-0.12 0.655-0.349 0.898l-3.176 3.178c-0.24 0.24-0.565 0.375-0.905 0.375s-0.665-0.134-0.905-0.374l-1.876-1.871c-0.24-0.24-0.375-0.565-0.375-0.905s0.134-0.665 0.374-0.905z"></path>
</svg>
