<!-- Generated by IcoMoon.io -->
<svg version="1.1" xmlns="http://www.w3.org/2000/svg" width="31" height="32" viewBox="0 0 31 32">
<path fill="#195ec8" d="M3.072 17.152h16.896c0.848 0 1.536-0.688 1.536-1.536s-0.688-1.536-1.536-1.536h-16.896c-0.848 0-1.536 0.688-1.536 1.536s0.688 1.536 1.536 1.536zM3.072 9.472h16.896c0.848 0 1.536-0.688 1.536-1.536s-0.688-1.536-1.536-1.536h-16.896c-0.848 0-1.536 0.688-1.536 1.536s0.688 1.536 1.536 1.536zM28.734 17.602c-0.6-0.6-1.572-0.6-2.172 0l-5.058 5.058-1.986-1.986c-0.6-0.6-1.572-0.6-2.172 0s-0.6 1.572 0 2.172l3.072 3.072c0.288 0.288 0.679 0.45 1.086 0.45s0.798-0.162 1.086-0.45l6.144-6.144c0.6-0.6 0.6-1.573 0-2.172zM13.824 21.76h-10.752c-0.848 0-1.536 0.688-1.536 1.536s0.688 1.536 1.536 1.536h10.752c0.848 0 1.536-0.688 1.536-1.536s-0.688-1.536-1.536-1.536z"></path>
</svg>
