<!-- Generated by IcoMoon.io -->
<svg version="1.1" xmlns="http://www.w3.org/2000/svg" width="32" height="32" viewBox="0 0 32 32">
<path d="M27.298 4.702c-2.89-2.889-6.882-4.675-11.292-4.675-8.822 0-15.973 7.151-15.973 15.973s7.151 15.973 15.973 15.973c8.822 0 15.973-7.151 15.973-15.973v0c0-0.011 0-0.025 0-0.038 0-4.4-1.79-8.383-4.681-11.259l-0.001-0.001zM16 29.399c-7.4 0-13.399-5.999-13.399-13.399s5.999-13.399 13.399-13.399c7.4 0 13.399 5.999 13.399 13.399v0c-0.011 7.396-6.003 13.389-13.398 13.399h-0.001zM21.326 19.495l-4.036-4.036v-8.281c0-0.712-0.578-1.29-1.29-1.29s-1.29 0.578-1.29 1.29v0 8.822c0.004 0.356 0.146 0.678 0.375 0.916l-0-0 4.411 4.411c0.236 0.231 0.559 0.374 0.915 0.374s0.68-0.143 0.916-0.375l-0 0c0.231-0.236 0.374-0.559 0.374-0.915s-0.143-0.68-0.375-0.916l0 0z"></path>
</svg>
