<!-- Generated by IcoMoon.io -->
<svg version="1.1" xmlns="http://www.w3.org/2000/svg" width="88" height="32" viewBox="0 0 88 32">
<path d="M79.465 0c4.712 0 8.531 3.821 8.531 8.533v23.467h-79.464c-4.712 0-8.531-3.821-8.531-8.533v-23.467h79.465zM14.93 4.267c-2.986 0-5.332 2.347-5.332 5.333v2.133c-1.813 0-3.199 1.387-3.199 3.2v7.467c0 1.813 1.386 3.2 3.199 3.2h10.664c1.813 0 3.199-1.387 3.199-3.2v-7.467c0-1.813-1.386-3.2-3.199-3.2v-2.133c0-2.987-2.346-5.333-5.332-5.333zM72.143 8.138c-0.961 0-1.836 0.122-2.625 0.366-0.775 0.23-1.449 0.559-2.023 0.99-0.559 0.43-0.997 0.954-1.313 1.571-0.301 0.602-0.452 1.277-0.452 2.023 0 1.133 0.337 2.059 1.011 2.776s1.7 1.219 3.077 1.506l2.518 0.538c0.674 0.143 1.14 0.316 1.399 0.516 0.273 0.201 0.409 0.466 0.409 0.796 0 0.373-0.194 0.689-0.581 0.947-0.373 0.244-1.033 0.366-1.98 0.366-0.602 0-1.248-0.072-1.936-0.215s-1.305-0.344-1.85-0.602c-0.416-0.186-0.789-0.23-1.119-0.129-0.33 0.086-0.595 0.265-0.796 0.538-0.201 0.258-0.323 0.559-0.366 0.904s0.014 0.674 0.172 0.99c0.158 0.301 0.43 0.545 0.818 0.732 0.445 0.215 0.947 0.402 1.506 0.559s1.148 0.273 1.764 0.344c0.631 0.086 1.234 0.129 1.807 0.129 0.99 0 1.879-0.115 2.668-0.344s1.463-0.552 2.023-0.968c0.559-0.43 0.99-0.947 1.291-1.549s0.452-1.277 0.452-2.023c0-1.105-0.344-2.001-1.033-2.69s-1.729-1.183-3.12-1.485l-2.496-0.538c-0.674-0.143-1.14-0.316-1.399-0.516-0.244-0.215-0.366-0.473-0.366-0.775s0.093-0.567 0.28-0.796c0.201-0.229 0.488-0.402 0.861-0.516 0.373-0.129 0.825-0.194 1.356-0.194 0.488 0 0.99 0.050 1.506 0.151 0.531 0.086 1.004 0.222 1.42 0.409 0.445 0.186 0.825 0.244 1.14 0.172 0.33-0.086 0.588-0.251 0.775-0.495 0.201-0.244 0.316-0.524 0.344-0.839 0.029-0.33-0.029-0.646-0.172-0.947s-0.38-0.538-0.71-0.71c-0.559-0.33-1.226-0.574-2.001-0.732-0.76-0.172-1.513-0.258-2.259-0.258zM61.368 8.181c-0.502 0-0.904 0.1-1.205 0.301-0.287 0.186-0.559 0.502-0.818 0.947l-4.229 7.628-4.249-7.628c-0.244-0.445-0.517-0.76-0.818-0.947-0.287-0.201-0.681-0.301-1.183-0.301-0.602 0-1.069 0.158-1.398 0.473-0.33 0.301-0.495 0.746-0.495 1.334v11.942c0 0.574 0.151 1.019 0.452 1.334 0.316 0.316 0.76 0.473 1.334 0.473 0.588 0 1.033-0.158 1.334-0.473s0.452-0.76 0.452-1.334v-6.565l2.991 5.188c0.186 0.315 0.394 0.552 0.624 0.71s0.524 0.237 0.882 0.237c0.373 0 0.667-0.079 0.882-0.237 0.23-0.158 0.445-0.394 0.646-0.71l3.012-5.239v6.616c0 0.574 0.151 1.019 0.452 1.334 0.316 0.316 0.76 0.473 1.334 0.473 0.588 0 1.033-0.158 1.334-0.473s0.452-0.76 0.452-1.334v-11.942c0-0.588-0.158-1.033-0.473-1.334-0.301-0.316-0.739-0.473-1.313-0.473zM36.322 8.353c-0.631 0-1.119 0.172-1.463 0.516s-0.517 0.839-0.517 1.485v11.189c0 0.631 0.172 1.126 0.517 1.485 0.358 0.344 0.853 0.516 1.485 0.516h7.208c0.545 0 0.961-0.143 1.248-0.43 0.301-0.287 0.452-0.696 0.452-1.226s-0.15-0.933-0.452-1.205c-0.287-0.287-0.703-0.43-1.248-0.43h-5.25v-9.898c0-0.646-0.172-1.14-0.516-1.485-0.33-0.344-0.818-0.516-1.463-0.516zM14.93 16c0.64 0 1.066 0.427 1.066 1.067v3.2c0 0.64-0.427 1.067-1.066 1.067s-1.066-0.427-1.066-1.067v-3.2c0-0.64 0.426-1.067 1.066-1.067zM14.93 6.4c1.813 0 3.199 1.387 3.199 3.2v2.133h-6.399v-2.133c0-1.813 1.386-3.2 3.199-3.2z"></path>
</svg>
