<!-- Generated by IcoMoon.io -->
<svg version="1.1" xmlns="http://www.w3.org/2000/svg" width="32" height="32" viewBox="0 0 32 32">
<path fill="#227aff" d="M16.125 3.513c0.001-0.098-0.017-0.195-0.055-0.286s-0.093-0.172-0.163-0.241-0.154-0.121-0.245-0.156c-0.092-0.035-0.189-0.051-0.287-0.046-2.55 0.144-5.005 1.023-7.067 2.53s-3.644 3.58-4.555 5.966c-0.911 2.387-1.112 4.986-0.578 7.484s1.778 4.789 3.584 6.595c1.806 1.807 4.096 3.052 6.594 3.586s5.097 0.334 7.484-0.576c2.387-0.91 4.459-2.491 5.968-4.553s2.388-4.516 2.532-7.066c0.003-0.098-0.013-0.195-0.048-0.286s-0.089-0.174-0.157-0.244c-0.068-0.070-0.15-0.126-0.24-0.163s-0.187-0.057-0.285-0.056c-0.355 0-0.709-0.008-1.064 0-0.195 0.006-0.381 0.086-0.52 0.223s-0.221 0.322-0.23 0.517c-0.142 2.047-0.87 4.009-2.096 5.654s-2.9 2.901-4.822 3.621c-1.921 0.719-4.009 0.871-6.014 0.437s-3.843-1.436-5.294-2.886c-1.451-1.45-2.455-3.287-2.891-5.291s-0.287-4.092 0.431-6.014c0.718-1.922 1.973-3.597 3.616-4.825s3.605-1.958 5.652-2.102c0.2-0.011 0.388-0.097 0.528-0.241s0.219-0.335 0.222-0.536v-1.044z"></path>
</svg>
