<!-- Generated by IcoMoon.io -->
<svg version="1.1" xmlns="http://www.w3.org/2000/svg" width="31" height="32" viewBox="0 0 31 32">
<path d="M8.819 2.123h13.084c0.986 0 1.794 0.808 1.794 1.794v6.12c0 0.986-0.808 1.794-1.794 1.794h-5.831v3.135h7.755c0.685 0 1.31 0.282 1.765 0.736l0.001-0.001c0.454 0.454 0.734 1.079 0.734 1.767v1.688h2.411c0.595 0 1.080 0.487 1.080 1.080v3.985c0 0.595-0.487 1.080-1.080 1.080h-6.243c-0.595 0-1.080-0.485-1.080-1.080v-3.985c0-0.595 0.487-1.080 1.080-1.080h2.411v-1.688c0-0.297-0.121-0.566-0.317-0.76l0.001-0.001-0.001-0.001c-0.1-0.1-0.218-0.179-0.349-0.234s-0.27-0.082-0.412-0.082h-7.755v7.422h2.411c0.595 0 1.080 0.487 1.080 1.080v3.985c0 0.595-0.487 1.080-1.080 1.080h-6.242c-0.595 0-1.080-0.487-1.080-1.080v-3.985c0-0.595 0.487-1.080 1.080-1.080h2.411v-7.422h-7.755c-0.282 0-0.541 0.109-0.733 0.286l-0.029 0.030c-0.1 0.1-0.18 0.218-0.234 0.349s-0.082 0.27-0.083 0.412v1.688h2.411c0.595 0 1.080 0.487 1.080 1.080v3.985c0 0.595-0.487 1.080-1.080 1.080h-6.242c-0.595 0-1.080-0.485-1.080-1.080v-3.985c0-0.595 0.487-1.080 1.080-1.080h2.411v-1.688c0-0.688 0.281-1.313 0.734-1.767 0.014-0.014 0.030-0.029 0.046-0.043 0.451-0.428 1.056-0.691 1.719-0.691h7.755v-3.135h-5.831c-0.986 0-1.794-0.808-1.794-1.794v-6.12c0-0.986 0.808-1.794 1.794-1.794l-0.004 0.001z"></path>
</svg>
