<!-- Generated by IcoMoon.io -->
<svg version="1.1" xmlns="http://www.w3.org/2000/svg" width="32" height="32" viewBox="0 0 32 32">
<path d="M3.501 18.841c-0.122 0-0.241-0.033-0.345-0.096-1.657-1.003-3.208-3.088-2.124-5.667 1.317-3.132 7.123-12.019 14.166-12.948 0.877-0.129 1.982 0.528 3.34 2.010 0.059 0.065 0.105 0.14 0.135 0.223s0.043 0.17 0.039 0.257c-0.004 0.087-0.025 0.173-0.062 0.253s-0.089 0.151-0.154 0.21-0.14 0.105-0.223 0.135c-0.082 0.030-0.17 0.043-0.257 0.039s-0.173-0.025-0.253-0.062c-0.079-0.037-0.151-0.089-0.21-0.154-1.211-1.324-1.918-1.638-2.174-1.589-6.394 0.844-11.929 9.319-13.119 12.144-0.949 2.257 0.972 3.64 1.584 4.010 0.124 0.076 0.22 0.189 0.273 0.324s0.061 0.284 0.022 0.424c-0.039 0.14-0.122 0.263-0.238 0.351s-0.256 0.136-0.402 0.137z"></path>
<path d="M21.431 25.569c-1.705 0-3.049-0.585-3.708-1.621-0.468-0.736-0.528-1.613-0.159-2.348 0.452-0.899 1.614-0.92 3.084-0.945 1.573-0.028 3.53-0.063 5.525-0.983 2.757-1.212 2.888-2.092 2.861-2.333-0.073-0.679-1.413-1.472-3.049-1.806-0.155-0.032-0.294-0.117-0.392-0.242s-0.148-0.28-0.142-0.438c0.172-4.277-0.939-6.558-3.3-6.778-7.639-0.807-12.279 3.161-12.324 3.201-0.133 0.116-0.306 0.175-0.482 0.163s-0.34-0.093-0.457-0.225c-0.116-0.133-0.175-0.306-0.164-0.482s0.093-0.34 0.226-0.457c0.205-0.18 5.122-4.401 13.333-3.526 2.125 0.197 4.604 1.693 4.515 7.607 1.652 0.443 3.406 1.393 3.561 2.841 0.143 1.344-1.047 2.552-3.64 3.69-2.237 1.032-4.438 1.070-6.046 1.1-0.701 0.012-1.762 0.031-1.918 0.215-0.153 0.308-0.12 0.695 0.093 1.031 0.427 0.671 1.46 1.043 2.752 1 2.837-0.076 6.938-3.282 6.979-3.314 0.069-0.054 0.147-0.094 0.232-0.118s0.172-0.031 0.259-0.020c0.087 0.010 0.171 0.038 0.247 0.080s0.144 0.1 0.198 0.169c0.054 0.069 0.094 0.147 0.118 0.232s0.031 0.172 0.020 0.259c-0.010 0.087-0.038 0.171-0.080 0.247s-0.1 0.144-0.169 0.198c-0.183 0.143-4.489 3.513-7.768 3.601-0.069 0.003-0.138 0.004-0.207 0.004z"></path>
<path d="M18.953 32c-5.069 0-9.107-2.904-11.371-8.176-0.038-0.081-0.060-0.169-0.064-0.258s0.011-0.179 0.043-0.262c0.032-0.084 0.080-0.16 0.142-0.225s0.136-0.116 0.218-0.152c0.082-0.035 0.171-0.054 0.26-0.054s0.178 0.017 0.261 0.052c0.083 0.035 0.157 0.085 0.22 0.15s0.111 0.14 0.144 0.224c1.181 2.753 4.072 7.37 10.147 7.37 5.165 0 7.972-2.692 9.188-4.296 1.738-2.278 2.106-4.652 1.698-5.422-0.085-0.16-0.165-0.173-0.251-0.164-0.141 0.012-0.283-0.023-0.402-0.099s-0.21-0.191-0.257-0.325c-0.18-0.476-0.352-0.955-0.516-1.437-0.029-0.083-0.040-0.17-0.035-0.258s0.028-0.173 0.067-0.252c0.039-0.079 0.092-0.149 0.158-0.207s0.142-0.102 0.225-0.13c0.083-0.029 0.17-0.041 0.258-0.035s0.173 0.028 0.251 0.066c0.079 0.038 0.149 0.092 0.207 0.158s0.102 0.142 0.131 0.225c0.109 0.317 0.244 0.699 0.36 1.016 0.415 0.112 0.757 0.395 0.981 0.817 0.799 1.504 0.019 4.45-1.814 6.854-1.362 1.8-4.508 4.822-10.249 4.822zM6.661 16.882c-0.177 0-0.346-0.070-0.471-0.195s-0.195-0.295-0.195-0.471c0-0.253 0-0.493 0.015-0.732 0.045-0.229 0.679-2.581 2.966-5.726 0.88-1.216 1.857-2.358 2.922-3.416 1.6-1.598 3.67-3.138 5.826-4.334 1.961-1.080 5.607-2.73 7.99-1.661 0.919 0.411 1.535 1.196 1.781 2.269 0.499 2.214-0.489 4.166-2.856 5.646-0.149 0.083-0.325 0.105-0.491 0.062s-0.308-0.147-0.399-0.292-0.122-0.319-0.089-0.486c0.034-0.168 0.131-0.316 0.27-0.414 1.869-1.169 2.632-2.589 2.264-4.221-0.153-0.665-0.489-1.108-1.026-1.348-1.336-0.6-3.878 0.004-6.802 1.61-2.020 1.12-4.036 2.62-5.53 4.113-1.016 1.006-1.948 2.095-2.785 3.254-1.932 2.656-2.605 4.719-2.717 5.091-0.007 0.192-0.007 0.383-0.007 0.584 0 0.177-0.070 0.346-0.195 0.471s-0.295 0.195-0.471 0.195z"></path>
<path d="M6.639 24.677c-0.895 0-1.769-0.335-2.508-0.968-0.861-0.739-1.434-1.8-1.617-2.99s0.048-2.376 0.647-3.337c0.62-0.994 1.558-1.633 2.641-1.798 1.072-0.165 2.166 0.163 3.057 0.925 0.86 0.739 1.433 1.8 1.616 2.99 0.184 1.191-0.047 2.376-0.647 3.337-0.62 0.995-1.557 1.633-2.64 1.799-0.182 0.028-0.365 0.042-0.549 0.043zM6.346 16.874c-0.113 0-0.228 0.008-0.341 0.027-0.693 0.107-1.301 0.528-1.712 1.187-0.431 0.692-0.595 1.554-0.461 2.43 0.135 0.876 0.548 1.649 1.168 2.181 0.588 0.505 1.296 0.728 1.986 0.62 0.693-0.107 1.301-0.528 1.71-1.187 0.432-0.692 0.595-1.555 0.461-2.43-0.135-0.876-0.548-1.65-1.167-2.181-0.492-0.424-1.065-0.647-1.645-0.647zM22.344 29.6c-0.711 0-1.42-0.075-2.114-0.224-2.222-0.481-4.041-1.734-4.991-3.438-1.745-3.16-0.184-5.403 0.656-6.61 0.172-0.247 0.408-0.585 0.435-0.703-0.009-0.068-0.263-0.361-0.431-0.556-0.637-0.74-1.6-1.858-1.572-4.077 0.041-3.246 3.137-3.25 4.986-3.253 0.335 0 0.652 0 0.935-0.016 0.857-0.055 1.225-0.353 1.653-0.699 0.381-0.308 0.815-0.659 1.524-0.739 1.526-0.193 2.646 1.56 2.766 1.761 0.082 0.151 0.102 0.329 0.056 0.494s-0.153 0.308-0.301 0.396-0.324 0.116-0.491 0.078c-0.168-0.038-0.314-0.14-0.409-0.283-0.24-0.395-0.871-1.187-1.467-1.121-0.315 0.036-0.505 0.18-0.843 0.452-0.475 0.384-1.127 0.911-2.412 0.992-0.309 0.017-0.652 0.019-1.013 0.019-2.51 0.004-3.634 0.284-3.654 1.937-0.023 1.714 0.683 2.532 1.249 3.189 0.387 0.448 0.751 0.872 0.751 1.456 0.007 0.463-0.293 0.892-0.671 1.436-0.813 1.169-1.928 2.77-0.585 5.201 0.763 1.367 2.26 2.381 4.109 2.781 2.59 0.563 5.421-0.108 7.763-1.836 0.142-0.099 0.318-0.139 0.489-0.111s0.325 0.122 0.428 0.262c0.103 0.14 0.148 0.314 0.124 0.486s-0.113 0.328-0.25 0.435c-2.026 1.498-4.392 2.29-6.721 2.29z"></path>
<path d="M24.192 15.547c-0.131 0-0.258-0.038-0.368-0.111s-0.194-0.175-0.246-0.295l-0.615-1.438c-0.069-0.163-0.071-0.346-0.005-0.51s0.194-0.295 0.357-0.364c0.163-0.069 0.346-0.071 0.51-0.005s0.295 0.194 0.364 0.357l0.615 1.439c0.043 0.101 0.061 0.212 0.051 0.322s-0.047 0.215-0.108 0.307c-0.061 0.092-0.143 0.167-0.24 0.22s-0.206 0.079-0.316 0.079zM17.673 16.568c-0.133 0-0.263-0.040-0.373-0.114s-0.196-0.18-0.245-0.303c-0.050-0.123-0.061-0.259-0.034-0.389s0.094-0.249 0.189-0.341c1.598-1.542 3.456-0.781 4.213-0.164 0.068 0.055 0.125 0.123 0.166 0.2s0.068 0.161 0.077 0.249c0.009 0.087 0.001 0.175-0.024 0.259s-0.066 0.162-0.121 0.23c-0.055 0.068-0.123 0.125-0.2 0.166s-0.161 0.068-0.249 0.077c-0.087 0.009-0.175 0.001-0.259-0.024s-0.162-0.066-0.23-0.121c-0.139-0.109-1.329-0.991-2.446 0.088-0.125 0.119-0.291 0.186-0.464 0.187zM23.493 18.323c-0.368 0-0.704-0.299-0.704-0.667s0.261-0.667 0.631-0.667h0.075c0.088 0 0.174 0.017 0.255 0.051s0.154 0.083 0.216 0.145c0.062 0.062 0.111 0.136 0.144 0.216s0.051 0.168 0.050 0.255c-0 0.087-0.017 0.174-0.051 0.255s-0.083 0.154-0.145 0.216c-0.062 0.062-0.136 0.111-0.216 0.144s-0.168 0.051-0.255 0.050z"></path>
<path d="M24.433 17.916c-0.368 0-0.667-0.267-0.667-0.635v-0.064c0-0.177 0.070-0.346 0.195-0.471s0.295-0.195 0.471-0.195 0.346 0.070 0.471 0.195c0.125 0.125 0.195 0.295 0.195 0.471 0 0.368-0.297 0.699-0.667 0.699zM9.256 22.936c-0.443 0-1.251-0.203-2.206-1.376-0.301-0.369-0.209-0.845-0.111-1.349 0.201-1.043 0.068-1.073-0.135-1.119-0.231-0.056-0.311 0.007-0.34 0.031-0.205 0.16-0.309 0.663-0.315 0.951-0.008 0.367-0.337 0.649-0.677 0.655-0.176-0.002-0.344-0.075-0.467-0.201s-0.191-0.296-0.189-0.472c0.001-0.137 0.037-1.361 0.823-1.98 0.28-0.219 0.761-0.441 1.465-0.283 1.59 0.365 1.277 1.982 1.142 2.672-0.025 0.123-0.047 0.247-0.065 0.372 0.671 0.776 1.087 0.765 1.079 0.767 0.355-0.111 0.692 0.095 0.801 0.445 0.111 0.352-0.12 0.733-0.472 0.843-0.108 0.032-0.221 0.047-0.333 0.045z"></path>
</svg>
