<!-- Generated by IcoMoon.io -->
<svg version="1.1" xmlns="http://www.w3.org/2000/svg" width="32" height="32" viewBox="0 0 32 32">
<path d="M26.693 2.688c-0.606-0.049-1.232-0.015-1.854 0.036-1.245 0.103-2.581 0.293-2.859 0.297-0.727 0.012-1.313 0.604-1.313 1.333 0 0.007 0 0.015 0 0.022v-0.001c0.012 0.727 0.604 1.313 1.333 1.313 0.007 0 0.015-0 0.022-0h-0.001c0.746-0.011 1.709-0.171 2.672-0.271l-7.635 7.635c-0.241 0.241-0.39 0.575-0.39 0.943s0.149 0.701 0.39 0.943v0c0.242 0.243 0.576 0.393 0.945 0.393s0.704-0.15 0.945-0.393l7.635-7.635c-0.1 0.964-0.26 1.93-0.271 2.677-0 0.006-0 0.014-0 0.021 0 0.729 0.585 1.322 1.312 1.333h0.001c0.006 0 0.014 0 0.021 0 0.729 0 1.322-0.585 1.333-1.312v-0.001c0.004-0.278 0.194-1.615 0.297-2.859 0.051-0.622 0.080-1.248 0.031-1.854s-0.074-1.251-0.719-1.896c-0.645-0.645-1.29-0.675-1.896-0.724z"></path>
<path d="M13.057 17.052l-7.641 7.646c0.1-0.964 0.26-1.93 0.271-2.677 0-0.006 0-0.014 0-0.021 0-0.729-0.585-1.322-1.312-1.333h-0.001c-0.006-0-0.014-0-0.021-0-0.729 0-1.322 0.585-1.333 1.312v0.001c-0.004 0.278-0.194 1.615-0.297 2.859-0.051 0.622-0.085 1.248-0.036 1.854s0.079 1.251 0.724 1.896c0.645 0.645 1.29 0.675 1.896 0.724s1.232 0.015 1.854-0.036c1.245-0.103 2.581-0.293 2.859-0.297 0.727-0.012 1.313-0.604 1.313-1.333 0-0.007-0-0.015-0-0.022v0.001c-0.012-0.727-0.604-1.313-1.333-1.313-0.007 0-0.015 0-0.022 0h0.001c-0.746 0.011-1.709 0.171-2.672 0.271l7.641-7.646c0.24-0.241 0.388-0.573 0.388-0.94 0-0.369-0.15-0.704-0.393-0.945l-0-0c-0.241-0.241-0.575-0.39-0.943-0.39s-0.701 0.149-0.943 0.39v0z"></path>
</svg>
