<!-- Generated by IcoMoon.io -->
<svg version="1.1" xmlns="http://www.w3.org/2000/svg" width="31" height="32" viewBox="0 0 31 32">
<path d="M25.86 19.436c-0.241 0.509-0.631 0.945-1.131 1.241l-1.463 0.87-0.87 1.463c-0.513 0.863-1.437 1.397-2.44 1.409l-1.702 0.021-1.033 0.579 4.181 4.181c0.25 0.251 0.618 0.343 0.957 0.24s0.593-0.384 0.663-0.73c0 0 0.424-2.122 0.708-3.545 0.076-0.38 0.373-0.677 0.754-0.753 1.422-0.285 3.544-0.709 3.544-0.709 0.348-0.069 0.629-0.324 0.731-0.664s0.010-0.708-0.242-0.957l-2.657-2.645zM4.856 19.427c0.242 0.513 0.633 0.951 1.136 1.25l1.463 0.87 0.87 1.463c0.513 0.863 1.437 1.397 2.44 1.409l1.702 0.021 1.033 0.579-4.181 4.181c-0.251 0.251-0.618 0.343-0.957 0.24s-0.593-0.384-0.663-0.73c0 0-0.424-2.122-0.708-3.545-0.076-0.38-0.373-0.677-0.754-0.753-1.422-0.285-3.544-0.709-3.544-0.709-0.348-0.069-0.628-0.324-0.731-0.663s-0.011-0.707 0.24-0.956l2.654-2.655zM12.979 4.755l1.911-1.071c0.292-0.164 0.647-0.164 0.939 0l1.911 1.071 2.191 0.028c0.335 0.004 0.643 0.181 0.814 0.469l1.118 1.883 1.884 1.119c0.287 0.171 0.466 0.479 0.47 0.813l0.027 2.192 1.072 1.91c0.164 0.292 0.164 0.648 0 0.94l-1.072 1.911-0.027 2.191c-0.004 0.334-0.182 0.643-0.47 0.813l-1.884 1.119-1.118 1.884c-0.171 0.287-0.479 0.466-0.814 0.47l-2.191 0.027-1.911 1.072c-0.292 0.163-0.647 0.163-0.939 0l-1.911-1.072-2.191-0.027c-0.335-0.004-0.643-0.183-0.814-0.47l-1.118-1.884-1.884-1.119c-0.287-0.17-0.466-0.479-0.469-0.813l-0.027-2.191-1.072-1.911c-0.164-0.292-0.164-0.648 0-0.94l1.072-1.91 0.027-2.192c0.004-0.334 0.182-0.642 0.469-0.813l1.884-1.119 1.118-1.883c0.171-0.288 0.479-0.466 0.814-0.469l2.191-0.028zM13.306 10.778l1.206-2.285c0.166-0.315 0.493-0.513 0.849-0.513s0.683 0.198 0.849 0.513l1.206 2.285 2.546 0.441c0.351 0.060 0.639 0.31 0.75 0.649 0.109 0.339 0.023 0.71-0.225 0.966l-1.801 1.853 0.368 2.557c0.051 0.352-0.098 0.704-0.386 0.913s-0.668 0.242-0.988 0.084l-2.318-1.14-2.318 1.14c-0.32 0.157-0.7 0.125-0.988-0.084s-0.437-0.561-0.386-0.913l0.368-2.557-1.801-1.853c-0.248-0.255-0.334-0.627-0.225-0.966s0.398-0.588 0.75-0.649l2.546-0.441z"></path>
</svg>
