<!-- Generated by IcoMoon.io -->
<svg version="1.1" xmlns="http://www.w3.org/2000/svg" width="32" height="32" viewBox="0 0 32 32">
<path fill="#195ec8" d="M14.149 4.317l-1.024 0.58-1.216 0.018c-1.65 0.024-1.45-0.105-2.461 1.591l-0.461 0.774-0.947 0.563c-0.521 0.311-1.009 0.623-1.085 0.694-0.298 0.279-0.312 0.352-0.332 1.665l-0.018 1.216-0.566 0.997c-0.515 0.909-0.567 1.025-0.586 1.317l-0.020 0.32 1.152 2.028 0.028 1.253c0.032 1.366 0.050 1.452 0.364 1.716 0.084 0.070 0.573 0.378 1.087 0.682l0.932 0.553 0.553 0.932c0.305 0.513 0.612 1.002 0.682 1.087 0.265 0.314 0.351 0.332 1.716 0.364l1.254 0.028 2.026 1.152 0.32-0.020c0.291-0.019 0.411-0.073 1.32-0.586l1-0.566 1.213-0.018c1.614-0.023 1.482 0.054 2.309-1.332l0.616-1.032 0.957-0.572c0.527-0.314 1.032-0.644 1.123-0.732 0.253-0.246 0.289-0.454 0.289-1.684v-1.11l0.598-1.070c0.794-1.421 0.792-1.267 0.004-2.68l-0.595-1.064-0.017-1.228c-0.022-1.583 0.065-1.435-1.32-2.255l-1.024-0.608-0.617-1.036c-0.837-1.403-0.684-1.313-2.305-1.348l-1.257-0.026-1.018-0.573c-1.379-0.778-1.281-0.778-2.674 0.010zM15.945 8.239c0.239 0.125 0.355 0.3 0.988 1.508 0.343 0.652 0.64 1.187 0.659 1.187s0.641 0.105 1.384 0.234c1.174 0.205 1.371 0.253 1.532 0.376 0.206 0.154 0.346 0.386 0.376 0.652l0 0.004c0.061 0.389-0.099 0.626-1.128 1.667l-0.937 0.946 0.196 1.366c0.12 0.841 0.183 1.44 0.161 1.555-0.041 0.216-0.293 0.527-0.527 0.648-0.364 0.188-0.554 0.136-1.903-0.524l-1.253-0.613-1.239 0.614c-1.083 0.536-1.271 0.613-1.496 0.611-0.006 0-0.013 0-0.020 0-0.283 0-0.536-0.131-0.702-0.335l-0.001-0.002c-0.262-0.312-0.266-0.431-0.052-1.929l0.195-1.37-0.952-0.989c-0.524-0.544-0.983-1.044-1.020-1.111-0.113-0.202-0.086-0.678 0.051-0.922 0.196-0.343 0.396-0.415 1.851-0.663 0.719-0.123 1.324-0.239 1.343-0.26s0.28-0.504 0.58-1.076c0.641-1.226 0.753-1.408 0.932-1.526 0.152-0.096 0.337-0.153 0.536-0.153 0.163 0 0.318 0.039 0.454 0.107l-0.006-0.003zM3.589 20.973c-0.768 0.771-1.422 1.468-1.453 1.55-0.036 0.104-0.056 0.224-0.056 0.349 0 0.182 0.044 0.354 0.122 0.506l-0.003-0.006c0.207 0.367 0.375 0.425 2.335 0.813 0.982 0.195 1.888 0.389 2.011 0.435 0.258 0.097 0.455 0.303 0.54 0.559l0.002 0.006c0.029 0.096 0.214 0.979 0.408 1.961 0.392 1.976 0.456 2.158 0.826 2.348 0.142 0.066 0.309 0.104 0.484 0.104 0.126 0 0.247-0.020 0.361-0.056l-0.008 0.002c0.133-0.050 4.443-4.293 4.443-4.375 0-0.017-0.221-0.154-0.493-0.302l-0.494-0.27-1.066-0.026c-0.91-0.020-1.121-0.042-1.44-0.143-0.86-0.273-1.283-0.671-1.996-1.88l-0.494-0.838-0.909-0.548c-0.95-0.573-1.362-0.931-1.591-1.379-0.037-0.080-0.077-0.148-0.123-0.212l0.003 0.004c-0.006 0-0.641 0.63-1.408 1.399zM25.843 19.84c-0.269 0.452-0.695 0.813-1.595 1.35l-0.845 0.506-0.506 0.846c-0.709 1.185-1.119 1.578-1.951 1.871-0.356 0.125-0.477 0.14-1.481 0.161l-1.093 0.023-0.48 0.268c-0.229 0.124-0.394 0.22-0.556 0.32l0.052-0.030c-0.047 0.042 4.134 4.186 4.36 4.32 0.449 0.269 1.112 0.081 1.324-0.375 0.042-0.092 0.244-1.002 0.447-2.021 0.204-1.020 0.411-1.94 0.461-2.045 0.174-0.366 0.305-0.412 2.436-0.841 2.125-0.428 2.216-0.46 2.422-0.85 0.114-0.216 0.115-0.655 0.003-0.863-0.047-0.088-0.705-0.778-1.463-1.532l-1.376-1.371-0.157 0.262z"></path>
</svg>
