<svg xmlns="http://www.w3.org/2000/svg" width="163.839" height="163.839" fill-rule="evenodd" clip-rule="evenodd" image-rendering="optimizeQuality" shape-rendering="geometricPrecision" text-rendering="geometricPrecision" viewBox="0 0 1707 1707" id="header">
  <g>
    <g>
      <g>
        <g>
          <path d="M1476 1555l-1213 0c-50,0 -90,-40 -90,-90l0 -691c0,-8 6,-14 13,-14l1367 0c7,0 13,6 13,14l0 691c0,50 -40,90 -90,90zm-1276 -768l0 678c0,35 28,63 63,63l1213 0c35,0 63,-28 63,-63l0 -678 -1339 0zm1353 -266l-1367 0c-7,0 -13,-6 -13,-14l0 -266c0,-49 40,-89 90,-89l1213 0c50,0 90,40 90,89l0 266c0,8 -6,14 -13,14zm-1353 -27l1339 0 0 -253c0,-34 -28,-63 -63,-63l-1213 0c-35,0 -63,29 -63,63l0 253z"></path>
        </g>
        <g>
          <path d="M896 357l-564 0c-35,0 -63,-28 -63,-62 0,-34 28,-62 63,-62l564 0c34,0 62,28 62,62 0,34 -28,62 -62,62zm-564 -98c-20,0 -36,16 -36,36 0,20 16,36 36,36l564 0c20,0 36,-16 36,-36 0,-20 -16,-36 -36,-36l-564 0z"></path>
        </g>
        <g>
          <path d="M1085 357c-34,0 -62,-28 -62,-62 0,-34 28,-62 62,-62 34,0 62,28 62,62 0,34 -28,62 -62,62zm0 -98c-20,0 -36,16 -36,36 0,20 16,36 36,36 20,0 36,-16 36,-36 0,-20 -16,-36 -36,-36z"></path>
        </g>
        <g>
          <path d="M1246 357c-34,0 -62,-28 -62,-62 0,-34 28,-62 62,-62 34,0 62,28 62,62 0,34 -28,62 -62,62zm0 -98c-20,0 -36,16 -36,36 0,20 16,36 36,36 20,0 36,-16 36,-36 0,-20 -16,-36 -36,-36z"></path>
        </g>
        <g>
          <path d="M1407 357c-34,0 -62,-28 -62,-62 0,-34 28,-62 62,-62 35,0 63,28 63,62 0,34 -28,62 -63,62zm0 -98c-19,0 -35,16 -35,36 0,20 16,36 35,36 20,0 36,-16 36,-36 0,-20 -16,-36 -36,-36z"></path>
        </g>
        <g>
          <path d="M1553 438l-1367 0c-7,0 -13,-6 -13,-13 0,-8 6,-13 13,-13l1367 0c7,0 13,5 13,13 0,7 -6,13 -13,13z"></path>
        </g>
        <g>
          <path d="M1628 787l-1550 0c-43,0 -78,-35 -78,-78l0 -137c0,-43 35,-78 78,-78l1550 0c44,0 79,35 79,78l0 137c0,43 -35,78 -79,78zm-1550 -266c-28,0 -51,23 -51,51l0 137c0,28 23,51 51,51l1550 0c29,0 52,-23 52,-51l0 -137c0,-28 -23,-51 -52,-51l-1550 0z"></path>
        </g>
        <g>
          <g>
            <path d="M802 1440l-468 0c-43,0 -78,-35 -78,-78l0 -423c0,-43 35,-78 78,-78l468 0c43,0 78,35 78,78l0 423c0,43 -35,78 -78,78zm-468 -553c-28,0 -51,23 -51,52l0 423c0,29 23,52 51,52l468 0c28,0 52,-23 52,-52l0 -423c0,-29 -24,-52 -52,-52l-468 0z"></path>
          </g>
          <g>
            <g>
              <path d="M568 1327c-7,0 -13,-6 -13,-13l0 -327c0,-7 6,-13 13,-13 7,0 13,6 13,13l0 327c0,7 -6,13 -13,13z"></path>
            </g>
            <g>
              <path d="M731 1164l-326 0c-7,0 -13,-6 -13,-14 0,-7 6,-13 13,-13l326 0c8,0 13,6 13,13 0,8 -5,14 -13,14z"></path>
            </g>
          </g>
          <g>
            <g>
              <path d="M1470 1041l-506 0c-7,0 -13,-6 -13,-13 0,-7 6,-13 13,-13l506 0c7,0 13,6 13,13 0,7 -6,13 -13,13z"></path>
            </g>
            <g>
              <path d="M1470 1181l-506 0c-7,0 -13,-6 -13,-13 0,-7 6,-13 13,-13l506 0c7,0 13,6 13,13 0,7 -6,13 -13,13z"></path>
            </g>
            <g>
              <path d="M1470 1321l-506 0c-7,0 -13,-6 -13,-13 0,-7 6,-13 13,-13l506 0c7,0 13,6 13,13 0,7 -6,13 -13,13z"></path>
            </g>
          </g>
          <g>
            <g>
              <path d="M1470 908l-506 0c-7,0 -13,-6 -13,-14 0,-7 6,-13 13,-13l506 0c7,0 13,6 13,13 0,8 -6,14 -13,14z"></path>
            </g>
            <g>
              <path d="M1470 1455l-506 0c-7,0 -13,-6 -13,-13 0,-8 6,-14 13,-14l506 0c7,0 13,6 13,14 0,7 -6,13 -13,13z"></path>
            </g>
          </g>
        </g>
        <g>
          <g>
            <path d="M354 611l-207 0c-7,0 -13,-6 -13,-13 0,-7 6,-13 13,-13l207 0c7,0 13,6 13,13 0,7 -6,13 -13,13z"></path>
          </g>
          <g>
            <path d="M354 704l-207 0c-7,0 -13,-6 -13,-14 0,-7 6,-13 13,-13l207 0c7,0 13,6 13,13 0,8 -6,14 -13,14z"></path>
          </g>
          <g>
            <path d="M1284 704l-853 0c-7,0 -13,-6 -13,-14l0 -92c0,-7 6,-13 13,-13l853 0c8,0 14,6 14,13l0 92c0,8 -6,14 -14,14zm-839 -27l826 0 0 -66 -826 0 0 66z"></path>
          </g>
          <g>
            <g>
              <path d="M1395 679c-23,0 -44,-14 -54,-35 -7,-14 -7,-30 -2,-45 6,-15 17,-27 31,-33 8,-4 16,-6 25,-6 23,0 44,14 54,35 13,29 0,64 -29,78 -8,4 -17,6 -25,6zm0 -92c-5,0 -10,1 -14,3 -8,3 -14,10 -17,18 -3,8 -2,17 1,25 8,16 28,23 43,16 17,-8 24,-27 16,-43 -5,-12 -17,-19 -29,-19z"></path>
            </g>
            <g>
              <path d="M1436 721c-5,0 -10,-3 -12,-8l-22 -46c-3,-7 0,-15 7,-18 6,-3 14,0 17,6l22 47c3,7 0,15 -7,18 -2,1 -3,1 -5,1z"></path>
            </g>
          </g>
          <g>
            <path d="M1560 613c-8,0 -14,-6 -14,-14l0 -1c0,-7 6,-13 14,-13 7,0 13,6 13,13l0 1c0,8 -6,14 -13,14z"></path>
          </g>
          <g>
            <path d="M1560 658c-8,0 -14,-6 -14,-13l0 -2c0,-7 6,-13 14,-13 7,0 13,6 13,13l0 2c0,7 -6,13 -13,13z"></path>
          </g>
          <g>
            <path d="M1560 704c-8,0 -14,-6 -14,-14l0 -1c0,-8 6,-14 14,-14 7,0 13,6 13,14l0 1c0,8 -6,14 -13,14z"></path>
          </g>
        </g>
      </g>
    </g>
  </g>
</svg>
