<!-- Generated by IcoMoon.io -->
<svg version="1.1" xmlns="http://www.w3.org/2000/svg" width="32" height="32" viewBox="0 0 32 32">
<path d="M2.286 1.563c-0.358 0-0.723 0.365-0.723 0.723v11.124c0 0.83 0.302 1.577 0.809 2 0.036 0.030 0.071 0.062 0.105 0.095l14.324 14.324c0.192 0.198 0.424 0.355 0.679 0.46s0.53 0.156 0.806 0.149c0.475 0 1.155-0.279 1.486-0.609l10.057-10.057c0.198-0.192 0.355-0.424 0.46-0.679s0.156-0.53 0.149-0.806c0-0.475-0.279-1.155-0.609-1.486l-14.324-14.324c-0.623-0.623-1.289-0.914-2.095-0.914h-11.124zM2.286 0h11.124c1.219 0 2.286 0.457 3.2 1.371l14.324 14.324c0.61 0.61 1.067 1.676 1.067 2.59 0.006 0.481-0.085 0.959-0.268 1.404s-0.455 0.849-0.798 1.186l-10.057 10.057c-0.61 0.61-1.676 1.067-2.59 1.067-0.481 0.006-0.959-0.085-1.404-0.268s-0.849-0.455-1.186-0.798l-14.324-14.324c-0.914-0.762-1.371-1.981-1.371-3.2v-11.124c0-1.219 1.067-2.286 2.286-2.286z"></path>
<path d="M5.343 4.61c-0.145 0-0.287 0.043-0.407 0.124s-0.214 0.195-0.27 0.329c-0.055 0.134-0.070 0.281-0.042 0.423s0.098 0.273 0.201 0.375c0.103 0.103 0.233 0.172 0.375 0.201s0.29 0.014 0.423-0.042c0.134-0.055 0.248-0.149 0.329-0.27s0.123-0.262 0.123-0.407c-0-0.194-0.078-0.381-0.215-0.518s-0.324-0.215-0.518-0.215zM5.343 3.047c0.454 0 0.898 0.135 1.275 0.387s0.672 0.611 0.845 1.030c0.174 0.419 0.219 0.881 0.131 1.326s-0.307 0.854-0.628 1.175c-0.321 0.321-0.73 0.54-1.175 0.628s-0.907 0.043-1.326-0.131c-0.419-0.174-0.778-0.468-1.030-0.845s-0.387-0.821-0.387-1.275c0-0.609 0.242-1.193 0.672-1.623s1.014-0.672 1.623-0.672v0z"></path>
<path d="M19.505 24.4c-0.154 0-0.306-0.046-0.434-0.132s-0.229-0.208-0.288-0.351c-0.059-0.143-0.075-0.3-0.044-0.451s0.105-0.291 0.214-0.4l2.133-2.133c0.916-0.916 0.916-2.246 0-3.162-0.442-0.442-1.003-0.685-1.581-0.685s-1.139 0.243-1.581 0.685c-0.737 0.737-1.691 1.143-2.686 1.143s-1.949-0.406-2.686-1.143c-0.737-0.737-1.143-1.691-1.143-2.686s0.406-1.949 1.143-2.686l2.133-2.133c0.147-0.145 0.345-0.227 0.552-0.226s0.405 0.083 0.551 0.229c0.146 0.146 0.228 0.344 0.229 0.551s-0.081 0.405-0.226 0.552l-2.133 2.133c-0.442 0.442-0.685 1.004-0.685 1.581s0.243 1.139 0.685 1.581c0.442 0.442 1.004 0.685 1.581 0.685s1.139-0.243 1.581-0.685c0.737-0.737 1.691-1.143 2.686-1.143s1.949 0.406 2.686 1.143c1.531 1.531 1.531 3.84 0 5.372l-2.133 2.133c-0.072 0.073-0.159 0.13-0.253 0.169s-0.196 0.059-0.299 0.059v0z"></path>
<path d="M13.105 13.886c-0.103 0-0.204-0.020-0.299-0.059s-0.181-0.097-0.253-0.17l-1.067-1.067c-0.073-0.073-0.13-0.159-0.169-0.253s-0.059-0.196-0.059-0.299 0.020-0.204 0.059-0.299c0.039-0.095 0.097-0.181 0.169-0.253s0.159-0.13 0.254-0.169c0.095-0.039 0.196-0.059 0.299-0.059s0.204 0.020 0.299 0.059c0.095 0.039 0.181 0.097 0.253 0.169l1.067 1.067c0.109 0.109 0.184 0.248 0.214 0.4s0.015 0.309-0.044 0.451c-0.059 0.143-0.159 0.265-0.288 0.351s-0.28 0.132-0.434 0.132v0z"></path>
<path d="M22.705 23.486c-0.103 0-0.204-0.020-0.299-0.059s-0.181-0.097-0.253-0.17l-1.067-1.067c-0.073-0.073-0.13-0.159-0.169-0.253s-0.059-0.196-0.059-0.299 0.020-0.204 0.059-0.299c0.039-0.095 0.097-0.181 0.169-0.253s0.159-0.13 0.253-0.169c0.095-0.039 0.196-0.059 0.299-0.059s0.204 0.020 0.299 0.059 0.181 0.097 0.253 0.169l1.067 1.067c0.109 0.109 0.184 0.248 0.214 0.4s0.015 0.309-0.044 0.451c-0.059 0.143-0.159 0.265-0.288 0.351s-0.279 0.132-0.434 0.132v0z"></path>
</svg>
