<!-- Generated by IcoMoon.io -->
<svg version="1.1" xmlns="http://www.w3.org/2000/svg" width="47" height="32" viewBox="0 0 47 32">
<path fill="#4d5e6f" d="M14.861 20.703c-0.008 0-0.016 0-0.024 0s-0.016 0-0.024 0c-4.502-0.013-8.148-3.666-8.148-8.172 0-4.513 3.659-8.172 8.172-8.172s8.172 3.659 8.172 8.172c0 4.505-3.646 8.159-8.148 8.172zM20.992 21.801c2.996-1.993 4.97-5.401 4.97-9.269 0-6.144-4.981-11.125-11.126-11.125s-11.125 4.981-11.125 11.125c0 3.868 1.974 7.276 4.97 9.269-0.701 0.258-1.387 0.561-2.053 0.907-2.535 1.317-4.717 3.224-6.36 5.562-0.469 0.667-0.309 1.588 0.359 2.058s1.589 0.308 2.058-0.359c1.371-1.95 3.191-3.541 5.305-4.639 2.108-1.095 4.447-1.668 6.822-1.672 0.008 0 0.017 0 0.025 0s0.017-0 0.025-0c2.374 0.004 4.713 0.577 6.821 1.672 2.115 1.098 3.935 2.689 5.306 4.639 0.469 0.667 1.39 0.828 2.058 0.359s0.828-1.391 0.358-2.058c-1.644-2.337-3.825-4.245-6.361-5.561-0.666-0.346-1.352-0.648-2.052-0.907zM28.919 23.224c0.267 0.267 0.637 0.433 1.044 0.433l0.794 0.021c2.109 0.111 4.174 0.672 6.053 1.649 2.115 1.098 3.934 2.69 5.303 4.64 0.469 0.668 1.39 0.829 2.057 0.36s0.829-1.39 0.36-2.057c-1.642-2.339-3.824-4.248-6.359-5.565-0.669-0.348-1.358-0.651-2.061-0.901 0.829-0.55 1.583-1.21 2.24-1.964 1.044-1.199 1.82-2.607 2.274-4.131s0.576-3.127 0.359-4.702c-0.218-1.575-0.77-3.084-1.621-4.428s-1.979-2.489-3.309-3.359c-1.33-0.87-2.832-1.446-4.403-1.687s-3.176-0.143-4.706 0.288c-0.785 0.221-1.242 1.037-1.021 1.822s1.037 1.242 1.822 1.021c1.124-0.317 2.303-0.389 3.457-0.212s2.257 0.6 3.234 1.239c0.977 0.639 1.806 1.481 2.431 2.467s1.031 2.096 1.191 3.252c0.16 1.157 0.070 2.334-0.263 3.453s-0.903 2.154-1.67 3.034c-0.767 0.881-1.714 1.586-2.777 2.070s-2.217 0.734-3.386 0.734c-0.326 0-0.628 0.106-0.872 0.286l-0.171 0.147c-0.16 0.16-0.284 0.357-0.358 0.579-0.049 0.147-0.075 0.304-0.075 0.467 0 0.326 0.106 0.628 0.286 0.872l0.147 0.171z"></path>
</svg>
