<svg width="16" height="16" fill="none" xmlns="http://www.w3.org/2000/svg"><path d="M7.634.616c-1.13.101-2.167.745-2.812 1.746-.221.344-.402.812-.508 1.318a12.48 12.48 0 0 0-.043.943l-.018.824-.19.073a3.145 3.145 0 0 0-1.82 1.911c-.129.396-.242 1.266-.301 2.325-.059 1.072.094 2.846.301 3.479.341 1.046 1.282 1.87 2.345 2.056.386.067 1.612.105 3.412.105 1.807 0 3.002-.037 3.394-.104 1.101-.19 2.029-1.016 2.377-2.117.188-.594.337-2.376.283-3.387-.073-1.383-.202-2.186-.43-2.692-.299-.661-.966-1.289-1.663-1.566l-.214-.085-.018-.823a12.44 12.44 0 0 0-.043-.942c-.179-.852-.521-1.483-1.116-2.054A3.673 3.673 0 0 0 8.32.614c-.337-.03-.333-.03-.686.002m1.059 1.569c.295.099.462.19.717.389.36.282.659.741.78 1.199.05.188.057.292.06.865l.003.652-.666-.012c-.856-.015-2.352-.015-3.187 0l-.653.012.003-.652c.003-.573.01-.677.06-.865a2.307 2.307 0 0 1 1.417-1.561c.304-.111.441-.131.853-.121.321.008.387.018.613.094m1.425 4.59c.513.017.93.044 1.042.067.27.054.546.2.756.398.334.317.454.594.535 1.243.108.865.121 1.056.121 1.85s-.013.986-.121 1.851c-.081.649-.201.926-.535 1.243-.21.198-.486.343-.756.398-.461.094-4.594.124-5.907.043-.613-.037-.866-.14-1.214-.492-.327-.33-.424-.568-.504-1.23-.162-1.348-.162-2.278 0-3.626.08-.661.177-.899.504-1.23.218-.219.37-.316.654-.415.145-.05.643-.089 1.414-.11.796-.021 3.262-.015 4.011.01M7.693 8.996a.908.908 0 0 0-.236.176c-.191.213-.19.208-.19 1.161 0 .953-.001.95.189 1.159.16.178.278.227.544.227s.384-.049.544-.227c.19-.209.189-.206.189-1.159 0-.953.001-.948-.19-1.161A.703.703 0 0 0 8 8.934a.664.664 0 0 0-.307.062" fill-rule="evenodd" fill="#000"/></svg>