<svg width="20" height="20" fill="none" xmlns="http://www.w3.org/2000/svg"><path d="M5.933 1.788c-1.029.129-2.119.568-2.924 1.177a4.834 4.834 0 0 0-1.424 1.752c-.494.994-.681 1.905-.642 3.114.081 2.486 1.31 4.922 3.628 7.188.619.605 1.124 1.032 1.946 1.649 1.591 1.193 2.246 1.501 3.3 1.555.928.048 1.663-.183 2.634-.827 3.43-2.275 5.667-5.039 6.362-7.863a7.595 7.595 0 0 0 .243-1.7c.069-1.817-.529-3.435-1.676-4.531-.37-.353-.745-.609-1.328-.903-.795-.401-1.506-.589-2.352-.621-1.236-.047-2.234.268-3.319 1.047l-.383.275-.411-.295c-.98-.703-1.841-.998-2.97-1.021a9.361 9.361 0 0 0-.684.004m1.403 1.558c.61.154.767.238 1.817.968.389.271.629.363.9.346.275-.017.522-.144 1.097-.562.7-.508 1.241-.741 1.941-.834 1.299-.174 2.973.558 3.708 1.62 1.256 1.819.997 4.51-.675 7.016-.842 1.26-1.976 2.408-3.54 3.584-1.235.927-1.672 1.165-2.303 1.254-.62.086-1.164-.077-1.908-.571-1.937-1.287-3.479-2.747-4.489-4.251-.922-1.371-1.409-2.728-1.473-4.099-.053-1.141.267-2.259.874-3.05.595-.777 1.642-1.336 2.832-1.513.247-.037.907.012 1.219.092" fill-rule="evenodd" fill="#000"/></svg>