<svg width="20" height="20" fill="none" xmlns="http://www.w3.org/2000/svg"><path d="M4.55.969c-.593.031-.937.076-1.3.171-.686.181-1.219.508-1.571.965-.27.352-.482.846-.594 1.382C.952 4.128.95 4.26.95 10.75c0 6.945-.014 6.484.214 6.971.264.564.844.871 1.479.782.48-.067.776-.209 1.678-.804.306-.202.591-.376.632-.386.095-.024.048-.051 1.314.747 1.47.928 1.635 1.008 2.076 1.006.416-.002.586-.084 1.95-.943 1.325-.834 1.325-.834 1.419-.811.043.011.331.188.641.393.602.399.999.623 1.256.708.802.267 1.544.007 1.868-.654.249-.508.234-.183.247-5.547l.012-4.805 1.007-.016c1.102-.018 1.193-.031 1.585-.23.357-.181.624-.563.709-1.012.102-.542-.131-2.219-.44-3.165-.34-1.037-.808-1.693-1.397-1.953L17.017.95 11.033.947C7.742.945 4.825.955 4.55.969m10.417 1.448c0 .01-.038.11-.083.222-.206.507-.434 1.501-.539 2.344-.051.419-.06 1.057-.08 6.15-.013 3.126-.034 5.732-.048 5.792-.013.06-.037.108-.053.108-.086 0-.431-.189-.805-.442-.572-.385-.939-.604-1.159-.691a1.682 1.682 0 0 0-.837-.069c-.271.056-.553.212-1.763.975-1.185.748-1.207.761-1.278.761-.027 0-.482-.272-1.01-.605-1.756-1.104-1.792-1.122-2.194-1.153-.469-.035-.77.088-1.649.674-.502.334-.875.549-.957.55-.021 0-.049-.041-.064-.091-.043-.15-.058-11.067-.016-12.009.04-.91.103-1.308.261-1.645.128-.274.263-.422.497-.546.367-.195.764-.271 1.61-.308.629-.027 10.167-.043 10.167-.017m1.996.466c.308.626.58 1.85.612 2.75l.008.249-.15.023a11.88 11.88 0 0 1-.913.026l-.763.002.023-.341c.081-1.224.404-2.449.795-3.021l.1-.145.078.095c.043.053.137.216.21.362M5 5v.733h6.667V4.267H5V5m0 3.333v.734H6.667V7.6H5v.733m4.667.064c0 .044-.037.077-.114.102a1.97 1.97 0 0 0-.35.203c-.743.522-.98 1.44-.583 2.26.125.258.498.621.797.776.315.163.412.19.86.242.421.05.557.111.615.278.13.373-.569.593-.883.279l-.095-.095-.665.268c-.366.148-.672.274-.68.28-.026.02.095.243.232.428.149.202.401.401.68.538.122.06.186.112.186.151 0 .056.051.06.75.06.719 0 .75-.003.75-.065 0-.036.031-.074.071-.087.307-.097.783-.517.957-.844a1.87 1.87 0 0 0 .168-1.211c-.096-.458-.496-.964-.946-1.198-.316-.163-.412-.19-.867-.243-.423-.049-.528-.096-.613-.269-.041-.083-.039-.108.013-.205.066-.123.282-.245.432-.245a.66.66 0 0 1 .436.168l.087.091.672-.268c.37-.148.678-.273.685-.277a1.021 1.021 0 0 0-.097-.212c-.139-.262-.5-.604-.784-.744-.144-.071-.214-.125-.214-.165 0-.056-.053-.06-.75-.06-.718 0-.75.003-.75.064" fill-rule="evenodd" fill="#000"/></svg>