<svg width="20" height="20" fill="none" xmlns="http://www.w3.org/2000/svg"><path d="M9.39.988c-.585.106-1.04.288-3.223 1.294C3.136 3.677 2.456 4.079 2.05 4.715c-.35.547-.376 1.127-.076 1.692.268.506.848.952 1.97 1.515a155.75 155.75 0 0 0 4.189 1.934c.945.405 1.733.538 2.434.413.647-.116.984-.25 3.283-1.311 2.351-1.084 2.967-1.4 3.475-1.782.629-.473.936-1.026.9-1.623-.027-.464-.202-.827-.58-1.204-.461-.462-1.229-.878-3.812-2.067-2.222-1.024-2.636-1.189-3.251-1.296A3.753 3.753 0 0 0 9.39.988m1.369 1.573c.804.269 4.631 2.049 5.406 2.515.308.186.602.446.602.534 0 .091-.232.322-.5.5-.318.209-1.693.886-3.3 1.625C10.73 8.762 10.587 8.814 10 8.816c-.581.001-.721-.05-2.967-1.081-1.607-.739-2.982-1.416-3.3-1.625-.268-.178-.5-.409-.5-.5 0-.088.294-.348.602-.534.508-.305 2.443-1.233 4.365-2.093 1.412-.631 1.76-.689 2.559-.422M2.5 8.529c-.259.085-.407.222-.557.517-.24.473-.235.984.013 1.483.123.246.581.708.927.935.602.394 4.718 2.321 5.694 2.665.64.226.789.252 1.423.252.931 0 1.091-.054 3.938-1.348 1.408-.639 2.834-1.343 3.179-1.569.346-.227.804-.689.927-.935.297-.596.233-1.288-.163-1.759a.74.74 0 0 0-1.162.056c-.083.119-.103.184-.113.375-.012.2-.002.254.074.399.083.158.085.173.037.267-.132.255-1.047.748-3.25 1.751-2.176.991-2.545 1.146-2.977 1.249-.629.151-1.044.059-2.357-.525-3.31-1.471-4.696-2.179-4.85-2.475-.048-.094-.046-.109.037-.267.076-.145.086-.199.074-.399-.01-.191-.03-.256-.113-.375a.867.867 0 0 0-.239-.219c-.151-.083-.411-.121-.542-.078m.177 4.374c-.176.087-.565.493-.703.734-.373.652-.241 1.426.343 2.015.401.406.819.659 2.116 1.279.853.408 2.801 1.295 3.484 1.586 1.206.514 1.865.637 2.665.497.603-.105 1.118-.308 3.218-1.264 2.05-.934 3.011-1.412 3.433-1.709 1.136-.8 1.324-1.908.476-2.81-.298-.316-.451-.398-.746-.398-.182 0-.241.016-.37.098a.74.74 0 0 0-.326.804c.033.136.086.218.27.417.126.136.23.262.23.281 0 .073-.252.306-.51.471-.35.225-1.474.773-3.096 1.509-2.405 1.092-2.601 1.164-3.161 1.164s-.756-.072-3.161-1.164c-1.622-.736-2.746-1.284-3.096-1.509-.258-.165-.51-.398-.51-.471 0-.019.104-.145.23-.281.184-.199.237-.281.27-.417a.74.74 0 0 0-.326-.804c-.129-.082-.188-.098-.372-.098a.758.758 0 0 0-.358.07" fill-rule="evenodd" fill="#000"/></svg>