<svg width="20" height="20" fill="none" xmlns="http://www.w3.org/2000/svg"><path d="M9.6.967c-.203.042-.639.264-.883.449-.11.083-.484.425-.831.759-.346.335-.661.631-.7.658-.056.04-.306.057-1.269.089-1.023.034-1.24.05-1.467.109-.394.102-.667.251-.919.502-.252.249-.395.512-.499.917-.076.294-.128 1.13-.131 2.067-.001.399-.014.556-.05.626-.027.051-.326.381-.666.733s-.698.748-.795.879c-.509.685-.596 1.381-.258 2.062.187.376.35.578 1.053 1.307.34.352.639.682.666.733.036.07.049.227.05.626.005 1.907.127 2.486.63 2.984.253.251.525.4.919.502.228.059.43.074 1.383.102.615.017 1.167.039 1.228.049.087.014.23.133.683.571.911.88 1.162 1.075 1.63 1.27.185.076.256.087.609.088.364.001.423-.008.646-.095.393-.154.693-.383 1.453-1.107.393-.374.749-.694.791-.71.043-.016.52-.039 1.061-.052 1.009-.023 1.352-.051 1.689-.137a1.838 1.838 0 0 0 1.286-1.198c.111-.351.128-.534.156-1.655.021-.807.042-1.179.071-1.233.023-.042.345-.396.716-.786.696-.729.954-1.064 1.082-1.399.112-.295.153-.632.11-.919-.085-.573-.29-.888-1.171-1.81-.361-.378-.684-.73-.717-.783-.055-.087-.065-.221-.09-1.256-.029-1.125-.046-1.308-.157-1.659a1.832 1.832 0 0 0-1.286-1.198c-.34-.087-.684-.115-1.656-.135a20.817 20.817 0 0 1-1.046-.039c-.067-.013-.322-.234-.831-.719-1.037-.99-1.367-1.189-2.007-1.211A2.73 2.73 0 0 0 9.6.967m.597 1.506c.095.046.361.277.703.61 1.001.974 1.168 1.1 1.632 1.224.217.058.406.071 1.401.093 1.24.028 1.392.048 1.508.203.112.151.131.326.158 1.497.04 1.702.025 1.666 1.209 2.892.685.709.816.889.776 1.072-.034.157-.185.339-.827.998-1.122 1.154-1.119 1.147-1.158 2.838-.028 1.172-.046 1.346-.158 1.497-.116.155-.268.175-1.508.203-1.742.039-1.699.021-2.953 1.236-.677.655-.862.788-1.043.748-.161-.035-.361-.201-1.114-.92-1.08-1.032-1.057-1.023-2.756-1.064-1.197-.028-1.376-.05-1.495-.178-.125-.136-.145-.306-.174-1.489-.041-1.703-.031-1.678-1.062-2.755C2.614 10.423 2.4 10.154 2.4 10c0-.155.215-.425.936-1.178C4.367 7.745 4.357 7.77 4.398 6.067c.029-1.183.049-1.353.174-1.489.119-.128.298-.15 1.495-.178 1.283-.031 1.413-.049 1.813-.259.175-.092.353-.237.686-.558.884-.851 1.093-1.039 1.237-1.11.182-.09.207-.09.394 0m-.58 3.898C8.378 6.488 7.235 7.3 6.7 8.443c-.275.586-.379 1.191-.326 1.902.091 1.228.873 2.366 2.009 2.924a3.642 3.642 0 0 0 4.199-.687 3.637 3.637 0 0 0 1.002-1.865c.076-.36.076-1.074 0-1.434-.298-1.405-1.325-2.482-2.701-2.83-.166-.042-.894-.13-.95-.115-.009.002-.151.017-.316.033m.924 1.527a2.185 2.185 0 0 1 1.44 1.208c.142.31.186.522.186.894s-.044.584-.185.892a2.138 2.138 0 0 1-2.094 1.266c-.582-.03-1.004-.217-1.413-.629-.419-.42-.603-.834-.633-1.417-.037-.725.219-1.304.792-1.793.502-.428 1.241-.592 1.907-.421" fill-rule="evenodd" fill="#000"/></svg>