<svg width="20" height="20" fill="none" xmlns="http://www.w3.org/2000/svg"><path d="M8.014 1.828a.807.807 0 0 0-.234.183c-.058.07-.441.902-.929 2.021L6.02 5.933l-1.768.001c-.973 0-1.851.013-1.952.03-.615.101-1.096.492-1.29 1.046-.105.301-.084.897.052 1.512.168.755.238.861.805 1.223.35.223.35.226.68 2.122.154.889.329 1.916.388 2.283.259 1.606.574 2.387 1.232 3.049.453.456.905.698 1.589.851.653.146.898.157 3.711.174 2.767.017 3.886-.011 4.46-.109 1.244-.213 2.007-.755 2.531-1.798.274-.546.457-1.219.626-2.3.151-.974.616-3.626.666-3.8.064-.223.21-.391.464-.533.251-.141.429-.307.521-.487.09-.177.256-.884.305-1.299.089-.76-.124-1.305-.645-1.651-.437-.291-.454-.293-1.996-.306l-1.351-.012-.961-1.923c-.741-1.481-.99-1.95-1.085-2.041-.367-.351-.992-.215-1.19.259a.924.924 0 0 0-.045.29c0 .173.047.277.8 1.785.44.881.8 1.609.8 1.618 0 .009-.889.017-1.975.017-1.845.001-1.984.005-2.109.062a.683.683 0 0 0-.429.671c0 .317.142.539.429.67.127.059.325.062 4.123.062 2.537.001 4.021.013 4.076.034.048.018.096.057.107.086.02.053-.113.815-.152.871a2.389 2.389 0 0 1-.247.189 2.43 2.43 0 0 0-.904 1.371c-.056.258-.52 2.932-.684 3.941-.17 1.046-.34 1.606-.609 2.008-.261.388-.551.578-1.069.701-.506.12-.845.136-3.257.155-4.288.034-4.95-.043-5.493-.637-.407-.445-.601-1.04-.84-2.568-.198-1.274-.632-3.668-.7-3.864a2.344 2.344 0 0 0-.767-1.053 4.923 4.923 0 0 1-.264-.202c-.066-.06-.176-.529-.182-.778-.004-.146.006-.171.079-.209.064-.033.406-.043 1.475-.044.765 0 1.392.005 1.392.012 0 .006-.143.338-.317.736-.174.398-.334.79-.354.871a.723.723 0 0 0 .381.797c.389.194.803.05 1.005-.349.042-.083.726-1.635 1.52-3.45 1.613-3.686 1.55-3.51 1.375-3.85-.131-.256-.311-.372-.606-.39-.169-.01-.253.002-.357.051m.058 7.474a.805.805 0 0 0-.365.31c-.077.119-.09.173-.09.388 0 .216.013.269.092.391.05.078.155.183.233.234l.141.092 1.85.01c1.201.007 1.891-.002 1.967-.024a.81.81 0 0 0 .437-.384c.131-.288.053-.676-.174-.867-.225-.19-.174-.186-2.17-.183-1.072.001-1.876.015-1.921.033" fill-rule="evenodd" fill="#000"/></svg>