<svg width="20" height="20" fill="none" xmlns="http://www.w3.org/2000/svg"><path d="M9.267.956c-.361.027-1.115.152-1.482.245a9.074 9.074 0 0 0-.646 17.411c1.59.53 3.412.597 5.061.188a9.066 9.066 0 0 0 6.585-6.555c.202-.787.26-1.284.262-2.228.001-1.156-.109-1.869-.448-2.888-1.057-3.18-3.811-5.537-7.099-6.076A10.747 10.747 0 0 0 9.267.956M11.1 2.485a7.76 7.76 0 0 1 3.516 1.492c.381.287 1.164 1.081 1.458 1.478a7.692 7.692 0 0 1 1.445 3.495c.082.548.082 1.552 0 2.1a7.692 7.692 0 0 1-1.445 3.495c-.294.397-1.077 1.191-1.458 1.478-1.668 1.258-3.697 1.787-5.716 1.49a7.647 7.647 0 0 1-6.131-5.193c-.258-.808-.35-1.416-.35-2.32 0-.904.092-1.512.35-2.32a7.72 7.72 0 0 1 3.064-4.028 9.523 9.523 0 0 1 1.504-.764 8.816 8.816 0 0 1 2.096-.468c.296-.027 1.323.013 1.667.065m-1.417 3.51a.897.897 0 0 0-.223.159c-.192.205-.193.22-.193 1.728v1.385H7.875c-1.283.001-1.402.006-1.525.063-.468.216-.567.891-.18 1.218.221.186.215.185 1.712.185h1.385v1.392c.001 1.554.002 1.558.237 1.756.177.15.319.196.548.177a.723.723 0 0 0 .573-.333l.092-.142.009-1.423.01-1.424 1.424-.01 1.423-.009.142-.092a.96.96 0 0 0 .233-.234c.079-.122.091-.175.091-.391 0-.216-.012-.269-.091-.391a.96.96 0 0 0-.233-.234l-.142-.092-1.423-.009-1.424-.009-.01-1.424-.009-1.424-.092-.142a.698.698 0 0 0-.592-.333c-.161-.008-.25.005-.35.053" fill-rule="evenodd" fill="#000"/></svg>