<svg width="20" height="20" fill="none" xmlns="http://www.w3.org/2000/svg"><path d="M7.207.984a2.231 2.231 0 0 0-1.393 1.02c-.116.191-.117.192-.307.211-.841.087-1.337.215-1.789.464-.806.441-1.263 1.184-1.433 2.332-.087.583-.117 2.049-.117 5.606 0 3.556.03 5.022.117 5.606.237 1.596 1.047 2.448 2.576 2.712.687.118 1.609.138 5.672.122 3.959-.016 4.141-.022 4.789-.157 1.172-.243 1.94-.936 2.255-2.035.223-.778.238-1.17.238-6.248 0-4.635-.013-5.16-.146-5.846-.241-1.241-.885-2-1.99-2.349-.245-.077-.658-.149-1.183-.205l-.187-.021-.172-.263a2.323 2.323 0 0 0-1.17-.909c-.216-.073-.227-.074-2.884-.08-2.165-.005-2.706.002-2.876.04m5.397 1.509c.426.223.529.744.218 1.098-.222.253-.079.241-2.822.241s-2.6.012-2.822-.241c-.311-.354-.208-.875.218-1.098l.178-.093h4.852l.178.093M5.6 3.756c0 .031.062.184.138.34.111.231.193.34.426.573.235.236.341.314.571.423.489.233.365.225 3.265.225 2.9 0 2.776.008 3.265-.225.23-.109.336-.187.571-.423.233-.233.315-.342.426-.573.076-.156.138-.311.138-.344 0-.054.022-.057.225-.036.928.1 1.364.425 1.555 1.158.132.51.137.702.137 5.743s-.005 5.233-.137 5.741c-.115.441-.341.767-.638.921-.204.105-.68.219-1.098.261-.608.062-8.273.062-8.877.001-1.265-.129-1.628-.434-1.825-1.53-.054-.304-.059-.699-.059-5.361 0-5.24.001-5.257.139-5.8.108-.425.345-.747.673-.914.191-.098.71-.218.997-.231.081-.004.108.009.108.051m8.564 3.122c-.598.261-1.279.854-1.984 1.727l-.126.156-.102-.077a1.169 1.169 0 0 0-.609-.243c-.272-.022-.462.049-.637.239-.345.374-.204.959.283 1.174.18.08.227.132.476.53a.722.722 0 0 0 1.113.156c.052-.05.183-.218.29-.373.47-.684 1.12-1.412 1.525-1.71.116-.084.318-.206.45-.271.168-.082.267-.155.329-.244.278-.399.144-.914-.289-1.113-.206-.094-.425-.079-.719.049m-9.047.785c-.287.131-.429.353-.429.67 0 .317.142.539.429.671.124.057.259.061 1.959.062 1.993.001 1.962.003 2.169-.193a.744.744 0 0 0-.219-1.221c-.107-.045-.373-.052-1.95-.051-1.7 0-1.835.005-1.959.062m9.047 4.215c-.598.261-1.279.854-1.984 1.727l-.126.156-.102-.077a1.169 1.169 0 0 0-.609-.243c-.272-.022-.462.049-.637.239-.345.374-.204.959.283 1.174.18.08.227.132.476.53a.722.722 0 0 0 1.113.156c.052-.05.183-.218.29-.373.47-.684 1.12-1.412 1.525-1.71.116-.084.318-.206.45-.271.168-.082.267-.155.329-.244.278-.399.144-.914-.289-1.113-.206-.094-.425-.079-.719.049m-9.047.785c-.287.131-.429.353-.429.67 0 .317.142.539.429.671.124.057.259.061 1.959.062 1.577.001 1.843-.006 1.95-.051a.745.745 0 0 0 .219-1.222c-.207-.196-.176-.193-2.169-.192-1.7 0-1.835.005-1.959.062" fill-rule="evenodd" fill="#000"/></svg>