<svg width="20" height="20" fill="none" xmlns="http://www.w3.org/2000/svg"><path d="M9.067 1.789c-.763.12-2.576.661-3.384 1.009-2.113.911-3.336 2.254-3.777 4.152-.119.51-.139.954-.139 3.053 0 2.096.019 2.523.14 3.047.433 1.889 1.666 3.244 3.776 4.152.68.293 2.032.715 2.985.934 1.501.343 3.091-.264 3.932-1.503a3.871 3.871 0 0 0 .623-1.773c.025-.357-.031-.533-.227-.709-.168-.153-.266-.19-.499-.191a.71.71 0 0 0-.557.254c-.116.132-.145.225-.218.7a2.163 2.163 0 0 1-.981 1.489c-.335.22-.81.364-1.198.364-.277 0-1.575-.322-2.376-.59-2.214-.739-3.362-1.746-3.784-3.318-.116-.43-.149-1.066-.149-2.859s.033-2.429.149-2.859c.422-1.572 1.569-2.578 3.784-3.318A23.452 23.452 0 0 1 9.1 3.297c.772-.158 1.439.042 2.003.602.375.373.545.698.619 1.187.073.475.102.568.218.7a.681.681 0 0 0 .557.247c.246 0 .33-.031.499-.184.196-.176.252-.352.227-.709a3.871 3.871 0 0 0-.623-1.773c-.677-.997-1.869-1.612-3.096-1.596a5.888 5.888 0 0 0-.437.018m6.2 5.409c-.237.047-.404.182-.532.429a.853.853 0 0 0-.041.286c-.002.36.062.44.854 1.073l.33.264-3.9.017-3.9.016-.139.092a.965.965 0 0 0-.23.234c-.079.122-.092.175-.092.391 0 .216.013.269.092.391.05.078.155.183.233.234l.141.092 3.898.016 3.897.017-.33.264c-.792.633-.856.713-.854 1.073.001.216.026.29.162.472.187.25.629.333.906.17.251-.148 1.453-1.144 1.788-1.481.912-.919.912-1.578 0-2.499-.33-.333-1.539-1.334-1.777-1.47a.775.775 0 0 0-.506-.081" fill-rule="evenodd" fill="#000"/></svg>