<svg width="20" height="20" fill="none" xmlns="http://www.w3.org/2000/svg"><path d="M2.075 1.818c-.263.071-.434.17-.652.378a1.418 1.418 0 0 0-.427.675c-.06.194-.063.42-.063 6.264v6.062l.68 1.36c.373.748.718 1.402.766 1.453.284.304.804.292 1.082-.025.061-.07.405-.716.766-1.441l.656-1.315.009-6.022c.006-3.976-.003-6.085-.025-6.206-.099-.535-.579-1.044-1.116-1.183-.266-.069-1.42-.069-1.676 0m6.832-.014c-1.296.083-2.085.487-2.537 1.299-.237.426-.352.924-.405 1.759-.052.801-.024 10.425.03 10.788.239 1.593.983 2.323 2.572 2.52.174.022.624.041 1 .043l.683.004.141-.092a.715.715 0 0 0 .333-.573.558.558 0 0 0-.08-.385.765.765 0 0 0-.237-.282c-.142-.098-.149-.1-.75-.125-1.156-.048-1.531-.124-1.803-.364-.217-.19-.315-.435-.394-.979-.063-.438-.063-10.396 0-10.834.151-1.039.431-1.244 1.802-1.317.772-.041 4.811-.041 5.621 0 1.118.057 1.493.215 1.677.708.171.455.204 1.1.206 4.026.002 2.038.006 2.192.063 2.317.236.52.979.562 1.296.074l.092-.141-.001-2.717c0-2.844-.011-3.113-.151-3.698-.126-.529-.373-.976-.713-1.295-.498-.466-1.103-.67-2.185-.738-.649-.041-5.609-.039-6.26.002M3.393 3.273c.029.029.04.283.04.934V5.1H2.4v-.893c0-.651.011-.905.04-.934.056-.055.898-.055.953 0M9.675 5.17c-.28.139-.423.393-.402.717a.699.699 0 0 0 .333.571l.139.092h4.677l.138-.092a.956.956 0 0 0 .231-.231c.081-.121.092-.171.092-.394 0-.222-.011-.272-.092-.393a.952.952 0 0 0-.23-.231l-.139-.092-2.303-.009c-2.285-.009-2.303-.008-2.444.062m-6.242 5.514v4.117l-.25.499c-.137.275-.257.5-.266.5a5.71 5.71 0 0 1-.267-.5l-.25-.499V6.567h1.033v4.117m6.242-2.181c-.28.14-.423.393-.402.717a.699.699 0 0 0 .333.571l.139.092h4.677l.138-.092a.939.939 0 0 0 .231-.231c.081-.121.092-.171.092-.393 0-.223-.011-.273-.092-.394a.97.97 0 0 0-.23-.231l-.139-.092-2.303-.009c-2.285-.008-2.303-.008-2.444.062m8.175 3.417c-1.585.812-3.067 2.231-4.068 3.897l-.21.35-.178-.152c-.521-.446-1.32-.878-1.674-.906a.721.721 0 0 0-.742.448.84.84 0 0 0 .025.599c.067.14.275.344.348.344.068 0 .598.288.829.451.291.204.654.562.886.874.134.18.222.263.347.325a.726.726 0 0 0 .83-.109c.051-.049.212-.33.358-.623.91-1.838 2.249-3.275 3.864-4.149.385-.209.424-.242.523-.452a.731.731 0 0 0-.418-1.012c-.227-.077-.399-.049-.72.115" fill-rule="evenodd" fill="#000"/></svg>