<svg width="20" height="20" fill="none" xmlns="http://www.w3.org/2000/svg"><path d="M4.589.986c-1.053.191-2.032 1.216-2.327 2.436l-.071.295.006 5.666c.004 3.251.02 5.799.038 5.976.109 1.072.488 1.904 1.18 2.591.596.591 1.213.908 2.047 1.051.361.063.559.066 4.5.066 3.488-.001 4.168-.008 4.427-.05 1.615-.262 2.937-1.484 3.311-3.06.116-.487.132-.992.133-4.057 0-3.09-.02-3.718-.133-4.18-.256-1.047-1.02-1.697-2.087-1.776l-.27-.02-.021-.454a4.05 4.05 0 0 0-.069-.632 2.015 2.015 0 0 0-1.291-1.351l-.279-.09-3.852.01-3.853.01-.137.091a.696.696 0 0 0-.316.604c0 .315.127.526.408.676.112.059.287.063 3.85.079l3.734.016.112.08c.162.116.204.248.204.637v.335l-4.308-.011c-4.598-.012-4.43-.006-4.818-.177-.359-.158-.839-.735-.973-1.169-.183-.593.004-1.228.52-1.765.132-.138.272-.245.4-.304l.196-.092 5.4-.017c5.961-.018 5.481 0 5.688-.222a.664.664 0 0 0 .195-.511.69.69 0 0 0-.222-.54c-.218-.207.175-.194-5.702-.191-4.466.003-5.403.011-5.62.05m-.19 6.23c.545.186.488.184 6.005.185 5.41 0 5.344-.002 5.558.157.141.104.268.342.322.603.044.21.05.719.041 3.783-.012 3.965.007 3.664-.26 4.206a2.77 2.77 0 0 1-.744.896 2.465 2.465 0 0 1-.904.46l-.267.077H5.783l-.266-.077c-.866-.25-1.439-.832-1.702-1.729-.132-.448-.146-.93-.147-5.117l-.001-3.791.245.133c.135.073.354.169.487.214m2.784 2.906c-.653.344-.495 1.308.228 1.394.095.012 1.327.017 2.739.011 2.315-.009 2.577-.016 2.667-.066.549-.3.554-1.051.009-1.331-.118-.061-.231-.063-2.833-.062-2.403.001-2.721.007-2.81.054m0 3.333c-.653.344-.495 1.307.228 1.395.095.012.765.016 1.489.011 1.15-.01 1.329-.018 1.417-.066.549-.301.554-1.051.009-1.331-.116-.06-.211-.064-1.583-.063-1.264.001-1.473.009-1.56.054" fill-rule="evenodd" fill="#000"/></svg>