<svg width="20" height="20" fill="none" xmlns="http://www.w3.org/2000/svg"><path d="M15.727 2.664c-.318.102-.488.226-1.029.752-.631.614-.897.838-1.096.925-.323.141-1.035.364-4.402 1.374L5.717 6.76l-.984.016c-1.096.018-1.221.037-1.648.245A2.36 2.36 0 0 0 1.841 8.56c-.085.332-.085 2.548 0 2.88a2.36 2.36 0 0 0 1.244 1.539c.422.206.55.225 1.698.251.569.013 1.06.036 1.092.051.054.024.058.107.058 1.037 0 1.161.024 1.342.235 1.765A2.386 2.386 0 0 0 7.55 17.29c.238.08.316.09.733.09.425.001.491-.007.734-.091.362-.126.693-.327.936-.57.126-.126.407-.509.743-1.012.417-.625.553-.807.597-.794 1.045.305 2.026.622 2.309.746.199.087.465.311 1.096.925.742.721.934.816 1.647.816.757-.001 1.054-.098 1.422-.466.25-.25.381-.493.431-.804.048-.296.048-11.964 0-12.26-.05-.311-.181-.554-.431-.804-.37-.37-.666-.467-1.415-.464-.326.001-.483.017-.625.062m1 1.443c.058.058.058 11.728 0 11.786-.025.025-.144.04-.305.04h-.265l-.554-.542c-.757-.741-1.083-.974-1.72-1.227-.11-.044-1.797-.56-3.75-1.147l-3.55-1.067v-3.9l3.55-1.067c1.953-.587 3.64-1.103 3.75-1.147.638-.254.966-.488 1.717-1.226l.55-.541.268-.001c.166-.001.284.014.309.039M5.1 10.005v1.772l-.558-.021a5.282 5.282 0 0 1-.672-.054.925.925 0 0 1-.573-.572c-.051-.166-.078-1.554-.037-1.951.038-.371.083-.486.258-.661.226-.227.415-.271 1.19-.28l.392-.005v1.772m3.498 4.098c.615.185 1.125.342 1.133.35.027.027-.764 1.174-.872 1.265a.861.861 0 0 1-1.161-.04c-.267-.249-.298-.376-.298-1.213 0-.513.01-.698.039-.698.022 0 .543.151 1.159.336" fill-rule="evenodd" fill="#000"/></svg>