<svg width="20" height="20" fill="none" xmlns="http://www.w3.org/2000/svg"><path d="m9.267.953-.434.049a9.902 9.902 0 0 0-1.533.32C3.949 2.331 1.524 5.062 1.016 8.4c-.075.493-.101 1.495-.052 2.019a8.166 8.166 0 0 0 .884 3.031 8.306 8.306 0 0 0 1.404 2.017c.409.443.432.514.313.947-.133.485-.264.755-.612 1.262-.19.276-.202.305-.214.521-.014.256.039.409.197.567.147.148.291.197.732.252 1.3.16 2.464-.059 3.722-.704l.406-.208.36.066c.924.167 2.052.212 2.911.116 3.61-.406 6.629-2.862 7.644-6.219.252-.835.338-1.464.337-2.45-.001-1.18-.145-1.966-.552-3.017a8.61 8.61 0 0 0-1.946-2.983c-1.393-1.394-3.163-2.28-5.167-2.588C10.97.965 9.59.916 9.267.953m1.4 1.481c2.69.239 5.034 1.799 6.196 4.124 1.129 2.259.931 4.925-.522 7.042a7.775 7.775 0 0 1-2.258 2.135 8.965 8.965 0 0 1-1.608.731c-1.331.437-2.538.512-4.055.249-.799-.138-.911-.12-1.701.275a7.708 7.708 0 0 1-.839.362c-.34.111-.837.214-1.035.215H4.74l.097-.248c.326-.84.351-1.548.075-2.095-.132-.263-.248-.419-.565-.762-1.114-1.207-1.754-2.608-1.912-4.191-.308-3.068 1.592-6.082 4.593-7.286.792-.317 1.43-.465 2.439-.563.263-.026.84-.02 1.2.012m-1.2 3.547c-1.054.223-1.864 1.157-1.866 2.152-.001.249.044.393.171.546.277.337.827.342 1.118.01.109-.123.142-.216.206-.57a.772.772 0 0 1 .354-.546c.734-.486 1.754.192 1.403.933a3.621 3.621 0 0 1-.347.461c-.575.679-.841 1.04-.991 1.348-.199.41-.257.696-.242 1.202.011.368.019.411.103.541.129.2.323.314.572.334a.665.665 0 0 0 .548-.177c.178-.15.236-.315.237-.672.001-.497.068-.626.748-1.424.451-.53.571-.697.703-.97a2.216 2.216 0 0 0-.041-1.992c-.159-.301-.542-.695-.86-.882-.387-.228-.696-.314-1.183-.328a2.918 2.918 0 0 0-.633.034m.323 7.066a.739.739 0 0 0-.522.703c0 .467.434.813.895.714a.73.73 0 0 0 .465-.321c.115-.167.141-.508.054-.691a.751.751 0 0 0-.892-.405" fill-rule="evenodd" fill="#000"/></svg>