<svg width="20" height="20" fill="none" xmlns="http://www.w3.org/2000/svg"><path d="M5.85.954c-1.928.085-2.946.402-3.712 1.154-.684.672-.992 1.482-1.145 3.009-.061.615-.061 5.818 0 6.433.153 1.524.463 2.338 1.145 3.008.683.672 1.557.991 3.036 1.11.857.069 1.068.018 1.284-.308.079-.119.092-.172.092-.377 0-.207-.013-.259-.101-.402-.167-.27-.288-.316-.962-.37-1.345-.107-1.932-.301-2.372-.783-.427-.469-.612-1.184-.681-2.628-.043-.887-.043-4.092 0-4.95.112-2.272.543-2.967 2.025-3.269.751-.153 1.141-.164 5.558-.164 4.252 0 4.726.012 5.399.137 1.356.253 1.874.831 2.068 2.305.155 1.182.155 5.766 0 6.948-.189 1.44-.677 2.012-1.946 2.281a2.64 2.64 0 0 0-.51.152c-.313.176-.444.634-.276.963a.974.974 0 0 0 .432.364c.17.056.485.024.956-.098 1.473-.38 2.334-1.254 2.676-2.718.196-.835.25-1.787.25-4.434 0-2.616-.054-3.566-.25-4.402-.379-1.62-1.388-2.522-3.149-2.816-.83-.138-.976-.142-5.35-.149A575.984 575.984 0 0 0 5.85.954m-.232 4.17c-.131.034-.32.18-.409.318-.079.122-.092.175-.092.391 0 .216.013.269.092.392.05.077.154.182.23.233l.139.092 4.353.01c3.071.007 4.389-.001 4.478-.027a.786.786 0 0 0 .247-.143c.323-.283.327-.835.007-1.105-.233-.196.043-.185-4.654-.181-2.379.002-4.355.011-4.391.02m3.91 4.175a2.844 2.844 0 0 0-2.096 1.609c-.198.423-.244.679-.243 1.342a10.45 10.45 0 0 0 1.338 5.158c.304.542.869 1.388 1.004 1.502.282.237.784.197 1.018-.082.047-.055.294-.518.551-1.029l.466-.928 1.109.634a36.81 36.81 0 0 0 1.221.681.734.734 0 0 0 .924-.365.737.737 0 0 0-.12-.831c-.334-.385-.61-.939-1.07-2.152-.247-.654-1.061-.726-1.371-.122-.085.166-.089.41-.01.647a.56.56 0 0 1 .043.19c-.008.008-.193-.087-.411-.211-.387-.22-.402-.225-.633-.225-.204 0-.259.013-.401.1-.159.097-.176.124-.551.864l-.387.763-.157-.289a9.556 9.556 0 0 1-.742-1.809c.004-.005.112.023.24.061.189.056.328.07.733.072.583.003.769-.037 1.236-.262.999-.482 1.586-1.419 1.586-2.534 0-.711-.22-1.309-.685-1.862-.299-.356-.918-.74-1.403-.871-.232-.062-.959-.094-1.189-.051m.707 1.468c.422.08.79.367.978.765.094.199.104.248.104.551 0 .304-.01.353-.104.552a1.333 1.333 0 0 1-2.328.182 1.212 1.212 0 0 1-.218-.734c0-.29.062-.498.216-.731a1.32 1.32 0 0 1 1.352-.585" fill-rule="evenodd" fill="#000"/></svg>