<svg width="20" height="20" fill="none" xmlns="http://www.w3.org/2000/svg"><path d="M9.617.991a1.446 1.446 0 0 0-.622.453c-.075.095-.288.476-.473.846l-.336.673-.235.038c-1.15.188-1.386.27-1.684.585a1.07 1.07 0 0 0-.325.752c-.033.502.128.796.82 1.504l.449.459-.126.541c-.145.619-.178.969-.119 1.266.076.386.298.687.629.85.169.083.223.092.522.09.425-.003.586-.063 1.308-.494.296-.177.552-.321.57-.321.017 0 .262.138.543.306.776.462 1.013.548 1.44.521.696-.046 1.143-.638 1.076-1.427a7.128 7.128 0 0 0-.138-.746 7.473 7.473 0 0 1-.116-.551c0-.03.216-.282.48-.558.531-.556.617-.674.722-.984.227-.669-.18-1.378-.919-1.599a24.799 24.799 0 0 0-1.26-.228c-.014 0-.151-.26-.303-.578a10.781 10.781 0 0 0-.398-.767 1.61 1.61 0 0 0-.617-.575c-.249-.12-.642-.144-.888-.056m.669 2.247c.456.912.685 1.093 1.547 1.229.248.039.471.077.497.086.03.01-.085.149-.323.393-.418.428-.548.613-.642.916-.089.288-.081.509.035 1.036.055.246.094.453.087.459a3.252 3.252 0 0 1-.387-.21c-.574-.339-.697-.387-1.029-.404-.384-.021-.58.044-1.121.37-.234.141-.432.249-.441.24-.009-.009.023-.186.072-.393.122-.516.137-.729.073-1.002-.083-.35-.165-.476-.614-.934-.239-.244-.405-.438-.387-.454.017-.015.203-.054.414-.087.653-.101.952-.229 1.215-.519.065-.073.25-.394.41-.715.16-.32.294-.582.299-.582.005 0 .137.257.295.571m-1.619 6.896c-.966.093-1.596.593-1.789 1.417l-.055.232-1.166-.01c-1.571-.014-1.973.031-2.474.275-.376.184-.658.507-.823.946-.151.403-.164.585-.183 2.648L2.159 17.6l-.338.001c-.377.001-.536.051-.694.22-.275.293-.254.81.043 1.06.238.201-.411.187 8.797.187 4.657 0 8.508-.01 8.558-.023a.801.801 0 0 0 .433-.32c.079-.123.091-.176.091-.392 0-.216-.012-.269-.091-.391a.938.938 0 0 0-.233-.233c-.129-.084-.174-.093-.511-.103l-.37-.011-.022-1.089c-.012-.599-.037-1.187-.056-1.306-.116-.738-.423-1.219-.946-1.481-.488-.244-.86-.288-2.42-.285l-1.15.003-.022-.76c-.034-1.168-.155-1.576-.596-2.009-.317-.311-.725-.474-1.332-.535-.364-.036-2.26-.036-2.633.001M11.09 11.6c.38.034.51.084.572.22.085.187.106.906.097 3.313l-.009 2.45h-3.5l-.009-2.45c-.01-2.476.012-3.145.106-3.327.065-.126.195-.177.529-.206.406-.035 1.824-.036 2.214 0m-4.368 1.678c.016.015.028.99.028 2.166v2.139l-1.543.009-1.543.009.01-1.976c.009-1.832.014-1.985.071-2.115.072-.166.173-.21.555-.246.344-.032 2.388-.021 2.422.014m9.275 1.694c.306.095.336.241.336 1.62v1.009l-1.541-.009-1.542-.009-.01-.85a29.185 29.185 0 0 1 .011-1.323l.022-.473.122-.015c.067-.008.647-.011 1.288-.005.875.007 1.204.02 1.314.055" fill-rule="evenodd" fill="#000"/></svg>