<svg width="20" height="20" fill="none" xmlns="http://www.w3.org/2000/svg"><path d="M1.35.996a.715.715 0 0 0-.417.671c0 .283.117.488.366.643l.118.073 6.733.019c5.148.014 6.784.028 6.95.059.119.023.295.079.39.125.145.07.187.112.257.257.166.347.17.445.17 4.657s-.004 4.31-.17 4.657a.435.435 0 0 1-.257.257c-.334.161-.369.163-4.423.183-4.206.022-3.898.005-4.107.225-.275.29-.254.809.044 1.059.231.195.026.186 3.887.186 3.677 0 4.238-.016 4.738-.135.827-.196 1.349-.686 1.597-1.499.156-.511.157-.565.157-4.966 0-3.802-.005-4.177-.058-4.474-.21-1.168-.772-1.746-1.926-1.981C15.138.959 14.591.954 8.3.944 1.697.934 1.479.935 1.35.996m1.667 2.038a2.252 2.252 0 0 0-1.32.624c-.513.484-.764 1.061-.764 1.759 0 .706.254 1.283.78 1.772.464.432.949.616 1.62.616.717 0 1.193-.197 1.702-.706.236-.236.312-.339.44-.6.344-.7.346-1.459.007-2.149a2.512 2.512 0 0 0-1.153-1.132c-.348-.159-.876-.233-1.312-.184m.754 1.574a.908.908 0 0 1 .474.809c0 .345-.166.626-.478.811-.131.077-.186.089-.434.088-.339 0-.485-.064-.696-.303a.884.884 0 0 1 0-1.193c.22-.249.4-.323.751-.308.183.008.272.031.383.096m4.375.096c-.173.04-.404.236-.483.411a.8.8 0 0 0 0 .604c.088.195.308.37.518.414.117.024 1.008.033 2.754.026 2.836-.01 2.698 0 2.911-.213a.753.753 0 0 0 0-1.059c-.213-.213-.07-.203-2.946-.209-1.53-.003-2.673.008-2.754.026M2.219 8.487c-.684.124-1.116.558-1.238 1.244-.037.203-.045 1.085-.046 4.519 0 4.069.003 4.273.061 4.401a.71.71 0 0 0 .723.407.72.72 0 0 0 .572-.333l.092-.142.01-1.841.009-1.842H4.267v1.808c.001 2.02-.004 1.97.237 2.173.177.15.319.196.548.177a.723.723 0 0 0 .573-.333l.092-.142.008-4.34.009-4.341 2.258-.009 2.258-.01.141-.092a.921.921 0 0 0 .233-.233c.08-.122.092-.175.092-.391 0-.216-.012-.269-.092-.392a.979.979 0 0 0-.23-.233l-.139-.092-3.886-.006c-3.249-.004-3.929.003-4.15.043m2.048 3.18v1.766H2.4v-1.595c0-.877.009-1.664.021-1.748.026-.187-.035-.177 1.054-.184l.792-.006v1.767" fill-rule="evenodd" fill="#000"/></svg>