<svg width="20" height="20" fill="none" xmlns="http://www.w3.org/2000/svg"><path d="M2.985.97c-.603.09-1.162.395-1.504.821-.187.233-.425.719-.486.992-.064.284-.064 2.483 0 2.767.061.274.299.76.486.993.288.358.794.666 1.282.781.233.054.483.059 3.07.059 3.17 0 3.082.006 3.593-.251a2.264 2.264 0 0 0 1.039-1.039c.231-.457.252-.618.252-1.926 0-1.309-.021-1.468-.251-1.927a2.338 2.338 0 0 0-1.495-1.216C8.721.953 8.673.952 5.95.946 4.428.943 3.094.953 2.985.97M14.651.969c-.81.124-1.425.562-1.783 1.271-.257.511-.251.423-.251 3.593 0 3.169-.006 3.081.251 3.593.313.624.88 1.071 1.562 1.231.217.051.416.06 1.403.06 1.287 0 1.452-.021 1.887-.23.728-.352 1.176-.962 1.3-1.77.067-.437.067-5.331 0-5.767-.147-.958-.779-1.668-1.715-1.924-.231-.064-.357-.071-1.355-.079-.605-.005-1.189.005-1.299.022m-5.9 1.548a.897.897 0 0 1 .455.526c.029.098.041.44.041 1.124 0 .684-.012 1.026-.041 1.123a.894.894 0 0 1-.455.526l-.196.101H5.836c-2.695 0-2.721-.001-2.871-.071a.913.913 0 0 1-.469-.454c-.078-.173-.079-.191-.079-1.225 0-1.026.001-1.054.076-1.217.15-.324.378-.481.757-.519.128-.013 1.374-.021 2.769-.019l2.536.005.196.1m8.284-.027a.896.896 0 0 1 .469.451l.079.176V8.55l-.093.19a.863.863 0 0 1-.457.44c-.142.066-.205.07-1.202.07h-1.052l-.197-.1a.906.906 0 0 1-.456-.526c-.061-.201-.062-5.377-.001-5.577a.92.92 0 0 1 .396-.501c.21-.124.43-.143 1.496-.132.784.008.882.016 1.018.076M3.4 9.3c-1.051.087-1.682.413-2.067 1.067-.151.255-.247.536-.326.95-.051.266-.057.578-.057 2.816 0 1.939.01 2.582.045 2.8.155.984.579 1.575 1.35 1.881.582.232 1.094.263 3.885.243 1.839-.014 2.232-.025 2.47-.071.617-.119.984-.294 1.318-.632.438-.443.62-.948.685-1.902.048-.706.022-4.702-.033-5.035-.174-1.063-.654-1.682-1.52-1.961-.483-.156-.606-.163-3.083-.173-1.293-.005-2.493.002-2.667.017m5.113 1.512c.355.082.456.146.561.356.167.334.176.489.176 2.999 0 2.477-.009 2.648-.165 2.989-.062.135-.11.189-.219.244-.319.163-.449.172-2.599.19-2.787.023-3.328-.02-3.587-.279-.153-.153-.209-.369-.251-.977-.046-.668-.017-4.532.036-4.817.049-.262.15-.466.273-.554.281-.2.69-.225 3.379-.214 1.841.008 2.201.018 2.396.063m6.138 1.824c-.81.124-1.425.562-1.783 1.271-.23.457-.251.617-.251 1.926 0 1.287.02 1.452.23 1.887.235.488.574.833 1.06 1.078.457.231.617.252 1.926.252 1.287 0 1.452-.02 1.887-.23.728-.351 1.176-.962 1.3-1.77.063-.41.063-2.023 0-2.433-.147-.958-.779-1.668-1.715-1.925-.231-.063-.357-.07-1.355-.078-.605-.005-1.189.005-1.299.022m2.384 1.521c.218.096.378.25.469.451.078.173.079.191.079 1.225 0 .996-.003 1.058-.069 1.2a.865.865 0 0 1-.441.457l-.19.093h-2.104l-.197-.1a.897.897 0 0 1-.455-.526c-.057-.194-.058-2.051-.001-2.244a.925.925 0 0 1 .395-.501c.21-.123.43-.142 1.496-.131.784.008.882.015 1.018.076" fill-rule="evenodd" fill="#000"/></svg>