<svg width="20" height="20" fill="none" xmlns="http://www.w3.org/2000/svg"><path d="M6.061 2.651c-.818.153-1.62.678-2.072 1.359a4.033 4.033 0 0 0-.462 1.007c-.062.227-.073.351-.073.833.001.521.008.591.092.867.27.891.846 1.592 1.635 1.991.226.114.301.136.469.136.486.001.815-.403.714-.877-.054-.249-.189-.408-.471-.554a1.934 1.934 0 0 1-.808-.824 1.707 1.707 0 0 1 .34-1.988c.345-.344.636-.473 1.199-.532.357-.037.524-.123.667-.344.079-.123.092-.176.092-.392 0-.216-.013-.269-.092-.391a.921.921 0 0 0-.233-.233c-.124-.08-.178-.092-.441-.099a3.174 3.174 0 0 0-.556.041m7.011-.018a.834.834 0 0 0-.365.312c-.077.119-.09.174-.09.388 0 .216.013.269.092.392.144.223.32.314.666.346.551.051.855.185 1.2.53a1.71 1.71 0 0 1 .336 1.994 1.933 1.933 0 0 1-.804.818c-.282.146-.417.305-.471.554-.101.474.228.878.714.877.168 0 .243-.022.469-.136.786-.398 1.367-1.105 1.635-1.991.084-.276.091-.347.092-.867 0-.482-.011-.606-.073-.833A3.386 3.386 0 0 0 15.3 3.258a3.98 3.98 0 0 0-1.15-.559c-.303-.079-.956-.119-1.078-.066m-3.655.847a3.258 3.258 0 0 0-2.556 2.387c-.111.41-.111 1.189 0 1.6.259.953.853 1.678 1.722 2.101.519.252.797.314 1.417.314s.898-.062 1.417-.314c.869-.423 1.463-1.148 1.722-2.101.11-.409.111-1.189.001-1.6a4.061 4.061 0 0 0-.565-1.167 3.329 3.329 0 0 0-1.758-1.167c-.342-.092-1.058-.119-1.4-.053m.959 1.469c.687.146 1.253.752 1.363 1.462.146.939-.529 1.846-1.483 1.995-1.146.178-2.17-.848-1.995-1.998a1.72 1.72 0 0 1 .503-.976c.45-.445 1.004-.612 1.612-.483M4.567 10.15c-1.411.241-2.573 1.094-3.2 2.347-.356.713-.523 1.758-.385 2.411.121.573.58 1.155 1.123 1.423.512.254 1.016.308 1.332.143.495-.259.527-.961.056-1.251a.894.894 0 0 0-.368-.122c-.268-.033-.433-.11-.555-.257-.217-.264-.223-.696-.02-1.337.239-.752.951-1.489 1.703-1.762.259-.094.718-.178.969-.178.434 0 .743-.306.743-.734a.722.722 0 0 0-.456-.688c-.133-.056-.601-.054-.942.005m9.875.018a.709.709 0 0 0-.402.719.696.696 0 0 0 .328.568c.115.076.188.093.495.117.837.065 1.406.326 1.946.89.436.457.687.982.766 1.605.047.37.016.563-.119.739-.135.176-.299.26-.572.294-.448.055-.701.321-.701.736 0 .186.016.244.101.382.142.229.376.349.678.347.766-.004 1.506-.463 1.866-1.157.173-.335.237-.619.238-1.058a4.252 4.252 0 0 0-1.314-3.044 4.204 4.204 0 0 0-2.785-1.195c-.346-.014-.398-.009-.525.057m-6.542.815c-1.618.277-2.906 1.366-3.413 2.887-.204.612-.275 1.379-.172 1.843.18.81.84 1.471 1.635 1.637.348.073 7.752.073 8.1 0a2.173 2.173 0 0 0 1.633-1.633c.158-.755-.071-1.884-.541-2.665a4.3 4.3 0 0 0-3.059-2.069c-.403-.066-3.796-.066-4.183 0m4.247 1.51a2.73 2.73 0 0 1 1.197.672c.572.53.888 1.21.901 1.937.005.301-.001.328-.096.482a.64.64 0 0 1-.278.256l-.179.093H6.317l-.167-.079c-.2-.093-.258-.154-.353-.37-.063-.141-.07-.201-.052-.434.025-.32.123-.724.236-.972.311-.677 1.007-1.311 1.68-1.528.426-.137.584-.146 2.439-.138 1.725.007 1.792.01 2.047.081" fill-rule="evenodd" fill="#000"/></svg>