<svg width="20" height="20" fill="none" xmlns="http://www.w3.org/2000/svg"><path d="M5.51 2.669c-.161.08-4.037 3.962-4.135 4.141-.055.1-.059.383-.067 4.481-.01 4.82-.018 4.616.197 5.062.149.309.527.69.83.838.456.223.097.211 6.089.201l5.426-.009.249-.091a2.091 2.091 0 0 0 1.148-1.02c.177-.351.193-.442.216-1.176l.02-.688.659.525c.363.289.747.572.854.629.743.396 1.52.184 1.855-.505a1.97 1.97 0 0 0 .147-.45c.027-.159.035-1.526.028-4.724l-.009-4.5-.081-.2c-.109-.272-.199-.407-.384-.578a1.229 1.229 0 0 0-.746-.328c-.501-.042-.794.097-1.664.79l-.659.525-.019-.688c-.016-.598-.028-.716-.094-.904a2.103 2.103 0 0 0-1.271-1.292l-.249-.091-4.1-.009-4.1-.009-.14.07m8.148 1.468a.651.651 0 0 1 .236.206l.089.135.009 1.136c.005.625-.003 1.152-.017 1.172a77.251 77.251 0 0 1-2.058 1.647c-.009 0-.017-.311-.017-.691 0-.381-.016-.749-.035-.818-.044-.159-.202-.34-.379-.434-.136-.073-.139-.073-2.528-.083l-2.391-.009V4.067h3.472c3.471 0 3.473 0 3.619.07M5.1 5.783V6.4H3.817l.616-.617c.339-.339.628-.616.642-.616.014 0 .025.277.025.616M17.567 10c0 2.273-.012 4.133-.025 4.133-.014 0-.487-.369-1.05-.82l-1.025-.819V7.506l1.025-.819a28.34 28.34 0 0 1 1.05-.82c.013 0 .025 1.86.025 4.133M5.1 10v2.1H2.767V7.9H5.1V10m5.333 0v2.1H6.567V7.9h3.866V10M14 10c0 .838-.011 1.267-.034 1.267-.043 0-1.583-1.232-1.583-1.267 0-.037 1.525-1.262 1.575-1.264.033-.002.042.272.042 1.264m-1.058 2.373c.555.443 1.019.822 1.033.841.014.02.022.547.017 1.172l-.009 1.136-.089.135a.651.651 0 0 1-.236.206c-.146.07-.148.07-3.619.07H6.567v-2.331l2.391-.009c2.389-.01 2.392-.01 2.528-.083.177-.094.335-.275.379-.434.019-.069.035-.437.035-.818 0-.38.008-.691.017-.691.01 0 .471.362 1.025.806M5.1 14.767v1.166h-.975c-1.073 0-1.124-.008-1.273-.21-.065-.09-.069-.143-.078-1.109l-.01-1.014H5.1v1.167" fill-rule="evenodd" fill="#000"/></svg>