<svg width="20" height="20" fill="none" xmlns="http://www.w3.org/2000/svg"><path d="M10.767.984a7.44 7.44 0 0 0-4.854 2.683c-1.574 1.93-2.059 4.585-1.276 6.98a7.362 7.362 0 0 0 3.78 4.338c2.801 1.361 6.101.846 8.386-1.309.762-.719 1.491-1.854 1.844-2.872.928-2.674.308-5.541-1.647-7.617-.921-.978-2.395-1.801-3.737-2.087a8.272 8.272 0 0 0-2.496-.116m1.75 1.487a5.954 5.954 0 0 1 4.698 3.803c.257.692.362 1.29.362 2.059 0 .592-.035.894-.165 1.417a5.776 5.776 0 0 1-1.566 2.763c-.913.913-1.971 1.452-3.296 1.677-.402.069-1.365.069-1.767 0-1.32-.225-2.391-.768-3.298-1.675-.915-.916-1.486-2.053-1.688-3.365-.053-.344-.053-1.29 0-1.633.306-1.984 1.483-3.607 3.262-4.496a6.135 6.135 0 0 1 2.224-.601c.244-.018.964.012 1.234.051M2.215 8.36c-.249.138-.298.203-.576.759-1.31 2.619-.776 5.847 1.311 7.931a6.865 6.865 0 0 0 3.7 1.918 7.241 7.241 0 0 0 3.373-.25c.427-.141 1.267-.548 1.435-.696a.718.718 0 0 0 .241-.543.696.696 0 0 0-.439-.679c-.264-.113-.424-.083-.932.175-1.093.556-2.181.73-3.378.541-1.699-.27-3.194-1.382-3.996-2.975a6.946 6.946 0 0 1-.434-1.274A5.318 5.318 0 0 1 3.012 9.7c.217-.419.233-.465.234-.667.002-.335-.144-.561-.442-.686-.154-.064-.463-.058-.589.013" fill-rule="evenodd" fill="#000"/></svg>