<svg width="20" height="20" fill="none" xmlns="http://www.w3.org/2000/svg"><path d="M7.217.982a2.118 2.118 0 0 0-1.055.593c-.144.143-.396.487-.435.59-.006.016-.213.052-.46.081-1.668.191-2.548.897-2.896 2.321-.107.437-.133.73-.174 1.9-.048 1.413-.022 8.66.034 9.283.14 1.549.648 2.426 1.682 2.901.523.24 1.027.333 2.086.385.977.048 8.209.021 8.668-.032 1.61-.186 2.484-.811 2.877-2.056.257-.817.271-1.135.271-6.331 0-4.522-.015-5.157-.136-5.797-.283-1.491-1.125-2.301-2.633-2.531-.181-.028-.427-.06-.546-.072l-.217-.022-.116-.202a2.62 2.62 0 0 0-.744-.754 2.958 2.958 0 0 0-.429-.2L12.75.95 10.083.944C7.967.939 7.375.947 7.217.982m5.288 1.457c.319.095.515.398.489.757-.016.22-.103.364-.317.528l-.122.093h-5.11l-.122-.093c-.22-.168-.302-.308-.317-.54-.022-.347.155-.626.469-.74.154-.055 4.845-.061 5.03-.005M5.631 3.842c.132.449.616 1.007 1.069 1.233.504.251.373.242 3.3.242 2.927 0 2.796.009 3.3-.242.455-.226.937-.784 1.07-1.236l.042-.145.236.024c.52.051.931.207 1.173.445.159.157.329.522.394.845.108.538.123 1.357.109 6.042-.01 3.367-.024 4.671-.054 4.867-.176 1.165-.535 1.486-1.808 1.622-.596.064-8.328.064-8.924 0-1.4-.149-1.736-.524-1.841-2.053-.049-.714-.02-9.924.032-10.219.102-.574.226-.888.433-1.096.219-.219.571-.368 1.023-.434.39-.057.399-.055.446.105m8.648 2.989c-.24.086-.603.304-.887.533-.279.225-.855.811-1.138 1.157l-.194.238-.172-.114c-.518-.343-1.058-.259-1.294.202-.138.267-.067.643.161.859.106.101.393.234.428.2.012-.013.018-.008.013.011-.014.053.242.452.387.603a.69.69 0 0 0 .789.15c.165-.071.262-.169.453-.454.211-.316.649-.867.949-1.194.347-.379.71-.669 1.009-.807.365-.168.528-.389.528-.715a.709.709 0 0 0-.247-.547c-.229-.193-.48-.232-.785-.122m-9.164.832a.735.735 0 0 0-.257 1.138c.235.274.153.264 2.225.264 1.715 0 1.842-.004 1.967-.062a.711.711 0 0 0 .416-.677c-.001-.319-.21-.613-.49-.691-.081-.022-.771-.034-1.926-.034-1.677 0-1.809.005-1.935.062m9.049 4.215c-.598.261-1.279.854-1.984 1.727l-.126.156-.102-.077a1.169 1.169 0 0 0-.609-.243c-.272-.022-.462.049-.637.239-.345.374-.204.959.283 1.174.18.08.227.132.476.53a.722.722 0 0 0 1.113.156c.052-.05.183-.218.29-.373.47-.684 1.12-1.412 1.525-1.71.116-.084.318-.206.45-.271.168-.082.267-.155.329-.244.278-.399.144-.914-.289-1.113-.206-.094-.425-.079-.719.049m-9.047.785c-.287.131-.429.353-.429.67 0 .317.142.539.429.671.124.057.259.061 1.959.062 1.577.001 1.843-.006 1.95-.051a.745.745 0 0 0 .219-1.222c-.207-.196-.176-.193-2.169-.192-1.7 0-1.835.005-1.959.062" fill-rule="evenodd" fill="#000"/></svg>