<svg width="20" height="20" fill="none" xmlns="http://www.w3.org/2000/svg"><path d="M9.3.955c-.422.041-.794.092-1.083.149a9.073 9.073 0 0 0 .431 17.867 11.25 11.25 0 0 0 2.119.066c2.334-.213 4.361-1.215 5.94-2.937 1.234-1.345 2.004-2.993 2.282-4.883.09-.613.081-1.905-.017-2.55-.089-.58-.18-.798-.397-.948-.282-.195-.724-.145-.944.106-.222.252-.236.394-.112 1.142.081.493.082 1.543 0 2.083a7.698 7.698 0 0 1-1.445 3.495c-.294.397-1.077 1.191-1.458 1.478a7.768 7.768 0 0 1-3.551 1.498c-.526.081-1.604.081-2.13 0a7.639 7.639 0 0 1-4.331-2.19c-1.153-1.16-1.865-2.588-2.126-4.264-.082-.531-.082-1.603 0-2.134.392-2.516 1.894-4.6 4.122-5.716a7.787 7.787 0 0 1 2.335-.738c.546-.085 1.576-.082 2.115.006.22.036.507.065.639.065.211 0 .255-.012.383-.1a.828.828 0 0 0 .328-.617.814.814 0 0 0-.32-.607c-.25-.165-1.231-.297-2.147-.287-.284.003-.569.01-.633.016m5.039.029c-.282.123-.426.314-.462.614a.746.746 0 0 0 .395.729c.126.061.247.074.945.105.44.02.896.044 1.013.055l.213.019-1.453 1.456c-.996.996-1.47 1.494-1.505 1.579-.112.27-.037.639.169.832a.798.798 0 0 0 .805.142c.085-.035.587-.514 1.582-1.506.801-.801 1.463-1.449 1.47-1.441.007.009.03.462.051 1.009.041 1.049.052 1.116.217 1.312.146.173.353.254.605.238.287-.018.462-.136.595-.402l.096-.192-.057-1.475c-.031-.811-.07-1.542-.086-1.625a1.651 1.651 0 0 0-1.273-1.317c-.132-.031-.705-.074-1.559-.116-1.589-.078-1.617-.078-1.761-.016M9.738 5.969c-.275.11-.441.348-.464.663l-.015.218-.194.062a2.58 2.58 0 0 0-.914.569c-.813.813-.714 2.032.222 2.735.439.33.863.472 1.549.517.33.022.442.044.605.117.512.23.523.549.027.786-.533.255-1.192.109-1.478-.328-.414-.63-1.323-.423-1.37.313-.012.191-.002.237.098.434.134.262.436.585.71.76.181.114.636.318.712.318.017 0 .039.102.048.226.029.41.277.667.674.699a.702.702 0 0 0 .785-.717c0-.138.013-.181.059-.196.477-.164.759-.332 1.057-.628.95-.945.65-2.349-.639-2.996-.269-.135-.632-.22-1.081-.254a4.16 4.16 0 0 1-.53-.065c-.193-.056-.428-.225-.487-.349-.052-.107-.051-.12.01-.225.144-.248.633-.426 1.041-.378.371.043.609.193.814.515.102.159.382.302.595.302.418 0 .726-.312.727-.737.002-.5-.598-1.138-1.305-1.388l-.26-.092-.001-.183a.728.728 0 0 0-.457-.689c-.122-.051-.421-.056-.538-.009" fill-rule="evenodd" fill="#000"/></svg>