<svg width="20" height="20" fill="none" xmlns="http://www.w3.org/2000/svg"><path d="M10.424.982a4.068 4.068 0 0 0-1.874.838c-.326.254-6.622 6.556-6.806 6.813-.519.722-.772 1.449-.803 2.306-.032.909.176 1.647.684 2.428.153.234.524.623 2.13 2.234A124.501 124.501 0 0 1 5.7 17.574c0 .013-.589.028-1.308.033l-1.309.01-.141.092a.921.921 0 0 0-.233.233c-.079.122-.092.175-.092.391 0 .216.013.269.092.392.05.077.154.182.23.233l.139.092 6.853.01c4.868.007 6.889-.001 6.978-.027a.786.786 0 0 0 .247-.143c.323-.283.327-.835.007-1.105-.228-.192-.129-.185-2.703-.185h-2.375l3.002-3.008c1.652-1.655 3.07-3.099 3.152-3.209a3.993 3.993 0 0 0 .762-1.778c.181-1.05-.034-2.062-.638-2.988-.139-.215-.603-.698-2.36-2.461-1.37-1.375-2.292-2.274-2.469-2.408a4.315 4.315 0 0 0-1.601-.731c-.341-.075-1.172-.095-1.509-.035m1.113 1.467c.341.061.656.176.863.316.04.027-.894.978-4.767 4.851-2.649 2.65-4.828 4.817-4.843 4.817-.042 0-.243-.455-.31-.7-.075-.274-.085-.967-.017-1.233.07-.275.208-.595.352-.818.141-.218 6.359-6.477 6.685-6.729.361-.279.67-.418 1.117-.503.315-.059.586-.06.92-.001m5.511 4.884c.213.275.338.517.438.85.076.256.09.363.091.717 0 .435-.044.677-.186 1.017-.191.456-.244.513-3.602 3.87-2.173 2.173-3.309 3.284-3.451 3.379-.431.288-.845.406-1.42.406-.437 0-.617-.03-.958-.159-.443-.167-.568-.277-2.402-2.107L3.8 13.55l4.875-4.875L13.55 3.8l1.677 1.675c.923.921 1.742 1.757 1.821 1.858m-1.703 1.165a.914.914 0 0 0-.216.095c-.199.124-2.054 2.012-2.111 2.148-.072.174-.066.466.013.622.072.14.265.325.392.373.143.054.469.036.603-.033.068-.036.584-.527 1.146-1.092 1.086-1.092 1.094-1.103 1.094-1.42.001-.288-.23-.591-.513-.675a.632.632 0 0 0-.408-.018M11.8 11.932c-.064.034-.351.3-.637.59-.494.501-.523.537-.559.708a.735.735 0 0 0 .298.788.834.834 0 0 0 .719.063c.188-.086 1.091-.993 1.176-1.181.166-.365.007-.81-.345-.97-.18-.082-.496-.081-.652.002" fill-rule="evenodd" fill="#000"/></svg>