<!-- Generated by IcoMoon.io -->
<svg version="1.1" xmlns="http://www.w3.org/2000/svg" width="7" height="32" viewBox="0 0 7 32">
<path d="M3.585 7.868c1.813 0 3.282-1.469 3.282-3.282s-1.469-3.282-3.282-3.282c-1.813 0-3.282 1.469-3.282 3.282s1.469 3.282 3.282 3.282zM3.585 19.355c1.813 0 3.282-1.469 3.282-3.282s-1.469-3.282-3.282-3.282c-1.813 0-3.282 1.469-3.282 3.282s1.469 3.282 3.282 3.282zM6.867 27.561c0 1.812-1.469 3.282-3.282 3.282s-3.282-1.469-3.282-3.282c0-1.813 1.469-3.282 3.282-3.282s3.282 1.469 3.282 3.282z"></path>
</svg>
