<svg width="20" height="20" fill="none" xmlns="http://www.w3.org/2000/svg"><path d="M13.767 2.5v.733l.358.002.358.001-.216.203c-.548.512-1.389 1.167-2.267 1.766-1.188.809-2.164 1.375-3.583 2.078A35.571 35.571 0 0 1 4.2 9.055a8.118 8.118 0 0 0-.641.24c-.019.018.281.984.423 1.363.026.068 1.675-.524 2.953-1.06 3.236-1.356 6.128-3.096 8.173-4.917l.392-.348V5H17V3.752c0-.753-.014-1.314-.035-1.413a.803.803 0 0 0-.413-.509c-.124-.057-.245-.062-1.46-.063h-1.325V2.5m1.275 4.317c-.558.121-.998.562-1.146 1.15-.038.151-.046.933-.046 4.533 0 3.6.008 4.382.046 4.533.151.596.588 1.03 1.161 1.151.263.056 1.188.066 1.489.017a1.528 1.528 0 0 0 1.208-1.092c.06-.215.063-.431.063-4.609s-.003-4.394-.063-4.609a1.528 1.528 0 0 0-1.208-1.092c-.288-.047-1.257-.035-1.504.018m1.239 1.437c.047.018.052.423.052 4.246 0 3.823-.005 4.228-.052 4.246-.069.027-.826.027-.895 0-.048-.018-.053-.423-.053-4.247 0-3.35.009-4.23.042-4.244.06-.024.843-.025.906-.001M9.4 9.699c-.444.058-.82.268-1.068.598-.169.225-.263.489-.303.844-.049.435-.019 5.733.033 5.922.164.594.647 1.043 1.225 1.138.254.041 1.172.041 1.426 0 .594-.097 1.085-.567 1.228-1.174.032-.135.042-.87.042-3.094 0-2.915 0-2.916-.073-3.15-.164-.517-.505-.862-1.01-1.02-.169-.052-.335-.07-.75-.08-.293-.007-.631 0-.75.016m1.092 4.249c.007 2.19 0 2.77-.033 2.791-.049.031-.828.037-.906.007-.048-.018-.053-.294-.053-2.777 0-1.517.01-2.768.023-2.781.013-.013.234-.019.492-.014l.468.009.009 2.765m-7.068-2.147c-.376.064-.772.332-.992.672-.246.38-.249.407-.249 2.527 0 1.736.005 1.901.063 2.109.155.563.637.998 1.208 1.092.301.049 1.226.039 1.489-.017.573-.121 1.01-.555 1.161-1.151.036-.145.046-.565.046-2.033s-.01-1.888-.046-2.033c-.151-.596-.588-1.03-1.161-1.151-.247-.053-1.238-.062-1.519-.015m1.19 1.453c.047.018.053.203.053 1.746s-.006 1.728-.053 1.746c-.069.027-.826.027-.895 0-.047-.018-.052-.203-.052-1.747 0-1.35.009-1.73.041-1.744.06-.024.843-.025.906-.001" fill-rule="evenodd" fill="#000"/></svg>