<svg width="20" height="20" fill="none" xmlns="http://www.w3.org/2000/svg"><path d="M9.445 1.815c-1.103.213-2.861.875-4.731 1.784C2.605 4.623 1.4 5.468 1.059 6.16c-.097.198-.109.252-.109.507 0 .256.011.307.114.517.277.563 1.161 1.243 2.669 2.052l.526.282c.004.002.053 1.031.108 2.285.073 1.652.115 2.335.151 2.48.126.492.451.947.881 1.233 1.328.883 3.915 1.264 6.339.934 1.449-.198 2.674-.679 3.224-1.267.215-.23.431-.628.501-.924.021-.087.083-1.18.138-2.429.055-1.249.108-2.284.117-2.299.027-.044.579-.323.598-.304.01.01.017.982.017 2.161v2.144l-.265.509a12.233 12.233 0 0 0-.796 1.859c-.186.55-.186.55-.187.967-.002.406.001.424.108.64.131.267.335.46.64.606l.217.104.925.01c.787.009.954.003 1.116-.045a1.33 1.33 0 0 0 .853-.715c.1-.203.106-.236.105-.583 0-.328-.014-.409-.122-.753-.196-.627-.379-1.07-.764-1.849l-.363-.735V8.304l.208-.159c1.023-.779 1.272-1.466.79-2.18-.162-.24-.572-.625-.958-.898-1.604-1.137-4.998-2.684-6.956-3.172-.484-.12-1.063-.152-1.439-.08m1.159 1.533c1.994.52 5.723 2.293 6.7 3.185l.146.134-.15.137c-.167.154-.939.67-1.353.905-1.764 1.003-4.627 2.183-5.723 2.359-.353.057-.666-.005-1.607-.318-1.86-.618-4.067-1.657-5.384-2.535a6.492 6.492 0 0 1-.566-.413l-.15-.135.15-.136c.082-.074.337-.26.566-.413 1.296-.864 3.485-1.898 5.334-2.521 1.153-.388 1.393-.417 2.037-.249m3.51 8.718c-.044.999-.097 1.865-.116 1.924-.138.418-1.285.851-2.734 1.032-.606.076-1.949.077-2.547.002-1.443-.181-2.615-.622-2.747-1.034-.019-.059-.065-.834-.102-1.723a160.31 160.31 0 0 0-.081-1.809c-.017-.229-.012-.23.302-.088 1.125.51 2.74 1.05 3.488 1.166.635.098 1.432-.066 2.856-.587.463-.17 1.283-.5 1.6-.644a.817.817 0 0 1 .155-.061c.003.003-.03.823-.074 1.822m3.121 3.734c.108.271.327.906.331.958 0 .005-.224.009-.499.009s-.5-.012-.5-.027c0-.05.266-.823.373-1.082.058-.142.117-.247.13-.233.014.014.088.182.165.375" fill-rule="evenodd" fill="#000"/></svg>