<svg width="20" height="20" fill="none" xmlns="http://www.w3.org/2000/svg"><path d="M9.555.984c-.43.109-.894.433-1.233.86-.238.3-.416.632-1.247 2.323-.633 1.29-.71 1.429-.853 1.555-.086.076-.21.163-.275.194-.065.031-.788.168-1.608.305-1.573.264-1.895.343-2.305.568-1.101.603-1.411 1.767-.769 2.888.202.352.368.538 1.623 1.817l1.139 1.159.07.227c.038.125.07.265.07.31 0 .046-.142.701-.315 1.455-.409 1.784-.398 1.724-.398 2.305 0 .55.041.772.213 1.133.239.502.662.831 1.225.949.271.057.743.029 1.091-.065.419-.112.835-.329 2.285-1.194 1.097-.654 1.387-.813 1.542-.844.358-.072.427-.042 1.799.776 1.809 1.08 1.99 1.172 2.553 1.296.721.16 1.32.028 1.772-.391.571-.528.747-1.359.53-2.493a72.862 72.862 0 0 0-.347-1.567c-.156-.678-.284-1.287-.284-1.354 0-.067.032-.225.071-.35l.07-.228 1.223-1.234c1.287-1.298 1.486-1.536 1.686-2.015.47-1.124-.001-2.201-1.181-2.704-.353-.15-.609-.205-2.164-.464-.777-.13-1.444-.253-1.484-.273a2.71 2.71 0 0 1-.249-.169l-.178-.133-.809-1.638c-.469-.949-.895-1.765-1.012-1.941-.332-.496-.784-.87-1.232-1.021C10.317.94 9.812.919 9.555.984m.599 1.47c.062.03.189.136.281.237.14.154.309.467 1.02 1.888.469.938.918 1.797.999 1.91.265.374.82.76 1.279.89.101.029.815.158 1.586.287.771.128 1.483.258 1.583.288.489.145.737.386.679.66-.066.312-.2.473-1.449 1.736-.671.678-1.269 1.305-1.328 1.392a2.749 2.749 0 0 0-.373.858c-.059.236-.068.349-.055.683.014.357.051.549.339 1.784.333 1.426.393 1.811.336 2.185-.029.195-.165.348-.308.348-.154 0-.475-.094-.726-.212-.129-.061-.819-.46-1.534-.888a40.183 40.183 0 0 0-1.5-.87c-.572-.265-1.427-.258-1.999.015-.129.061-.819.461-1.534.889a41.79 41.79 0 0 1-1.5.87c-.219.102-.547.196-.686.196-.273 0-.407-.378-.331-.933.022-.155.183-.898.358-1.65.313-1.342.319-1.375.322-1.8.004-.511-.063-.796-.289-1.232-.156-.302-.232-.386-1.758-1.935-.774-.786-.97-1.004-1.05-1.167-.137-.275-.136-.473.001-.616.254-.266.428-.314 2.216-.613 1.595-.266 1.744-.305 2.143-.562.114-.074.322-.25.463-.393l.256-.258.857-1.712c.868-1.736 1.021-2.006 1.23-2.171.206-.164.301-.185.472-.104" fill-rule="evenodd" fill="#000"/></svg>