<svg width="20" height="20" fill="none" xmlns="http://www.w3.org/2000/svg"><path d="M8.35.969c-1.947.201-3.783 1.064-5.133 2.414C1.381 5.219.584 7.786 1.07 10.3c.272 1.409.934 2.696 1.959 3.809.383.416.398.458.287.843a3.377 3.377 0 0 1-.52 1.057c-.212.297-.245.398-.222.674a.666.666 0 0 0 .337.532c.29.17 1.29.236 2.024.133.686-.095 1.268-.282 1.948-.625.31-.156.349-.168.55-.16.352.012.586-.121.721-.41a.705.705 0 0 0-.004-.652c-.146-.289-.353-.394-.833-.424-.366-.022-.517.023-1.144.339a6.659 6.659 0 0 1-.729.314c-.283.092-.828.199-.857.167a2.08 2.08 0 0 1 .096-.347c.214-.655.233-1.114.062-1.544-.125-.314-.254-.503-.632-.923-.532-.592-.824-1.02-1.116-1.633a6.096 6.096 0 0 1 .25-5.697c1.039-1.765 2.825-2.945 4.959-3.275.446-.069 1.485-.077 1.927-.015 1.544.217 2.847.83 3.914 1.84a6.308 6.308 0 0 1 1.853 3.19c.086.354.159.48.362.622.13.092.169.102.399.102.228 0 .272-.011.406-.1.181-.122.333-.393.333-.598 0-.168-.127-.699-.268-1.118-.735-2.191-2.522-4.012-4.812-4.905a8.508 8.508 0 0 0-1.87-.483C10.048.952 8.771.926 8.35.969m4.645 7.514c-2.648.385-4.562 2.51-4.562 5.067 0 2.546 1.927 4.695 4.543 5.067a6.306 6.306 0 0 0 1.559-.003l.388-.053.264.131c.499.25 1.029.375 1.585.375.84 0 1.205-.18 1.288-.635.042-.232-.008-.421-.177-.665-.144-.21-.283-.512-.283-.618 0-.028.106-.173.236-.324a4.963 4.963 0 0 0 .959-4.874 5.176 5.176 0 0 0-2.662-2.975c-.96-.46-2.117-.642-3.138-.493m1.533 1.503c2.149.44 3.488 2.485 2.935 4.486-.141.511-.462 1.077-.856 1.505-.382.416-.53.782-.496 1.227.015.193.01.263-.02.263-.022 0-.215-.084-.429-.186-.48-.229-.593-.243-1.212-.151-.554.083-.819.087-1.267.02-.885-.132-1.601-.491-2.218-1.113-.464-.467-.688-.827-.883-1.421a3.357 3.357 0 0 1-.001-2.129c.178-.542.39-.903.772-1.316a3.948 3.948 0 0 1 2.423-1.237c.314-.039.93-.014 1.252.052" fill-rule="evenodd" fill="#000"/></svg>