<!-- Generated by IcoMoon.io -->
<svg version="1.1" xmlns="http://www.w3.org/2000/svg" width="21" height="32" viewBox="0 0 21 32">
<path fill="#227aff" d="M9.956 21.689c3.137 0 5.689-2.553 5.689-5.689v-8.533c0-3.137-2.551-5.689-5.689-5.689s-5.689 2.551-5.689 5.689v8.533c0 3.136 2.551 5.689 5.689 5.689zM19.911 16v-2.844c0-0.377-0.15-0.739-0.417-1.006s-0.628-0.417-1.006-0.417c-0.377 0-0.739 0.15-1.006 0.417s-0.417 0.628-0.417 1.006v2.844c0 3.921-3.19 7.111-7.111 7.111s-7.111-3.19-7.111-7.111v-2.844c0-0.377-0.15-0.739-0.417-1.006s-0.628-0.417-1.006-0.417c-0.377 0-0.739 0.15-1.006 0.417s-0.417 0.628-0.417 1.006v2.844c0 5.006 3.716 9.148 8.533 9.842v1.536h-4.267c-0.377 0-0.739 0.15-1.006 0.417s-0.417 0.628-0.417 1.006 0.15 0.739 0.417 1.006c0.267 0.267 0.628 0.416 1.006 0.416h11.378c0.377 0 0.739-0.15 1.006-0.416s0.417-0.628 0.417-1.006-0.15-0.739-0.417-1.006c-0.267-0.267-0.628-0.417-1.006-0.417h-4.267v-1.536c4.817-0.694 8.533-4.836 8.533-9.842z"></path>
</svg>
