<!-- Generated by IcoMoon.io -->
<svg version="1.1" xmlns="http://www.w3.org/2000/svg" width="32" height="32" viewBox="0 0 32 32">
<path d="M27.057 3.057l-8.302 8.286c0.1-0.959 0.26-1.918 0.271-2.661 0-0.006 0-0.014 0-0.021 0-0.731-0.588-1.325-1.317-1.333h-0.001c-0.005-0-0.010-0-0.016-0-0.731 0-1.324 0.588-1.333 1.317v0.001c-0.004 0.278-0.194 1.609-0.297 2.854-0.051 0.622-0.085 1.254-0.036 1.859s0.079 1.245 0.724 1.891c0.645 0.645 1.285 0.675 1.891 0.724s1.237 0.015 1.859-0.036c1.245-0.103 2.576-0.293 2.854-0.297 0.73-0.009 1.318-0.602 1.318-1.333 0-0.006-0-0.011-0-0.017v0.001c-0.009-0.73-0.602-1.318-1.333-1.318-0.007 0-0.015 0-0.022 0h0.001c-0.749 0.011-1.721 0.171-2.688 0.271l8.313-8.302c0.241-0.241 0.39-0.575 0.39-0.943s-0.149-0.701-0.39-0.943v0c-0.241-0.241-0.575-0.39-0.943-0.39s-0.701 0.149-0.943 0.39v0zM13.365 16.021c-0.606-0.049-1.232-0.020-1.854 0.031-1.245 0.103-2.581 0.293-2.859 0.297-0.727 0.012-1.313 0.604-1.313 1.333 0 0.007 0 0.015 0 0.022v-0.001c0.012 0.727 0.604 1.313 1.333 1.313 0.006 0 0.011-0 0.017-0h-0.001c0.743-0.011 1.708-0.166 2.667-0.266l-8.297 8.307c-0.241 0.241-0.39 0.575-0.39 0.943s0.149 0.701 0.39 0.943v0c0.241 0.241 0.575 0.39 0.943 0.39s0.701-0.149 0.943-0.39l8.307-8.313c-0.1 0.965-0.26 1.935-0.271 2.682-0 0.005-0 0.010-0 0.016 0 0.731 0.588 1.324 1.317 1.333h0.001c0.005 0 0.010 0 0.016 0 0.729 0 1.322-0.585 1.333-1.311v-0.001c0.004-0.278 0.199-1.615 0.302-2.859 0.051-0.622 0.080-1.248 0.031-1.854s-0.079-1.251-0.724-1.896c-0.645-0.645-1.285-0.67-1.891-0.719z"></path>
</svg>
