<svg width="20" height="20" fill="none" xmlns="http://www.w3.org/2000/svg"><path d="M9.683 1.367c-.795.088-1.437.417-2.8 1.438-.825.618-3.118 2.406-3.572 2.784-1.033.864-1.406 1.538-1.509 2.728-.045.518-.045 5.409-.001 6.183.061 1.045.186 1.666.451 2.228.521 1.106 1.43 1.663 2.998 1.838.59.066 2.139.098 4.75.098s4.16-.032 4.75-.098c1.568-.175 2.477-.732 2.998-1.838.265-.562.39-1.183.451-2.228.044-.774.044-5.599 0-6.153-.083-1.027-.355-1.639-1.03-2.316-.352-.353-.616-.568-2.302-1.881-2.004-1.561-2.775-2.118-3.275-2.37-.686-.347-1.303-.48-1.909-.413m.741 1.53c.55.167 1.075.52 3.031 2.036 2.906 2.254 3.027 2.368 3.194 3.017.091.353.117 1.054.117 3.167-.001 3.041-.053 4.077-.238 4.676-.205.666-.576 1.005-1.303 1.189-.64.162-.817.168-5.225.168-4.408 0-4.585-.006-5.225-.168-.904-.229-1.289-.721-1.44-1.838-.065-.481-.101-1.912-.101-4.011 0-2.128.026-2.83.117-3.183.167-.649.288-.763 3.194-3.017C8.478 3.434 9.02 3.069 9.561 2.899c.254-.08.604-.081.863-.002M7.239 13.47c-.147.044-.387.288-.439.446-.062.189-.025.493.08.652.047.071.202.212.345.312.758.534 1.564.801 2.542.842 1.191.05 2.232-.254 3.087-.902.289-.218.363-.356.363-.672 0-.202-.014-.256-.092-.375a.993.993 0 0 0-.231-.231c-.122-.08-.171-.092-.395-.092-.255 0-.256 0-.536.188-.673.451-1.185.61-1.963.61-.777 0-1.29-.159-1.961-.609-.254-.17-.296-.187-.484-.195a1.22 1.22 0 0 0-.316.026" fill-rule="evenodd" fill="#000"/></svg>