<svg width="20" height="20" fill="none" xmlns="http://www.w3.org/2000/svg"><path d="M14.2 1.004a6.285 6.285 0 0 0-2.783 1.388c-.659.573-1.299 1.453-1.668 2.297l-.134.304a4.946 4.946 0 0 1-.402-.232 9.106 9.106 0 0 0-2.756-1.108c-.766-.17-1.081-.202-2.024-.202-1.259 0-1.707.064-2.233.322-.222.108-.34.196-.552.408-.32.32-.498.644-.619 1.124l-.079.312v4.816c0 3.953.008 4.859.046 5.05.141.719.637 1.243 1.328 1.403.248.058 1.251.112 2.109.113a7.52 7.52 0 0 1 3.1.64c.651.279 1.263.666 1.965 1.242.276.227.553.265.835.114.065-.035.244-.168.4-.298 1.069-.885 2.41-1.455 3.877-1.646a9.414 9.414 0 0 1 1-.052c.862-.002 1.838-.056 2.082-.115.318-.076.598-.234.824-.463.238-.241.359-.454.459-.81l.074-.261.011-4.55c.011-4.615 0-5.154-.112-5.583a2.28 2.28 0 0 0-.579-1.015 1.649 1.649 0 0 0-.569-.411 2.868 2.868 0 0 0-1-.284l-.217-.024-.019-.55c-.016-.443-.034-.588-.092-.747a1.88 1.88 0 0 0-.506-.764c-.481-.454-1.002-.577-1.766-.418m.746 1.49c.16.141.154-.058.154 5.371v5.1l-.075.048a.81.81 0 0 1-.258.07 6.294 6.294 0 0 0-3.717 1.813c-.146.149-.278.271-.292.271-.014 0-.022-2.014-.017-4.475l.009-4.475.128-.367c.402-1.151 1.132-2.143 2.005-2.722.421-.279 1.032-.535 1.584-.665.27-.063.381-.056.479.031M5.533 4.983A7.78 7.78 0 0 1 9.025 6.42l.242.182v5.115c0 3.196-.012 5.116-.032 5.116-.017 0-.125-.055-.24-.122a9.466 9.466 0 0 0-1.839-.792c-1.014-.306-1.62-.384-3.243-.415-1.354-.026-1.365-.028-1.456-.231-.053-.117-.078-8.732-.027-9.291.039-.431.109-.622.288-.779.211-.185.3-.207 1.149-.283.291-.026 1.321.013 1.666.063m11.481.072c.201.066.421.278.479.462.098.31.11.946.1 5.283-.007 3.322-.02 4.405-.05 4.473-.09.203-.101.205-1.457.231-1.322.026-1.81.069-2.486.218a9.82 9.82 0 0 0-1.465.446c-.173.071-.322.123-.33.115-.008-.009.132-.165.312-.349.763-.775 1.569-1.17 2.83-1.384.607-.103.839-.205 1.144-.504.15-.147.243-.277.334-.467l.125-.262.009-4.179.009-4.18.141.022c.078.012.215.046.305.075" fill-rule="evenodd" fill="#000"/></svg>