<svg width="20" height="20" fill="none" xmlns="http://www.w3.org/2000/svg"><path d="M3.072 3.469a.805.805 0 0 0-.365.31c-.077.118-.09.173-.09.388 0 .216.013.269.092.391.05.078.155.183.233.233l.141.092 6.85.01c4.572.007 6.889-.001 6.967-.024a.86.86 0 0 0 .246-.141c.405-.334.316-1.01-.163-1.231-.128-.06-.384-.062-6.983-.061-4.21.001-6.88.014-6.928.033m0 5.833a.805.805 0 0 0-.365.31c-.077.119-.09.173-.09.388 0 .216.013.269.092.391.05.078.155.183.233.234l.141.092 6.85.009c4.572.007 6.889-.001 6.967-.024a.804.804 0 0 0 .437-.383c.131-.288.053-.676-.174-.867-.235-.198.262-.186-7.17-.183-4.204.001-6.873.014-6.921.033m0 5.834a.803.803 0 0 0-.365.309c-.077.119-.09.174-.09.388 0 .216.013.269.092.392.05.078.155.183.233.233l.141.092 6.85.01c4.572.006 6.889-.002 6.967-.024a.81.81 0 0 0 .437-.384c.131-.288.053-.675-.174-.867-.235-.198.262-.185-7.17-.183-4.204.001-6.873.014-6.921.034" fill-rule="evenodd" fill="#000"/></svg>