<svg width="20" height="20" fill="none" xmlns="http://www.w3.org/2000/svg"><path d="M5.417 2.202a4.635 4.635 0 0 0-1.85.534C1.931 3.582.931 5.294.934 7.244c.003 1.832.938 3.762 2.92 6.028.818.934 2.155 2.198 3.336 3.151 1.468 1.187 1.867 1.383 2.81 1.383.527 0 .827-.065 1.25-.268.322-.156.603-.355 1.433-1.021 2.653-2.124 4.599-4.321 5.592-6.308.673-1.348.894-2.439.742-3.66-.242-1.938-1.488-3.505-3.267-4.109-1.009-.343-2.222-.338-3.3.014-.69.225-1.526.727-2.256 1.353l-.19.163-.37-.299c-.911-.734-1.77-1.179-2.649-1.369-.28-.061-1.027-.142-1.185-.13l-.383.03m1.072 1.513c.907.159 1.648.583 2.708 1.547.267.244.486.416.559.44.157.052.476.022.598-.056a4.51 4.51 0 0 0 .396-.342c1.306-1.224 2.31-1.681 3.575-1.627.509.021.829.09 1.217.26.669.294 1.28.878 1.629 1.557.486.949.542 2.045.161 3.184-.144.432-.581 1.3-.896 1.781-1.071 1.636-2.794 3.419-4.921 5.092-.676.532-.819.627-1.083.717a1.597 1.597 0 0 1-.966-.029c-.265-.103-1.254-.863-2.214-1.703-2.023-1.769-3.533-3.57-4.273-5.097-.389-.803-.562-1.482-.56-2.206.003-1.053.332-1.88 1.031-2.585.51-.515 1.054-.81 1.713-.929a4.827 4.827 0 0 1 1.326-.004" fill-rule="evenodd" fill="#000"/></svg>