<!-- Generated by IcoMoon.io -->
<svg version="1.1" xmlns="http://www.w3.org/2000/svg" width="31" height="32" viewBox="0 0 31 32">
<path d="M15.36 1.958c-7.764 0-14.080 6.316-14.080 14.080s6.316 14.080 14.080 14.080c7.764 0 14.080-6.316 14.080-14.080s-6.316-14.080-14.080-14.080zM19.783 20.339c-0.425 0.62-0.982 1.085-1.713 1.432-0.539 0.239-1.1 0.385-1.679 0.44v1.893c0 0.289-0.234 0.522-0.522 0.522h-1.562c-0.289 0-0.522-0.234-0.522-0.522v-2.056c-0.294-0.072-0.584-0.173-0.874-0.306-0.78-0.318-1.41-0.837-1.851-1.535-0.443-0.648-0.681-1.405-0.718-2.299-0.012-0.283 0.204-0.523 0.486-0.542l1.402-0.096c0.282-0.016 0.521 0.184 0.554 0.459 0.056 0.47 0.188 0.858 0.382 1.123 0.219 0.329 0.5 0.544 0.924 0.718 0.899 0.396 2.043 0.397 2.834 0.092 0.351-0.15 0.599-0.323 0.763-0.535 0.141-0.202 0.21-0.414 0.21-0.668 0-0.238-0.061-0.413-0.209-0.604-0.077-0.103-0.277-0.296-0.803-0.506-0.256-0.085-0.923-0.274-1.937-0.52-1.184-0.295-1.87-0.52-2.295-0.75-0.633-0.335-1.108-0.752-1.407-1.237-0.306-0.494-0.461-1.059-0.461-1.677 0-0.672 0.188-1.313 0.558-1.904 0.383-0.576 0.948-1.029 1.643-1.321 0.232-0.105 0.496-0.194 0.797-0.265v-1.74c0-0.289 0.234-0.522 0.522-0.522h1.562c0.289 0 0.522 0.234 0.522 0.522v1.648c0.47 0.078 0.904 0.197 1.299 0.354 0.763 0.343 1.316 0.802 1.711 1.413 0.396 0.576 0.619 1.268 0.658 2.044 0.014 0.284-0.203 0.528-0.487 0.547l-1.436 0.097c-0.277 0.019-0.515-0.178-0.553-0.45-0.080-0.589-0.277-1-0.602-1.256-0.369-0.315-0.905-0.461-1.654-0.461-0.733 0-1.322 0.142-1.659 0.402-0.273 0.211-0.402 0.464-0.402 0.797 0 0.256 0.080 0.458 0.239 0.599 0.084 0.066 0.542 0.365 2.025 0.677 1.224 0.289 2.124 0.552 2.617 0.764 0.786 0.354 1.347 0.81 1.677 1.358 0.368 0.551 0.553 1.167 0.553 1.862 0 0.724-0.2 1.399-0.595 2.008z"></path>
</svg>
