<!-- Generated by IcoMoon.io -->
<svg version="1.1" xmlns="http://www.w3.org/2000/svg" width="24" height="32" viewBox="0 0 24 32">
<path d="M15.201 20.822h-5.604v-1.608h5.604c0.002 0 0.005 0 0.008 0 0.216 0 0.412-0.090 0.551-0.234l0-0c0.145-0.14 0.234-0.335 0.234-0.552 0-0.003 0-0.006-0-0.008v0c0-0.002 0-0.005 0-0.008 0-0.216-0.090-0.412-0.234-0.551l-0-0c-0.14-0.145-0.335-0.234-0.552-0.234-0.003 0-0.006 0-0.008 0h-2.403v-0.799c0-0.005 0-0.012 0-0.018 0-0.219-0.090-0.417-0.234-0.559l-0-0c-0.14-0.145-0.335-0.234-0.552-0.234-0.003 0-0.006 0-0.008 0h0c-0.002-0-0.005-0-0.008-0-0.216 0-0.412 0.090-0.551 0.234l-0 0c-0.145 0.142-0.234 0.34-0.234 0.559 0 0.006 0 0.013 0 0.019l-0-0.001v0.799h-2.409c-0.002-0-0.005-0-0.008-0-0.216 0-0.412 0.090-0.551 0.234l-0 0c-0.145 0.14-0.234 0.335-0.234 0.552 0 0.003 0 0.006 0 0.008v-0 3.197c-0 0.002-0 0.005-0 0.008 0 0.216 0.090 0.412 0.234 0.551l0 0c0.14 0.145 0.335 0.234 0.552 0.234 0.003 0 0.006 0 0.008-0h5.588v1.592h-5.589c-0.002-0-0.005-0-0.008-0-0.216 0-0.412 0.090-0.551 0.234l-0 0c-0.145 0.142-0.234 0.34-0.234 0.559 0 0.006 0 0.013 0 0.019l-0-0.001c-0 0.002-0 0.005-0 0.008 0 0.216 0.090 0.412 0.234 0.551l0 0c0.14 0.145 0.335 0.234 0.552 0.234 0.003 0 0.006 0 0.008-0h2.404v0.799c-0 0.002-0 0.005-0 0.008 0 0.216 0.090 0.412 0.234 0.551l0 0c0.14 0.145 0.335 0.234 0.552 0.234 0.003 0 0.006 0 0.008-0h-0c0.002 0 0.005 0 0.008 0 0.216 0 0.412-0.090 0.551-0.234l0-0c0.145-0.14 0.234-0.335 0.234-0.552 0-0.003 0-0.006-0-0.008v0-0.799h2.408c0.002 0 0.005 0 0.008 0 0.216 0 0.412-0.090 0.551-0.234l0-0c0.145-0.14 0.234-0.335 0.234-0.552 0-0.003 0-0.006-0-0.008v0-3.197c0-0.002 0-0.005 0-0.008 0-0.216-0.090-0.412-0.234-0.551l-0-0c-0.14-0.146-0.336-0.237-0.554-0.237-0.002 0-0.004 0-0.006 0h0zM21.96 16.232q-0.421-0.719-0.906-1.382t-0.967-1.264-0.968-1.148-0.922-1.029q-0.655-0.719-1.241-1.405c-0.314-0.35-0.592-0.743-0.82-1.167l-0.016-0.032c0.263-0.15 0.49-0.312 0.699-0.496l-0.005 0.004q0.289-0.257 0.539-0.523c0.145-0.14 0.234-0.335 0.234-0.552 0-0.003 0-0.006-0-0.008v0c0-0.002 0-0.005 0-0.008 0-0.216-0.090-0.412-0.234-0.551l-0-0c-0.124-0.128-0.293-0.211-0.481-0.226l-0.003-0c-0.024-0.003-0.053-0.004-0.082-0.004-0.16 0-0.31 0.045-0.438 0.123l0.004-0.002c0.237-0.662 0.524-1.235 0.87-1.764l-0.019 0.032c0.452-0.688 1.004-1.267 1.644-1.735l0.019-0.013c0.149-0.107 0.256-0.265 0.296-0.447l0.001-0.005c0.015-0.058 0.023-0.125 0.023-0.194 0-0.133-0.031-0.258-0.087-0.369l0.002 0.005q-0.016-0.031-0.211-0.351c-0.172-0.265-0.363-0.495-0.577-0.701l-0.001-0.001c-0.277-0.269-0.592-0.5-0.937-0.684l-0.022-0.011c-0.375-0.197-0.819-0.313-1.291-0.313-0.024 0-0.048 0-0.072 0.001l0.004-0c-0.055-0.006-0.118-0.010-0.182-0.010-0.458 0-0.873 0.182-1.177 0.479l0-0c-0.204 0.235-0.389 0.496-0.547 0.775l-0.012 0.024c-0.050 0.117-0.113 0.217-0.189 0.306l0.001-0.002c-0.069 0.036-0.15 0.058-0.236 0.058-0.021 0-0.042-0.001-0.063-0.004l0.002 0c-0.35-0.008-0.679-0.090-0.973-0.232l0.014 0.006q-0.508-0.226-1.053-0.492-0.655-0.344-1.335-0.624c-0.416-0.178-0.899-0.281-1.407-0.281-0.002 0-0.004 0-0.006 0h-0.049c-0.484 0.012-0.941 0.114-1.359 0.29l0.024-0.009c-0.449 0.182-0.832 0.381-1.193 0.611l0.030-0.018c-0.322 0.202-0.6 0.405-0.862 0.625l0.011-0.009c-0.145 0.118-0.276 0.238-0.398 0.365l-0.001 0.001c-0.080 0.080-0.144 0.176-0.185 0.283l-0.002 0.006c-0.032 0.080-0.050 0.172-0.050 0.268 0 0.024 0.001 0.047 0.003 0.070l-0-0.003c0.011 0.119 0.047 0.228 0.103 0.323l-0.002-0.004c0.058 0.099 0.128 0.184 0.21 0.256l0.001 0.001c0.584 0.43 1.085 0.93 1.501 1.496l0.013 0.019c0.4 0.547 0.733 1.178 0.968 1.854l0.015 0.050c0.009 0.008 0.015 0.019 0.016 0.031v0c0.001 0.013 0.007 0.024 0.016 0.031l0 0c-0.125-0.076-0.277-0.121-0.439-0.121-0.030 0-0.059 0.002-0.088 0.004l0.004-0c-0.194 0.014-0.365 0.097-0.491 0.226l-0 0c-0.144 0.14-0.234 0.335-0.234 0.552 0 0.003 0 0.006 0 0.008v-0c-0 0.002-0 0.005-0 0.008 0 0.216 0.090 0.412 0.234 0.551l0 0q0.265 0.265 0.554 0.523c0.201 0.177 0.423 0.339 0.659 0.48l0.020 0.011c-0.233 0.458-0.509 0.852-0.831 1.203l0.004-0.004q-0.593 0.687-1.233 1.405-0.437 0.484-0.921 1.030t-0.976 1.148-0.968 1.264-0.898 1.382c-0.291 0.472-0.591 1.035-0.857 1.617l-0.041 0.1c-0.219 0.472-0.434 1.048-0.609 1.64l-0.023 0.093c-0.146 0.482-0.277 1.073-0.366 1.677l-0.009 0.072c-0.079 0.531-0.125 1.143-0.125 1.766 0 0.005 0 0.010 0 0.015v-0.001c-0 0.023-0 0.050-0 0.078 0 0.782 0.082 1.545 0.239 2.28l-0.013-0.071c0.156 0.735 0.388 1.384 0.693 1.991l-0.021-0.047c0.309 0.612 0.683 1.139 1.122 1.602l-0.003-0.003c0.454 0.48 0.965 0.899 1.525 1.247l0.032 0.019c0.457 0.276 0.987 0.531 1.542 0.736l0.066 0.021c0.527 0.199 1.168 0.382 1.827 0.516l0.085 0.014c0.63 0.133 1.401 0.244 2.186 0.308l0.070 0.005q1.217 0.102 2.638 0.102t2.638-0.102c0.856-0.069 1.629-0.179 2.386-0.334l-0.126 0.021c0.738-0.148 1.376-0.331 1.991-0.56l-0.089 0.029c0.617-0.228 1.145-0.483 1.642-0.781l-0.044 0.024c0.594-0.364 1.106-0.78 1.558-1.253l0.003-0.003c0.436-0.461 0.81-0.987 1.106-1.56l0.018-0.038c0.289-0.56 0.523-1.209 0.67-1.892l0.009-0.052c0.144-0.664 0.226-1.427 0.226-2.209 0-0.027-0-0.055-0-0.082l0 0.004c0-0.004 0-0.009 0-0.014 0-0.623-0.045-1.235-0.133-1.834l0.008 0.068c-0.098-0.676-0.229-1.266-0.398-1.841l0.023 0.093c-0.198-0.685-0.413-1.26-0.666-1.815l0.034 0.082c-0.306-0.683-0.605-1.247-0.936-1.79l0.040 0.070zM6.849 2.432c0.268-0.195 0.572-0.38 0.892-0.538l0.037-0.016c0.302-0.158 0.659-0.253 1.038-0.257h0.017c0.349 0.007 0.678 0.087 0.974 0.224l-0.015-0.006q0.508 0.218 1.053 0.5 0.655 0.328 1.335 0.609c0.416 0.178 0.899 0.281 1.407 0.281 0.002 0 0.004 0 0.006 0h-0c0.055 0.006 0.119 0.010 0.184 0.010 0.456 0 0.87-0.179 1.176-0.471l-0.001 0.001c0.205-0.231 0.39-0.49 0.548-0.766l0.012-0.023c0.047-0.119 0.11-0.222 0.188-0.31l-0.001 0.001c0.070-0.032 0.151-0.050 0.237-0.050 0.021 0 0.042 0.001 0.062 0.003l-0.003-0c0.008-0 0.017-0 0.027-0 0.276 0 0.534 0.079 0.752 0.215l-0.006-0.004c0.206 0.126 0.384 0.273 0.537 0.443l0.002 0.002c-0.51 0.455-0.958 0.962-1.34 1.518l-0.018 0.028c-0.302 0.44-0.586 0.943-0.824 1.471l-0.025 0.062c-0.178 0.388-0.336 0.846-0.45 1.321l-0.011 0.053q-0.141 0.632-0.187 1.039c-0.295 0.084-0.646 0.15-1.005 0.185l-0.025 0.002c-0.394 0.040-0.852 0.063-1.316 0.063-0.037 0-0.073-0-0.11-0l0.006 0c-0.030 0-0.066 0-0.102 0-0.467 0-0.929-0.023-1.385-0.067l0.058 0.005c-0.38-0.035-0.728-0.101-1.063-0.197l0.040 0.010c-0.054-0.401-0.12-0.742-0.202-1.077l0.014 0.070c-0.124-0.518-0.274-0.963-0.458-1.39l0.021 0.055c-0.245-0.573-0.514-1.063-0.825-1.523l0.020 0.032c-0.381-0.567-0.801-1.060-1.268-1.503l-0.004-0.004zM12.001 30.407c-0.098 0.002-0.213 0.002-0.329 0.002-1.546 0-3.056-0.152-4.517-0.441l0.147 0.024c-1.222-0.229-2.308-0.678-3.265-1.308l0.033 0.021c-0.815-0.557-1.453-1.315-1.852-2.205l-0.013-0.033c-0.382-0.904-0.604-1.954-0.604-3.056 0-0.070 0.001-0.139 0.003-0.208l-0 0.010c-0-0.027-0-0.059-0-0.091 0-1.162 0.191-2.28 0.545-3.323l-0.021 0.073c0.373-1.101 0.819-2.051 1.356-2.939l-0.037 0.066c0.558-0.928 1.133-1.729 1.764-2.479l-0.024 0.029q0.946-1.128 1.801-2.063 0.827-0.921 1.451-1.671c0.36-0.415 0.668-0.889 0.905-1.402l0.015-0.037c0.312 0.069 0.709 0.132 1.111 0.175l0.052 0.004c0.418 0.045 0.904 0.071 1.395 0.071 0.028 0 0.057-0 0.085-0l-0.004 0c0.024 0 0.052 0 0.081 0 0.491 0 0.976-0.026 1.454-0.076l-0.060 0.005c0.454-0.047 0.851-0.111 1.24-0.194l-0.077 0.014c0.243 0.552 0.55 1.026 0.919 1.445l-0.005-0.006q0.632 0.75 1.46 1.671 0.848 0.935 1.798 2.061c0.614 0.723 1.191 1.523 1.702 2.368l0.046 0.083c0.5 0.823 0.944 1.772 1.282 2.771l0.030 0.102c0.327 0.971 0.516 2.089 0.516 3.251 0 0.032-0 0.063-0 0.095l0-0.005c0.002 0.059 0.002 0.129 0.002 0.2 0 1.101-0.219 2.151-0.615 3.109l0.020-0.054c-0.409 0.925-1.048 1.684-1.847 2.226l-0.018 0.012c-0.924 0.609-2.010 1.059-3.177 1.281l-0.056 0.009c-1.309 0.264-2.815 0.416-4.355 0.416-0.118 0-0.236-0.001-0.354-0.003l0.018 0z"></path>
</svg>
