<!-- Generated by IcoMoon.io -->
<svg version="1.1" xmlns="http://www.w3.org/2000/svg" width="32" height="32" viewBox="0 0 32 32">
<path fill="#fff" opacity="0.7" d="M28.853 17.333c-0.192-0.159-0.426-0.261-0.673-0.294s-0.499 0.004-0.727 0.107c-1.41 0.645-2.943 0.977-4.493 0.973-2.868-0.003-5.619-1.141-7.652-3.164s-3.184-4.768-3.202-7.636c0.006-0.899 0.118-1.794 0.333-2.667 0.046-0.233 0.029-0.473-0.050-0.697s-0.215-0.423-0.395-0.576c-0.181-0.154-0.399-0.256-0.632-0.297s-0.474-0.019-0.696 0.064c-2.090 0.94-3.907 2.396-5.28 4.231s-2.257 3.989-2.569 6.259c-0.312 2.27-0.042 4.583 0.785 6.72s2.184 4.029 3.943 5.498c1.759 1.469 3.863 2.467 6.114 2.899s4.574 0.286 6.753-0.426c2.178-0.712 4.14-1.966 5.701-3.645s2.669-3.726 3.221-5.95c0.067-0.255 0.057-0.524-0.028-0.773s-0.243-0.467-0.452-0.627zM16.186 26.253c-2.238-0.016-4.416-0.723-6.236-2.024s-3.194-3.134-3.932-5.246-0.806-4.401-0.194-6.553c0.613-2.152 1.875-4.063 3.616-5.469v0.36c0.004 3.585 1.429 7.021 3.964 9.556s5.971 3.96 9.556 3.964c0.941 0.004 1.88-0.095 2.8-0.293-0.92 1.741-2.298 3.197-3.985 4.212s-3.619 1.55-5.588 1.548v-0.053z"></path>
</svg>
