<!-- Generated by IcoMoon.io -->
<svg version="1.1" xmlns="http://www.w3.org/2000/svg" width="32" height="32" viewBox="0 0 32 32">
<path d="M31.195 8.046c-0.077-0.029-0.167-0.046-0.26-0.046-0.128 0-0.248 0.032-0.353 0.088l0.004-0.002c-0.191 0.094-0.337 0.257-0.405 0.456l-0.002 0.006c-0.144 0.416-0.342 0.776-0.592 1.094l0.006-0.008c-0.251 0.324-0.54 0.604-0.863 0.838l-0.012 0.008c-0.312 0.225-0.672 0.408-1.059 0.532l-0.027 0.008c-0.362 0.119-0.779 0.187-1.213 0.187-0.002 0-0.004 0-0.006 0h0c-0.012 0-0.027 0-0.041 0-0.535 0-1.040-0.13-1.484-0.36l0.018 0.008c-0.467-0.245-0.863-0.558-1.191-0.933l-0.004-0.005c-0.336-0.382-0.621-0.82-0.838-1.295l-0.014-0.033c-0.205-0.436-0.365-0.942-0.456-1.472l-0.005-0.035c-0.084-0.516-0.195-0.966-0.336-1.403l0.019 0.067c-0.157-0.498-0.323-0.915-0.517-1.316l0.025 0.058c-0.216-0.453-0.434-0.834-0.677-1.198l0.021 0.034c-0.259-0.389-0.524-0.728-0.812-1.046l0.007 0.007c-0.326-0.361-0.68-0.686-1.061-0.975l-0.019-0.014c-0.344-0.258-0.735-0.495-1.147-0.692l-0.042-0.018c-0.366-0.177-0.793-0.327-1.239-0.43l-0.042-0.008c-0.406-0.094-0.873-0.148-1.352-0.148-0.005 0-0.010 0-0.015 0h0.001c-0.011-0-0.024-0-0.037-0-0.935 0-1.827 0.184-2.642 0.517l0.047-0.017c-0.847 0.341-1.575 0.802-2.202 1.371l0.006-0.005c-0.628 0.574-1.153 1.248-1.552 2l-0.019 0.040c-0.393 0.734-0.663 1.592-0.755 2.502l-0.002 0.029c-1.166 0.094-2.239 0.41-3.204 0.906l0.048-0.022c-0.993 0.503-1.838 1.147-2.549 1.916l-0.005 0.006c-0.705 0.766-1.282 1.664-1.689 2.65l-0.022 0.060c-0.396 0.948-0.625 2.049-0.625 3.203 0 0.016 0 0.033 0 0.049v-0.002 8c-0 0.017-0 0.038-0 0.059 0 1.218 0.256 2.377 0.717 3.425l-0.021-0.055c0.472 1.086 1.109 2.013 1.891 2.797l-0-0c0.782 0.781 1.71 1.416 2.74 1.861l0.057 0.022c0.992 0.435 2.148 0.688 3.363 0.688 0.018 0 0.036-0 0.054-0h-0.003c0.018 0 0.038 0 0.059 0 1.218 0 2.376-0.253 3.426-0.709l-0.056 0.021c1.087-0.467 2.014-1.102 2.797-1.883l-0 0c0.781-0.782 1.416-1.71 1.861-2.74l0.022-0.057c0.435-0.994 0.688-2.153 0.688-3.37 0-0.021-0-0.041-0-0.062l0 0.003v-8c0-0.013 0-0.029 0-0.045 0-1.146-0.224-2.239-0.63-3.239l0.021 0.058c-0.419-1.041-0.991-1.935-1.698-2.701l0.005 0.006c-0.709-0.77-1.541-1.413-2.468-1.9l-0.050-0.024c-0.905-0.478-1.963-0.801-3.085-0.904l-0.033-0.002c0.096-0.715 0.317-1.361 0.639-1.942l-0.014 0.028c0.33-0.597 0.739-1.106 1.221-1.534l0.006-0.005c0.48-0.424 1.041-0.771 1.655-1.011l0.038-0.013c0.586-0.232 1.265-0.367 1.976-0.367 0.012 0 0.024 0 0.036 0h-0.002c0.014-0 0.031-0 0.048-0 0.746 0 1.45 0.182 2.070 0.504l-0.025-0.012c0.655 0.342 1.211 0.778 1.675 1.299l0.005 0.006c0.469 0.528 0.867 1.134 1.169 1.793l0.019 0.045c0.288 0.608 0.512 1.315 0.635 2.055l0.006 0.047c0.125 0.753 0.343 1.428 0.645 2.055l-0.020-0.045c0.306 0.649 0.683 1.206 1.13 1.698l-0.005-0.005c0.485 0.542 1.069 0.983 1.725 1.298l0.033 0.014c0.603 0.286 1.31 0.453 2.056 0.453 0.010 0 0.021-0 0.031-0h-0.002c0.003 0 0.006 0 0.009 0 0.606 0 1.189-0.1 1.732-0.284l-0.038 0.011c0.581-0.193 1.086-0.453 1.541-0.778l-0.017 0.012c0.471-0.336 0.876-0.726 1.217-1.166l0.010-0.013c0.338-0.434 0.619-0.936 0.816-1.478l0.012-0.038c0.029-0.078 0.046-0.169 0.046-0.263 0-0.129-0.032-0.251-0.087-0.358l0.002 0.004c-0.092-0.195-0.257-0.343-0.458-0.412l-0.006-0.002zM8.006 8.046v6.36h-6.359c0.097-0.869 0.337-1.663 0.699-2.385l-0.018 0.041c0.372-0.75 0.837-1.392 1.391-1.945l0-0c0.553-0.554 1.195-1.019 1.903-1.372l0.042-0.019c0.681-0.342 1.474-0.583 2.311-0.676l0.032-0.003zM8.804 30.406c-0.012 0-0.027 0-0.042 0-0.996 0-1.943-0.21-2.8-0.588l0.044 0.017c-0.889-0.386-1.648-0.908-2.289-1.547l0 0c-0.639-0.641-1.16-1.4-1.528-2.242l-0.018-0.047c-0.36-0.812-0.57-1.759-0.57-2.755 0-0.015 0-0.029 0-0.044v0.002-7.204h14.406v7.204c0 0.012 0 0.027 0 0.042 0 0.996-0.21 1.943-0.588 2.8l0.018-0.044c-0.386 0.889-0.908 1.648-1.547 2.289l0-0c-0.642 0.639-1.401 1.16-2.243 1.527l-0.047 0.018c-0.813 0.361-1.761 0.571-2.758 0.571-0.014 0-0.027-0-0.041-0h0.002zM15.96 14.406h-6.359v-6.36c0.872 0.098 1.668 0.338 2.393 0.699l-0.041-0.019c0.751 0.369 1.393 0.835 1.945 1.391l0 0c0.549 0.554 1.011 1.196 1.363 1.903l0.019 0.043c0.342 0.681 0.583 1.474 0.676 2.311l0.003 0.032z"></path>
</svg>
