<!-- Generated by IcoMoon.io -->
<svg version="1.1" xmlns="http://www.w3.org/2000/svg" width="40" height="32" viewBox="0 0 40 32">
<path d="M30.162 0h-20.049c-2.372 0.003-4.293 1.925-4.296 4.296v20.049c0.003 2.372 1.925 4.294 4.296 4.296h20.049c0.275-0.003 0.542-0.031 0.8-0.083l-0.027 0.005c0.094-0.017 0.185-0.043 0.277-0.067 0.182-0.046 0.331-0.094 0.477-0.149l-0.029 0.010c0.107-0.040 0.211-0.082 0.313-0.13 0.12-0.057 0.235-0.122 0.35-0.19 0.108-0.063 0.216-0.123 0.318-0.195 0.008-0.006 0.018-0.010 0.026-0.016 0.011-0.008 0.020-0.017 0.030-0.026 0.024-0.014 0.044-0.028 0.064-0.043l-0.002 0.001c0.010-0.010 0.013-0.022 0.021-0.032 1.021-0.786 1.673-2.007 1.678-3.381v-20.049c-0.003-2.372-1.925-4.294-4.296-4.296h-0zM30.985 27.073c-0.245 0.082-0.528 0.131-0.821 0.135l-0.002 0h-20.049c-1.581-0.002-2.862-1.283-2.864-2.864v-6.766l5.388-5.388c0.454-0.452 1.080-0.732 1.772-0.732s1.318 0.28 1.772 0.732l4.876 4.875c0.003 0.003 0.003 0.007 0.006 0.009l9.98 9.98c-0.019 0.006-0.038 0.013-0.058 0.018zM33.026 24.345c-0.003 0.74-0.287 1.412-0.751 1.917l0.002-0.002-9.693-9.692 1.512-1.511c0.459-0.44 1.083-0.711 1.77-0.711s1.312 0.271 1.771 0.712l-0.001-0.001 5.39 5.39zM33.026 18.421l-4.377-4.377c-0.713-0.712-1.696-1.152-2.783-1.152s-2.070 0.44-2.783 1.152l-1.512 1.512-4.378-4.377c-0.713-0.712-1.697-1.152-2.784-1.152s-2.071 0.44-2.784 1.152l-4.376 4.376v-11.258c0.002-1.581 1.283-2.863 2.864-2.865h20.049c1.581 0.002 2.862 1.283 2.864 2.864v0zM22.286 5.728c-1.186 0-2.148 0.962-2.148 2.148s0.962 2.148 2.148 2.148c1.186 0 2.148-0.962 2.148-2.148v0c0-1.186-0.962-2.148-2.148-2.148v0zM22.286 8.592c-0.395 0-0.716-0.321-0.716-0.716s0.32-0.716 0.716-0.716c0.395 0 0.716 0.321 0.716 0.716v0c-0 0.395-0.32 0.716-0.716 0.716v0z"></path>
<path d="M12.695 30.472h3.009c0.422 0 0.764 0.342 0.764 0.764v-0c0 0.422-0.342 0.764-0.764 0.764h-3.009c-0.422 0-0.764-0.342-0.764-0.764v0c0-0.422 0.342-0.764 0.764-0.764z"></path>
<path d="M18.617 30.472h3.009c0.422 0 0.764 0.342 0.764 0.764v-0c0 0.422-0.342 0.764-0.764 0.764h-3.009c-0.422 0-0.764-0.342-0.764-0.764v0c0-0.422 0.342-0.764 0.764-0.764z"></path>
<path d="M24.54 30.472h3.009c0.422 0 0.764 0.342 0.764 0.764v-0c0 0.422-0.342 0.764-0.764 0.764h-3.009c-0.422 0-0.764-0.342-0.764-0.764v0c0-0.422 0.342-0.764 0.764-0.764z"></path>
<path d="M0.108 14.553c0.004 0.003 0.009 0.005 0.013 0.008l2.56 2.317c0.070 0.060 0.161 0.097 0.261 0.097s0.191-0.037 0.261-0.098l-0.001 0c0.001-0.001 0.002-0.002 0.003-0.004l0-0c0.068-0.057 0.112-0.141 0.113-0.236v-4.635c-0.002-0.097-0.047-0.183-0.116-0.239l-0.001-0 0.001-0.001c-0.070-0.060-0.161-0.097-0.261-0.097s-0.191 0.037-0.261 0.098l0.001-0-2.573 2.322c-0.066 0.057-0.108 0.141-0.108 0.234s0.042 0.177 0.108 0.234l0 0z"></path>
<path d="M40.167 14.553c-0.004 0.003-0.009 0.005-0.013 0.008l-2.56 2.317c-0.069 0.060-0.161 0.097-0.261 0.097s-0.191-0.037-0.261-0.098l0.001 0c-0.001-0.001-0.002-0.002-0.003-0.004l-0-0c-0.068-0.057-0.112-0.141-0.113-0.236v-4.635c0.002-0.097 0.047-0.183 0.116-0.239l0.001-0-0.001-0.001c0.069-0.060 0.161-0.097 0.261-0.097s0.191 0.037 0.261 0.098l-0.001-0 2.573 2.322c0.066 0.057 0.108 0.141 0.108 0.234s-0.042 0.177-0.108 0.234l-0 0z"></path>
</svg>
