<svg width="30" height="30" fill="none" xmlns="http://www.w3.org/2000/svg"><path d="M9.325 1.802c-2.852.079-4.252.396-5.35 1.209C2.75 3.919 2.133 5.224 1.901 7.4c-.113 1.056-.172 5.009-.11 7.413.062 2.426.096 2.917.262 3.805.353 1.883 1.179 3.071 2.647 3.808.816.41 2.288.698 3.758.735.578.015.684-.022.906-.319.205-.275.085-.803-.226-.992-.163-.099-.225-.108-1.356-.198-2.628-.208-3.763-1.016-4.229-3.01-.253-1.079-.302-2.087-.302-6.142 0-4.69.083-5.762.532-6.892.442-1.113 1.228-1.74 2.575-2.055 1.174-.275 1.953-.302 8.642-.302 6.689 0 7.468.027 8.642.302.799.186 1.515.552 1.915.978.401.426.712 1.065.89 1.827.252 1.075.301 2.093.301 6.142s-.049 5.067-.301 6.142c-.395 1.692-1.255 2.494-3.072 2.863-.582.118-.754.205-.882.444-.236.442-.003.942.492 1.053.104.024.343.003.648-.056 2.507-.486 3.845-1.828 4.314-4.328.166-.887.2-1.379.262-3.806.061-2.403.002-6.36-.11-7.412-.232-2.175-.849-3.481-2.074-4.389-.621-.46-1.395-.768-2.407-.957-.819-.154-1.442-.204-3.143-.254-1.759-.052-9.261-.051-11.15.002M8.556 8.05a.754.754 0 0 0-.504.517c-.103.458.18.85.655.906.147.018 3.084.025 6.527.017 6.232-.015 6.259-.015 6.397-.118.248-.185.331-.341.331-.622 0-.281-.083-.437-.331-.622-.138-.103-.159-.103-6.522-.111-3.511-.004-6.46.01-6.553.033m5.965 6.254c-1.508.176-2.754 1.237-3.229 2.747-.108.347-.117.453-.112 1.449.011 2.607.602 4.917 1.861 7.275.264.495 1.992 3.125 2.053 3.125.018 0 .493-.922 1.056-2.05.563-1.127 1.038-2.05 1.056-2.05.017 0 .839.461 1.825 1.025a73.124 73.124 0 0 0 1.825 1.025c.018 0 .222-.254.455-.564l.424-.563-.191-.249c-.328-.428-1.094-2.023-1.343-2.799-.211-.654-.425-.852-.879-.814-.199.016-.308.055-.402.143-.17.159-.27.357-.27.536 0 .13.193.696.494 1.449l.106.264-.113-.059c-.061-.032-.658-.371-1.326-.753s-1.231-.684-1.25-.672c-.02.013-.396.745-.835 1.627-.44.882-.815 1.604-.834 1.604-.058 0-.531-.837-.889-1.575a13.016 13.016 0 0 1-1.024-2.889l-.031-.138.263.147c.585.325 1.472.487 2.214.402 1.566-.178 2.801-1.211 3.282-2.748.1-.318.118-.48.118-1.074 0-.594-.018-.756-.118-1.074-.483-1.542-1.713-2.569-3.295-2.75a6.031 6.031 0 0 0-.487-.044l-.404.047m1.492 1.66c1.056.522 1.575 1.605 1.31 2.732-.16.678-.638 1.258-1.31 1.59-.382.188-.385.189-1.013.189-.628 0-.631-.001-1.013-.189-.994-.492-1.53-1.523-1.341-2.581.152-.854.769-1.562 1.628-1.868.195-.069.374-.086.804-.075.525.012.571.022.935.202" fill-rule="evenodd" fill="#000"/></svg>