<!-- Generated by IcoMoon.io -->
<svg version="1.1" xmlns="http://www.w3.org/2000/svg" width="43" height="32" viewBox="0 0 43 32">
<path d="M16.933 4.809l9.874 20.407c0.415 0.829 0.622 1.451 0.622 1.865 0 0.878-0.707 1.67-2.121 2.377-0.829 0.414-1.487 0.622-1.975 0.622-0.463 0-0.853-0.11-1.17-0.329-0.293-0.219-0.512-0.451-0.658-0.695-0.122-0.244-0.305-0.61-0.549-1.097l-1.902-3.95h-10.13l-1.902 3.95c-0.244 0.488-0.439 0.841-0.585 1.061-0.122 0.219-0.341 0.451-0.658 0.695-0.293 0.219-0.683 0.329-1.17 0.329-0.463 0-1.109-0.207-1.938-0.622-1.414-0.683-2.121-1.463-2.121-2.341 0-0.414 0.207-1.036 0.622-1.865l9.874-20.443c0.268-0.561 0.671-1.012 1.207-1.353 0.561-0.341 1.146-0.512 1.755-0.512 1.317 0 2.292 0.634 2.926 1.902zM13.971 13.586l-2.414 5.010h4.864l-2.45-5.010z"></path>
<path d="M35.937 7.662h2.962c0.853 0 1.475 0.11 1.865 0.329 0.39 0.195 0.646 0.5 0.768 0.914 0.146 0.415 0.219 0.975 0.219 1.682 0 0.683-0.061 1.231-0.183 1.646s-0.329 0.707-0.622 0.878c-0.439 0.219-1.061 0.329-1.865 0.329h-3.145v2.962c0 0.853-0.11 1.475-0.329 1.865-0.195 0.39-0.5 0.658-0.914 0.805-0.414 0.122-0.975 0.183-1.682 0.183-0.683 0-1.231-0.061-1.646-0.183-0.414-0.146-0.707-0.378-0.878-0.695-0.219-0.463-0.329-1.134-0.329-2.011v-2.926h-3.182c-0.805 0-1.39-0.098-1.755-0.293s-0.61-0.5-0.731-0.914c-0.122-0.439-0.183-1-0.183-1.682s0.061-1.231 0.183-1.646c0.146-0.439 0.39-0.744 0.731-0.914 0.463-0.219 1.134-0.329 2.011-0.329h2.926v-2.962c0-0.853 0.098-1.475 0.293-1.865s0.5-0.646 0.914-0.768c0.439-0.146 1-0.219 1.682-0.219s1.231 0.073 1.646 0.219c0.439 0.122 0.744 0.341 0.914 0.658 0.219 0.463 0.329 1.134 0.329 2.011v2.926z"></path>
</svg>
