<!-- Generated by IcoMoon.io -->
<svg version="1.1" xmlns="http://www.w3.org/2000/svg" width="32" height="32" viewBox="0 0 32 32">
<path d="M18.823 29.091c-5.67-0-10.266-4.597-10.266-10.267s4.597-10.267 10.267-10.267c5.67 0 10.267 4.596 10.267 10.266v0c0 0 0 0 0 0.001 0 5.67-4.597 10.267-10.267 10.267-0 0-0 0-0.001 0h0zM18.823 9.696c-5.040 0.001-9.125 4.087-9.125 9.126s4.086 9.126 9.126 9.126c5.040 0 9.126-4.085 9.126-9.125v-0c0-5.040-4.086-9.126-9.126-9.126-0.001 0-0.001 0-0.002 0h0z"></path>
<path d="M18.823 26.809c-4.41 0-7.986-3.575-7.986-7.986s3.575-7.986 7.986-7.986c4.41 0 7.986 3.575 7.986 7.986v0c0 4.41-3.575 7.986-7.986 7.986v0zM18.823 11.978c-3.78 0-6.845 3.065-6.845 6.845s3.065 6.845 6.845 6.845c3.78 0 6.845-3.065 6.845-6.845v0c0-3.78-3.065-6.845-6.845-6.845v0zM26.575 27.145c-0 0-0 0-0.001 0-0.157 0-0.3-0.064-0.403-0.167l-0.895-0.895c-0.103-0.103-0.167-0.246-0.167-0.403 0-0.315 0.255-0.57 0.57-0.57 0.158 0 0.3 0.064 0.403 0.167l0.895 0.896c0.103 0.103 0.166 0.246 0.166 0.403 0 0.315-0.255 0.57-0.57 0.571h-0z"></path>
<path d="M29.924 32c-0.032 0-0.064 0-0.096 0-0.621-0.030-1.169-0.322-1.54-0.766l-0.003-0.003-2.197-2.636c-0.267-0.315-0.43-0.726-0.43-1.175 0-1.005 0.815-1.82 1.82-1.82 0.449 0 0.86 0.163 1.177 0.432l-0.003-0.002 2.636 2.197c0.471 0.394 0.768 0.982 0.768 1.639 0 0.589-0.239 1.122-0.625 1.508v0c-0.386 0.386-0.919 0.624-1.508 0.625h-0zM27.488 26.749c-0.375 0.001-0.679 0.305-0.679 0.68 0 0.166 0.059 0.318 0.158 0.436l-0.001-0.001 2.197 2.637c0.183 0.219 0.457 0.357 0.762 0.357 0.274 0 0.522-0.111 0.701-0.29v0c0.179-0.18 0.29-0.428 0.29-0.701 0-0.305-0.138-0.579-0.355-0.761l-0.002-0.001-2.637-2.197c-0.117-0.099-0.269-0.159-0.435-0.159h-0zM7.678 23.769h-5.183c-0.003 0-0.007 0-0.011 0-1.367 0-2.476-1.104-2.484-2.469v-14.593c0.003-0.665 0.542-1.202 1.208-1.202 0.001 0 0.001 0 0.002 0h1.928c0.005-0 0.011-0 0.017-0 0.315 0 0.571 0.255 0.571 0.571s-0.255 0.571-0.571 0.571c-0.006 0-0.012-0-0.018-0l0.001 0h-1.928c-0.001-0-0.001-0-0.002-0-0.035 0-0.064 0.028-0.066 0.062v14.591c0.007 0.736 0.605 1.33 1.342 1.33 0.003 0 0.007 0 0.010-0h5.182c0.005-0 0.011-0 0.017-0 0.315 0 0.571 0.255 0.571 0.571s-0.255 0.571-0.571 0.571c-0.006 0-0.012-0-0.018-0l0.001 0zM29.997 23.689c-0.314-0.001-0.569-0.256-0.569-0.571 0-0.257 0.17-0.475 0.404-0.546l0.004-0.001c0.558-0.166 0.958-0.672 0.965-1.271v-14.593c-0.002-0.035-0.031-0.063-0.066-0.063-0.001 0-0.002 0-0.002 0h-1.929c-0.308-0.010-0.553-0.261-0.553-0.57s0.246-0.561 0.552-0.57l0.001-0h1.928c0 0 0.001 0 0.002 0 0.665 0 1.205 0.538 1.207 1.203v14.592c-0.009 1.115-0.75 2.055-1.766 2.362l-0.018 0.005c-0.048 0.015-0.103 0.023-0.161 0.023h-0zM16.103 6.645h-0.263c-0.308-0.010-0.553-0.261-0.553-0.57s0.246-0.561 0.552-0.57l0.001-0h0.263c0.005-0 0.011-0 0.017-0 0.315 0 0.571 0.255 0.571 0.571s-0.255 0.571-0.571 0.571c-0.006 0-0.012-0-0.018-0l0.001 0z"></path>
<path d="M7.001 21.31q-0.022 0-0.043 0c-0.57-0.043-1.157-0.065-1.907-0.073-1.366-0.009-2.471-1.112-2.484-2.476v-13.939c0-0.001 0-0.002 0-0.003 0-0.651 0.519-1.182 1.166-1.2l0.002-0c0.342-0.013 0.743-0.020 1.145-0.020 4.049 0 7.928 0.726 11.515 2.056l-0.229-0.074c0.22 0.082 0.374 0.29 0.374 0.534v1.072c0 0.005 0 0.011 0 0.017 0 0.315-0.255 0.571-0.571 0.571s-0.571-0.255-0.571-0.571c0-0.006 0-0.012 0-0.018l-0 0.001v-0.664c-3.137-1.129-6.756-1.782-10.528-1.782-0.387 0-0.773 0.007-1.157 0.021l0.056-0.002c-0.001-0-0.002-0-0.003-0-0.034 0-0.061 0.027-0.061 0.061 0 0.001 0 0.001 0 0.002v-0 13.937c0.011 0.739 0.612 1.334 1.352 1.336h0c0.775 0.007 1.386 0.030 1.981 0.076 0.293 0.026 0.522 0.271 0.522 0.569 0 0.313-0.252 0.567-0.564 0.571h-0zM28.805 12.784c-0 0-0 0-0.001 0-0.315 0-0.57-0.255-0.57-0.57 0-0 0-0 0-0.001v0-7.39c0-0 0-0.001 0-0.002 0-0.034-0.027-0.061-0.061-0.061-0.001 0-0.002 0-0.003 0h0c-0.306-0.010-0.665-0.016-1.025-0.016-0.979 0-1.948 0.042-2.905 0.126l0.124-0.009c-0.018 0.002-0.039 0.003-0.060 0.003-0.315 0-0.571-0.255-0.571-0.571 0-0.303 0.236-0.55 0.533-0.569l0.002-0c0.863-0.077 1.866-0.12 2.88-0.12 0.372 0 0.743 0.006 1.112 0.018l-0.054-0.001c0.65 0.018 1.17 0.548 1.17 1.201 0 0.001 0 0.002 0 0.003v-0 7.389c0 0 0 0.001 0 0.002 0 0.315-0.255 0.57-0.57 0.57-0 0-0 0-0.001 0h0z"></path>
<path d="M15.972 7.763c-0 0-0 0-0.001 0-0.315 0-0.57-0.255-0.57-0.57 0-0.001 0-0.002 0-0.003v0-1.069c0.010-0.308 0.261-0.553 0.57-0.553s0.561 0.246 0.57 0.552l0 0.001v1.069c0 0 0 0 0 0.001 0 0.315-0.255 0.57-0.57 0.57-0 0-0 0-0.001 0h0z"></path>
<path d="M24.316 8.755c-0 0-0 0-0.001 0-0.315 0-0.57-0.255-0.57-0.57 0-0 0-0 0-0.001v0-6.976c0-0 0-0 0-0 0-0.024-0.013-0.046-0.033-0.057l-0-0c-0.010-0.008-0.023-0.012-0.037-0.012-0.010 0-0.019 0.002-0.028 0.007l0-0c-1.677 0.803-3.121 1.723-4.441 2.79l0.042-0.033c-0.985 0.792-1.867 1.593-2.699 2.443l-0.005 0.005v0.84c-0.010 0.308-0.261 0.553-0.57 0.553s-0.561-0.246-0.57-0.552l-0-0.001v-1.072c0-0 0-0 0-0 0-0.154 0.061-0.294 0.16-0.396l-0 0c0.921-0.955 1.891-1.842 2.915-2.667l0.060-0.047c1.346-1.088 2.867-2.055 4.493-2.839l0.14-0.061c0.148-0.070 0.322-0.11 0.505-0.11 0.669 0 1.211 0.541 1.212 1.209v6.976c0 0 0 0 0 0.001 0 0.315-0.255 0.57-0.57 0.57-0 0-0 0-0.001 0h0z"></path>
<path d="M22.576 15.42c0.235 0.235 0.235 0.615 0 0.85l-6.234 6.234c-0.235 0.235-0.615 0.235-0.85 0s-0.235-0.615 0-0.85l6.234-6.234c0.235-0.235 0.615-0.235 0.85 0z"></path>
<path d="M22.576 22.504c-0.235 0.235-0.615 0.235-0.85 0l-6.234-6.234c-0.235-0.235-0.235-0.615 0-0.85s0.615-0.235 0.85 0l6.234 6.234c0.235 0.235 0.235 0.615 0 0.85z"></path>
</svg>
