<!-- Generated by IcoMoon.io -->
<svg version="1.1" xmlns="http://www.w3.org/2000/svg" width="32" height="32" viewBox="0 0 32 32">
<path d="M13.007 24.782l-9.711-17.108-0.002 19.62c0 0.78-0.632 1.412-1.412 1.412-0.715 0-1.305-0.531-1.399-1.22l-0.013-0.192 0.007-19.978 0.021-0.855 0.030-0.489 0.028-0.297c0.155-1.457 0.582-2.381 1.946-2.381l0.323 0.009c0.609 0.038 1.018 0.211 1.502 0.777l0.25 0.317 0.27 0.39 0.299 0.47 0.334 0.557 0.807 1.404 9.709 17.104 0.004-1.293v-18.323c0-0.78 0.632-1.412 1.412-1.412 0.715 0 1.305 0.531 1.399 1.22l0.013 0.192-0.007 19.978-0.021 0.855-0.030 0.489-0.028 0.297c-0.155 1.457-0.582 2.381-1.946 2.381-0.479 0-0.925-0.146-1.324-0.42l-0.206-0.149-0.187-0.156-0.179-0.177-0.181-0.213c-0.031-0.039-0.062-0.080-0.095-0.124l-0.204-0.292-0.231-0.363-0.422-0.708-0.757-1.323z"></path>
<path d="M30.118 16c0.78 0 1.412 0.632 1.412 1.412 0 0.715-0.531 1.305-1.22 1.399l-0.192 0.013h-8.471c-0.78 0-1.412-0.632-1.412-1.412 0-0.715 0.531-1.305 1.22-1.399l0.192-0.013h8.471z"></path>
<path d="M21.468 4.527c-1.644 1.644-1.644 7.184 0 8.828s7.184 1.644 8.828 0c1.644-1.644 1.644-7.184 0-8.828s-7.184-1.644-8.828 0zM28.3 6.524c0.542 0.541 0.542 4.293 0 4.835s-4.293 0.541-4.835 0c-0.541-0.541-0.541-4.293 0-4.835 0.51-0.51 3.863-0.54 4.707-0.090l0.128 0.090z"></path>
</svg>
