<!-- Generated by IcoMoon.io -->
<svg version="1.1" xmlns="http://www.w3.org/2000/svg" width="32" height="32" viewBox="0 0 32 32">
<path d="M14.795 2.667c-2.443 0.004-4.338 0.028-5.944 0.288s-2.986 0.809-4.035 1.858c-1.131 1.132-1.677 2.642-1.917 4.427s-0.233 3.932-0.233 6.76c0 2.828-0.007 4.975 0.233 6.76s0.785 3.292 1.917 4.424c1.131 1.132 2.639 1.677 4.424 1.917s3.932 0.233 6.76 0.233c2.828 0 4.976 0.007 6.76-0.233s3.292-0.785 4.424-1.917c1.048-1.049 1.598-2.428 1.858-4.035s0.284-3.504 0.288-5.948c0-0.001 0-0.002 0-0.003 0-0.735-0.595-1.331-1.33-1.333h-0c-0.001 0-0.002 0-0.003 0-0.736 0-1.333 0.597-1.333 1.333 0 0 0 0 0 0v0c-0.004 2.423-0.045 4.234-0.253 5.524s-0.531 1.997-1.111 2.576c-0.626 0.626-1.413 0.96-2.896 1.16s-3.575 0.208-6.403 0.208c-2.828 0-4.924-0.009-6.406-0.208s-2.267-0.534-2.892-1.16c-0.626-0.626-0.96-1.409-1.16-2.892s-0.208-3.578-0.208-6.406c0-2.828 0.009-4.923 0.208-6.406s0.534-2.27 1.16-2.896c0.58-0.58 1.286-0.902 2.576-1.111s3.102-0.249 5.524-0.253c0.735-0.002 1.33-0.598 1.33-1.333 0-0.001 0-0.002 0-0.004v0c-0.002-0.735-0.598-1.33-1.333-1.33-0.001 0-0.002 0-0.004 0h0z"></path>
<path d="M21.354 2.743c-0.727 0.012-1.313 0.604-1.313 1.333 0 0.007 0 0.015 0 0.022v-0.001c0.012 0.727 0.604 1.313 1.333 1.313 0.006 0 0.012-0 0.018-0h-0.001c0.468-0.007 1.787-0.024 3.038 0.038 0.108 0.005 0.182 0.021 0.288 0.028l-10.934 10.997c-0.239 0.241-0.387 0.573-0.387 0.939 0 0.37 0.151 0.705 0.394 0.946l0 0c0.241 0.239 0.573 0.387 0.939 0.387 0.37 0 0.705-0.151 0.946-0.394l0-0 10.92-10.983c0.006 0.101 0.019 0.172 0.024 0.274 0.062 1.253 0.045 2.573 0.038 3.042-0 0.005-0 0.011-0 0.018 0 0.729 0.585 1.322 1.311 1.333h0.001c0.006 0 0.014 0 0.021 0 0.729 0 1.322-0.585 1.333-1.312v-0.001c0.007-0.47 0.026-1.843-0.042-3.212-0.034-0.684-0.090-1.365-0.191-1.976-0.048-0.292-0.279-0.592-0.354-0.868-0.021-0.298-0.137-0.566-0.317-0.776l0.002 0.002c-0.024-0.067-0.048-0.123-0.076-0.177l0.003 0.007c0-0.001 0-0.001 0-0.002s0-0.001 0-0.002v0c-0.001-0.001-0.002 0.001-0.004 0s0-0.003 0-0.003c-0.001 0-0.001 0-0.002 0s-0.001 0-0.002 0h0c-0.696-0.693-1.198-0.639-1.805-0.74-0.61-0.101-1.292-0.157-1.976-0.191-1.367-0.068-2.739-0.048-3.208-0.042z"></path>
</svg>
