<svg width="8" height="8" fill="none" xmlns="http://www.w3.org/2000/svg"><path d="M1.893.013a.748.748 0 0 0-.557 1.08c.055.11.201.258.312.317.165.087.072.083 2.015.083a82 82 0 0 1 1.764.01c0 .006-1.19 1.201-2.645 2.657C-.072 7.017.091 6.845.032 7.047a.914.914 0 0 0 .001.413.777.777 0 0 0 .487.501c.114.037.32.04.433.007.201-.059.03.104 2.887-2.75a475.78 475.78 0 0 1 2.657-2.645 82 82 0 0 1 .01 1.764c0 1.943-.004 1.85.083 2.015a.885.885 0 0 0 .317.312.78.78 0 0 0 .508.063.766.766 0 0 0 .548-.499l.03-.088.004-1.673c.006-2.176-.009-2.662-.09-3.026C7.743.708 7.292.257 6.559.093c-.197-.044-.432-.066-.832-.08-.441-.014-3.722-.014-3.834 0" fill-rule="evenodd" fill="#000"/></svg>