<!-- Generated by IcoMoon.io -->
<svg version="1.1" xmlns="http://www.w3.org/2000/svg" width="47" height="32" viewBox="0 0 47 32">
<path fill="#808c98" d="M0.492 15.914c4.431-8.82 12.681-14.769 22.154-14.769s17.723 5.95 22.154 14.769c-4.431 8.822-12.681 14.769-22.154 14.769s-17.723-5.947-22.154-14.769zM4.699 15.914c4.087 6.878 10.819 11.077 17.947 11.077s13.861-4.199 17.947-11.077c-4.087-6.878-10.819-11.077-17.947-11.077s-13.861 4.199-17.947 11.077zM14.338 15.914c0-4.59 3.717-8.308 8.308-8.308 4.588 0 8.308 3.717 8.308 8.308 0 4.589-3.72 8.308-8.308 8.308-4.59 0-8.308-3.719-8.308-8.308zM18.031 15.914c0 2.55 2.066 4.616 4.615 4.616s4.615-2.066 4.615-4.616c0-2.549-2.066-4.615-4.615-4.615s-4.615 2.066-4.615 4.615z"></path>
</svg>
