<svg width="30" height="30" fill="none" xmlns="http://www.w3.org/2000/svg"><path d="M12.264 3.055a.701.701 0 0 0-.29.209c-.071.088-.7 1.466-1.398 3.061l-1.268 2.9-2.867.029c-2.5.026-2.904.04-3.166.115-1.082.31-1.611 1.196-1.464 2.449.069.578.285 1.486.423 1.774.13.272.189.324.801.708.36.226.588.513.69.872.085.296.644 3.455.929 5.243.345 2.167.565 3.027.999 3.893.746 1.491 1.852 2.238 3.728 2.517 1.534.228 9.704.228 11.238 0 1.876-.279 2.982-1.026 3.728-2.517.42-.839.681-1.851.979-3.783.071-.467.308-1.861.526-3.097.493-2.803.469-2.743 1.322-3.263.524-.319.629-.491.824-1.34.186-.817.236-1.249.197-1.726-.07-.844-.617-1.488-1.47-1.728-.252-.071-.628-.088-2.353-.108l-2.053-.024-1.454-2.91c-.801-1.6-1.512-2.978-1.582-3.061-.474-.563-1.456-.026-1.229.672.033.102.631 1.327 1.328 2.722a207 207 0 0 1 1.268 2.561c0 .013-1.457.03-3.237.038l-3.238.014-.182.113a.723.723 0 0 0 0 1.224l.182.113 6.1.025c6.533.027 6.233.014 6.406.278.107.162.074.717-.08 1.372l-.113.475-.275.169a2.743 2.743 0 0 0-.834.752 2.667 2.667 0 0 0-.484.893c-.093.27-.754 3.944-1.041 5.786-.371 2.378-.699 3.32-1.404 4.026-.382.383-.669.547-1.257.717-.847.246-1.117.257-6.193.257s-5.346-.011-6.193-.257c-.588-.17-.875-.334-1.257-.717-.705-.706-1.033-1.648-1.404-4.026-.301-1.928-.949-5.515-1.052-5.821-.128-.377-.509-.963-.805-1.235a3.824 3.824 0 0 0-.495-.371l-.28-.173-.115-.475c-.156-.642-.189-1.207-.08-1.373.184-.281.162-.279 2.845-.265l2.466.013-.614 1.4c-.398.907-.614 1.462-.615 1.576a.72.72 0 0 0 .724.716c.306 0 .537-.162.687-.48.068-.144 1.086-2.466 2.264-5.159 2.298-5.257 2.264-5.166 2.04-5.467-.196-.263-.556-.392-.852-.306m.042 11.244a.758.758 0 0 0-.504.518c-.103.458.179.849.655.907.147.018 1.397.025 2.777.017 2.443-.016 2.512-.019 2.647-.119.248-.185.331-.341.331-.622 0-.281-.083-.437-.331-.622-.135-.101-.197-.103-2.772-.111-1.449-.005-2.71.01-2.803.032" fill-rule="evenodd" fill="#000"/></svg>