<!-- Generated by IcoMoon.io -->
<svg version="1.1" xmlns="http://www.w3.org/2000/svg" width="31" height="32" viewBox="0 0 31 32">
<path d="M10.242 6.072c0.682 0 1.228-0.546 1.228-1.228v-3.616c0-0.682-0.546-1.228-1.228-1.228s-1.228 0.546-1.228 1.228v3.548c-0.068 0.751 0.478 1.296 1.228 1.296z"></path>
<path d="M20.477 6.072c0.682 0 1.228-0.546 1.228-1.228v-3.616c0-0.682-0.546-1.228-1.228-1.228s-1.228 0.546-1.228 1.228v3.548c0 0.751 0.546 1.296 1.228 1.296z"></path>
<path d="M26.413 1.911h-2.115v2.934c0 2.047-1.706 3.753-3.753 3.753s-3.821-1.706-3.821-3.753v-2.934h-2.729v2.934c0 2.047-1.706 3.753-3.753 3.753s-3.753-1.706-3.753-3.753v-2.934h-2.183c-0.682 0-1.228 0.546-1.228 1.228v27.633c0 0.682 0.546 1.228 1.228 1.228h22.107c0.682 0 1.228-0.546 1.228-1.228v-27.633c0-0.682-0.546-1.228-1.228-1.228zM21.091 26.405h-11.463c-0.682 0-1.228-0.546-1.228-1.228s0.546-1.228 1.228-1.228h11.531c0.682 0 1.228 0.546 1.228 1.228s-0.546 1.228-1.296 1.228zM21.091 18.832h-11.463c-0.682 0-1.228-0.546-1.228-1.228s0.546-1.228 1.228-1.228h11.531c0.682 0 1.228 0.546 1.228 1.228s-0.546 1.228-1.296 1.228z"></path>
</svg>
