<!-- Generated by IcoMoon.io -->
<svg version="1.1" xmlns="http://www.w3.org/2000/svg" width="32" height="32" viewBox="0 0 32 32">
<path d="M31.2 9.6c0-4.411-3.589-8-8-8-1.205 0-2.365 0.262-3.445 0.778-0.085 0.040-0.158 0.094-0.221 0.157v0l-16.901 16.901c-0.123 0.123-0.202 0.282-0.226 0.453l-1.6 11.2c-0.035 0.25 0.048 0.501 0.226 0.678 0.15 0.15 0.355 0.234 0.565 0.234 0.037 0 0.075-0.003 0.114-0.008l11.2-1.6c0.171-0.024 0.33-0.104 0.453-0.226l16.888-16.888c0 0 0.002-0.002 0.002-0.002l0.011-0.011c0.062-0.062 0.115-0.136 0.157-0.221 0.517-1.080 0.778-2.24 0.778-3.445zM29.6 9.6c0 0.92-0.19 1.806-0.566 2.635l-1.84 1.84c-0.168-4.595-3.874-8.301-8.469-8.469l1.84-1.84c0.829-0.376 1.715-0.566 2.635-0.566 3.53 0 6.4 2.87 6.4 6.4zM3.208 25.6l0.677-4.742c0.302-0.038 0.608-0.058 0.915-0.058 3.97 0 7.2 3.23 7.2 7.2 0 0.306-0.019 0.613-0.058 0.915l-4.742 0.677c-0.005-2.198-1.792-3.987-3.992-3.992zM16.994 7.338c0.461-0.091 0.933-0.138 1.406-0.138 1.698 0 3.259 0.59 4.491 1.578l-12.464 12.464c-1.45-1.208-3.291-1.96-5.304-2.034l11.869-11.869zM11.56 22.371l12.464-12.464c0.986 1.232 1.578 2.794 1.578 4.491 0 0.474-0.046 0.946-0.138 1.406l-11.869 11.869c-0.074-2.013-0.826-3.854-2.034-5.304zM2.978 27.211c0.074-0.006 0.147-0.011 0.222-0.011 1.323 0 2.4 1.077 2.4 2.4 0 0.075-0.003 0.149-0.011 0.222l-3.046 0.435 0.435-3.046z"></path>
</svg>
