<!-- Generated by IcoMoon.io -->
<svg version="1.1" xmlns="http://www.w3.org/2000/svg" width="32" height="32" viewBox="0 0 32 32">
<path fill="#4d5e6f" d="M31.239 8.033l-7.27-7.27c-0.242-0.242-0.529-0.433-0.845-0.564s-0.654-0.198-0.996-0.198c-0.342 0-0.68 0.067-0.996 0.198s-0.603 0.323-0.845 0.564l-19.524 19.523c-0.243 0.241-0.435 0.528-0.566 0.844s-0.198 0.655-0.197 0.997v7.27c0.001 0.69 0.275 1.352 0.763 1.84s1.15 0.762 1.84 0.763h7.271c0.342 0.001 0.681-0.066 0.997-0.197s0.603-0.323 0.844-0.566l19.524-19.524c0.487-0.489 0.761-1.151 0.761-1.841s-0.274-1.352-0.761-1.841zM26.032 13.239l-7.271-7.27 3.366-3.366 7.271 7.27-3.366 3.366z"></path>
</svg>
