<!-- Generated by IcoMoon.io -->
<svg version="1.1" xmlns="http://www.w3.org/2000/svg" width="32" height="32" viewBox="0 0 32 32">
<path d="M5.6 27.2c-0.208 0-0.413-0.082-0.566-0.235-0.219-0.219-0.293-0.547-0.186-0.838l3.2-8.8c0.040-0.11 0.104-0.21 0.186-0.293l16.8-16.8c0.312-0.312 0.819-0.312 1.131 0l5.6 5.6c0.312 0.312 0.312 0.819 0 1.131l-16.8 16.8c-0.083 0.083-0.182 0.146-0.293 0.186l-8.8 3.2c-0.090 0.032-0.181 0.048-0.274 0.048zM9.491 18.040l-2.554 7.022 7.022-2.554 16.109-16.109-4.469-4.469-16.109 16.109z"></path>
<path d="M28 32h-25.6c-1.323 0-2.4-1.077-2.4-2.4v-25.6c0-1.323 1.077-2.4 2.4-2.4h16c0.442 0 0.8 0.358 0.8 0.8s-0.358 0.8-0.8 0.8h-16c-0.442 0-0.8 0.358-0.8 0.8v25.6c0 0.442 0.358 0.8 0.8 0.8h25.6c0.442 0 0.8-0.358 0.8-0.8v-16c0-0.442 0.358-0.8 0.8-0.8s0.8 0.358 0.8 0.8v16c0 1.323-1.077 2.4-2.4 2.4z"></path>
</svg>
