<!-- Generated by IcoMoon.io -->
<svg version="1.1" xmlns="http://www.w3.org/2000/svg" width="32" height="32" viewBox="0 0 32 32">
<path d="M29.6 32h-27.2c-1.323 0-2.4-1.077-2.4-2.4v-27.2c0-1.323 1.077-2.4 2.4-2.4h27.2c1.323 0 2.4 1.077 2.4 2.4v27.2c0 1.323-1.077 2.4-2.4 2.4zM2.4 1.6c-0.442 0-0.8 0.358-0.8 0.8v27.2c0 0.442 0.358 0.8 0.8 0.8h27.2c0.442 0 0.8-0.358 0.8-0.8v-27.2c0-0.442-0.358-0.8-0.8-0.8h-27.2z"></path>
<path d="M10.4 25.6c-0.128 0-0.256-0.030-0.373-0.091-0.262-0.138-0.427-0.411-0.427-0.707v-17.6c0-0.298 0.165-0.57 0.427-0.707s0.581-0.12 0.826 0.050l12.8 8.8c0.218 0.149 0.347 0.395 0.347 0.659s-0.13 0.51-0.347 0.659l-12.8 8.8c-0.136 0.093-0.294 0.141-0.453 0.141zM11.2 8.722v14.558l10.587-7.278-10.587-7.278z"></path>
</svg>
