<svg width="18" height="18" fill="none" xmlns="http://www.w3.org/2000/svg"><path d="M8.46.782a8.31 8.31 0 0 0-4.619 1.79c-.367.292-.977.902-1.269 1.269A8.57 8.57 0 0 0 .993 7.054a8.5 8.5 0 0 0 0 3.892 8.57 8.57 0 0 0 1.579 3.213c.292.367.902.977 1.269 1.269a8.57 8.57 0 0 0 3.213 1.579c.945.23 2.126.288 3.101.152a8.244 8.244 0 0 0 6.153-4.363c.635-1.231.918-2.399.918-3.796 0-1.397-.283-2.565-.918-3.796a7.777 7.777 0 0 0-1.485-2.027 7.66 7.66 0 0 0-2.178-1.557A7.855 7.855 0 0 0 9.467.779c-.495-.03-.47-.03-1.007.003m1.284 1.5A6.796 6.796 0 0 1 15.421 6.9a6.787 6.787 0 0 1-.265 4.882c-.551 1.231-1.537 2.33-2.721 3.035a6.786 6.786 0 0 1-5.535.604A6.792 6.792 0 0 1 2.579 11.1 6.489 6.489 0 0 1 2.25 9c0-.536.037-.906.14-1.395a6.806 6.806 0 0 1 3.181-4.426 7.062 7.062 0 0 1 2.649-.896c.33-.037 1.188-.038 1.524-.001M8.85 5.278a.766.766 0 0 0-.521.407c-.062.116-.064.158-.073 1.341l-.01 1.22-1.22.01c-1.183.009-1.225.011-1.341.073-.275.148-.414.373-.414.671 0 .298.139.523.414.671.116.062.158.064 1.341.073l1.22.01.01 1.22c.009 1.183.011 1.225.073 1.341.148.275.373.414.671.414.298 0 .523-.139.671-.414.062-.116.064-.158.073-1.341l.01-1.22 1.22-.01c1.183-.009 1.225-.011 1.341-.073.275-.148.414-.373.414-.671 0-.298-.139-.523-.414-.671-.116-.062-.158-.064-1.341-.073l-1.22-.01-.01-1.22c-.009-1.183-.011-1.225-.073-1.341-.167-.311-.495-.474-.821-.407" fill-rule="evenodd" fill="#000"/></svg>