<!-- Generated by IcoMoon.io -->
<svg version="1.1" xmlns="http://www.w3.org/2000/svg" width="32" height="32" viewBox="0 0 32 32">
<path d="M5.333 8h-5.333v20.667c0 1.838 1.495 3.333 3.333 3.333h25.333c1.838 0 3.333-1.495 3.333-3.333v-28.667h-26.667v8zM1.333 28.667v-19.333h4v19.333c0 1.103-0.897 2-2 2s-2-0.897-2-2zM6.667 1.333h24v27.333c0 1.103-0.897 2-2 2h-22.668c0.020-0.026 0.034-0.056 0.053-0.083 0.038-0.054 0.071-0.111 0.106-0.167 0.182-0.292 0.317-0.611 0.399-0.945 0.015-0.063 0.035-0.123 0.047-0.187 0.039-0.201 0.063-0.406 0.063-0.618v-27.333z"></path>
<path d="M9.333 4.667h18.667v1.333h-18.667v-1.333zM12 8h13.333v1.333h-13.333v-1.333zM20 13.333h8v1.333h-8v-1.333zM20 16.667h8v1.333h-8v-1.333zM17.333 13.333h-8v8h8v-8zM16 20h-5.333v-5.333h5.333v5.333zM20 20h8v1.333h-8v-1.333zM9.333 23.333h8v1.333h-8v-1.333zM20 23.333h8v1.333h-8v-1.333zM9.333 26.667h8v1.333h-8v-1.333zM20 26.667h8v1.333h-8v-1.333z"></path>
</svg>
