<!-- Generated by IcoMoon.io -->
<svg version="1.1" xmlns="http://www.w3.org/2000/svg" width="32" height="32" viewBox="0 0 32 32">
<path d="M16.005-0.002c2.209 0.001 4 1.792 4 4.001s-1.791 4.001-4.001 4.001-4.001-1.791-4.001-4.001v0c0-2.21 1.791-4.001 4.001-4.001 0 0 0.001 0 0.001 0h-0zM21.998 18.873l-0.908-7.074c-0.101-1.014-0.95-1.8-1.983-1.8-0.002 0-0.004 0-0.006 0h-1.094c-0.276 0-0.526 0.112-0.708 0.292l-1.292 1.292-1.293-1.292c-0.182-0.18-0.432-0.292-0.708-0.292h-1.094c-0.004-0-0.008-0-0.013-0-1.023 0-1.865 0.772-1.976 1.766l-0.001 0.009-0.91 7.1c-0.005 0.037-0.008 0.081-0.008 0.125 0 0.553 0.447 1.001 1 1.002h1.081l0.836 10.201c0.101 1.015 0.951 1.801 1.984 1.801 0.002 0 0.005 0 0.008 0h2.188c0 0 0 0 0.001 0 1.041 0 1.895-0.795 1.991-1.81l0.001-0.008 0.835-10.183h1.076c0.299-0 0.567-0.131 0.75-0.339l0.001-0.001c0.156-0.174 0.252-0.404 0.252-0.657 0-0.046-0.003-0.091-0.009-0.136l0.001 0.005zM26.008-0.002c2.21 0 4.001 1.791 4.001 4.001s-1.791 4.001-4.001 4.001c-2.21 0-4.001-1.791-4.001-4.001v0c0-2.21 1.791-4.001 4.001-4.001v0zM6.003-0.002c-2.21 0-4.001 1.791-4.001 4.001s1.791 4.001 4.001 4.001c2.21 0 4.001-1.791 4.001-4.001v0c-0.002-2.209-1.792-3.998-4.001-4.001h-0zM32.002 18.873l-0.909-7.072c-0.099-1.015-0.948-1.802-1.981-1.802-0.002 0-0.005 0-0.007 0h-1.094c-0.277 0-0.527 0.112-0.709 0.292l-1.292 1.292-1.292-1.292c-0.181-0.18-0.431-0.291-0.707-0.292h-1.094c-0.132 0.012-0.252 0.035-0.368 0.069l0.014-0.003c0.263 0.432 0.447 0.94 0.519 1.484l0.002 0.020 0.906 7.049c0.016 0.115 0.025 0.248 0.025 0.384 0 0.765-0.287 1.463-0.759 1.992l0.003-0.003c-0.272 0.296-0.603 0.534-0.974 0.696l-0.019 0.007 0.664 6.507c0.101 1.015 0.951 1.801 1.984 1.801 0.002 0 0.004 0 0.006 0h2.188c0 0 0 0 0.001 0 1.041 0 1.895-0.795 1.991-1.81l0.001-0.008 0.833-8.183h1.079c0.298-0 0.566-0.131 0.748-0.339l0.001-0.001c0.155-0.173 0.251-0.404 0.251-0.656 0-0.046-0.003-0.092-0.009-0.137l0.001 0.005zM8.752 20.981c-0.465-0.525-0.748-1.22-0.748-1.981 0-0.133 0.009-0.264 0.026-0.393l-0.002 0.015 0.91-7.103c0.068-0.545 0.245-1.038 0.508-1.473l-0.009 0.016c-0.097-0.029-0.211-0.051-0.329-0.063l-0.008-0.001h-1.094c-0.276 0-0.526 0.112-0.708 0.292l-1.292 1.292-1.293-1.292c-0.181-0.18-0.43-0.291-0.705-0.292h-1.094c-0.004-0-0.008-0-0.013-0-1.023 0-1.865 0.772-1.976 1.766l-0.001 0.009-0.91 7.1c-0.005 0.037-0.008 0.081-0.008 0.125 0 0.553 0.448 1.001 1 1.002h1.072l0.837 8.205c0.101 1.015 0.951 1.801 1.984 1.801 0.002 0 0.004 0 0.006 0h2.188c0 0 0 0 0.001 0 1.041 0 1.895-0.795 1.991-1.81l0.001-0.008 0.664-6.491c-0.391-0.176-0.723-0.418-0.996-0.714l-0.002-0.002z"></path>
</svg>
