<!-- Generated by IcoMoon.io -->
<svg version="1.1" xmlns="http://www.w3.org/2000/svg" width="32" height="32" viewBox="0 0 32 32">
<path d="M13.714 31.61l-3.314-5.524v5.112c0 0.442-0.358 0.8-0.8 0.8s-0.8-0.358-0.8-0.8v0-5.112l-3.314 5.523c-0.142 0.235-0.396 0.389-0.686 0.389h-0c-0.001 0-0.003 0-0.004 0-0.151 0-0.292-0.042-0.411-0.116l0.003 0.002c-0.235-0.142-0.389-0.396-0.389-0.686 0-0.152 0.042-0.294 0.116-0.415l-0.002 0.004 4.073-6.789h-6.586c-0.884 0-1.6-0.716-1.6-1.6v0-12.799c0-0.884 0.716-1.6 1.6-1.6v0h15.999c0.884 0 1.6 0.716 1.6 1.6v0 1.222l-1.6 0.8v-2.027h-15.999v12.799h15.999v-1.902l1.6-0.4v2.302c0 0.884-0.716 1.6-1.6 1.6v0h-6.587l4.073 6.79c0.072 0.117 0.114 0.26 0.114 0.412 0 0.29-0.155 0.544-0.386 0.684l-0.004 0.002c-0.116 0.072-0.258 0.115-0.409 0.115-0 0-0.001 0-0.001 0h0c-0.001 0-0.001 0-0.002 0-0.289 0-0.542-0.153-0.683-0.383l-0.002-0.003zM24 31.999c-0 0-0 0-0 0-0.821 0-1.498-0.619-1.589-1.416l-0.001-0.007-1.397-12.586-4.624 1.156c-0.116 0.030-0.25 0.048-0.387 0.048-0.884 0-1.6-0.716-1.6-1.6 0-0 0-0 0-0.001v0-1.226l-9.82-2.806c-0.337-0.099-0.579-0.405-0.579-0.768 0-0.442 0.358-0.799 0.799-0.799 0.078 0 0.154 0.011 0.226 0.032l-0.006-0.001 9.872 2.821c0.112-0.111 0.241-0.205 0.383-0.28l0.009-0.004 6.4-3.2c0.208-0.107 0.455-0.169 0.716-0.17h6.4c0 0 0 0 0 0 0.783 0 1.434 0.562 1.573 1.304l0.002 0.010 1.6 8.801c0.017 0.086 0.026 0.186 0.026 0.287 0 0.884-0.716 1.6-1.6 1.6-0 0-0 0-0 0h-1.023l-0.582 7.328c-0.068 0.827-0.756 1.473-1.595 1.473-0.002 0-0.004 0-0.005 0h0zM24 30.399h3.2l0.7-8.802h2.5l-1.6-8.801h-2.4v4.868c0 0.442-0.358 0.8-0.8 0.8s-0.8-0.358-0.8-0.8v0-4.868h-2.4l-6.4 3.2v1.6l6.4-1.6zM20.8 4.801c0-2.651 2.149-4.8 4.8-4.8s4.8 2.149 4.8 4.8c0 2.651-2.149 4.8-4.8 4.8v0c-2.652-0.002-4.8-2.152-4.801-4.804v-0zM22.4 4.801c0 1.767 1.433 3.2 3.2 3.2s3.2-1.433 3.2-3.2c0-1.767-1.433-3.2-3.2-3.2v0c-0 0-0.001 0-0.001 0-1.766 0-3.198 1.431-3.2 3.196v0z"></path>
</svg>
