<!-- Generated by IcoMoon.io -->
<svg version="1.1" xmlns="http://www.w3.org/2000/svg" width="32" height="32" viewBox="0 0 32 32">
<path d="M27.2 9.6h-22.4c-2.656 0-4.8 2.144-4.8 4.8v6.4c0 1.76 1.44 3.2 3.2 3.2h3.2v3.2c0 1.76 1.44 3.2 3.2 3.2h12.8c1.76 0 3.2-1.44 3.2-3.2v-3.2h3.2c1.76 0 3.2-1.44 3.2-3.2v-6.4c0-2.656-2.144-4.8-4.8-4.8zM20.8 27.2h-9.6c-0.88 0-1.6-0.72-1.6-1.6v-6.4h12.8v6.4c0 0.88-0.72 1.6-1.6 1.6zM27.2 16c-0.88 0-1.6-0.72-1.6-1.6s0.72-1.6 1.6-1.6c0.88 0 1.6 0.72 1.6 1.6s-0.72 1.6-1.6 1.6zM24 1.6h-16c-0.88 0-1.6 0.72-1.6 1.6v3.2c0 0.88 0.72 1.6 1.6 1.6h16c0.88 0 1.6-0.72 1.6-1.6v-3.2c0-0.88-0.72-1.6-1.6-1.6z"></path>
</svg>
