<!-- Generated by IcoMoon.io -->
<svg version="1.1" xmlns="http://www.w3.org/2000/svg" width="32" height="32" viewBox="0 0 32 32">
<path d="M9.806 9.333c-2.363 0-3.742-0.066-5.073 0.618-0.792 0.408-1.473 1.001-1.979 1.729-0.854 1.228-0.925 2.586-1.16 4.851-0.282 2.713-0.545 4.304 0.24 5.84 0.458 0.897 1.163 1.646 2.031 2.167 1.48 0.887 3.11 0.795 5.941 0.795v-2.667c-2.831 0-4.034-0.092-4.569-0.413-0.449-0.269-0.801-0.65-1.028-1.094-0.263-0.516-0.247-1.638 0.035-4.351 0.235-2.265 0.399-3.172 0.701-3.608 0.253-0.364 0.599-0.667 1.010-0.878 0.502-0.258 1.488-0.323 3.851-0.323h12.389c2.363 0 3.348 0.065 3.851 0.323 0.411 0.211 0.758 0.515 1.010 0.878 0.303 0.435 0.466 1.343 0.701 3.608 0.282 2.713 0.298 3.835 0.035 4.351-0.227 0.444-0.579 0.825-1.028 1.094-0.536 0.321-1.738 0.413-4.569 0.413v2.667c2.831 0 4.461 0.092 5.941-0.795 0.868-0.521 1.573-1.269 2.031-2.167 0.785-1.536 0.521-3.127 0.24-5.84h0.004c-0.235-2.265-0.31-3.623-1.163-4.851-0.506-0.728-1.187-1.322-1.979-1.729-1.331-0.684-2.71-0.618-5.073-0.618z"></path>
<path d="M14.667 1.333c-1.257 0-2.227-0.007-3.104 0.111s-1.749 0.416-2.392 1.059c-0.643 0.643-0.941 1.515-1.059 2.392s-0.111 1.847-0.111 3.104v2.667h2.667v-2.667c0-1.257 0.009-2.175 0.087-2.75s0.164-0.723 0.302-0.861c0.138-0.138 0.286-0.225 0.861-0.302s1.493-0.087 2.75-0.087h2.667c1.257 0 2.175 0.009 2.75 0.087s0.72 0.165 0.858 0.302c0.001 0 0.001 0 0.002 0s0.001 0 0.002 0h-0c0.138 0.138 0.225 0.286 0.302 0.861s0.087 1.493 0.087 2.75v2.667h2.667v-2.667c0-1.257 0.007-2.227-0.111-3.104s-0.416-1.749-1.059-2.392c-0.643-0.643-1.515-0.941-2.392-1.059s-1.847-0.111-3.104-0.111z"></path>
<path d="M13.347 20c-0.914 0-1.516-0.036-2.226 0.229-0.815 0.304-1.491 0.888-1.938 1.632-0.383 0.64-0.49 1.24-0.712 2.201-0.346 1.503-0.615 2.364-0.41 3.413 0.23 1.176 0.95 2.206 2.010 2.767 0.965 0.511 1.847 0.424 3.274 0.424h5.306c1.428 0 2.309 0.084 3.274-0.427 1.059-0.561 1.781-1.589 2.010-2.764 0.205-1.048-0.063-1.91-0.41-3.413-0.222-0.962-0.329-1.562-0.712-2.201-0.446-0.744-1.123-1.328-1.938-1.632-0.71-0.265-1.312-0.229-2.226-0.229zM13.347 22.667h5.306c0.914 0 1.224 0.037 1.292 0.063 0.221 0.083 0.432 0.251 0.583 0.503 0.065 0.108 0.181 0.469 0.403 1.431 0.346 1.503 0.423 2.145 0.392 2.302-0.084 0.43-0.342 0.761-0.642 0.92-0.055 0.029-0.6 0.115-2.028 0.115h-5.306c-1.428 0-1.972-0.085-2.028-0.115-0.3-0.159-0.558-0.49-0.642-0.92-0.031-0.157 0.046-0.799 0.392-2.302 0.222-0.962 0.338-1.322 0.403-1.431 0.151-0.253 0.362-0.421 0.583-0.503 0.068-0.025 0.378-0.063 1.292-0.063z"></path>
<path d="M24 14.222c-0.982 0-1.778 0.796-1.778 1.778v0c0 0.982 0.796 1.778 1.778 1.778v0h0.011c0.982 0 1.778-0.796 1.778-1.778v0c0-0.982-0.796-1.778-1.778-1.778v0z"></path>
</svg>
