<!-- Generated by IcoMoon.io -->
<svg version="1.1" xmlns="http://www.w3.org/2000/svg" width="32" height="32" viewBox="0 0 32 32">
<path d="M15.53 0c-0.332 0-0.656 0.052-0.973 0.156-0.586 0.192-1.001 0.43-1.665 1.017l-0.431 0.396-0.511 0.495-0.611 0.607c-0.595 0.595-1.094 0.851-1.809 0.9l-0.358 0.009-1.11-0.024-0.339 0.004c-1.298 0.035-2.295 0.317-3.077 1.106-0.773 0.779-1.050 1.768-1.084 3.053l-0.002 0.523 0.022 1.008c0 0.871-0.239 1.418-0.909 2.088l-0.318 0.319-0.783 0.803-0.396 0.431c-0.587 0.664-0.826 1.078-1.017 1.665-0.104 0.317-0.156 0.641-0.156 0.973 0 0.965 0.224 1.547 1.118 2.57l0.425 0.467 0.515 0.536 0.613 0.619c0.706 0.706 0.88 1.021 0.905 1.83l0 0.52-0.020 0.928 0.004 0.339c0.035 1.298 0.317 2.295 1.106 3.077 0.779 0.773 1.767 1.049 3.053 1.084l0.523 0.002 1.008-0.022c1.003 0 1.302 0.124 2.012 0.834l0.829 0.877c1.18 1.225 2.149 1.87 3.438 1.87 1.182 0 2.095-0.543 3.148-1.576l0.366-0.373 0.754-0.798c0.639-0.639 0.945-0.803 1.731-0.829l0.543-0.001 0.929 0.021 0.34-0.004c1.285-0.035 2.273-0.311 3.053-1.084 0.789-0.782 1.070-1.779 1.106-3.077l0.002-0.522-0.022-1.006c0-0.916 0.11-1.251 0.713-1.887l0.809-0.819 0.515-0.536 0.425-0.467c0.894-1.022 1.118-1.605 1.118-2.57 0-1.034-0.256-1.629-1.319-2.796l-0.469-0.5-0.882-0.896c-0.706-0.706-0.88-1.021-0.906-1.83l-0-0.52 0.021-0.928-0.004-0.339c-0.035-1.298-0.317-2.295-1.105-3.077-0.78-0.773-1.768-1.050-3.053-1.084l-0.523-0.002-1.008 0.022c-0.871 0-1.418-0.239-2.088-0.909l-0.619-0.613-0.536-0.515-0.467-0.425c-1.022-0.894-1.605-1.117-2.57-1.117zM15.53 2.824c0.076 0 0.163 0.026 0.288 0.101l0.169 0.116 0.215 0.174 0.431 0.388 0.374 0.357 0.717 0.708c1.087 1.087 2.234 1.64 3.682 1.725l0.502 0.011 1.086-0.024 0.269 0.003c0.634 0.017 0.99 0.117 1.141 0.267 0.131 0.13 0.224 0.411 0.258 0.891l0.015 0.389-0.024 1.321c0 1.65 0.383 2.643 1.472 3.811l0.972 0.99 0.357 0.374 0.277 0.303 0.206 0.242 0.144 0.191c0.116 0.169 0.153 0.276 0.153 0.368 0 0.076-0.026 0.163-0.101 0.288l-0.116 0.169-0.174 0.215-0.388 0.431-0.357 0.374-0.708 0.717c-1.2 1.2-1.669 2.162-1.729 3.715l-0.007 0.469 0.024 1.084-0.003 0.269c-0.017 0.64-0.118 0.997-0.271 1.149-0.151 0.15-0.507 0.249-1.141 0.266l-0.603-0.003-0.851-0.018c-1.616 0-2.608 0.358-3.726 1.389l-0.367 0.358-0.781 0.828c-0.676 0.702-1.132 1.006-1.405 1.006-0.243 0-0.629-0.24-1.187-0.786l-1.083-1.134c-1.145-1.145-2.1-1.591-3.618-1.653l-0.491-0.007-1.086 0.024-0.269-0.003c-0.634-0.017-0.99-0.117-1.141-0.267-0.131-0.13-0.224-0.411-0.259-0.891l-0.015-0.389 0.023-1.32c0-1.776-0.444-2.792-1.736-4.085l-0.708-0.717-0.357-0.374-0.277-0.303-0.206-0.242-0.144-0.191c-0.097-0.141-0.138-0.239-0.15-0.32l-0.003-0.047c0-0.032 0.005-0.059 0.016-0.096l0.056-0.133 0.095-0.156 0.143-0.192 0.203-0.239 0.273-0.298 0.798-0.821c0.082-0.083 0.169-0.17 0.26-0.261 1.087-1.087 1.64-2.234 1.725-3.682l0.011-0.502-0.024-1.086 0.003-0.269c0.017-0.634 0.117-0.99 0.266-1.141 0.13-0.131 0.411-0.224 0.891-0.259l0.389-0.015 1.321 0.023c1.641 0 2.899-0.55 4.084-1.736l0.713-0.704 0.526-0.499 0.267-0.237 0.214-0.172c0.032-0.024 0.062-0.045 0.091-0.065l0.156-0.095 0.133-0.056 0.049-0.013 0.046-0.004z"></path>
<path d="M19.113 10.748c0.692-0.36 1.544-0.092 1.904 0.6s0.091 1.544-0.6 1.904c-1.006 0.524-2.059 1.521-3.083 2.855-0.599 0.78-1.149 1.622-1.634 2.465l-0.367 0.659-0.224 0.438c-0.481 1.002-1.877 1.081-2.468 0.14-0.181-0.288-0.448-0.589-0.78-0.885-0.314-0.28-0.632-0.514-0.894-0.686l-0.345-0.208c-0.685-0.372-0.939-1.229-0.567-1.914s1.229-0.939 1.914-0.567c0.387 0.21 0.902 0.543 1.445 0.988l0.14 0.12 0.121-0.201c0.29-0.47 0.597-0.937 0.922-1.393l0.499-0.675c1.253-1.631 2.585-2.893 4.018-3.639z"></path>
</svg>
