<!-- Generated by IcoMoon.io -->
<svg version="1.1" xmlns="http://www.w3.org/2000/svg" width="32" height="32" viewBox="0 0 32 32">
<path fill="#ffa800" d="M16.421 1.285c-2.998 0-5.929 0.889-8.421 2.555s-4.436 4.033-5.583 6.803c-1.147 2.77-1.447 5.817-0.863 8.758s2.029 5.641 4.148 7.761c2.12 2.12 4.821 3.564 7.761 4.149s5.988 0.285 8.758-0.863c2.77-1.147 5.137-3.090 6.803-5.583s2.555-5.423 2.555-8.421c-0.003-4.019-1.601-7.873-4.443-10.715s-6.696-4.44-10.715-4.443zM16.13 26.751c-1.353 0-2.692-0.268-3.941-0.788s-2.382-1.283-3.335-2.243c-0.059-0.057-0.105-0.124-0.137-0.199s-0.048-0.156-0.048-0.237c0-0.082 0.016-0.162 0.048-0.237s0.079-0.143 0.137-0.199l6.96-6.682v-9.422c0-0.161 0.064-0.315 0.178-0.429s0.268-0.178 0.429-0.178c1.375-0.072 2.751 0.144 4.038 0.633s2.459 1.242 3.439 2.21c0.98 0.968 1.748 2.129 2.254 3.41s0.74 2.653 0.685 4.030c-0.054 2.789-1.212 5.442-3.219 7.379s-4.7 2.999-7.489 2.953z"></path>
</svg>
