<!-- Generated by IcoMoon.io -->
<svg version="1.1" xmlns="http://www.w3.org/2000/svg" width="32" height="32" viewBox="0 0 32 32">
<path d="M8.167 13.528c-2.228 0-4.035 1.806-4.035 4.035s1.806 4.035 4.035 4.035c2.228 0 4.035-1.806 4.035-4.035v0c0-2.228-1.806-4.035-4.035-4.035v0zM8.167 19.816c-1.242-0.002-2.248-1.009-2.248-2.251s1.008-2.251 2.251-2.251 2.251 1.008 2.251 2.251v0c-0.003 1.243-1.011 2.25-2.254 2.251h-0zM16.334 30.977c-0.039-4.481-3.681-8.098-8.167-8.098-4.511 0-8.167 3.657-8.167 8.167 0 0.024 0 0.049 0 0.073l-0-0.004c0 0.001 0 0.003 0 0.004 0 0.489 0.397 0.886 0.886 0.886 0.001 0 0.003 0 0.004 0h14.567c0.005 0 0.012 0 0.018 0 0.482 0 0.872-0.391 0.872-0.872 0-0.056-0.005-0.11-0.015-0.163l0.001 0.005zM1.837 30.223c0.453-3.126 3.114-5.501 6.33-5.501s5.877 2.375 6.326 5.466l0.004 0.034h-12.661zM22.72 0c-0.002 0-0.004 0-0.006 0-5.13 0-9.288 4.159-9.288 9.288 0 2.162 0.739 4.152 1.978 5.73l-0.015-0.020-1.071 5.539c-0.009 0.048-0.014 0.103-0.014 0.159 0 0.319 0.165 0.599 0.414 0.761l0.004 0.002c0.136 0.072 0.297 0.114 0.469 0.114 0.197 0 0.381-0.056 0.537-0.152l-0.004 0.003 4.355-3.226c0.787 0.244 1.692 0.385 2.63 0.385h0c0.002 0 0.005 0 0.007 0 5.131 0 9.291-4.16 9.291-9.291 0-5.129-4.156-9.287-9.284-9.291h-0zM22.72 16.801c-0.004 0-0.008 0-0.013 0-0.889 0-1.74-0.159-2.528-0.449l0.051 0.016c-0.089-0.032-0.191-0.051-0.298-0.051-0.202 0-0.389 0.067-0.539 0.179l0.002-0.002-2.894 2.14 0.71-3.711c0.012-0.054 0.019-0.116 0.019-0.179 0-0.218-0.081-0.418-0.214-0.57l0.001 0.001c-1.123-1.305-1.807-3.017-1.807-4.888 0-4.149 3.364-7.513 7.513-7.513s7.513 3.364 7.513 7.513c0 4.149-3.364 7.513-7.513 7.513-0.001 0-0.001 0-0.002 0h0zM22.776 3.236h-0.056c-0.008-0-0.017-0-0.026-0-0.964 0-1.836 0.393-2.465 1.028l-0 0c-0.659 0.644-1.069 1.541-1.071 2.533v0c0.002 0.491 0.399 0.889 0.89 0.892h0c0.003 0 0.005 0 0.008 0 0.487 0 0.882-0.395 0.882-0.882 0-0.003-0-0.007-0-0.010v0.001c0.001-0.495 0.203-0.942 0.529-1.265l0-0c0.32-0.316 0.76-0.511 1.245-0.511 0.971 0 1.76 0.781 1.774 1.749v0.001c0 0.016 0.001 0.034 0.001 0.052 0 0.626-0.331 1.175-0.828 1.481l-0.008 0.004c-1.088 0.663-1.807 1.838-1.823 3.181l-0 0.002c0 0.492 0.399 0.89 0.89 0.89s0.89-0.399 0.89-0.89v0c0.020-0.71 0.408-1.325 0.979-1.665l0.009-0.005c1.017-0.634 1.684-1.747 1.684-3.015 0-0.019-0-0.037-0-0.056l0 0.003c-0.043-1.922-1.586-3.469-3.501-3.52l-0.005-0zM22.72 13.223c-0.003-0-0.005-0-0.008-0-0.487 0-0.882 0.395-0.882 0.882 0 0.003 0 0.006 0 0.009v-0 0.342c0 0.492 0.399 0.89 0.89 0.89s0.89-0.399 0.89-0.89v0-0.342c0-0.001 0-0.003 0-0.004 0-0.492-0.398-0.891-0.89-0.892h-0z"></path>
</svg>
