<!-- Generated by IcoMoon.io -->
<svg version="1.1" xmlns="http://www.w3.org/2000/svg" width="32" height="32" viewBox="0 0 32 32">
<path d="M7.124 5.703c-0.306 0-1.079 0.46-1.079 1.762v2.073c0 0.736-0.597 1.333-1.333 1.333s-1.333-0.597-1.333-1.333v-2.073c0-2.117 1.386-4.429 3.746-4.429h4.459c0.736 0 1.333 0.597 1.333 1.333s-0.597 1.333-1.333 1.333h-4.459zM19.498 4.37c0-0.736 0.597-1.333 1.333-1.333h4.468c2.359 0 3.746 2.311 3.746 4.429v2.073c0 0.736-0.597 1.333-1.333 1.333s-1.333-0.597-1.333-1.333v-2.073c0-1.302-0.773-1.762-1.079-1.762h-4.468c-0.736 0-1.333-0.597-1.333-1.333zM4.711 19.658c0.736 0 1.333 0.597 1.333 1.333v2.062c0 1.309 0.779 1.773 1.079 1.773h4.459c0.736 0 1.333 0.597 1.333 1.333s-0.597 1.333-1.333 1.333h-4.459c-2.364 0-3.746-2.329-3.746-4.44v-2.062c0-0.737 0.597-1.333 1.333-1.333zM27.711 19.658c0.736 0 1.333 0.597 1.333 1.333v2.062c0 2.111-1.381 4.44-3.746 4.44h-4.468c-0.736 0-1.333-0.597-1.333-1.333s0.597-1.333 1.333-1.333h4.468c0.3 0 1.079-0.465 1.079-1.773v-2.062c0-0.736 0.597-1.333 1.333-1.333z"></path>
<path d="M11.207 10.489c-0.047 0.064-0.11 0.202-0.11 0.402v1.162c0 0.736-0.597 1.333-1.333 1.333s-1.333-0.597-1.333-1.333v-1.162c0-1.366 0.912-3.069 2.686-3.069h2.5c0.736 0 1.333 0.597 1.333 1.333s-0.597 1.333-1.333 1.333h-2.409zM17.468 9.156c0-0.736 0.597-1.333 1.333-1.333h2.505c1.774 0 2.686 1.702 2.686 3.069v1.162c0 0.736-0.597 1.333-1.333 1.333s-1.333-0.597-1.333-1.333v-1.162c0-0.201-0.063-0.338-0.11-0.402h-2.414c-0.736 0-1.333-0.597-1.333-1.333zM9.764 17.142c0.736 0 1.333 0.597 1.333 1.333v1.156c0 0.202 0.064 0.342 0.113 0.408h2.407c0.736 0 1.333 0.597 1.333 1.333s-0.597 1.333-1.333 1.333h-2.5c-1.779 0-2.686-1.715-2.686-3.075v-1.156c0-0.736 0.597-1.333 1.333-1.333zM22.659 17.142c0.736 0 1.333 0.597 1.333 1.333v1.156c0 1.36-0.907 3.075-2.686 3.075h-2.505c-0.736 0-1.333-0.597-1.333-1.333s0.597-1.333 1.333-1.333h2.412c0.049-0.066 0.113-0.207 0.113-0.408v-1.156c0-0.736 0.597-1.333 1.333-1.333z"></path>
<path d="M3.378 15.265c0-0.736 0.597-1.333 1.333-1.333h23c0.736 0 1.333 0.597 1.333 1.333s-0.597 1.333-1.333 1.333h-23c-0.736 0-1.333-0.597-1.333-1.333z"></path>
</svg>
