<!-- Generated by IcoMoon.io -->
<svg version="1.1" xmlns="http://www.w3.org/2000/svg" width="32" height="32" viewBox="0 0 32 32">
<path d="M14.564 23.149c0-0.811 0.657-1.468 1.468-1.468s1.468 0.657 1.468 1.468v0c0 0.811-0.657 1.468-1.468 1.468s-1.468-0.657-1.468-1.468v0z"></path>
<path d="M16.032 28.64c-0.001 0-0.002 0-0.004 0-7.002 0-12.678-5.676-12.678-12.678 0-0.003 0-0.005 0-0.008v0c0-0.002 0-0.004 0-0.006 0-7.002 5.676-12.678 12.678-12.678 0.002 0 0.004 0 0.006 0h-0c0.002 0 0.005 0 0.008 0 7.002 0 12.678 5.676 12.678 12.678 0 0.002 0 0.004 0 0.006v-0c0 0.002 0 0.005 0 0.008 0 7.002-5.676 12.678-12.678 12.678-0.003 0-0.005 0-0.008 0h0zM16.032 0.922c-0.002 0-0.005 0-0.008 0-8.298 0-15.025 6.727-15.025 15.025 0 0.003 0 0.005 0 0.008v-0c0 0.002 0 0.005 0 0.008 0 8.298 6.727 15.025 15.025 15.025 0.003 0 0.005 0 0.008 0h-0c0.002 0 0.005 0 0.008 0 8.298 0 15.025-6.727 15.025-15.025 0-0.003 0-0.005 0-0.008v0c0-0.002 0-0.005 0-0.008 0-8.298-6.727-15.025-15.025-15.025-0.003 0-0.005 0-0.008 0h0z"></path>
<path d="M16.032 8.469c-2.593 0.003-4.694 2.105-4.696 4.698v0c0 0.649 0.526 1.175 1.175 1.175s1.175-0.526 1.175-1.175v0c0-1.297 1.054-2.349 2.347-2.349 1.295 0 2.349 1.054 2.349 2.349-0.003 1.296-1.053 2.345-2.349 2.347h-0c-0.649 0-1.175 0.526-1.175 1.175v2.936c0 0.649 0.526 1.175 1.175 1.175s1.175-0.526 1.175-1.175v-1.911c2.041-0.543 3.52-2.372 3.524-4.547v-0c-0.002-2.594-2.104-4.696-4.698-4.698h-0z"></path>
</svg>
