<!-- Generated by IcoMoon.io -->
<svg version="1.1" xmlns="http://www.w3.org/2000/svg" width="30" height="32" viewBox="0 0 30 32">
<path fill="#227aff" d="M15.237 3.301c-2.511 0-4.967 0.745-7.055 2.14s-3.716 3.379-4.677 5.699c-0.961 2.32-1.213 4.874-0.723 7.337s1.699 4.726 3.475 6.502c1.776 1.776 4.039 2.985 6.502 3.475s5.017 0.238 7.337-0.723c2.32-0.961 4.304-2.589 5.699-4.677s2.14-4.543 2.14-7.055c0-1.668-0.329-3.319-0.967-4.859s-1.573-2.941-2.753-4.12-2.579-2.114-4.12-2.753c-1.541-0.638-3.192-0.967-4.86-0.967zM15.237 26.158c-2.009 0-3.973-0.596-5.644-1.712s-2.973-2.703-3.742-4.559c-0.769-1.856-0.97-3.899-0.578-5.87s1.359-3.781 2.78-5.201 3.231-2.388 5.201-2.78c1.971-0.392 4.013-0.191 5.869 0.578s3.443 2.071 4.559 3.742c1.116 1.671 1.712 3.635 1.712 5.644 0 2.694-1.070 5.278-2.975 7.183s-4.489 2.975-7.183 2.975z"></path>
<path fill="#227aff" d="M15.479 9.649h-0.482c-0.946 0-1.854 0.376-2.523 1.045s-1.045 1.577-1.045 2.523v0.241c0 0.337 0.134 0.66 0.372 0.898s0.561 0.372 0.898 0.372c0.337 0 0.66-0.134 0.898-0.372s0.372-0.561 0.372-0.898v-0.241c0-0.273 0.108-0.534 0.301-0.727s0.455-0.301 0.727-0.301h0.482c0.142 0.001 0.283 0.032 0.413 0.090s0.247 0.142 0.343 0.246 0.17 0.228 0.217 0.363c0.047 0.134 0.066 0.277 0.055 0.419 0.001 0.193-0.052 0.381-0.153 0.545s-0.246 0.296-0.418 0.382c-0.595 0.292-1.095 0.746-1.444 1.31s-0.53 1.215-0.525 1.877c0 0.337 0.134 0.66 0.372 0.898s0.561 0.372 0.898 0.372c0.337 0 0.66-0.134 0.898-0.372s0.372-0.561 0.372-0.898c-0.001-0.192 0.052-0.381 0.153-0.545s0.246-0.296 0.418-0.382c0.722-0.367 1.299-0.966 1.641-1.7s0.427-1.561 0.242-2.35-0.628-1.492-1.259-1.999c-0.631-0.507-1.415-0.787-2.224-0.796zM16.14 20.176l-0.19-0.152-0.229-0.114c-0.076-0.039-0.157-0.064-0.241-0.076-0.163-0.038-0.332-0.038-0.495 0l-0.229 0.076-0.229 0.114-0.19 0.152c-0.116 0.121-0.206 0.263-0.267 0.419-0.067 0.152-0.102 0.316-0.102 0.482s0.035 0.331 0.102 0.483c0.064 0.154 0.155 0.296 0.267 0.419 0.118 0.119 0.258 0.213 0.413 0.278s0.321 0.098 0.488 0.098c0.168 0 0.334-0.033 0.488-0.098s0.295-0.159 0.413-0.278c0.112-0.123 0.202-0.265 0.267-0.419 0.067-0.152 0.102-0.316 0.102-0.483s-0.035-0.331-0.102-0.482c-0.061-0.156-0.151-0.298-0.267-0.419z"></path>
</svg>
