<!-- Generated by IcoMoon.io -->
<svg version="1.1" xmlns="http://www.w3.org/2000/svg" width="32" height="32" viewBox="0 0 32 32">
<path d="M26.389 0h-20.779c-3.114 0.071-5.612 2.613-5.612 5.737 0 0.038 0 0.076 0.001 0.114l-0-0.006v13.355c-0.001 0.032-0.001 0.070-0.001 0.108 0 3.125 2.497 5.666 5.605 5.737l0.007 0h13.227l6.336 6.613c0.202 0.206 0.482 0.336 0.793 0.341h0.001c0.006 0 0.013 0 0.021 0 0.147 0 0.287-0.032 0.413-0.088l-0.006 0.003c0.413-0.195 0.693-0.607 0.693-1.086 0-0.001 0-0.002 0-0.002v0-5.824c2.796-0.427 4.914-2.815 4.914-5.698 0-0.037-0-0.074-0.001-0.111l0 0.006v-13.355c0.001-0.032 0.001-0.070 0.001-0.108 0-3.125-2.497-5.666-5.605-5.737l-0.007-0zM29.303 19.072c0 0.021 0.001 0.045 0.001 0.069 0 1.812-1.45 3.285-3.253 3.323l-0.004 0h-0.401c-0.604 0.018-1.086 0.511-1.086 1.117 0 0.012 0 0.024 0.001 0.036l-0-0.002v3.989l-4.593-4.8c-0.192-0.206-0.463-0.337-0.765-0.341h-13.251c-1.806-0.038-3.256-1.511-3.256-3.323 0-0.024 0-0.048 0.001-0.073l-0 0.004v-12.949c-0.001-0.021-0.001-0.046-0.001-0.072 0-1.816 1.448-3.293 3.252-3.342l0.004-0h20.096c1.809 0.048 3.256 1.526 3.256 3.342 0 0.025-0 0.050-0.001 0.075l0-0.004v12.949zM11.678 10.155c0.208 0.236 0.511 0.384 0.849 0.384 0.006 0 0.012-0 0.018-0h-0.001c0.612-0.022 1.109-0.486 1.181-1.082l0.001-0.006c0.169-0.599 0.447-1.12 0.814-1.564l-0.006 0.007c0.338-0.335 0.803-0.542 1.316-0.542 0.063 0 0.124 0.003 0.185 0.009l-0.008-0.001c0.023-0.001 0.051-0.002 0.079-0.002 0.513 0 0.98 0.195 1.331 0.515l-0.002-0.001c0.336 0.322 0.544 0.774 0.544 1.274 0 0.009-0 0.019-0 0.028l0-0.001c0 0.005 0 0.010 0 0.016 0 0.26-0.066 0.504-0.183 0.717l0.004-0.008c-0.123 0.236-0.27 0.44-0.441 0.62l0.001-0.001c-0.173 0.171-0.457 0.448-0.853 0.811-0.38 0.335-0.728 0.676-1.058 1.035l-0.009 0.010c-0.265 0.296-0.481 0.643-0.632 1.022l-0.008 0.023c-0.152 0.385-0.24 0.831-0.24 1.297 0 0.031 0 0.063 0.001 0.094l-0-0.005c-0.002 0.029-0.004 0.063-0.004 0.098 0 0.332 0.124 0.634 0.329 0.863l-0.001-0.001c0.201 0.211 0.484 0.342 0.798 0.342 0.574 0 1.045-0.439 1.096-0.999l0-0.004c0.066-0.32 0.117-0.533 0.151-0.661 0.040-0.14 0.088-0.26 0.146-0.375l-0.006 0.012c0.082-0.162 0.175-0.302 0.282-0.43l-0.003 0.003c0.159-0.184 0.323-0.351 0.496-0.508l0.005-0.004c0.751-0.704 1.28-1.195 1.562-1.493 0.292-0.308 0.543-0.659 0.741-1.041l0.012-0.025c0.2-0.393 0.317-0.858 0.317-1.349 0-0.028-0-0.056-0.001-0.084l0 0.004c0-0.001 0-0.002 0-0.003 0-0.711-0.207-1.374-0.563-1.932l0.009 0.014c-0.391-0.595-0.923-1.067-1.549-1.376l-0.023-0.010c-0.655-0.324-1.427-0.513-2.242-0.513-0.037 0-0.073 0-0.11 0.001l0.005-0c-0.028-0.001-0.061-0.001-0.094-0.001-0.884 0-1.713 0.23-2.433 0.633l0.025-0.013c-0.676 0.369-1.227 0.889-1.621 1.518l-0.011 0.018c-0.341 0.526-0.548 1.165-0.561 1.853l-0 0.003c0.014 0.319 0.15 0.603 0.362 0.81l0 0zM16.753 19.456c0.256-0.253 0.414-0.604 0.414-0.992 0-0.026-0.001-0.053-0.002-0.079l0 0.004c0-0.006 0-0.013 0-0.021 0-0.381-0.15-0.728-0.395-0.983l0 0c-0.234-0.25-0.566-0.406-0.935-0.406-0.013 0-0.025 0-0.037 0.001l0.002-0c-0.012-0-0.026-0.001-0.040-0.001-0.373 0-0.71 0.156-0.949 0.405l-0 0c-0.251 0.252-0.405 0.599-0.405 0.983 0 0.007 0 0.014 0 0.021v-0.001c-0.001 0.022-0.002 0.049-0.002 0.075 0 0.391 0.165 0.743 0.428 0.991l0.001 0.001c0.25 0.238 0.588 0.384 0.961 0.384 0.006 0 0.011-0 0.017-0h-0.001c0.368-0 0.701-0.147 0.945-0.384l-0 0z"></path>
</svg>
