<!-- Generated by IcoMoon.io -->
<svg version="1.1" xmlns="http://www.w3.org/2000/svg" width="32" height="32" viewBox="0 0 32 32">
<path d="M16 29.333c-7.364 0-13.333-5.969-13.333-13.333s5.969-13.333 13.333-13.333c7.364 0 13.333 5.969 13.333 13.333s-5.969 13.333-13.333 13.333zM14.552 17.701c-0.112 0.747 0.523 1.363 1.277 1.363h0.627c0.178 0 0.349-0.068 0.479-0.19s0.208-0.289 0.219-0.466c0.076-0.701 0.377-1.315 0.901-1.839l0.84-0.827c0.656-0.66 1.115-1.259 1.377-1.796 0.263-0.545 0.393-1.123 0.393-1.732 0-1.34-0.404-2.376-1.212-3.107-0.808-0.739-1.944-1.108-3.408-1.108-1.451 0-2.596 0.387-3.44 1.161-0.5 0.463-0.865 1.053-1.057 1.707-0.245 0.805 0.48 1.508 1.32 1.508 0.712 0 1.244-0.58 1.739-1.12 0.069-0.076 0.137-0.152 0.205-0.224 0.312-0.329 0.723-0.493 1.233-0.493 1.077 0 1.616 0.605 1.616 1.816 0 0.401-0.104 0.785-0.311 1.151-0.207 0.359-0.625 0.828-1.253 1.408-0.621 0.573-1.049 1.159-1.285 1.753-0.116 0.295-0.203 0.64-0.261 1.035zM14.628 21.183c-0.311 0.308-0.467 0.703-0.467 1.183 0 0.473 0.152 0.864 0.456 1.173 0.311 0.307 0.719 0.461 1.223 0.461s0.907-0.155 1.212-0.463c0.311-0.308 0.467-0.699 0.467-1.172 0-0.48-0.16-0.875-0.477-1.183-0.311-0.316-0.712-0.473-1.201-0.473-0.491 0-0.893 0.157-1.212 0.473z"></path>
</svg>
