<!-- Generated by IcoMoon.io -->
<svg version="1.1" xmlns="http://www.w3.org/2000/svg" width="34" height="32" viewBox="0 0 34 32">
<path fill="#ffa800" d="M16.444 0c-8.8 0-16 7.2-16 16s7.2 16 16 16c8.8 0 16-7.2 16-16s-7.2-16-16-16zM16.444 28.8c-7.040 0-12.8-5.76-12.8-12.8s5.76-12.8 12.8-12.8c7.040 0 12.8 5.76 12.8 12.8s-5.76 12.8-12.8 12.8zM16.605 8.483h-0.16c-1.6 0-3.040 0.8-3.84 2.080-0.64 0.8-0.48 1.76 0.32 2.24s1.76 0.32 2.24-0.48c0.32-0.48 0.8-0.64 1.28-0.64h0.16c0.8 0 1.44 0.64 1.44 1.44 0 0.64-0.48 1.28-0.96 1.44l-1.12 0.32c-0.64 0.16-1.12 0.8-1.12 1.44v1.28c0 0.96 0.64 1.6 1.6 1.6 0.8 0 1.6-0.64 1.6-1.44 1.92-0.64 3.2-2.4 3.2-4.48 0-2.56-2.080-4.8-4.64-4.8zM18.044 22.399c0 0.884-0.716 1.6-1.6 1.6s-1.6-0.716-1.6-1.6c0-0.884 0.716-1.6 1.6-1.6s1.6 0.716 1.6 1.6z"></path>
</svg>
