<!-- Generated by IcoMoon.io -->
<svg version="1.1" xmlns="http://www.w3.org/2000/svg" width="32" height="32" viewBox="0 0 32 32">
<path d="M24.821 31.247c-3.809-0.016-6.891-3.119-6.876-6.928s3.119-6.891 6.928-6.876c3.804 0.016 6.876 3.098 6.876 6.902-0.005 3.814-3.098 6.907-6.912 6.902-0.005 0-0.011 0-0.016 0zM24.821 18.497c-3.23 0.016-5.838 2.645-5.822 5.875s2.645 5.838 5.875 5.822c3.219-0.016 5.822-2.629 5.822-5.848-0.005-3.235-2.624-5.853-5.859-5.848-0.005 0-0.011 0-0.016 0z"></path>
<path d="M24.873 17.537c-3.757-0.016-6.819 3.025-6.834 6.782s3.024 6.818 6.782 6.834h0.016c3.763 0.005 6.813-3.045 6.819-6.808-0-3.752-3.030-6.792-6.782-6.808zM17.851 24.318c0.016-3.861 3.161-6.985 7.022-6.969 3.856 0.016 6.969 3.14 6.969 6.996v0c-0.005 3.866-3.14 7.001-7.006 6.996h-0.016c-3.861-0.016-6.985-3.161-6.969-7.022zM24.837 18.403c3.287-0.005 5.947 2.655 5.953 5.942v0c0 3.271-2.645 5.926-5.915 5.942-3.282 0.016-5.953-2.634-5.969-5.915s2.634-5.953 5.915-5.969h0.016zM30.602 24.345c-0.005-3.183-2.582-5.76-5.765-5.755h-0.016c-3.178 0.016-5.744 2.603-5.728 5.78s2.603 5.744 5.78 5.729c3.168-0.016 5.728-2.587 5.729-5.754z"></path>
<path d="M25.128 25.658c-0.293 0-0.533-0.236-0.533-0.525v-3.153c0-0.289 0.24-0.525 0.533-0.525s0.533 0.236 0.533 0.525v3.153c0 0.289-0.24 0.525-0.533 0.525z"></path>
<path d="M25.128 21.548c-0.243 0-0.44 0.196-0.44 0.432v3.153c0 0.236 0.197 0.432 0.44 0.432s0.44-0.196 0.44-0.432v-3.153c0-0.236-0.197-0.432-0.44-0.432zM24.501 21.98c0-0.342 0.283-0.619 0.627-0.619s0.627 0.277 0.627 0.619v3.153c0 0.342-0.283 0.619-0.627 0.619s-0.627-0.277-0.627-0.619v-3.153z"></path>
<path d="M25.133 25.722h-2.959c-0.291 0-0.528-0.226-0.528-0.502s0.238-0.502 0.528-0.502h2.959c0.291 0 0.528 0.226 0.528 0.502s-0.238 0.502-0.528 0.502z"></path>
<path d="M22.174 24.812c-0.243 0-0.435 0.188-0.435 0.408s0.191 0.408 0.435 0.408h2.959c0.243 0 0.435-0.188 0.435-0.408s-0.191-0.408-0.435-0.408h-2.959zM21.552 25.22c0-0.332 0.284-0.596 0.622-0.596h2.959c0.338 0 0.622 0.263 0.622 0.596s-0.284 0.596-0.622 0.596h-2.959c-0.338 0-0.622-0.263-0.622-0.596z"></path>
<path d="M20.455 29.853h-17.003c-1.732 0-3.138-1.406-3.138-3.139v-23.074c0-1.732 1.406-3.138 3.138-3.138h24.016c1.732 0 3.138 1.406 3.138 3.138v16.766c0 0.345-0.282 0.628-0.628 0.628s-0.628-0.282-0.628-0.628v-16.766c0-1.042-0.841-1.883-1.883-1.883h-24.016c-1.042 0-1.883 0.841-1.883 1.883v23.074c0 1.042 0.841 1.883 1.883 1.883h17.003c0.345 0 0.628 0.282 0.628 0.628s-0.282 0.628-0.628 0.628z"></path>
<path d="M3.452 0.596c-1.681 0-3.045 1.364-3.045 3.045v23.074c0 1.681 1.364 3.045 3.045 3.045h17.003c0.294 0 0.534-0.241 0.534-0.534s-0.241-0.534-0.534-0.534h-17.003c-1.094 0-1.977-0.883-1.977-1.977v-23.074c0-1.094 0.883-1.977 1.977-1.977h24.016c1.094 0 1.977 0.883 1.977 1.977v16.766c0 0.294 0.241 0.534 0.534 0.534s0.534-0.24 0.534-0.534v-16.766c0-1.681-1.364-3.045-3.045-3.045h-24.016zM0.22 3.64c0-1.784 1.448-3.232 3.232-3.232h24.016c1.784 0 3.232 1.448 3.232 3.232v16.766c0 0.397-0.324 0.721-0.721 0.721s-0.721-0.324-0.721-0.721v-16.766c0-0.99-0.799-1.789-1.789-1.789h-24.016c-0.99 0-1.789 0.799-1.789 1.789v23.074c0 0.99 0.799 1.789 1.789 1.789h17.003c0.397 0 0.721 0.324 0.721 0.721s-0.324 0.721-0.721 0.721h-17.003c-1.784 0-3.232-1.448-3.232-3.232v-23.074z"></path>
<path d="M11.693 12.032c-0.124 0-0.253-0.029-0.367-0.081l-6.541-2.944c-0.32-0.143-0.525-0.458-0.525-0.811s0.2-0.668 0.525-0.811l6.541-2.944c0.234-0.105 0.501-0.105 0.73 0l6.541 2.944c0.324 0.148 0.525 0.458 0.525 0.811s-0.2 0.663-0.525 0.811l-6.541 2.944c-0.114 0.057-0.239 0.081-0.363 0.081zM5.31 8.201l6.383 2.872 6.383-2.872-6.383-2.877-6.383 2.877z"></path>
<path d="M11.39 4.585c0.193-0.087 0.413-0.086 0.601-0l6.541 2.944c0 0 0 0 0 0 0.269 0.123 0.433 0.378 0.433 0.669s-0.164 0.546-0.433 0.669c-0 0-0 0-0 0l-6.546 2.946c-0.089 0.045-0.189 0.065-0.293 0.065-0.101 0-0.208-0.024-0.302-0.067l-6.542-2.944c-0.263-0.118-0.432-0.377-0.432-0.668 0-0.293 0.165-0.55 0.432-0.668l6.542-2.944c0 0 0-0 0-0zM12.12 4.3c-0.271-0.124-0.585-0.123-0.858-0l-6.54 2.943c-0 0-0 0-0.001 0-0.382 0.169-0.617 0.54-0.617 0.954 0 0.415 0.241 0.785 0.617 0.954 0 0 0 0 0 0l6.539 2.943c0 0 0 0 0.001 0 0.134 0.062 0.285 0.095 0.432 0.095 0.143 0 0.291-0.027 0.429-0.096l6.539-2.943c0.38-0.173 0.616-0.538 0.616-0.953s-0.237-0.78-0.616-0.953l-6.54-2.943c-0-0-0-0-0.001-0zM11.693 5.153l6.764 3.048-6.764 3.043-6.764-3.043 6.764-3.048zM5.69 8.201l6.003 2.701 6.003-2.701-6.003-2.705-6.003 2.705z"></path>
<path d="M11.597 14.99c-1.403 0-2.786-0.2-4.060-0.596-0.787-0.243-1.321-0.973-1.321-1.799v-3.244c0-0.262 0.215-0.477 0.477-0.477 0.067 0 0.134 0.014 0.196 0.043l4.799 2.161 4.799-2.161c0.239-0.11 0.525 0 0.63 0.239 0.029 0.062 0.043 0.129 0.043 0.196v3.225c0.005 0.835-0.549 1.574-1.35 1.808-1.364 0.401-2.786 0.606-4.213 0.606zM7.175 10.086v2.505c0 0.41 0.262 0.768 0.654 0.892 2.381 0.744 5.191 0.739 7.709-0.014 0.396-0.114 0.673-0.482 0.673-0.897v-2.486l-4.151 1.87c-0.234 0.105-0.501 0.105-0.735 0 0-0.005-4.151-1.87-4.151-1.87zM18.644 11.078c-0.262 0-0.477-0.215-0.477-0.477v-2.4c0-0.262 0.215-0.477 0.477-0.477s0.477 0.215 0.477 0.477v2.4c0 0.262-0.21 0.477-0.477 0.477z"></path>
<path d="M18.644 7.881c-0.176 0-0.321 0.145-0.321 0.321v2.4c0 0.176 0.145 0.321 0.321 0.321 0.18 0 0.321-0.144 0.321-0.321v-2.4c0-0.176-0.145-0.321-0.321-0.321zM18.010 8.201c0-0.349 0.285-0.633 0.633-0.633s0.633 0.285 0.633 0.633v2.4c0 0.348-0.279 0.633-0.633 0.633-0.349 0-0.633-0.285-0.633-0.633v-2.4zM6.693 9.030c-0.176 0-0.321 0.145-0.321 0.321v3.244c0 0.757 0.49 1.426 1.211 1.649l0 0c1.258 0.391 2.626 0.589 4.013 0.589 1.412 0 2.818-0.203 4.168-0.6l0-0c0.735-0.214 1.242-0.892 1.238-1.657v-3.226c0-0.044-0.010-0.089-0.029-0.13l-0.001-0.001-0.001-0.001c-0.070-0.159-0.262-0.233-0.421-0.159l-0.001 0-4.864 2.19-4.865-2.191c-0.041-0.019-0.086-0.028-0.13-0.028zM6.060 9.351c0-0.349 0.285-0.633 0.633-0.633 0.089 0 0.178 0.019 0.26 0.057 0 0 0 0 0.001 0l4.734 2.132 4.734-2.132c0-0 0-0 0.001-0 0.317-0.146 0.697-0.001 0.837 0.317 0.038 0.082 0.057 0.171 0.057 0.26v3.224c0.005 0.905-0.594 1.705-1.463 1.959-1.379 0.405-2.815 0.612-4.256 0.612-1.417 0-2.816-0.202-4.106-0.603-0.853-0.264-1.431-1.055-1.431-1.948v-3.244zM16.367 9.844v2.727c0 0.484-0.322 0.913-0.785 1.047-2.547 0.762-5.388 0.768-7.8 0.014l-0.001-0c-0.456-0.145-0.763-0.563-0.763-1.041v-2.746l0.22 0.099-0.064 0.143c0.064-0.143 0.064-0.143 0.064-0.143l0.178 0.080c0.114 0.051 0.276 0.124 0.47 0.211 0.389 0.175 0.908 0.408 1.427 0.642s1.038 0.467 1.427 0.643c0.195 0.088 0.357 0.161 0.47 0.213 0.057 0.026 0.102 0.046 0.132 0.060 0.015 0.007 0.027 0.013 0.036 0.017 0.004 0.002 0.008 0.004 0.011 0.005 0.001 0 0.002 0.001 0.003 0.002 0.192 0.085 0.411 0.084 0.602-0.002zM16.367 9.844l-4.371 1.969zM7.331 10.327v2.263c0 0.342 0.218 0.64 0.544 0.743 2.349 0.734 5.127 0.73 7.618-0.015l0.001-0c0.329-0.095 0.56-0.401 0.56-0.747v-2.244l-3.93 1.771c-0.274 0.123-0.588 0.123-0.863 0l-0.092-0.041v-0.001c-0.024-0.011-0.053-0.024-0.087-0.039-0.113-0.051-0.275-0.125-0.47-0.212-0.389-0.176-0.908-0.409-1.427-0.643s-1.038-0.467-1.427-0.642c-0.172-0.077-0.318-0.143-0.428-0.193z"></path>
<path d="M3.765 19.451c0-0.345 0.28-0.627 0.625-0.627h12.554c0.345 0 0.625 0.282 0.625 0.627v0c0 0.345-0.28 0.627-0.625 0.627h-12.554c-0.345 0-0.625-0.282-0.625-0.627v0z"></path>
<path d="M3.765 22.588c0-0.345 0.28-0.627 0.625-0.627h10.044c0.345 0 0.625 0.282 0.625 0.627v0c0 0.345-0.28 0.627-0.625 0.627h-10.044c-0.345 0-0.625-0.282-0.625-0.627v0z"></path>
<path d="M3.765 25.726c0-0.345 0.28-0.627 0.625-0.627h7.534c0.345 0 0.625 0.282 0.625 0.627v0c0 0.345-0.28 0.627-0.625 0.627h-7.534c-0.345 0-0.625-0.282-0.625-0.627v0z"></path>
</svg>
