<!-- Generated by IcoMoon.io -->
<svg version="1.1" xmlns="http://www.w3.org/2000/svg" width="33" height="32" viewBox="0 0 33 32">
<path d="M31.525 20.786c0.005-0.032 0.007-0.065 0.007-0.098v-17.344c0-1.846-1.498-3.344-3.343-3.344h-24.844c-1.846 0-3.344 1.498-3.344 3.344v23.87c0 1.846 1.498 3.344 3.344 3.344h17.589c0.062 0 0.122-0.008 0.18-0.023 1.206 0.914 2.708 1.459 4.336 1.465h0.017c4 0.005 7.243-3.237 7.248-7.237v0c0-1.47-0.438-2.837-1.189-3.977zM1.493 3.344c0-1.024 0.827-1.851 1.851-1.851h24.844c1.024 0 1.851 0.827 1.851 1.851v15.8c-1.238-1.006-2.814-1.611-4.534-1.618-0.444-0.002-0.879 0.037-1.302 0.112 0.093-0.488 0.142-0.992 0.142-1.508 0-3.281-1.97-6.101-4.792-7.344v-0.159c0.104-0.167 0.162-0.363 0.162-0.57 0-0.429-0.245-0.807-0.638-0.986l-6.766-3.045s0 0 0 0c-0.28-0.128-0.605-0.127-0.888 0l-6.765 3.045s0 0 0 0c-0.395 0.175-0.639 0.559-0.639 0.987s0.25 0.812 0.638 0.987c0 0 0 0 0 0l1.547 0.696v2.868c0 0.853 0.553 1.609 1.367 1.861 0.282 0.088 0.57 0.165 0.861 0.234-0.083 0.464-0.127 0.94-0.127 1.428 0 1.031 0.195 2.016 0.549 2.921h-4.54c-0.357 0-0.647 0.292-0.647 0.649s0.29 0.649 0.647 0.649h5.189c0.457 0.737 1.030 1.395 1.693 1.947h-6.883c-0.357 0-0.647 0.292-0.647 0.649s0.29 0.649 0.647 0.649h9.072c0.91 0.359 1.902 0.555 2.939 0.555 0.678 0 1.337-0.085 1.966-0.243-0.032 0.272-0.050 0.548-0.051 0.828-0.006 1.621 0.522 3.12 1.419 4.33h-16.314c-1.024 0-1.851-0.827-1.851-1.851v-23.871zM7.195 10.187l2.663 1.199c-0.519 0.707-0.926 1.501-1.193 2.357-0.269-0.064-0.535-0.136-0.795-0.217-0.405-0.128-0.676-0.498-0.676-0.923v-2.416zM16.325 8.11c-2.162 0-4.124 0.856-5.566 2.247l-5.099-2.294 6.21-2.798 6.21 2.798-0.37 0.167c-0.449-0.078-0.912-0.119-1.383-0.119zM11.318 15.139c0.175-0.296 0.414-0.528 0.716-0.696 0.306-0.168 0.646-0.252 1.019-0.252s0.711 0.084 1.014 0.252c0.306 0.168 0.545 0.4 0.716 0.696 0.175 0.296 0.262 0.626 0.262 0.989s-0.087 0.692-0.262 0.989c-0.171 0.296-0.411 0.53-0.716 0.702-0.303 0.168-0.641 0.252-1.014 0.252s-0.713-0.084-1.019-0.252c-0.303-0.171-0.542-0.405-0.716-0.702-0.171-0.296-0.257-0.625-0.257-0.989s0.086-0.693 0.257-0.989zM15.601 18.010v-3.758h0.782v3.078h1.589v0.681h-2.371zM18.36 14.251h1.226c0.4 0 0.751 0.081 1.055 0.242 0.303 0.158 0.537 0.38 0.702 0.666 0.165 0.283 0.247 0.605 0.247 0.969s-0.083 0.688-0.247 0.974c-0.165 0.283-0.4 0.504-0.706 0.666-0.303 0.162-0.652 0.242-1.049 0.242h-1.226v-3.758zM19.524 24.79c-0.003-0.472 0.050-0.931 0.153-1.372 1.877-0.864 3.363-2.432 4.119-4.366 0.525-0.155 1.080-0.239 1.654-0.241h0.016c1.901-0.003 3.593 0.884 4.684 2.268 0.027 0.044 0.059 0.085 0.094 0.122 0.743 0.993 1.183 2.226 1.185 3.563 0 3.277-2.65 5.937-5.926 5.953-3.288 0.016-5.964-2.639-5.98-5.926z"></path>
<path d="M26.416 25.668c0-0.015-0.001-0.030-0.003-0.045 0.001-0.016 0.003-0.030 0.003-0.046v-3.262c0-0.354-0.293-0.641-0.648-0.641s-0.648 0.286-0.648 0.641v2.736h-2.407c-0.349 0-0.643 0.272-0.643 0.616s0.294 0.616 0.643 0.616h3.061c0.35 0 0.643-0.272 0.643-0.616z"></path>
<path d="M4.314 26.84h7.794c0.357 0 0.647-0.292 0.647-0.649s-0.29-0.649-0.647-0.649h-7.794c-0.357 0-0.647 0.292-0.647 0.649s0.29 0.649 0.647 0.649z"></path>
<path d="M12.438 17.207c0.185 0.104 0.39 0.156 0.616 0.156s0.431-0.052 0.616-0.156c0.185-0.107 0.33-0.254 0.434-0.439 0.107-0.188 0.162-0.402 0.162-0.641s-0.054-0.451-0.162-0.636c-0.104-0.188-0.249-0.335-0.434-0.439-0.182-0.104-0.387-0.156-0.616-0.156s-0.436 0.052-0.621 0.156c-0.182 0.104-0.327 0.251-0.434 0.439-0.104 0.185-0.156 0.397-0.156 0.636s0.052 0.453 0.156 0.641c0.107 0.185 0.254 0.331 0.439 0.439z"></path>
<path d="M20.241 17.182c0.182-0.098 0.321-0.237 0.419-0.419s0.146-0.394 0.146-0.636-0.049-0.453-0.146-0.63c-0.098-0.182-0.237-0.321-0.419-0.419s-0.394-0.146-0.636-0.146h-0.464v2.396h0.464c0.242 0 0.454-0.049 0.636-0.146z"></path>
</svg>
