<!-- Generated by IcoMoon.io -->
<svg version="1.1" xmlns="http://www.w3.org/2000/svg" width="38" height="32" viewBox="0 0 38 32">
<path fill="#227aff" d="M36.48 14.079c-0.509 0-0.998 0.202-1.358 0.562s-0.562 0.848-0.562 1.358c0 2.037-0.809 3.99-2.249 5.431s-3.394 2.249-5.431 2.249h-14.565l0.563-0.563c0.35-0.362 0.543-0.847 0.539-1.351s-0.206-0.985-0.562-1.341-0.838-0.558-1.341-0.562c-0.503-0.004-0.988 0.189-1.351 0.539l-3.84 3.84c-0.36 0.36-0.562 0.848-0.562 1.357s0.202 0.997 0.562 1.357l3.84 3.84c0.362 0.35 0.847 0.543 1.351 0.539s0.985-0.206 1.341-0.562c0.356-0.356 0.558-0.838 0.562-1.341s-0.189-0.988-0.539-1.35l-0.563-0.563h14.565c3.054-0.003 5.983-1.218 8.142-3.378s3.374-5.088 3.377-8.143c0-0.509-0.202-0.998-0.562-1.358s-0.848-0.562-1.358-0.562zM11.52 8.319h14.565l-0.563 0.563c-0.183 0.177-0.33 0.389-0.43 0.623s-0.154 0.486-0.156 0.741c-0.002 0.255 0.046 0.508 0.143 0.744s0.239 0.45 0.419 0.631 0.395 0.323 0.631 0.419c0.236 0.097 0.489 0.145 0.744 0.143s0.507-0.055 0.741-0.156c0.234-0.101 0.446-0.247 0.623-0.43l3.84-3.84c0.36-0.36 0.562-0.848 0.562-1.357s-0.202-0.997-0.562-1.357l-3.84-3.84c-0.362-0.35-0.847-0.543-1.351-0.539s-0.985 0.206-1.341 0.562c-0.356 0.356-0.558 0.838-0.562 1.341s0.189 0.988 0.539 1.351l0.563 0.563h-14.565c-3.054 0.003-5.983 1.218-8.143 3.377s-3.374 5.088-3.377 8.143c0 0.509 0.202 0.998 0.562 1.358s0.848 0.562 1.358 0.562c0.509 0 0.998-0.202 1.358-0.562s0.562-0.848 0.562-1.358c0-2.037 0.809-3.99 2.249-5.431s3.394-2.249 5.431-2.249z"></path>
</svg>
