<!-- Generated by IcoMoon.io -->
<svg version="1.1" xmlns="http://www.w3.org/2000/svg" width="38" height="32" viewBox="0 0 38 32">
<path d="M16.001 3.199c7.069 0 12.8 5.731 12.8 12.8 0 0.001 0 0.002 0 0.003v-0 3.84l-3.646-3.792c-0.294-0.328-0.72-0.534-1.193-0.534-0.884 0-1.601 0.717-1.601 1.601 0 0.45 0.186 0.857 0.485 1.148l0 0 6.401 6.667c0.292 0.303 0.701 0.492 1.154 0.492s0.863-0.188 1.154-0.491l0-0.001 6.399-6.667c0.299-0.291 0.485-0.698 0.485-1.148 0-0.884-0.717-1.601-1.601-1.601-0.473 0-0.899 0.206-1.192 0.532l-0.001 0.002-3.646 3.797v-3.84c0-8.837-7.164-16.001-16.001-16.001s-16.001 7.164-16.001 16.001c0 8.837 7.164 16.001 16.001 16.001v0h0.802c0.885 0 1.603-0.718 1.603-1.603s-0.718-1.603-1.603-1.603v0h-0.799c-7.070 0-12.801-5.731-12.801-12.801s5.731-12.801 12.801-12.801v0z"></path>
</svg>
