<svg width="24" height="24" fill="none" xmlns="http://www.w3.org/2000/svg"><path d="M6.945 1.803c-2.184.096-3.362.463-4.253 1.327-.757.734-1.127 1.645-1.319 3.246-.083.696-.125 6.758-.055 7.924.091 1.501.251 2.274.631 3.047.523 1.063 1.504 1.806 2.856 2.163l.415.11-.032.26c-.077.626.061 1.32.34 1.709.173.241.474.471.732.559.26.089.761.088 1.1-.002.376-.1 1.111-.423 2.593-1.142 1.42-.687 1.706-.812 2.297-1 .716-.227.941-.247 3.21-.285 2.45-.041 3.052-.09 3.958-.322 1.637-.42 2.681-1.533 3.044-3.243.232-1.096.269-1.998.247-5.934-.021-3.512-.036-3.832-.227-4.768-.208-1.025-.581-1.754-1.197-2.342-.911-.871-2.026-1.205-4.365-1.309-1.038-.046-8.909-.044-9.975.002M17.14 3.281c1.748.095 2.569.336 3.155.928.56.565.789 1.277.911 2.831.067.857.068 6.549 0 7.4-.177 2.236-.658 3.065-2.026 3.492-.719.225-1.565.295-3.92.328-2.247.032-2.62.072-3.58.385-.593.194-.965.357-2.337 1.023-1.678.814-2.254 1.068-2.501 1.099-.135.018-.201-.123-.201-.432-.001-.361.093-.848.36-1.855.132-.495.239-.946.239-1.002a.969.969 0 0 0-.103-.309c-.086-.172-.138-.223-.32-.312-.249-.122-.444-.114-.698.028-.198.112-.274.256-.42.795-.092.342-.142.463-.193.473-.114.022-.775-.184-1.076-.335-1.089-.547-1.474-1.342-1.636-3.378-.068-.852-.068-6.542 0-7.4.123-1.555.351-2.266.911-2.831.226-.229.359-.324.621-.447.586-.274 1.313-.418 2.414-.478.898-.048 9.508-.051 10.4-.003M7.695 7.837a.876.876 0 0 0-.28.226c-.102.134-.115.183-.115.437s.013.303.115.437c.235.308.178.301 2.576.302 2.264.001 2.292-.001 2.502-.191.293-.265.293-.831 0-1.096-.21-.19-.238-.192-2.502-.191-1.995.001-2.142.006-2.296.076m0 5a.876.876 0 0 0-.28.226c-.102.134-.115.183-.115.437s.013.303.115.437c.064.084.19.185.28.226.158.072.348.075 4.296.076 4.425.001 4.283.007 4.502-.191.293-.265.293-.831 0-1.096-.219-.198-.077-.192-4.502-.191-3.948.001-4.138.004-4.296.076" fill-rule="evenodd" fill="#000"/></svg>