<svg width="30" height="30" fill="none" xmlns="http://www.w3.org/2000/svg"><path d="M7.625 1.803c-1.971.06-2.715.191-3.624.642-1.166.579-1.823 1.636-2.076 3.338-.134.902-.172 3.326-.172 10.867 0 7.373.026 8.735.171 9.297.229.882.79 1.39 1.593 1.442.671.043 1.342-.216 2.388-.92.833-.562 1.449-.919 1.582-.919.175 0 .367.11 2.149 1.236.902.569 1.785 1.107 1.964 1.196.636.316 1.17.315 1.805-.004.181-.092.946-.556 1.7-1.032 1.803-1.139 2.241-1.396 2.382-1.396.172 0 .444.152 1.362.76 1.326.879 1.924 1.124 2.634 1.079.803-.052 1.364-.56 1.593-1.442.144-.555.171-1.905.172-8.659l.002-6.538 1.063-.002c1.472-.003 2.291-.062 2.662-.193.563-.198.916-.539 1.127-1.091.144-.375.145-1.077.002-2.172-.38-2.913-1.222-4.803-2.384-5.354l-.345-.163-8.25-.005c-4.537-.003-8.812.012-9.5.033m15.293 1.735c-.4.877-.776 2.233-.939 3.387-.19 1.344-.194 1.492-.227 10.075-.025 6.55-.046 8.517-.094 8.662-.163.491-.606.353-2.147-.667-1.266-.837-1.686-1-2.301-.889-.407.073-.759.264-2.494 1.358-1.831 1.154-2.059 1.286-2.227 1.286-.138 0-.69-.326-2.664-1.573-1.352-.854-1.656-1.013-2.064-1.079-.589-.096-1.039.083-2.304.917-1.525 1.005-1.95 1.135-2.116.647-.085-.248-.124-17.544-.043-18.812.138-2.154.623-2.964 2-3.346.351-.097 1.04-.19 1.627-.22.165-.008 3.86-.019 8.212-.025l7.912-.009-.131.288m2.455-.03c.392.436.796 1.412 1.03 2.489.276 1.271.428 2.886.288 3.068-.118.154-.418.183-1.961.184l-1.495.001.035-.586c.14-2.329.718-4.443 1.427-5.21.26-.282.382-.273.676.054M7.5 7.5v.75h10v-1.5h-10v.75m0 5v.75H10v-1.5H7.5v.75m7.4.218c0 .215-.004.22-.237.307-.371.139-.901.513-1.125.794-.899 1.131-.596 2.636.687 3.405.39.233.69.32 1.287.374.589.052.884.178 1.092.466.317.437.101 1.022-.465 1.258-.259.109-.811.1-1.067-.016a1.349 1.349 0 0 1-.375-.293l-.172-.2-.649.264c-.356.145-.655.285-.664.311-.03.092.408.676.658.874.221.176.659.411.943.506.066.022.087.084.087.255v.227h1.45v-.218c0-.215.004-.22.238-.307.37-.139.9-.513 1.124-.794.899-1.131.596-2.636-.687-3.405-.39-.233-.69-.32-1.287-.374-.589-.052-.884-.178-1.092-.466-.317-.437-.101-1.022.465-1.258.259-.109.811-.1 1.067.016.111.051.28.183.375.293l.172.2.649-.264c.356-.145.655-.285.664-.311.03-.092-.408-.676-.658-.874a3.803 3.803 0 0 0-.942-.506c-.067-.022-.088-.084-.088-.255V12.5H14.9v.218" fill-rule="evenodd" fill="#000"/></svg>