<!-- Generated by IcoMoon.io -->
<svg version="1.1" xmlns="http://www.w3.org/2000/svg" width="32" height="32" viewBox="0 0 32 32">
<path d="M30.071 1.546h-28.143c-1.069 0.009-1.932 0.877-1.932 1.948 0 0.004 0 0.008 0 0.012v-0.001 19.698c-0 0.003-0 0.008-0 0.012 0 1.070 0.863 1.939 1.932 1.947h9.644v1.425c0 0.004 0 0.008 0 0.013 0 1.295-1.045 2.346-2.338 2.357h-2.127c-0.404 0.012-0.727 0.342-0.727 0.748s0.323 0.736 0.726 0.748l0.001 0h17.782c0.404-0.012 0.727-0.342 0.727-0.748s-0.323-0.736-0.726-0.748l-0.001-0h-2.125c-1.294-0.010-2.338-1.062-2.338-2.357 0-0.005 0-0.009 0-0.014v0.001-1.425h9.644c1.069-0.009 1.932-0.877 1.932-1.948 0-0.004 0-0.008-0-0.012v0.001-19.696c0-0.004 0-0.009 0-0.014 0-1.070-0.863-1.938-1.93-1.948h-0.001zM12.246 28.958c0.501-0.647 0.804-1.47 0.804-2.363 0-0.002 0-0.005 0-0.007v0-1.425h5.904v1.425c0 0.002 0 0.004 0 0.006 0 0.894 0.302 1.717 0.81 2.372l-0.007-0.009h-7.511zM30.53 23.204c0 0.001 0 0.002 0 0.002 0 0.253-0.204 0.458-0.456 0.46h-28.145c-0.253-0.002-0.457-0.207-0.457-0.46 0-0.001 0-0.002 0-0.003v0-3.932h29.056v3.932zM30.53 17.776h-29.058v-14.268c0-0.001 0-0.002 0-0.002 0-0.253 0.204-0.458 0.456-0.46h28.143c0.253 0.002 0.457 0.207 0.457 0.46 0 0.001 0 0.002 0 0.003v-0 14.271zM16 20.662c0.003-0 0.008-0 0.012-0 0.446 0 0.808 0.362 0.808 0.808s-0.362 0.808-0.808 0.808c-0.446 0-0.808-0.362-0.808-0.808 0-0 0-0 0-0.001v0c-0-0.002-0-0.005-0-0.007 0-0.441 0.356-0.798 0.796-0.8h0zM17.265 6.7c-0.133-0.136-0.318-0.221-0.523-0.221s-0.39 0.084-0.523 0.22l-0 0-5.215 5.286c-0.134 0.136-0.216 0.323-0.216 0.529s0.082 0.393 0.216 0.529l-0-0c0.133 0.136 0.318 0.22 0.523 0.22s0.39-0.084 0.523-0.22l0-0 5.215-5.287c0.134-0.136 0.216-0.323 0.216-0.529s-0.082-0.393-0.216-0.529l0 0zM20.356 9.764c-0.133-0.135-0.317-0.219-0.522-0.219s-0.389 0.084-0.521 0.219l-0 0-2.078 2.106c-0.134 0.136-0.216 0.323-0.216 0.529s0.082 0.393 0.216 0.529l-0-0c0.133 0.136 0.318 0.22 0.523 0.22s0.39-0.084 0.523-0.22l0-0 2.077-2.106c0.133-0.136 0.216-0.322 0.216-0.528 0-0.207-0.083-0.394-0.218-0.531l0 0z"></path>
</svg>
