<!-- Generated by IcoMoon.io -->
<svg version="1.1" xmlns="http://www.w3.org/2000/svg" width="34" height="32" viewBox="0 0 34 32">
<path fill="#fff" d="M30.076 14.267c-0.4-0.8-1.067-1.333-1.733-1.733l-18.667-9.333c-2-0.933-4.4-0.133-5.333 1.733-0.667 1.067-0.667 2.267-0.133 3.333l2.8 6.4h12.133c0.8 0 1.333 0.533 1.333 1.333s-0.533 1.333-1.333 1.333h-12.133l-2.8 6.4c-0.933 2 0 4.4 2 5.334 0.533 0.133 1.067 0.267 1.6 0.267 0.667 0 1.2-0.133 1.733-0.4l18.667-9.333c2-1.067 2.8-3.467 1.866-5.333z"></path>
</svg>
