<!-- Generated by IcoMoon.io -->
<svg version="1.1" xmlns="http://www.w3.org/2000/svg" width="32" height="32" viewBox="0 0 32 32">
<path fill="#4d5e6f" d="M28.642 17.015c-0.247-0.281-0.383-0.642-0.383-1.015s0.136-0.734 0.383-1.015l1.969-2.215c0.217-0.242 0.352-0.546 0.385-0.87s-0.037-0.649-0.2-0.93l-3.076-5.322c-0.162-0.281-0.408-0.503-0.703-0.636s-0.625-0.168-0.943-0.103l-2.892 0.584c-0.368 0.076-0.751 0.015-1.077-0.172s-0.572-0.487-0.692-0.843l-0.938-2.815c-0.103-0.305-0.3-0.571-0.562-0.759s-0.577-0.288-0.899-0.287h-6.152c-0.335-0.017-0.667 0.075-0.945 0.264s-0.486 0.463-0.593 0.782l-0.861 2.815c-0.12 0.356-0.366 0.656-0.692 0.843s-0.709 0.248-1.077 0.172l-2.969-0.584c-0.301-0.042-0.607 0.005-0.881 0.136s-0.502 0.341-0.657 0.602l-3.076 5.322c-0.167 0.278-0.243 0.602-0.215 0.925s0.157 0.629 0.369 0.875l1.953 2.215c0.247 0.281 0.383 0.642 0.383 1.015s-0.136 0.734-0.383 1.015l-1.953 2.215c-0.212 0.245-0.341 0.552-0.369 0.875s0.048 0.647 0.215 0.925l3.076 5.322c0.162 0.281 0.408 0.503 0.703 0.636s0.625 0.169 0.942 0.103l2.892-0.584c0.368-0.076 0.751-0.015 1.077 0.172s0.572 0.487 0.692 0.843l0.938 2.815c0.107 0.318 0.315 0.593 0.593 0.782s0.61 0.282 0.945 0.264h6.152c0.323 0.001 0.637-0.1 0.899-0.287s0.459-0.453 0.562-0.758l0.938-2.815c0.12-0.356 0.366-0.656 0.692-0.843s0.709-0.248 1.077-0.172l2.892 0.584c0.317 0.066 0.647 0.030 0.943-0.103s0.541-0.355 0.703-0.636l3.076-5.322c0.163-0.281 0.233-0.607 0.2-0.93s-0.168-0.628-0.385-0.87l-2.076-2.215zM26.35 19.076l1.23 1.384-1.969 3.415-1.815-0.369c-1.108-0.226-2.26-0.038-3.238 0.529s-1.714 1.474-2.068 2.547l-0.585 1.723h-3.938l-0.554-1.753c-0.354-1.074-1.090-1.98-2.068-2.547s-2.131-0.755-3.238-0.529l-1.815 0.369-2-3.399 1.231-1.384c0.757-0.846 1.175-1.941 1.175-3.076s-0.418-2.23-1.175-3.076l-1.231-1.384 1.969-3.384 1.815 0.369c1.108 0.226 2.26 0.038 3.238-0.529s1.714-1.474 2.068-2.547l0.584-1.738h3.938l0.585 1.753c0.354 1.074 1.090 1.98 2.068 2.547s2.131 0.755 3.238 0.529l1.815-0.369 1.969 3.415-1.23 1.384c-0.748 0.844-1.161 1.933-1.161 3.061s0.413 2.217 1.161 3.061zM15.937 9.848c-1.217 0-2.406 0.361-3.418 1.037s-1.8 1.637-2.266 2.761c-0.466 1.124-0.588 2.361-0.35 3.555s0.823 2.29 1.684 3.15 1.957 1.446 3.15 1.684c1.193 0.237 2.431 0.116 3.555-0.35s2.085-1.254 2.761-2.266c0.676-1.012 1.037-2.201 1.037-3.418 0-1.632-0.648-3.197-1.802-4.35s-2.719-1.802-4.351-1.802zM15.937 19.076c-0.608 0-1.203-0.18-1.709-0.518s-0.9-0.819-1.133-1.381-0.294-1.181-0.175-1.777c0.119-0.597 0.412-1.145 0.842-1.575s0.978-0.723 1.575-0.842c0.597-0.119 1.215-0.058 1.777 0.175s1.043 0.627 1.381 1.133c0.338 0.506 0.518 1.101 0.518 1.709 0 0.816-0.324 1.598-0.901 2.175s-1.359 0.901-2.175 0.901z"></path>
</svg>
