<!-- Generated by IcoMoon.io -->
<svg version="1.1" xmlns="http://www.w3.org/2000/svg" width="31" height="32" viewBox="0 0 31 32">
<path d="M24.87 17.293c0.051-0.41 0.090-0.819 0.090-1.254s-0.038-0.845-0.090-1.254l2.701-2.112c0.243-0.192 0.307-0.538 0.154-0.819l-2.56-4.429c-0.154-0.282-0.499-0.384-0.781-0.282l-3.187 1.28c-0.666-0.512-1.382-0.934-2.163-1.254l-0.486-3.392c-0.038-0.307-0.307-0.538-0.627-0.538h-5.12c-0.32 0-0.589 0.23-0.627 0.538l-0.486 3.392c-0.781 0.32-1.498 0.755-2.163 1.254l-3.187-1.28c-0.294-0.115-0.627 0-0.781 0.282l-2.56 4.429c-0.166 0.282-0.090 0.627 0.154 0.819l2.701 2.112c-0.051 0.41-0.090 0.832-0.090 1.254s0.038 0.845 0.090 1.254l-2.701 2.112c-0.243 0.192-0.307 0.538-0.154 0.819l2.56 4.429c0.154 0.282 0.499 0.384 0.781 0.282l3.187-1.28c0.666 0.512 1.382 0.934 2.163 1.254l0.486 3.392c0.038 0.307 0.307 0.538 0.627 0.538h5.12c0.32 0 0.589-0.23 0.627-0.538l0.486-3.392c0.781-0.32 1.498-0.755 2.163-1.254l3.187 1.28c0.294 0.115 0.627 0 0.781-0.282l2.56-4.429c0.154-0.282 0.090-0.627-0.154-0.819l-2.701-2.112zM15.36 20.518c-2.47 0-4.48-2.010-4.48-4.48s2.010-4.48 4.48-4.48c2.47 0 4.48 2.010 4.48 4.48s-2.010 4.48-4.48 4.48z"></path>
</svg>
