<svg width="18" height="18" fill="none" xmlns="http://www.w3.org/2000/svg"><path d="M8.593 3.034c-2.363.163-4.369 1.985-4.766 4.33l-.036.209-.279.098c-.963.337-1.646 1.083-1.929 2.104-.054.193-.064.313-.065.74 0 .47.007.531.082.78.168.551.393.932.783 1.324.262.263.557.47.878.614.493.222 1.172.324 1.479.222a.772.772 0 0 0 .51-.705c0-.404-.354-.75-.769-.75C3.691 12 3 11.3 3 10.5 3 9.692 3.692 9 4.5 9c.301 0 .611-.221.698-.498.026-.081.055-.285.064-.453a3.66 3.66 0 0 1 .411-1.509c.974-1.9 3.365-2.594 5.217-1.514a3.738 3.738 0 0 1 1.547 1.757c.241.58.327.668.75.774.734.184 1.28.628 1.576 1.28.134.295.185.554.184.928a2.102 2.102 0 0 1-.598 1.515c-.317.338-.521.463-1.101.675a.727.727 0 0 0-.49.755.725.725 0 0 0 .525.659c.2.06.281.052.623-.062.383-.129.614-.243.952-.475.751-.513 1.268-1.264 1.508-2.189a4.18 4.18 0 0 0 .063-1.482 3.657 3.657 0 0 0-1.05-2.039 3.624 3.624 0 0 0-1.364-.883l-.189-.069-.131-.26c-.265-.527-.759-1.177-1.172-1.542A5.447 5.447 0 0 0 10.26 3.17a5.442 5.442 0 0 0-1.667-.136m.152 4.514c-.137.043-.259.156-1.376 1.267-.959.954-1.241 1.253-1.297 1.37a.75.75 0 0 0 .42 1.02c.165.063.433.05.591-.03.056-.029.342-.29.634-.58l.533-.528v2.144c0 1.384.011 2.184.031 2.256a.793.793 0 0 0 .368.438c.3.155.643.104.876-.129.233-.232.225-.142.225-2.564v-2.146l.532.531c.587.584.687.651.972.652a.772.772 0 0 0 .718-.548.884.884 0 0 0-.048-.535c-.028-.056-.586-.639-1.24-1.296-.861-.865-1.229-1.215-1.336-1.27a.805.805 0 0 0-.603-.052" fill="#fff" fill-rule="evenodd"/></svg>