<!-- Generated by IcoMoon.io -->
<svg version="1.1" xmlns="http://www.w3.org/2000/svg" width="32" height="32" viewBox="0 0 32 32">
<path d="M8.667 4.086c-2.577 0-4.667 2.089-4.667 4.667s2.089 4.667 4.667 4.667c2.577 0 4.667-2.089 4.667-4.667s-2.089-4.667-4.667-4.667zM1.333 8.753c0-4.050 3.283-7.333 7.333-7.333 3.357 0 6.187 2.255 7.057 5.333h8.75c1.415-0 2.621-0 3.515 0.126 0.864 0.122 2.020 0.437 2.502 1.601s-0.113 2.205-0.637 2.902c-0.542 0.721-1.396 1.574-2.396 2.574l-0.854 0.854c0.174 0.014 0.34 0.031 0.499 0.052 0.874 0.117 1.712 0.383 2.391 1.062s0.945 1.517 1.062 2.391c0.11 0.816 0.11 1.834 0.11 3.016v1.509c0 1.182 0 2.2-0.11 3.016-0.117 0.874-0.383 1.712-1.062 2.391s-1.517 0.945-2.391 1.062c-0.815 0.11-1.834 0.11-3.016 0.11h-1.509c-1.182 0-2.2 0-3.016-0.11-0.874-0.117-1.712-0.382-2.391-1.062s-0.945-1.517-1.062-2.391c-0.021-0.159-0.039-0.325-0.052-0.499l-2.187 2.187c-1 1.001-1.853 1.854-2.574 2.396-0.697 0.524-1.737 1.119-2.902 0.637s-1.479-1.638-1.601-2.502c-0.126-0.893-0.126-2.1-0.126-3.515v-8.75c-3.078-0.871-5.333-3.701-5.333-7.057zM9.333 16.056v8.398c0 1.55 0.003 2.564 0.1 3.247 0.015 0.104 0.030 0.189 0.045 0.258 0.059-0.038 0.13-0.087 0.214-0.151 0.552-0.415 1.271-1.129 2.367-2.226l13.438-13.438c1.096-1.096 1.811-1.815 2.225-2.367 0.063-0.084 0.113-0.155 0.151-0.214-0.069-0.015-0.154-0.030-0.258-0.045-0.684-0.097-1.697-0.1-3.247-0.1h-8.398c-0.317 3.518-3.119 6.32-6.637 6.637zM28.142 9.65c-0.001 0-0.006-0.003-0.015-0.009 0.011 0.006 0.016 0.009 0.015 0.009zM27.999 9.331c0.002-0.011 0.004-0.017 0.004-0.017s-0 0.005-0.004 0.017zM9.228 28.089c0-0.001 0.006-0.003 0.017-0.004-0.012 0.004-0.017 0.005-0.017 0.004zM9.555 28.213c0.007 0.009 0.009 0.014 0.009 0.015s-0.004-0.004-0.009-0.015zM18.662 22.753h0.005c0 1.295 0.003 2.132 0.086 2.748 0.078 0.578 0.203 0.76 0.305 0.861s0.283 0.227 0.861 0.305c0.617 0.083 1.454 0.086 2.748 0.086h1.333c1.295 0 2.132-0.003 2.748-0.086 0.578-0.078 0.759-0.203 0.861-0.305s0.227-0.283 0.305-0.861c0.083-0.617 0.086-1.454 0.086-2.748v-1.333c0-1.295-0.003-2.132-0.086-2.748-0.078-0.578-0.203-0.76-0.305-0.861s-0.283-0.227-0.861-0.305c-0.617-0.083-1.454-0.086-2.748-0.086v-0.005l-5.338 5.338z"></path>
</svg>
