<!-- Generated by IcoMoon.io -->
<svg version="1.1" xmlns="http://www.w3.org/2000/svg" width="30" height="32" viewBox="0 0 30 32">
<path d="M9.829 3.511c-3.163 0.149-4.916 0.707-6.257 1.99-0.881 0.844-1.458 1.979-1.772 3.482-0.294 1.413-0.376 3.092-0.376 7.653 0 4.559 0.082 6.238 0.376 7.651 0.459 2.199 1.509 3.656 3.269 4.535 0.966 0.483 2.142 0.742 4.101 0.902 1.15 0.094 9.769 0.094 10.92 0 0.891-0.062 1.709-0.175 2.507-0.341l-0.119 0.021c2.752-0.608 4.419-2.313 4.977-5.094 0.172-0.859 0.293-2.007 0.3-2.877 0.006-0.728 0.003-0.744-0.134-0.952-0.098-0.137-0.215-0.254-0.348-0.349l-0.004-0.003c-0.184-0.123-0.262-0.14-0.6-0.14s-0.416 0.017-0.6 0.14c-0.136 0.097-0.251 0.212-0.346 0.343l-0.003 0.004c-0.128 0.194-0.142 0.268-0.203 1.129-0.19 2.632-0.564 3.778-1.515 4.648-1.187 1.085-2.9 1.327-9.371 1.327-5.716 0-7.493-0.181-8.78-0.894-0.51-0.282-1.099-0.904-1.367-1.44-0.664-1.338-0.823-2.999-0.823-8.61 0-3.805 0.076-5.641 0.28-6.845 0.451-2.639 1.717-3.666 4.873-3.948 0.712-0.064 3.066-0.152 4.078-0.152 0.847-0.002 1.032-0.043 1.301-0.296 0.445-0.418 0.445-1.228 0-1.646-0.302-0.282-0.39-0.296-2.011-0.286-0.839 0.003-1.661 0.021-2.48 0.053l0.129-0.004zM20.247 6.092c-0.809 0.267-1.303 0.902-1.477 1.902-0.041 0.233-0.069 0.507-0.078 0.785l-0 0.008v0.343l-1.69 0.026c-1.734 0.027-2.078 0.059-3.177 0.297-1.368 0.294-2.722 0.885-3.729 1.629-2.214 1.637-3.451 4.276-3.579 7.637-0.035 0.913-0.003 1.086 0.251 1.376 0.232 0.264 0.486 0.373 0.861 0.373 0.366-0.002 0.315 0.023 1.768-0.862 2.647-1.617 3.753-1.896 7.39-1.868l1.879 0.014 0.034 0.536c0.059 0.96 0.286 1.594 0.733 2.040 0.638 0.638 1.743 0.78 2.626 0.338 0.317-0.158 0.847-0.571 1.541-1.199 0.338-0.306 1.31-1.16 2.159-1.896 2.481-2.15 3.016-2.74 3.223-3.554 0.105-0.41 0.076-0.978-0.072-1.362-0.318-0.834-0.765-1.268-5.641-5.484-0.61-0.529-1.132-0.882-1.513-1.029-0.424-0.16-1.109-0.184-1.509-0.052zM21.414 8.571c0.197 0.16 0.802 0.681 1.344 1.158l2.182 1.911c1.216 1.065 1.879 1.708 1.879 1.824 0 0.114-1.001 1.056-2.59 2.435-0.852 0.741-1.812 1.582-2.133 1.873-0.719 0.649-0.986 0.869-1.053 0.869-0.091 0-0.125-0.532-0.087-1.373 0.032-0.698 0.024-0.841-0.050-1.036-0.134-0.281-0.352-0.505-0.62-0.644l-0.008-0.004c-0.177-0.072-3.654-0.158-4.785-0.117-2.449 0.085-3.858 0.407-5.591 1.268-0.32 0.16-0.657 0.337-0.748 0.393-0.093 0.056-0.181 0.090-0.197 0.075-0.043-0.043 0.123-0.693 0.325-1.278 0.35-1.016 0.765-1.688 1.487-2.414 0.759-0.763 1.563-1.24 2.737-1.624 1.268-0.414 2.13-0.507 4.696-0.509 2.17-0.002 2.185-0.003 2.504-0.367 0.259-0.296 0.29-0.462 0.25-1.365-0.035-0.765-0.005-1.365 0.067-1.365 0.020 0 0.195 0.133 0.392 0.293z"></path>
</svg>
