<!-- Generated by IcoMoon.io -->
<svg version="1.1" xmlns="http://www.w3.org/2000/svg" width="32" height="32" viewBox="0 0 32 32">
<path d="M29.812 0h-27.618c-1.211 0-2.194 0.983-2.194 2.194v27.618c0 1.206 0.983 2.188 2.194 2.188h27.618c1.206 0 2.188-0.983 2.194-2.188v-27.618c0-1.211-0.988-2.194-2.194-2.194zM1.195 5.444h29.616v24.368c0 0.552-0.451 0.999-0.999 0.999h-27.618c-0.552 0-0.999-0.451-0.999-0.999v-24.368zM2.188 1.195h27.618c0.552 0 0.999 0.451 0.999 0.999v2.056h-29.615v-2.056c0-0.552 0.451-0.999 0.999-0.999z"></path>
<path d="M2.724 3.256h0.531c0.292 0 0.531-0.239 0.531-0.531s-0.239-0.531-0.531-0.531h-0.531c-0.292 0-0.531 0.239-0.531 0.531-0.005 0.292 0.234 0.531 0.531 0.531z"></path>
<path d="M5.375 3.256h0.531c0.292 0 0.531-0.239 0.531-0.531s-0.239-0.531-0.531-0.531h-0.531c-0.292 0-0.531 0.239-0.531 0.531 0.005 0.292 0.239 0.531 0.531 0.531z"></path>
<path d="M8.036 3.256h0.531c0.292 0 0.531-0.239 0.531-0.531s-0.239-0.531-0.531-0.531h-0.531c-0.292 0-0.531 0.239-0.531 0.531s0.234 0.531 0.531 0.531z"></path>
<path d="M4.318 28.749h10.623c0.589 0 1.063-0.478 1.063-1.063v-2.273c0.329-0.191 0.531-0.536 0.531-0.914v-0.782c1.415-0.101 2.724-0.583 3.828-1.343h8.383c0.292 0 0.531-0.239 0.531-0.531s-0.234-0.531-0.531-0.531h-7.141c0.587-0.62 1.073-1.337 1.43-2.124h5.711c0.292 0 0.531-0.239 0.531-0.531s-0.234-0.531-0.531-0.531h-5.32c0.194-0.675 0.298-1.387 0.299-2.124h3.959c0.882 0 1.593-0.712 1.593-1.593v-5.311c0-0.882-0.712-1.593-1.593-1.593h-7.967c-0.694 0-1.282 0.441-1.502 1.059-0.553-0.167-1.132-0.274-1.729-0.313-0.136-0.434-0.537-0.746-1.012-0.746h-11.154c-1.174 0-2.124 0.951-2.124 2.124v16.996c0 1.174 0.951 2.124 2.124 2.124zM22.902 12.51v-1.676c-0.005-0.053 0.021-0.106 0.069-0.133 0.005-0.005 0.016-0.011 0.026-0.011s0.021 0.006 0.032 0.011l1.413 0.919c0.037 0.032 0.058 0.085 0.058 0.133-0.006 0.047-0.021 0.096-0.064 0.133l-1.398 0.909c-0.044-0.096-0.089-0.191-0.137-0.286zM19.721 8.567h7.967c0.292 0 0.531 0.239 0.531 0.531v5.311c0 0.292-0.239 0.531-0.531 0.531h-4.034c-0.053-0.393-0.136-0.777-0.245-1.149 0.067-0.028 0.133-0.063 0.195-0.104l1.413-0.919c0.34-0.228 0.542-0.611 0.542-1.025 0.005-0.404-0.202-0.786-0.542-1.014l-1.413-0.919c-0.34-0.228-0.781-0.244-1.137-0.047-0.387 0.213-0.627 0.627-0.621 1.068v0.098c-0.721-0.836-1.617-1.517-2.632-1.984 0.067-0.217 0.269-0.376 0.508-0.376zM17.938 14.17h1.185c0.387 0 0.726 0.078 1.019 0.234 0.293 0.153 0.519 0.367 0.678 0.644 0.159 0.273 0.239 0.585 0.239 0.936s-0.079 0.665-0.239 0.941c-0.159 0.273-0.387 0.488-0.683 0.644-0.293 0.156-0.631 0.234-1.014 0.234h-1.185v-3.633zM17.563 17.803h-2.292v-3.633h0.756v2.974h1.536v0.658zM8.236 15.472h-2.324v-3.187h3.246c-0.521 0.958-0.846 2.038-0.922 3.187zM11.131 15.029c0.169-0.286 0.4-0.511 0.693-0.673 0.296-0.162 0.624-0.244 0.985-0.244s0.688 0.081 0.98 0.244c0.296 0.162 0.527 0.387 0.693 0.673 0.169 0.286 0.254 0.604 0.254 0.956s-0.084 0.669-0.254 0.956c-0.166 0.286-0.397 0.512-0.693 0.677-0.293 0.163-0.619 0.244-0.98 0.244s-0.689-0.081-0.985-0.244c-0.293-0.166-0.524-0.392-0.693-0.677-0.166-0.286-0.249-0.604-0.249-0.956s0.083-0.67 0.249-0.956zM3.256 9.629c0-0.589 0.473-1.062 1.063-1.062h9.399c-1.548 0.47-2.891 1.411-3.862 2.656h-3.943c-0.589 0-1.063 0.478-1.063 1.063v3.187c0 0.584 0.473 1.062 1.063 1.062h2.326c0.269 3.861 3.366 6.943 7.234 7.189v0.778h-11.153c-0.372 0-0.738 0.106-1.063 0.292v-15.164zM4.313 25.563h10.623v2.124h-10.623c-0.589 0-1.063-0.473-1.063-1.063s0.473-1.063 1.063-1.063z"></path>
<path d="M12.214 17.027c0.179 0.101 0.377 0.151 0.595 0.151s0.416-0.051 0.595-0.151c0.179-0.104 0.319-0.246 0.419-0.424 0.104-0.182 0.156-0.389 0.156-0.619s-0.052-0.436-0.156-0.614c-0.101-0.182-0.241-0.323-0.419-0.424-0.176-0.101-0.374-0.151-0.595-0.151s-0.421 0.051-0.6 0.151c-0.176 0.101-0.316 0.242-0.419 0.424-0.101 0.179-0.151 0.384-0.151 0.614s0.051 0.438 0.151 0.619c0.104 0.179 0.246 0.32 0.424 0.424z"></path>
<path d="M19.757 17.003c0.176-0.094 0.311-0.229 0.405-0.405s0.141-0.381 0.141-0.614-0.047-0.438-0.141-0.609c-0.094-0.176-0.229-0.311-0.405-0.405s-0.381-0.141-0.614-0.141h-0.449v2.316h0.449c0.234 0 0.439-0.047 0.614-0.141z"></path>
</svg>
