<!-- Generated by IcoMoon.io -->
<svg version="1.1" xmlns="http://www.w3.org/2000/svg" width="32" height="32" viewBox="0 0 32 32">
<path d="M29.812 0.069h-27.618c-1.174 0-2.124 0.951-2.124 2.124v27.618c0 1.174 0.951 2.124 2.124 2.124h27.618c1.174 0 2.124-0.951 2.124-2.124v-27.618c-0.005-1.179-0.951-2.124-2.124-2.124zM2.188 1.131h27.618c0.584 0 1.062 0.473 1.062 1.062v2.124h-29.743v-2.124c0.005-0.59 0.478-1.062 1.062-1.062zM29.812 30.874h-27.618c-0.584 0-1.062-0.473-1.062-1.062v-24.432h29.743v24.432c-0.005 0.584-0.478 1.062-1.062 1.062z"></path>
<path d="M29.812 32h-27.618c-1.211 0-2.194-0.983-2.194-2.188v-27.618c0-1.211 0.983-2.194 2.194-2.194h27.618c1.206 0 2.193 0.983 2.193 2.194v27.618c-0.005 1.206-0.988 2.188-2.194 2.188zM2.194 0.133c-1.137 0-2.061 0.924-2.061 2.061v27.618c0 1.137 0.924 2.061 2.061 2.061h27.618c1.137 0 2.061-0.924 2.061-2.061v-27.618c0-1.137-0.924-2.061-2.061-2.061h-27.618zM29.812 30.938h-27.618c-0.627 0-1.131-0.505-1.131-1.126v-24.501h29.875v24.501c0 0.621-0.505 1.126-1.126 1.126zM1.195 5.444v24.368c0 0.547 0.446 0.998 0.998 0.998h27.618c0.547 0 0.998-0.446 0.998-0.998v-24.368h-29.615zM30.938 4.382h-29.875v-2.188c0-0.627 0.505-1.131 1.131-1.131h27.618c0.621 0 1.131 0.505 1.131 1.131v2.188h-0.005zM1.195 4.249h29.61v-2.055c0-0.547-0.446-0.998-0.998-0.998h-27.618c-0.547 0-0.998 0.446-0.998 0.998v2.055h0.005z"></path>
<path d="M15.472 7.505h-11.154c-1.174 0-2.124 0.951-2.124 2.124v16.996c0 1.174 0.951 2.125 2.124 2.125h10.622c0.589 0 1.062-0.478 1.062-1.062v-2.273c0.329-0.191 0.531-0.536 0.531-0.914v-15.934c-0.005-0.59-0.478-1.062-1.062-1.062zM4.318 8.567h11.154v15.934h-11.154c-0.372 0-0.738 0.106-1.062 0.292v-15.164c0-0.589 0.473-1.062 1.062-1.062zM14.935 27.687h-10.622c-0.59 0-1.062-0.473-1.062-1.062s0.473-1.062 1.062-1.062h10.622v2.125zM27.682 7.505h-7.967c-0.882 0-1.593 0.712-1.593 1.593v5.311c0 0.882 0.712 1.593 1.593 1.593h7.967c0.882 0 1.593-0.712 1.593-1.593v-5.311c0-0.882-0.712-1.593-1.593-1.593zM28.218 14.409c0 0.292-0.239 0.531-0.531 0.531h-7.967c-0.292 0-0.531-0.239-0.531-0.531v-5.311c0-0.292 0.239-0.531 0.531-0.531h7.967c0.292 0 0.531 0.239 0.531 0.531v5.311z"></path>
<path d="M14.94 28.813h-10.622c-1.211 0-2.194-0.983-2.194-2.188v-16.996c0-1.211 0.983-2.194 2.194-2.194h11.154c0.621 0 1.131 0.505 1.131 1.131v15.934c0 0.388-0.207 0.749-0.531 0.951v2.236c-0.005 0.621-0.51 1.126-1.131 1.126zM4.318 7.568c-1.137 0-2.061 0.924-2.061 2.061v16.996c0 1.137 0.924 2.061 2.061 2.061h10.622c0.547 0 0.998-0.446 0.998-0.998v-2.31l0.032-0.021c0.303-0.175 0.494-0.505 0.499-0.86v-15.934c0-0.547-0.446-0.999-0.998-0.999l-11.154 0.005zM15.004 27.751h-10.686c-0.627 0-1.131-0.505-1.131-1.126s0.505-1.131 1.131-1.131h10.691v2.257h-0.005zM4.318 25.627c-0.547 0-0.998 0.446-0.998 0.998s0.446 0.993 0.998 0.993h10.553v-1.992h-10.553zM3.187 24.91v-15.28c0-0.627 0.505-1.131 1.131-1.131h11.223v16.066h-11.223c-0.361 0-0.717 0.101-1.030 0.287l-0.101 0.058zM4.318 8.631c-0.547 0-0.998 0.446-0.998 0.998v15.052c0.308-0.165 0.648-0.25 0.993-0.25h11.090v-15.801h-11.085zM27.687 16.066h-7.967c-0.913 0-1.662-0.744-1.662-1.662v-5.311c0-0.913 0.744-1.657 1.662-1.657h7.967c0.913 0 1.662 0.744 1.662 1.662v5.311c-0.005 0.913-0.749 1.657-1.662 1.657zM19.721 7.568c-0.839 0-1.53 0.685-1.53 1.53v5.311c0 0.844 0.685 1.53 1.53 1.53h7.967c0.839 0 1.53-0.685 1.53-1.53v-5.311c0-0.844-0.685-1.53-1.53-1.53h-7.967zM27.687 15.004h-7.967c-0.329 0-0.6-0.266-0.6-0.6v-5.311c0-0.329 0.266-0.595 0.6-0.595h7.967c0.329 0 0.6 0.266 0.6 0.6v5.311c-0.005 0.329-0.271 0.595-0.6 0.595zM19.721 8.631c-0.255 0-0.467 0.207-0.467 0.467v5.311c0 0.255 0.207 0.467 0.467 0.467h7.967c0.255 0 0.467-0.207 0.467-0.467v-5.311c0-0.255-0.207-0.467-0.467-0.467h-7.967z"></path>
<path d="M25.016 10.729l-1.413-0.919c-0.34-0.228-0.781-0.244-1.137-0.048-0.388 0.212-0.627 0.627-0.621 1.068v1.838c-0.005 0.446 0.234 0.855 0.621 1.067 0.361 0.202 0.797 0.181 1.137-0.048l1.413-0.919c0.34-0.228 0.542-0.611 0.542-1.025 0.005-0.404-0.202-0.786-0.542-1.014zM24.437 11.886l-1.413 0.919c-0.016 0.011-0.037 0.011-0.053 0-0.048-0.027-0.074-0.080-0.069-0.133v-1.838c-0.005-0.053 0.021-0.106 0.069-0.133 0.005-0.005 0.016-0.011 0.027-0.011s0.021 0.005 0.032 0.011l1.413 0.919c0.037 0.032 0.058 0.085 0.058 0.133-0.005 0.048-0.021 0.096-0.064 0.133zM5.911 16.534h6.905c0.584 0 1.062-0.473 1.062-1.062v-3.187c0-0.59-0.478-1.062-1.062-1.062h-6.905c-0.59 0-1.062 0.478-1.062 1.062v3.187c0 0.584 0.473 1.062 1.062 1.062zM5.911 12.285h6.905v3.187h-6.905v-3.187zM2.725 3.256h0.531c0.292 0 0.531-0.239 0.531-0.531s-0.239-0.531-0.531-0.531h-0.531c-0.292 0-0.531 0.239-0.531 0.531-0.005 0.292 0.234 0.531 0.531 0.531zM5.375 3.256h0.531c0.292 0 0.531-0.239 0.531-0.531s-0.239-0.531-0.531-0.531h-0.531c-0.292 0-0.531 0.239-0.531 0.531 0.005 0.292 0.239 0.531 0.531 0.531zM8.036 3.256h0.531c0.292 0 0.531-0.239 0.531-0.531s-0.239-0.531-0.531-0.531h-0.531c-0.292 0-0.531 0.239-0.531 0.531s0.234 0.531 0.531 0.531zM28.744 18.127h-10.091c-0.292 0-0.531 0.239-0.531 0.531s0.239 0.531 0.531 0.531h10.091c0.292 0 0.531-0.239 0.531-0.531 0-0.297-0.234-0.531-0.531-0.531zM28.744 21.314h-10.091c-0.292 0-0.531 0.239-0.531 0.531s0.239 0.531 0.531 0.531h10.091c0.292 0 0.531-0.239 0.531-0.531 0-0.297-0.234-0.531-0.531-0.531z"></path>
<path d="M28.75 22.44h-10.091c-0.329 0-0.6-0.266-0.6-0.6s0.266-0.595 0.6-0.595h10.091c0.329 0 0.6 0.266 0.6 0.6s-0.271 0.595-0.6 0.595zM18.658 21.378c-0.255 0-0.467 0.207-0.467 0.467s0.207 0.462 0.467 0.462h10.091c0.255 0 0.467-0.207 0.467-0.467s-0.207-0.467-0.467-0.467l-10.091 0.005zM28.75 19.253h-10.091c-0.329 0-0.6-0.266-0.6-0.6s0.266-0.595 0.6-0.595h10.091c0.329 0 0.6 0.266 0.6 0.6s-0.271 0.595-0.6 0.595zM18.658 18.191c-0.255 0-0.467 0.207-0.467 0.467s0.207 0.462 0.467 0.462h10.091c0.255 0 0.467-0.207 0.467-0.467s-0.207-0.467-0.467-0.467l-10.091 0.005zM12.816 16.598h-6.905c-0.627 0-1.131-0.505-1.131-1.126v-3.187c0-0.627 0.505-1.131 1.131-1.131h6.905c0.621 0 1.131 0.505 1.131 1.131v3.187c-0.005 0.621-0.51 1.126-1.131 1.126zM5.911 11.286c-0.547 0-0.998 0.446-0.998 0.998v3.187c0 0.547 0.446 0.999 0.998 0.999h6.905c0.547 0 0.998-0.446 0.998-0.998v-3.187c0-0.547-0.446-0.998-0.998-0.998h-6.905zM12.88 15.535h-7.037v-3.319h7.037v3.319zM5.975 15.402h6.772v-3.054h-6.772v3.054zM22.997 13.942c-0.197 0-0.388-0.048-0.563-0.149-0.409-0.223-0.659-0.659-0.659-1.126v-1.832c-0.005-0.467 0.25-0.903 0.659-1.126 0.382-0.212 0.845-0.191 1.206 0.048l1.413 0.919c0.356 0.244 0.574 0.648 0.574 1.078s-0.212 0.834-0.574 1.078l-1.413 0.919c-0.197 0.127-0.42 0.191-0.643 0.191zM22.997 9.693c-0.17 0-0.345 0.043-0.499 0.127-0.366 0.202-0.595 0.589-0.59 1.009v1.838c-0.005 0.42 0.223 0.807 0.59 1.009 0.34 0.186 0.749 0.17 1.068-0.043l1.413-0.919c0.319-0.218 0.515-0.579 0.515-0.967s-0.191-0.749-0.515-0.967l-1.413-0.919c-0.17-0.111-0.372-0.17-0.568-0.17zM22.997 12.88c-0.021 0-0.048-0.005-0.069-0.021-0.064-0.037-0.106-0.117-0.096-0.197v-1.832c-0.011-0.069 0.032-0.149 0.096-0.191 0.011-0.016 0.085-0.027 0.133 0.005l1.407 0.914c0.058 0.048 0.090 0.117 0.090 0.186 0 0.074-0.032 0.138-0.085 0.186l-0.005 0.005-1.413 0.919c-0.011 0.021-0.032 0.027-0.058 0.027zM22.992 12.747c-0.005 0-0.005 0.005-0.011 0.005l0.011-0.005zM23.003 12.747c0.005 0 0.005 0 0 0 0.005 0 0.005 0 0 0zM22.997 10.761c-0.021 0.021-0.032 0.043-0.027 0.064v1.843c-0.005 0.032 0.005 0.053 0.027 0.074l1.397-0.913c0.021-0.021 0.032-0.048 0.032-0.080s-0.016-0.064-0.037-0.080l-1.392-0.908zM23.019 10.745c-0.005 0-0.005 0.005-0.011 0.005 0.005 0 0.005-0.005 0.011-0.005zM8.567 3.32h-0.531c-0.335 0-0.6-0.266-0.6-0.595s0.266-0.6 0.6-0.6h0.531c0.329 0 0.6 0.266 0.6 0.6s-0.271 0.595-0.6 0.595zM8.036 2.257c-0.255 0-0.467 0.207-0.467 0.467s0.207 0.462 0.467 0.462h0.531c0.255 0 0.462-0.207 0.462-0.462s-0.207-0.467-0.467-0.467h-0.526zM5.911 3.32h-0.531c-0.335 0-0.6-0.266-0.6-0.595s0.266-0.6 0.6-0.6h0.531c0.329 0 0.6 0.266 0.6 0.6s-0.271 0.595-0.6 0.595zM5.38 2.257c-0.255 0-0.467 0.207-0.467 0.467s0.207 0.462 0.467 0.462h0.531c0.255 0 0.462-0.207 0.462-0.462s-0.207-0.467-0.467-0.467h-0.526zM3.256 3.32h-0.531c-0.335 0-0.6-0.266-0.6-0.595s0.266-0.6 0.6-0.6h0.531c0.329 0 0.6 0.266 0.6 0.6s-0.271 0.595-0.6 0.595zM2.725 2.257c-0.255 0-0.467 0.207-0.467 0.467s0.207 0.462 0.467 0.462h0.531c0.255 0 0.462-0.207 0.462-0.462s-0.207-0.467-0.462-0.467h-0.531z"></path>
</svg>
