<!-- Generated by IcoMoon.io -->
<svg version="1.1" xmlns="http://www.w3.org/2000/svg" width="32" height="32" viewBox="0 0 32 32">
<path d="M21.276 15.381l-6.641-4.843c-0.131-0.097-0.297-0.156-0.476-0.156-0.444 0-0.804 0.36-0.804 0.804 0 0.005 0 0.009 0 0.014v-0.001 9.643c0.004 0.312 0.178 0.582 0.433 0.723l0.004 0.002c0.107 0.047 0.231 0.078 0.362 0.085l0.003 0c0.179-0.005 0.343-0.068 0.473-0.172l-0.002 0.001 6.641-4.821c0.203-0.144 0.334-0.378 0.334-0.642 0-0.262-0.128-0.493-0.325-0.636l-0.002-0.002zM16 0c-8.837 0-16 7.163-16 16s7.163 16 16 16c8.837 0 16-7.163 16-16v0c0-8.837-7.163-16-16-16v0zM16 29.312c-7.348-0.005-13.303-5.963-13.303-13.312 0-7.352 5.96-13.312 13.312-13.312s13.312 5.96 13.312 13.312v0c0 7.352-5.96 13.312-13.312 13.312-0.003 0-0.006 0-0.009 0h0z"></path>
</svg>
