<!-- Generated by IcoMoon.io -->
<svg version="1.1" xmlns="http://www.w3.org/2000/svg" width="32" height="32" viewBox="0 0 32 32">
<path fill="#808c98" d="M23.913 6.621c-0.352 0-0.695 0.104-0.988 0.3s-0.52 0.473-0.655 0.798-0.17 0.682-0.101 1.027c0.069 0.345 0.238 0.662 0.487 0.91s0.565 0.418 0.91 0.487 0.702 0.033 1.027-0.101c0.325-0.135 0.602-0.362 0.798-0.655s0.3-0.636 0.3-0.988c0-0.471-0.187-0.924-0.521-1.257s-0.786-0.521-1.257-0.521zM30.728 10.206c-0.029-1.229-0.259-2.445-0.681-3.6-0.377-0.988-0.963-1.883-1.719-2.622-0.733-0.759-1.63-1.342-2.622-1.704-1.152-0.435-2.369-0.671-3.6-0.696-1.57-0.089-2.074-0.089-6.104-0.089s-4.533 0-6.104 0.089c-1.231 0.026-2.448 0.261-3.6 0.696-0.99 0.365-1.886 0.947-2.622 1.704-0.759 0.734-1.342 1.63-1.704 2.622-0.435 1.152-0.671 2.369-0.696 3.6-0.089 1.57-0.089 2.074-0.089 6.104s0 4.533 0.089 6.104c0.026 1.231 0.261 2.448 0.696 3.6 0.362 0.992 0.944 1.889 1.704 2.622 0.736 0.756 1.632 1.338 2.622 1.704 1.152 0.435 2.369 0.671 3.6 0.696 1.57 0.089 2.074 0.089 6.104 0.089s4.533 0 6.104-0.089c1.231-0.026 2.448-0.261 3.6-0.696 0.992-0.362 1.889-0.944 2.622-1.704 0.759-0.737 1.346-1.632 1.719-2.622 0.422-1.155 0.653-2.371 0.681-3.6 0-1.57 0.089-2.074 0.089-6.104s0-4.533-0.089-6.104zM28.061 22.236c-0.011 0.94-0.181 1.872-0.504 2.756-0.237 0.645-0.617 1.227-1.111 1.704-0.481 0.49-1.062 0.869-1.704 1.111-0.883 0.323-1.815 0.493-2.756 0.504-1.482 0.074-2.030 0.089-5.926 0.089s-4.444 0-5.926-0.089c-0.976 0.018-1.949-0.132-2.874-0.444-0.614-0.255-1.168-0.633-1.63-1.111-0.492-0.476-0.867-1.059-1.096-1.704-0.362-0.896-0.562-1.849-0.593-2.815 0-1.481-0.089-2.030-0.089-5.926s0-4.444 0.089-5.926c0.007-0.961 0.182-1.914 0.519-2.815 0.261-0.625 0.661-1.183 1.17-1.63 0.45-0.509 1.006-0.914 1.63-1.185 0.903-0.326 1.855-0.496 2.815-0.504 1.481 0 2.030-0.089 5.926-0.089s4.444 0 5.926 0.089c0.94 0.011 1.872 0.181 2.756 0.504 0.673 0.25 1.277 0.656 1.763 1.185 0.485 0.455 0.865 1.011 1.111 1.63 0.329 0.902 0.5 1.855 0.504 2.815 0.074 1.481 0.089 2.030 0.089 5.926s-0.015 4.445-0.089 5.926zM16.002 8.71c-1.502 0.003-2.97 0.451-4.218 1.288s-2.22 2.025-2.793 3.414c-0.573 1.389-0.721 2.917-0.426 4.39s1.020 2.826 2.083 3.887c1.063 1.061 2.418 1.784 3.892 2.076s3.001 0.141 4.389-0.435c1.388-0.576 2.574-1.55 3.408-2.799s1.28-2.718 1.28-4.221c0.002-1-0.194-1.99-0.576-2.914s-0.943-1.763-1.651-2.47c-0.708-0.706-1.548-1.266-2.473-1.646s-1.915-0.574-2.915-0.57zM16.002 21.243c-0.976 0-1.93-0.289-2.741-0.831s-1.444-1.313-1.817-2.214c-0.373-0.901-0.471-1.893-0.281-2.85s0.66-1.836 1.35-2.526c0.69-0.69 1.569-1.16 2.526-1.35s1.949-0.093 2.85 0.281c0.901 0.373 1.672 1.006 2.214 1.817s0.831 1.765 0.831 2.741c0 0.648-0.128 1.289-0.375 1.888s-0.611 1.142-1.070 1.601-1.002 0.822-1.601 1.069c-0.598 0.248-1.24 0.376-1.888 0.376z"></path>
</svg>
