<!-- Generated by IcoMoon.io -->
<svg version="1.1" xmlns="http://www.w3.org/2000/svg" width="32" height="32" viewBox="0 0 32 32">
<path d="M19.959 15.752c0.001 0.057 0.001 0.127 0.001 0.195 0 1.809-0.448 3.513-1.239 5.009l0.028-0.059c-0.8 1.495-1.975 2.697-3.4 3.509l-0.043 0.023c-1.421 0.8-3.12 1.271-4.928 1.271-0.069 0-0.139-0.001-0.207-0.003h0.011c-0.008 0-0.019 0-0.029 0-1.42 0-2.771-0.296-3.993-0.831l0.064 0.025c-2.464-1.033-4.384-2.953-5.392-5.351l-0.024-0.065c-0.509-1.168-0.805-2.528-0.805-3.959s0.296-2.791 0.831-4.024l-0.025 0.065c1.033-2.464 2.953-4.384 5.351-5.392l0.065-0.024c1.16-0.511 2.512-0.808 3.935-0.808h0.024c0.049-0.001 0.107-0.001 0.165-0.001 2.583 0 4.927 1.016 6.656 2.672l-0.004-0.004-2.764 2.653c-1.007-0.973-2.38-1.572-3.893-1.572-0.056 0-0.112 0.001-0.168 0.003h0.008c-0.012 0-0.027 0-0.041 0-1.152 0-2.228 0.32-3.147 0.876l0.027-0.015c-1.905 1.153-3.16 3.215-3.16 5.569s1.255 4.416 3.131 5.553l0.029 0.016c0.891 0.541 1.968 0.861 3.119 0.861h0.111c0.732 0 1.436-0.117 2.096-0.333l-0.048 0.013c0.607-0.191 1.136-0.463 1.605-0.809l-0.015 0.011c0.413-0.317 0.772-0.676 1.080-1.076l0.011-0.013c0.264-0.333 0.492-0.713 0.667-1.121l0.012-0.032c0.124-0.293 0.227-0.637 0.293-0.995l0.005-0.032h-5.779v-3.5h9.611c0.104 0.509 0.167 1.095 0.169 1.693zM32 14.055v2.919h-2.903v2.903h-2.919v-2.903h-2.899v-2.919h2.903v-2.903h2.919v2.903h2.899z"></path>
</svg>
