<!-- Generated by IcoMoon.io -->
<svg version="1.1" xmlns="http://www.w3.org/2000/svg" width="32" height="32" viewBox="0 0 32 32">
<path fill="#195ec8" d="M30.644 12.554c0.152-0.762-0.457-1.676-1.219-1.676l-8.686-1.219-3.962-7.924c-0.152-0.305-0.305-0.457-0.61-0.61-0.762-0.457-1.676-0.152-2.133 0.61l-3.81 7.924-8.686 1.219c-0.457 0-0.762 0.152-0.914 0.457-0.61 0.61-0.61 1.524 0 2.133l6.248 6.095-1.524 8.686c0 0.305 0 0.61 0.152 0.914 0.457 0.762 1.371 1.067 2.133 0.61l7.771-4.114 7.771 4.114c0.152 0.152 0.457 0.152 0.762 0.152 0.152 0 0.152 0 0.305 0 0.762-0.152 1.371-0.914 1.219-1.829l-1.524-8.686 6.248-6.095c0.305-0.152 0.457-0.457 0.457-0.762z"></path>
</svg>
