<!-- Generated by IcoMoon.io -->
<svg version="1.1" xmlns="http://www.w3.org/2000/svg" width="34" height="32" viewBox="0 0 34 32">
<path fill="#ffa800" d="M25.966 31.296c-0.259-0.001-0.515-0.064-0.744-0.186l-8.155-4.288-8.155 4.288c-0.264 0.138-0.562 0.2-0.859 0.179s-0.583-0.126-0.824-0.301-0.429-0.414-0.541-0.69c-0.113-0.276-0.146-0.578-0.096-0.872l1.557-9.082-6.598-6.432c-0.213-0.208-0.364-0.472-0.436-0.762s-0.060-0.594 0.032-0.877c0.092-0.284 0.262-0.536 0.49-0.728s0.505-0.317 0.8-0.36l9.118-1.325 4.078-8.262c0.147-0.25 0.357-0.457 0.608-0.601s0.536-0.22 0.826-0.22c0.29 0 0.575 0.076 0.826 0.22s0.461 0.351 0.608 0.601l4.077 8.262 9.118 1.325c0.295 0.043 0.572 0.168 0.8 0.36s0.398 0.445 0.49 0.728c0.092 0.284 0.103 0.588 0.032 0.877s-0.222 0.554-0.436 0.762l-6.598 6.432 1.558 9.081c0.039 0.23 0.028 0.465-0.033 0.69s-0.17 0.433-0.321 0.612c-0.15 0.178-0.337 0.321-0.548 0.42s-0.443 0.149-0.676 0.149z"></path>
</svg>
