<!-- Generated by IcoMoon.io -->
<svg version="1.1" xmlns="http://www.w3.org/2000/svg" width="32" height="32" viewBox="0 0 32 32">
<path fill="#ffa800" d="M31.975 12.216c0.16-0.799-0.48-1.759-1.279-1.759l-9.113-1.279-4.157-8.314c-0.16-0.32-0.32-0.48-0.639-0.639-0.799-0.48-1.759-0.16-2.238 0.639l-3.997 8.314-9.113 1.279c-0.48 0-0.799 0.16-0.959 0.48-0.639 0.639-0.639 1.599 0 2.238l6.555 6.395-1.599 9.113c0 0.32 0 0.64 0.16 0.959 0.48 0.799 1.439 1.119 2.238 0.639l8.154-4.317 8.154 4.317c0.16 0.16 0.48 0.16 0.799 0.16 0.16 0 0.16 0 0.32 0 0.799-0.16 1.439-0.959 1.279-1.919l-1.599-9.113 6.555-6.395c0.32-0.16 0.48-0.48 0.48-0.799z"></path>
</svg>
