<!-- Generated by IcoMoon.io -->
<svg version="1.1" xmlns="http://www.w3.org/2000/svg" width="32" height="32" viewBox="0 0 32 32">
<path fill="#b3bac2" d="M31.946 11.753c-0.101-0.292-0.284-0.549-0.528-0.739s-0.538-0.305-0.846-0.332l-9.092-1.326-4.074-8.261c-0.131-0.27-0.335-0.498-0.589-0.657s-0.548-0.244-0.849-0.244c-0.3 0-0.594 0.085-0.849 0.244s-0.459 0.387-0.589 0.657l-4.074 8.245-9.092 1.342c-0.296 0.042-0.574 0.166-0.802 0.358s-0.399 0.444-0.492 0.728c-0.085 0.277-0.092 0.573-0.022 0.854s0.216 0.539 0.421 0.743l6.599 6.391-1.598 9.076c-0.057 0.299-0.027 0.609 0.086 0.892s0.305 0.528 0.553 0.705c0.242 0.173 0.527 0.275 0.823 0.295s0.592-0.044 0.855-0.183l8.181-4.266 8.149 4.282c0.224 0.126 0.477 0.192 0.735 0.192 0.338 0.001 0.669-0.105 0.943-0.304 0.248-0.178 0.44-0.422 0.553-0.705s0.143-0.593 0.086-0.892l-1.598-9.076 6.599-6.391c0.231-0.195 0.401-0.452 0.492-0.741s0.097-0.597 0.020-0.889zM22.12 18.144c-0.187 0.181-0.328 0.406-0.408 0.653s-0.1 0.512-0.055 0.769l1.15 6.695-6.008-3.196c-0.231-0.123-0.489-0.187-0.751-0.187s-0.52 0.064-0.751 0.187l-6.008 3.196 1.15-6.695c0.045-0.257 0.026-0.521-0.055-0.769s-0.221-0.472-0.408-0.653l-4.793-4.793 6.727-0.975c0.259-0.036 0.505-0.135 0.717-0.288s0.383-0.356 0.498-0.591l2.844-6.088 3.004 6.104c0.115 0.235 0.286 0.437 0.498 0.591s0.458 0.252 0.717 0.288l6.727 0.975-4.793 4.777z"></path>
</svg>
