<svg width="24" height="24" fill="none" xmlns="http://www.w3.org/2000/svg"><path d="M12.86 1.343a8.746 8.746 0 0 0-4.1 1.674A9.478 9.478 0 0 0 6.702 5.2c-.508.76-1.017 1.956-1.218 2.863a9.315 9.315 0 0 0-.001 3.874 9.528 9.528 0 0 0 1.066 2.623 8.784 8.784 0 0 0 6.346 4.098c.601.079 1.609.079 2.21 0a8.73 8.73 0 0 0 6.186-3.858A8.628 8.628 0 0 0 22.72 10a8.628 8.628 0 0 0-1.429-4.8 8.73 8.73 0 0 0-6.186-3.858c-.573-.076-1.688-.075-2.245.001m2.228 1.479c2.66.382 4.965 2.33 5.81 4.909 1.14 3.479-.478 7.242-3.799 8.834-1.643.788-3.636.911-5.379.331a7.307 7.307 0 0 1-4.242-3.716 7.233 7.233 0 0 1 1.487-8.401c1.661-1.591 3.836-2.286 6.123-1.957M2.863 10.127c-.241.053-.385.191-.589.558a8.094 8.094 0 0 0-.958 3.049c-.059.551-.025 1.768.062 2.238.531 2.866 2.392 5.147 5.062 6.202 1.659.656 3.617.73 5.35.202.612-.186 1.496-.591 1.834-.84.165-.121.264-.34.262-.578a.664.664 0 0 0-.232-.525c-.262-.248-.551-.257-.974-.03-.758.408-1.616.698-2.36.8-.496.067-1.464.055-1.96-.024a6.704 6.704 0 0 1-5.012-3.804 6.474 6.474 0 0 1-.596-2.755c-.002-1.176.188-1.973.733-3.077.193-.39.275-.601.275-.707a.726.726 0 0 0-.897-.709" fill-rule="evenodd" fill="#000"/></svg>