<svg width="19" height="19" fill="none" xmlns="http://www.w3.org/2000/svg"><path d="M8.819.035c-.579.084-1.16.499-1.573 1.122-.08.121-.516.962-.969 1.868-.734 1.47-.839 1.662-.972 1.784a1.287 1.287 0 0 1-.28.195c-.076.033-.71.155-1.473.283-1.599.268-1.688.286-2.037.413C.199 6.176-.319 7.356.256 8.569c.206.436.461.733 1.665 1.946 1.219 1.228 1.243 1.258 1.311 1.626.031.165.015.252-.287 1.569-.392 1.709-.412 1.821-.412 2.307 0 .487.061.799.224 1.142.226.477.69.847 1.195.951.407.084.989.011 1.485-.187.334-.133.524-.239 1.969-1.102.685-.409 1.298-.763 1.361-.785a1.21 1.21 0 0 1 .59-.009c.07.019.72.389 1.446.821.725.432 1.43.842 1.567.911.52.26.982.386 1.421.386.349 0 .55-.044.839-.184.753-.366 1.122-1.254.983-2.368-.021-.173-.188-.969-.371-1.77-.291-1.274-.331-1.481-.314-1.644.037-.372.067-.409 1.384-1.745 1.262-1.281 1.411-1.458 1.628-1.927.142-.308.204-.578.204-.891 0-.944-.635-1.679-1.725-1.994-.149-.044-.916-.186-1.703-.318-.788-.131-1.489-.259-1.559-.285a1.237 1.237 0 0 1-.294-.194c-.161-.14-.201-.212-.936-1.702a67.453 67.453 0 0 0-.902-1.784C10.478.403 9.651-.086 8.819.035m.495 1.544c.26.165.408.417 1.28 2.174.57 1.15.878 1.735.977 1.859.267.333.722.662 1.111.804.125.045.791.173 1.715.33 1.552.263 1.806.322 2.019.468.287.197.324.391.146.757-.092.189-.222.333-1.075 1.197-1.588 1.608-1.587 1.606-1.754 1.948a3.3 3.3 0 0 0-.196.49c-.068.27-.11.683-.09.878.01.092.169.822.352 1.624.308 1.344.335 1.487.347 1.852.012.366.008.406-.06.537-.096.186-.202.215-.518.145-.332-.074-.573-.202-2.083-1.104-.993-.593-1.421-.831-1.599-.89-.591-.196-1.351-.155-1.857.1-.088.044-.758.437-1.49.873-1.426.85-1.614.949-1.945 1.024-.374.084-.512-.001-.579-.361-.056-.306 0-.654.357-2.192.411-1.769.427-1.993.191-2.66-.183-.521-.237-.587-1.506-1.869-.648-.653-1.238-1.268-1.312-1.367-.153-.205-.257-.451-.257-.611 0-.195.232-.402.588-.524.1-.034.825-.17 1.61-.302 1.646-.276 1.64-.274 1.94-.411a2.69 2.69 0 0 0 1.009-.808c.059-.079.491-.915.961-1.856.758-1.519.875-1.734 1.031-1.902.286-.309.445-.356.687-.203" fill-rule="evenodd" fill="#000"/></svg>