<svg width="24" height="24" fill="none" xmlns="http://www.w3.org/2000/svg"><path d="M7.241 1.325c-2.333.157-3.482 1.08-3.822 3.07-.124.729-.139 1.662-.139 8.809 0 7.019.002 7.19.079 7.492.124.486.328.834.72 1.225.391.391.739.596 1.223.72.299.076.492.078 7.576.08 5.168.001 7.304-.011 7.386-.042a.736.736 0 0 0 .456-.675.707.707 0 0 0-.731-.724c-.193 0-.292-.08-.483-.387a1.67 1.67 0 0 1 0-1.786c.191-.307.29-.387.483-.387a.735.735 0 0 0 .688-.453c.06-.157.059-13.669 0-14.302-.08-.859-.315-1.446-.756-1.886-.44-.441-1.027-.676-1.886-.756-.545-.051-10.032-.049-10.794.002M18.06 2.796c.625.102.88.258 1.016.623.183.487.184.546.184 7.381v6.46H8.74l-.01-7.248-.01-7.247.17-.018c.405-.041 8.897.004 9.17.049M7.27 10.03l-.01 7.23-.92.021c-.948.023-1.061.041-1.55.257-.066.029-.07-.225-.069-5.024.002-5.328.034-7.165.136-7.803.157-.977.515-1.469 1.245-1.712a4.678 4.678 0 0 1 1.028-.195l.15-.004-.01 7.23m10.667 8.978a3.078 3.078 0 0 0 0 1.984l.098.288h-5.987c-3.989-.001-6.075-.015-6.248-.043a1.178 1.178 0 0 1-.731-.392 1.051 1.051 0 0 1-.304-.616 1.237 1.237 0 0 1 .39-1.16c.21-.189.355-.262.613-.304.117-.019 2.924-.037 6.24-.04l6.027-.005-.098.288" fill-rule="evenodd" fill="#000"/></svg>