<svg width="24" height="24" fill="none" xmlns="http://www.w3.org/2000/svg"><path d="M10.731 1.343a10.75 10.75 0 0 0-8.629 6.51 10.817 10.817 0 0 0 0 8.294 10.765 10.765 0 0 0 5.751 5.751c2.611 1.094 5.649 1.101 8.248.02a10.74 10.74 0 0 0 5.817-5.817c1.081-2.599 1.074-5.637-.02-8.248-1.354-3.232-4.275-5.651-7.667-6.35-1.074-.221-2.468-.285-3.5-.16m2.629 1.5c3.633.515 6.657 3.225 7.603 6.814.386 1.462.386 3.224 0 4.686a9.28 9.28 0 0 1-7.623 6.821c-1.145.171-2.567.094-3.683-.201a9.277 9.277 0 0 1-6.821-7.623c-.107-.719-.116-1.86-.019-2.56.426-3.08 2.336-5.741 5.085-7.084 1.729-.845 3.528-1.126 5.458-.853m-2.128 4.363-.012.207-.32.085c-.798.211-1.494.683-1.897 1.285-.533.796-.565 1.826-.081 2.575.224.346.524.615.895.801.509.256.818.319 2.163.443 1.354.125 2.022.333 2.205.688.097.188.059.822-.066 1.084-.174.368-.582.65-1.079.747-.315.061-1.168.053-1.52-.015-.936-.182-1.642-.615-1.769-1.086l-.049-.185-.181.021c-.1.012-.428.032-.731.047l-.55.025.024.166c.067.477.316.976.668 1.341.414.428 1.157.825 1.908 1.019l.38.098.012.224.012.224h1.476v-.348l.39-.065c1.63-.271 2.516-1.195 2.596-2.707.058-1.106-.41-1.891-1.368-2.292-.563-.235-1.171-.352-2.442-.469-.951-.087-1.309-.168-1.547-.348-.417-.315-.405-.927.026-1.348.367-.358.874-.557 1.539-.606.598-.044 1.058.085 1.47.413.222.176.528.599.564.779.016.079.046.111.107.111.103 0 1.36-.163 1.377-.179a.886.886 0 0 0-.034-.206c-.068-.29-.373-.881-.601-1.166-.411-.514-1.11-.961-1.757-1.124l-.3-.076-.012-.184L12.716 7h-1.472l-.012.206" fill-rule="evenodd" fill="#000"/></svg>