<svg width="24" height="24" fill="none" xmlns="http://www.w3.org/2000/svg"><path d="M7.092 1.321c-2.234.156-3.333 1.055-3.668 3-.135.786-.149 1.66-.135 8.959.015 7.936-.002 7.419.269 7.956.331.657 1.009.957 1.774.787.41-.091.89-.334 1.62-.818.336-.224.709-.461.827-.528.213-.12.218-.121.348-.053.073.037.754.459 1.513.936.759.478 1.452.905 1.54.95a1.744 1.744 0 0 0 1.64 0c.088-.045.781-.472 1.54-.95.759-.477 1.44-.899 1.513-.936.131-.068.135-.067.359.059.125.071.494.307.821.526.707.472 1.202.722 1.615.814.765.17 1.443-.13 1.774-.787.271-.537.254-.022.269-7.936.015-8.371.004-8.732-.297-9.656-.444-1.358-1.342-2.04-3.014-2.286-.394-.058-9.538-.091-10.308-.037m9.897 1.478c.821.081 1.395.29 1.667.607.295.345.467.889.547 1.734.062.645.099 13.303.043 14.48-.022.462-.052.872-.067.91-.04.101-.225.089-.477-.031-.118-.055-.526-.308-.908-.562a13.785 13.785 0 0 0-1.025-.626c-.291-.145-.373-.168-.666-.183-.35-.018-.583.033-.923.203-.088.044-.781.471-1.54.948-1.718 1.082-1.604 1.021-1.77.936a73.833 73.833 0 0 1-1.524-.945c-1.668-1.05-1.803-1.119-2.25-1.142-.53-.028-.812.093-1.896.815-.342.227-.73.468-.861.535-.273.138-.476.159-.519.052-.084-.21-.105-2.181-.088-8.31.013-4.505.034-6.752.065-7.08.101-1.061.346-1.659.796-1.944.454-.288.991-.392 2.247-.436 1.313-.047 8.601-.016 9.149.039M11.7 5.337a.823.823 0 0 0-.377.396c-.024.062-.043.318-.043.57v.457l-.49.001c-.887.001-1.361.17-1.85.659-.518.518-.66.914-.66 1.844 0 .891.128 1.259.613 1.766.278.291.52.455.85.578.228.085.304.089 2.097.11 2.035.024 1.972.016 2.205.268.164.177.202.281.224.609.04.585-.103.933-.447 1.09-.149.067-.298.073-1.813.074-1.402.001-1.674-.008-1.8-.061-.285-.119-.423-.308-.468-.639-.043-.313-.093-.435-.232-.569a.719.719 0 0 0-1.036.015c-.147.157-.193.297-.193.589 0 .546.224 1.051.66 1.486.489.489.963.658 1.85.659l.49.001v.461c0 .509.039.652.225.826.28.262.71.262.99 0 .186-.174.225-.317.225-.826v-.461l.49-.001c.881-.001 1.365-.173 1.85-.659.514-.514.66-.917.66-1.82 0-.888-.13-1.277-.588-1.762-.293-.311-.536-.479-.875-.606-.229-.086-.301-.09-2.097-.111-2.065-.023-1.981-.012-2.233-.3-.165-.187-.187-.281-.186-.781.002-.448.04-.575.226-.748.222-.207.267-.212 2.042-.211 1.515.001 1.664.007 1.813.074.23.105.364.283.417.555l.067.343c.028.148.239.385.402.453.265.111.58.055.787-.139.162-.151.225-.325.225-.617 0-.55-.223-1.054-.66-1.49-.489-.489-.963-.658-1.85-.659l-.49-.001v-.457c0-.5-.03-.624-.193-.798a.759.759 0 0 0-.827-.168" fill-rule="evenodd" fill="#000"/></svg>