<svg width="24" height="24" fill="none" xmlns="http://www.w3.org/2000/svg"><path d="M10.759 4.361c-3.063.446-6.095 2.513-8.608 5.868-.741.99-.868 1.25-.868 1.771 0 .521.127.781.868 1.771 1.171 1.563 2.424 2.818 3.829 3.832 3.414 2.466 7.071 2.788 10.56.929 1.899-1.012 3.732-2.656 5.309-4.761.741-.99.868-1.25.868-1.771 0-.521-.127-.781-.868-1.771-2.256-3.012-4.924-4.984-7.704-5.692-1.009-.257-2.349-.327-3.386-.176m2.201 1.445c1.695.21 3.472 1.085 5.167 2.546.461.397 1.32 1.26 1.74 1.748.485.562 1.245 1.567 1.37 1.81.057.111.037.153-.289.61a17.309 17.309 0 0 1-1.882 2.236c-1.751 1.785-3.593 2.908-5.446 3.32a6.396 6.396 0 0 1-1.618.172c-.65 0-1.071-.045-1.642-.173-2.435-.549-4.968-2.421-7.059-5.215a12.128 12.128 0 0 1-.489-.69l-.1-.17.1-.17c.055-.093.275-.404.489-.69C5.184 8.623 7.426 6.85 9.64 6.126a7.43 7.43 0 0 1 3.32-.32m-1.54 2.5c-1.442.23-2.64 1.325-3.048 2.785-.099.354-.099 1.464 0 1.818.377 1.347 1.34 2.312 2.708 2.713.375.111 1.466.11 1.84 0 1.364-.401 2.301-1.338 2.702-2.702.111-.375.111-1.465 0-1.84-.399-1.356-1.321-2.288-2.662-2.689-.192-.057-.412-.081-.84-.091a7.51 7.51 0 0 0-.7.006m1.262 1.535c.648.189 1.271.81 1.482 1.476.116.367.116.999 0 1.366-.209.663-.818 1.272-1.481 1.481-.367.116-.999.116-1.366 0-.663-.209-1.272-.818-1.481-1.481-.116-.367-.116-.999 0-1.366.151-.479.515-.941.977-1.241.528-.343 1.203-.428 1.869-.235" fill-rule="evenodd" fill="#000"/></svg>