<svg width="24" height="24" fill="none" xmlns="http://www.w3.org/2000/svg"><path d="M6.78 1.337a.726.726 0 0 0-.42.667c0 .35.059.414 1.417 1.545.417.347.765.653.774.68.012.039-.566.052-2.661.06L3.214 4.3l-.151.115A.807.807 0 0 0 2.762 5c0 .204.128.453.301.585l.151.115 2.676.011c2.095.008 2.673.021 2.661.06-.009.027-.357.333-.774.68C6.417 7.584 6.36 7.646 6.36 8c0 .41.312.72.724.72.218 0 .377-.076.639-.305.123-.107.564-.477.98-.821 2.32-1.918 2.544-2.713 1.166-4.142-.34-.354-2.035-1.808-2.402-2.062a.755.755 0 0 0-.687-.053m4.92-.003a.73.73 0 0 0 .109 1.362c.072.011.932.031 1.911.044 2.359.032 3.023.081 3.791.282.573.149.938.344 1.28.683.592.586.833 1.407.928 3.155.053.996.053 9.284 0 10.28-.095 1.748-.338 2.57-.935 3.162-.427.424-.966.657-1.844.798-.827.132-1.571.156-4.94.156-3.369 0-4.113-.024-4.94-.156-.882-.142-1.416-.374-1.851-.805-.592-.586-.833-1.407-.928-3.155-.022-.418-.041-2.448-.041-4.511 0-4.013.005-3.904-.192-4.122-.232-.257-.712-.301-.988-.089a.86.86 0 0 0-.223.277c-.072.157-.075.334-.076 3.745 0 4.662.048 5.734.306 6.82.428 1.802 1.521 2.843 3.385 3.222 1.018.208 1.275.218 5.548.218 3.491 0 4.052-.008 4.564-.068 1.67-.195 2.576-.562 3.326-1.347.781-.817 1.113-1.77 1.278-3.665.039-.453.052-1.831.052-5.62s-.013-5.167-.052-5.62c-.165-1.895-.497-2.848-1.278-3.665-.74-.775-1.66-1.153-3.266-1.34-.76-.089-4.751-.122-4.924-.041m1.48 5.009a.662.662 0 0 0-.345.357.723.723 0 0 0 .228.885l.151.115 2.243.01 2.243.01.159-.091a.716.716 0 0 0 0-1.258l-.159-.09h-2.2c-1.918 0-2.215.008-2.32.062m0 5a.662.662 0 0 0-.345.357.723.723 0 0 0 .228.885l.151.115 2.243.01 2.243.01.159-.091a.87.87 0 0 0 .249-.224.714.714 0 0 0-.249-1.034l-.159-.09h-2.2c-1.918 0-2.215.008-2.32.062m-2.592 2.053c-.602.316-1.222.855-1.755 1.525a12.81 12.81 0 0 0-.813 1.259 8.854 8.854 0 0 1-.166.296c-.006.008-.123-.076-.26-.188-.276-.227-.64-.422-.921-.494-.335-.087-.686.091-.838.424a.598.598 0 0 0 .001.562c.095.207.209.307.504.445.321.149.718.549.909.915.223.431.418.58.755.58.356 0 .611-.223.758-.665.117-.352.599-1.3.882-1.735.439-.673.99-1.248 1.479-1.539.457-.273.597-.454.597-.777 0-.589-.578-.9-1.132-.608m2.592 2.947a.662.662 0 0 0-.345.357.723.723 0 0 0 .228.885l.151.115 2.243.01 2.243.01.159-.091a.87.87 0 0 0 .249-.224.714.714 0 0 0-.249-1.034l-.159-.09h-2.2c-1.918 0-2.215.008-2.32.062" fill-rule="evenodd" fill="#000"/></svg>