<svg width="24" height="24" fill="none" xmlns="http://www.w3.org/2000/svg"><path d="M14.16 2.343a4.753 4.753 0 0 0-3.81 3.809c-.044.287-.047.292-.148.267-.84-.213-1.876-.179-2.671.087A4.708 4.708 0 0 0 4.758 8.92c-.947 1.923-.455 4.311 1.169 5.671l.314.263-.351.185c-1.327.704-2.264 1.668-2.944 3.031-.408.818-.666 1.875-.666 2.727 0 .4.036.53.193.698a.719.719 0 0 0 1.036.015c.17-.163.201-.273.249-.87.118-1.457.686-2.604 1.782-3.597a5.292 5.292 0 0 1 1.74-1.015 5.54 5.54 0 0 1 3.44 0c1.449.496 2.701 1.727 3.22 3.164.159.441.258.919.301 1.448.023.275.059.555.081.623.047.147.254.356.411.415.363.137.811-.058.944-.411.063-.164.052-.777-.02-1.242-.232-1.493-.884-2.774-1.942-3.814a6.08 6.08 0 0 0-1.605-1.172l-.351-.185.314-.263c.304-.255.708-.716.919-1.049.303-.48.579-1.191.658-1.695.041-.267.052-.29.128-.269.261.072.792.14 1.282.163 1.509.072 2.671.563 3.653 1.546.914.914 1.42 2.024 1.528 3.353.023.275.059.555.081.623.047.147.254.356.411.415.363.137.811-.058.944-.411.063-.164.052-.777-.02-1.242-.227-1.462-.845-2.699-1.868-3.74a6.216 6.216 0 0 0-1.679-1.246l-.351-.185.314-.263c.634-.531 1.142-1.29 1.421-2.122a4.877 4.877 0 0 0 0-2.938 4.74 4.74 0 0 0-3.025-3.025c-.661-.221-1.619-.288-2.309-.163m1.68 1.502c1.089.271 2.034 1.221 2.323 2.335.062.241.083.444.083.82 0 .376-.021.579-.083.82-.29 1.121-1.229 2.059-2.339 2.34-.387.098-1.158.109-1.527.022-.36-.085-.697-.221-.697-.28 0-.188-.371-1.068-.608-1.444a5.344 5.344 0 0 0-.938-1.065l-.335-.283.026-.325c.056-.702.277-1.276.695-1.802.818-1.029 2.104-1.46 3.4-1.138M9.345 7.76a3.298 3.298 0 0 1 2.529 1.682c.393.7.491 1.726.244 2.54-.313 1.027-1.245 1.913-2.294 2.178-.44.111-1.208.111-1.648 0-1.11-.281-2.049-1.219-2.339-2.34-.116-.447-.116-1.193 0-1.64.333-1.284 1.477-2.282 2.774-2.419l.329-.035c.022-.002.204.013.405.034" fill-rule="evenodd" fill="#000"/></svg>