<svg width="30" height="30" fill="none" xmlns="http://www.w3.org/2000/svg"><path d="M3.429 3.055c-.382.056-.74.243-1.057.551-.336.328-.509.682-.574 1.174-.034.263-.047 3.323-.037 9.17l.014 8.775L2.8 24.75c.901 1.779 1.045 2.036 1.194 2.12.23.131.547.125.775-.016.164-.102.288-.321 1.195-2.121l1.011-2.008.014-8.775c.01-5.847-.003-8.907-.037-9.17-.065-.492-.238-.846-.574-1.174-.491-.478-.937-.608-2.053-.599-.33.003-.733.025-.896.048M14.1 3.049c-.591.023-1.287.077-1.545.122-1.863.323-2.805 1.258-3.13 3.107-.146.835-.185 3.263-.16 9.922.016 4.213.043 6.562.081 6.925.179 1.744.748 2.739 1.885 3.301.71.351 1.676.512 3.228.536.856.014.918-.003 1.156-.322.132-.177.132-.603 0-.78-.234-.313-.274-.324-1.401-.365-1.132-.042-1.573-.096-2.026-.249-.923-.311-1.266-.91-1.391-2.423-.035-.435-.047-3.162-.034-8.298.021-8.267.011-7.962.283-8.682.277-.73.782-1.072 1.854-1.254.542-.092 9.908-.092 10.45 0 1.072.182 1.577.524 1.854 1.254.252.667.257.751.29 5.216.031 4.123.032 4.186.134 4.322.185.248.352.338.622.338s.437-.09.622-.338c.102-.137.103-.175.098-3.947-.003-2.506-.025-4.036-.064-4.472-.227-2.529-1.305-3.628-3.791-3.863-.727-.069-7.503-.106-9.015-.05M5.354 4.646l.146.146V8H3.25V4.792l.146-.146.146-.146h1.666l.146.146m9.452 3.403a.758.758 0 0 0-.504.518c-.103.458.18.849.655.907.147.017 1.678.025 3.402.016 3.075-.015 3.136-.017 3.272-.118.248-.185.331-.341.331-.622 0-.281-.083-.437-.331-.622-.136-.101-.19-.103-3.397-.111-1.793-.005-3.335.01-3.428.032M5.5 15.925v6.424l-.562 1.126-.562 1.126-.56-1.113-.561-1.113-.002-6.437L3.25 9.5H5.5v6.425m9.306-2.876a.758.758 0 0 0-.504.518c-.103.458.18.849.655.907.147.017 1.678.025 3.402.016 3.075-.015 3.136-.017 3.272-.118.248-.185.331-.341.331-.622 0-.281-.083-.437-.331-.622-.136-.101-.19-.103-3.397-.111-1.793-.005-3.335.01-3.428.032m12.516 5.005c-.238.069-1.04.518-1.647.923-1.935 1.29-3.626 3.127-4.877 5.298-.174.303-.323.558-.33.569-.008.01-.167-.122-.353-.293-.658-.605-1.634-1.225-2.291-1.455-.229-.081-.314-.089-.474-.046-.28.076-.476.26-.548.518-.054.194-.05.247.035.439.121.273.179.32.639.52.846.368 1.79 1.13 2.391 1.93.344.458.588.586.937.492.263-.071.426-.255.617-.699.331-.771 1.112-2.075 1.716-2.869 1.185-1.557 2.677-2.876 4.17-3.687.62-.337.8-.487.882-.735.064-.192.063-.24-.01-.43-.096-.251-.239-.393-.474-.472-.191-.064-.175-.064-.383-.003" fill-rule="evenodd" fill="#000"/></svg>