<!-- Generated by IcoMoon.io -->
<svg version="1.1" xmlns="http://www.w3.org/2000/svg" width="32" height="32" viewBox="0 0 32 32">
<path fill="#4d5e6f" d="M18.863 12.247h-5.333c-0.354 0-0.693 0.14-0.943 0.391s-0.391 0.589-0.391 0.943v16c0 0.354 0.14 0.693 0.391 0.943s0.589 0.391 0.943 0.391h5.333c0.354 0 0.693-0.141 0.943-0.391s0.391-0.589 0.391-0.943v-16c0-0.354-0.141-0.693-0.391-0.943s-0.589-0.391-0.943-0.391zM17.529 28.247h-2.667v-13.333h2.667v13.333zM29.53 1.58h-5.333c-0.354 0-0.693 0.14-0.943 0.391s-0.39 0.589-0.39 0.943v26.667c0 0.354 0.14 0.693 0.39 0.943s0.589 0.391 0.943 0.391h5.333c0.354 0 0.693-0.141 0.943-0.391s0.391-0.589 0.391-0.943v-26.667c0-0.354-0.141-0.693-0.391-0.943s-0.589-0.391-0.943-0.391zM28.196 28.247h-2.667v-24h2.667v24zM8.196 20.247h-5.333c-0.354 0-0.693 0.14-0.943 0.39s-0.391 0.589-0.391 0.943v8c0 0.354 0.14 0.693 0.391 0.943s0.589 0.391 0.943 0.391h5.333c0.354 0 0.693-0.141 0.943-0.391s0.391-0.589 0.391-0.943v-8c0-0.354-0.14-0.693-0.391-0.943s-0.589-0.39-0.943-0.39zM6.863 28.247h-2.667v-5.333h2.667v5.333z"></path>
</svg>
