<svg width="24" height="24" fill="none" xmlns="http://www.w3.org/2000/svg"><path d="M7.729 3.321c-.366.148-1.208.916-1.718 1.569a15.468 15.468 0 0 0-1.508 2.382l-.146.292-.289-.254c-.593-.523-.788-.639-1.074-.639a.736.736 0 0 0-.629.369c-.077.136-.091.209-.077.399a.878.878 0 0 0 .083.333c.037.056.238.239.447.408.644.517.822.753 1.382 1.833.204.392.383.698.398.68.016-.018.187-.429.381-.913.988-2.465 2.105-4.178 3.329-5.108.137-.104.278-.234.314-.289.081-.124.117-.371.081-.561-.033-.174-.235-.414-.411-.488a.943.943 0 0 0-.563-.013M10.7 5.337a.725.725 0 0 0-.42.663c0 .292.169.554.429.665.191.082 10.391.082 10.582 0A.719.719 0 0 0 21.72 6a.719.719 0 0 0-.429-.665c-.188-.081-10.41-.079-10.591.002m0 6a.725.725 0 0 0-.42.663c0 .292.169.554.429.665.191.082 10.391.082 10.582 0A.719.719 0 0 0 21.72 12a.719.719 0 0 0-.429-.665c-.188-.081-10.41-.079-10.591.002m-2.971 2.984c-.366.148-1.208.916-1.718 1.569a15.468 15.468 0 0 0-1.508 2.382l-.146.292-.289-.254c-.593-.523-.788-.639-1.074-.639a.736.736 0 0 0-.629.369c-.077.136-.091.209-.077.399a.878.878 0 0 0 .083.333c.037.056.239.24.449.409.374.3.734.684.921.98.051.082.259.467.461.857.202.389.381.693.396.675.016-.018.187-.429.381-.913.988-2.465 2.105-4.178 3.329-5.108.137-.104.278-.234.314-.289.081-.124.117-.371.081-.561-.033-.174-.235-.414-.411-.488a.943.943 0 0 0-.563-.013m2.971 3.016a.725.725 0 0 0-.42.663c0 .292.169.554.429.665.191.082 10.391.082 10.582 0A.719.719 0 0 0 21.72 18a.719.719 0 0 0-.429-.665c-.188-.081-10.41-.079-10.591.002" fill-rule="evenodd" fill="#000"/></svg>