<svg width="24" height="24" fill="none" xmlns="http://www.w3.org/2000/svg"><path d="M6.38 2.804a5.57 5.57 0 0 0-3.16 1.397C1.97 5.322 1.283 6.906 1.281 8.675c-.002 1.197.325 2.39 1.016 3.705 1.165 2.217 3.394 4.728 6.3 7.1 1.836 1.499 2.295 1.732 3.403 1.732s1.566-.233 3.416-1.742c1.687-1.376 3.278-2.94 4.472-4.396 1.315-1.601 2.237-3.261 2.613-4.699.332-1.271.286-2.628-.126-3.785-.566-1.587-1.767-2.841-3.288-3.434-1.537-.599-3.378-.493-4.907.283-.671.341-1.085.628-2.067 1.434L12 4.966l-.113-.093c-.982-.806-1.396-1.093-2.067-1.434a6.12 6.12 0 0 0-3.44-.635m1.272 1.479c1.216.183 2.232.739 3.466 1.898.485.456.622.539.882.539s.397-.083.882-.539c1.524-1.431 2.822-2.007 4.349-1.929 1.33.068 2.43.674 3.222 1.775.339.47.642 1.233.751 1.887.074.448.055 1.29-.04 1.752-.278 1.35-1.128 2.916-2.46 4.534-1.047 1.272-2.614 2.817-4.064 4.005-.813.666-1.57 1.239-1.774 1.342a1.862 1.862 0 0 1-1.731.001c-.384-.195-2.063-1.546-3.104-2.497-2.934-2.681-4.76-5.277-5.195-7.385-.095-.462-.114-1.304-.04-1.752.272-1.638 1.335-2.943 2.81-3.448a4.623 4.623 0 0 1 2.046-.183" fill-rule="evenodd" fill="#000"/></svg>