<svg width="30" height="30" fill="none" xmlns="http://www.w3.org/2000/svg"><path d="M8.358 5.005a5.098 5.098 0 0 0-3.481 2.608c-.42.799-.587 1.479-.586 2.387.001.916.167 1.59.586 2.387.285.543.575.912 1.103 1.406l.434.406-.195.08c-2.595 1.066-4.362 3.506-4.432 6.121-.009.366.005.45.102.607.276.446.943.452 1.215.011.08-.128.117-.301.147-.683.105-1.306.548-2.305 1.439-3.244.717-.755 1.487-1.258 2.425-1.586.766-.268 1.443-.38 2.505-.415l.446-.015.114.339c.271.802.889 1.706 1.519 2.221l.349.285-.611.303a9.76 9.76 0 0 0-1.006.575c-.53.368-1.312 1.12-1.711 1.646-.607.801-1.093 1.964-1.242 2.972-.109.729-.102 1.119.022 1.322.39.641 1.348.365 1.35-.388.001-.347.134-1.14.251-1.492a5.33 5.33 0 0 1 1.342-2.159c.922-.91 1.995-1.466 3.338-1.731.607-.119 1.831-.119 2.438 0 2.276.448 4.021 1.899 4.68 3.89.117.352.25 1.145.251 1.492.002.753.96 1.029 1.35.388.124-.203.131-.593.022-1.322-.149-1.008-.635-2.171-1.242-2.972-.399-.526-1.181-1.278-1.711-1.646a9.76 9.76 0 0 0-1.006-.575l-.611-.303.349-.285c.63-.515 1.248-1.419 1.519-2.221l.114-.339.446.015c1.062.035 1.739.147 2.505.415.938.328 1.708.831 2.425 1.586.891.939 1.334 1.938 1.439 3.244.03.382.067.555.147.683.272.441.939.435 1.215-.011.097-.157.111-.241.102-.607-.07-2.615-1.837-5.055-4.432-6.121l-.195-.08.438-.409c.562-.527.875-.942 1.179-1.565a4.96 4.96 0 0 0 .494-2.71c-.112-1.179-.573-2.171-1.42-3.056a5.088 5.088 0 0 0-6.5-.693c-.457.31-1.105.961-1.404 1.41a5.223 5.223 0 0 0-.622 1.299l-.059.2h-1.384l-.059-.2c-.364-1.232-1.394-2.441-2.599-3.05-.962-.487-2.213-.646-3.292-.42m1.967 1.472c.983.261 1.872 1.005 2.328 1.948.315.654.321.621-.162.893a5.123 5.123 0 0 0-2.552 3.81l-.059.467-.268.034c-.589.073-1.454-.121-2.026-.455A3.821 3.821 0 0 1 6.05 11.49c-.403-.86-.403-2.12 0-2.98a3.689 3.689 0 0 1 2.733-2.111c.333-.061 1.18-.018 1.542.078m10.859-.076c.834.135 1.393.426 2.016 1.049.726.725 1.05 1.511 1.05 2.55 0 1.336-.64 2.456-1.807 3.162-.549.332-1.463.541-2.046.468l-.277-.035-.059-.467a5.123 5.123 0 0 0-2.552-3.81c-.48-.27-.473-.239-.183-.857.688-1.467 2.279-2.316 3.858-2.06m-5.109 3.872c1.145.362 2.019 1.233 2.409 2.402.12.357.134.473.132 1.075-.002.59-.019.725-.134 1.075a3.718 3.718 0 0 1-2.407 2.408c-.342.113-.491.133-1.025.137-.744.006-1.015-.052-1.625-.348a3.593 3.593 0 0 1-1.697-1.697c-.282-.581-.346-.872-.35-1.575-.004-.69.06-.978.35-1.575a3.612 3.612 0 0 1 2.197-1.898c.533-.162.614-.172 1.225-.15.382.014.634.053.925.146" fill-rule="evenodd" fill="#000"/></svg>