<!-- Generated by IcoMoon.io -->
<svg version="1.1" xmlns="http://www.w3.org/2000/svg" width="32" height="32" viewBox="0 0 32 32">
<path d="M16 4c-2.577 0-4.667 2.089-4.667 4.667s2.089 4.667 4.667 4.667c2.577 0 4.667-2.089 4.667-4.667s-2.089-4.667-4.667-4.667zM8.667 8.667c0-4.050 3.283-7.333 7.333-7.333s7.333 3.283 7.333 7.333-3.283 7.333-7.333 7.333c-4.050 0-7.333-3.283-7.333-7.333zM8.088 19.497c4.844-2.884 10.98-2.884 15.824 0 0.145 0.086 0.328 0.189 0.538 0.308 0.946 0.533 2.439 1.375 3.46 2.373 0.638 0.625 1.286 1.486 1.405 2.571 0.128 1.167-0.389 2.235-1.345 3.145-1.592 1.517-3.545 2.772-6.091 2.772h-11.758c-2.546 0-4.499-1.256-6.091-2.772-0.956-0.911-1.473-1.978-1.345-3.145 0.119-1.085 0.767-1.947 1.405-2.571 1.020-0.999 2.513-1.84 3.46-2.373zM22.548 21.788c-4.003-2.384-9.092-2.384-13.095 0-0.237 0.141-0.492 0.286-0.755 0.435-0.946 0.537-2.002 1.137-2.741 1.86-0.458 0.448-0.599 0.768-0.619 0.955-0.011 0.105-0.017 0.401 0.534 0.925 1.351 1.287 2.676 2.037 4.251 2.037h11.758c1.575 0 2.9-0.75 4.251-2.037 0.55-0.524 0.545-0.82 0.534-0.925-0.020-0.187-0.162-0.507-0.619-0.955-0.739-0.723-1.796-1.323-2.741-1.86-0.263-0.149-0.518-0.294-0.755-0.435z"></path>
</svg>
