<!-- Generated by IcoMoon.io -->
<svg version="1.1" xmlns="http://www.w3.org/2000/svg" width="32" height="32" viewBox="0 0 32 32">
<path d="M6.084 19.254c4.233-2.561 9.598-2.561 13.832 0 0.119 0.072 0.272 0.16 0.449 0.261 0.812 0.465 2.129 1.218 3.027 2.112 0.563 0.56 1.149 1.346 1.257 2.346 0.116 1.078-0.356 2.057-1.207 2.881-1.385 1.341-3.113 2.479-5.38 2.479h-10.125c-2.267 0-3.995-1.138-5.38-2.479-0.851-0.824-1.323-1.803-1.207-2.881 0.107-0.999 0.694-1.786 1.257-2.346 0.898-0.893 2.215-1.647 3.027-2.112 0.177-0.101 0.33-0.189 0.449-0.261zM18.535 21.536c-3.385-2.048-7.686-2.048-11.071 0-0.211 0.128-0.436 0.258-0.666 0.39-0.811 0.468-1.692 0.977-2.31 1.591-0.381 0.378-0.474 0.626-0.486 0.74-0.004 0.040-0.028 0.255 0.411 0.68 1.149 1.112 2.244 1.729 3.525 1.729h10.125c1.281 0 2.376-0.616 3.525-1.729 0.439-0.425 0.415-0.638 0.411-0.678-0.012-0.114-0.106-0.363-0.486-0.742-0.618-0.615-1.499-1.123-2.31-1.591-0.23-0.133-0.455-0.263-0.666-0.39z"></path>
<path d="M12.666 5.333c-2.209 0-4 1.791-4 4s1.791 4 4 4c2.209 0 4-1.791 4-4s-1.791-4-4-4zM6 9.333c0-3.682 2.985-6.667 6.667-6.667s6.667 2.985 6.667 6.667-2.985 6.667-6.667 6.667c-3.682 0-6.667-2.985-6.667-6.667zM21.333 6.667c0-0.736 0.597-1.333 1.333-1.333h6.667c0.736 0 1.333 0.597 1.333 1.333s-0.597 1.333-1.333 1.333h-6.667c-0.736 0-1.333-0.597-1.333-1.333zM21.333 10.667c0-0.736 0.597-1.333 1.333-1.333h6.667c0.736 0 1.333 0.597 1.333 1.333s-0.597 1.333-1.333 1.333h-6.667c-0.736 0-1.333-0.597-1.333-1.333zM25.333 14.667c0-0.736 0.597-1.333 1.333-1.333h2.667c0.736 0 1.333 0.597 1.333 1.333s-0.597 1.333-1.333 1.333h-2.667c-0.736 0-1.333-0.597-1.333-1.333z"></path>
</svg>
