<!-- Generated by IcoMoon.io -->
<svg version="1.1" xmlns="http://www.w3.org/2000/svg" width="30" height="32" viewBox="0 0 30 32">
<path fill="#4d5e6f" d="M21.721 17.358c-1.44 0-2.822 0.572-3.84 1.59s-1.59 2.4-1.59 3.84c0 1.44 0.572 2.822 1.59 3.84s2.4 1.591 3.84 1.591c1.44 0 2.821-0.572 3.84-1.591s1.59-2.4 1.59-3.84-0.572-2.821-1.59-3.84c-1.018-1.018-2.4-1.59-3.84-1.59zM13.575 22.788c0-1.070 0.211-2.129 0.62-3.117s1.009-1.886 1.766-2.643c0.756-0.756 1.654-1.356 2.643-1.766s2.047-0.62 3.117-0.62c1.070 0 2.129 0.211 3.117 0.62s1.886 1.009 2.643 1.766c0.756 0.756 1.356 1.654 1.766 2.643s0.62 2.047 0.62 3.117c0 2.16-0.858 4.232-2.386 5.76s-3.599 2.386-5.76 2.386c-2.16 0-4.232-0.858-5.76-2.386s-2.386-3.599-2.386-5.76z"></path>
<path fill="#4d5e6f" d="M20.272 22.636c0.445 0.334 1.077 0.236 1.4-0.217l1.208-1.691c0.436-0.61 1.283-0.751 1.894-0.316s0.752 1.284 0.316 1.894l-2.605 3.646c-0.105 0.147-0.239 0.272-0.393 0.367s-0.326 0.158-0.504 0.186c-0.179 0.028-0.362 0.019-0.537-0.024s-0.341-0.122-0.485-0.231l-1.629-1.222c-0.6-0.45-0.721-1.301-0.271-1.901l0.22-0.294c0.328-0.438 0.949-0.526 1.387-0.198zM12.217 3.782c-0.624 0-1.242 0.123-1.818 0.362s-1.1 0.589-1.542 1.030c-0.441 0.441-0.791 0.965-1.030 1.542s-0.362 1.194-0.362 1.818c0 0.624 0.123 1.242 0.362 1.818s0.589 1.1 1.030 1.542c0.441 0.441 0.965 0.791 1.541 1.030s1.194 0.362 1.818 0.362c1.26 0 2.469-0.501 3.36-1.392s1.392-2.1 1.392-3.36c0-1.26-0.501-2.469-1.392-3.36s-2.1-1.392-3.36-1.392zM4.75 8.533c0-1.98 0.787-3.879 2.187-5.28s3.299-2.187 5.28-2.187c1.98 0 3.879 0.787 5.28 2.187s2.187 3.299 2.187 5.28c0 1.98-0.787 3.879-2.187 5.28s-3.299 2.187-5.28 2.187c-1.98 0-3.879-0.787-5.28-2.187s-2.187-3.299-2.187-5.28z"></path>
<path fill="#4d5e6f" d="M12.218 14.642c0 0.75-0.611 1.348-1.353 1.454-2.020 0.291-3.906 1.226-5.367 2.687s-2.396 3.347-2.687 5.367c-0.107 0.742-0.705 1.353-1.454 1.353s-1.365-0.61-1.282-1.355c0.306-2.742 1.534-5.315 3.503-7.285s4.543-3.197 7.285-3.503c0.745-0.083 1.355 0.533 1.355 1.282z"></path>
</svg>
