<svg width="20" height="20" fill="none" xmlns="http://www.w3.org/2000/svg"><path d="M6.183.969c-1.141.063-1.896.296-2.47.762-.503.407-.852 1.103-.997 1.986-.104.631-.121 1.822-.108 7.6.014 6.368-.003 5.928.249 6.442.329.673 1.07.924 1.892.641.282-.097.592-.272 1.231-.695.31-.205.598-.382.639-.392.097-.024.054-.049 1.337.758 1.455.915 1.615.993 2.034.995.441.002.604-.077 2.077-1.006 1.27-.801 1.217-.771 1.318-.746.043.011.325.183.626.383.636.422.965.609 1.241.704.831.286 1.592.017 1.918-.68.227-.487.213-.026.213-6.971 0-6.49-.002-6.622-.135-7.263-.209-1.008-.7-1.707-1.465-2.084-.437-.216-.847-.327-1.5-.407-.368-.045-7.36-.069-8.1-.027m7.9 1.494c.465.056.763.131 1.015.257.355.178.543.439.669.93.146.572.15.746.15 7.067 0 3.3-.013 6.071-.027 6.158-.015.087-.045.158-.067.158-.083-.001-.452-.212-.953-.546-.912-.607-1.153-.708-1.618-.678-.433.028-.492.059-2.231 1.152-.529.333-.987.606-1.019.606-.032 0-.222-.103-.422-.228l-1.271-.798c-.499-.313-.994-.604-1.1-.646-.267-.107-.81-.109-1.062-.004-.224.093-.626.333-1.197.715-.436.291-.762.46-.806.415-.059-.058-.074-1.278-.075-6.004-.001-6.323.015-6.876.218-7.522.237-.752.732-.995 2.163-1.061.836-.039 7.268-.015 7.633.029m-7.7 2.683a.73.73 0 0 0-.448.687c0 .325.204.618.489.7.088.026.937.034 2.809.027l2.684-.01.141-.092a.921.921 0 0 0 .233-.233c.079-.123.092-.176.092-.392 0-.216-.013-.269-.092-.391a.921.921 0 0 0-.233-.233l-.141-.092L9.2 5.109c-2.193-.006-2.736.001-2.817.037m-.033 3.35a.759.759 0 0 0-.354.99.817.817 0 0 0 .437.384c.075.022.631.03 1.55.024l1.434-.011.141-.092a.921.921 0 0 0 .233-.233c.079-.122.092-.175.092-.391 0-.216-.013-.269-.092-.392a.979.979 0 0 0-.23-.233l-.139-.092-1.47-.008c-1.374-.008-1.477-.004-1.602.054" fill-rule="evenodd" fill="#000"/></svg>