<!-- Generated by IcoMoon.io -->
<svg version="1.1" xmlns="http://www.w3.org/2000/svg" width="32" height="32" viewBox="0 0 32 32">
<path fill="#4d5e6f" d="M4.8 16c0-0.424-0.169-0.831-0.469-1.131s-0.707-0.469-1.131-0.469h-1.6c-0.424 0-0.831 0.169-1.131 0.469s-0.469 0.707-0.469 1.131c0 0.424 0.169 0.831 0.469 1.131s0.707 0.469 1.131 0.469h1.6c0.424 0 0.831-0.169 1.131-0.469s0.469-0.707 0.469-1.131zM5.824 24l-1.136 1.136c-0.298 0.3-0.465 0.705-0.465 1.128s0.167 0.828 0.465 1.128c0.3 0.298 0.705 0.465 1.128 0.465s0.828-0.167 1.128-0.465l1.136-1.136c0.262-0.306 0.399-0.7 0.384-1.103s-0.182-0.785-0.467-1.070-0.667-0.452-1.070-0.468c-0.403-0.016-0.796 0.121-1.103 0.384zM16 4.8c0.424 0 0.831-0.169 1.131-0.469s0.469-0.707 0.469-1.131v-1.6c0-0.424-0.169-0.831-0.469-1.131s-0.707-0.469-1.131-0.469c-0.424 0-0.831 0.169-1.131 0.469s-0.469 0.707-0.469 1.131v1.6c0 0.424 0.169 0.831 0.469 1.131s0.707 0.469 1.131 0.469zM25.056 8.544c0.42-0.002 0.822-0.168 1.12-0.464l1.136-1.136c0.168-0.143 0.304-0.32 0.4-0.518s0.15-0.415 0.159-0.635c0.008-0.22-0.029-0.44-0.109-0.645s-0.202-0.392-0.358-0.548c-0.156-0.156-0.342-0.278-0.548-0.358s-0.425-0.118-0.646-0.109c-0.22 0.008-0.436 0.063-0.635 0.159s-0.375 0.232-0.518 0.4l-1.056 1.136c-0.298 0.3-0.465 0.705-0.465 1.128s0.167 0.828 0.465 1.128c0.282 0.281 0.659 0.446 1.056 0.464zM5.856 8.080c0.298 0.296 0.7 0.462 1.12 0.464 0.211 0.001 0.419-0.039 0.614-0.119s0.372-0.197 0.522-0.345c0.298-0.3 0.465-0.705 0.465-1.128s-0.167-0.828-0.465-1.128l-1.136-1.136c-0.148-0.15-0.324-0.27-0.519-0.352s-0.403-0.125-0.614-0.127c-0.211-0.001-0.42 0.039-0.616 0.118s-0.373 0.196-0.524 0.345c-0.15 0.148-0.27 0.324-0.352 0.519s-0.125 0.403-0.127 0.614c-0.003 0.426 0.163 0.836 0.463 1.139l1.168 1.136zM30.4 14.4h-1.6c-0.424 0-0.831 0.169-1.131 0.469s-0.469 0.707-0.469 1.131c0 0.424 0.169 0.831 0.469 1.131s0.707 0.469 1.131 0.469h1.6c0.424 0 0.831-0.169 1.131-0.469s0.469-0.707 0.469-1.131c0-0.424-0.169-0.831-0.469-1.131s-0.707-0.469-1.131-0.469zM26.176 24c-0.304-0.169-0.655-0.234-0.999-0.186s-0.664 0.207-0.91 0.453c-0.246 0.246-0.405 0.565-0.453 0.91s0.017 0.695 0.186 0.999l1.136 1.136c0.3 0.298 0.705 0.465 1.128 0.465s0.828-0.167 1.128-0.465c0.298-0.3 0.465-0.705 0.465-1.128s-0.167-0.828-0.465-1.128l-1.216-1.056zM16 7.2c-1.74 0-3.442 0.516-4.889 1.483s-2.575 2.341-3.241 3.949c-0.666 1.608-0.84 3.377-0.501 5.084s1.178 3.275 2.408 4.506c1.231 1.231 2.799 2.069 4.506 2.408s3.476 0.165 5.084-0.501 2.982-1.794 3.949-3.241c0.967-1.447 1.483-3.148 1.483-4.889-0.004-2.333-0.933-4.568-2.582-6.218s-3.885-2.578-6.218-2.582zM16 21.6c-1.108 0-2.19-0.328-3.111-0.944s-1.639-1.49-2.063-2.513-0.535-2.149-0.319-3.236c0.216-1.086 0.749-2.084 1.533-2.867s1.781-1.317 2.867-1.533c1.086-0.216 2.212-0.105 3.236 0.319s1.898 1.142 2.513 2.063c0.615 0.921 0.944 2.004 0.944 3.111 0 1.485-0.59 2.91-1.64 3.96s-2.475 1.64-3.96 1.64zM16 27.2c-0.424 0-0.831 0.169-1.131 0.469s-0.469 0.707-0.469 1.131v1.6c0 0.424 0.169 0.831 0.469 1.131s0.707 0.469 1.131 0.469c0.424 0 0.831-0.169 1.131-0.469s0.469-0.707 0.469-1.131v-1.6c0-0.424-0.169-0.831-0.469-1.131s-0.707-0.469-1.131-0.469z"></path>
</svg>
