<!-- Generated by IcoMoon.io -->
<svg version="1.1" xmlns="http://www.w3.org/2000/svg" width="32" height="32" viewBox="0 0 32 32">
<path d="M28 18.4c-0.102 0-0.206-0.019-0.306-0.061-0.299-0.123-0.494-0.416-0.494-0.739v-1.6c0-6.176-5.024-11.2-11.2-11.2-4.165 0-7.962 2.29-9.909 5.974-0.206 0.39-0.691 0.539-1.082 0.333s-0.539-0.691-0.333-1.082c2.226-4.211 6.565-6.826 11.323-6.826 3.419 0 6.634 1.331 9.051 3.749 2.341 2.341 3.662 5.427 3.746 8.723l1.838-1.838c0.312-0.312 0.819-0.312 1.131 0s0.312 0.819 0 1.131l-3.2 3.2c-0.154 0.154-0.358 0.234-0.566 0.234z"></path>
<path d="M16 28.8c-3.419 0-6.634-1.331-9.051-3.749-2.341-2.341-3.662-5.427-3.746-8.723l-1.838 1.838c-0.312 0.312-0.819 0.312-1.131 0s-0.312-0.819 0-1.131l3.2-3.2c0.229-0.229 0.573-0.298 0.872-0.173s0.494 0.416 0.494 0.739v1.6c0 6.176 5.024 11.2 11.2 11.2 4.165 0 7.962-2.29 9.909-5.974 0.206-0.39 0.691-0.539 1.082-0.333s0.539 0.691 0.333 1.082c-2.226 4.211-6.565 6.826-11.323 6.826z"></path>
</svg>
