<!-- Generated by IcoMoon.io -->
<svg version="1.1" xmlns="http://www.w3.org/2000/svg" width="32" height="32" viewBox="0 0 32 32">
<path d="M30.4 6.401h-8v-2.672c-0.038-1.024-0.48-1.992-1.229-2.691s-1.746-1.072-2.771-1.037h-4.8c-1.024-0.035-2.021 0.338-2.771 1.037s-1.192 1.666-1.229 2.691v2.672h-8c-0.424 0-0.831 0.169-1.131 0.469s-0.469 0.707-0.469 1.131c0 0.424 0.169 0.831 0.469 1.131s0.707 0.469 1.131 0.469h1.6v17.6c0 1.273 0.506 2.494 1.406 3.394s2.121 1.406 3.394 1.406h16c1.273 0 2.494-0.506 3.394-1.406s1.406-2.121 1.406-3.394v-17.6h1.6c0.424 0 0.831-0.169 1.131-0.469s0.469-0.707 0.469-1.131c0-0.424-0.169-0.831-0.469-1.131s-0.707-0.469-1.131-0.469zM12.8 22.401c0 0.424-0.169 0.831-0.469 1.131s-0.707 0.469-1.131 0.469c-0.424 0-0.831-0.169-1.131-0.469s-0.469-0.707-0.469-1.131v-6.4c0-0.424 0.169-0.831 0.469-1.131s0.707-0.469 1.131-0.469c0.424 0 0.831 0.169 1.131 0.469s0.469 0.707 0.469 1.131v6.4zM12.8 3.729c0-0.256 0.336-0.528 0.8-0.528h4.8c0.464 0 0.8 0.272 0.8 0.528v2.672h-6.4v-2.672zM22.4 22.401c0 0.424-0.169 0.831-0.469 1.131s-0.707 0.469-1.131 0.469c-0.424 0-0.831-0.169-1.131-0.469s-0.469-0.707-0.469-1.131v-6.4c0-0.424 0.169-0.831 0.469-1.131s0.707-0.469 1.131-0.469c0.424 0 0.831 0.169 1.131 0.469s0.469 0.707 0.469 1.131v6.4z"></path>
<path d="M30.4 6.401h-8v-2.672c-0.038-1.024-0.48-1.992-1.229-2.691s-1.746-1.072-2.771-1.037h-4.8c-1.024-0.035-2.021 0.338-2.771 1.037s-1.192 1.666-1.229 2.691v2.672h-8c-0.424 0-0.831 0.169-1.131 0.469s-0.469 0.707-0.469 1.131c0 0.424 0.169 0.831 0.469 1.131s0.707 0.469 1.131 0.469h1.6v17.6c0 1.273 0.506 2.494 1.406 3.394s2.121 1.406 3.394 1.406h16c1.273 0 2.494-0.506 3.394-1.406s1.406-2.121 1.406-3.394v-17.6h1.6c0.424 0 0.831-0.169 1.131-0.469s0.469-0.707 0.469-1.131c0-0.424-0.169-0.831-0.469-1.131s-0.707-0.469-1.131-0.469zM12.8 22.401c0 0.424-0.169 0.831-0.469 1.131s-0.707 0.469-1.131 0.469c-0.424 0-0.831-0.169-1.131-0.469s-0.469-0.707-0.469-1.131v-6.4c0-0.424 0.169-0.831 0.469-1.131s0.707-0.469 1.131-0.469c0.424 0 0.831 0.169 1.131 0.469s0.469 0.707 0.469 1.131v6.4zM12.8 3.729c0-0.256 0.336-0.528 0.8-0.528h4.8c0.464 0 0.8 0.272 0.8 0.528v2.672h-6.4v-2.672zM22.4 22.401c0 0.424-0.169 0.831-0.469 1.131s-0.707 0.469-1.131 0.469c-0.424 0-0.831-0.169-1.131-0.469s-0.469-0.707-0.469-1.131v-6.4c0-0.424 0.169-0.831 0.469-1.131s0.707-0.469 1.131-0.469c0.424 0 0.831 0.169 1.131 0.469s0.469 0.707 0.469 1.131v6.4z"></path>
</svg>
