<!-- Generated by IcoMoon.io -->
<svg version="1.1" xmlns="http://www.w3.org/2000/svg" width="32" height="32" viewBox="0 0 32 32">
<path d="M27.998 15.699c0.828 0.002 1.5 0.675 1.498 1.504l-0.012 1.725c-0.022 1.646-0.087 3.055-0.279 4.246-0.231 1.428-0.663 2.666-1.514 3.699l-0.391 0.43c-1.204 1.204-2.72 1.723-4.52 1.965-1.757 0.236-3.998 0.232-6.783 0.232s-5.026 0.004-6.783-0.232c-1.687-0.227-3.124-0.697-4.289-1.746l-0.229-0.219c-1.204-1.204-1.723-2.719-1.965-4.52-0.236-1.757-0.232-3.997-0.232-6.783s-0.004-5.026 0.232-6.783c0.242-1.8 0.761-3.318 1.965-4.521l0.43-0.391c1.033-0.851 2.27-1.283 3.697-1.514 1.587-0.257 3.563-0.287 5.971-0.291l0.154 0.008c0.756 0.076 1.348 0.714 1.35 1.49 0.001 0.828-0.67 1.5-1.498 1.502l-1.711 0.012c-1.585 0.022-2.805 0.081-3.787 0.24-1.108 0.179-1.786 0.467-2.283 0.881l-0.201 0.184c-0.553 0.553-0.914 1.332-1.111 2.799-0.203 1.511-0.207 3.514-0.207 6.385s0.004 4.872 0.207 6.383c0.197 1.468 0.558 2.245 1.111 2.799l0.219 0.199c0.539 0.442 1.295 0.74 2.578 0.912 1.51 0.203 3.512 0.207 6.383 0.207s4.872-0.004 6.383-0.207c1.467-0.197 2.244-0.558 2.797-1.111l0.185-0.203c0.414-0.497 0.702-1.175 0.881-2.283 0.212-1.31 0.247-3.041 0.252-5.498l0.008-0.154c0.078-0.756 0.718-1.345 1.494-1.344z"></path>
<path d="M15.798 18.471c-0.584 0.587-1.534 0.589-2.121 0.006s-0.591-1.534-0.008-2.121l2.129 2.115zM22.63 2.57c0.575 0.003 1.263 0.015 1.943 0.049 0.676 0.034 1.388 0.091 1.994 0.191 0.301 0.050 0.615 0.118 0.902 0.213 0.183 0.060 0.464 0.166 0.736 0.357l0.266 0.223 0.221 0.264c0.191 0.272 0.297 0.553 0.357 0.736 0.095 0.288 0.161 0.603 0.211 0.904 0.1 0.607 0.158 1.319 0.191 1.996 0.068 1.363 0.048 2.75 0.041 3.221l-3-0.041c0.006-0.457 0.022-1.709-0.035-2.938l-10.66 10.725-2.129-2.115 10.682-10.744c-0.605-0.029-1.216-0.039-1.736-0.041l-1.217 0.008c-0.828 0.012-1.509-0.65-1.521-1.479s0.65-1.51 1.478-1.521l1.275-0.008zM29.494 10.725c-0.012 0.828-0.693 1.49-1.522 1.479s-1.49-0.692-1.478-1.52l3 0.041z"></path>
</svg>
