<!-- Generated by IcoMoon.io -->
<svg version="1.1" xmlns="http://www.w3.org/2000/svg" width="37" height="32" viewBox="0 0 37 32">
<path fill="#fff" d="M3.036 13.893c9.617-4.278 16.030-7.099 19.239-8.461 9.162-3.891 11.066-4.567 12.307-4.589 0.273-0.005 0.883 0.064 1.278 0.392 0.334 0.277 0.426 0.65 0.47 0.912s0.099 0.859 0.055 1.326c-0.496 5.326-2.645 18.252-3.738 24.217-0.462 2.524-1.373 3.371-2.255 3.453-1.916 0.18-3.371-1.293-5.226-2.535-2.904-1.943-4.544-3.153-7.363-5.049-3.257-2.192-1.146-3.396 0.711-5.365 0.486-0.515 8.927-8.355 9.090-9.066 0.020-0.089 0.039-0.421-0.154-0.596s-0.478-0.115-0.683-0.068c-0.291 0.068-4.93 3.198-13.916 9.391-1.317 0.923-2.509 1.373-3.578 1.349-1.178-0.026-3.444-0.68-5.128-1.239-2.066-0.686-3.708-1.048-3.565-2.213 0.074-0.607 0.893-1.227 2.454-1.861z"></path>
</svg>
