<!-- Generated by IcoMoon.io -->
<svg version="1.1" xmlns="http://www.w3.org/2000/svg" width="32" height="32" viewBox="0 0 32 32">
<path d="M4.467 7.267c-0.009 0.502-0.679 2.078-0.080 2.427 0.511 0.471 1.811-0.666 2.28-0.827 0.473 0.164 1.767 1.302 2.28 0.826 0.602-0.338-0.073-1.934-0.080-2.426l1.313-1.22c0.414-0.361 0.174-1.103-0.373-1.153l-1.78-0.22c-0.286-0.407-0.671-2.086-1.36-2.007-0.692-0.080-1.077 1.606-1.36 2.013-0.479 0.146-2.196-0.005-2.334 0.674-0.292 0.629 1.197 1.519 1.494 1.913zM6.667 4.914c0.436 1.027 0.454 1.029 1.56 1.127l-0.54 0.5c-0.383 0.296-0.113 0.953-0.060 1.333-0.974-0.574-0.961-0.574-1.933 0 0.247-1.101 0.249-1.086-0.593-1.833 1.117-0.099 1.117-0.103 1.567-1.127z"></path>
<path d="M22.587 7.267c-0.008 0.501-0.683 2.082-0.081 2.426 0.508 0.477 1.815-0.666 2.281-0.826 0.422 0.145 1.702 1.206 2.178 0.897 0.272-0.123 0.431-0.439 0.369-0.731 0 0-0.34-1.76-0.34-1.76l1.313-1.22c0.416-0.366 0.168-1.106-0.38-1.16l-1.78-0.22c-0.287-0.412-0.663-2.092-1.362-2.007-0.691-0.081-1.076 1.607-1.358 2.013-0.479 0.146-2.196-0.005-2.334 0.674-0.293 0.629 1.197 1.519 1.494 1.913zM24.78 4.914c0.436 1.027 0.454 1.029 1.56 1.127l-0.533 0.5c-0.383 0.296-0.113 0.953-0.060 1.333-0.974-0.574-0.961-0.574-1.933 0 0.247-1.101 0.249-1.086-0.593-1.833 1.104-0.096 1.126-0.106 1.56-1.127z"></path>
<path d="M8.759 13.41c-1.206 3.758 0.307 8.432 4.542 9.889 1.342 1.896 4.156 1.694 5.408-0.004 3.092-1.069 4.731-3.854 4.916-6.742 0.277 0.192 0.69 0.132 0.895-0.139 0 0 2.467-3.080 2.467-3.080 1.802-0.129 4.852 0.722 5.013-2 0 0 0-9.333 0-9.333 0.019-1.073-0.926-2.019-1.999-2.001h-27.999c-1.073-0.018-2.018 0.927-2 2 0 0 0 9.333 0 9.333 0.001 0.53 0.212 1.037 0.588 1.412-0.068 0.521 3.735 0.659 8.171 0.664zM16.747 6.54c-0.383 0.296-0.113 0.953-0.060 1.333-0.974-0.574-0.961-0.574-1.933 0 0.247-1.101 0.249-1.086-0.593-1.833 1.104-0.096 1.126-0.106 1.56-1.127 0.436 1.027 0.454 1.029 1.56 1.127l-0.533 0.5zM17.592 17.816h-2.292v-3.633h0.756v2.975h1.536v0.658zM12.838 14.125c2.551 0.009 2.546 3.739 0 3.75-2.549-0.007-2.553-3.746 0-3.75zM20.166 17.582c-0.526 0.334-1.584 0.212-2.199 0.234v-3.633h1.185c1.931-0.124 2.693 2.491 1.014 3.399zM1.53 1.529c0.125-0.125 0.294-0.196 0.471-0.196 0.468 0.188 28.143-0.364 28.469 0.196 0.126 0.126 0.196 0.294 0.197 0.471v9.333c0.006 0.357-0.309 0.672-0.667 0.667-0.049 0.007-3.322-0.013-3.366 0.007-0.467-0.116-2.142 2.43-2.434 2.673-0.007-0.007-0.902-2.28-0.913-2.28-0.111-0.244-0.344-0.401-0.613-0.4h-0.041c-0.889-1.602-2.364-2.891-4.427-3.451-0.094-0.508-0.268-1.040-0.272-1.289l1.313-1.22c0.418-0.361 0.171-1.107-0.38-1.147v0l-1.78-0.22c-0.287-0.412-0.663-2.092-1.362-2.007-0.691-0.081-1.076 1.607-1.358 2.013-0.479 0.146-2.196-0.005-2.334 0.674-0.293 0.629 1.197 1.519 1.494 1.913-0.006 0.283-0.221 0.907-0.3 1.46-1.768 0.629-3.054 1.822-3.859 3.273h-7.366c-0.357 0.006-0.673-0.309-0.667-0.667 0 0 0-9.333 0-9.333 0-0.177 0.071-0.346 0.196-0.471z"></path>
<path d="M28 25.333c-2.144 0.133-5.474-0.616-7.007 1.36-0.742-0.857-1.86-1.365-2.993-1.36-2.134 0.131-5.466-0.613-6.993 1.36-1.53-1.976-4.872-1.227-7.007-1.36-2.147-0.041-4.041 1.851-4 4 0 0 0 2 0 2-0.005 0.358 0.308 0.672 0.667 0.667 0 0 30.666 0 30.666 0 0.357 0.006 0.673-0.309 0.667-0.667 0 0 0-2 0-2 0.039-2.148-1.851-4.041-4-4zM10 30.666h-8.667v-1.333c-0.030-1.431 1.236-2.697 2.667-2.667 0 0 4 0 4 0 0.906-0.008 1.79 0.485 2.26 1.26-0.34 0.767-0.252 1.917-0.26 2.74zM20.667 30.666h-9.334c0.031-0.659-0.102-1.748 0.203-2.354 0.394-0.981 1.407-1.657 2.464-1.646 1.393 0.142 4.865-0.495 5.886 0.781 0.889 0.775 0.801 2.154 0.781 3.219zM30.667 30.666h-8.667c-0.008-0.826 0.080-1.97-0.26-2.74 0.47-0.775 1.354-1.267 2.26-1.26 0 0 4 0 4 0 1.056-0.012 2.071 0.666 2.464 1.646 0.301 0.602 0.179 1.701 0.203 2.354z"></path>
<path d="M5.351 18.064c-2.008 0.346-3.257 2.682-2.429 4.545 1.398 3.335 6.396 2.339 6.412-1.276v0c0.052-2.037-1.996-3.718-3.984-3.269zM7.962 20.943c0.436 2.871-3.824 3.287-3.962 0.39v0c0.013-2.386 3.483-2.727 3.962-0.39z"></path>
<path d="M25.35 18.064c-2.008 0.346-3.257 2.682-2.429 4.545 1.398 3.335 6.396 2.339 6.412-1.276v0c0.052-2.037-1.996-3.718-3.984-3.269zM24 21.333v0c0.013-2.386 3.483-2.727 3.962-0.39 0.436 2.871-3.825 3.287-3.962 0.39z"></path>
<path d="M14.008 15.997c0.033-1.563-2.377-1.568-2.341 0-0.039 1.571 2.376 1.569 2.341 0z"></path>
<path d="M19.787 14.983c-0.273-0.17-0.736-0.141-1.063-0.141v2.316c0.326 0.001 0.792 0.028 1.063-0.141 0.733-0.378 0.733-1.657 0-2.034z"></path>
</svg>
