<!-- Generated by IcoMoon.io -->
<svg version="1.1" xmlns="http://www.w3.org/2000/svg" width="32" height="32" viewBox="0 0 32 32">
<path d="M9.807 4.893l-1.78-0.22-0.76-1.627c-0.054-0.114-0.139-0.209-0.245-0.277s-0.229-0.103-0.355-0.103c-0.127 0.001-0.252 0.038-0.359 0.106s-0.193 0.166-0.248 0.28l-0.753 1.627-1.78 0.22c-0.126 0.015-0.245 0.066-0.343 0.146s-0.171 0.187-0.21 0.308c-0.039 0.121-0.043 0.25-0.011 0.373s0.098 0.234 0.191 0.32l1.313 1.22-0.34 1.76c-0.023 0.124-0.011 0.253 0.035 0.37s0.124 0.22 0.225 0.296c0.104 0.075 0.226 0.119 0.354 0.126s0.255-0.023 0.366-0.086l1.56-0.867 1.567 0.873c0.111 0.061 0.237 0.089 0.364 0.080s0.248-0.053 0.35-0.127c0.102-0.075 0.181-0.177 0.227-0.295s0.057-0.247 0.033-0.371l-0.34-1.76 1.313-1.22c0.093-0.087 0.159-0.198 0.191-0.322s0.028-0.253-0.011-0.374c-0.039-0.121-0.112-0.228-0.21-0.309s-0.217-0.133-0.343-0.149zM7.687 6.54c-0.083 0.077-0.145 0.173-0.18 0.281s-0.042 0.222-0.020 0.333l0.14 0.72-0.64-0.353c-0.1-0.055-0.212-0.085-0.327-0.087-0.115-0-0.227 0.029-0.327 0.087l-0.64 0.353 0.14-0.72c0.022-0.111 0.015-0.225-0.020-0.333s-0.097-0.204-0.18-0.28l-0.533-0.5 0.727-0.087c0.113-0.014 0.22-0.057 0.312-0.123s0.166-0.155 0.215-0.257l0.313-0.66 0.307 0.66c0.048 0.103 0.122 0.192 0.214 0.258s0.2 0.108 0.313 0.122l0.727 0.087-0.54 0.5zM18.867 4.893l-1.78-0.22-0.753-1.627c-0.055-0.114-0.142-0.211-0.249-0.278s-0.232-0.103-0.359-0.102c-0.127 0.001-0.251 0.037-0.358 0.106s-0.192 0.166-0.246 0.281l-0.753 1.627-1.78 0.22c-0.126 0.015-0.245 0.066-0.343 0.146s-0.171 0.187-0.21 0.308c-0.039 0.121-0.043 0.25-0.011 0.373s0.098 0.234 0.191 0.32l1.313 1.22-0.34 1.76c-0.023 0.124-0.011 0.253 0.035 0.37s0.124 0.22 0.225 0.296c0.104 0.075 0.226 0.119 0.354 0.126s0.255-0.023 0.366-0.086l1.567-0.873 1.567 0.873c0.111 0.061 0.237 0.089 0.364 0.080s0.248-0.053 0.35-0.127c0.102-0.075 0.181-0.177 0.227-0.295s0.057-0.247 0.033-0.371l-0.34-1.76 1.313-1.22c0.093-0.087 0.16-0.198 0.192-0.322s0.027-0.253-0.013-0.374c-0.040-0.121-0.114-0.228-0.213-0.308s-0.219-0.13-0.346-0.143h0zM16.747 6.54c-0.083 0.077-0.145 0.173-0.18 0.281s-0.042 0.222-0.020 0.333l0.14 0.72-0.64-0.353c-0.1-0.055-0.212-0.085-0.327-0.087-0.115-0-0.227 0.029-0.327 0.087l-0.64 0.353 0.14-0.72c0.022-0.111 0.015-0.225-0.020-0.333s-0.097-0.204-0.18-0.28l-0.533-0.5 0.727-0.087c0.113-0.014 0.22-0.057 0.312-0.123s0.166-0.155 0.215-0.257l0.307-0.66 0.307 0.66c0.048 0.103 0.122 0.192 0.214 0.258s0.2 0.108 0.313 0.122l0.727 0.087-0.533 0.5zM27.927 4.893l-1.78-0.22-0.753-1.627c-0.055-0.114-0.142-0.211-0.249-0.278s-0.232-0.103-0.359-0.102c-0.127 0.001-0.251 0.037-0.358 0.106s-0.192 0.166-0.246 0.281l-0.753 1.627-1.78 0.22c-0.126 0.015-0.245 0.066-0.343 0.146s-0.171 0.187-0.21 0.308c-0.039 0.121-0.043 0.25-0.011 0.373s0.098 0.234 0.191 0.32l1.313 1.22-0.34 1.76c-0.025 0.124-0.013 0.253 0.033 0.371s0.125 0.22 0.227 0.295c0.102 0.075 0.224 0.119 0.35 0.127s0.253-0.020 0.364-0.080l1.567-0.873 1.567 0.873c0.1 0.055 0.212 0.085 0.327 0.087 0.098 0.001 0.196-0.021 0.285-0.063s0.168-0.103 0.23-0.179c0.063-0.076 0.107-0.165 0.131-0.26s0.026-0.195 0.007-0.292l-0.34-1.76 1.313-1.22c0.092-0.087 0.158-0.198 0.19-0.321s0.028-0.252-0.010-0.373c-0.040-0.123-0.114-0.231-0.213-0.314s-0.219-0.136-0.347-0.153zM25.807 6.54c-0.083 0.077-0.145 0.173-0.18 0.281s-0.042 0.222-0.020 0.333l0.14 0.72-0.64-0.353c-0.1-0.055-0.212-0.085-0.327-0.087-0.115-0-0.227 0.029-0.327 0.087l-0.64 0.353 0.14-0.72c0.022-0.111 0.015-0.225-0.020-0.333s-0.097-0.204-0.18-0.28l-0.533-0.5 0.727-0.087c0.113-0.014 0.22-0.057 0.312-0.123s0.166-0.155 0.215-0.257l0.307-0.66 0.307 0.66c0.048 0.103 0.122 0.192 0.214 0.258s0.2 0.108 0.313 0.122l0.727 0.087-0.533 0.5z"></path>
<path d="M30 0h-28c-0.53 0.002-1.038 0.213-1.413 0.588s-0.586 0.883-0.588 1.413v9.333c0.002 0.53 0.213 1.038 0.588 1.412s0.883 0.586 1.413 0.588h20.213l1.167 2.913c0.043 0.108 0.113 0.204 0.205 0.276s0.2 0.12 0.315 0.137c0.033 0.006 0.067 0.008 0.1 0.007 0.1-0 0.199-0.023 0.289-0.067s0.169-0.107 0.231-0.186l2.467-3.080h3.013c0.53-0.002 1.038-0.213 1.413-0.588s0.586-0.883 0.588-1.412v-9.333c-0.002-0.53-0.213-1.038-0.587-1.413s-0.883-0.586-1.413-0.588zM30.667 11.333c-0.001 0.177-0.071 0.346-0.196 0.471s-0.294 0.195-0.471 0.196h-3.333c-0.013 0-0.020 0.007-0.033 0.007-0.046 0.002-0.090 0.011-0.133 0.027-0.040 0.013-0.080 0.020-0.113 0.033-0.035 0.020-0.068 0.042-0.1 0.067-0.038 0.025-0.074 0.054-0.107 0.087-0.007 0.007-0.020 0.013-0.027 0.020l-1.953 2.44-0.907-2.273c0-0.001-0-0.002-0-0.003s-0.001-0.002-0.001-0.002-0.001-0.001-0.002-0.001-0.002-0-0.003-0c-0.025-0.056-0.059-0.108-0.1-0.153-0.013-0.024-0.029-0.046-0.047-0.067-0.029-0.024-0.060-0.044-0.093-0.060-0.037-0.030-0.078-0.057-0.12-0.080-0.027-0.013-0.053-0.007-0.080-0.020-0.053 0-0.113-0.020-0.173-0.020h-20.673c-0.177-0.001-0.346-0.071-0.471-0.196s-0.195-0.294-0.196-0.471v-9.333c0.001-0.177 0.071-0.346 0.196-0.471s0.294-0.195 0.471-0.196h28c0.177 0.001 0.346 0.071 0.471 0.196s0.195 0.294 0.196 0.471v9.333zM19.333 21.333c0-0.659-0.195-1.304-0.562-1.852s-0.887-0.975-1.496-1.228c-0.609-0.252-1.279-0.318-1.926-0.19s-1.24 0.446-1.707 0.912c-0.466 0.466-0.784 1.060-0.912 1.707s-0.063 1.317 0.19 1.926c0.252 0.609 0.679 1.13 1.228 1.496s1.193 0.562 1.852 0.562c0.884-0 1.732-0.352 2.357-0.977s0.976-1.473 0.977-2.357h0zM14 21.333c0-0.396 0.117-0.782 0.337-1.111s0.532-0.585 0.898-0.737 0.768-0.191 1.156-0.114c0.388 0.077 0.744 0.268 1.024 0.547s0.47 0.636 0.547 1.024c0.077 0.388 0.038 0.79-0.114 1.156s-0.408 0.678-0.737 0.898c-0.329 0.22-0.716 0.337-1.111 0.337-0.53-0.002-1.038-0.213-1.413-0.587s-0.586-0.883-0.588-1.413h0zM9.333 21.333c0-0.659-0.195-1.304-0.562-1.852s-0.887-0.975-1.496-1.228c-0.609-0.252-1.279-0.318-1.926-0.19s-1.241 0.446-1.707 0.912c-0.466 0.466-0.784 1.060-0.912 1.707s-0.063 1.317 0.19 1.926 0.679 1.13 1.228 1.496c0.548 0.366 1.193 0.562 1.852 0.562 0.884-0 1.732-0.352 2.357-0.977s0.976-1.473 0.977-2.357h0zM4 21.333c0-0.396 0.117-0.782 0.337-1.111s0.532-0.585 0.898-0.737 0.768-0.191 1.156-0.114c0.388 0.077 0.744 0.268 1.024 0.547s0.47 0.636 0.547 1.024c0.077 0.388 0.038 0.79-0.114 1.156s-0.408 0.678-0.737 0.898c-0.329 0.22-0.716 0.337-1.111 0.337-0.53-0.002-1.038-0.213-1.413-0.587s-0.586-0.883-0.588-1.413h0zM29.333 21.333c0-0.659-0.195-1.304-0.562-1.852s-0.887-0.975-1.496-1.228c-0.609-0.252-1.279-0.318-1.926-0.19s-1.241 0.446-1.707 0.912c-0.466 0.466-0.784 1.060-0.912 1.707s-0.063 1.317 0.19 1.926c0.252 0.609 0.68 1.13 1.228 1.496s1.193 0.562 1.852 0.562c0.884-0 1.732-0.352 2.357-0.977s0.976-1.473 0.977-2.357h0zM24 21.333c0-0.396 0.117-0.782 0.337-1.111s0.532-0.585 0.898-0.737 0.768-0.191 1.156-0.114c0.388 0.077 0.744 0.268 1.024 0.547s0.47 0.636 0.547 1.024c0.077 0.388 0.038 0.79-0.114 1.156s-0.408 0.678-0.737 0.898c-0.329 0.22-0.716 0.337-1.111 0.337-0.53-0.002-1.038-0.213-1.413-0.587s-0.586-0.883-0.587-1.413h0zM28 25.333h-4c-0.569-0.002-1.132 0.119-1.651 0.353s-0.981 0.578-1.356 1.007c-0.373-0.427-0.833-0.77-1.349-1.004s-1.077-0.356-1.644-0.356h-4c-0.567 0-1.128 0.121-1.644 0.356s-0.976 0.577-1.349 1.004c-0.375-0.429-0.837-0.772-1.356-1.007s-1.082-0.355-1.651-0.353h-4c-1.061 0.001-2.078 0.423-2.828 1.172s-1.172 1.767-1.173 2.828v2c0.001 0.177 0.071 0.346 0.196 0.471s0.294 0.195 0.471 0.196h30.667c0.177-0.001 0.346-0.071 0.471-0.196s0.195-0.294 0.196-0.471v-2c-0.001-1.061-0.423-2.078-1.172-2.828s-1.767-1.172-2.828-1.172h0zM1.333 29.333c-0-0.35 0.069-0.697 0.203-1.021s0.33-0.618 0.578-0.865c0.248-0.248 0.542-0.444 0.865-0.578s0.67-0.203 1.021-0.203h4c0.453-0 0.899 0.115 1.294 0.336s0.728 0.539 0.966 0.924c-0.171 0.449-0.259 0.926-0.26 1.407v1.333h-8.667l0-1.333zM11.333 30.667v-1.333c-0-0.35 0.069-0.697 0.203-1.021s0.33-0.618 0.578-0.865c0.248-0.248 0.542-0.444 0.865-0.578s0.67-0.203 1.021-0.203h4c0.35-0 0.697 0.069 1.021 0.203s0.618 0.33 0.865 0.578c0.248 0.248 0.444 0.542 0.578 0.865s0.203 0.67 0.203 1.021v1.333l-9.333-0zM30.667 30.667h-8.667v-1.333c-0.001-0.481-0.089-0.957-0.26-1.407 0.238-0.386 0.57-0.704 0.966-0.924s0.841-0.336 1.294-0.336h4c0.35-0 0.697 0.069 1.021 0.203s0.618 0.33 0.865 0.578c0.248 0.248 0.444 0.542 0.578 0.865s0.203 0.67 0.203 1.021v1.333z"></path>
</svg>
