<!-- Generated by IcoMoon.io -->
<svg version="1.1" xmlns="http://www.w3.org/2000/svg" width="32" height="32" viewBox="0 0 32 32">
<path fill="#4d5e6f" d="M16 29.4c-6.2 0-9.3 0-11.3-2.1-2.1-2-2.1-5.1-2.1-11.3s0-9.3 2.1-11.3 5.1-2.1 11.3-2.1c6.2 0 9.3 0 11.3 2.1 2.1 2.1 2.1 5.2 2.1 11.3 0 6.2 0 9.3-2.1 11.3-2 2.1-5.1 2.1-11.3 2.1zM16 4.1c-5.8 0-8.6 0-10.3 1.6s-1.6 4.5-1.6 10.3 0 8.6 1.6 10.3c1.6 1.6 4.5 1.6 10.3 1.6s8.6 0 10.3-1.6c1.6-1.6 1.6-4.5 1.6-10.3s0-8.6-1.6-10.3c-1.7-1.6-4.5-1.6-10.3-1.6z"></path>
<path fill="#4d5e6f" d="M14 20.8c-0.2 0-0.4-0.1-0.5-0.2l-3.3-3.3c-0.3-0.3-0.3-0.8 0-1.1s0.8-0.3 1.1 0l2.8 2.8 6.8-7.4c0.3-0.3 0.8-0.3 1.1 0s0.3 0.8 0 1.1l-7.3 8c-0.3 0-0.5 0-0.7 0.1 0 0 0 0 0 0z"></path>
</svg>
