<!-- Generated by IcoMoon.io -->
<svg version="1.1" xmlns="http://www.w3.org/2000/svg" width="34" height="32" viewBox="0 0 34 32">
<path d="M9.882 28.706c0 1.56-1.264 2.824-2.824 2.824h-2.824c-1.559 0-2.824-1.264-2.824-2.824v-2.824c0-1.56 1.264-2.824 2.824-2.824v-14.118c-1.559 0-2.824-1.264-2.824-2.824v-2.824c0-1.559 1.264-2.824 2.824-2.824h2.824c1.559 0 2.824 1.264 2.824 2.824h14.118c0-1.559 1.264-2.824 2.824-2.824h2.824c1.559 0 2.824 1.264 2.824 2.824v2.824c0 1.559-1.264 2.824-2.824 2.824v14.118c1.559 0 2.824 1.264 2.824 2.824v2.824c0 1.56-1.264 2.824-2.824 2.824h-2.824c-1.559 0-2.824-1.264-2.824-2.824h-14.118zM29.647 25.882h-2.824v2.824h2.824v-2.824zM7.059 25.882h-2.824v2.824h2.824v-2.824zM24 6.118h-14.118c0 1.559-1.264 2.824-2.824 2.824v14.118c1.559 0 2.824 1.264 2.824 2.824h14.118c0-1.56 1.264-2.824 2.824-2.824v-14.118c-1.559 0-2.824-1.264-2.824-2.824zM16.911 8.942l0.94 0.030c0.151 0.006 0.298 0.013 0.443 0.021l0.832 0.057c3.847 0.324 5.216 1.381 4.735 4.353-0.125 0.77-0.85 1.292-1.619 1.168-0.706-0.114-1.204-0.733-1.186-1.428l0.041-0.393c0.020-0.409-0.169-0.641-0.954-0.782l-0.406-0.058-0.499-0.047-0.601-0.038c-0.109-0.006-0.223-0.011-0.341-0.016l-0.003 8.427h0.684c0.78 0 1.412 0.632 1.412 1.412 0 0.715-0.531 1.305-1.22 1.399l-0.192 0.013h-4.19c-0.78 0-1.412-0.632-1.412-1.412 0-0.715 0.531-1.305 1.22-1.399l0.192-0.013h0.683l-0.001-8.432-0.659 0.032-0.552 0.042-0.454 0.052c-1.089 0.155-1.223 0.441-1.12 0.987 0.144 0.766-0.361 1.504-1.128 1.648s-1.504-0.361-1.648-1.128c-0.561-2.993 0.974-4.118 5.095-4.416l0.889-0.050c0.154-0.007 0.312-0.012 0.473-0.017l0.549-0.012zM29.647 3.294h-2.824v2.824h2.824v-2.824zM7.059 3.294h-2.824v2.824h2.824v-2.824z"></path>
</svg>
