<!-- Generated by IcoMoon.io -->
<svg version="1.1" xmlns="http://www.w3.org/2000/svg" width="30" height="32" viewBox="0 0 30 32">
<path fill="#227aff" d="M15.238 2.286c-7.543 0-13.714 6.171-13.714 13.714s6.171 13.714 13.714 13.714c7.543 0 13.714-6.171 13.714-13.714s-6.171-13.714-13.714-13.714zM15.238 26.857c-5.943 0-10.857-4.914-10.857-10.857s4.914-10.857 10.857-10.857c5.943 0 10.857 4.914 10.857 10.857s-4.914 10.857-10.857 10.857z"></path>
<path fill="#227aff" d="M16.724 15.43v-7.2c0-0.8-0.686-1.486-1.486-1.486s-1.486 0.686-1.486 1.486v7.771c0 0.343 0.114 0.8 0.457 1.029l3.2 3.2c0.229 0.229 0.686 0.457 1.029 0.457s0.686-0.114 1.029-0.457c0.571-0.571 0.571-1.486 0-2.057l-2.743-2.743z"></path>
</svg>
