<!-- Generated by IcoMoon.io -->
<svg version="1.1" xmlns="http://www.w3.org/2000/svg" width="31" height="32" viewBox="0 0 31 32">
<path d="M12.8 6.438h5.12c0.768 0 1.28-0.512 1.28-1.28s-0.512-1.28-1.28-1.28h-5.12c-0.768 0-1.28 0.512-1.28 1.28s0.512 1.28 1.28 1.28zM23.424 11.686l1.152-1.152c0.512-0.512 0.512-1.28 0-1.792s-1.28-0.512-1.792 0l-1.152 1.152c-3.712-2.944-8.832-2.944-12.544 0l-1.152-1.152c-0.512-0.512-1.28-0.512-1.792 0s-0.512 1.28 0 1.792l1.152 1.152c-3.456 4.48-2.688 10.88 1.792 14.336s10.88 2.688 14.336-1.792c2.944-3.712 2.944-8.832 0-12.544zM17.536 19.238c-0.512 0.768-1.28 1.28-2.176 1.28-1.408 0-2.56-1.152-2.56-2.56 0-0.896 0.512-1.792 1.28-2.176v-2.944c0-0.768 0.512-1.28 1.28-1.28s1.28 0.512 1.28 1.28v2.944c1.28 0.64 1.664 2.176 0.896 3.456z"></path>
</svg>
