<!-- Generated by IcoMoon.io -->
<svg version="1.1" xmlns="http://www.w3.org/2000/svg" width="43" height="32" viewBox="0 0 43 32">
<path fill="#4d5e6f" d="M2.667 0h37.333c1.473 0 2.667 1.194 2.667 2.667s-1.194 2.667-2.667 2.667h-37.333c-1.473 0-2.667-1.194-2.667-2.667s1.194-2.667 2.667-2.667z"></path>
<path fill="#4d5e6f" d="M2.667 13.333h37.333c1.473 0 2.667 1.194 2.667 2.667s-1.194 2.667-2.667 2.667h-37.333c-1.473 0-2.667-1.194-2.667-2.667s1.194-2.667 2.667-2.667z"></path>
<path fill="#4d5e6f" d="M2.667 26.667h37.333c1.473 0 2.667 1.194 2.667 2.667s-1.194 2.667-2.667 2.667h-37.333c-1.473 0-2.667-1.194-2.667-2.667s1.194-2.667 2.667-2.667z"></path>
</svg>
