<!-- Generated by IcoMoon.io -->
<svg version="1.1" xmlns="http://www.w3.org/2000/svg" width="32" height="32" viewBox="0 0 32 32">
<path d="M29.6 3.2h-9.2l-2.16-2.88c-0.15-0.202-0.389-0.32-0.64-0.32h-3.2c-0.251 0-0.49 0.118-0.64 0.32l-2.16 2.88h-9.2c-0.442 0-0.8 0.358-0.8 0.8s0.358 0.8 0.8 0.8h27.2c0.442 0 0.8-0.358 0.8-0.8s-0.358-0.8-0.8-0.8zM14.8 1.6h2.4l1.2 1.6h-4.8l1.2-1.6z"></path>
<path d="M28.131 6.411c-0.435-0.072-0.848 0.222-0.92 0.658l-3.738 22.422c-0.082 0.485-0.582 0.91-1.074 0.91h-12.8c-0.491 0-0.994-0.426-1.074-0.91l-3.738-22.422c-0.072-0.435-0.485-0.73-0.92-0.658s-0.73 0.485-0.658 0.92l3.738 22.422c0.21 1.259 1.374 2.246 2.653 2.246h12.8c1.277 0 2.442-0.987 2.653-2.246l3.738-22.422c0.072-0.435-0.222-0.848-0.658-0.92z"></path>
</svg>
