<!-- Generated by IcoMoon.io -->
<svg version="1.1" xmlns="http://www.w3.org/2000/svg" width="32" height="32" viewBox="0 0 32 32">
<path d="M28.64 19.518c-1.533-2.040-3.541-3.731-5.808-4.888-2.378-1.214-4.946-1.83-7.632-1.83-4.534 0-8.848 1.826-12 5.043v-4.243c0-0.442-0.358-0.8-0.8-0.8s-0.8 0.358-0.8 0.8v6.4c0 0.442 0.358 0.8 0.8 0.8h6.4c0.442 0 0.8-0.358 0.8-0.8s-0.358-0.8-0.8-0.8h-4.685c2.87-3.059 6.872-4.8 11.085-4.8 4.826 0 9.258 2.216 12.16 6.078 0.157 0.21 0.397 0.32 0.64 0.32 0.168 0 0.336-0.053 0.48-0.16 0.354-0.266 0.424-0.766 0.158-1.12z"></path>
</svg>
