<!-- Generated by IcoMoon.io -->
<svg version="1.1" xmlns="http://www.w3.org/2000/svg" width="32" height="32" viewBox="0 0 32 32">
<path fill="#4d5e6f" d="M11.8 31.4c-0.3 0-0.5-0.1-0.7-0.4l-0.8-1.5c-0.7-1.3-1-2-0.5-2.6s1.2-0.4 2.7 0.1c1.1 0.3 2.3 0.5 3.5 0.5 6.6 0 11.9-5.2 11.9-11.5 0-2-0.5-4-1.6-5.8-0.2-0.4-0.1-0.8 0.3-1s0.8-0.1 1 0.3c1.2 2 1.8 4.2 1.8 6.5 0 7.2-6 13-13.4 13-1.3 0-2.7-0.2-3.9-0.6-0.3-0.1-0.5-0.1-0.7-0.2 0.1 0.2 0.2 0.4 0.3 0.6l0.8 1.5c0.2 0.4 0.1 0.8-0.3 1-0.2 0.1-0.3 0.1-0.4 0.1zM5 22.9c-0.3 0-0.5-0.1-0.6-0.4-1.2-2-1.8-4.2-1.8-6.5 0-7.2 6-13 13.4-13 1.3 0 2.7 0.2 3.9 0.6 0.3 0.1 0.5 0.2 0.7 0.2-0.1-0.2-0.2-0.4-0.3-0.6l-0.8-1.5c-0.2-0.4-0.1-0.8 0.3-1s0.8-0.1 1 0.3l0.8 1.5c0.7 1.3 1 2 0.5 2.6-0.4 0.5-1.1 0.3-2.6-0.1-1.1-0.3-2.3-0.5-3.5-0.5-6.6 0-11.9 5.1-11.9 11.5 0 2 0.5 4 1.6 5.8 0.2 0.4 0.1 0.8-0.3 1-0.1 0.1-0.2 0.1-0.4 0.1zM21 4.4v0 0z"></path>
</svg>
