<svg width="18" height="18" fill="none" xmlns="http://www.w3.org/2000/svg"><path d="M8.8 1.533c-.628.105-1.471.823-2.721 2.317a21.9 21.9 0 0 0-1.028 1.315c-.272.394-.202.819.176 1.077.142.097.166.103.395.103.373-.001.412-.031.925-.7.405-.527.91-1.131 1.354-1.616l.334-.366.015 4.266.015 4.266.064.12c.148.275.373.414.671.414.298 0 .523-.139.671-.414l.064-.12.008-4.265.008-4.265.277.29c.354.371.975 1.107 1.386 1.642.548.714.59.747.964.748.229 0 .253-.006.395-.103.259-.177.366-.417.329-.742-.017-.154-.125-.324-.562-.885-.66-.848-1.521-1.824-1.972-2.236-.752-.687-1.262-.931-1.768-.846M2.1 12.028a.766.766 0 0 0-.521.407c-.06.113-.064.157-.059.752.006.683.03.887.151 1.258.144.447.379.828.718 1.166a2.949 2.949 0 0 0 1.64.835c.36.057 9.582.057 9.942 0a2.949 2.949 0 0 0 1.64-.835 2.924 2.924 0 0 0 .83-1.623c.019-.128.037-.503.04-.833.004-.561 0-.608-.06-.72-.148-.275-.373-.414-.671-.414a.713.713 0 0 0-.668.414c-.055.106-.065.196-.083.765-.022.69-.041.785-.218 1.087-.184.315-.612.613-.978.682-.222.043-9.384.043-9.606 0-.366-.069-.794-.367-.978-.682-.177-.302-.196-.397-.218-1.087-.018-.569-.028-.659-.083-.765a.754.754 0 0 0-.818-.407" fill-rule="evenodd" fill="#000"/></svg>