<!-- Generated by IcoMoon.io -->
<svg version="1.1" xmlns="http://www.w3.org/2000/svg" width="34" height="32" viewBox="0 0 34 32">
<path fill="#227aff" d="M25.446 10.96c-0.815-1.872-2.221-3.425-4.003-4.422s-3.841-1.381-5.863-1.095c-2.021 0.286-3.893 1.227-5.329 2.679s-2.356 3.334-2.619 5.358c-1.271 0.304-2.386 1.065-3.134 2.138s-1.075 2.382-0.92 3.68c0.155 1.298 0.781 2.494 1.759 3.361s2.241 1.344 3.548 1.341c0.354 0 0.693-0.14 0.943-0.391s0.391-0.589 0.391-0.943-0.14-0.693-0.391-0.943c-0.25-0.25-0.589-0.391-0.943-0.391-0.707 0-1.386-0.281-1.886-0.781s-0.781-1.178-0.781-1.886c0-0.707 0.281-1.386 0.781-1.886s1.178-0.781 1.886-0.781c0.354 0 0.693-0.14 0.943-0.391s0.391-0.589 0.391-0.943c0.003-1.577 0.566-3.102 1.587-4.303s2.436-2.002 3.991-2.26c1.556-0.257 3.152 0.045 4.506 0.854s2.377 2.071 2.889 3.563c0.076 0.229 0.213 0.433 0.396 0.591s0.405 0.262 0.644 0.303c0.888 0.168 1.693 0.631 2.284 1.315s0.933 1.548 0.97 2.451c0.037 0.903-0.233 1.792-0.765 2.522s-1.297 1.258-2.168 1.498c-0.343 0.088-0.637 0.309-0.817 0.615s-0.231 0.669-0.143 1.012c0.088 0.343 0.309 0.637 0.615 0.817s0.669 0.231 1.012 0.143c1.403-0.371 2.647-1.189 3.543-2.331s1.394-2.545 1.42-3.996c0.026-1.451-0.423-2.871-1.278-4.044s-2.069-2.035-3.458-2.455zM17.833 13.72c-0.127-0.121-0.276-0.217-0.44-0.28-0.325-0.133-0.689-0.133-1.013 0-0.164 0.063-0.313 0.159-0.44 0.28l-4 4c-0.251 0.251-0.392 0.592-0.392 0.947s0.141 0.696 0.392 0.947c0.251 0.251 0.592 0.392 0.947 0.392s0.696-0.141 0.947-0.392l1.72-1.733v7.453c0 0.354 0.14 0.693 0.391 0.943s0.589 0.391 0.943 0.391 0.693-0.14 0.943-0.391c0.25-0.25 0.391-0.589 0.391-0.943v-7.453l1.72 1.733c0.124 0.125 0.271 0.224 0.434 0.292s0.337 0.102 0.513 0.102 0.35-0.035 0.513-0.102c0.163-0.068 0.31-0.167 0.434-0.292 0.125-0.124 0.224-0.271 0.292-0.434s0.103-0.337 0.103-0.513c0-0.176-0.035-0.35-0.103-0.513s-0.167-0.31-0.292-0.434l-4-4z"></path>
</svg>
