<!-- Generated by IcoMoon.io -->
<svg version="1.1" xmlns="http://www.w3.org/2000/svg" width="32" height="32" viewBox="0 0 32 32">
<path d="M15.96 17.838c4.581-0.090 8.26-3.825 8.26-8.418 0-4.65-3.77-8.42-8.42-8.42-4.645 0-8.412 3.762-8.42 8.406v0.001c0.039 4.665 3.831 8.432 8.502 8.432 0.028 0 0.055-0 0.082-0l-0.004 0zM15.96 3.198c3.372 0.067 6.080 2.817 6.080 6.199 0 3.424-2.776 6.2-6.2 6.2s-6.199-2.775-6.2-6.199v-0c0.044-3.433 2.837-6.198 6.276-6.198 0.016 0 0.031 0 0.047 0h-0.002zM1.12 30.998h29.76c0.008 0 0.017 0 0.026 0 0.615 0 1.113-0.498 1.114-1.112v-0c-0.061-5.855-4.822-10.578-10.685-10.578-0.026 0-0.052 0-0.079 0l0.004-0h-10.52c-0.018-0-0.039-0-0.060-0-5.863 0-10.622 4.724-10.679 10.573l-0 0.005c0 0.001 0 0.003 0 0.004 0 0.613 0.497 1.11 1.11 1.11 0.004 0 0.007-0 0.011-0h-0.001zM10.74 21.532h10.52c0.017-0 0.038-0 0.058-0 4.24 0 7.751 3.124 8.356 7.196l0.006 0.046h-27.34c0.621-4.118 4.134-7.238 8.376-7.238 0.008 0 0.017 0 0.025 0h-0.001z"></path>
</svg>
