<!-- Generated by IcoMoon.io -->
<svg version="1.1" xmlns="http://www.w3.org/2000/svg" width="32" height="32" viewBox="0 0 32 32">
<path fill="#195ec8" d="M10.589 14.802c3.061 0 5.565-2.504 5.565-5.565s-2.504-5.565-5.565-5.565c-3.061 0-5.565 2.504-5.565 5.565s2.504 5.565 5.565 5.565zM16.85 13.55c2.365 1.948 5.843 1.53 7.791-0.835s1.53-5.843-0.835-7.791c-0.974-0.835-2.226-1.252-3.478-1.252s-2.504 0.417-3.478 1.252c2.365 1.948 2.783 5.287 0.835 7.791-0.139 0.278-0.557 0.557-0.835 0.835zM30.623 25.793c-0.835-5.148-5.148-8.904-10.296-8.904-1.252 0-2.365 0.139-3.478 0.557 3.617 1.252 6.261 4.452 6.817 8.209 0.139 0.696-0.417 1.53-1.252 1.53h6.817c0.835 0 1.391-0.557 1.391-1.391zM10.589 16.889c-5.148 0-9.6 3.757-10.296 8.904-0.139 0.696 0.417 1.53 1.252 1.53h17.948c0.835 0 1.391-0.557 1.391-1.391v-0.139c-0.696-5.148-5.148-8.904-10.296-8.904z"></path>
</svg>
