<!-- Generated by IcoMoon.io -->
<svg version="1.1" xmlns="http://www.w3.org/2000/svg" width="31" height="32" viewBox="0 0 31 32">
<path d="M15.36 14.758c1.358 0 2.66-0.539 3.62-1.5s1.5-2.263 1.5-3.62-0.539-2.66-1.5-3.62c-0.96-0.96-2.262-1.5-3.62-1.5s-2.66 0.539-3.62 1.5c-0.96 0.96-1.5 2.262-1.5 3.62s0.539 2.66 1.5 3.62c0.96 0.96 2.262 1.5 3.62 1.5zM15.36 17.318c-1.987-0.001-3.948 0.461-5.725 1.349s-3.323 2.18-4.515 3.771c1.191 1.591 2.737 2.882 4.515 3.771s3.738 1.351 5.725 1.349c1.987 0.002 3.948-0.46 5.725-1.349s3.323-2.18 4.515-3.771c-1.191-1.591-2.737-2.882-4.515-3.771s-3.738-1.351-5.725-1.349z"></path>
</svg>
