<!-- Generated by IcoMoon.io -->
<svg version="1.1" xmlns="http://www.w3.org/2000/svg" width="32" height="32" viewBox="0 0 32 32">
<path fill="#4d5e6f" d="M16 30.1c-7.8 0-14.1-6.3-14.1-14.1s6.3-14.1 14.1-14.1c7.8 0 14.1 6.3 14.1 14.1s-6.3 14.1-14.1 14.1zM16 3.4c-6.9 0-12.6 5.7-12.6 12.6s5.7 12.6 12.6 12.6c6.9 0 12.6-5.6 12.6-12.6s-5.7-12.6-12.6-12.6z"></path>
<path fill="#4d5e6f" d="M14.4 21.4c-0.2 0-0.4 0-0.6-0.1-0.4-0.1-0.8-0.4-1.1-0.7-0.7-0.8-0.7-2.1-0.7-4.6s0-3.8 0.7-4.6c0.3-0.3 0.7-0.6 1.1-0.7 1.1-0.3 2.1 0.3 4.1 1.6 2.1 1.3 3.1 1.9 3.4 3.1 0.1 0.5 0.1 0.9 0 1.4 0 0 0 0 0 0-0.3 1.1-1.3 1.8-3.4 3.1-1.6 0.9-2.6 1.5-3.5 1.5zM14.4 12.1c0 0-0.1 0-0.1 0-0.2 0.1-0.3 0.2-0.5 0.3-0.4 0.4-0.4 1.7-0.4 3.6s0 3.2 0.4 3.6c0.1 0.1 0.3 0.3 0.5 0.3 0.4 0.1 1.5-0.5 2.9-1.4 1.6-1 2.6-1.6 2.7-2.1 0.1-0.2 0.1-0.5 0-0.7-0.1-0.5-1.1-1.1-2.7-2.1-1.4-0.9-2.4-1.5-2.8-1.5z"></path>
</svg>
