<!-- Generated by IcoMoon.io -->
<svg version="1.1" xmlns="http://www.w3.org/2000/svg" width="45" height="32" viewBox="0 0 45 32">
<path fill="#4d5e6f" d="M22.522 2.398c4.489 0.036 8.929 1.677 12.344 4.506l9.355 7.795c0.751 0.693 0.791 1.923 0 2.65l-9.355 7.795c-5.39 4.466-13.266 5.76-19.864 3.040-1.818-0.75-3.52-1.785-5.035-3.040l-2.269-1.892c-0.98-0.899-0.588-2.797 0.825-3.027 0.381-0.062 0.775 0.007 1.113 0.193 0.128 0.071 0.153 0.096 0.271 0.184 1.194 0.996 2.35 2.054 3.632 2.91 5.659 3.78 13.749 3.431 19.123-1.022l7.759-6.467c-2.611-2.175-5.214-4.358-7.831-6.525-5.466-4.478-14.114-4.857-19.993-0.283-0.143 0.112-0.284 0.226-0.424 0.341l-9.35 7.792c-0.117 0.088-0.143 0.115-0.271 0.186-1.21 0.667-3.062-0.67-2.423-2.183 0.107-0.252 0.279-0.465 0.484-0.653l9.353-7.795c3.403-2.819 7.756-4.446 12.243-4.504 0.103-0.002 0.207-0.002 0.312-0.002zM22.462 9.125c3.195 0.031 6.179 2.502 6.748 5.681 0.548 3.065-1.258 6.389-4.144 7.592-2.466 1.025-5.511 0.451-7.437-1.408-2.092-2.018-2.692-5.419-1.392-8.033 1.122-2.254 3.522-3.791 6.093-3.832 0.045 0 0.088 0 0.133 0zM22.395 12.575c-2.273 0.022-4.149 2.707-3.096 4.925 0.75 1.578 2.816 2.39 4.442 1.713 2.085-0.868 2.819-4.044 1.027-5.712-0.636-0.593-1.506-0.927-2.373-0.925z"></path>
</svg>
