<!-- Generated by IcoMoon.io -->
<svg version="1.1" xmlns="http://www.w3.org/2000/svg" width="35" height="32" viewBox="0 0 35 32">
<path fill="#ff3945" d="M21.823 2.675c-0.413-0.726-1.010-1.329-1.732-1.748s-1.541-0.641-2.376-0.641-1.655 0.221-2.376 0.641c-0.722 0.42-1.319 1.023-1.732 1.748l-12.442 22.167c-0.395 0.696-0.599 1.483-0.592 2.283s0.226 1.584 0.633 2.272c0.414 0.71 1.008 1.298 1.722 1.705s1.523 0.617 2.345 0.611h24.884c0.822 0.007 1.631-0.204 2.345-0.611s1.308-0.995 1.722-1.705c0.408-0.688 0.626-1.472 0.633-2.272s-0.197-1.588-0.592-2.283l-12.442-22.167zM17.714 26c-0.282 0-0.559-0.084-0.794-0.241s-0.418-0.38-0.526-0.641-0.136-0.548-0.081-0.825c0.055-0.277 0.191-0.532 0.391-0.731s0.454-0.336 0.731-0.391c0.277-0.055 0.564-0.027 0.825 0.081s0.484 0.291 0.641 0.526c0.157 0.235 0.241 0.511 0.241 0.794 0 0.379-0.151 0.742-0.418 1.010s-0.631 0.418-1.010 0.418zM19.143 18.857c0 0.379-0.151 0.742-0.418 1.010s-0.631 0.418-1.010 0.418c-0.379 0-0.742-0.151-1.010-0.418s-0.418-0.631-0.418-1.010v-8.571c0-0.379 0.151-0.742 0.418-1.010s0.631-0.418 1.010-0.418c0.379 0 0.742 0.15 1.010 0.418s0.418 0.631 0.418 1.010v8.571z"></path>
</svg>
