<!-- Generated by IcoMoon.io -->
<svg version="1.1" xmlns="http://www.w3.org/2000/svg" width="151" height="32" viewBox="0 0 151 32">
<path d="M142.933 0h-142.933v23.467c0 4.713 3.821 8.533 8.533 8.533h142.933v-23.467c0-4.713-3.821-8.533-8.533-8.533zM42.896 23.915c-0.611-0.071-1.195-0.185-1.749-0.341s-1.052-0.341-1.493-0.555c-0.384-0.185-0.654-0.427-0.811-0.725-0.156-0.313-0.213-0.64-0.171-0.981s0.164-0.64 0.363-0.896c0.199-0.27 0.462-0.448 0.789-0.533 0.327-0.1 0.697-0.057 1.109 0.128 0.541 0.256 1.152 0.455 1.835 0.597s1.323 0.213 1.92 0.213c0.939 0 1.593-0.121 1.963-0.363 0.384-0.256 0.576-0.569 0.576-0.939 0-0.327-0.135-0.59-0.405-0.789-0.256-0.199-0.718-0.37-1.387-0.512l-2.496-0.533c-1.365-0.284-2.382-0.782-3.051-1.493s-1.003-1.628-1.003-2.752c0-0.74 0.149-1.408 0.448-2.005 0.313-0.612 0.747-1.131 1.301-1.557 0.569-0.427 1.237-0.754 2.005-0.981 0.782-0.242 1.65-0.363 2.603-0.363 0.74 0 1.486 0.085 2.24 0.256 0.768 0.156 1.429 0.398 1.984 0.725 0.327 0.171 0.562 0.405 0.704 0.704s0.199 0.612 0.171 0.939c-0.028 0.313-0.142 0.59-0.341 0.832-0.185 0.242-0.441 0.405-0.768 0.491-0.313 0.071-0.69 0.014-1.131-0.171-0.412-0.185-0.882-0.32-1.408-0.405-0.512-0.1-1.010-0.149-1.493-0.149-0.526 0-0.974 0.064-1.344 0.192-0.37 0.114-0.654 0.284-0.853 0.512-0.185 0.228-0.277 0.491-0.277 0.789s0.121 0.555 0.363 0.768c0.256 0.199 0.718 0.37 1.387 0.512l2.475 0.533c1.38 0.299 2.411 0.789 3.093 1.472s1.024 1.572 1.024 2.667c0 0.74-0.149 1.408-0.448 2.005s-0.725 1.109-1.28 1.536c-0.555 0.412-1.223 0.732-2.005 0.96s-1.664 0.341-2.645 0.341c-0.569 0-1.166-0.043-1.792-0.128zM22.058 24c-0.569 0-1.010-0.156-1.323-0.469-0.299-0.313-0.448-0.754-0.448-1.323v-11.84c0-0.583 0.164-1.024 0.491-1.323 0.327-0.313 0.789-0.469 1.387-0.469 0.498 0 0.889 0.1 1.173 0.299 0.299 0.185 0.569 0.498 0.811 0.939l4.212 7.563 4.193-7.563c0.256-0.441 0.526-0.754 0.811-0.939 0.299-0.199 0.697-0.299 1.195-0.299 0.569 0 1.003 0.156 1.301 0.469 0.313 0.299 0.469 0.74 0.469 1.323v11.84c0 0.569-0.149 1.010-0.448 1.323s-0.739 0.469-1.323 0.469c-0.569 0-1.010-0.156-1.323-0.469-0.299-0.313-0.448-0.754-0.448-1.323v-6.56l-2.987 5.194c-0.199 0.313-0.412 0.548-0.64 0.704-0.213 0.156-0.505 0.235-0.875 0.235-0.355 0-0.647-0.078-0.875-0.235s-0.434-0.391-0.619-0.704l-2.965-5.144v6.509c0 0.569-0.149 1.010-0.448 1.323s-0.739 0.469-1.323 0.469zM9.75 23.808c-0.626 0-1.116-0.171-1.472-0.512-0.341-0.356-0.512-0.846-0.512-1.472v-11.093c0-0.64 0.171-1.131 0.512-1.472s0.825-0.512 1.451-0.512c0.64 0 1.124 0.171 1.451 0.512 0.341 0.341 0.512 0.832 0.512 1.472v9.813h5.205c0.54 0 0.953 0.142 1.237 0.427 0.299 0.27 0.448 0.668 0.448 1.195s-0.149 0.932-0.448 1.216c-0.284 0.284-0.697 0.427-1.237 0.427h-7.147zM66.694 24.043c-1.664 0-3.093-0.32-4.288-0.96s-2.112-1.543-2.752-2.709c-0.626-1.166-0.939-2.532-0.939-4.096 0-1.166 0.178-2.226 0.533-3.179 0.37-0.953 0.896-1.771 1.579-2.453 0.697-0.683 1.536-1.202 2.517-1.557 0.996-0.37 2.112-0.555 3.349-0.555 0.654 0 1.33 0.078 2.027 0.235 0.711 0.142 1.337 0.363 1.877 0.661 0.398 0.213 0.676 0.484 0.832 0.811s0.206 0.661 0.149 1.003c-0.043 0.341-0.163 0.647-0.363 0.917s-0.455 0.455-0.768 0.555c-0.313 0.085-0.654 0.036-1.024-0.149-0.427-0.199-0.853-0.348-1.28-0.448-0.412-0.114-0.846-0.171-1.301-0.171-0.882 0-1.621 0.171-2.219 0.512-0.583 0.327-1.024 0.811-1.323 1.451s-0.448 1.429-0.448 2.368c0 0.939 0.149 1.735 0.448 2.389 0.299 0.64 0.74 1.131 1.323 1.472 0.597 0.327 1.337 0.491 2.219 0.491 0.37 0 0.768-0.043 1.195-0.128 0.427-0.1 0.846-0.249 1.259-0.448 0.427-0.185 0.804-0.235 1.131-0.149 0.341 0.085 0.612 0.256 0.811 0.512 0.213 0.256 0.349 0.555 0.405 0.896 0.057 0.327 0.007 0.654-0.149 0.981-0.142 0.327-0.398 0.59-0.768 0.789-0.498 0.299-1.116 0.533-1.856 0.704-0.725 0.171-1.451 0.256-2.176 0.256zM76.508 23.083c-1.152-0.654-2.048-1.564-2.688-2.731-0.626-1.166-0.939-2.524-0.939-4.075 0-1.166 0.178-2.226 0.533-3.179 0.37-0.953 0.889-1.771 1.557-2.453 0.683-0.683 1.493-1.202 2.432-1.557 0.939-0.37 1.977-0.555 3.115-0.555 1.522 0 2.851 0.32 3.989 0.96 1.152 0.64 2.048 1.543 2.688 2.709 0.64 1.152 0.96 2.51 0.96 4.075 0 1.166-0.185 2.226-0.555 3.179-0.356 0.953-0.875 1.778-1.557 2.475-0.669 0.683-1.472 1.209-2.411 1.579-0.939 0.356-1.977 0.533-3.115 0.533-1.522 0-2.859-0.32-4.011-0.96zM82.439 20.224c0.526-0.356 0.931-0.868 1.216-1.536s0.427-1.472 0.427-2.411c0-1.408-0.313-2.503-0.939-3.285s-1.501-1.173-2.624-1.173c-0.74 0-1.38 0.178-1.92 0.533-0.526 0.341-0.932 0.846-1.216 1.515-0.285 0.654-0.427 1.458-0.427 2.411 0 1.408 0.313 2.51 0.939 3.307 0.626 0.782 1.5 1.173 2.624 1.173 0.754 0 1.394-0.178 1.92-0.533zM97.13 24.043c-1.095 0-2.062-0.135-2.901-0.405-0.839-0.284-1.55-0.704-2.133-1.259-0.569-0.555-1.003-1.244-1.301-2.069-0.285-0.839-0.427-1.806-0.427-2.901v-6.848c0-0.654 0.171-1.145 0.512-1.472 0.341-0.341 0.825-0.512 1.451-0.512 0.64 0 1.123 0.171 1.451 0.512 0.341 0.327 0.512 0.818 0.512 1.472v6.891c0 1.095 0.242 1.92 0.725 2.475s1.187 0.832 2.112 0.832c0.91 0 1.607-0.277 2.091-0.832s0.725-1.38 0.725-2.475v-6.891c0-0.654 0.163-1.145 0.491-1.472 0.341-0.341 0.825-0.512 1.451-0.512s1.102 0.171 1.429 0.512c0.327 0.327 0.491 0.818 0.491 1.472v6.848c0 1.465-0.256 2.695-0.768 3.691-0.498 0.981-1.245 1.721-2.24 2.219-0.996 0.484-2.219 0.725-3.669 0.725zM106.944 23.488c-0.341-0.356-0.512-0.846-0.512-1.472v-11.264c0-0.64 0.171-1.131 0.512-1.472 0.356-0.341 0.846-0.512 1.472-0.512h5.248c1.707 0 3.022 0.42 3.947 1.259 0.939 0.825 1.408 1.977 1.408 3.456 0 0.953-0.213 1.785-0.64 2.496-0.412 0.697-1.017 1.237-1.813 1.621-0.247 0.117-0.513 0.215-0.798 0.295 0.253 0.074 0.491 0.182 0.713 0.323 0.469 0.284 0.861 0.725 1.173 1.323l1.067 1.92c0.228 0.412 0.334 0.818 0.32 1.216-0.014 0.384-0.171 0.704-0.469 0.96-0.284 0.242-0.704 0.363-1.259 0.363s-1.010-0.114-1.365-0.341c-0.341-0.228-0.647-0.583-0.917-1.067l-1.941-3.563c-0.171-0.313-0.391-0.526-0.661-0.64-0.256-0.128-0.555-0.192-0.896-0.192h-1.173v3.819c0 0.626-0.163 1.116-0.491 1.472-0.327 0.341-0.818 0.512-1.472 0.512-0.626 0-1.109-0.171-1.451-0.512zM112.96 15.424c0.754 0 1.33-0.149 1.728-0.448s0.597-0.761 0.597-1.387c0-0.597-0.199-1.045-0.597-1.344-0.398-0.313-0.974-0.469-1.728-0.469h-2.603v3.648h2.603zM127.001 24.043c-0.569 0-1.166-0.043-1.792-0.128-0.611-0.071-1.195-0.185-1.749-0.341s-1.052-0.341-1.493-0.555c-0.384-0.185-0.654-0.427-0.811-0.725-0.156-0.313-0.213-0.64-0.171-0.981s0.164-0.64 0.363-0.896c0.199-0.27 0.462-0.448 0.789-0.533 0.327-0.1 0.697-0.057 1.109 0.128 0.541 0.256 1.152 0.455 1.835 0.597s1.323 0.213 1.92 0.213c0.939 0 1.593-0.121 1.963-0.363 0.384-0.256 0.576-0.569 0.576-0.939 0-0.327-0.135-0.59-0.405-0.789-0.256-0.199-0.718-0.37-1.387-0.512l-2.496-0.533c-1.365-0.284-2.382-0.782-3.051-1.493s-1.003-1.628-1.003-2.752c0-0.74 0.149-1.408 0.448-2.005 0.313-0.612 0.747-1.131 1.301-1.557 0.569-0.427 1.237-0.754 2.005-0.981 0.782-0.242 1.65-0.363 2.603-0.363 0.74 0 1.486 0.085 2.24 0.256 0.768 0.156 1.429 0.398 1.984 0.725 0.327 0.171 0.562 0.405 0.704 0.704s0.199 0.612 0.171 0.939c-0.028 0.313-0.142 0.59-0.341 0.832-0.185 0.242-0.441 0.405-0.768 0.491-0.313 0.071-0.69 0.014-1.131-0.171-0.412-0.185-0.882-0.32-1.408-0.405-0.512-0.1-1.010-0.149-1.493-0.149-0.526 0-0.974 0.064-1.344 0.192-0.37 0.114-0.654 0.284-0.853 0.512-0.185 0.228-0.277 0.491-0.277 0.789s0.121 0.555 0.363 0.768c0.256 0.199 0.718 0.37 1.387 0.512l2.475 0.533c1.38 0.299 2.411 0.789 3.093 1.472s1.024 1.572 1.024 2.667c0 0.74-0.149 1.408-0.448 2.005s-0.725 1.109-1.28 1.536c-0.555 0.412-1.223 0.732-2.005 0.96s-1.664 0.341-2.645 0.341zM135.819 23.296c-0.341-0.356-0.512-0.86-0.512-1.515v-10.987c0-0.654 0.171-1.152 0.512-1.493 0.356-0.356 0.868-0.533 1.536-0.533h7.232c0.512 0 0.896 0.128 1.152 0.384s0.384 0.626 0.384 1.109c0 0.498-0.128 0.882-0.384 1.152-0.256 0.256-0.64 0.384-1.152 0.384h-5.525v2.859h5.056c0.498 0 0.875 0.128 1.131 0.384 0.27 0.256 0.405 0.633 0.405 1.131s-0.135 0.875-0.405 1.131c-0.256 0.256-0.633 0.384-1.131 0.384h-5.056v3.093h5.525c0.512 0 0.896 0.135 1.152 0.405 0.256 0.256 0.384 0.626 0.384 1.109 0 0.498-0.128 0.875-0.384 1.131s-0.64 0.384-1.152 0.384h-7.232c-0.668 0-1.18-0.171-1.536-0.512z"></path>
</svg>
