<!-- Generated by IcoMoon.io -->
<svg version="1.1" xmlns="http://www.w3.org/2000/svg" width="175" height="32" viewBox="0 0 175 32">
<path d="M166.4 0c4.713 0 8.533 3.821 8.533 8.533v23.467h-166.4c-4.713 0-8.533-3.821-8.533-8.533v-23.467h166.4zM20.267 11.733v-2.133c0-2.987-2.347-5.333-5.333-5.333s-5.333 2.347-5.333 5.333v2.133c-1.813 0-3.2 1.387-3.2 3.2v7.467c0 1.813 1.387 3.2 3.2 3.2h10.667c1.813 0 3.2-1.387 3.2-3.2v-7.467c0-1.813-1.387-3.2-3.2-3.2zM11.733 9.6v2.133h6.4v-2.133c0-1.813-1.387-3.2-3.2-3.2s-3.2 1.387-3.2 3.2zM16 20.267v-3.2c0-0.64-0.427-1.067-1.067-1.067s-1.067 0.427-1.067 1.067v3.2c0 0.64 0.427 1.067 1.067 1.067s1.067-0.427 1.067-1.067zM68.155 24.043c0.981 0 1.863-0.114 2.645-0.341s1.451-0.548 2.005-0.96c0.555-0.427 0.981-0.939 1.28-1.536s0.448-1.266 0.448-2.005c0-1.095-0.341-1.984-1.024-2.667s-1.714-1.173-3.093-1.472l-2.475-0.533c-0.668-0.142-1.131-0.313-1.387-0.512-0.242-0.213-0.363-0.469-0.363-0.768s0.093-0.562 0.277-0.789c0.199-0.228 0.484-0.398 0.853-0.512 0.37-0.128 0.818-0.192 1.344-0.192 0.484 0 0.981 0.050 1.493 0.149 0.526 0.085 0.996 0.22 1.408 0.405 0.441 0.185 0.818 0.242 1.131 0.171 0.327-0.085 0.583-0.249 0.768-0.491 0.199-0.242 0.313-0.519 0.341-0.832 0.029-0.327-0.028-0.64-0.171-0.939s-0.377-0.533-0.704-0.704c-0.555-0.327-1.216-0.569-1.984-0.725-0.754-0.171-1.5-0.256-2.24-0.256-0.953 0-1.82 0.121-2.603 0.363-0.768 0.228-1.436 0.555-2.005 0.981-0.555 0.427-0.988 0.946-1.301 1.557-0.299 0.597-0.448 1.266-0.448 2.005 0 1.124 0.334 2.041 1.003 2.752s1.685 1.209 3.051 1.493l2.496 0.533c0.669 0.142 1.131 0.313 1.387 0.512 0.27 0.199 0.405 0.462 0.405 0.789 0 0.37-0.192 0.683-0.576 0.939-0.37 0.242-1.024 0.363-1.963 0.363-0.597 0-1.237-0.071-1.92-0.213s-1.294-0.341-1.835-0.597c-0.412-0.185-0.782-0.228-1.109-0.128-0.327 0.085-0.59 0.263-0.789 0.533-0.199 0.256-0.32 0.555-0.363 0.896s0.014 0.668 0.171 0.981c0.157 0.299 0.427 0.54 0.811 0.725 0.441 0.213 0.939 0.398 1.493 0.555s1.138 0.27 1.749 0.341c0.626 0.085 1.223 0.128 1.792 0.128zM44.202 23.531c0.313 0.313 0.754 0.469 1.323 0.469 0.583 0 1.024-0.156 1.322-0.469s0.448-0.754 0.448-1.323v-6.509l2.966 5.144c0.185 0.313 0.391 0.548 0.618 0.704s0.519 0.235 0.875 0.235c0.37 0 0.661-0.078 0.874-0.235 0.228-0.156 0.441-0.391 0.64-0.704l2.987-5.194v6.56c0 0.569 0.149 1.010 0.448 1.323 0.313 0.313 0.754 0.469 1.323 0.469 0.583 0 1.024-0.156 1.323-0.469s0.448-0.754 0.448-1.323v-11.84c0-0.583-0.157-1.024-0.469-1.323-0.299-0.313-0.733-0.469-1.302-0.469-0.498 0-0.896 0.1-1.195 0.299-0.284 0.185-0.555 0.498-0.81 0.939l-4.193 7.563-4.212-7.563c-0.242-0.441-0.512-0.754-0.811-0.939-0.284-0.199-0.675-0.299-1.173-0.299-0.597 0-1.059 0.156-1.387 0.469-0.327 0.299-0.49 0.74-0.49 1.323v11.84c0 0.569 0.149 1.010 0.448 1.323zM31.744 23.296c0.356 0.341 0.846 0.512 1.472 0.512h7.147c0.541 0 0.953-0.142 1.237-0.427 0.299-0.284 0.448-0.69 0.448-1.216s-0.149-0.924-0.448-1.195c-0.284-0.284-0.697-0.427-1.237-0.427h-5.205v-9.813c0-0.64-0.171-1.131-0.512-1.472-0.327-0.341-0.811-0.512-1.451-0.512-0.626 0-1.109 0.171-1.451 0.512s-0.512 0.832-0.512 1.472v11.093c0 0.626 0.171 1.116 0.512 1.472zM85.872 23.083c1.195 0.64 2.624 0.96 4.288 0.96 0.725 0 1.451-0.085 2.176-0.256 0.74-0.171 1.358-0.405 1.856-0.704 0.37-0.199 0.626-0.462 0.768-0.789 0.157-0.327 0.206-0.654 0.149-0.981-0.057-0.341-0.192-0.64-0.405-0.896-0.199-0.256-0.469-0.427-0.811-0.512-0.327-0.085-0.704-0.036-1.131 0.149-0.412 0.199-0.832 0.348-1.259 0.448-0.427 0.085-0.825 0.128-1.195 0.128-0.882 0-1.621-0.164-2.219-0.491-0.583-0.341-1.024-0.832-1.323-1.472-0.299-0.654-0.448-1.451-0.448-2.389s0.149-1.728 0.448-2.368c0.299-0.64 0.74-1.124 1.323-1.451 0.597-0.341 1.337-0.512 2.219-0.512 0.455 0 0.889 0.057 1.301 0.171 0.427 0.1 0.853 0.249 1.28 0.448 0.37 0.185 0.711 0.235 1.024 0.149 0.313-0.1 0.569-0.284 0.768-0.555s0.32-0.576 0.363-0.917c0.057-0.341 0.007-0.676-0.149-1.003s-0.434-0.597-0.832-0.811c-0.54-0.299-1.166-0.519-1.877-0.661-0.697-0.156-1.372-0.235-2.027-0.235-1.237 0-2.354 0.185-3.349 0.555-0.981 0.356-1.82 0.875-2.517 1.557-0.683 0.683-1.209 1.5-1.579 2.453-0.355 0.953-0.533 2.012-0.533 3.179 0 1.564 0.313 2.93 0.939 4.096 0.64 1.166 1.557 2.069 2.752 2.709zM103.986 24.043c1.138 0 2.176-0.178 3.115-0.533 0.939-0.37 1.742-0.896 2.411-1.579 0.683-0.697 1.202-1.522 1.557-2.475 0.37-0.953 0.555-2.012 0.555-3.179 0-1.564-0.32-2.923-0.96-4.075-0.64-1.166-1.536-2.069-2.688-2.709-1.138-0.64-2.468-0.96-3.989-0.96-1.138 0-2.176 0.185-3.115 0.555-0.939 0.356-1.749 0.875-2.432 1.557-0.669 0.683-1.188 1.5-1.557 2.453-0.356 0.953-0.533 2.012-0.533 3.179 0 1.55 0.313 2.908 0.939 4.075 0.64 1.166 1.536 2.076 2.688 2.731 1.152 0.64 2.489 0.96 4.011 0.96zM103.986 20.757c-1.124 0-1.998-0.391-2.624-1.173-0.626-0.796-0.939-1.899-0.939-3.307 0-0.953 0.142-1.756 0.427-2.411 0.284-0.668 0.69-1.173 1.216-1.515 0.54-0.356 1.18-0.533 1.92-0.533 1.123 0 1.998 0.391 2.624 1.173s0.939 1.877 0.939 3.285c0 0.939-0.142 1.742-0.427 2.411s-0.69 1.18-1.216 1.536c-0.526 0.356-1.166 0.533-1.92 0.533zM117.695 23.637c0.839 0.27 1.806 0.405 2.901 0.405 1.451 0 2.674-0.242 3.669-0.725 0.995-0.498 1.742-1.237 2.24-2.219 0.512-0.996 0.768-2.226 0.768-3.691v-6.848c0-0.654-0.164-1.145-0.491-1.472-0.327-0.341-0.804-0.512-1.429-0.512s-1.109 0.171-1.451 0.512c-0.327 0.327-0.491 0.818-0.491 1.472v6.891c0 1.095-0.242 1.92-0.725 2.475s-1.181 0.832-2.091 0.832c-0.925 0-1.629-0.277-2.112-0.832s-0.725-1.38-0.725-2.475v-6.891c0-0.654-0.171-1.145-0.512-1.472-0.327-0.341-0.811-0.512-1.451-0.512-0.626 0-1.109 0.171-1.451 0.512-0.341 0.327-0.512 0.818-0.512 1.472v6.848c0 1.095 0.142 2.062 0.427 2.901 0.299 0.825 0.732 1.515 1.301 2.069 0.583 0.555 1.294 0.974 2.133 1.259zM131.862 24c0.654 0 1.145-0.171 1.472-0.512 0.327-0.356 0.491-0.846 0.491-1.472v-3.819h1.173c0.341 0 0.64 0.064 0.896 0.192 0.27 0.114 0.491 0.327 0.661 0.64l1.941 3.563c0.27 0.484 0.576 0.839 0.917 1.067 0.356 0.228 0.811 0.341 1.365 0.341s0.974-0.121 1.259-0.363c0.299-0.256 0.455-0.576 0.469-0.96 0.014-0.398-0.092-0.804-0.32-1.216l-1.067-1.92c-0.313-0.597-0.704-1.038-1.173-1.323-0.222-0.141-0.459-0.249-0.713-0.323 0.285-0.080 0.55-0.178 0.798-0.295 0.797-0.384 1.401-0.924 1.813-1.621 0.427-0.711 0.64-1.543 0.64-2.496 0-1.479-0.469-2.631-1.408-3.456-0.924-0.839-2.24-1.259-3.947-1.259h-5.248c-0.626 0-1.116 0.171-1.472 0.512-0.341 0.341-0.512 0.832-0.512 1.472v11.264c0 0.626 0.171 1.116 0.512 1.472 0.341 0.341 0.825 0.512 1.451 0.512zM133.824 15.424v-3.648h2.603c0.754 0 1.33 0.156 1.728 0.469 0.398 0.299 0.597 0.747 0.597 1.344 0 0.626-0.199 1.088-0.597 1.387s-0.974 0.448-1.728 0.448h-2.603zM148.675 23.915c0.626 0.085 1.223 0.128 1.792 0.128 0.981 0 1.863-0.114 2.645-0.341s1.451-0.548 2.005-0.96c0.555-0.427 0.981-0.939 1.28-1.536s0.448-1.266 0.448-2.005c0-1.095-0.341-1.984-1.024-2.667s-1.714-1.173-3.093-1.472l-2.475-0.533c-0.668-0.142-1.131-0.313-1.387-0.512-0.242-0.213-0.363-0.469-0.363-0.768s0.093-0.562 0.277-0.789c0.199-0.228 0.484-0.398 0.853-0.512 0.37-0.128 0.818-0.192 1.344-0.192 0.484 0 0.981 0.050 1.493 0.149 0.526 0.085 0.996 0.22 1.408 0.405 0.441 0.185 0.818 0.242 1.131 0.171 0.327-0.085 0.583-0.249 0.768-0.491 0.199-0.242 0.313-0.519 0.341-0.832 0.028-0.327-0.028-0.64-0.171-0.939s-0.377-0.533-0.704-0.704c-0.555-0.327-1.216-0.569-1.984-0.725-0.754-0.171-1.5-0.256-2.24-0.256-0.953 0-1.82 0.121-2.603 0.363-0.768 0.228-1.436 0.555-2.005 0.981-0.555 0.427-0.988 0.946-1.301 1.557-0.299 0.597-0.448 1.266-0.448 2.005 0 1.124 0.334 2.041 1.003 2.752s1.685 1.209 3.051 1.493l2.496 0.533c0.668 0.142 1.131 0.313 1.387 0.512 0.27 0.199 0.405 0.462 0.405 0.789 0 0.37-0.192 0.683-0.576 0.939-0.37 0.242-1.024 0.363-1.963 0.363-0.597 0-1.237-0.071-1.92-0.213s-1.294-0.341-1.835-0.597c-0.412-0.185-0.782-0.228-1.109-0.128-0.327 0.085-0.59 0.263-0.789 0.533-0.199 0.256-0.32 0.555-0.363 0.896s0.014 0.668 0.171 0.981c0.157 0.299 0.427 0.54 0.811 0.725 0.441 0.213 0.939 0.398 1.493 0.555s1.138 0.27 1.749 0.341zM160.822 23.808h7.232c0.512 0 0.896-0.128 1.152-0.384s0.384-0.633 0.384-1.131c0-0.484-0.128-0.853-0.384-1.109-0.256-0.27-0.64-0.405-1.152-0.405h-5.525v-3.093h5.056c0.498 0 0.875-0.128 1.131-0.384 0.27-0.256 0.405-0.633 0.405-1.131s-0.135-0.875-0.405-1.131c-0.256-0.256-0.633-0.384-1.131-0.384h-5.056v-2.859h5.525c0.512 0 0.896-0.128 1.152-0.384 0.256-0.27 0.384-0.654 0.384-1.152 0-0.484-0.128-0.853-0.384-1.109s-0.64-0.384-1.152-0.384h-7.232c-0.668 0-1.18 0.178-1.536 0.533-0.341 0.341-0.512 0.839-0.512 1.493v10.987c0 0.654 0.171 1.159 0.512 1.515 0.356 0.341 0.868 0.512 1.536 0.512z"></path>
</svg>
