<!-- Generated by IcoMoon.io -->
<svg version="1.1" xmlns="http://www.w3.org/2000/svg" width="32" height="32" viewBox="0 0 32 32">
<path d="M27.315 4.685c-2.896-2.895-6.896-4.686-11.315-4.686-8.839 0-16.004 7.165-16.004 16.004s7.165 16.004 16.004 16.004c8.839 0 16.004-7.165 16.004-16.004 0-0.001 0-0.002 0-0.003v0c0-0.012 0-0.027 0-0.041 0-4.406-1.792-8.394-4.688-11.274l-0.001-0.001zM23.502 6.873l0.703-2.923c2.798 1.927 4.866 4.738 5.815 8.024l0.026 0.103-0.369 0.071c-0.553 0.111-0.986 0.526-1.123 1.060l-0.002 0.010-0.143 0.576c-0.002 0.009-0.010 0.015-0.020 0.015-0.005 0-0.009-0.002-0.013-0.004l0 0-0.854-0.64c-0.239-0.18-0.54-0.288-0.867-0.288-0.244 0-0.474 0.060-0.676 0.167l0.008-0.004-1.066 0.558c-0.463 0.246-0.774 0.726-0.774 1.279 0 0.615 0.385 1.14 0.926 1.348l0.010 0.003 0.050 0.019c0.007 0.002 0.012 0.007 0.013 0.014v0c0.001 0.002 0.001 0.004 0.001 0.006 0 0.005-0.002 0.010-0.005 0.013v0l-0.664 0.763c-0.004 0.004-0.009 0.007-0.016 0.007-0.004 0-0.008-0.001-0.011-0.003l0 0-1.789-1.155c-0.221-0.144-0.492-0.23-0.782-0.23-0.715 0-1.308 0.52-1.423 1.201l-0.001 0.008-0.138 0.844c-0.012 0.070-0.019 0.151-0.019 0.234 0 0.415 0.175 0.789 0.456 1.052l0.001 0.001 0.933 0.875c0.003 0.003 0.005 0.008 0.005 0.013s-0.002 0.009-0.005 0.013l0-0-1.521 2.306c-0.139 0.208-0.225 0.461-0.237 0.733l-0 0.003-0.132 3.301c-0.001 0.005-0.003 0.010-0.006 0.014l0-0-2.025 1.985c-0.003 0.003-0.008 0.004-0.012 0.004s-0.009-0.002-0.013-0.004l0 0-1.313-0.769c-0.005-0.003-0.009-0.007-0.010-0.013l-0-0s-0.637-2.891-0.661-2.955l-0.579-1.555c-0.197-0.514-0.663-0.882-1.221-0.934l-0.006-0-2.651-0.23c-0.007-0.001-0.013-0.005-0.016-0.011l-0-0-1.508-2.6c-0.001-0.002-0.001-0.004-0.001-0.007s0-0.005 0.001-0.007l-0 0 0.379-2.522c0.001-0.006 0.003-0.010 0.007-0.014l0-0 2.313-1.747c0.003-0.002 0.007-0.003 0.010-0.003s0.007 0.001 0.010 0.003l-0-0 2.244 0.938c0.117 0.050 0.252 0.086 0.393 0.102l0.006 0.001 3.107 0.338c0.047 0.006 0.102 0.009 0.157 0.009 0.315 0 0.607-0.101 0.844-0.273l-0.004 0.003 2.059-1.476c0.366-0.266 0.601-0.693 0.601-1.174 0-0.212-0.046-0.414-0.128-0.596l0.004 0.009-0.191-0.428c-0.219-0.485-0.686-0.823-1.235-0.853l-0.004-0-5.782-0.316c-0.001 0-0.003 0.001-0.004 0.001s-0.003-0-0.004-0.001l0 0c-0.004-0.002-0.007-0.004-0.009-0.006l0 0c-0.002-0.004-0.002-0.009-0.002-0.014s0.001-0.010 0.002-0.014l-0 0c0.003-0.002 0.007-0.004 0.012-0.004l0-0 1.735-0.468c0.24-0.066 0.447-0.185 0.616-0.345l-0.001 0.001 2.125-2c0.003-0.003 0.008-0.005 0.012-0.006h0l3.195-0.329c0.617-0.066 1.113-0.512 1.254-1.097l0.002-0.010zM12.68 5.699l1.194-2.251c0.119-0.22 0.189-0.483 0.189-0.761 0-0.115-0.012-0.228-0.035-0.336l0.002 0.011-0.162-0.79c0.643-0.1 1.386-0.158 2.141-0.158s1.498 0.057 2.222 0.168l-0.081-0.010c-0.063 0.071-0.129 0.136-0.198 0.197l-0.003 0.002-1.688 0.678c-0.249 0.102-0.458 0.256-0.623 0.449l-0.002 0.002-2.636 3.080c-0.035 0.041-0.086 0.067-0.143 0.070l-0 0c-0.003 0-0.006 0-0.009 0-0.060 0-0.114-0.027-0.15-0.069l-0-0c-0.030-0.044-0.048-0.098-0.048-0.157 0-0.044 0.010-0.086 0.029-0.124l-0.001 0.002zM6.463 4.978v2.134c0 0.001 0 0.002 0 0.003 0 0.612-0.315 1.15-0.792 1.462l-0.007 0.004-1.532 0.994c-0.356 0.233-0.654 0.525-0.887 0.864l-0.007 0.011-1.39 2.037c0.768-3.016 2.392-5.579 4.595-7.493l0.018-0.015zM7.393 25.975l-0.202 1.634c-2.27-1.737-3.998-4.077-4.953-6.782l-0.032-0.102h0.905c0 0 0 0 0 0 0.114 0 0.215 0.059 0.272 0.148l0.001 0.001 1.83 2.852c0.086 0.131 0.182 0.245 0.291 0.346l0.001 0.001 1.78 1.625c0.065 0.060 0.105 0.146 0.105 0.241 0 0.014-0.001 0.027-0.002 0.040l0-0.002zM16 30.581c-0.005 0-0.011 0-0.017 0-2.759 0-5.339-0.771-7.534-2.11l0.064 0.036 0.291-2.356c0.008-0.064 0.013-0.137 0.013-0.212 0-0.511-0.219-0.971-0.569-1.291l-0.001-0.001s-1.819-1.664-1.835-1.688l-1.83-2.851c-0.314-0.486-0.853-0.804-1.466-0.804-0.001 0-0.003 0-0.004 0h-1.313c-0.238-0.987-0.375-2.12-0.375-3.284 0-0.006 0-0.013 0-0.019v0.001c0-0.125 0-0.246 0.005-0.368l2.989-4.38c0.133-0.194 0.297-0.355 0.487-0.48l0.007-0.004 1.53-0.993c0.877-0.572 1.448-1.547 1.448-2.657 0-0.002 0-0.004 0-0.006v0-3.222c1.314-0.896 2.844-1.598 4.487-2.019l0.101-0.022 0.164 0.801c0.003 0.012 0.004 0.026 0.004 0.040 0 0.034-0.008 0.066-0.023 0.094l0.001-0.001-1.195 2.251c-0.062 0.14-0.12 0.31-0.166 0.485l-0.005 0.025c-0.019 0.094-0.030 0.202-0.030 0.313 0 0.896 0.725 1.622 1.62 1.625h0c0.492-0.001 0.934-0.22 1.232-0.565l0.002-0.002 2.635-3.081c0.021-0.024 0.047-0.043 0.076-0.055l0.001-0.001 1.688-0.678c0.248-0.102 0.458-0.255 0.623-0.446l0.002-0.002 0.638-0.742c1.217 0.329 2.279 0.763 3.271 1.31l-0.075-0.038c-0.017 0.038-0.822 3.364-0.822 3.364-0.002 0.008-0.009 0.015-0.017 0.016h-0l-3.195 0.329c-0.329 0.035-0.62 0.176-0.843 0.387l0.001-0.001-2.122 2c-0.002 0.002-0.005 0.004-0.009 0.005l-0 0-1.736 0.467c-0.62 0.171-1.068 0.73-1.068 1.394 0 0.77 0.602 1.398 1.361 1.441l0.004 0 5.781 0.317c0 0 0 0 0 0 0.008 0 0.015 0.005 0.017 0.012l0 0 0.191 0.428c0.001 0.002 0.002 0.005 0.002 0.008 0 0.007-0.003 0.013-0.009 0.017l-0 0-2.059 1.475c-0.003 0.002-0.007 0.004-0.012 0.004-0.001 0-0.002-0-0.003-0h0l-3.113-0.339-2.243-0.938c-0.163-0.069-0.353-0.109-0.552-0.109-0.328 0-0.631 0.109-0.874 0.293l0.004-0.003-2.313 1.747c-0.295 0.223-0.499 0.552-0.557 0.93l-0.001 0.008-0.379 2.522c-0.010 0.064-0.016 0.138-0.016 0.213 0 0.267 0.072 0.517 0.198 0.731l-0.004-0.007 1.508 2.601c0.234 0.398 0.644 0.671 1.12 0.713l0.006 0 2.651 0.23c0.008 0.001 0.015 0.006 0.017 0.014l0 0 0.58 1.557 0.603 2.76c0.091 0.402 0.338 0.734 0.674 0.934l0.007 0.004 1.313 0.77c0.209 0.124 0.46 0.198 0.729 0.198 0.394 0 0.75-0.157 1.011-0.413l-0 0 2.025-1.985c0.254-0.249 0.416-0.591 0.431-0.971l0-0.003 0.133-3.3c-0-0.002-0.001-0.004-0.001-0.006s0-0.004 0.001-0.006l-0 0 1.517-2.304c0.15-0.224 0.24-0.499 0.24-0.795 0-0.416-0.176-0.79-0.458-1.052l-0.001-0.001-0.933-0.875c-0.004-0.004-0.006-0.009-0.006-0.015 0-0.001 0-0.002 0-0.003v0l0.138-0.844c0-0.007 0.005-0.014 0.012-0.016l0-0c0.003-0.002 0.006-0.003 0.010-0.003s0.007 0.001 0.010 0.003l-0-0 1.789 1.155c0.221 0.143 0.491 0.228 0.781 0.228 0.434 0 0.823-0.19 1.089-0.492l0.001-0.002 0.664-0.763c0.22-0.252 0.354-0.584 0.354-0.947 0-0.615-0.385-1.14-0.926-1.348l-0.010-0.003-0.051-0.019-0.010-0.005c-0.001-0.004-0.002-0.008-0.002-0.013s0.001-0.009 0.002-0.013l-0 0 0.009-0.007 1.063-0.558c0.003-0.002 0.007-0.003 0.011-0.003s0.008 0.001 0.011 0.003l-0-0 0.854 0.64c0.238 0.18 0.539 0.289 0.866 0.289 0.674 0 1.239-0.462 1.398-1.086l0.002-0.010 0.143-0.576c0.002-0.008 0.008-0.014 0.016-0.016l0-0 0.416-0.080c0.141 0.762 0.222 1.638 0.222 2.534 0 8.054-6.527 14.583-14.581 14.585h-0z"></path>
</svg>
