<!-- Generated by IcoMoon.io -->
<svg version="1.1" xmlns="http://www.w3.org/2000/svg" width="32" height="32" viewBox="0 0 32 32">
<path d="M31.131 0.869c-0.556-0.556-1.309-0.868-2.094-0.869h-26.074c-0.786 0.001-1.539 0.313-2.094 0.869s-0.868 1.309-0.869 2.094v26.074c0.001 0.786 0.313 1.539 0.869 2.094s1.309 0.868 2.094 0.869h26.074c0.786-0.001 1.539-0.314 2.094-0.869s0.868-1.309 0.869-2.094v-26.074c-0.001-0.786-0.314-1.539-0.869-2.094zM24.097 23.769c-0.13 0.195-0.316 0.347-0.532 0.436s-0.455 0.113-0.685 0.067-0.441-0.159-0.607-0.324c-0.166-0.166-0.279-0.377-0.324-0.607s-0.023-0.468 0.067-0.685c0.089-0.217 0.242-0.402 0.436-0.532s0.424-0.2 0.659-0.2c0.314 0 0.616 0.125 0.838 0.347s0.347 0.524 0.347 0.838c0 0.234-0.069 0.464-0.199 0.658zM24.369 26.002c0.333 0.333 0.521 0.786 0.521 1.257h-3.556c0-0.471 0.188-0.924 0.521-1.257s0.786-0.521 1.257-0.521 0.924 0.188 1.257 0.521zM10.146 26.002c0.333 0.333 0.521 0.786 0.521 1.257h-3.556c0-0.471 0.188-0.924 0.521-1.257s0.786-0.521 1.257-0.521 0.924 0.188 1.257 0.521zM7.794 22.657c0.090-0.217 0.242-0.402 0.436-0.532s0.424-0.2 0.658-0.2c0.314 0 0.616 0.125 0.838 0.347s0.347 0.524 0.347 0.838c0 0.234-0.069 0.464-0.2 0.658s-0.315 0.347-0.532 0.436c-0.216 0.090-0.455 0.113-0.685 0.067s-0.441-0.159-0.607-0.324c-0.166-0.166-0.279-0.377-0.324-0.607s-0.022-0.468 0.067-0.685zM17.593 17.777h-2.292v-3.594h0.756v2.975h1.536v0.619zM15.408 8.269c-1.692 0.128-3.232 0.799-4.447 1.839-0.031-0.057-0.065-0.113-0.101-0.166-0.261-0.39-0.631-0.694-1.064-0.873s-0.909-0.226-1.369-0.135-0.882 0.318-1.214 0.649c-0.331 0.331-0.558 0.754-0.649 1.214s-0.044 0.936 0.135 1.369c0.123 0.296 0.304 0.564 0.531 0.786-0.156 0.105-0.302 0.226-0.436 0.36-0.556 0.556-0.868 1.309-0.868 2.095v0.592c0 0.157 0.063 0.308 0.174 0.419s0.262 0.174 0.419 0.174h1.751c0.031 0.404 0.092 0.801 0.182 1.185h-7.268v-10.666h14.223v1.159zM7.111 15.408c0-0.471 0.188-0.924 0.521-1.257 0.267-0.267 0.61-0.44 0.978-0.498-0.178 0.56-0.294 1.148-0.34 1.756h-1.159zM9.121 12.421c-0.076 0.015-0.154 0.023-0.232 0.023h-0.001c-0.077 0-0.154-0.008-0.231-0.023-0.23-0.046-0.441-0.159-0.607-0.324s-0.279-0.377-0.324-0.607c-0.046-0.23-0.022-0.468 0.067-0.685s0.242-0.402 0.436-0.532c0.195-0.13 0.424-0.2 0.658-0.2 0.314 0 0.616 0.125 0.838 0.347 0.167 0.167 0.279 0.379 0.324 0.607-0.357 0.428-0.67 0.894-0.93 1.393zM11.853 17.631c-0.293-0.166-0.524-0.392-0.693-0.678-0.166-0.286-0.249-0.604-0.249-0.956s0.083-0.67 0.249-0.956c0.169-0.286 0.4-0.511 0.693-0.673 0.296-0.162 0.624-0.244 0.985-0.244s0.688 0.081 0.98 0.244c0.296 0.162 0.527 0.387 0.693 0.673 0.169 0.286 0.254 0.605 0.254 0.956s-0.084 0.669-0.254 0.956c-0.166 0.286-0.397 0.512-0.693 0.678-0.108 0.060-0.221 0.109-0.338 0.146h-1.286c-0.118-0.038-0.232-0.087-0.341-0.146zM17.968 17.777v-3.594h1.185c0.387 0 0.726 0.078 1.019 0.234 0.293 0.153 0.519 0.367 0.678 0.644 0.159 0.273 0.239 0.585 0.239 0.936s-0.079 0.665-0.239 0.941c-0.159 0.273-0.387 0.488-0.683 0.644-0.174 0.093-0.366 0.157-0.573 0.195h-1.627zM23.731 15.407c-0.046-0.607-0.162-1.195-0.34-1.756 0.368 0.059 0.711 0.231 0.977 0.498 0.333 0.334 0.521 0.786 0.521 1.257h-1.159zM24.097 11.917c-0.13 0.195-0.316 0.347-0.532 0.436s-0.455 0.113-0.685 0.068c0 0-0.001 0-0.001 0-0.26-0.498-0.572-0.965-0.929-1.393 0.015-0.076 0.037-0.151 0.067-0.224 0.090-0.217 0.242-0.402 0.437-0.532s0.424-0.2 0.658-0.2c0.314 0 0.616 0.125 0.838 0.347s0.347 0.524 0.347 0.838c0 0.234-0.069 0.464-0.2 0.658zM23.731 16.592h1.751c0.157 0 0.308-0.063 0.419-0.174s0.174-0.262 0.174-0.419v-0.592c0-0.786-0.312-1.539-0.868-2.095-0.135-0.135-0.281-0.255-0.437-0.36 0.006-0.006 0.012-0.011 0.018-0.017 0.444-0.444 0.694-1.047 0.694-1.676 0-0.469-0.139-0.927-0.399-1.317s-0.631-0.694-1.064-0.873-0.909-0.226-1.369-0.135-0.882 0.318-1.214 0.649c-0.157 0.157-0.289 0.334-0.395 0.526-1.215-1.040-2.755-1.712-4.447-1.839v-1.159h14.222v10.667h-7.267c0.090-0.385 0.152-0.781 0.183-1.185zM1.185 2.963c0-0.471 0.188-0.924 0.521-1.257s0.786-0.521 1.257-0.521h26.074c0.471 0 0.924 0.188 1.257 0.521s0.521 0.786 0.521 1.257v2.963h-29.629v-2.963zM1.706 30.294c-0.333-0.334-0.521-0.786-0.521-1.257v-10.074h7.649c0.331 0.799 0.791 1.53 1.354 2.168-0.124-0.081-0.254-0.152-0.393-0.209-0.433-0.179-0.909-0.226-1.369-0.135s-0.882 0.317-1.214 0.649c-0.331 0.331-0.558 0.754-0.649 1.214s-0.044 0.936 0.135 1.369c0.123 0.297 0.305 0.563 0.532 0.786-0.156 0.105-0.303 0.226-0.438 0.361-0.556 0.556-0.868 1.309-0.868 2.095v0.593c0 0.157 0.063 0.308 0.174 0.419s0.262 0.174 0.419 0.174h4.741c0.157 0 0.308-0.063 0.419-0.174s0.174-0.262 0.174-0.419v-0.593c0-0.786-0.312-1.539-0.868-2.095-0.135-0.135-0.281-0.255-0.437-0.36 0.006-0.006 0.012-0.011 0.018-0.017 0.444-0.444 0.694-1.047 0.694-1.676 0-0.461-0.135-0.912-0.387-1.297 1.228 1.084 2.802 1.786 4.536 1.916v7.084h-12.444c-0.471 0-0.924-0.188-1.257-0.521zM30.294 30.294c-0.333 0.333-0.786 0.521-1.257 0.521h-12.444v-7.084c1.734-0.131 3.308-0.832 4.536-1.918-0.166 0.253-0.283 0.536-0.343 0.836-0.091 0.46-0.044 0.936 0.135 1.369 0.123 0.297 0.306 0.563 0.532 0.786-0.156 0.105-0.303 0.226-0.438 0.361-0.556 0.556-0.868 1.309-0.868 2.095v0.593c0 0.157 0.063 0.308 0.174 0.419s0.262 0.174 0.419 0.174h4.741c0.157 0 0.308-0.063 0.419-0.174s0.174-0.262 0.174-0.419v-0.593c0-0.786-0.312-1.539-0.868-2.095-0.135-0.135-0.281-0.255-0.437-0.36 0.006-0.006 0.012-0.011 0.018-0.017 0.444-0.444 0.694-1.047 0.694-1.676 0-0.469-0.139-0.927-0.399-1.317s-0.631-0.694-1.064-0.873c-0.433-0.179-0.91-0.226-1.369-0.135-0.299 0.059-0.582 0.177-0.836 0.343 0.563-0.637 1.023-1.368 1.353-2.166h7.649v10.074c0 0.471-0.188 0.924-0.521 1.257z"></path>
<path d="M4.969 3.216c0.188 0.453-0.027 0.973-0.481 1.161s-0.973-0.027-1.161-0.481c-0.188-0.453 0.027-0.973 0.481-1.161s0.973 0.027 1.161 0.481z"></path>
<path d="M7.111 2.667c-0.491 0-0.889 0.398-0.889 0.889s0.398 0.889 0.889 0.889 0.889-0.398 0.889-0.889-0.398-0.889-0.889-0.889z"></path>
<path d="M10.963 3.556c0 0.491-0.398 0.889-0.889 0.889s-0.889-0.398-0.889-0.889c0-0.491 0.398-0.889 0.889-0.889s0.889 0.398 0.889 0.889z"></path>
<path d="M20.332 15.998c0-0.234-0.047-0.438-0.141-0.609-0.094-0.176-0.229-0.311-0.405-0.405s-0.381-0.141-0.614-0.141h-0.449v2.316h0.449c0.234 0 0.439-0.047 0.614-0.141s0.311-0.229 0.405-0.405 0.141-0.381 0.141-0.614z"></path>
<path d="M13.852 16.617c0.104-0.182 0.156-0.389 0.156-0.619s-0.052-0.436-0.156-0.614c-0.101-0.182-0.241-0.324-0.419-0.424-0.176-0.101-0.374-0.151-0.595-0.151s-0.421 0.051-0.6 0.151c-0.176 0.101-0.316 0.242-0.419 0.424-0.101 0.179-0.151 0.384-0.151 0.614s0.051 0.438 0.151 0.619c0.104 0.179 0.246 0.32 0.424 0.424 0.179 0.101 0.377 0.151 0.595 0.151s0.416-0.051 0.595-0.151c0.179-0.104 0.319-0.246 0.419-0.424z"></path>
</svg>
