<!-- Generated by IcoMoon.io -->
<svg version="1.1" xmlns="http://www.w3.org/2000/svg" width="32" height="32" viewBox="0 0 32 32">
<path d="M29.037 32h-26.074c-0.786-0.001-1.539-0.313-2.094-0.869s-0.868-1.309-0.869-2.094v-26.074c0.001-0.786 0.313-1.539 0.869-2.094s1.309-0.868 2.094-0.869h26.074c0.785 0.001 1.539 0.313 2.094 0.869s0.868 1.309 0.869 2.094v26.074c-0.001 0.785-0.313 1.539-0.869 2.094s-1.309 0.868-2.094 0.869v0zM2.963 1.185c-0.471 0-0.924 0.187-1.257 0.521s-0.521 0.786-0.521 1.257v26.074c0 0.471 0.187 0.924 0.521 1.257s0.786 0.521 1.257 0.521h26.074c0.471 0 0.924-0.187 1.257-0.521s0.521-0.786 0.521-1.257v-26.074c0-0.471-0.187-0.924-0.521-1.257s-0.786-0.521-1.257-0.521h-26.074z"></path>
<path d="M31.407 7.111h-30.815c-0.157 0-0.308-0.062-0.419-0.174s-0.174-0.262-0.174-0.419v-3.556c0.001-0.786 0.313-1.539 0.869-2.094s1.309-0.868 2.094-0.869h26.074c0.785 0.001 1.539 0.313 2.094 0.869s0.868 1.309 0.869 2.094v3.556c0 0.157-0.062 0.308-0.174 0.419s-0.262 0.174-0.419 0.174zM1.185 5.926h29.63v-2.963c0-0.471-0.187-0.924-0.521-1.257s-0.786-0.521-1.257-0.521h-26.074c-0.471 0-0.924 0.187-1.257 0.521s-0.521 0.786-0.521 1.257v2.963z"></path>
<path d="M4.148 4.444c0.491 0 0.889-0.398 0.889-0.889s-0.398-0.889-0.889-0.889c-0.491 0-0.889 0.398-0.889 0.889s0.398 0.889 0.889 0.889z"></path>
<path d="M7.111 4.444c0.491 0 0.889-0.398 0.889-0.889s-0.398-0.889-0.889-0.889c-0.491 0-0.889 0.398-0.889 0.889s0.398 0.889 0.889 0.889z"></path>
<path d="M10.074 4.444c0.491 0 0.889-0.398 0.889-0.889s-0.398-0.889-0.889-0.889c-0.491 0-0.889 0.398-0.889 0.889s0.398 0.889 0.889 0.889z"></path>
<path d="M3.875 11.438c0-0.69 0.56-1.25 1.25-1.25h8.75c0.69 0 1.25 0.56 1.25 1.25v5.75c0 0.69-0.56 1.25-1.25 1.25h-8.75c-0.69 0-1.25-0.56-1.25-1.25v-5.75zM13.875 11.438h-8.75v5.75h8.75v-5.75zM16.875 11.438c0-0.69 0.56-1.25 1.25-1.25h8.75c0.69 0 1.25 0.56 1.25 1.25v5.75c0 0.69-0.56 1.25-1.25 1.25h-8.75c-0.69 0-1.25-0.56-1.25-1.25v-5.75zM26.875 11.438h-8.75v5.75h8.75v-5.75zM3.875 21.438c0-0.69 0.56-1.25 1.25-1.25h8.75c0.69 0 1.25 0.56 1.25 1.25v5.75c0 0.69-0.56 1.25-1.25 1.25h-8.75c-0.69 0-1.25-0.56-1.25-1.25v-5.75zM13.875 21.438h-8.75v5.75h8.75v-5.75zM16.875 21.438c0-0.69 0.56-1.25 1.25-1.25h8.75c0.69 0 1.25 0.56 1.25 1.25v5.75c0 0.69-0.56 1.25-1.25 1.25h-8.75c-0.69 0-1.25-0.56-1.25-1.25v-5.75zM26.875 21.438h-8.75v5.75h8.75v-5.75z"></path>
</svg>
