<!-- Generated by IcoMoon.io -->
<svg version="1.1" xmlns="http://www.w3.org/2000/svg" width="32" height="32" viewBox="0 0 32 32">
<path d="M2.368 5.174c-0.553 0-1.005 0.451-1.005 1.009v19.067c0 0.558 0.451 1.009 1.005 1.009h22.833c0.553 0 1.005-0.451 1.005-1.009v-15.281h-0.869l-3.331 2.595c-0.188 0.147-0.444 0.173-0.659 0.069s-0.351-0.323-0.351-0.562v-2.185c-0.105-0.028-0.209-0.063-0.311-0.106-0.296-0.123-0.565-0.304-0.791-0.531s-0.405-0.497-0.527-0.794c-0.122-0.296-0.184-0.614-0.183-0.934v-2.348h-16.817zM0.113 6.183c0-1.244 1.006-2.259 2.255-2.259h17.442c0.345 0 0.625 0.28 0.625 0.625v2.976c-0 0.156 0.030 0.311 0.089 0.456s0.147 0.276 0.257 0.387c0.11 0.111 0.241 0.199 0.386 0.259s0.299 0.091 0.456 0.092c0.345 0.001 0.624 0.28 0.624 0.625v1.448l2.491-1.941c0.11-0.086 0.245-0.132 0.384-0.132h1.708c0.345 0 0.625 0.28 0.625 0.625v15.906c0 1.244-1.006 2.259-2.255 2.259h-22.833c-1.249 0-2.255-1.016-2.255-2.259v-19.067z"></path>
<path d="M6.883 21.236c0.043-3.785 3.11-6.846 6.897-6.846 3.795 0 6.868 3.059 6.912 6.846 0.002 0.167-0.063 0.328-0.18 0.447s-0.277 0.186-0.445 0.186h-12.559c-0.167 0-0.327-0.067-0.444-0.186s-0.182-0.28-0.181-0.447zM8.175 20.618h11.225c-0.343-2.806-2.727-4.978-5.62-4.978-2.883 0-5.263 2.17-5.605 4.978zM0.113 23.207c0-0.345 0.28-0.625 0.625-0.625h26.092c0.345 0 0.625 0.28 0.625 0.625v2.043c0 1.244-1.006 2.259-2.255 2.259h-6.272v1.812h2.196c0.345 0 0.625 0.28 0.625 0.625s-0.28 0.625-0.625 0.625h-14.676c-0.345 0-0.625-0.28-0.625-0.625s0.28-0.625 0.625-0.625h2.196v-1.812h-6.277c-1.249 0-2.255-1.016-2.255-2.259v-2.043zM25.201 26.26c0.553 0 1.005-0.451 1.005-1.009v-1.418h-24.842v1.418c0 0.558 0.451 1.009 1.005 1.009h22.833zM9.895 27.51v1.812h7.784v-1.812h-7.784z"></path>
<path d="M21.622 2.678c-0.659 0-1.192 0.533-1.192 1.192v3.658c0 0 0 0 0 0 0 0.316 0.126 0.619 0.349 0.843 0.22 0.22 0.517 0.353 0.843 0.353 0.345 0 0.625 0.28 0.625 0.625v1.448l2.491-1.941c0.11-0.086 0.245-0.132 0.384-0.132h4.322c0.657 0 1.192-0.535 1.192-1.197v-3.658c0-0.663-0.531-1.192-1.192-1.192h-7.823zM19.18 3.87c0-1.349 1.092-2.442 2.442-2.442h7.823c1.348 0 2.442 1.086 2.442 2.442v3.658c0 1.347-1.090 2.447-2.442 2.447h-4.108l-3.331 2.595c-0.188 0.147-0.444 0.173-0.659 0.069s-0.351-0.323-0.351-0.562v-2.184c-0.425-0.113-0.803-0.339-1.102-0.638l-0-0.001c-0.457-0.458-0.714-1.079-0.714-1.726v-3.658zM13.78 9.629c-1.304 0-2.368 1.069-2.368 2.388 0 1.308 1.058 2.378 2.368 2.378 1.314 0 2.383-1.074 2.383-2.378 0-1.319-1.074-2.388-2.383-2.388zM10.161 12.017c0-2 1.614-3.638 3.618-3.638 1.999 0 3.633 1.629 3.633 3.638 0 1.994-1.629 3.628-3.633 3.628-2.008 0-3.618-1.638-3.618-3.628zM12.411 24.807c0-0.345 0.28-0.625 0.625-0.625h1.497c0.345 0 0.625 0.28 0.625 0.625s-0.28 0.625-0.625 0.625h-1.497c-0.345 0-0.625-0.28-0.625-0.625z"></path>
</svg>
