<!-- Generated by IcoMoon.io -->
<svg version="1.1" xmlns="http://www.w3.org/2000/svg" width="35" height="32" viewBox="0 0 35 32">
<path d="M13.319 17.143c0.196 0.11 0.414 0.166 0.653 0.166s0.457-0.056 0.653-0.166c0.196-0.114 0.35-0.27 0.46-0.466 0.114-0.2 0.172-0.427 0.172-0.68s-0.057-0.478-0.172-0.675c-0.111-0.2-0.264-0.355-0.46-0.466-0.193-0.111-0.41-0.166-0.653-0.166s-0.463 0.056-0.659 0.166c-0.193 0.111-0.347 0.266-0.46 0.466-0.111 0.196-0.166 0.421-0.166 0.675s0.056 0.48 0.166 0.68c0.114 0.196 0.27 0.351 0.466 0.466z"></path>
<path d="M21.6 14.884c-0.193-0.104-0.418-0.155-0.675-0.155h-0.493v2.543h0.493c0.257 0 0.482-0.052 0.675-0.155s0.341-0.252 0.445-0.445 0.155-0.418 0.155-0.675-0.051-0.48-0.155-0.669c-0.104-0.193-0.252-0.341-0.445-0.445z"></path>
<path d="M14.189 26.356h1.644c0.379 0 0.686-0.307 0.686-0.686s-0.307-0.686-0.686-0.686h-1.644c-0.379 0-0.686 0.307-0.686 0.686s0.307 0.686 0.686 0.686z"></path>
<path d="M32.205 0h-8.589c-1.482 0-2.681 1.199-2.681 2.681v0.060h-18.46c-1.37 0-2.475 1.115-2.475 2.481v20.935c0 1.366 1.105 2.481 2.475 2.481h6.892v1.989h-2.411c-0.379 0-0.686 0.307-0.686 0.686s0.307 0.686 0.686 0.686h16.114c0.379 0 0.686-0.307 0.686-0.686s-0.307-0.686-0.686-0.686h-2.411v-1.989h6.887c1.371 0 2.475-1.115 2.475-2.481v-16.773h2.184c1.484 0 2.681-1.207 2.681-2.687v-4.016c0-1.488-1.2-2.681-2.681-2.681zM11.856 15.997c0-0.386 0.091-0.736 0.273-1.049 0.185-0.314 0.439-0.561 0.76-0.739 0.325-0.178 0.686-0.268 1.082-0.268s0.755 0.089 1.076 0.268c0.325 0.178 0.579 0.425 0.76 0.739 0.185 0.314 0.279 0.664 0.279 1.049s-0.093 0.735-0.279 1.049c-0.182 0.314-0.436 0.562-0.76 0.745-0.321 0.178-0.68 0.268-1.076 0.268s-0.757-0.089-1.082-0.268c-0.321-0.182-0.575-0.43-0.76-0.745-0.182-0.314-0.273-0.664-0.273-1.049zM19.191 17.994h-2.516v-3.989h0.83v3.266h1.687v0.723zM10.605 21.070h-1.755c0.090-0.735 0.307-1.429 0.627-2.062 0.281 0.742 0.662 1.436 1.127 2.062zM22.017 17.737c-0.321 0.172-0.692 0.257-1.114 0.257h-1.301v-3.989h1.301c0.425 0 0.797 0.086 1.119 0.257 0.321 0.168 0.57 0.403 0.745 0.707 0.175 0.3 0.262 0.642 0.262 1.028s-0.087 0.73-0.262 1.033c-0.175 0.3-0.425 0.535-0.749 0.707zM22.929 9.294v0.198c-0.158-0.133-0.32-0.261-0.487-0.382 0.154 0.076 0.318 0.138 0.487 0.183zM2.475 4.113h18.46v2.584c0 0.711 0.282 1.392 0.784 1.895v0c0.043 0.044 0.088 0.085 0.134 0.126-1.286-0.781-2.796-1.23-4.41-1.23-0.622 0-1.228 0.067-1.812 0.194-0.204-0.032-0.412-0.049-0.625-0.049-1.64 0-3.042 1-3.65 2.418-1.499 1.534-2.424 3.634-2.424 5.949 0 0.403 0.029 0.799 0.082 1.186-0.974 1.265-1.561 2.846-1.581 4.563-0.002 0.183 0.069 0.36 0.198 0.491s0.305 0.204 0.488 0.204h3.761c0.334 0.288 0.69 0.55 1.065 0.784h-11.572v-18.007c0-0.613 0.495-1.108 1.103-1.108zM19.287 30.628h-8.546v-1.989h8.546v1.989zM28.649 26.157c0 0.613-0.495 1.108-1.103 1.108h-25.071c-0.607 0-1.103-0.495-1.103-1.108v-1.557h27.277v1.557zM28.649 23.227h-6.707c2.41-1.503 4.014-4.178 4.014-7.227 0-1.584-0.433-3.066-1.186-4.336l2.926-2.28h0.954v13.844zM33.514 6.697c0 0.726-0.587 1.314-1.309 1.314h-2.788c-0.027-0.003-0.054-0.005-0.082-0.005h-1.875c-0.153 0-0.301 0.051-0.422 0.145l-2.735 2.131v-1.59c0-0.378-0.306-0.686-0.685-0.686-0.172 0-0.342-0.034-0.5-0.101s-0.303-0.163-0.423-0.285c-0.121-0.122-0.217-0.266-0.282-0.425s-0.099-0.329-0.098-0.501v-3.267c0-0.028-0.002-0.056-0.006-0.082v-0.664c0-0.724 0.585-1.309 1.309-1.309h8.589c0.725 0 1.309 0.581 1.309 1.309v4.017z"></path>
</svg>
