<!-- Generated by IcoMoon.io -->
<svg version="1.1" xmlns="http://www.w3.org/2000/svg" width="32" height="32" viewBox="0 0 32 32">
<path d="M29.037 32h-26.074c-0.786-0.001-1.539-0.313-2.094-0.869s-0.868-1.309-0.869-2.094v-26.074c0.001-0.786 0.313-1.539 0.869-2.094s1.309-0.868 2.094-0.869h26.074c0.785 0.001 1.539 0.313 2.094 0.869s0.868 1.309 0.869 2.094v26.074c-0.001 0.785-0.313 1.539-0.869 2.094s-1.309 0.868-2.094 0.869v0zM2.963 1.185c-0.471 0-0.924 0.187-1.257 0.521s-0.521 0.786-0.521 1.257v26.074c0 0.471 0.187 0.924 0.521 1.257s0.786 0.521 1.257 0.521h26.074c0.471 0 0.924-0.187 1.257-0.521s0.521-0.786 0.521-1.257v-26.074c0-0.471-0.187-0.924-0.521-1.257s-0.786-0.521-1.257-0.521h-26.074z"></path>
<path d="M31.407 7.111h-30.815c-0.157 0-0.308-0.062-0.419-0.174s-0.174-0.262-0.174-0.419v-3.556c0.001-0.786 0.313-1.539 0.869-2.094s1.309-0.868 2.094-0.869h26.074c0.785 0.001 1.539 0.313 2.094 0.869s0.868 1.309 0.869 2.094v3.556c0 0.157-0.062 0.308-0.174 0.419s-0.262 0.174-0.419 0.174zM1.185 5.926h29.63v-2.963c0-0.471-0.187-0.924-0.521-1.257s-0.786-0.521-1.257-0.521h-26.074c-0.471 0-0.924 0.187-1.257 0.521s-0.521 0.786-0.521 1.257v2.963z"></path>
<path d="M4.148 4.444c0.491 0 0.889-0.398 0.889-0.889s-0.398-0.889-0.889-0.889c-0.491 0-0.889 0.398-0.889 0.889s0.398 0.889 0.889 0.889z"></path>
<path d="M7.111 4.444c0.491 0 0.889-0.398 0.889-0.889s-0.398-0.889-0.889-0.889c-0.491 0-0.889 0.398-0.889 0.889s0.398 0.889 0.889 0.889z"></path>
<path d="M10.074 4.444c0.491 0 0.889-0.398 0.889-0.889s-0.398-0.889-0.889-0.889c-0.491 0-0.889 0.398-0.889 0.889s0.398 0.889 0.889 0.889z"></path>
<path d="M16 32c-0.157 0-0.308-0.062-0.419-0.174s-0.174-0.262-0.174-0.419v-24.889c0-0.157 0.062-0.308 0.174-0.419s0.262-0.174 0.419-0.174 0.308 0.062 0.419 0.174c0.111 0.111 0.174 0.262 0.174 0.419v24.889c0 0.157-0.062 0.308-0.174 0.419s-0.262 0.174-0.419 0.174z"></path>
<path d="M31.407 18.963h-30.815c-0.157 0-0.308-0.062-0.419-0.174s-0.174-0.262-0.174-0.419c0-0.157 0.062-0.308 0.174-0.419s0.262-0.174 0.419-0.174h30.815c0.157 0 0.308 0.062 0.419 0.174s0.174 0.262 0.174 0.419-0.062 0.308-0.174 0.419c-0.111 0.111-0.262 0.174-0.419 0.174zM23.111 13.63c-0.469 0-0.927-0.139-1.317-0.399s-0.694-0.631-0.873-1.064c-0.179-0.433-0.226-0.91-0.135-1.37s0.317-0.882 0.649-1.214 0.754-0.557 1.214-0.649c0.46-0.091 0.936-0.044 1.369 0.135s0.803 0.483 1.064 0.873c0.26 0.39 0.399 0.848 0.399 1.317 0 0.629-0.25 1.232-0.694 1.676s-1.047 0.694-1.676 0.694zM23.111 10.074c-0.234 0-0.464 0.069-0.658 0.2s-0.347 0.315-0.437 0.532c-0.090 0.217-0.113 0.455-0.067 0.685s0.159 0.441 0.324 0.607 0.377 0.279 0.607 0.324c0.23 0.046 0.468 0.022 0.685-0.067s0.402-0.242 0.532-0.437c0.13-0.195 0.2-0.424 0.2-0.658 0-0.314-0.125-0.616-0.347-0.838s-0.524-0.347-0.838-0.347z"></path>
<path d="M25.481 16.593h-4.741c-0.157 0-0.308-0.062-0.419-0.174s-0.174-0.262-0.174-0.419v-0.593c0-0.786 0.312-1.539 0.868-2.095s1.309-0.868 2.095-0.868c0.786 0 1.54 0.312 2.095 0.868s0.868 1.309 0.868 2.095v0.593c0 0.157-0.062 0.308-0.174 0.419s-0.262 0.174-0.419 0.174zM21.333 15.407h3.556c0-0.471-0.187-0.924-0.521-1.257s-0.786-0.521-1.257-0.521-0.924 0.187-1.257 0.521c-0.333 0.333-0.521 0.786-0.521 1.257v0zM8.889 13.63c-0.469 0-0.927-0.139-1.317-0.399s-0.694-0.631-0.873-1.064c-0.179-0.433-0.226-0.91-0.135-1.37s0.317-0.882 0.649-1.214 0.754-0.557 1.214-0.649c0.46-0.091 0.936-0.044 1.37 0.135s0.803 0.483 1.064 0.873c0.26 0.39 0.399 0.848 0.399 1.317 0 0.629-0.25 1.232-0.694 1.676s-1.047 0.694-1.676 0.694zM8.889 10.074c-0.234 0-0.464 0.069-0.658 0.2s-0.347 0.315-0.437 0.532c-0.090 0.217-0.113 0.455-0.067 0.685s0.159 0.441 0.324 0.607 0.377 0.279 0.607 0.324c0.23 0.046 0.468 0.022 0.685-0.067s0.402-0.242 0.532-0.437c0.13-0.195 0.2-0.424 0.2-0.658 0-0.314-0.125-0.616-0.347-0.838s-0.524-0.347-0.838-0.347z"></path>
<path d="M11.259 16.593h-4.741c-0.157 0-0.308-0.062-0.419-0.174s-0.174-0.262-0.174-0.419v-0.593c0-0.786 0.312-1.539 0.868-2.095s1.309-0.868 2.095-0.868 1.539 0.312 2.095 0.868c0.556 0.556 0.868 1.309 0.868 2.095v0.593c0 0.157-0.062 0.308-0.174 0.419s-0.262 0.174-0.419 0.174zM7.111 15.407h3.556c0-0.471-0.187-0.924-0.521-1.257s-0.786-0.521-1.257-0.521-0.924 0.187-1.257 0.521c-0.333 0.333-0.521 0.786-0.521 1.257v0zM23.111 25.482c-0.469 0-0.927-0.139-1.317-0.399s-0.694-0.631-0.873-1.064c-0.179-0.433-0.226-0.91-0.135-1.369s0.317-0.882 0.649-1.214 0.754-0.557 1.214-0.649c0.46-0.091 0.936-0.045 1.37 0.135s0.803 0.483 1.064 0.873c0.26 0.39 0.399 0.848 0.399 1.317 0 0.629-0.25 1.232-0.694 1.676s-1.047 0.694-1.676 0.694zM23.111 21.926c-0.234 0-0.463 0.070-0.658 0.2s-0.347 0.315-0.436 0.532-0.113 0.455-0.067 0.685c0.046 0.23 0.159 0.441 0.324 0.607s0.377 0.279 0.607 0.324c0.23 0.046 0.468 0.022 0.685-0.067s0.402-0.242 0.532-0.436c0.13-0.195 0.2-0.424 0.2-0.658 0-0.314-0.125-0.616-0.347-0.838s-0.524-0.347-0.838-0.347z"></path>
<path d="M25.481 28.444h-4.741c-0.157 0-0.308-0.062-0.419-0.174s-0.174-0.262-0.174-0.419v-0.593c0-0.786 0.312-1.539 0.868-2.095s1.309-0.868 2.095-0.868c0.786 0 1.54 0.312 2.095 0.868s0.868 1.309 0.868 2.095v0.593c0 0.157-0.062 0.308-0.174 0.419s-0.262 0.174-0.419 0.174zM21.333 27.259h3.556c0-0.471-0.187-0.924-0.521-1.257s-0.786-0.521-1.257-0.521-0.924 0.187-1.257 0.521c-0.333 0.333-0.521 0.786-0.521 1.257zM8.889 25.482c-0.469 0-0.927-0.139-1.317-0.399s-0.694-0.631-0.873-1.064c-0.179-0.433-0.226-0.91-0.135-1.369s0.317-0.882 0.649-1.214 0.754-0.557 1.214-0.649c0.46-0.091 0.936-0.045 1.37 0.135s0.803 0.483 1.064 0.873 0.399 0.848 0.399 1.317c0 0.629-0.25 1.232-0.694 1.676s-1.047 0.694-1.676 0.694zM8.889 21.926c-0.234 0-0.464 0.070-0.658 0.2s-0.347 0.315-0.437 0.532c-0.090 0.217-0.113 0.455-0.067 0.685s0.159 0.441 0.324 0.607 0.377 0.279 0.607 0.324c0.23 0.046 0.468 0.022 0.685-0.067s0.402-0.242 0.532-0.436 0.2-0.424 0.2-0.658c0-0.314-0.125-0.616-0.347-0.838s-0.524-0.347-0.838-0.347z"></path>
<path d="M11.259 28.444h-4.741c-0.157 0-0.308-0.062-0.419-0.174s-0.174-0.262-0.174-0.419v-0.593c0-0.786 0.312-1.539 0.868-2.095s1.309-0.868 2.095-0.868 1.539 0.312 2.095 0.868c0.556 0.556 0.868 1.309 0.868 2.095v0.593c0 0.157-0.062 0.308-0.174 0.419s-0.262 0.174-0.419 0.174zM7.111 27.259h3.556c0-0.471-0.187-0.924-0.521-1.257s-0.786-0.521-1.257-0.521c-0.472 0-0.924 0.187-1.257 0.521s-0.521 0.786-0.521 1.257v0z"></path>
</svg>
