<svg width="12" height="12" viewBox="0 0 12 12" fill="none" xmlns="http://www.w3.org/2000/svg">
<path d="M1.29161 2.50251C2.37297 2.80402 3.15394 3.64824 3.45432 4.67337C3.51439 4.79397 3.63454 4.79397 3.69462 4.67337C3.99499 3.58794 4.83605 2.80402 5.85732 2.50251C5.97747 2.44221 5.97747 2.32161 5.85732 2.26131C4.83605 1.9598 3.99499 1.11558 3.69462 0.0904523C3.63454 -0.0301508 3.51439 -0.0301508 3.45432 0.0904523C3.15394 1.11558 2.31289 1.9598 1.29161 2.26131C1.11139 2.32161 1.11139 2.44221 1.29161 2.50251ZM11.8648 5.8191C10.2428 5.39698 8.98123 4.13065 8.5607 2.50251C8.50063 2.32161 8.26033 2.32161 8.20025 2.50251C7.77973 4.13065 6.51815 5.39698 4.89612 5.8191C4.7159 5.8794 4.7159 6.1206 4.89612 6.1809C6.45807 6.60301 7.71965 7.86935 8.20025 9.49749C8.26033 9.67839 8.50063 9.67839 8.5607 9.49749C8.98123 7.92965 10.2428 6.66332 11.8648 6.1809C12.0451 6.1206 12.0451 5.8794 11.8648 5.8191ZM4.65582 9.49749C3.57447 9.19598 2.79349 8.35176 2.49312 7.32663C2.43304 7.20603 2.31289 7.20603 2.25282 7.32663C1.95244 8.41206 1.11139 9.19598 0.0901126 9.49749C-0.0300375 9.55779 -0.0300375 9.67839 0.0901126 9.73869C1.17146 10.0402 1.95244 10.8844 2.25282 11.9095C2.31289 12.0302 2.43304 12.0302 2.49312 11.9095C2.79349 10.8241 3.63454 10.0402 4.65582 9.73869C4.83605 9.67839 4.83605 9.55779 4.65582 9.49749Z" fill="white"/>
</svg>
