<svg width="103" height="24" viewBox="0 0 103 24" fill="none" xmlns="http://www.w3.org/2000/svg">
<path d="M6.37209 2.81486C6.8342 1.15129 8.34888 0 10.0754 0H97.4373C99.9792 0 101.821 2.42317 101.141 4.87228L96.87 20.2466C96.4079 21.9101 94.8933 23.0614 93.1667 23.0614H5.80481C3.26297 23.0614 1.42115 20.6382 2.10146 18.1891L6.37209 2.81486Z" fill="url(#paint0_linear_39431_129689)"/>
<path d="M12 16.695L14.82 6.195H18.255C19.915 6.195 21.115 6.565 21.855 7.305C22.405 7.855 22.68 8.57 22.68 9.45C22.68 10.74 22.2 11.77 21.24 12.54C20.29 13.3 19.03 13.68 17.46 13.68H15.735L14.925 16.695H12ZM16.335 11.415H17.43C18.14 11.415 18.695 11.27 19.095 10.98C19.495 10.68 19.695 10.28 19.695 9.78C19.695 9.49 19.595 9.245 19.395 9.045C19.125 8.775 18.71 8.64 18.15 8.64H17.07L16.335 11.415Z" fill="white"/>
<path d="M22.3781 16.695L25.1981 6.195H29.1581C30.8381 6.195 32.0431 6.56 32.7731 7.29C33.3131 7.83 33.5831 8.545 33.5831 9.435C33.5831 10.335 33.3181 11.11 32.7881 11.76C32.2681 12.4 31.4831 12.865 30.4331 13.155L32.0531 16.695H28.8431L27.4481 13.515H26.1581L25.3031 16.695H22.3781ZM26.7581 11.235H28.4231C29.0831 11.235 29.6081 11.105 29.9981 10.845C30.3881 10.585 30.5831 10.23 30.5831 9.78C30.5831 9.51 30.4931 9.275 30.3131 9.075C30.0731 8.835 29.6431 8.715 29.0231 8.715H27.4481L26.7581 11.235Z" fill="white"/>
<path d="M39.444 16.89C37.964 16.89 36.759 16.445 35.829 15.555C34.899 14.655 34.434 13.53 34.434 12.18C34.434 11.39 34.589 10.62 34.899 9.87C35.219 9.12 35.649 8.46 36.189 7.89C36.729 7.32 37.389 6.865 38.169 6.525C38.959 6.175 39.799 6 40.689 6C42.169 6 43.374 6.45 44.304 7.35C45.234 8.24 45.699 9.36 45.699 10.71C45.699 11.5 45.539 12.27 45.219 13.02C44.909 13.77 44.484 14.43 43.944 15C43.404 15.57 42.739 16.03 41.949 16.38C41.169 16.72 40.334 16.89 39.444 16.89ZM39.699 14.28C40.579 14.28 41.304 13.935 41.874 13.245C42.444 12.545 42.729 11.775 42.729 10.935C42.729 10.245 42.524 9.685 42.114 9.255C41.714 8.825 41.154 8.61 40.434 8.61C39.564 8.61 38.839 8.96 38.259 9.66C37.689 10.36 37.404 11.125 37.404 11.955C37.404 12.645 37.604 13.205 38.004 13.635C38.414 14.065 38.979 14.28 39.699 14.28Z" fill="white"/>
<path d="M50.4363 16.695L53.2563 6.195H56.6913C58.3513 6.195 59.5513 6.565 60.2913 7.305C60.8413 7.855 61.1163 8.57 61.1163 9.45C61.1163 10.74 60.6363 11.77 59.6763 12.54C58.7263 13.3 57.4663 13.68 55.8963 13.68H54.1713L53.3613 16.695H50.4363ZM54.7713 11.415H55.8663C56.5763 11.415 57.1313 11.27 57.5313 10.98C57.9313 10.68 58.1313 10.28 58.1313 9.78C58.1313 9.49 58.0313 9.245 57.8313 9.045C57.5613 8.775 57.1463 8.64 56.5863 8.64H55.5063L54.7713 11.415Z" fill="white"/>
<path d="M60.8145 16.695L63.6345 6.195H66.5595L64.4295 14.145H69.4395L68.7495 16.695H60.8145Z" fill="white"/>
<path d="M74.9352 16.89C73.5852 16.89 72.5402 16.57 71.8002 15.93C71.0602 15.28 70.6902 14.375 70.6902 13.215C70.6902 12.705 70.7702 12.145 70.9302 11.535L72.3702 6.195H75.3102L73.8252 11.745C73.7252 12.115 73.6752 12.445 73.6752 12.735C73.6752 13.215 73.8152 13.59 74.0952 13.86C74.3852 14.13 74.7902 14.265 75.3102 14.265C75.8802 14.265 76.3502 14.08 76.7202 13.71C77.1002 13.35 77.3952 12.77 77.6052 11.97L79.1652 6.195H82.1052L80.4402 12.405C80.0702 13.775 79.5252 14.82 78.8052 15.54C77.9052 16.44 76.6152 16.89 74.9352 16.89Z" fill="white"/>
<path d="M86.0317 16.875C83.9717 16.875 82.3467 16.235 81.1567 14.955L83.0317 13.02C84.0617 13.97 85.1417 14.445 86.2717 14.445C86.6217 14.445 86.9067 14.375 87.1267 14.235C87.3467 14.095 87.4567 13.905 87.4567 13.665C87.4567 13.455 87.3467 13.275 87.1267 13.125C86.9067 12.975 86.4317 12.76 85.7017 12.48C84.7817 12.13 84.0967 11.74 83.6467 11.31C83.1967 10.88 82.9717 10.305 82.9717 9.585C82.9717 8.545 83.3917 7.69 84.2317 7.02C85.0717 6.35 86.1367 6.015 87.4267 6.015C89.2067 6.015 90.6417 6.535 91.7317 7.575L89.9317 9.585C89.0417 8.815 88.1167 8.43 87.1567 8.43C86.8167 8.43 86.5417 8.5 86.3317 8.64C86.1217 8.78 86.0167 8.96 86.0167 9.18C86.0167 9.38 86.1217 9.545 86.3317 9.675C86.5417 9.805 87.0217 10.02 87.7717 10.32C88.6717 10.66 89.3517 11.05 89.8117 11.49C90.2717 11.93 90.5017 12.515 90.5017 13.245C90.5017 14.325 90.0817 15.2 89.2417 15.87C88.4117 16.54 87.3417 16.875 86.0317 16.875Z" fill="white"/>
<defs>
<linearGradient id="paint0_linear_39431_129689" x1="43.5616" y1="-3.20917e-06" x2="2.14331" y2="21.0137" gradientUnits="userSpaceOnUse">
<stop stop-color="#22AFFF"/>
<stop offset="1" stop-color="#227AFF"/>
</linearGradient>
</defs>
</svg>
