<svg width="40" height="40" viewBox="0 0 40 40" fill="none" xmlns="http://www.w3.org/2000/svg">
<rect width="40" height="40" rx="10" fill="#227AFF" fill-opacity="0.1"/>
<path d="M10 16.5691C10 15.3729 10.4824 14.6398 11.4806 14.0843L15.5899 11.7974C17.7431 10.5992 18.8197 10 20 10C21.1803 10 22.2569 10.5992 24.4101 11.7974L28.5194 14.0843C29.5176 14.6398 30 15.3729 30 16.5691C30 16.8934 30 17.0556 29.9646 17.1889C29.7785 17.8895 29.1437 18 28.5307 18H11.4693C10.8563 18 10.2215 17.8894 10.0354 17.1889C10 17.0556 10 16.8934 10 16.5691Z" stroke="#227AFF" stroke-width="1.5"/>
<path d="M19.9961 15H20.0051" stroke="#227AFF" stroke-width="2" stroke-linecap="round" stroke-linejoin="round"/>
<path d="M12 18V26.5M16 18V26.5" stroke="#227AFF" stroke-width="1.5"/>
<path d="M24 18V26.5M28 18V26.5" stroke="#227AFF" stroke-width="1.5"/>
<path d="M27 26.5H13C11.3432 26.5 10 27.8431 10 29.5C10 29.7761 10.2239 30 10.5 30H29.5C29.7761 30 30 29.7761 30 29.5C30 27.8431 28.6569 26.5 27 26.5Z" stroke="#227AFF" stroke-width="1.5"/>
</svg>
