<svg width="40" height="40" viewBox="0 0 40 40" fill="none" xmlns="http://www.w3.org/2000/svg">
<rect width="40" height="40" rx="10" fill="#227AFF" fill-opacity="0.1"/>
<path d="M22.5 18.5C22.5 19.8807 21.3807 21 20 21C18.6193 21 17.5 19.8807 17.5 18.5C17.5 17.1193 18.6193 16 20 16C21.3807 16 22.5 17.1193 22.5 18.5Z" stroke="#227AFF" stroke-width="1.5" stroke-linecap="round" stroke-linejoin="round"/>
<path d="M24 11.5C26.4794 11.5 28.1903 11.8842 29.1329 12.1763C29.6756 12.3445 30 12.8589 30 13.4271V23.1823C30 24.2974 28.7719 25.1364 27.6762 24.9295C26.7361 24.752 25.5107 24.6094 24 24.6094C19.2491 24.6094 18.1096 26.4151 11.1448 24.8792C10.4726 24.731 10 24.1265 10 23.4382V13.4212C10 12.4453 10.9208 11.7337 11.878 11.9236C18.1967 13.1775 19.4209 11.5 24 11.5Z" stroke="#227AFF" stroke-width="1.5" stroke-linecap="round" stroke-linejoin="round"/>
<path d="M10 15.5C11.9513 15.5 13.7048 13.9051 13.929 12.2542M26.5005 12C26.5005 14.0396 28.2655 15.969 30 15.969M30 21.5C28.1009 21.5 26.2601 22.8102 26.102 24.5983M14.0005 24.9961C14.0005 22.787 12.2096 20.9961 10.0005 20.9961" stroke="#227AFF" stroke-width="1.5" stroke-linecap="round" stroke-linejoin="round"/>
<path d="M27 27.7329C26.1717 27.5965 25.1718 27.5 24.0005 27.5C19.7061 27.5 18.3624 29.1598 13 28.2027" stroke="#227AFF" stroke-width="1.5" stroke-linecap="round" stroke-linejoin="round"/>
</svg>
