<svg width="20" height="20" viewBox="0 0 20 20" fill="none" xmlns="http://www.w3.org/2000/svg">
<g id="Frame 2">
<rect width="20" height="20" rx="10" fill="#001931" fill-opacity="0.1"/>
<path id="Vector" d="M10.351 6.66309C10.356 6.66909 10.358 6.67709 10.363 6.68309L13.8538 10.5398C14.0487 10.7568 14.0487 11.1088 13.8538 11.3258C13.8518 11.3278 13.8498 11.3288 13.8478 11.3298C13.8044 11.3823 13.75 11.4247 13.6886 11.4541C13.6271 11.4835 13.5599 11.499 13.4918 11.4998H6.50927C6.43988 11.4986 6.37159 11.4823 6.30922 11.4519C6.24684 11.4215 6.19191 11.3777 6.14829 11.3238L6.14629 11.3258C6.05193 11.2166 6 11.0771 6 10.9328C6 10.7885 6.05193 10.649 6.14629 10.5398L9.64505 6.66309C9.68861 6.61203 9.74272 6.57103 9.80366 6.54292C9.8646 6.5148 9.93091 6.50024 9.99802 6.50024C10.0651 6.50024 10.1315 6.5148 10.1924 6.54292C10.2533 6.57103 10.3074 6.61203 10.351 6.66309Z" fill="#4D5E6F"/>
</g>
</svg>
