<svg width="20" height="20" viewBox="0 0 20 20" fill="none" xmlns="http://www.w3.org/2000/svg">
<g id="Frame 1">
<rect width="20" height="20" rx="10" fill="white"/>
<path id="Vector" d="M10.351 13.3367C10.356 13.3307 10.358 13.3227 10.363 13.3167L13.8538 9.45993C14.0487 9.24295 14.0487 8.89097 13.8538 8.67399C13.8518 8.67199 13.8498 8.67099 13.8478 8.66999C13.8044 8.61745 13.75 8.57501 13.6886 8.54565C13.6271 8.51629 13.5599 8.50071 13.4918 8.5H6.50927C6.43988 8.50112 6.37159 8.51746 6.30922 8.54787C6.24684 8.57828 6.19191 8.62202 6.14829 8.67599L6.14629 8.67399C6.05193 8.78317 6 8.92265 6 9.06696C6 9.21127 6.05193 9.35076 6.14629 9.45993L9.64505 13.3367C9.68861 13.3877 9.74272 13.4287 9.80366 13.4568C9.8646 13.485 9.93091 13.4995 9.99802 13.4995C10.0651 13.4995 10.1315 13.485 10.1924 13.4568C10.2533 13.4287 10.3074 13.3877 10.351 13.3367Z" fill="#4D5E6F"/>
</g>
</svg>
