<svg width="14" height="14" viewBox="0 0 14 14" xmlns="http://www.w3.org/2000/svg" fill="white">
<path d="M1.50688 2.935C2.76846 3.28544 3.6796 4.26667 4.03004 5.45816C4.10012 5.59833 4.2403 5.59833 4.31039 5.45816C4.66083 4.19658 5.64205 3.28544 6.83354 2.935C6.97372 2.86492 6.97372 2.72474 6.83354 2.65465C5.64205 2.30421 4.66083 1.32299 4.31039 0.131499C4.2403 -0.00867662 4.10012 -0.00867662 4.03004 0.131499C3.6796 1.32299 2.69837 2.30421 1.50688 2.65465C1.29662 2.72474 1.29662 2.86492 1.50688 2.935ZM13.8423 6.78982C11.9499 6.29921 10.4781 4.82737 9.98748 2.935C9.9174 2.72474 9.63704 2.72474 9.56696 2.935C9.07634 4.82737 7.60451 6.29921 5.71214 6.78982C5.50188 6.85991 5.50188 7.14026 5.71214 7.21035C7.53442 7.70096 9.00626 9.1728 9.56696 11.0652C9.63704 11.2754 9.9174 11.2754 9.98748 11.0652C10.4781 9.24289 11.9499 7.77105 13.8423 7.21035C14.0526 7.14026 14.0526 6.85991 13.8423 6.78982ZM5.43179 11.0652C4.17021 10.7147 3.25907 9.7335 2.90864 8.54201C2.83855 8.40184 2.69837 8.40184 2.62829 8.54201C2.27785 9.80359 1.29662 10.7147 0.105131 11.0652C-0.0350438 11.1353 -0.0350438 11.2754 0.105131 11.3455C1.36671 11.696 2.27785 12.6772 2.62829 13.8687C2.69837 14.0088 2.83855 14.0088 2.90864 13.8687C3.25907 12.6071 4.2403 11.696 5.43179 11.3455C5.64205 11.2754 5.64205 11.1353 5.43179 11.0652Z" />
</svg>
