<svg width="21" height="20" viewBox="0 0 21 20" fill="none" xmlns="http://www.w3.org/2000/svg">
<g id="Frame">
<path id="Vector" d="M6.3335 7.91669C7.02385 7.91669 7.5835 7.35704 7.5835 6.66669C7.5835 5.97633 7.02385 5.41669 6.3335 5.41669C5.64314 5.41669 5.0835 5.97633 5.0835 6.66669C5.0835 7.35704 5.64314 7.91669 6.3335 7.91669Z" stroke-width="1.5" stroke-linecap="round" stroke-linejoin="round"/>
<path id="Vector_2" d="M17.9979 9.16667C17.9998 9.55842 17.9998 9.97442 17.9998 10.4167C17.9998 14.1486 17.9998 16.0146 16.8405 17.174C15.6811 18.3333 13.8151 18.3333 10.0832 18.3333C6.35122 18.3333 4.48525 18.3333 3.32587 17.174C2.1665 16.0146 2.1665 14.1486 2.1665 10.4167C2.1665 6.68472 2.1665 4.81874 3.32587 3.65937C4.48525 2.5 6.35122 2.5 10.0832 2.5C10.5254 2.5 10.9414 2.5 11.3332 2.50193" stroke-width="1.5" stroke-linecap="round"/>
<path id="Vector_3" d="M15.9167 1.66669L16.1316 2.24755C16.4134 3.0092 16.5543 3.39004 16.8322 3.66785C17.11 3.94566 17.4908 4.08658 18.2525 4.36842L18.8333 4.58335L18.2525 4.79829C17.4908 5.08013 17.11 5.22105 16.8322 5.49886C16.5543 5.77667 16.4134 6.1575 16.1316 6.91916L15.9167 7.50002L15.7017 6.91916C15.4199 6.1575 15.279 5.77667 15.0012 5.49886C14.7233 5.22105 14.3425 5.08013 13.5808 4.79829L13 4.58335L13.5808 4.36842C14.3425 4.08658 14.7233 3.94566 15.0012 3.66785C15.279 3.39004 15.4199 3.0092 15.7017 2.24755L15.9167 1.66669Z" stroke-width="1.5" stroke-linejoin="round"/>
<path id="Vector_4" d="M4.25 17.9166C7.89372 13.5625 11.9784 7.82003 17.9979 11.702" stroke-width="1.5"/>
</g>
</svg>
