<svg width="20" height="12" viewBox="0 0 20 12" xmlns="http://www.w3.org/2000/svg" fill="#4D5E6F">
<path id="Vector" d="M3.71333 0.289941C3.61825 0.198919 3.50613 0.127568 3.3834 0.0799836C3.13999 -0.020014 2.86697 -0.020014 2.62355 0.0799836C2.50083 0.127568 2.38871 0.198919 2.29362 0.289941L0.294031 2.28953C0.105766 2.4778 -1.9837e-09 2.73314 0 2.99939C1.9837e-09 3.26563 0.105766 3.52098 0.294031 3.70924C0.482297 3.89751 0.737639 4.00327 1.00389 4.00327C1.27013 4.00327 1.52548 3.89751 1.71374 3.70924L2.00368 3.4093V10.9978C2.00368 11.2629 2.10902 11.5172 2.29652 11.7047C2.48401 11.8922 2.73832 11.9975 3.00348 11.9975C3.26864 11.9975 3.52294 11.8922 3.71044 11.7047C3.89794 11.5172 4.00327 11.2629 4.00327 10.9978V3.4093L4.29321 3.70924C4.38616 3.80295 4.49674 3.87733 4.61857 3.92809C4.7404 3.97885 4.87108 4.00498 5.00307 4.00498C5.13505 4.00498 5.26573 3.97885 5.38757 3.92809C5.5094 3.87733 5.61998 3.80295 5.71292 3.70924C5.80663 3.6163 5.88101 3.50572 5.93177 3.38388C5.98253 3.26205 6.00866 3.13137 6.00866 2.99939C6.00866 2.8674 5.98253 2.73672 5.93177 2.61489C5.88101 2.49305 5.80663 2.38248 5.71292 2.28953L3.71333 0.289941ZM9.00225 1.99959H19.0002C19.2654 1.99959 19.5197 1.89426 19.7072 1.70676C19.8947 1.51926 20 1.26496 20 0.999795C20 0.734633 19.8947 0.480332 19.7072 0.292834C19.5197 0.105335 19.2654 0 19.0002 0H9.00225C8.73709 0 8.48279 0.105335 8.29529 0.292834C8.10779 0.480332 8.00245 0.734633 8.00245 0.999795C8.00245 1.26496 8.10779 1.51926 8.29529 1.70676C8.48279 1.89426 8.73709 1.99959 9.00225 1.99959ZM19.0002 9.99796H9.00225C8.73709 9.99796 8.48279 10.1033 8.29529 10.2908C8.10779 10.4783 8.00245 10.7326 8.00245 10.9978C8.00245 11.2629 8.10779 11.5172 8.29529 11.7047C8.48279 11.8922 8.73709 11.9975 9.00225 11.9975H19.0002C19.2654 11.9975 19.5197 11.8922 19.7072 11.7047C19.8947 11.5172 20 11.2629 20 10.9978C20 10.7326 19.8947 10.4783 19.7072 10.2908C19.5197 10.1033 19.2654 9.99796 19.0002 9.99796ZM19.0002 4.99898H9.00225C8.73709 4.99898 8.48279 5.10431 8.29529 5.29181C8.10779 5.47931 8.00245 5.73361 8.00245 5.99877C8.00245 6.26394 8.10779 6.51824 8.29529 6.70573C8.48279 6.89323 8.73709 6.99857 9.00225 6.99857H19.0002C19.2654 6.99857 19.5197 6.89323 19.7072 6.70573C19.8947 6.51824 20 6.26394 20 5.99877C20 5.73361 19.8947 5.47931 19.7072 5.29181C19.5197 5.10431 19.2654 4.99898 19.0002 4.99898Z" />
</svg>
