<svg width="24" height="24" viewBox="0 0 24 24" fill="none" xmlns="http://www.w3.org/2000/svg">
<path d="M23.25 9C23.4489 9 23.6397 8.92098 23.7803 8.78033C23.921 8.63968 24 8.44891 24 8.25V6.75C24 5.75544 23.6049 4.80161 22.9016 4.09835C22.1984 3.39509 21.2446 3 20.25 3H8.25V6C8.25 6.19891 8.17098 6.38968 8.03033 6.53033C7.88968 6.67098 7.69891 6.75 7.5 6.75C7.30109 6.75 7.11032 6.67098 6.96967 6.53033C6.82902 6.38968 6.75 6.19891 6.75 6V3H3.75C2.75544 3 1.80161 3.39509 1.09835 4.09835C0.395088 4.80161 0 5.75544 0 6.75L0 8.25C0 8.44891 0.0790176 8.63968 0.21967 8.78033C0.360322 8.92098 0.551088 9 0.75 9C1.54565 9 2.30871 9.31607 2.87132 9.87868C3.43393 10.4413 3.75 11.2044 3.75 12C3.75 12.7956 3.43393 13.5587 2.87132 14.1213C2.30871 14.6839 1.54565 15 0.75 15C0.551088 15 0.360322 15.079 0.21967 15.2197C0.0790176 15.3603 0 15.5511 0 15.75L0 17.25C0 18.2446 0.395088 19.1984 1.09835 19.9016C1.80161 20.6049 2.75544 21 3.75 21H6.75V18C6.75 17.8011 6.82902 17.6103 6.96967 17.4697C7.11032 17.329 7.30109 17.25 7.5 17.25C7.69891 17.25 7.88968 17.329 8.03033 17.4697C8.17098 17.6103 8.25 17.8011 8.25 18V21H20.25C21.2446 21 22.1984 20.6049 22.9016 19.9016C23.6049 19.1984 24 18.2446 24 17.25V15.75C24 15.5511 23.921 15.3603 23.7803 15.2197C23.6397 15.079 23.4489 15 23.25 15C22.4544 15 21.6913 14.6839 21.1287 14.1213C20.5661 13.5587 20.25 12.7956 20.25 12C20.25 11.2044 20.5661 10.4413 21.1287 9.87868C21.6913 9.31607 22.4544 9 23.25 9ZM8.25 15C8.25 15.1989 8.17098 15.3897 8.03033 15.5303C7.88968 15.671 7.69891 15.75 7.5 15.75C7.30109 15.75 7.11032 15.671 6.96967 15.5303C6.82902 15.3897 6.75 15.1989 6.75 15V13.5C6.75 13.3011 6.82902 13.1103 6.96967 12.9697C7.11032 12.829 7.30109 12.75 7.5 12.75C7.69891 12.75 7.88968 12.829 8.03033 12.9697C8.17098 13.1103 8.25 13.3011 8.25 13.5V15ZM8.25 10.5C8.25 10.6989 8.17098 10.8897 8.03033 11.0303C7.88968 11.171 7.69891 11.25 7.5 11.25C7.30109 11.25 7.11032 11.171 6.96967 11.0303C6.82902 10.8897 6.75 10.6989 6.75 10.5V9C6.75 8.80109 6.82902 8.61032 6.96967 8.46967C7.11032 8.32902 7.30109 8.25 7.5 8.25C7.69891 8.25 7.88968 8.32902 8.03033 8.46967C8.17098 8.61032 8.25 8.80109 8.25 9V10.5ZM12.75 9C12.8983 9 13.0433 9.04399 13.1667 9.1264C13.29 9.20881 13.3861 9.32594 13.4429 9.46299C13.4997 9.60003 13.5145 9.75083 13.4856 9.89632C13.4566 10.0418 13.3852 10.1754 13.2803 10.2803C13.1754 10.3852 13.0418 10.4567 12.8963 10.4856C12.7508 10.5145 12.6 10.4997 12.463 10.4429C12.3259 10.3861 12.2088 10.29 12.1264 10.1667C12.044 10.0433 12 9.89834 12 9.75C12 9.55109 12.079 9.36032 12.2197 9.21967C12.3603 9.07902 12.5511 9 12.75 9ZM16.5 15.75C16.3517 15.75 16.2067 15.706 16.0833 15.6236C15.96 15.5412 15.8639 15.4241 15.8071 15.287C15.7503 15.15 15.7355 14.9992 15.7644 14.8537C15.7934 14.7082 15.8648 14.5746 15.9697 14.4697C16.0746 14.3648 16.2082 14.2934 16.3537 14.2644C16.4992 14.2355 16.65 14.2503 16.787 14.3071C16.9241 14.3639 17.0412 14.46 17.1236 14.5833C17.206 14.7067 17.25 14.8517 17.25 15C17.25 15.1989 17.171 15.3897 17.0303 15.5303C16.8897 15.671 16.6989 15.75 16.5 15.75ZM17.7825 10.2825L12.5325 15.5325C12.3903 15.6719 12.1991 15.75 12 15.75C11.8009 15.75 11.6097 15.6719 11.4675 15.5325C11.327 15.3909 11.2481 15.1995 11.2481 15C11.2481 14.8005 11.327 14.6091 11.4675 14.4675L16.7175 9.2175C16.8587 9.07627 17.0503 8.99693 17.25 8.99693C17.4497 8.99693 17.6413 9.07627 17.7825 9.2175C17.9237 9.35873 18.0031 9.55027 18.0031 9.75C18.0031 9.94973 17.9237 10.1413 17.7825 10.2825Z" fill="#227AFF"/>
</svg>
