<svg width="18" height="18" viewBox="0 0 18 18" fill="none" xmlns="http://www.w3.org/2000/svg">
<path d="M7.5 9.75H2.25C2.05109 9.75 1.86032 9.82902 1.71967 9.96967C1.57902 10.1103 1.5 10.3011 1.5 10.5V15.75C1.5 15.9489 1.57902 16.1397 1.71967 16.2803C1.86032 16.421 2.05109 16.5 2.25 16.5H7.5C7.69891 16.5 7.88968 16.421 8.03033 16.2803C8.17098 16.1397 8.25 15.9489 8.25 15.75V10.5C8.25 10.3011 8.17098 10.1103 8.03033 9.96967C7.88968 9.82902 7.69891 9.75 7.5 9.75ZM6.75 15H3V11.25H6.75V15ZM15.75 1.5H10.5C10.3011 1.5 10.1103 1.57902 9.96967 1.71967C9.82902 1.86032 9.75 2.05109 9.75 2.25V7.5C9.75 7.69891 9.82902 7.88968 9.96967 8.03033C10.1103 8.17098 10.3011 8.25 10.5 8.25H15.75C15.9489 8.25 16.1397 8.17098 16.2803 8.03033C16.421 7.88968 16.5 7.69891 16.5 7.5V2.25C16.5 2.05109 16.421 1.86032 16.2803 1.71967C16.1397 1.57902 15.9489 1.5 15.75 1.5ZM15 6.75H11.25V3H15V6.75ZM15.75 9.75H10.5C10.3011 9.75 10.1103 9.82902 9.96967 9.96967C9.82902 10.1103 9.75 10.3011 9.75 10.5V15.75C9.75 15.9489 9.82902 16.1397 9.96967 16.2803C10.1103 16.421 10.3011 16.5 10.5 16.5H15.75C15.9489 16.5 16.1397 16.421 16.2803 16.2803C16.421 16.1397 16.5 15.9489 16.5 15.75V10.5C16.5 10.3011 16.421 10.1103 16.2803 9.96967C16.1397 9.82902 15.9489 9.75 15.75 9.75ZM15 15H11.25V11.25H15V15ZM7.5 1.5H2.25C2.05109 1.5 1.86032 1.57902 1.71967 1.71967C1.57902 1.86032 1.5 2.05109 1.5 2.25V7.5C1.5 7.69891 1.57902 7.88968 1.71967 8.03033C1.86032 8.17098 2.05109 8.25 2.25 8.25H7.5C7.69891 8.25 7.88968 8.17098 8.03033 8.03033C8.17098 7.88968 8.25 7.69891 8.25 7.5V2.25C8.25 2.05109 8.17098 1.86032 8.03033 1.71967C7.88968 1.57902 7.69891 1.5 7.5 1.5ZM6.75 6.75H3V3H6.75V6.75Z"/>
</svg>
