<svg width="14" height="14" viewBox="0 0 14 14" xmlns="http://www.w3.org/2000/svg" fill="#808C98">
<path id="danger" fill-rule="evenodd" clip-rule="evenodd" d="M7 0C8.38447 0 9.73784 0.410543 10.889 1.17971C12.0401 1.94888 12.9373 3.04213 13.4672 4.32121C13.997 5.6003 14.1356 7.00776 13.8655 8.36563C13.5954 9.7235 12.9287 10.9708 11.9497 11.9497C10.9708 12.9287 9.7235 13.5954 8.36563 13.8655C7.00776 14.1356 5.6003 13.997 4.32121 13.4672C3.04213 12.9373 1.94888 12.0401 1.17971 10.889C0.410543 9.73785 0 8.38447 0 7C0.0020073 5.1441 0.740149 3.36479 2.05247 2.05247C3.36479 0.740149 5.1441 0.00200748 7 0ZM7 12.8333C8.15372 12.8333 9.28154 12.4912 10.2408 11.8502C11.2001 11.2093 11.9478 10.2982 12.3893 9.23232C12.8308 8.16642 12.9463 6.99353 12.7212 5.86197C12.4962 4.73042 11.9406 3.69102 11.1248 2.87521C10.309 2.0594 9.26958 1.50383 8.13802 1.27875C7.00647 1.05367 5.83358 1.16919 4.76768 1.6107C3.70178 2.05221 2.79073 2.79989 2.14976 3.75917C1.50879 4.71846 1.16667 5.84627 1.16667 7C1.16836 8.54657 1.78349 10.0293 2.87709 11.1229C3.97068 12.2165 5.45342 12.8316 7 12.8333ZM7.58459 9.91667C7.58459 10.2388 7.32342 10.5 7.00125 10.5C6.67909 10.5 6.41792 10.2388 6.41792 9.91667V6.41725C6.41792 6.09509 6.67909 5.83392 7.00125 5.83392C7.32342 5.83392 7.58459 6.09509 7.58459 6.41725V9.91667ZM7.58305 4.08219C7.58305 3.76003 7.32188 3.49886 6.99971 3.49886C6.67755 3.49886 6.41638 3.76003 6.41638 4.08219C6.41638 4.40436 6.67755 4.66553 6.99971 4.66553C7.32188 4.66553 7.58305 4.40436 7.58305 4.08219Z" />
</svg>
