<svg width="20" height="20" viewBox="0 0 20 20" fill="none" xmlns="http://www.w3.org/2000/svg">
<g id="Elementor-Logo-Symbol-Red 1" clip-path="url(#clip0_47754_23174)">
<g id="Clip path group">
<mask id="mask0_47754_23174" style="mask-type:luminance" maskUnits="userSpaceOnUse" x="0" y="0" width="20" height="20">
<g id="clip0">
<path id="Vector" d="M20 0H0V20H20V0Z" fill="white"/>
</g>
</mask>
<g mask="url(#mask0_47754_23174)">
<g id="Group">
<path id="Vector_2" d="M10 0C4.4766 0 0 4.4766 0 10C0 15.5216 4.4766 20 10 20C15.5234 20 20 15.5234 20 10C19.9982 4.4766 15.5216 0 10 0ZM7.50045 14.1653H5.8347V5.8329H7.50045V14.1653ZM14.1653 14.1653H9.1662V12.4995H14.1653V14.1653ZM14.1653 10.832H9.1662V9.1662H14.1653V10.832ZM14.1653 7.49865H9.1662V5.8329H14.1653V7.49865Z" fill="white"/>
</g>
</g>
</g>
</g>
<defs>
<clipPath id="clip0_47754_23174">
<rect width="20" height="20" fill="white"/>
</clipPath>
</defs>
</svg>
