<svg width="30" height="30" viewBox="0 0 30 30" fill="none" xmlns="http://www.w3.org/2000/svg">
<g clip-path="url(#clip0_43751_51619)">
<path d="M15 0C12.0333 0 9.13319 0.879735 6.66645 2.52796C4.19972 4.17618 2.27713 6.51886 1.14181 9.25975C0.00649929 12.0006 -0.290551 15.0166 0.288228 17.9264C0.867006 20.8361 2.29562 23.5088 4.3934 25.6066C6.49119 27.7044 9.16394 29.133 12.0737 29.7118C14.9834 30.2906 17.9994 29.9935 20.7403 28.8582C23.4811 27.7229 25.8238 25.8003 27.472 23.3336C29.1203 20.8668 30 17.9667 30 15C29.9957 11.0231 28.414 7.21026 25.6019 4.39815C22.7897 1.58604 18.9769 0.00430135 15 0ZM15 27.5C12.5277 27.5 10.111 26.7669 8.05538 25.3934C5.99976 24.0199 4.39761 22.0676 3.45151 19.7835C2.50542 17.4995 2.25788 14.9861 2.74019 12.5614C3.22251 10.1366 4.41302 7.90932 6.16117 6.16117C7.90933 4.41301 10.1366 3.2225 12.5614 2.74018C14.9861 2.25787 17.4995 2.50541 19.7836 3.45151C22.0676 4.3976 24.0199 5.99976 25.3934 8.05537C26.7669 10.111 27.5 12.5277 27.5 15C27.4964 18.3141 26.1782 21.4914 23.8348 23.8348C21.4914 26.1782 18.3141 27.4964 15 27.5Z" fill="#F83838"/>
<path d="M20.3025 9.69606C20.0681 9.46172 19.7502 9.33008 19.4188 9.33008C19.0873 9.33008 18.7694 9.46172 18.535 9.69606L15 13.2323L11.465 9.69606C11.3497 9.57668 11.2118 9.48145 11.0593 9.41594C10.9068 9.35043 10.7428 9.31594 10.5768 9.3145C10.4108 9.31306 10.2462 9.34469 10.0926 9.40754C9.93897 9.47039 9.7994 9.5632 9.68203 9.68057C9.56467 9.79794 9.47185 9.9375 9.409 10.0911C9.34615 10.2447 9.31452 10.4093 9.31597 10.5753C9.31741 10.7413 9.35189 10.9053 9.4174 11.0578C9.48291 11.2103 9.57814 11.3483 9.69753 11.4636L13.2325 14.9998L9.69753 18.5361C9.46319 18.7705 9.33155 19.0884 9.33155 19.4198C9.33155 19.7513 9.46319 20.0692 9.69753 20.3036C9.93607 20.53 10.2524 20.6562 10.5813 20.6562C10.9102 20.6562 11.2265 20.53 11.465 20.3036L15 16.7673L18.535 20.3036C18.7718 20.5334 19.0888 20.662 19.4188 20.662C19.7488 20.662 20.0658 20.5334 20.3025 20.3036C20.5369 20.0692 20.6685 19.7513 20.6685 19.4198C20.6685 19.0884 20.5369 18.7705 20.3025 18.5361L16.7675 14.9998L20.3025 11.4636C20.5369 11.2292 20.6685 10.9113 20.6685 10.5798C20.6685 10.2484 20.5369 9.93047 20.3025 9.69606Z" fill="#F83838"/>
</g>
<defs>
<clipPath id="clip0_43751_51619">
<rect width="30" height="30" fill="white"/>
</clipPath>
</defs>
</svg>
