<svg width="21" height="20" viewBox="0 0 21 20" fill="none" xmlns="http://www.w3.org/2000/svg">
<path d="M2.5835 9.99998C2.5835 6.26803 2.5835 4.40205 3.74286 3.24268C4.90224 2.08331 6.76821 2.08331 10.5002 2.08331C14.2321 2.08331 16.0981 2.08331 17.2575 3.24268C18.4168 4.40205 18.4168 6.26803 18.4168 9.99998C18.4168 13.7319 18.4168 15.5979 17.2575 16.7573C16.0981 17.9166 14.2321 17.9166 10.5002 17.9166C6.76821 17.9166 4.90224 17.9166 3.74286 16.7573C2.5835 15.5979 2.5835 13.7319 2.5835 9.99998Z" stroke-width="1.5"/>
<path d="M13.0002 12.5L14.6668 14.1666M13.8335 9.58331C13.8335 7.51222 12.1546 5.83331 10.0835 5.83331C8.0124 5.83331 6.3335 7.51222 6.3335 9.58331C6.3335 11.6544 8.0124 13.3333 10.0835 13.3333C12.1546 13.3333 13.8335 11.6544 13.8335 9.58331Z" stroke-width="1.5" stroke-linecap="round" stroke-linejoin="round"/>
</svg>
