<svg width="49" height="49" viewBox="0 0 49 49" fill="none" xmlns="http://www.w3.org/2000/svg">
<path fill-rule="evenodd" clip-rule="evenodd" d="M37.4263 48.5H10.6616C8.38762 48.5 6.54395 46.6311 6.54395 44.3261V4.67391C6.54395 2.36887 8.38762 0.5 10.6616 0.5H30.1926C30.1947 0.5 30.1978 0.5 30.1998 0.5H30.2204C30.5498 0.5 30.8309 0.668 31.0192 0.912174L41.1373 11.1685C41.3792 11.3595 41.5439 11.6443 41.5439 11.9783V12.0002C41.5439 12.0023 41.5439 12.0033 41.5439 12.0054V44.3261C41.5439 46.6311 39.7003 48.5 37.4263 48.5ZM31.2498 4.028V10.9348H38.0635L31.2498 4.028ZM39.4851 13.0217H30.2204C29.6512 13.0217 29.191 12.5543 29.191 11.9783V2.58696H10.6616C9.52512 2.58696 8.60277 3.52191 8.60277 4.67391V44.3261C8.60277 45.4781 9.52512 46.413 10.6616 46.413H37.4263C38.5628 46.413 39.4851 45.4781 39.4851 44.3261V13.0217ZM33.3087 40.1522H14.7792C14.21 40.1522 13.7498 39.6857 13.7498 39.1087C13.7498 38.5327 14.21 38.0652 14.7792 38.0652H33.3087C33.8779 38.0652 34.3381 38.5327 34.3381 39.1087C34.3381 39.6857 33.8779 40.1522 33.3087 40.1522ZM33.3087 31.8043H14.7792C14.21 31.8043 13.7498 31.3379 13.7498 30.7609C13.7498 30.1849 14.21 29.7174 14.7792 29.7174H33.3087C33.8779 29.7174 34.3381 30.1849 34.3381 30.7609C34.3381 31.3379 33.8779 31.8043 33.3087 31.8043ZM33.3087 23.4565H14.7792C14.21 23.4565 13.7498 22.9901 13.7498 22.413C13.7498 21.837 14.21 21.3696 14.7792 21.3696H33.3087C33.8779 21.3696 34.3381 21.837 34.3381 22.413C34.3381 22.9901 33.8779 23.4565 33.3087 23.4565Z" fill="#B3BAC2"/>
</svg>
