<svg width="24" height="25" viewBox="0 0 24 25" fill="none" xmlns="http://www.w3.org/2000/svg">
<g id="idea">
<path id="Vector" d="M14.1102 17.8279V16.9303C16.032 16.1053 17.3773 14.1975 17.3773 11.9756C17.3773 8.99902 14.9656 6.58496 11.9891 6.58496C9.0125 6.58496 6.60547 8.99902 6.60547 11.9756C6.60547 14.2045 7.94609 16.117 9.89141 16.9373V17.8279H14.1102Z" fill="#FFA800"/>
<path id="Vector_2" d="M14.5845 17.8394V16.9324C14.5072 17.0683 14.4298 17.2019 14.3525 17.3379C15.3369 16.9113 16.1783 16.1988 16.797 15.3246C17.4228 14.4386 17.7767 13.3746 17.8377 12.2965C17.9572 10.2293 16.9236 8.2277 15.2056 7.08395C13.4689 5.92848 11.1838 5.82301 9.32985 6.75817C7.50172 7.67926 6.29001 9.55192 6.14469 11.5863C5.98766 13.7636 7.12438 15.8988 8.99469 17.0168C9.20329 17.141 9.42126 17.2511 9.64391 17.3472C9.56657 17.2113 9.48922 17.0777 9.41188 16.9418V17.8418C9.41188 18.0949 9.62751 18.3105 9.88063 18.3105H14.1158C14.3619 18.3082 14.5963 18.0925 14.5845 17.8394C14.5728 17.5863 14.3783 17.3707 14.1158 17.3707H9.88063L10.3494 17.8394V16.9394C10.3494 16.7894 10.2627 16.5972 10.1173 16.534C9.89469 16.4379 9.67672 16.3277 9.46813 16.2035C9.36501 16.1425 9.26188 16.0769 9.16344 16.0066C9.11891 15.9761 9.07438 15.9433 9.02985 15.9105C9.00407 15.8918 8.97594 15.873 8.95016 15.8519C9.00641 15.8988 8.98532 15.88 8.94079 15.8449C8.75329 15.6949 8.57751 15.5308 8.4111 15.3574C8.33141 15.2754 8.25641 15.1886 8.18141 15.0996C8.14391 15.055 8.10172 15.0082 8.06891 14.959C8.12985 15.048 8.09704 14.9965 8.08297 14.9754L8.00563 14.8699C7.86501 14.673 7.73844 14.4668 7.62594 14.2535C7.57438 14.155 7.52516 14.0566 7.48063 13.9558C7.46657 13.9254 7.45016 13.8949 7.44079 13.8644C7.47594 13.9722 7.45485 13.8972 7.44313 13.8691C7.41501 13.8011 7.38922 13.7355 7.36579 13.6652C7.28376 13.4379 7.21813 13.2058 7.16891 12.9691C7.14547 12.8566 7.11032 12.7324 7.10563 12.6152C7.11032 12.7511 7.10094 12.5683 7.09626 12.5355C7.08922 12.4675 7.08219 12.3972 7.07985 12.3269C7.06344 12.0785 7.06579 11.83 7.08219 11.5816C7.08688 11.523 7.09157 11.4621 7.0986 11.4035C7.10094 11.3777 7.10563 11.3496 7.10797 11.3238C7.11969 11.2113 7.09157 11.434 7.10797 11.3215C7.12438 11.2066 7.14547 11.0894 7.16891 10.9746C7.21579 10.7496 7.27907 10.5246 7.35641 10.3066C7.37282 10.2574 7.39157 10.2082 7.41032 10.159C7.42204 10.1308 7.43376 10.1004 7.44547 10.0722C7.48297 9.9738 7.41032 10.1449 7.44079 10.084C7.49001 9.97614 7.53922 9.86833 7.59313 9.76051C7.69626 9.55895 7.8111 9.36442 7.94001 9.17692C7.96813 9.13473 7.9986 9.09255 8.02907 9.05036C8.04782 9.02458 8.06657 9.00114 8.08297 8.97536C8.10172 8.94958 8.11344 8.90973 8.06657 8.99645C8.12047 8.89567 8.22594 8.79958 8.30329 8.71286C8.4486 8.5488 8.60563 8.39411 8.77204 8.2488C8.84704 8.18317 8.93141 8.09176 9.02047 8.04255C8.91501 8.10114 8.99704 8.0613 9.02282 8.04255L9.07204 8.00739C9.12126 7.97223 9.17282 7.93708 9.22438 7.90192C9.41188 7.77536 9.60876 7.66051 9.81032 7.55973C9.90172 7.51286 10.0189 7.43786 10.1197 7.41676C10.0283 7.43551 10.0611 7.4402 10.0939 7.42848C10.122 7.41676 10.1525 7.40505 10.1806 7.39333C10.2392 7.36989 10.2978 7.3488 10.3564 7.33005C10.5744 7.25505 10.7994 7.19411 11.0244 7.14723C11.1345 7.1238 11.2447 7.10739 11.3548 7.08864C11.4252 7.07692 11.233 7.1027 11.3431 7.09098C11.3759 7.08864 11.4064 7.08395 11.4392 7.07926C11.5048 7.07223 11.5681 7.06755 11.6338 7.06286C11.8728 7.04645 12.1142 7.04645 12.3556 7.06286C12.4095 7.06755 12.4634 7.06989 12.5173 7.07692C12.5572 7.08161 12.6416 7.07223 12.6791 7.09567C12.658 7.09333 12.6392 7.09098 12.6181 7.0863C12.6392 7.08864 12.6603 7.09333 12.6814 7.09567C12.7142 7.10036 12.7447 7.10505 12.7775 7.10973C12.8408 7.12145 12.9041 7.13317 12.965 7.14489C13.1923 7.19176 13.415 7.2527 13.633 7.3277C13.6822 7.34411 13.7314 7.36286 13.7806 7.38161C13.8134 7.39333 13.9002 7.41208 13.9259 7.43786C13.9072 7.43083 13.8884 7.42145 13.872 7.41442C13.8908 7.42145 13.9095 7.43083 13.9283 7.4402C13.947 7.44958 13.9658 7.45661 13.9845 7.46598C14.0455 7.49411 14.1064 7.52223 14.1673 7.5527C14.3642 7.65114 14.5564 7.76364 14.7416 7.88551C14.7931 7.92067 14.8423 7.95348 14.8939 7.99098C14.9267 8.01442 14.9994 8.04723 15.0181 8.08239C14.9853 8.02145 14.9619 8.03786 15.0088 8.07536C15.0275 8.09176 15.0486 8.10817 15.0697 8.12223C15.1166 8.16208 15.1634 8.19958 15.2103 8.24176C15.3791 8.38942 15.5408 8.5488 15.6884 8.7152C15.7634 8.79958 15.8338 8.8863 15.9041 8.97301C15.9369 9.0152 15.9298 8.97536 15.8877 8.95192C15.9064 8.9613 15.9298 9.00817 15.9439 9.02692C15.9814 9.07614 16.0166 9.1277 16.0494 9.17692C16.1759 9.36442 16.2931 9.55895 16.3963 9.76051C16.4431 9.85192 16.4877 9.94567 16.5298 10.0394C16.5345 10.0488 16.5392 10.0582 16.5416 10.0675C16.5627 10.1144 16.558 10.105 16.5298 10.0418C16.5463 10.0582 16.5556 10.1074 16.565 10.1285C16.5884 10.1871 16.6095 10.2457 16.6306 10.3043C16.708 10.5222 16.7713 10.7449 16.8181 10.9722C16.8392 11.0754 16.8603 11.1808 16.8744 11.2863C16.8791 11.3168 16.8838 11.4222 16.8744 11.2886L16.8814 11.3519C16.8884 11.4222 16.8955 11.4925 16.9002 11.5629C16.9189 11.8043 16.9213 12.048 16.9072 12.2894C16.9002 12.4136 16.8955 12.5472 16.872 12.6691C16.9002 12.5332 16.8627 12.7207 16.858 12.7488C16.8463 12.8168 16.8345 12.8824 16.8205 12.9504C16.7713 13.1941 16.7033 13.4332 16.6189 13.6652C16.6002 13.7168 16.5814 13.7707 16.5603 13.8222C16.5486 13.8527 16.5369 13.8855 16.5228 13.916C16.5791 13.8035 16.5275 13.9043 16.5181 13.9254C16.4689 14.0355 16.415 14.1457 16.3588 14.2535C16.2463 14.4668 16.1173 14.673 15.9767 14.8699C15.9463 14.9144 15.9158 14.9613 15.8783 15.0011C15.965 14.905 15.8502 15.034 15.8291 15.0597C15.7447 15.1605 15.658 15.259 15.5666 15.355C15.4002 15.5285 15.222 15.6925 15.0345 15.8425C15.0181 15.8566 14.997 15.8683 14.983 15.8824C15.0627 15.798 14.9994 15.8707 14.9736 15.8894C14.9291 15.9222 14.8845 15.955 14.84 15.9855C14.7369 16.0582 14.6291 16.1261 14.5213 16.1918C14.3173 16.3136 14.1041 16.4215 13.8861 16.5152C13.7408 16.5785 13.6541 16.7707 13.6541 16.9207V17.8277C13.6541 18.0738 13.8697 18.3082 14.1228 18.2965C14.3713 18.2965 14.5845 18.1019 14.5845 17.8394ZM11.2869 2.48786V4.35348C11.2869 4.72145 11.6103 5.07301 11.99 5.05661C12.372 5.0402 12.6931 4.74723 12.6931 4.35348V2.48786C12.6931 2.11989 12.3697 1.76833 11.99 1.78473C11.608 1.80348 11.2869 2.09411 11.2869 2.48786ZM10.2017 20.6332H13.7806C14.1486 20.6332 14.5002 20.3097 14.4838 19.93C14.4673 19.548 14.1744 19.2269 13.7806 19.2269H10.2017C9.83376 19.2269 9.48219 19.5504 9.4986 19.93C9.51501 20.3097 9.80563 20.6332 10.2017 20.6332ZM2.50251 12.6808H4.36813C4.7361 12.6808 5.08766 12.3574 5.07126 11.9777C5.05485 11.5957 4.76188 11.2746 4.36813 11.2746H2.50251C2.13454 11.2746 1.78297 11.598 1.79938 11.9777C1.81579 12.3574 2.10641 12.6808 2.50251 12.6808ZM19.6119 12.6808H21.4775C21.8455 12.6808 22.197 12.3574 22.1806 11.9777C22.1642 11.5957 21.8713 11.2746 21.4775 11.2746H19.6119C19.2439 11.2746 18.8923 11.598 18.9088 11.9777C18.9252 12.3574 19.2181 12.6808 19.6119 12.6808ZM4.78297 5.76442L6.10251 7.08395C6.36266 7.34411 6.84079 7.36286 7.09626 7.08395C7.35407 6.8027 7.37516 6.36676 7.09626 6.0902L5.77672 4.77067C5.51657 4.51051 5.03844 4.49176 4.78297 4.77067C4.52516 5.05192 4.50641 5.48786 4.78297 5.76442ZM16.8814 17.8652L18.2009 19.1847C18.4611 19.4449 18.9392 19.4636 19.1947 19.1847C19.4525 18.9035 19.4736 18.4675 19.1947 18.191L17.8752 16.8715C17.615 16.6113 17.1369 16.5925 16.8814 16.8715C16.6236 17.1504 16.6048 17.5863 16.8814 17.8652ZM18.2009 4.77067L16.8814 6.0902C16.6213 6.35036 16.6025 6.82848 16.8814 7.08395C17.1627 7.34176 17.5986 7.36286 17.8752 7.08395L19.1947 5.76442C19.4548 5.50426 19.4736 5.02614 19.1947 4.77067C18.9158 4.51286 18.4798 4.49176 18.2009 4.77067ZM6.10251 16.8691L4.78297 18.1886C4.52282 18.4488 4.50407 18.9269 4.78297 19.1824C5.06422 19.4402 5.50016 19.4613 5.77672 19.1824L7.09626 17.8629C7.35641 17.6027 7.37516 17.1246 7.09626 16.8691C6.81735 16.6113 6.38141 16.5925 6.10251 16.8691ZM10.8345 22.7496H13.1455C13.5134 22.7496 13.865 22.4261 13.8486 22.0465C13.8322 21.6644 13.5392 21.3433 13.1455 21.3433H10.8345C10.4666 21.3433 10.115 21.6668 10.1314 22.0465C10.1478 22.4285 10.4408 22.7496 10.8345 22.7496Z" fill="#FFA800"/>
</g>
</svg>
