<svg width="21" height="20" viewBox="0 0 21 20" fill="none" xmlns="http://www.w3.org/2000/svg">
<g id="Frame">
<path id="Vector" d="M2.1665 15C2.1665 13.7164 2.1665 13.0744 2.45545 12.6029C2.61712 12.3391 2.83895 12.1173 3.10278 11.9556C3.57429 11.6667 4.21614 11.6667 5.49984 11.6667C6.78354 11.6667 7.42539 11.6667 7.8969 11.9556C8.16073 12.1173 8.38255 12.3391 8.54423 12.6029C8.83317 13.0744 8.83317 13.7164 8.83317 15C8.83317 16.2837 8.83317 16.9256 8.54423 17.3971C8.38255 17.6609 8.16073 17.8828 7.8969 18.0444C7.42539 18.3334 6.78354 18.3334 5.49984 18.3334C4.21614 18.3334 3.57429 18.3334 3.10278 18.0444C2.83895 17.8828 2.61712 17.6609 2.45545 17.3971C2.1665 16.9256 2.1665 16.2837 2.1665 15Z" stroke-width="1.5"/>
<path id="Vector_2" d="M12.1665 15C12.1665 13.7164 12.1665 13.0744 12.4554 12.6029C12.6171 12.3391 12.8389 12.1173 13.1028 11.9556C13.5743 11.6667 14.2162 11.6667 15.4998 11.6667C16.7835 11.6667 17.4254 11.6667 17.8969 11.9556C18.1608 12.1173 18.3826 12.3391 18.5443 12.6029C18.8332 13.0744 18.8332 13.7164 18.8332 15C18.8332 16.2837 18.8332 16.9256 18.5443 17.3971C18.3826 17.6609 18.1608 17.8828 17.8969 18.0444C17.4254 18.3334 16.7835 18.3334 15.4998 18.3334C14.2162 18.3334 13.5743 18.3334 13.1028 18.0444C12.8389 17.8828 12.6171 17.6609 12.4554 17.3971C12.1665 16.9256 12.1665 16.2837 12.1665 15Z" stroke-width="1.5"/>
<path id="Vector_3" d="M2.1665 5.00002C2.1665 3.71632 2.1665 3.07447 2.45545 2.60296C2.61712 2.33913 2.83895 2.1173 3.10278 1.95563C3.57429 1.66669 4.21614 1.66669 5.49984 1.66669C6.78354 1.66669 7.42539 1.66669 7.8969 1.95563C8.16073 2.1173 8.38255 2.33913 8.54423 2.60296C8.83317 3.07447 8.83317 3.71632 8.83317 5.00002C8.83317 6.28372 8.83317 6.92557 8.54423 7.39708C8.38255 7.66091 8.16073 7.88274 7.8969 8.04441C7.42539 8.33335 6.78354 8.33335 5.49984 8.33335C4.21614 8.33335 3.57429 8.33335 3.10278 8.04441C2.83895 7.88274 2.61712 7.66091 2.45545 7.39708C2.1665 6.92557 2.1665 6.28372 2.1665 5.00002Z" stroke-width="1.5"/>
<path id="Vector_4" d="M12.1665 5.00002C12.1665 3.71632 12.1665 3.07447 12.4554 2.60296C12.6171 2.33913 12.8389 2.1173 13.1028 1.95563C13.5743 1.66669 14.2162 1.66669 15.4998 1.66669C16.7835 1.66669 17.4254 1.66669 17.8969 1.95563C18.1608 2.1173 18.3826 2.33913 18.5443 2.60296C18.8332 3.07447 18.8332 3.71632 18.8332 5.00002C18.8332 6.28372 18.8332 6.92557 18.5443 7.39708C18.3826 7.66091 18.1608 7.88274 17.8969 8.04441C17.4254 8.33335 16.7835 8.33335 15.4998 8.33335C14.2162 8.33335 13.5743 8.33335 13.1028 8.04441C12.8389 7.88274 12.6171 7.66091 12.4554 7.39708C12.1665 6.92557 12.1665 6.28372 12.1665 5.00002Z" stroke-width="1.5"/>
</g>
</svg>
