<svg width="40" height="41" viewBox="0 0 40 41"  xmlns="http://www.w3.org/2000/svg" fill="#B3BAC2">
<g id="license-no">
<path id="Vector" fill-rule="evenodd" clip-rule="evenodd" d="M2.4501 2.9501C2.93825 2.46195 3.72971 2.46195 4.21786 2.9501L37.5512 36.2835C38.0393 36.7716 38.0393 37.563 37.5512 38.0512C37.063 38.5393 36.2716 38.5393 35.7835 38.0512L2.4501 4.71786C1.96195 4.22971 1.96195 3.43825 2.4501 2.9501ZM26.6673 13.4173H19.1673C18.477 13.4173 17.9173 12.8577 17.9173 12.1673C17.9173 11.477 18.477 10.9173 19.1673 10.9173H26.6673C27.3576 10.9173 27.9173 11.477 27.9173 12.1673C27.9173 12.8577 27.3576 13.4173 26.6673 13.4173ZM27.9173 20.5006C27.9173 21.191 27.3576 21.7506 26.6673 21.7506H25.834C25.1436 21.7506 24.584 21.191 24.584 20.5006C24.584 19.8103 25.1436 19.2506 25.834 19.2506H26.6673C27.3576 19.2506 27.9173 19.8103 27.9173 20.5006Z" />
<path id="Vector_2" fill-rule="evenodd" clip-rule="evenodd" d="M12.084 20.5C12.084 19.8097 12.6436 19.25 13.334 19.25H20.0007C20.691 19.25 21.2507 19.8097 21.2507 20.5C21.2507 21.1903 20.691 21.75 20.0007 21.75H13.334C12.6436 21.75 12.084 21.1903 12.084 20.5ZM12.084 28.8333C12.084 28.143 12.6436 27.5833 13.334 27.5833H20.0007C20.691 27.5833 21.2507 28.143 21.2507 28.8333C21.2507 29.5237 20.691 30.0833 20.0007 30.0833H13.334C12.6436 30.0833 12.084 29.5237 12.084 28.8333Z" />
<path id="Vector_3" fill-rule="evenodd" clip-rule="evenodd" d="M7.00392 6.12705C7.57843 6.50984 7.73388 7.28587 7.35112 7.8604C6.86253 8.59372 6.5638 9.60387 6.40787 11.1914C6.25138 12.7847 6.25 14.8004 6.25 17.4817V24.0435C6.25 27.1748 6.25307 29.388 6.49557 31.0648C6.73143 32.6956 7.17127 33.6352 7.91855 34.3298C8.67878 35.0367 9.72778 35.4618 11.5272 35.6867C13.3538 35.915 15.7572 35.9173 19.1177 35.9173H20.8823C24.2428 35.9173 26.6462 35.915 28.4728 35.6867C30.2722 35.4618 31.3212 35.0367 32.0815 34.3298C32.1907 34.2283 32.291 34.1238 32.3835 34.0156C32.8322 33.491 33.6212 33.4295 34.1458 33.8783C34.6705 34.327 34.732 35.1161 34.2832 35.6406C34.1275 35.8228 33.961 35.996 33.7837 36.161C32.4763 37.3762 30.8278 37.9118 28.7828 38.1675C26.7832 38.4173 24.2235 38.4173 20.971 38.4173H19.029C15.7766 38.4173 13.2169 38.4173 11.2172 38.1675C9.17218 37.9118 7.52365 37.3761 6.21642 36.1608C4.8962 34.9336 4.30232 33.3657 4.0213 31.4226C3.74993 29.5463 3.74997 27.152 3.75 24.1437V17.4192C3.74998 14.8137 3.74998 12.6764 3.91985 10.947C4.09163 9.19799 4.44832 7.70844 5.27058 6.47425C5.65335 5.89972 6.4294 5.74429 7.00392 6.12705ZM18.997 2.58399H20.9722C24.2237 2.58397 26.7843 2.58395 28.7853 2.83802C30.8335 3.0981 32.484 3.64357 33.7908 4.87784C35.1078 6.12164 35.699 7.70845 35.9792 9.676C36.25 11.5795 36.25 14.0097 36.25 17.0684V23.847C36.25 25.413 36.25 26.8057 36.217 28.0343C36.1983 28.7243 35.6238 29.2688 34.9338 29.2502C34.2437 29.2317 33.6993 28.6572 33.7178 27.967C33.7498 26.7755 33.75 25.4152 33.75 23.834V17.1673C33.75 13.9873 33.747 11.7353 33.504 10.0284C33.2673 8.36505 32.8248 7.4042 32.0742 6.69537C31.3137 5.97702 30.2665 5.54619 28.4703 5.3181C26.6452 5.08637 24.2433 5.08399 20.8823 5.08399H19.1177C15.4253 5.08399 12.8984 5.08789 11.0328 5.38945C10.3513 5.49962 9.70952 5.03645 9.59935 4.35494C9.48918 3.67344 9.95235 3.03165 10.6339 2.92149C12.7222 2.5839 15.4529 2.58394 18.997 2.58399Z" />
</g>
</svg>
