<svg width="21" height="21" viewBox="0 0 21 21" xmlns="http://www.w3.org/2000/svg" fill="white">
<path d="M10.4987 11.3307C10.2777 11.3307 10.0657 11.4185 9.90944 11.5748C9.75316 11.7311 9.66536 11.943 9.66536 12.1641V14.6641C9.66536 14.8851 9.75316 15.097 9.90944 15.2533C10.0657 15.4096 10.2777 15.4974 10.4987 15.4974C10.7197 15.4974 10.9317 15.4096 11.088 15.2533C11.2442 15.097 11.332 14.8851 11.332 14.6641V12.1641C11.332 11.943 11.2442 11.7311 11.088 11.5748C10.9317 11.4185 10.7197 11.3307 10.4987 11.3307ZM14.6654 7.9974V6.33073C14.6654 5.22566 14.2264 4.16585 13.445 3.38445C12.6636 2.60305 11.6038 2.16406 10.4987 2.16406C9.39363 2.16406 8.33382 2.60305 7.55242 3.38445C6.77102 4.16585 6.33203 5.22566 6.33203 6.33073V7.9974C5.66899 7.9974 5.03311 8.26079 4.56426 8.72963C4.09542 9.19847 3.83203 9.83435 3.83203 10.4974V16.3307C3.83203 16.9938 4.09542 17.6297 4.56426 18.0985C5.03311 18.5673 5.66899 18.8307 6.33203 18.8307H14.6654C15.3284 18.8307 15.9643 18.5673 16.4331 18.0985C16.902 17.6297 17.1654 16.9938 17.1654 16.3307V10.4974C17.1654 9.83435 16.902 9.19847 16.4331 8.72963C15.9643 8.26079 15.3284 7.9974 14.6654 7.9974ZM7.9987 6.33073C7.9987 5.66769 8.26209 5.0318 8.73093 4.56296C9.19977 4.09412 9.83566 3.83073 10.4987 3.83073C11.1617 3.83073 11.7976 4.09412 12.2665 4.56296C12.7353 5.0318 12.9987 5.66769 12.9987 6.33073V7.9974H7.9987V6.33073ZM15.4987 16.3307C15.4987 16.5517 15.4109 16.7637 15.2546 16.92C15.0983 17.0763 14.8864 17.1641 14.6654 17.1641H6.33203C6.11102 17.1641 5.89906 17.0763 5.74278 16.92C5.5865 16.7637 5.4987 16.5517 5.4987 16.3307V10.4974C5.4987 10.2764 5.5865 10.0644 5.74278 9.90814C5.89906 9.75186 6.11102 9.66406 6.33203 9.66406H14.6654C14.8864 9.66406 15.0983 9.75186 15.2546 9.90814C15.4109 10.0644 15.4987 10.2764 15.4987 10.4974V16.3307Z" />
</svg>
