<svg width="24" height="25" viewBox="0 0 24 25" fill="none" xmlns="http://www.w3.org/2000/svg">
<g clip-path="url(#clip0_53064_27820)">
<path d="M8.25188 5.2C8.75188 5.2 9.15188 4.8 9.15188 4.3V1.65C9.15188 1.15 8.75188 0.75 8.25188 0.75C7.75188 0.75 7.35188 1.15 7.35188 1.65V4.25C7.30188 4.8 7.70188 5.2 8.25188 5.2Z" fill="#227AFF"/>
<path d="M15.7516 5.2C16.2516 5.2 16.6516 4.8 16.6516 4.3V1.65C16.6516 1.15 16.2516 0.75 15.7516 0.75C15.2516 0.75 14.8516 1.15 14.8516 1.65V4.25C14.8516 4.8 15.2516 5.2 15.7516 5.2Z" fill="#227AFF"/>
<path d="M20.1 2.15039H18.55V4.30039C18.55 5.80039 17.3 7.05039 15.8 7.05039C14.3 7.05039 13 5.80039 13 4.30039V2.15039H11V4.30039C11 5.80039 9.75 7.05039 8.25 7.05039C6.75 7.05039 5.5 5.80039 5.5 4.30039V2.15039H3.9C3.4 2.15039 3 2.55039 3 3.05039V23.3004C3 23.8004 3.4 24.2004 3.9 24.2004H20.1C20.6 24.2004 21 23.8004 21 23.3004V3.05039C21 2.55039 20.6 2.15039 20.1 2.15039ZM16.2 20.1004H7.8C7.3 20.1004 6.9 19.7004 6.9 19.2004C6.9 18.7004 7.3 18.3004 7.8 18.3004H16.25C16.75 18.3004 17.15 18.7004 17.15 19.2004C17.15 19.7004 16.75 20.1004 16.2 20.1004ZM16.2 14.5504H7.8C7.3 14.5504 6.9 14.1504 6.9 13.6504C6.9 13.1504 7.3 12.7504 7.8 12.7504H16.25C16.75 12.7504 17.15 13.1504 17.15 13.6504C17.15 14.1504 16.75 14.5504 16.2 14.5504Z" fill="#227AFF"/>
</g>
<defs>
<clipPath id="clip0_53064_27820">
<rect width="24" height="24" fill="white" transform="translate(0 0.5)"/>
</clipPath>
</defs>
</svg>
