<svg width="15" height="18" viewBox="0 0 15 18" fill="none" xmlns="http://www.w3.org/2000/svg">
<path fill-rule="evenodd" clip-rule="evenodd" d="M8.08951 8.8639C8.30543 10.2347 9.02256 11.4765 10.1019 12.3487C10.9002 12.994 10.1694 14.2576 9.21181 13.8895C7.91709 13.3913 6.48353 13.3913 5.18881 13.8895C4.23031 14.2585 3.50041 12.994 4.29871 12.3487C5.37779 11.4764 6.09461 10.2346 6.31021 8.8639C6.47041 7.8496 7.93021 7.8505 8.08951 8.8639ZM7.19851 10.9375L6.57931 12.0139H7.82131L7.20031 10.9375H7.19851Z" fill="#FF3945"/>
<path fill-rule="evenodd" clip-rule="evenodd" d="M0 3.6C0 2.64522 0.379284 1.72955 1.05442 1.05442C1.72955 0.379285 2.64522 0 3.6 0H7.8048C8.52051 0.000391517 9.20679 0.284937 9.7128 0.7911L13.6098 4.6863C14.1159 5.19268 14.4001 5.8793 14.4 6.5952V14.4C14.4 15.3548 14.0207 16.2705 13.3456 16.9456C12.6705 17.6207 11.7548 18 10.8 18H3.6C2.64522 18 1.72955 17.6207 1.05442 16.9456C0.379284 16.2705 0 15.3548 0 14.4V3.6ZM3.6 1.8C3.12261 1.8 2.66477 1.98964 2.32721 2.32721C1.98964 2.66477 1.8 3.12261 1.8 3.6V14.4C1.8 14.8774 1.98964 15.3352 2.32721 15.6728C2.66477 16.0104 3.12261 16.2 3.6 16.2H10.8C11.2774 16.2 11.7352 16.0104 12.0728 15.6728C12.4104 15.3352 12.6 14.8774 12.6 14.4V7.2H9.9C9.18392 7.2 8.49716 6.91554 7.99081 6.40919C7.48446 5.90284 7.2 5.21608 7.2 4.5V1.8H3.6ZM9 2.6226L11.7774 5.4H9.9C9.6613 5.4 9.43239 5.30518 9.2636 5.1364C9.09482 4.96761 9 4.73869 9 4.5V2.6226Z" fill="#FF3945"/>
</svg>
