<svg width="40" height="40" viewBox="0 0 40 40" xmlns="http://www.w3.org/2000/svg" fill="#227AFF">
<path d="M16.4833 30.7914C19.1167 30.7914 21.2583 28.6498 21.2583 26.0164V23.4581C21.2583 20.8248 19.1167 18.6831 16.4833 18.6831H13.95C13.2583 18.6831 12.7 19.2414 12.7 19.9331V29.5414C12.7 30.2331 13.2583 30.7914 13.95 30.7914H16.4833ZM15.2 21.1831H16.4833C17.7417 21.1831 18.7583 22.2081 18.7583 23.4581V26.0164C18.7583 27.2748 17.7333 28.2914 16.4833 28.2914H15.2V21.1831ZM11.1667 22.6831C11.1667 20.5498 9.18333 18.6831 6.91667 18.6831H4.375C3.68333 18.6831 3.125 19.2414 3.125 19.9331V25.4331V29.5331C3.125 30.2248 3.68333 30.7831 4.375 30.7831C5.06667 30.7831 5.625 30.2248 5.625 29.5331V26.6831H7.15833C9.36667 26.6914 11.1667 24.8914 11.1667 22.6831ZM5.625 21.1831H6.90833C7.79167 21.1831 8.65833 21.9248 8.65833 22.6831C8.65833 23.5081 7.98333 24.1831 7.15833 24.1831H5.625V21.1831Z" />
<path d="M9.62513 39.5832H33.0918C35.1751 39.5832 36.8751 37.8832 36.8751 35.7998V11.6498C36.8751 11.5665 36.8668 11.4832 36.8501 11.3998C36.8418 11.3498 36.8251 11.3082 36.8085 11.2582C36.8001 11.2248 36.7918 11.1915 36.7835 11.1665C36.7668 11.1165 36.7335 11.0748 36.7085 11.0332C36.6918 11.0082 36.6835 10.9748 36.6668 10.9498C36.6335 10.8998 36.5918 10.8498 36.5501 10.8082C36.5335 10.7915 36.5251 10.7748 36.5085 10.7582L26.5251 0.783171C26.5168 0.774837 26.5001 0.766504 26.4835 0.749837C26.4335 0.708171 26.3835 0.666504 26.3335 0.624837C26.3085 0.608171 26.2835 0.599837 26.2585 0.583171C26.2085 0.558171 26.1668 0.524837 26.1168 0.508171C26.0918 0.499837 26.0585 0.491504 26.0335 0.483171C25.9835 0.466504 25.9335 0.449837 25.8835 0.441504C25.8001 0.424837 25.7168 0.416504 25.6335 0.416504H9.62513C7.5418 0.416504 5.8418 2.10817 5.8418 4.19984V14.9415C5.8418 15.6332 6.40013 16.1915 7.0918 16.1915C7.78346 16.1915 8.3418 15.6332 8.3418 14.9415V4.19984C8.3418 3.4915 8.9168 2.9165 9.62513 2.9165H24.3918V9.4165C24.3918 11.3332 25.9501 12.8998 27.8751 12.8998H34.3751V35.7998C34.3751 36.5082 33.8001 37.0832 33.0918 37.0832H9.62513C8.9168 37.0832 8.3418 36.5082 8.3418 35.7998V34.5415C8.3418 33.8498 7.78346 33.2915 7.0918 33.2915C6.40013 33.2915 5.8418 33.8498 5.8418 34.5415V35.7998C5.85013 37.8832 7.5418 39.5832 9.62513 39.5832ZM26.8918 9.4165V4.68317L32.6001 10.3998H27.8668C27.3335 10.3998 26.8918 9.9665 26.8918 9.4165Z" />
<path d="M29.625 21.1831C30.3167 21.1831 30.875 20.6248 30.875 19.9331C30.875 19.2414 30.3167 18.6831 29.625 18.6831H24C23.3083 18.6831 22.75 19.2414 22.75 19.9331V29.5414C22.75 30.2331 23.3083 30.7914 24 30.7914C24.6917 30.7914 25.25 30.2331 25.25 29.5414V25.9914H28.5667C29.2583 25.9914 29.8167 25.4331 29.8167 24.7414C29.8167 24.0498 29.2583 23.4914 28.5667 23.4914H25.25V21.1914H29.625V21.1831Z" />
</svg>
