<svg width="20" height="20" viewBox="0 0 20 20" fill="#4D5E6F" xmlns="http://www.w3.org/2000/svg">
<path d="M8.24167 15.396C9.55833 15.396 10.6292 14.3251 10.6292 13.0085V11.7293C10.6292 10.4126 9.55833 9.3418 8.24167 9.3418H6.975C6.62917 9.3418 6.35 9.62096 6.35 9.9668V14.771C6.35 15.1168 6.62917 15.396 6.975 15.396H8.24167ZM7.6 10.5918H8.24167C8.87083 10.5918 9.37917 11.1043 9.37917 11.7293V13.0085C9.37917 13.6376 8.86667 14.146 8.24167 14.146H7.6V10.5918ZM5.58333 11.3418C5.58333 10.2751 4.59167 9.3418 3.45833 9.3418H2.1875C1.84167 9.3418 1.5625 9.62096 1.5625 9.9668V12.7168V14.7668C1.5625 15.1126 1.84167 15.3918 2.1875 15.3918C2.53333 15.3918 2.8125 15.1126 2.8125 14.7668V13.3418H3.57917C4.68333 13.346 5.58333 12.446 5.58333 11.3418ZM2.8125 10.5918H3.45417C3.89583 10.5918 4.32917 10.9626 4.32917 11.3418C4.32917 11.7543 3.99167 12.0918 3.57917 12.0918H2.8125V10.5918Z" />
<path d="M4.81256 19.7918H16.5459C17.5876 19.7918 18.4376 18.9418 18.4376 17.9002V5.82516C18.4376 5.7835 18.4334 5.74183 18.4251 5.70016C18.4209 5.67516 18.4126 5.65433 18.4042 5.62933C18.4001 5.61266 18.3959 5.596 18.3917 5.5835C18.3834 5.5585 18.3667 5.53766 18.3542 5.51683C18.3459 5.50433 18.3417 5.48766 18.3334 5.47516C18.3167 5.45016 18.2959 5.42516 18.2751 5.40433C18.2667 5.396 18.2626 5.38766 18.2542 5.37933L13.2626 0.391829C13.2584 0.387663 13.2501 0.383496 13.2417 0.375163C13.2167 0.354329 13.1917 0.333496 13.1667 0.312663C13.1542 0.304329 13.1417 0.300163 13.1292 0.291829C13.1042 0.279329 13.0834 0.262663 13.0584 0.254329C13.0459 0.250163 13.0292 0.245996 13.0167 0.241829C12.9917 0.233496 12.9667 0.225163 12.9417 0.220996C12.9001 0.212663 12.8584 0.208496 12.8167 0.208496H4.81256C3.7709 0.208496 2.9209 1.05433 2.9209 2.10016V7.471C2.9209 7.81683 3.20007 8.096 3.5459 8.096C3.89173 8.096 4.1709 7.81683 4.1709 7.471V2.10016C4.1709 1.746 4.4584 1.4585 4.81256 1.4585H12.1959V4.7085C12.1959 5.66683 12.9751 6.45016 13.9376 6.45016H17.1876V17.9002C17.1876 18.2543 16.9001 18.5418 16.5459 18.5418H4.81256C4.4584 18.5418 4.1709 18.2543 4.1709 17.9002V17.271C4.1709 16.9252 3.89173 16.646 3.5459 16.646C3.20007 16.646 2.9209 16.9252 2.9209 17.271V17.9002C2.92507 18.9418 3.7709 19.7918 4.81256 19.7918ZM13.4459 4.7085V2.34183L16.3001 5.20016H13.9334C13.6667 5.20016 13.4459 4.9835 13.4459 4.7085Z" />
<path d="M14.8125 10.5918C15.1583 10.5918 15.4375 10.3126 15.4375 9.9668C15.4375 9.62096 15.1583 9.3418 14.8125 9.3418H12C11.6542 9.3418 11.375 9.62096 11.375 9.9668V14.771C11.375 15.1168 11.6542 15.396 12 15.396C12.3458 15.396 12.625 15.1168 12.625 14.771V12.996H14.2833C14.6292 12.996 14.9083 12.7168 14.9083 12.371C14.9083 12.0251 14.6292 11.746 14.2833 11.746H12.625V10.596H14.8125V10.5918Z" />
</svg>
