<svg width="54" height="54" viewBox="0 0 54 54" xmlns="http://www.w3.org/2000/svg" fill="#227AFF">
<path d="M27 46.8281C23.0784 46.8281 19.2448 45.6652 15.9841 43.4865C12.7234 41.3078 10.182 38.211 8.68121 34.5879C7.18047 30.9648 6.7878 26.978 7.55288 23.1317C8.31795 19.2855 10.2064 15.7524 12.9794 12.9794C15.7524 10.2064 19.2855 8.31795 23.1317 7.55288C26.978 6.7878 30.9648 7.18047 34.5879 8.68121C38.211 10.182 41.3078 12.7234 43.4865 15.9841C45.6652 19.2448 46.8281 23.0784 46.8281 27C46.8237 32.2574 44.7332 37.2982 41.0157 41.0157C37.2982 44.7332 32.2574 46.8237 27 46.8281ZM27 9.70313C23.579 9.70313 20.2348 10.7176 17.3904 12.6182C14.5459 14.5188 12.3289 17.2202 11.0198 20.3808C9.71062 23.5414 9.36809 27.0192 10.0355 30.3745C10.7029 33.7297 12.3503 36.8117 14.7693 39.2308C17.1883 41.6498 20.2703 43.2971 23.6256 43.9645C26.9808 44.6319 30.4586 44.2894 33.6192 42.9802C36.7798 41.6711 39.4812 39.4541 41.3818 36.6096C43.2824 33.7652 44.2969 30.421 44.2969 27C44.2902 22.4146 42.4657 18.019 39.2234 14.7767C35.981 11.5343 31.5854 9.70983 27 9.70313Z" />
<path d="M27 32.6949C26.6729 32.6952 26.3584 32.5688 26.1225 32.3423C25.8866 32.1158 25.7475 31.8068 25.7344 31.4799C25.6948 30.058 26.1412 28.6651 27 27.5312C27.2278 27.2612 27.5231 26.9659 27.8438 26.6453C28.8141 25.6665 30.0206 24.4515 30.0206 23.0762C30.0206 20.2412 28.0294 19.8193 26.8397 19.8193C26.1816 19.8193 24.0469 20.0556 24.0469 23.0762C24.0469 23.4119 23.9135 23.7338 23.6762 23.9711C23.4388 24.2085 23.1169 24.3418 22.7812 24.3418C22.4456 24.3418 22.1237 24.2085 21.8863 23.9711C21.649 23.7338 21.5156 23.4119 21.5156 23.0762C21.5156 18.5115 24.8906 17.2881 26.8397 17.2881C27.6065 17.2497 28.3727 17.3737 29.0882 17.6521C29.8038 17.9304 30.4524 18.3568 30.9917 18.9032C31.531 19.4497 31.9487 20.1039 32.2176 20.823C32.4865 21.5422 32.6004 22.31 32.5519 23.0762C32.5519 25.4893 30.7969 27.2949 29.6325 28.4256C29.3625 28.6956 29.1178 28.9403 28.9237 29.1681C28.4944 29.8237 28.2765 30.5953 28.2994 31.3787C28.3108 31.7138 28.1897 32.04 27.9622 32.2864C27.7348 32.5328 27.4194 32.6796 27.0844 32.6949H27ZM27 36.7112C26.8353 36.7106 26.6722 36.6791 26.5191 36.6184C26.2071 36.4867 25.9589 36.2385 25.8272 35.9265C25.7654 35.7708 25.7339 35.6047 25.7344 35.4371C25.7257 35.3558 25.7257 35.2738 25.7344 35.1924C25.7518 35.1123 25.7744 35.0334 25.8019 34.9562C25.8362 34.8804 25.8756 34.8071 25.92 34.7368C26.0145 34.5972 26.1348 34.4769 26.2744 34.3824C26.3437 34.3363 26.4171 34.2968 26.4937 34.2643L26.73 34.1968C26.9337 34.1566 27.1441 34.1672 27.3427 34.2275C27.5414 34.2878 27.7221 34.3961 27.8691 34.5428C27.929 34.6018 27.9828 34.6668 28.0294 34.7368C28.0743 34.8055 28.1111 34.8791 28.1391 34.9562C28.1732 35.0318 28.1986 35.1111 28.215 35.1924C28.2237 35.2738 28.2237 35.3558 28.215 35.4371C28.2144 35.6018 28.1829 35.765 28.1222 35.9181C28.0575 36.0729 27.9629 36.2134 27.8438 36.3315C27.724 36.4487 27.5839 36.5431 27.4303 36.6099C27.2936 36.6677 27.1481 36.7019 27 36.7112Z" />
</svg>
