<svg width="48" height="48" viewBox="0 0 48 48" xmlns="http://www.w3.org/2000/svg" fill="#227AFF">
<path fill-rule="evenodd" clip-rule="evenodd" d="M37.9238 7C37.9238 6.204 37.6078 5.44105 37.0448 4.87805C36.4828 4.31605 35.7198 4 34.9238 4C29.7698 4 16.0778 4 10.9238 4C10.1278 4 9.36483 4.31605 8.80283 4.87805C8.23983 5.44105 7.92383 6.204 7.92383 7C7.92383 13.568 7.92383 34.431 7.92383 41C7.92383 41.795 8.23983 42.558 8.80283 43.121C9.36483 43.684 10.1278 44 10.9238 44C16.0778 44 29.7698 44 34.9238 44C35.7198 44 36.4828 43.684 37.0448 43.121C37.6078 42.558 37.9238 41.795 37.9238 41V7ZM14.9238 6H10.9238C10.6588 6 10.4038 6.10503 10.2168 6.29303C10.0288 6.48003 9.92383 6.734 9.92383 7V41C9.92383 41.265 10.0288 41.519 10.2168 41.707C10.4038 41.894 10.6588 42 10.9238 42H34.9238C35.1888 42 35.4438 41.894 35.6308 41.707C35.8188 41.519 35.9238 41.265 35.9238 41V7C35.9238 6.734 35.8188 6.48003 35.6308 6.29303C35.4438 6.10503 35.1888 6 34.9238 6H30.9238V9C30.9238 9.552 30.4758 10 29.9238 10H15.9238C15.3718 10 14.9238 9.552 14.9238 9V6ZM17.9238 32.999C17.9238 32.447 17.4758 31.999 16.9238 31.999H12.9238C12.3718 31.999 11.9238 32.447 11.9238 32.999V36.999C11.9238 37.551 12.3718 37.999 12.9238 37.999H16.9238C17.4758 37.999 17.9238 37.551 17.9238 36.999V32.999ZM20.9238 36H31.9238C32.4758 36 32.9238 35.552 32.9238 35C32.9238 34.448 32.4758 34 31.9238 34H20.9238C20.3718 34 19.9238 34.448 19.9238 35C19.9238 35.552 20.3718 36 20.9238 36ZM15.9238 33.999V35.999H13.9238V33.999H15.9238ZM17.9238 23.999C17.9238 23.447 17.4758 22.999 16.9238 22.999H12.9238C12.3718 22.999 11.9238 23.447 11.9238 23.999V27.999C11.9238 28.551 12.3718 28.999 12.9238 28.999H16.9238C17.4758 28.999 17.9238 28.551 17.9238 27.999V23.999ZM20.9238 27H31.9238C32.4758 27 32.9238 26.552 32.9238 26C32.9238 25.448 32.4758 25 31.9238 25H20.9238C20.3718 25 19.9238 25.448 19.9238 26C19.9238 26.552 20.3718 27 20.9238 27ZM15.9238 24.999V26.999H13.9238V24.999H15.9238ZM17.9238 14.999C17.9238 14.447 17.4758 13.999 16.9238 13.999H12.9238C12.3718 13.999 11.9238 14.447 11.9238 14.999V18.999C11.9238 19.551 12.3718 19.999 12.9238 19.999H16.9238C17.4758 19.999 17.9238 19.551 17.9238 18.999V14.999ZM20.9238 18H31.9238C32.4758 18 32.9238 17.552 32.9238 17C32.9238 16.448 32.4758 16 31.9238 16H20.9238C20.3718 16 19.9238 16.448 19.9238 17C19.9238 17.552 20.3718 18 20.9238 18ZM15.9238 15.999V17.999H13.9238V15.999H15.9238ZM16.9238 6H28.9238V8H16.9238V6Z" />
</svg>
