<svg width="17" height="16" viewBox="0 0 17 16" fill="none" xmlns="http://www.w3.org/2000/svg" stroke="#001931">
<g id="Frame">
<path id="Vector" d="M7.89917 2C5.46653 2.00438 4.19265 2.06411 3.37855 2.87835C2.5 3.75704 2.5 5.17128 2.5 7.99972C2.5 10.8282 2.5 12.2425 3.37855 13.1211C4.2571 13.9999 5.67111 13.9999 8.49917 13.9999C11.3271 13.9999 12.7412 13.9999 13.6197 13.1211C14.4338 12.3069 14.4935 11.0328 14.4979 8.59979"  stroke-width="1.5" stroke-linecap="round" stroke-linejoin="round"/>
<path id="Vector_2" d="M14.2054 2.33132L7.86719 8.7063M14.2054 2.33132C13.8761 2.00158 11.6576 2.03231 11.1886 2.03898M14.2054 2.33132C14.5347 2.66106 14.504 4.88239 14.4973 5.352"  stroke-width="1.5" stroke-linecap="round" stroke-linejoin="round"/>
</g>
</svg>
