<svg width="40" height="41" viewBox="0 0 40 41" fill="none" xmlns="http://www.w3.org/2000/svg">
<path d="M22.7661 20.7588L20.668 19.5478V15.125C20.668 14.8598 20.5626 14.6054 20.3751 14.4179C20.1875 14.2304 19.9332 14.125 19.668 14.125C19.4028 14.125 19.1484 14.2304 18.9609 14.4179C18.7733 14.6054 18.668 14.8598 18.668 15.125V20.125C18.6679 20.3006 18.7141 20.4731 18.8019 20.6251C18.8897 20.7772 19.0159 20.9034 19.168 20.9912L21.7661 22.4912C21.8799 22.5569 22.0055 22.5996 22.1357 22.6168C22.266 22.634 22.3983 22.6254 22.5253 22.5914C22.6522 22.5574 22.7711 22.4987 22.8754 22.4188C22.9796 22.3388 23.0671 22.239 23.1328 22.1253C23.1984 22.0115 23.2411 21.8858 23.2582 21.7556C23.2753 21.6253 23.2666 21.493 23.2325 21.3661C23.1985 21.2392 23.1398 21.1202 23.0597 21.016C22.9797 20.9118 22.8799 20.8244 22.7661 20.7588ZM19.668 10.125C17.6902 10.125 15.7568 10.7115 14.1123 11.8103C12.4678 12.9091 11.1861 14.4709 10.4292 16.2982C9.6723 18.1254 9.47427 20.1361 9.86012 22.0759C10.246 24.0157 11.1984 25.7975 12.5969 27.1961C13.9954 28.5946 15.7773 29.547 17.7171 29.9328C19.6569 30.3187 21.6675 30.1207 23.4948 29.3638C25.3221 28.6069 26.8838 27.3252 27.9827 25.6807C29.0815 24.0362 29.668 22.1028 29.668 20.125C29.665 17.4737 28.6105 14.9319 26.7358 13.0572C24.8611 11.1825 22.3192 10.1279 19.668 10.125ZM19.668 28.125C18.0857 28.125 16.539 27.6558 15.2234 26.7768C13.9078 25.8977 12.8824 24.6483 12.2769 23.1865C11.6714 21.7247 11.513 20.1161 11.8217 18.5643C12.1304 17.0124 12.8923 15.587 14.0111 14.4681C15.1299 13.3493 16.5554 12.5874 18.1072 12.2787C19.6591 11.97 21.2676 12.1285 22.7294 12.734C24.1912 13.3395 25.4407 14.3648 26.3197 15.6804C27.1988 16.996 27.668 18.5427 27.668 20.125C27.6655 22.246 26.8219 24.2794 25.3221 25.7792C23.8224 27.2789 21.789 28.1226 19.668 28.125Z" fill="#227AFF"/>
</svg>
