<svg width="21" height="20" viewBox="0 0 21 20" fill="none" xmlns="http://www.w3.org/2000/svg">
<g id="Frame">
<path id="Vector" d="M15.0645 7.50922C15.0707 7.50918 15.0769 7.50918 15.0832 7.50918C17.1543 7.50918 18.8332 9.19117 18.8332 11.2661C18.8332 13.1998 17.3748 14.7923 15.4998 15M15.0645 7.50922C15.0768 7.37172 15.0832 7.23247 15.0832 7.09174C15.0832 4.55579 13.0312 2.5 10.4998 2.5C8.10254 2.5 6.13511 4.34389 5.93352 6.69327M15.0645 7.50922C14.9793 8.45633 14.607 9.3205 14.0355 10.0138M5.93352 6.69327C3.81982 6.89478 2.1665 8.67825 2.1665 10.8486C2.1665 12.8681 3.59797 14.5527 5.49984 14.9394M5.93352 6.69327C6.06505 6.68073 6.19836 6.67431 6.33317 6.67431C7.27135 6.67431 8.13712 6.98495 8.83359 7.50918" stroke-width="1.5" stroke-linecap="round" stroke-linejoin="round"/>
<path id="Vector_2" d="M10.4998 10.8333V17.5M10.4998 10.8333C9.91634 10.8333 8.82611 12.4952 8.4165 12.9166M10.4998 10.8333C11.0833 10.8333 12.1736 12.4952 12.5832 12.9166" stroke-width="1.5" stroke-linecap="round" stroke-linejoin="round"/>
</g>
</svg>
