<svg width="24" height="24" viewBox="5 0 24 24" fill="none" xmlns="http://www.w3.org/2000/svg">
<path d="M14.15 18.7703C13.95 18.2803 13.95 17.7303 14.15 17.2403C14.18 17.1603 14.2199 17.0803 14.27 17.0003H14C12.9 17.0003 12 16.1003 12 15.0003C12 13.9003 12.9 13.0003 14 13.0003H16C16 11.9003 16.9 11.0003 18 11.0003C19.03 11.0003 19.89 11.7903 19.99 12.8003C20 12.5303 20 12.2703 20 12.0003C20 9.77027 19.77 7.52027 19.33 5.29027C19.02 3.75027 17.83 2.56027 16.37 2.34027C15.34 2.18027 14.29 2.08027 13.25 2.03027C13.36 2.23027 13.44 2.45027 13.48 2.68027L13.67 3.85027L13.73 4.18027C13.8 4.72027 13.83 5.12027 13.83 5.52027C13.83 6.41027 13.69 7.27027 13.42 8.08027C12.88 9.69027 11.56 10.9103 9.89 11.3403C8.85 11.6003 7.79 11.7303 6.75 11.7303C6.48 11.7303 6.22 11.7203 5.95 11.7003C5.59 11.6803 5.19 11.6303 4.8 11.5803C4.51 11.5303 4.24 11.4303 4.01 11.2703C4 11.5103 4 11.7603 4 12.0003C4 14.2303 4.23 16.4803 4.67 18.7103C4.98 20.2503 6.17 21.4403 7.63 21.6603C9.08 21.8903 10.54 22.0003 12 22.0003C12.33 22.0003 12.67 21.9903 13 21.9803C13 21.8403 13.02 21.7003 13.05 21.5603C13.17 21.0403 13.48 20.5903 13.93 20.3103C14.19 20.1503 14.44 19.9703 14.68 19.7903C14.47 19.4603 14.3 19.1203 14.15 18.7703Z" fill="#273044"/>
<path d="M12.4898 2.84987C12.3998 2.32987 11.9298 1.96987 11.4198 2.00987C11.3998 2.00987 11.3898 2.00987 11.3798 2.01977H11.3398C11.3298 2.01977 11.3298 2.01977 11.3198 2.02977C11.3198 2.02977 11.3098 2.02977 11.2998 2.02977C11.2698 2.02977 11.2498 2.03977 11.2198 2.04977C11.1798 2.05977 11.1398 2.07977 11.0998 2.09977C11.0598 2.11977 11.0098 2.13977 10.9698 2.15977C7.91984 3.53987 5.52984 5.97987 4.21984 9.10987C4.19984 9.13987 4.17984 9.17987 4.16984 9.20987C4.12984 9.30987 4.09984 9.41987 4.08984 9.52987V9.59987C4.08984 10.0799 4.43984 10.5099 4.93984 10.5899C5.29984 10.6399 5.66984 10.6799 6.02984 10.6999C6.26984 10.7199 6.50984 10.7299 6.74984 10.7299C7.71984 10.7299 8.67984 10.6099 9.63984 10.3699C10.9798 10.0299 12.0398 9.05987 12.4698 7.75987C12.7098 7.04987 12.8298 6.29987 12.8298 5.51987C12.8298 5.14987 12.7998 4.78987 12.7398 4.34987L12.6798 4.00987L12.4898 2.84987ZM21.9998 13.9999H18.9998V12.9999C18.9998 12.4472 18.5525 11.9999 17.9998 11.9999C17.4471 11.9999 16.9998 12.4472 16.9998 12.9999V13.9999H13.9998C13.4471 13.9999 12.9998 14.4472 12.9998 14.9999C12.9998 15.5526 13.4471 15.9999 13.9998 15.9999H18.6606C18.3468 16.8683 17.9204 17.6879 17.3795 18.4358C17.2017 18.1726 17.0419 17.9012 16.9227 17.6152C16.7098 17.1054 16.1248 16.8652 15.6151 17.0771C15.1054 17.289 14.8641 17.875 15.077 18.3847C15.3109 18.9458 15.6301 19.4747 16.0158 19.9655C15.5428 20.4009 15.0273 20.8009 14.4667 21.1542C13.9999 21.4481 13.8593 22.0653 14.1542 22.5331C14.3436 22.8349 14.6687 22.9999 15.0008 22.9999C15.1834 22.9999 15.367 22.9501 15.533 22.8456C16.2292 22.407 16.8706 21.9102 17.4536 21.3645C18.3896 22.0782 19.5041 22.6355 20.742 22.9658C20.8279 22.9892 20.9148 22.9999 21.0008 22.9999C21.4422 22.9999 21.8465 22.705 21.9656 22.2577C22.1082 21.7245 21.7908 21.1757 21.2576 21.0341C20.3285 20.7857 19.4947 20.3815 18.7909 19.8719C19.679 18.7137 20.3461 17.4089 20.7607 15.9999H21.9998C22.5525 15.9999 22.9998 15.5526 22.9998 14.9999C22.9998 14.4472 22.5525 13.9999 21.9998 13.9999Z" fill="#227AFF"/>
</svg>
