<?xml version="1.0" encoding="utf-8"?>
<svg fill="none" viewBox="0 0 18 18" xmlns="http://www.w3.org/2000/svg">
<path clip-rule="evenodd" d="M8.4299 3.15375C8.5654 3.08123 8.76359 3 9 3C9.23641 3 9.4346 3.08123 9.5701 3.15375C9.71155 3.22944 9.83953 3.32544 9.94898 3.41866C10.1673 3.60456 10.3817 3.84008 10.5684 4.06041C10.7431 4.2666 10.9125 4.48236 11.0547 4.6636C11.0667 4.6789 11.0786 4.69396 11.0902 4.70875C11.2527 4.91566 11.3548 5.04261 11.4128 5.10227C11.7015 5.39931 11.6948 5.87413 11.3977 6.16283C11.1007 6.45152 10.6259 6.44476 10.3372 6.14773C10.2114 6.01832 10.0535 5.8173 9.91244 5.63769L9.91056 5.6353C9.89956 5.6213 9.88852 5.60723 9.87743 5.59311C9.83555 5.53976 9.79303 5.48561 9.75 5.43115V11.25C9.75 11.6642 9.41421 12 9 12C8.58579 12 8.25 11.6642 8.25 11.25V5.43116C8.20699 5.4856 8.1645 5.53972 8.12263 5.59305C8.11153 5.60719 8.10047 5.62128 8.08945 5.6353L8.0876 5.63766C7.94651 5.81728 7.7886 6.01833 7.66281 6.14774C7.37411 6.44477 6.89928 6.45151 6.60226 6.16281C6.30523 5.87411 6.29849 5.39928 6.58719 5.10226C6.64517 5.0426 6.74732 4.91565 6.90983 4.70875C6.92147 4.69394 6.93331 4.67885 6.94534 4.66352C7.08759 4.4823 7.25692 4.26658 7.43161 4.06041C7.61831 3.84008 7.83275 3.60456 8.05102 3.41866C8.16047 3.32544 8.28845 3.22944 8.4299 3.15375Z" fill="white" fill-rule="evenodd"/>
<path clip-rule="evenodd" d="M3 14.25C3 13.8358 3.33579 13.5 3.75 13.5H14.2501C14.6643 13.5 15.0001 13.8358 15.0001 14.25C15.0001 14.6642 14.6643 15 14.2501 15H3.75C3.33579 15 3 14.6642 3 14.25Z" fill="white" fill-rule="evenodd"/>
</svg>