<svg width="16" height="17" viewBox="0 0 16 17" fill="none" xmlns="http://www.w3.org/2000/svg">
<path d="M14 6.89197V2.89197M14 2.89197H10M14 2.89197L8.66667 8.2253M6.66667 4.2253H5.2C4.08 4.2253 3.52 4.2253 3.092 4.4433C2.71569 4.63505 2.40974 4.94099 2.218 5.3173C2 5.7453 2 6.3053 2 7.4253V11.692C2 12.812 2 13.372 2.218 13.8C2.40974 14.1763 2.71569 14.4822 3.092 14.674C3.52 14.892 4.08 14.892 5.2 14.892H9.46667C10.5867 14.892 11.1467 14.892 11.5747 14.674C11.951 14.4822 12.2569 14.1763 12.4487 13.8C12.6667 13.372 12.6667 12.812 12.6667 11.692V10.2253" stroke="#227AFF" stroke-width="2" stroke-linecap="round" stroke-linejoin="round"/>
</svg>
