<?xml version="1.0" encoding="utf-8"?>
<svg fill="none" viewBox="0 0 18 18" xmlns="http://www.w3.org/2000/svg">
<path clip-rule="evenodd" d="M9 3C9.41421 3 9.75 3.33579 9.75 3.75V9.56885C9.79304 9.51438 9.83556 9.46022 9.87745 9.40687C9.88853 9.39275 9.89956 9.37869 9.91056 9.3647L9.91244 9.3623C10.0535 9.1827 10.2114 8.98167 10.3372 8.85227C10.6259 8.55524 11.1007 8.54848 11.3977 8.83717C11.6948 9.12587 11.7015 9.60069 11.4128 9.89773C11.3548 9.95739 11.2527 10.0843 11.0902 10.2912C11.0786 10.306 11.0667 10.3211 11.0547 10.3364C10.9125 10.5177 10.7431 10.7334 10.5684 10.9396C10.3817 11.1599 10.1673 11.3954 9.94898 11.5813C9.83953 11.6746 9.71155 11.7706 9.5701 11.8463C9.4346 11.9188 9.23641 12 9 12C8.76359 12 8.5654 11.9188 8.4299 11.8463C8.28845 11.7706 8.16047 11.6746 8.05102 11.5813C7.83275 11.3954 7.61831 11.1599 7.43161 10.9396C7.25692 10.7334 7.08758 10.5177 6.94534 10.3365C6.9333 10.3211 6.92146 10.3061 6.90983 10.2913C6.74732 10.0843 6.64517 9.9574 6.58719 9.89774C6.29849 9.60072 6.30523 9.12589 6.60226 8.83719C6.89928 8.54849 7.37411 8.55523 7.66281 8.85226C7.7886 8.98167 7.94651 9.18271 8.08759 9.36232L8.08945 9.3647C8.10046 9.37872 8.11152 9.3928 8.12262 9.40694C8.16449 9.46027 8.20699 9.5144 8.25 9.56884V3.75C8.25 3.33579 8.58579 3 9 3Z" fill="#227AFF" fill-rule="evenodd"/>
<path clip-rule="evenodd" d="M3 14.25C3 13.8358 3.33579 13.5 3.75 13.5H14.2501C14.6643 13.5 15.0001 13.8358 15.0001 14.25C15.0001 14.6642 14.6643 15 14.2501 15H3.75C3.33579 15 3 14.6642 3 14.25Z" fill="#227AFF" fill-rule="evenodd"/>
</svg>